<?xml version="1.0" encoding="UTF-8" standalone="no"?>
<!-- Created with Inkscape (http://www.inkscape.org/) -->

<svg
   xmlns:dc="http://purl.org/dc/elements/1.1/"
   xmlns:cc="http://creativecommons.org/ns#"
   xmlns:rdf="http://www.w3.org/1999/02/22-rdf-syntax-ns#"
   xmlns:svg="http://www.w3.org/2000/svg"
   xmlns="http://www.w3.org/2000/svg"
   xmlns:xlink="http://www.w3.org/1999/xlink"
   xmlns:sodipodi="http://sodipodi.sourceforge.net/DTD/sodipodi-0.dtd"
   xmlns:inkscape="http://www.inkscape.org/namespaces/inkscape"
   width="355.99921"
   height="284.56961"
   id="svg2"
   version="1.1"
   inkscape:version="0.48.3.1 r9886"
   sodipodi:docname="Cloud 1 by Merlin2525.svg">
  <title
     id="title3751">Cloud 1 by Merlin2525.svg</title>
  <defs
     id="defs4">
    <linearGradient
       inkscape:collect="always"
       id="linearGradient4297">
      <stop
         style="stop-color:#eeeeee;stop-opacity:1"
         offset="0"
         id="stop4299" />
      <stop
         style="stop-color:#336699;stop-opacity:1"
         offset="1"
         id="stop4301" />
    </linearGradient>
    <linearGradient
       id="linearGradient4291"
       inkscape:collect="always">
      <stop
         id="stop4293"
         offset="0"
         style="stop-color:#aaccee;stop-opacity:1" />
      <stop
         id="stop4295"
         offset="1"
         style="stop-color:#6699cc;stop-opacity:1" />
    </linearGradient>
    <linearGradient
       inkscape:collect="always"
       id="linearGradient4283">
      <stop
         style="stop-color:#eeeeee;stop-opacity:1"
         offset="0"
         id="stop4285" />
      <stop
         style="stop-color:#6699cc;stop-opacity:0;"
         offset="1"
         id="stop4287" />
    </linearGradient>
    <linearGradient
       inkscape:collect="always"
       id="linearGradient4275">
      <stop
         style="stop-color:#eeeeee;stop-opacity:1"
         offset="0"
         id="stop4277" />
      <stop
         style="stop-color:#6699cc;stop-opacity:1"
         offset="1"
         id="stop4279" />
    </linearGradient>
    <linearGradient
       inkscape:collect="always"
       id="linearGradient4215">
      <stop
         style="stop-color:#6699cc;stop-opacity:1"
         offset="0"
         id="stop4217" />
      <stop
         style="stop-color:#336699;stop-opacity:1"
         offset="1"
         id="stop4219" />
    </linearGradient>
    <linearGradient
       inkscape:collect="always"
       id="linearGradient4141">
      <stop
         style="stop-color:#eeeeee;stop-opacity:1"
         offset="0"
         id="stop4143" />
      <stop
         style="stop-color:#aaccee;stop-opacity:1"
         offset="1"
         id="stop4145" />
    </linearGradient>
    <filter
       inkscape:collect="always"
       id="filter4187"
       color-interpolation-filters="sRGB">
      <feGaussianBlur
         inkscape:collect="always"
         stdDeviation="50.44122"
         id="feGaussianBlur4189" />
    </filter>
    <filter
       inkscape:collect="always"
       id="filter4193"
       color-interpolation-filters="sRGB">
      <feGaussianBlur
         inkscape:collect="always"
         stdDeviation="57.33573"
         id="feGaussianBlur4195" />
    </filter>
    <filter
       inkscape:collect="always"
       id="filter4203"
       color-interpolation-filters="sRGB">
      <feGaussianBlur
         inkscape:collect="always"
         stdDeviation="69.545444"
         id="feGaussianBlur4205" />
    </filter>
    <radialGradient
       inkscape:collect="always"
       xlink:href="#linearGradient4141"
       id="radialGradient4265"
       gradientUnits="userSpaceOnUse"
       gradientTransform="matrix(0.07907074,0,0,0.05285696,89.124038,357.64004)"
       cx="2195.554"
       cy="-2618.0715"
       fx="2195.554"
       fy="-2618.0715"
       r="1654.9808" />
    <radialGradient
       inkscape:collect="always"
       xlink:href="#linearGradient4291"
       id="radialGradient4269"
       gradientUnits="userSpaceOnUse"
       gradientTransform="matrix(-0.03601473,0.09377725,-0.076691,-0.02945216,-61.717636,-5.1257944)"
       cx="419.62817"
       cy="-4180.1392"
       fx="419.62817"
       fy="-4180.1392"
       r="2157.3162" />
    <radialGradient
       inkscape:collect="always"
       xlink:href="#linearGradient4215"
       id="radialGradient4273"
       gradientUnits="userSpaceOnUse"
       gradientTransform="matrix(-0.03642446,0.08138901,-0.08040327,-0.03597975,-63.261616,-203.78689)"
       cx="1874.2858"
       cy="-4646.5469"
       fx="1874.2858"
       fy="-4646.5469"
       r="2614.2615" />
    <radialGradient
       inkscape:collect="always"
       xlink:href="#linearGradient4275"
       id="radialGradient4281"
       cx="240.90408"
       cy="134.22084"
       fx="240.90408"
       fy="134.22084"
       r="112.45754"
       gradientTransform="matrix(-0.63367529,1.1333937,-1.4794117,-0.82713247,592.12693,-11.355761)"
       gradientUnits="userSpaceOnUse" />
    <radialGradient
       inkscape:collect="always"
       xlink:href="#linearGradient4283"
       id="radialGradient4289"
       cx="179.27122"
       cy="116.44443"
       fx="179.27122"
       fy="116.44443"
       r="137.7616"
       gradientTransform="matrix(-0.8817948,1.5829569,-1.7440887,-0.97155305,591.43158,-59.164884)"
       gradientUnits="userSpaceOnUse" />
    <radialGradient
       inkscape:collect="always"
       xlink:href="#linearGradient4297"
       id="radialGradient4303"
       cx="228.32675"
       cy="86.322334"
       fx="228.32675"
       fy="86.322334"
       r="166.94115"
       gradientTransform="matrix(-0.40106134,1.4859735,-1.5407732,-0.41596061,452.90293,-191.41527)"
       gradientUnits="userSpaceOnUse" />
  </defs>
  <sodipodi:namedview
     id="base"
     pagecolor="#ffffff"
     bordercolor="#666666"
     borderopacity="1.0"
     inkscape:pageopacity="0.0"
     inkscape:pageshadow="2"
     inkscape:zoom="2.0672128"
     inkscape:cx="129.1745"
     inkscape:cy="173.35711"
     inkscape:document-units="px"
     inkscape:current-layer="layer1"
     showgrid="false"
     inkscape:window-width="1631"
     inkscape:window-height="1026"
     inkscape:window-x="49"
     inkscape:window-y="24"
     inkscape:window-maximized="1"
     fit-margin-top="0.4"
     fit-margin-left="0.4"
     fit-margin-right="0.4"
     fit-margin-bottom="0.4" />
  <metadata
     id="metadata7">
    <rdf:RDF>
      <cc:Work
         rdf:about="">
        <dc:format>image/svg+xml</dc:format>
        <dc:type
           rdf:resource="http://purl.org/dc/dcmitype/StillImage" />
        <dc:title>Cloud 1 by Merlin2525.svg</dc:title>
        <dc:creator>
          <cc:Agent>
            <dc:title>https://openclipart.org/user-detail/Merlin2525</dc:title>
          </cc:Agent>
        </dc:creator>
        <dc:date>2013-10-29</dc:date>
        <cc:license
           rdf:resource="http://creativecommons.org/licenses/publicdomain/" />
        <dc:subject>
          <rdf:Bag>
            <rdf:li>cloud</rdf:li>
            <rdf:li>computing</rdf:li>
            <rdf:li></rdf:li>
          </rdf:Bag>
        </dc:subject>
        <dc:description></dc:description>
      </cc:Work>
      <cc:License
         rdf:about="http://creativecommons.org/licenses/publicdomain/">
        <cc:permits
           rdf:resource="http://creativecommons.org/ns#Reproduction" />
        <cc:permits
           rdf:resource="http://creativecommons.org/ns#Distribution" />
        <cc:permits
           rdf:resource="http://creativecommons.org/ns#DerivativeWorks" />
      </cc:License>
    </rdf:RDF>
  </metadata>
  <g
     inkscape:label="Layer 1"
     inkscape:groupmode="layer"
     id="layer1"
     transform="translate(-92.215152,-63.901187)">
    <path
       sodipodi:nodetypes="cccccccccc"
       inkscape:connector-curvature="0"
       id="path4197"
       d="m 141.37555,-2280.8455 c -1133.42543,-837.1852 269.34961,-2079.1582 1127.11815,-1239.8299 -42.8278,-728.312 771.9724,-1112.4268 1102.0712,-613.6533 176.3028,-1112.2803 1529.7265,-911.5271 1628.0596,75.1412 648.4522,-131.1467 1246.1206,671.7601 701.318,1202.2595 461.8079,604.8456 -41.9905,1364.1409 -763.9357,1264.877 -99.0496,554.0375 -810.9969,902.85954 -1264.8771,500.9414 -252.6537,90.8812 -640.8068,41.5516 -751.412,-212.9001 -306.0636,624.63844 -1055.19148,704.47002 -1314.97138,-37.5706 -491.15469,449.3315 -1357.26772,-463.8781 -463.37077,-939.2652 z"
       style="opacity:0.57999998;fill:#000000;fill-opacity:1;stroke:#000000;stroke-width:32.87427902;stroke-linecap:butt;stroke-linejoin:miter;stroke-miterlimit:4;stroke-opacity:1;stroke-dasharray:none;filter:url(#filter4203)"
       transform="matrix(0.06385786,0,0,0.06385786,122.37826,388.0983)" />
    <path
       style="fill:url(#radialGradient4273);fill-opacity:1;stroke:url(#radialGradient4303);stroke-width:2.09928107;stroke-linecap:butt;stroke-linejoin:miter;stroke-miterlimit:4;stroke-opacity:1;stroke-dasharray:none"
       d="m 131.4062,242.44839 c -72.378122,-53.46086 17.20009,-132.7706 71.97535,-79.17289 -2.73489,-46.50844 49.29651,-71.037192 70.37591,-39.18658 11.25832,-71.027843 97.68506,-58.208173 103.9644,4.79835 41.40877,-8.37474 79.5746,42.89717 44.78467,76.77372 29.49006,38.62415 -2.68142,87.11112 -48.7833,80.77234 -6.32509,35.37965 -51.78853,57.65468 -80.77234,31.98905 -16.13393,5.80347 -40.92055,2.65339 -47.98357,-13.59535 -19.54456,39.88808 -67.38227,44.98595 -83.97125,-2.39918 -31.36409,28.69335 -86.672216,-29.62226 -29.58987,-59.97946 z"
       id="path4111"
       inkscape:connector-curvature="0"
       sodipodi:nodetypes="cccccccccc" />
    <path
       style="opacity:0.57999998;fill:#000000;fill-opacity:1;stroke:#000000;stroke-width:31.15533638;stroke-linecap:butt;stroke-linejoin:miter;stroke-miterlimit:4;stroke-opacity:1;stroke-dasharray:none;filter:url(#filter4193)"
       d="m 557.28788,-2357.6847 c -934.43608,-690.2051 222.06138,-1714.1317 929.23622,-1022.1598 -35.3087,-600.4461 636.4415,-917.124 908.5866,-505.9174 145.3503,-917.0034 1261.1608,-751.4953 1342.2301,61.949 534.607,-108.1219 1027.346,553.8229 578.1914,991.1853 380.7309,498.6563 -34.6184,1124.6462 -629.8157,1042.8096 -81.6599,456.7682 -668.6146,744.3494 -1042.8094,412.9939 -208.2968,74.9255 -528.3039,34.2565 -619.4908,-175.5226 -252.3297,514.9742 -869.9373,580.79015 -1084.10905,-30.9744 -404.92544,370.4448 -1118.97969,-382.4376 -382.01937,-774.3636 z"
       id="path4191"
       inkscape:connector-curvature="0"
       sodipodi:nodetypes="cccccccccc"
       transform="matrix(0.06385786,0,0,0.06385786,122.37826,388.0983)" />
    <path
       sodipodi:nodetypes="cccccccccc"
       inkscape:connector-curvature="0"
       id="path4113"
       d="m 157.96547,237.5416 c -59.671087,-44.07502 14.18037,-109.46078 59.33904,-65.27294 -2.25474,-38.3432 40.64179,-58.56557 58.02039,-32.3068 9.28176,-58.557874 80.53503,-47.988881 85.71195,3.95593 34.13885,-6.90443 65.60411,35.36595 36.92206,63.29497 24.31266,31.84313 -2.21066,71.8175 -40.21868,66.59159 -5.21463,29.16824 -42.6963,47.53256 -66.59158,26.37291 -13.30139,4.78458 -33.73635,2.18755 -39.55936,-11.2085 -16.11323,32.88515 -55.55233,37.08802 -69.22888,-1.97796 -25.85767,23.65582 -71.45565,-24.42164 -24.39494,-49.4492 z"
       style="fill:url(#radialGradient4269);fill-opacity:1;stroke:url(#radialGradient4289);stroke-width:1.98951316;stroke-linecap:butt;stroke-linejoin:miter;stroke-miterlimit:4;stroke-opacity:1;stroke-dasharray:none" />
    <path
       sodipodi:nodetypes="cccccccccc"
       inkscape:connector-curvature="0"
       id="path4177"
       d="m 889.05612,-2387.213 c -761.44414,-562.4276 180.95118,-1396.795 757.20688,-832.9276 -28.7719,-489.2856 518.6173,-747.337 740.3802,-412.2571 118.4416,-747.2387 1027.6824,-612.3711 1093.7433,50.4804 435.6354,-88.1052 837.1537,451.2938 471.151,807.6874 310.2463,406.3402 -28.2095,916.4408 -513.2181,849.7545 -66.5421,372.2068 -544.8341,606.5482 -849.7543,336.5364 -169.7349,61.0546 -430.4991,27.9147 -504.8045,-143.028 -205.616,419.6371 -708.8861,473.2686 -883.4083,-25.2402 -329.96166,301.8644 -911.8232,-311.637 -311.29618,-631.0058 z"
       style="opacity:0.57999998;fill:#000000;fill-opacity:1;stroke:#000000;stroke-width:31.64279175;stroke-linecap:butt;stroke-linejoin:miter;stroke-miterlimit:4;stroke-opacity:1;stroke-dasharray:none;filter:url(#filter4187)"
       transform="matrix(0.06385786,0,0,0.06385786,122.37826,388.0983)" />
    <path
       style="fill:url(#radialGradient4265);fill-opacity:1;stroke:url(#radialGradient4281);stroke-width:2.02064085;stroke-linecap:butt;stroke-linejoin:miter;stroke-miterlimit:4;stroke-opacity:1;stroke-dasharray:none"
       d="m 179.15148,235.65599 c -48.62419,-35.91543 11.55516,-89.19634 48.35361,-53.18898 -1.83731,-31.24473 33.11779,-47.72334 47.2791,-26.32585 7.56342,-47.71707 65.6256,-39.10471 69.8441,3.22357 27.81875,-5.62621 53.45885,28.81865 30.0867,51.57719 19.81166,25.94801 -1.8014,58.52194 -32.77301,54.2635 -4.24924,23.76833 -34.79194,38.73287 -54.26349,21.49049 -10.83891,3.89882 -27.49075,1.78258 -32.23574,-9.13346 -13.1302,26.79713 -45.26795,30.22192 -56.41256,-1.61178 -21.07065,19.27641 -58.22708,-19.90048 -19.87871,-40.29468 z"
       id="path4115"
       inkscape:connector-curvature="0"
       sodipodi:nodetypes="cccccccccc" />
  </g>
</svg>
