<?xml version="1.0" encoding="utf-8"?>
<!-- Generator: Adobe Illustrator 16.0.0, SVG Export Plug-In . SVG Version: 6.00 Build 0)  -->
<!DOCTYPE svg PUBLIC "-//W3C//DTD SVG 1.1//EN" "http://www.w3.org/Graphics/SVG/1.1/DTD/svg11.dtd">
<svg version="1.1" id="Layer_1" xmlns="http://www.w3.org/2000/svg" xmlns:xlink="http://www.w3.org/1999/xlink" x="0px" y="0px"
	 width="586px" height="442px" viewBox="0 0 586 442" enable-background="new 0 0 586 442" xml:space="preserve">
<g id="figure_1">
	<g id="patch_1">
		<path fill="#FFFFFF" d="M0,442.8h586.8V0H0V442.8z"/>
	</g>
	<g id="axes_1">
		<g id="patch_2">
			<path fill="#FFFFFF" d="M73.35,398.52h454.77V44.28H73.35V398.52z"/>
		</g>
		<g id="patch_3">
			<g>
				<defs>
					<rect id="SVGID_1_" x="73.35" y="44.28" width="454.77" height="354.239"/>
				</defs>
				<clipPath id="SVGID_2_">
					<use xlink:href="#SVGID_1_"  overflow="visible"/>
				</clipPath>
				
					<path opacity="0.5" clip-path="url(#SVGID_2_)" fill="#FF0000" stroke="#000000" stroke-linecap="square" stroke-linejoin="round" enable-background="new    " d="
					M85.595,398.52h8.396v-88.56h-8.396V398.52z"/>
			</g>
		</g>
		<g id="patch_4">
			<g>
				<defs>
					<rect id="SVGID_3_" x="73.35" y="44.28" width="454.77" height="354.239"/>
				</defs>
				<clipPath id="SVGID_4_">
					<use xlink:href="#SVGID_3_"  overflow="visible"/>
				</clipPath>
				
					<path opacity="0.5" clip-path="url(#SVGID_4_)" fill="#FF0000" stroke="#000000" stroke-linecap="square" stroke-linejoin="round" enable-background="new    " d="
					M93.991,398.52h8.396l0,0H93.991z"/>
			</g>
		</g>
		<g id="patch_5">
			<g>
				<defs>
					<rect id="SVGID_5_" x="73.35" y="44.28" width="454.77" height="354.239"/>
				</defs>
				<clipPath id="SVGID_6_">
					<use xlink:href="#SVGID_5_"  overflow="visible"/>
				</clipPath>
				
					<path opacity="0.5" clip-path="url(#SVGID_6_)" fill="#FF0000" stroke="#000000" stroke-linecap="square" stroke-linejoin="round" enable-background="new    " d="
					M102.387,398.52h8.396l0,0H102.387z"/>
			</g>
		</g>
		<g id="patch_6">
			<g>
				<defs>
					<rect id="SVGID_7_" x="73.35" y="44.28" width="454.77" height="354.239"/>
				</defs>
				<clipPath id="SVGID_8_">
					<use xlink:href="#SVGID_7_"  overflow="visible"/>
				</clipPath>
				
					<path opacity="0.5" clip-path="url(#SVGID_8_)" fill="#FF0000" stroke="#000000" stroke-linecap="square" stroke-linejoin="round" enable-background="new    " d="
					M110.783,398.52h8.396l0,0H110.783z"/>
			</g>
		</g>
		<g id="patch_7">
			<g>
				<defs>
					<rect id="SVGID_9_" x="73.35" y="44.28" width="454.77" height="354.239"/>
				</defs>
				<clipPath id="SVGID_10_">
					<use xlink:href="#SVGID_9_"  overflow="visible"/>
				</clipPath>
				
					<path opacity="0.5" clip-path="url(#SVGID_10_)" fill="#FF0000" stroke="#000000" stroke-linecap="square" stroke-linejoin="round" enable-background="new    " d="
					M119.179,398.52h8.396v-88.56h-8.396V398.52z"/>
			</g>
		</g>
		<g id="patch_8">
			<g>
				<defs>
					<rect id="SVGID_11_" x="73.35" y="44.28" width="454.77" height="354.239"/>
				</defs>
				<clipPath id="SVGID_12_">
					<use xlink:href="#SVGID_11_"  overflow="visible"/>
				</clipPath>
				
					<path opacity="0.5" clip-path="url(#SVGID_12_)" fill="#FF0000" stroke="#000000" stroke-linecap="square" stroke-linejoin="round" enable-background="new    " d="
					M127.575,398.52h8.396l0,0H127.575z"/>
			</g>
		</g>
		<g id="patch_9">
			<g>
				<defs>
					<rect id="SVGID_13_" x="73.35" y="44.28" width="454.77" height="354.239"/>
				</defs>
				<clipPath id="SVGID_14_">
					<use xlink:href="#SVGID_13_"  overflow="visible"/>
				</clipPath>
				
					<path opacity="0.5" clip-path="url(#SVGID_14_)" fill="#FF0000" stroke="#000000" stroke-linecap="square" stroke-linejoin="round" enable-background="new    " d="
					M135.971,398.52h8.396V221.4h-8.396V398.52z"/>
			</g>
		</g>
		<g id="patch_10">
			<g>
				<defs>
					<rect id="SVGID_15_" x="73.35" y="44.28" width="454.77" height="354.239"/>
				</defs>
				<clipPath id="SVGID_16_">
					<use xlink:href="#SVGID_15_"  overflow="visible"/>
				</clipPath>
				
					<path opacity="0.5" clip-path="url(#SVGID_16_)" fill="#FF0000" stroke="#000000" stroke-linecap="square" stroke-linejoin="round" enable-background="new    " d="
					M144.367,398.52h8.396v-88.56h-8.396V398.52z"/>
			</g>
		</g>
		<g id="patch_11">
			<g>
				<defs>
					<rect id="SVGID_17_" x="73.35" y="44.28" width="454.77" height="354.239"/>
				</defs>
				<clipPath id="SVGID_18_">
					<use xlink:href="#SVGID_17_"  overflow="visible"/>
				</clipPath>
				
					<path opacity="0.5" clip-path="url(#SVGID_18_)" fill="#FF0000" stroke="#000000" stroke-linecap="square" stroke-linejoin="round" enable-background="new    " d="
					M152.763,398.52h8.397v-88.56h-8.397V398.52z"/>
			</g>
		</g>
		<g id="patch_12">
			<g>
				<defs>
					<rect id="SVGID_19_" x="73.35" y="44.28" width="454.77" height="354.239"/>
				</defs>
				<clipPath id="SVGID_20_">
					<use xlink:href="#SVGID_19_"  overflow="visible"/>
				</clipPath>
				
					<path opacity="0.5" clip-path="url(#SVGID_20_)" fill="#FF0000" stroke="#000000" stroke-linecap="square" stroke-linejoin="round" enable-background="new    " d="
					M161.16,398.52h8.396V221.4h-8.396V398.52z"/>
			</g>
		</g>
		<g id="patch_13">
			<g>
				<defs>
					<rect id="SVGID_21_" x="73.35" y="44.28" width="454.77" height="354.239"/>
				</defs>
				<clipPath id="SVGID_22_">
					<use xlink:href="#SVGID_21_"  overflow="visible"/>
				</clipPath>
				
					<path opacity="0.5" clip-path="url(#SVGID_22_)" fill="#FF0000" stroke="#000000" stroke-linecap="square" stroke-linejoin="round" enable-background="new    " d="
					M169.556,398.52h8.396l0,0H169.556z"/>
			</g>
		</g>
		<g id="patch_14">
			<g>
				<defs>
					<rect id="SVGID_23_" x="73.35" y="44.28" width="454.77" height="354.239"/>
				</defs>
				<clipPath id="SVGID_24_">
					<use xlink:href="#SVGID_23_"  overflow="visible"/>
				</clipPath>
				
					<path opacity="0.5" clip-path="url(#SVGID_24_)" fill="#FF0000" stroke="#000000" stroke-linecap="square" stroke-linejoin="round" enable-background="new    " d="
					M177.952,398.52h8.396V221.4h-8.396V398.52z"/>
			</g>
		</g>
		<g id="patch_15">
			<g>
				<defs>
					<rect id="SVGID_25_" x="73.35" y="44.28" width="454.77" height="354.239"/>
				</defs>
				<clipPath id="SVGID_26_">
					<use xlink:href="#SVGID_25_"  overflow="visible"/>
				</clipPath>
				
					<path opacity="0.5" clip-path="url(#SVGID_26_)" fill="#FF0000" stroke="#000000" stroke-linecap="square" stroke-linejoin="round" enable-background="new    " d="
					M186.348,398.52h8.396V44.28h-8.396V398.52z"/>
			</g>
		</g>
		<g id="patch_16">
			<g>
				<defs>
					<rect id="SVGID_27_" x="73.35" y="44.28" width="454.77" height="354.239"/>
				</defs>
				<clipPath id="SVGID_28_">
					<use xlink:href="#SVGID_27_"  overflow="visible"/>
				</clipPath>
				
					<path opacity="0.5" clip-path="url(#SVGID_28_)" fill="#FF0000" stroke="#000000" stroke-linecap="square" stroke-linejoin="round" enable-background="new    " d="
					M194.744,398.52h8.396V221.4h-8.396V398.52z"/>
			</g>
		</g>
		<g id="patch_17">
			<g>
				<defs>
					<rect id="SVGID_29_" x="73.35" y="44.28" width="454.77" height="354.239"/>
				</defs>
				<clipPath id="SVGID_30_">
					<use xlink:href="#SVGID_29_"  overflow="visible"/>
				</clipPath>
				
					<path opacity="0.5" clip-path="url(#SVGID_30_)" fill="#FF0000" stroke="#000000" stroke-linecap="square" stroke-linejoin="round" enable-background="new    " d="
					M203.14,398.52h8.396l0,0H203.14z"/>
			</g>
		</g>
		<g id="patch_18">
			<g>
				<defs>
					<rect id="SVGID_31_" x="73.35" y="44.28" width="454.77" height="354.239"/>
				</defs>
				<clipPath id="SVGID_32_">
					<use xlink:href="#SVGID_31_"  overflow="visible"/>
				</clipPath>
				
					<path opacity="0.5" clip-path="url(#SVGID_32_)" fill="#FF0000" stroke="#000000" stroke-linecap="square" stroke-linejoin="round" enable-background="new    " d="
					M211.536,398.52h8.396v-88.56h-8.396V398.52z"/>
			</g>
		</g>
		<g id="patch_19">
			<g>
				<defs>
					<rect id="SVGID_33_" x="73.35" y="44.28" width="454.77" height="354.239"/>
				</defs>
				<clipPath id="SVGID_34_">
					<use xlink:href="#SVGID_33_"  overflow="visible"/>
				</clipPath>
				
					<path opacity="0.5" clip-path="url(#SVGID_34_)" fill="#FF0000" stroke="#000000" stroke-linecap="square" stroke-linejoin="round" enable-background="new    " d="
					M219.932,398.52h8.396V221.4h-8.396V398.52z"/>
			</g>
		</g>
		<g id="patch_20">
			<g>
				<defs>
					<rect id="SVGID_35_" x="73.35" y="44.28" width="454.77" height="354.239"/>
				</defs>
				<clipPath id="SVGID_36_">
					<use xlink:href="#SVGID_35_"  overflow="visible"/>
				</clipPath>
				
					<path opacity="0.5" clip-path="url(#SVGID_36_)" fill="#FF0000" stroke="#000000" stroke-linecap="square" stroke-linejoin="round" enable-background="new    " d="
					M228.328,398.52h8.396v-88.56h-8.396V398.52z"/>
			</g>
		</g>
		<g id="patch_21">
			<g>
				<defs>
					<rect id="SVGID_37_" x="73.35" y="44.28" width="454.77" height="354.239"/>
				</defs>
				<clipPath id="SVGID_38_">
					<use xlink:href="#SVGID_37_"  overflow="visible"/>
				</clipPath>
				
					<path opacity="0.5" clip-path="url(#SVGID_38_)" fill="#FF0000" stroke="#000000" stroke-linecap="square" stroke-linejoin="round" enable-background="new    " d="
					M236.724,398.52h8.396l0,0H236.724z"/>
			</g>
		</g>
		<g id="patch_22">
			<g>
				<defs>
					<rect id="SVGID_39_" x="73.35" y="44.28" width="454.77" height="354.239"/>
				</defs>
				<clipPath id="SVGID_40_">
					<use xlink:href="#SVGID_39_"  overflow="visible"/>
				</clipPath>
				
					<path opacity="0.5" clip-path="url(#SVGID_40_)" fill="#FF0000" stroke="#000000" stroke-linecap="square" stroke-linejoin="round" enable-background="new    " d="
					M245.12,398.52h8.397l0,0H245.12z"/>
			</g>
		</g>
		<g id="patch_23">
			<g>
				<defs>
					<rect id="SVGID_41_" x="73.35" y="44.28" width="454.77" height="354.239"/>
				</defs>
				<clipPath id="SVGID_42_">
					<use xlink:href="#SVGID_41_"  overflow="visible"/>
				</clipPath>
				
					<path opacity="0.5" clip-path="url(#SVGID_42_)" fill="#FF0000" stroke="#000000" stroke-linecap="square" stroke-linejoin="round" enable-background="new    " d="
					M253.517,398.52h8.396v-88.56h-8.396V398.52z"/>
			</g>
		</g>
		<g id="patch_24">
			<g>
				<defs>
					<rect id="SVGID_43_" x="73.35" y="44.28" width="454.77" height="354.239"/>
				</defs>
				<clipPath id="SVGID_44_">
					<use xlink:href="#SVGID_43_"  overflow="visible"/>
				</clipPath>
				
					<path opacity="0.5" clip-path="url(#SVGID_44_)" fill="#FF0000" stroke="#000000" stroke-linecap="square" stroke-linejoin="round" enable-background="new    " d="
					M261.913,398.52h8.396l0,0H261.913z"/>
			</g>
		</g>
		<g id="patch_25">
			<g>
				<defs>
					<rect id="SVGID_45_" x="73.35" y="44.28" width="454.77" height="354.239"/>
				</defs>
				<clipPath id="SVGID_46_">
					<use xlink:href="#SVGID_45_"  overflow="visible"/>
				</clipPath>
				
					<path opacity="0.5" clip-path="url(#SVGID_46_)" fill="#FF0000" stroke="#000000" stroke-linecap="square" stroke-linejoin="round" enable-background="new    " d="
					M270.309,398.52h8.396l0,0H270.309z"/>
			</g>
		</g>
		<g id="patch_26">
			<g>
				<defs>
					<rect id="SVGID_47_" x="73.35" y="44.28" width="454.77" height="354.239"/>
				</defs>
				<clipPath id="SVGID_48_">
					<use xlink:href="#SVGID_47_"  overflow="visible"/>
				</clipPath>
				
					<path opacity="0.5" clip-path="url(#SVGID_48_)" fill="#FF0000" stroke="#000000" stroke-linecap="square" stroke-linejoin="round" enable-background="new    " d="
					M278.705,398.52h8.396V221.4h-8.396V398.52z"/>
			</g>
		</g>
		<g id="patch_27">
			<g>
				<defs>
					<rect id="SVGID_49_" x="73.35" y="44.28" width="454.77" height="354.239"/>
				</defs>
				<clipPath id="SVGID_50_">
					<use xlink:href="#SVGID_49_"  overflow="visible"/>
				</clipPath>
				
					<path opacity="0.5" clip-path="url(#SVGID_50_)" fill="#FF0000" stroke="#000000" stroke-linecap="square" stroke-linejoin="round" enable-background="new    " d="
					M287.101,398.52h8.396l0,0H287.101z"/>
			</g>
		</g>
		<g id="patch_28">
			<g>
				<defs>
					<rect id="SVGID_51_" x="73.35" y="44.28" width="454.77" height="354.239"/>
				</defs>
				<clipPath id="SVGID_52_">
					<use xlink:href="#SVGID_51_"  overflow="visible"/>
				</clipPath>
				
					<path opacity="0.5" clip-path="url(#SVGID_52_)" fill="#FF0000" stroke="#000000" stroke-linecap="square" stroke-linejoin="round" enable-background="new    " d="
					M295.497,398.52h8.396l0,0H295.497z"/>
			</g>
		</g>
		<g id="patch_29">
			<g>
				<defs>
					<rect id="SVGID_53_" x="73.35" y="44.28" width="454.77" height="354.239"/>
				</defs>
				<clipPath id="SVGID_54_">
					<use xlink:href="#SVGID_53_"  overflow="visible"/>
				</clipPath>
				
					<path opacity="0.5" clip-path="url(#SVGID_54_)" fill="#FF0000" stroke="#000000" stroke-linecap="square" stroke-linejoin="round" enable-background="new    " d="
					M303.893,398.52h8.396v-88.56h-8.396V398.52z"/>
			</g>
		</g>
		<g id="patch_30">
			<g>
				<defs>
					<rect id="SVGID_55_" x="73.35" y="44.28" width="454.77" height="354.239"/>
				</defs>
				<clipPath id="SVGID_56_">
					<use xlink:href="#SVGID_55_"  overflow="visible"/>
				</clipPath>
				
					<path opacity="0.5" clip-path="url(#SVGID_56_)" fill="#FF0000" stroke="#000000" stroke-linecap="square" stroke-linejoin="round" enable-background="new    " d="
					M312.289,398.52h8.396v-88.56h-8.396V398.52z"/>
			</g>
		</g>
		<g id="patch_31">
			<g>
				<defs>
					<rect id="SVGID_57_" x="73.35" y="44.28" width="454.77" height="354.239"/>
				</defs>
				<clipPath id="SVGID_58_">
					<use xlink:href="#SVGID_57_"  overflow="visible"/>
				</clipPath>
				
					<path opacity="0.5" clip-path="url(#SVGID_58_)" fill="#FF0000" stroke="#000000" stroke-linecap="square" stroke-linejoin="round" enable-background="new    " d="
					M320.686,398.52h8.396v-88.56h-8.396V398.52z"/>
			</g>
		</g>
		<g id="patch_32">
			<g>
				<defs>
					<rect id="SVGID_59_" x="73.35" y="44.28" width="454.77" height="354.239"/>
				</defs>
				<clipPath id="SVGID_60_">
					<use xlink:href="#SVGID_59_"  overflow="visible"/>
				</clipPath>
				
					<path opacity="0.5" clip-path="url(#SVGID_60_)" fill="#FF0000" stroke="#000000" stroke-linecap="square" stroke-linejoin="round" enable-background="new    " d="
					M329.081,398.52h8.396l0,0H329.081z"/>
			</g>
		</g>
		<g id="patch_33">
			<g>
				<defs>
					<rect id="SVGID_61_" x="73.35" y="44.28" width="454.77" height="354.239"/>
				</defs>
				<clipPath id="SVGID_62_">
					<use xlink:href="#SVGID_61_"  overflow="visible"/>
				</clipPath>
				
					<path opacity="0.5" clip-path="url(#SVGID_62_)" fill="#FF0000" stroke="#000000" stroke-linecap="square" stroke-linejoin="round" enable-background="new    " d="
					M337.477,398.52h8.396l0,0H337.477z"/>
			</g>
		</g>
		<g id="patch_34">
			<g>
				<defs>
					<rect id="SVGID_63_" x="73.35" y="44.28" width="454.77" height="354.239"/>
				</defs>
				<clipPath id="SVGID_64_">
					<use xlink:href="#SVGID_63_"  overflow="visible"/>
				</clipPath>
				
					<path opacity="0.5" clip-path="url(#SVGID_64_)" fill="#FF0000" stroke="#000000" stroke-linecap="square" stroke-linejoin="round" enable-background="new    " d="
					M345.873,398.52h8.396l0,0H345.873z"/>
			</g>
		</g>
		<g id="patch_35">
			<g>
				<defs>
					<rect id="SVGID_65_" x="73.35" y="44.28" width="454.77" height="354.239"/>
				</defs>
				<clipPath id="SVGID_66_">
					<use xlink:href="#SVGID_65_"  overflow="visible"/>
				</clipPath>
				
					<path opacity="0.5" clip-path="url(#SVGID_66_)" fill="#FF0000" stroke="#000000" stroke-linecap="square" stroke-linejoin="round" enable-background="new    " d="
					M354.27,398.52h8.396l0,0H354.27z"/>
			</g>
		</g>
		<g id="patch_36">
			<g>
				<defs>
					<rect id="SVGID_67_" x="73.35" y="44.28" width="454.77" height="354.239"/>
				</defs>
				<clipPath id="SVGID_68_">
					<use xlink:href="#SVGID_67_"  overflow="visible"/>
				</clipPath>
				
					<path opacity="0.5" clip-path="url(#SVGID_68_)" fill="#FF0000" stroke="#000000" stroke-linecap="square" stroke-linejoin="round" enable-background="new    " d="
					M362.666,398.52h8.396l0,0H362.666z"/>
			</g>
		</g>
		<g id="patch_37">
			<g>
				<defs>
					<rect id="SVGID_69_" x="73.35" y="44.28" width="454.77" height="354.239"/>
				</defs>
				<clipPath id="SVGID_70_">
					<use xlink:href="#SVGID_69_"  overflow="visible"/>
				</clipPath>
				
					<path opacity="0.5" clip-path="url(#SVGID_70_)" fill="#FF0000" stroke="#000000" stroke-linecap="square" stroke-linejoin="round" enable-background="new    " d="
					M371.063,398.52h8.396l0,0H371.063z"/>
			</g>
		</g>
		<g id="patch_38">
			<g>
				<defs>
					<rect id="SVGID_71_" x="73.35" y="44.28" width="454.77" height="354.239"/>
				</defs>
				<clipPath id="SVGID_72_">
					<use xlink:href="#SVGID_71_"  overflow="visible"/>
				</clipPath>
				
					<path opacity="0.5" clip-path="url(#SVGID_72_)" fill="#FF0000" stroke="#000000" stroke-linecap="square" stroke-linejoin="round" enable-background="new    " d="
					M379.458,398.52h8.396l0,0H379.458z"/>
			</g>
		</g>
		<g id="patch_39">
			<g>
				<defs>
					<rect id="SVGID_73_" x="73.35" y="44.28" width="454.77" height="354.239"/>
				</defs>
				<clipPath id="SVGID_74_">
					<use xlink:href="#SVGID_73_"  overflow="visible"/>
				</clipPath>
				
					<path opacity="0.5" clip-path="url(#SVGID_74_)" fill="#FF0000" stroke="#000000" stroke-linecap="square" stroke-linejoin="round" enable-background="new    " d="
					M387.854,398.52h8.396v-88.56h-8.396V398.52z"/>
			</g>
		</g>
		<g id="patch_40">
			<g>
				<defs>
					<rect id="SVGID_75_" x="73.35" y="44.28" width="454.77" height="354.239"/>
				</defs>
				<clipPath id="SVGID_76_">
					<use xlink:href="#SVGID_75_"  overflow="visible"/>
				</clipPath>
				
					<path opacity="0.5" clip-path="url(#SVGID_76_)" fill="#FF0000" stroke="#000000" stroke-linecap="square" stroke-linejoin="round" enable-background="new    " d="
					M396.25,398.52h8.396l0,0H396.25z"/>
			</g>
		</g>
		<g id="patch_41">
			<g>
				<defs>
					<rect id="SVGID_77_" x="73.35" y="44.28" width="454.77" height="354.239"/>
				</defs>
				<clipPath id="SVGID_78_">
					<use xlink:href="#SVGID_77_"  overflow="visible"/>
				</clipPath>
				
					<path opacity="0.5" clip-path="url(#SVGID_78_)" fill="#FF0000" stroke="#000000" stroke-linecap="square" stroke-linejoin="round" enable-background="new    " d="
					M404.646,398.52h8.396l0,0H404.646z"/>
			</g>
		</g>
		<g id="patch_42">
			<g>
				<defs>
					<rect id="SVGID_79_" x="73.35" y="44.28" width="454.77" height="354.239"/>
				</defs>
				<clipPath id="SVGID_80_">
					<use xlink:href="#SVGID_79_"  overflow="visible"/>
				</clipPath>
				
					<path opacity="0.5" clip-path="url(#SVGID_80_)" fill="#FF0000" stroke="#000000" stroke-linecap="square" stroke-linejoin="round" enable-background="new    " d="
					M413.042,398.52h8.396l0,0H413.042z"/>
			</g>
		</g>
		<g id="patch_43">
			<g>
				<defs>
					<rect id="SVGID_81_" x="73.35" y="44.28" width="454.77" height="354.239"/>
				</defs>
				<clipPath id="SVGID_82_">
					<use xlink:href="#SVGID_81_"  overflow="visible"/>
				</clipPath>
				
					<path opacity="0.5" clip-path="url(#SVGID_82_)" fill="#FF0000" stroke="#000000" stroke-linecap="square" stroke-linejoin="round" enable-background="new    " d="
					M421.438,398.52h8.396l0,0H421.438z"/>
			</g>
		</g>
		<g id="patch_44">
			<g>
				<defs>
					<rect id="SVGID_83_" x="73.35" y="44.28" width="454.77" height="354.239"/>
				</defs>
				<clipPath id="SVGID_84_">
					<use xlink:href="#SVGID_83_"  overflow="visible"/>
				</clipPath>
				
					<path opacity="0.5" clip-path="url(#SVGID_84_)" fill="#FF0000" stroke="#000000" stroke-linecap="square" stroke-linejoin="round" enable-background="new    " d="
					M429.834,398.52h8.396v-88.56h-8.396V398.52z"/>
			</g>
		</g>
		<g id="patch_45">
			<g>
				<defs>
					<rect id="SVGID_85_" x="73.35" y="44.28" width="454.77" height="354.239"/>
				</defs>
				<clipPath id="SVGID_86_">
					<use xlink:href="#SVGID_85_"  overflow="visible"/>
				</clipPath>
				
					<path opacity="0.5" clip-path="url(#SVGID_86_)" fill="#FF0000" stroke="#000000" stroke-linecap="square" stroke-linejoin="round" enable-background="new    " d="
					M438.23,398.52h8.396l0,0H438.23z"/>
			</g>
		</g>
		<g id="patch_46">
			<g>
				<defs>
					<rect id="SVGID_87_" x="73.35" y="44.28" width="454.77" height="354.239"/>
				</defs>
				<clipPath id="SVGID_88_">
					<use xlink:href="#SVGID_87_"  overflow="visible"/>
				</clipPath>
				
					<path opacity="0.5" clip-path="url(#SVGID_88_)" fill="#FF0000" stroke="#000000" stroke-linecap="square" stroke-linejoin="round" enable-background="new    " d="
					M446.627,398.52h8.396l0,0H446.627z"/>
			</g>
		</g>
		<g id="patch_47">
			<g>
				<defs>
					<rect id="SVGID_89_" x="73.35" y="44.28" width="454.77" height="354.239"/>
				</defs>
				<clipPath id="SVGID_90_">
					<use xlink:href="#SVGID_89_"  overflow="visible"/>
				</clipPath>
				
					<path opacity="0.5" clip-path="url(#SVGID_90_)" fill="#FF0000" stroke="#000000" stroke-linecap="square" stroke-linejoin="round" enable-background="new    " d="
					M455.023,398.52h8.396l0,0H455.023z"/>
			</g>
		</g>
		<g id="patch_48">
			<g>
				<defs>
					<rect id="SVGID_91_" x="73.35" y="44.28" width="454.77" height="354.239"/>
				</defs>
				<clipPath id="SVGID_92_">
					<use xlink:href="#SVGID_91_"  overflow="visible"/>
				</clipPath>
				
					<path opacity="0.5" clip-path="url(#SVGID_92_)" fill="#FF0000" stroke="#000000" stroke-linecap="square" stroke-linejoin="round" enable-background="new    " d="
					M463.419,398.52h8.396l0,0H463.419z"/>
			</g>
		</g>
		<g id="patch_49">
			<g>
				<defs>
					<rect id="SVGID_93_" x="73.35" y="44.28" width="454.77" height="354.239"/>
				</defs>
				<clipPath id="SVGID_94_">
					<use xlink:href="#SVGID_93_"  overflow="visible"/>
				</clipPath>
				
					<path opacity="0.5" clip-path="url(#SVGID_94_)" fill="#FF0000" stroke="#000000" stroke-linecap="square" stroke-linejoin="round" enable-background="new    " d="
					M471.814,398.52h8.396l0,0H471.814z"/>
			</g>
		</g>
		<g id="patch_50">
			<g>
				<defs>
					<rect id="SVGID_95_" x="73.35" y="44.28" width="454.77" height="354.239"/>
				</defs>
				<clipPath id="SVGID_96_">
					<use xlink:href="#SVGID_95_"  overflow="visible"/>
				</clipPath>
				
					<path opacity="0.5" clip-path="url(#SVGID_96_)" fill="#FF0000" stroke="#000000" stroke-linecap="square" stroke-linejoin="round" enable-background="new    " d="
					M480.211,398.52h8.396l0,0H480.211z"/>
			</g>
		</g>
		<g id="patch_51">
			<g>
				<defs>
					<rect id="SVGID_97_" x="73.35" y="44.28" width="454.77" height="354.239"/>
				</defs>
				<clipPath id="SVGID_98_">
					<use xlink:href="#SVGID_97_"  overflow="visible"/>
				</clipPath>
				
					<path opacity="0.5" clip-path="url(#SVGID_98_)" fill="#FF0000" stroke="#000000" stroke-linecap="square" stroke-linejoin="round" enable-background="new    " d="
					M488.607,398.52h8.396l0,0H488.607z"/>
			</g>
		</g>
		<g id="patch_52">
			<g>
				<defs>
					<rect id="SVGID_99_" x="73.35" y="44.28" width="454.77" height="354.239"/>
				</defs>
				<clipPath id="SVGID_100_">
					<use xlink:href="#SVGID_99_"  overflow="visible"/>
				</clipPath>
				
					<path opacity="0.5" clip-path="url(#SVGID_100_)" fill="#FF0000" stroke="#000000" stroke-linecap="square" stroke-linejoin="round" enable-background="new    " d="
					M497.003,398.52h8.396V221.4h-8.396V398.52z"/>
			</g>
		</g>
		<g id="matplotlib.axis_1">
			<g id="xtick_1">
				<g id="line2d_1">
					<g>
						<g>
							<path id="mcb557df647" stroke="#000000" stroke-width="0.5" stroke-linejoin="round" d="M73.35,398.52v-4"/>
						</g>
					</g>
				</g>
				<g id="line2d_2">
					<g>
						<g>
							<path id="mdad270ee8e" stroke="#000000" stroke-width="0.5" stroke-linejoin="round" d="M73.35,44.28v4"/>
						</g>
					</g>
				</g>
				<g id="text_1">
					<g transform="translate(64.7578125 411.42625)scale(0.12 -0.12)">
						<g>
							<path id="BitstreamVeraSans-Roman-30" d="M31.779,66.41c-5.07,0-8.887-2.506-11.45-7.503
								c-2.551-4.989-3.829-12.5-3.829-22.534c0-9.985,1.277-17.48,3.829-22.485c2.563-4.997,6.38-7.495,11.45-7.495
								c5.119,0,8.952,2.498,11.503,7.495c2.559,5.005,3.845,12.5,3.845,22.485c0,10.034-1.286,17.546-3.845,22.534
								C40.731,63.904,36.898,66.41,31.779,66.41 M31.779,74.222c8.179,0,14.425-3.239,18.738-9.708
								c4.309-6.454,6.466-15.837,6.466-28.141c0-12.272-2.157-21.639-6.466-28.109C46.204,1.81,39.958-1.42,31.779-1.42
								c-8.162,0-14.404,3.231-18.717,9.684c-4.313,6.47-6.47,15.836-6.47,28.109c0,12.305,2.157,21.688,6.47,28.141
								C17.375,70.984,23.617,74.222,31.779,74.222"/>
						</g>
						<g>
							<path id="BitstreamVeraSans-Roman-2e" d="M74.308,12.406h10.315V0.004H74.308V12.406z"/>
						</g>
						<g>
							<path id="BitstreamVeraSans-Roman-31" d="M107.816,8.296h16.109V63.92l-17.529-3.516v8.984l17.436,3.516h9.859V8.296h16.109
								V0.004h-41.984V8.296z"/>
						</g>
					</g>
				</g>
			</g>
			<g id="xtick_2">
				<g id="line2d_3">
					<g>
						<g>
							<path id="mcb557df647_1_" stroke="#000000" stroke-width="0.5" stroke-linejoin="round" d="M123.88,398.52v-4"/>
						</g>
					</g>
				</g>
				<g id="line2d_4">
					<g>
						<g>
							<path id="mdad270ee8e_1_" stroke="#000000" stroke-width="0.5" stroke-linejoin="round" d="M123.88,44.28v4"/>
						</g>
					</g>
				</g>
				<g id="text_2">
					<g transform="translate(115.3346875 411.42625)scale(0.12 -0.12)">
						<g>
							<path id="BitstreamVeraSans-Roman-30_1_" d="M31.781,66.41c-5.074,0-8.891-2.506-11.454-7.503
								c-2.551-4.989-3.829-12.5-3.829-22.534c0-9.985,1.278-17.48,3.829-22.485c2.563-4.997,6.38-7.495,11.454-7.495
								c5.115,0,8.948,2.498,11.499,7.495c2.563,5.005,3.845,12.5,3.845,22.485c0,10.034-1.282,17.546-3.845,22.534
								C40.729,63.904,36.896,66.41,31.781,66.41 M31.781,74.222c8.179,0,14.421-3.239,18.734-9.708
								c4.313-6.454,6.47-15.837,6.47-28.141c0-12.272-2.157-21.639-6.47-28.109C46.202,1.81,39.96-1.42,31.781-1.42
								c-8.167,0-14.404,3.231-18.717,9.684c-4.313,6.47-6.47,15.836-6.47,28.109c0,12.305,2.157,21.688,6.47,28.141
								C17.377,70.984,23.615,74.222,31.781,74.222"/>
						</g>
						<g>
							<path id="BitstreamVeraSans-Roman-2e_1_" d="M74.311,12.406h10.311V0.004H74.311V12.406z"/>
						</g>
						<g>
							<path id="BitstreamVeraSans-Roman-32" d="M114.598,8.296h34.419V0.004h-46.281v8.293c3.744,3.874,8.842,9.074,15.299,15.593
								c6.47,6.535,10.531,10.75,12.187,12.638c3.157,3.548,5.359,6.543,6.608,9.001c1.261,2.458,1.892,4.875,1.892,7.251
								c0,3.874-1.359,7.031-4.077,9.473c-2.718,2.449-6.262,3.67-10.628,3.67c-3.092,0-6.355-0.537-9.794-1.611
								c-3.426-1.074-7.092-2.702-10.999-4.891v9.969c3.967,1.595,7.674,2.8,11.125,3.613c3.459,0.814,6.616,1.221,9.481,1.221
								c7.552,0,13.574-1.896,18.066-5.672c4.488-3.776,6.73-8.813,6.73-15.129c0-3.003-0.562-5.843-1.685-8.529
								c-1.115-2.677-3.157-5.843-6.128-9.489c-0.81-0.944-3.397-3.678-7.764-8.187C128.697,22.709,122.545,16.402,114.598,8.296"/>
						</g>
					</g>
				</g>
			</g>
			<g id="xtick_3">
				<g id="line2d_5">
					<g>
						<g>
							<path id="mcb557df647_2_" stroke="#000000" stroke-width="0.5" stroke-linejoin="round" d="M174.41,398.52v-4"/>
						</g>
					</g>
				</g>
				<g id="line2d_6">
					<g>
						<g>
							<path id="mdad270ee8e_2_" stroke="#000000" stroke-width="0.5" stroke-linejoin="round" d="M174.41,44.28v4"/>
						</g>
					</g>
				</g>
				<g id="text_3">
					<g transform="translate(165.7446875 411.42625)scale(0.12 -0.12)">
						<g>
							<path id="BitstreamVeraSans-Roman-30_2_" d="M31.784,66.41c-5.074,0-8.891-2.506-11.455-7.503
								c-2.551-4.989-3.829-12.5-3.829-22.534c0-9.985,1.277-17.48,3.829-22.485c2.563-4.997,6.38-7.495,11.455-7.495
								c5.115,0,8.948,2.498,11.499,7.495c2.563,5.005,3.845,12.5,3.845,22.485c0,10.034-1.282,17.546-3.845,22.534
								C40.731,63.904,36.898,66.41,31.784,66.41 M31.784,74.222c8.174,0,14.42-3.239,18.733-9.708
								c4.313-6.454,6.47-15.837,6.47-28.141c0-12.272-2.156-21.639-6.47-28.109C46.204,1.81,39.958-1.42,31.784-1.42
								c-8.167,0-14.409,3.231-18.722,9.684C8.753,14.734,6.596,24.1,6.596,36.373c0,12.305,2.157,21.688,6.466,28.141
								C17.375,70.984,23.617,74.222,31.784,74.222"/>
						</g>
						<g>
							<path id="BitstreamVeraSans-Roman-2e_2_" d="M74.313,12.406h10.311V0.004H74.313V12.406z"/>
						</g>
						<g>
							<path id="BitstreamVeraSans-Roman-33" d="M135.991,39.31c4.716-1.009,8.398-3.109,11.043-6.307
								c2.657-3.19,3.988-7.129,3.988-11.816c0-7.186-2.474-12.752-7.422-16.699c-4.948-3.939-11.979-5.908-21.094-5.908
								c-3.052,0-6.201,0.301-9.44,0.903c-3.239,0.602-6.583,1.514-10.03,2.718v9.521c2.73-1.595,5.717-2.799,8.968-3.613
								c3.259-0.814,6.669-1.221,10.222-1.221c6.177,0,10.884,1.221,14.124,3.662c3.239,2.433,4.858,5.981,4.858,10.636
								c0,4.305-1.506,7.658-4.517,10.075c-3.011,2.433-7.194,3.646-12.561,3.646h-8.5v8.105h8.891
								c4.846,0,8.553,0.969,11.125,2.905c2.576,1.937,3.861,4.736,3.861,8.382c0,3.735-1.331,6.608-3.987,8.602
								c-2.645,2.01-6.441,3.019-11.389,3.019c-2.706,0-5.611-0.293-8.704-0.887c-3.093-0.586-6.494-1.489-10.201-2.726v8.789
								c3.748,1.042,7.259,1.823,10.531,2.344c3.271,0.521,6.352,0.781,9.249,0.781c7.491,0,13.412-1.709,17.766-5.111
								c4.366-3.402,6.547-7.991,6.547-13.786c0-4.036-1.156-7.454-3.467-10.229C143.535,42.313,140.251,40.385,135.991,39.31"/>
						</g>
					</g>
				</g>
			</g>
			<g id="xtick_4">
				<g id="line2d_7">
					<g>
						<g>
							<path id="mcb557df647_3_" stroke="#000000" stroke-width="0.5" stroke-linejoin="round" d="M224.94,398.52v-4"/>
						</g>
					</g>
				</g>
				<g id="line2d_8">
					<g>
						<g>
							<path id="mdad270ee8e_3_" stroke="#000000" stroke-width="0.5" stroke-linejoin="round" d="M224.94,44.28v4"/>
						</g>
					</g>
				</g>
				<g id="text_4">
					<g transform="translate(216.1303125 411.42625)scale(0.12 -0.12)">
						<g>
							<path id="BitstreamVeraSans-Roman-30_3_" d="M31.781,66.41c-5.07,0-8.891-2.506-11.45-7.503
								c-2.551-4.989-3.829-12.5-3.829-22.534c0-9.985,1.278-17.48,3.829-22.485c2.56-4.997,6.38-7.495,11.45-7.495
								c5.115,0,8.948,2.498,11.503,7.495c2.56,5.005,3.841,12.5,3.841,22.485c0,10.034-1.282,17.546-3.841,22.534
								C40.729,63.904,36.896,66.41,31.781,66.41 M31.781,74.222c8.179,0,14.425-3.239,18.738-9.708
								c4.313-6.454,6.466-15.837,6.466-28.141c0-12.272-2.153-21.639-6.466-28.109C46.206,1.81,39.959-1.42,31.781-1.42
								c-8.167,0-14.404,3.231-18.717,9.684c-4.313,6.47-6.47,15.836-6.47,28.109c0,12.305,2.156,21.688,6.47,28.141
								C17.376,70.984,23.614,74.222,31.781,74.222"/>
						</g>
						<g>
							<path id="BitstreamVeraSans-Roman-2e_3_" d="M74.31,12.406h10.315V0.004H74.31V12.406z"/>
						</g>
						<g>
							<path id="BitstreamVeraSans-Roman-34" d="M133.209,64.31l-24.906-38.916h24.906V64.31z M130.613,72.904h12.407v-47.51h10.408
								v-8.203H143.02V0.004h-9.811v17.188h-32.906v9.513L130.613,72.904z"/>
						</g>
					</g>
				</g>
			</g>
			<g id="xtick_5">
				<g id="line2d_9">
					<g>
						<g>
							<path id="mcb557df647_4_" stroke="#000000" stroke-width="0.5" stroke-linejoin="round" d="M275.47,398.52v-4"/>
						</g>
					</g>
				</g>
				<g id="line2d_10">
					<g>
						<g>
							<path id="mdad270ee8e_4_" stroke="#000000" stroke-width="0.5" stroke-linejoin="round" d="M275.47,44.28v4"/>
						</g>
					</g>
				</g>
				<g id="text_5">
					<g transform="translate(266.8478125 411.42625)scale(0.12 -0.12)">
						<g>
							<path id="BitstreamVeraSans-Roman-30_4_" d="M31.783,66.41c-5.074,0-8.891-2.506-11.454-7.503
								c-2.551-4.989-3.829-12.5-3.829-22.534c0-9.985,1.278-17.48,3.829-22.485c2.563-4.997,6.38-7.495,11.454-7.495
								c5.115,0,8.948,2.498,11.499,7.495c2.563,5.005,3.845,12.5,3.845,22.485c0,10.034-1.282,17.546-3.845,22.534
								C40.731,63.904,36.898,66.41,31.783,66.41 M31.783,74.222c8.175,0,14.421-3.239,18.734-9.708
								c4.313-6.454,6.47-15.837,6.47-28.141c0-12.272-2.157-21.639-6.47-28.109C46.204,1.81,39.958-1.42,31.783-1.42
								c-8.167,0-14.408,3.231-18.721,9.684C8.753,14.734,6.596,24.1,6.596,36.373c0,12.305,2.157,21.688,6.466,28.141
								C17.375,70.984,23.617,74.222,31.783,74.222"/>
						</g>
						<g>
							<path id="BitstreamVeraSans-Roman-2e_4_" d="M74.313,12.406h10.311V0.004H74.313V12.406z"/>
						</g>
						<g>
							<path id="BitstreamVeraSans-Roman-35" d="M106.209,72.904h38.717v-8.309h-29.688V46.732c1.428,0.488,2.856,0.854,4.281,1.099
								c1.44,0.236,2.876,0.358,4.313,0.358c8.138,0,14.579-2.23,19.328-6.689c4.761-4.46,7.141-10.498,7.141-18.107
								c0-7.845-2.441-13.948-7.328-18.302c-4.883-4.338-11.771-6.51-20.654-6.51c-3.064,0-6.185,0.26-9.359,0.781
								c-3.169,0.521-6.445,1.302-9.831,2.344v9.92c2.93-1.595,5.953-2.783,9.078-3.564s6.429-1.172,9.908-1.172
								c5.636,0,10.095,1.481,13.375,4.443c3.292,2.954,4.936,6.974,4.936,12.061c0,5.07-1.644,9.09-4.936,12.044
								c-3.28,2.97-7.739,4.451-13.375,4.451c-2.637,0-5.265-0.293-7.89-0.871c-2.616-0.586-5.29-1.497-8.016-2.734V72.904z"/>
						</g>
					</g>
				</g>
			</g>
			<g id="xtick_6">
				<g id="line2d_11">
					<g>
						<g>
							<path id="mcb557df647_5_" stroke="#000000" stroke-width="0.5" stroke-linejoin="round" d="M326,398.52v-4"/>
						</g>
					</g>
				</g>
				<g id="line2d_12">
					<g>
						<g>
							<path id="mdad270ee8e_5_" stroke="#000000" stroke-width="0.5" stroke-linejoin="round" d="M326,44.28v4"/>
						</g>
					</g>
				</g>
				<g id="text_6">
					<g transform="translate(317.2315625 411.42625)scale(0.12 -0.12)">
						<g>
							<path id="BitstreamVeraSans-Roman-30_5_" d="M31.78,66.41c-5.07,0-8.887-2.506-11.45-7.503
								c-2.548-4.989-3.833-12.5-3.833-22.534c0-9.985,1.285-17.48,3.833-22.485c2.563-4.997,6.38-7.495,11.45-7.495
								c5.118,0,8.951,2.498,11.507,7.495c2.556,5.005,3.841,12.5,3.841,22.485c0,10.034-1.285,17.546-3.841,22.534
								C40.731,63.904,36.898,66.41,31.78,66.41 M31.78,74.222c8.179,0,14.42-3.239,18.733-9.708
								c4.313-6.454,6.478-15.837,6.478-28.141c0-12.272-2.164-21.639-6.478-28.109C46.2,1.81,39.959-1.42,31.78-1.42
								c-8.163,0-14.404,3.231-18.718,9.684C8.749,14.734,6.601,24.1,6.601,36.373c0,12.305,2.148,21.688,6.462,28.141
								C17.376,70.984,23.617,74.222,31.78,74.222"/>
						</g>
						<g>
							<path id="BitstreamVeraSans-Roman-2e_5_" d="M74.31,12.406h10.318V0.004H74.31V12.406z"/>
						</g>
						<g>
							<path id="BitstreamVeraSans-Roman-36" d="M128.427,40.376c-4.427,0-7.935-1.514-10.53-4.549
								c-2.588-3.019-3.874-7.17-3.874-12.435c0-5.241,1.286-9.391,3.874-12.443c2.596-3.036,6.104-4.557,10.53-4.557
								c4.428,0,7.935,1.522,10.515,4.557c2.588,3.052,3.874,7.202,3.874,12.443c0,5.265-1.286,9.416-3.874,12.435
								C136.361,38.863,132.854,40.376,128.427,40.376 M148.007,71.293v-8.984c-2.481,1.172-4.98,2.059-7.503,2.677
								c-2.522,0.627-5.013,0.936-7.503,0.936c-6.511,0-11.475-2.197-14.917-6.592c-3.427-4.395-5.38-11.035-5.876-19.922
								c1.912,2.832,4.321,5.005,7.219,6.51c2.913,1.514,6.104,2.271,9.578,2.271c7.324,0,13.11-2.222,17.358-6.673
								c4.248-4.435,6.38-10.482,6.38-18.124c0-7.495-2.213-13.501-6.641-18.034c-4.427-4.517-10.318-6.779-17.676-6.779
								c-8.431,0-14.884,3.231-19.344,9.684c-4.451,6.47-6.682,15.836-6.682,28.109c0,11.523,2.734,20.711,8.203,27.563
								s12.802,10.286,22.006,10.286c2.49,0,4.98-0.252,7.503-0.74S145.265,72.269,148.007,71.293"/>
						</g>
					</g>
				</g>
			</g>
			<g id="xtick_7">
				<g id="line2d_13">
					<g>
						<g>
							<path id="mcb557df647_6_" stroke="#000000" stroke-width="0.5" stroke-linejoin="round" d="M376.531,398.52v-4"/>
						</g>
					</g>
				</g>
				<g id="line2d_14">
					<g>
						<g>
							<path id="mdad270ee8e_6_" stroke="#000000" stroke-width="0.5" stroke-linejoin="round" d="M376.531,44.28v4"/>
						</g>
					</g>
				</g>
				<g id="text_7">
					<g transform="translate(367.8965625 411.42625)scale(0.12 -0.12)">
						<g>
							<path id="BitstreamVeraSans-Roman-30_6_" d="M31.789,66.41c-5.078,0-8.896-2.506-11.459-7.503
								c-2.555-4.989-3.824-12.5-3.824-22.534c0-9.985,1.27-17.48,3.824-22.485c2.563-4.997,6.381-7.495,11.459-7.495
								c5.11,0,8.943,2.498,11.49,7.495c2.572,5.005,3.85,12.5,3.85,22.485c0,10.034-1.277,17.546-3.85,22.534
								C40.732,63.904,36.899,66.41,31.789,66.41 M31.789,74.222c8.17,0,14.42-3.239,18.733-9.708
								c4.313-6.454,6.462-15.837,6.462-28.141c0-12.272-2.148-21.639-6.462-28.109C46.209,1.81,39.959-1.42,31.789-1.42
								c-8.171,0-14.413,3.231-18.726,9.684c-4.306,6.47-6.47,15.836-6.47,28.109c0,12.305,2.164,21.688,6.47,28.141
								C17.376,70.984,23.618,74.222,31.789,74.222"/>
						</g>
						<g>
							<path id="BitstreamVeraSans-Roman-2e_6_" d="M74.318,12.406h10.303V0.004H74.318V12.406z"/>
						</g>
						<g>
							<path id="BitstreamVeraSans-Roman-37" d="M103.615,72.904h46.875v-4.199L124.025,0.004h-10.303l24.91,64.592h-35.018V72.904z
								"/>
						</g>
					</g>
				</g>
			</g>
			<g id="xtick_8">
				<g id="line2d_15">
					<g>
						<g>
							<path id="mcb557df647_7_" stroke="#000000" stroke-width="0.5" stroke-linejoin="round" d="M427.06,398.52v-4"/>
						</g>
					</g>
				</g>
				<g id="line2d_16">
					<g>
						<g>
							<path id="mdad270ee8e_7_" stroke="#000000" stroke-width="0.5" stroke-linejoin="round" d="M427.06,44.28v4"/>
						</g>
					</g>
				</g>
				<g id="text_8">
					<g transform="translate(418.324375 411.42625)scale(0.12 -0.12)">
						<g>
							<path id="BitstreamVeraSans-Roman-30_7_" d="M31.78,66.41c-5.07,0-8.887-2.506-11.45-7.503
								c-2.556-4.989-3.825-12.5-3.825-22.534c0-9.985,1.27-17.48,3.825-22.485c2.563-4.997,6.38-7.495,11.45-7.495
								c5.119,0,8.952,2.498,11.499,7.495c2.563,5.005,3.85,12.5,3.85,22.485c0,10.034-1.286,17.546-3.85,22.534
								C40.732,63.904,36.899,66.41,31.78,66.41 M31.78,74.222c8.179,0,14.429-3.239,18.742-9.708
								c4.305-6.454,6.461-15.837,6.461-28.141c0-12.272-2.156-21.639-6.461-28.109C46.209,1.81,39.959-1.42,31.78-1.42
								c-8.162,0-14.404,3.231-18.718,9.684c-4.313,6.47-6.47,15.836-6.47,28.109c0,12.305,2.157,21.688,6.47,28.141
								C17.376,70.984,23.618,74.222,31.78,74.222"/>
						</g>
						<g>
							<path id="BitstreamVeraSans-Roman-2e_7_" d="M74.31,12.406h10.319V0.004H74.31V12.406z"/>
						</g>
						<g>
							<path id="BitstreamVeraSans-Roman-38" d="M127.19,34.623c-4.688,0-8.374-1.253-11.06-3.76
								c-2.678-2.515-4.012-5.965-4.012-10.352c0-4.395,1.334-7.845,4.012-10.352c2.686-2.515,6.372-3.768,11.06-3.768
								s8.382,1.261,11.084,3.776c2.71,2.531,4.061,5.981,4.061,10.343c0,4.386-1.343,7.837-4.036,10.352
								C135.63,33.37,131.919,34.623,127.19,34.623 M117.335,38.814c-4.231,1.042-7.527,3.011-9.896,5.908
								c-2.352,2.905-3.523,6.437-3.523,10.604c0,5.827,2.066,10.433,6.217,13.818c4.159,3.385,9.839,5.078,17.058,5.078
								c7.268,0,12.964-1.693,17.098-5.078c4.135-3.385,6.201-7.991,6.201-13.818c0-4.167-1.18-7.698-3.548-10.604
								c-2.352-2.897-5.632-4.866-9.822-5.908c4.744-1.107,8.447-3.271,11.092-6.502c2.653-3.215,3.979-7.153,3.979-11.8
								c0-7.072-2.156-12.5-6.47-16.276c-4.305-3.776-10.481-5.656-18.53-5.656c-8.032,0-14.201,1.88-18.53,5.656
								c-4.313,3.776-6.47,9.204-6.47,16.276c0,4.647,1.335,8.586,4.004,11.8C108.872,35.542,112.583,37.707,117.335,38.814
								 M113.722,54.39c0-3.768,1.181-6.714,3.532-8.83c2.368-2.116,5.681-3.174,9.937-3.174c4.24,0,7.552,1.058,9.937,3.174
								c2.4,2.116,3.597,5.062,3.597,8.83c0,3.784-1.196,6.73-3.597,8.846c-2.385,2.116-5.696,3.174-9.937,3.174
								c-4.256,0-7.568-1.058-9.937-3.174C114.902,61.12,113.722,58.174,113.722,54.39"/>
						</g>
					</g>
				</g>
			</g>
			<g id="xtick_9">
				<g id="line2d_17">
					<g>
						<g>
							<path id="mcb557df647_8_" stroke="#000000" stroke-width="0.5" stroke-linejoin="round" d="M477.59,398.52v-4"/>
						</g>
					</g>
				</g>
				<g id="line2d_18">
					<g>
						<g>
							<path id="mdad270ee8e_8_" stroke="#000000" stroke-width="0.5" stroke-linejoin="round" d="M477.59,44.28v4"/>
						</g>
					</g>
				</g>
				<g id="text_9">
					<g transform="translate(468.865625 411.42625)scale(0.12 -0.12)">
						<g>
							<path id="BitstreamVeraSans-Roman-30_8_" d="M31.787,66.41c-5.078,0-8.896-2.506-11.459-7.503
								c-2.547-4.989-3.824-12.5-3.824-22.534c0-9.985,1.277-17.48,3.824-22.485c2.563-4.997,6.381-7.495,11.459-7.495
								c5.11,0,8.943,2.498,11.499,7.495c2.563,5.005,3.841,12.5,3.841,22.485c0,10.034-1.277,17.546-3.841,22.534
								C40.73,63.904,36.897,66.41,31.787,66.41 M31.787,74.222c8.17,0,14.42-3.239,18.733-9.708
								c4.313-6.454,6.47-15.837,6.47-28.141c0-12.272-2.156-21.639-6.47-28.109C46.207,1.81,39.957-1.42,31.787-1.42
								c-8.171,0-14.413,3.231-18.718,9.684C8.756,14.734,6.6,24.1,6.6,36.373c0,12.305,2.156,21.688,6.47,28.141
								C17.374,70.984,23.616,74.222,31.787,74.222"/>
						</g>
						<g>
							<path id="BitstreamVeraSans-Roman-2e_8_" d="M74.316,12.406h10.311V0.004H74.316V12.406z"/>
						</g>
						<g>
							<path id="BitstreamVeraSans-Roman-39" d="M106.396,1.517v8.984c2.481-1.18,4.988-2.075,7.52-2.686
								c2.539-0.618,5.029-0.928,7.479-0.928c6.511,0,11.482,2.189,14.909,6.567c3.434,4.37,5.403,11.027,5.892,19.946
								c-1.888-2.799-4.28-4.948-7.186-6.445c-2.897-1.505-6.104-2.254-9.611-2.254c-7.292,0-13.062,2.205-17.31,6.608
								c-4.256,4.419-6.38,10.457-6.38,18.107c0,7.487,2.213,13.485,6.641,18.001c4.427,4.533,10.318,6.803,17.676,6.803
								c8.431,0,14.876-3.239,19.312-9.708c4.443-6.454,6.673-15.837,6.673-28.141c0-11.491-2.734-20.662-8.195-27.515
								C138.37,2.006,131.046-1.42,121.834-1.42c-2.482,0-4.988,0.244-7.527,0.732C111.775-0.2,109.139,0.533,106.396,1.517
								 M126.025,32.426c4.427,0,7.926,1.506,10.514,4.525c2.588,3.035,3.891,7.194,3.891,12.467c0,5.241-1.303,9.383-3.891,12.427
								c-2.588,3.044-6.087,4.565-10.514,4.565c-4.428,0-7.935-1.522-10.515-4.565c-2.588-3.043-3.882-7.186-3.882-12.427
								c0-5.273,1.294-9.432,3.882-12.467C118.091,33.931,121.598,32.426,126.025,32.426"/>
						</g>
					</g>
				</g>
			</g>
			<g id="xtick_10">
				<g id="line2d_19">
					<g>
						<g>
							<path id="mcb557df647_9_" stroke="#000000" stroke-width="0.5" stroke-linejoin="round" d="M528.12,398.52v-4"/>
						</g>
					</g>
				</g>
				<g id="line2d_20">
					<g>
						<g>
							<path id="mdad270ee8e_9_" stroke="#000000" stroke-width="0.5" stroke-linejoin="round" d="M528.12,44.28v4"/>
						</g>
					</g>
				</g>
				<g id="text_10">
					<g transform="translate(519.635625 411.42625)scale(0.12 -0.12)">
						<g>
							<path id="BitstreamVeraSans-Roman-31_1_" d="M12.405,8.296h16.113V63.92l-17.529-3.516v8.984l17.432,3.516h9.863V8.296H54.39
								V0.004H12.405V8.296z"/>
						</g>
						<g>
							<path id="BitstreamVeraSans-Roman-2e_9_" d="M74.312,12.406h10.311V0.004H74.312V12.406z"/>
						</g>
						<g>
							<path id="BitstreamVeraSans-Roman-30_9_" d="M127.192,66.41c-5.07,0-8.887-2.506-11.45-7.503
								c-2.556-4.989-3.833-12.5-3.833-22.534c0-9.985,1.277-17.48,3.833-22.485c2.563-4.997,6.38-7.495,11.45-7.495
								c5.119,0,8.952,2.498,11.499,7.495c2.563,5.005,3.85,12.5,3.85,22.485c0,10.034-1.286,17.546-3.85,22.534
								C136.145,63.904,132.312,66.41,127.192,66.41 M127.192,74.222c8.179,0,14.421-3.239,18.733-9.708
								c4.313-6.454,6.47-15.837,6.47-28.141c0-12.272-2.156-21.639-6.47-28.109c-4.313-6.454-10.555-9.684-18.733-9.684
								c-8.162,0-14.404,3.231-18.718,9.684c-4.313,6.47-6.47,15.836-6.47,28.109c0,12.305,2.157,21.688,6.47,28.141
								C112.788,70.984,119.03,74.222,127.192,74.222"/>
						</g>
					</g>
				</g>
			</g>
		</g>
		<g id="matplotlib.axis_2">
			<g id="ytick_1">
				<g id="line2d_21">
					<g>
						<g>
							<path id="mc8fcea1516" stroke="#000000" stroke-width="0.5" stroke-linejoin="round" d="M73.35,398.52h4"/>
						</g>
					</g>
				</g>
				<g id="line2d_22">
					<g>
						<g>
							<path id="m0d5b0a6425" stroke="#000000" stroke-width="0.5" stroke-linejoin="round" d="M528.12,398.52h-4"/>
						</g>
					</g>
				</g>
				<g id="text_11">
					<g transform="translate(51.854375 402.8878125)scale(0.12 -0.12)">
						<g>
							<path id="BitstreamVeraSans-Roman-30_10_" d="M31.783,66.407c-5.07,0-8.891-2.499-11.45-7.503
								c-2.556-4.989-3.829-12.5-3.829-22.526c0-9.994,1.273-17.489,3.829-22.485c2.559-5.005,6.38-7.503,11.45-7.503
								c5.115,0,8.948,2.499,11.499,7.503c2.563,4.997,3.845,12.492,3.845,22.485c0,10.026-1.282,17.537-3.845,22.526
								C40.731,63.909,36.898,66.407,31.783,66.407 M31.783,74.22c8.179,0,14.424-3.239,18.733-9.701
								c4.313-6.461,6.47-15.845,6.47-28.141c0-12.272-2.156-21.647-6.47-28.109c-4.309-6.461-10.555-9.692-18.733-9.692
								c-8.167,0-14.404,3.231-18.718,9.692c-4.313,6.462-6.47,15.837-6.47,28.109c0,12.296,2.157,21.68,6.47,28.141
								C17.379,70.981,23.617,74.22,31.783,74.22"/>
						</g>
						<g>
							<path id="BitstreamVeraSans-Roman-2e_10_" d="M74.313,12.404h10.315V0.001H74.313V12.404z"/>
						</g>
						<g>
							<path id="BitstreamVeraSans-Roman-30_11_" d="M127.193,66.407c-5.07,0-8.891-2.499-11.45-7.503
								c-2.556-4.989-3.829-12.5-3.829-22.526c0-9.994,1.273-17.489,3.829-22.485c2.559-5.005,6.38-7.503,11.45-7.503
								c5.115,0,8.948,2.499,11.499,7.503c2.563,4.997,3.845,12.492,3.845,22.485c0,10.026-1.282,17.537-3.845,22.526
								C136.141,63.909,132.308,66.407,127.193,66.407 M127.193,74.22c8.179,0,14.424-3.239,18.733-9.701
								c4.313-6.461,6.47-15.845,6.47-28.141c0-12.272-2.156-21.647-6.47-28.109c-4.309-6.461-10.555-9.692-18.733-9.692
								c-8.167,0-14.404,3.231-18.718,9.692c-4.313,6.462-6.47,15.837-6.47,28.109c0,12.296,2.157,21.68,6.47,28.141
								C112.789,70.981,119.027,74.22,127.193,74.22"/>
						</g>
					</g>
				</g>
			</g>
			<g id="ytick_2">
				<g id="line2d_23">
					<g>
						<g>
							<path id="mc8fcea1516_1_" stroke="#000000" stroke-width="0.5" stroke-linejoin="round" d="M73.351,354.24h4"/>
						</g>
					</g>
				</g>
				<g id="line2d_24">
					<g>
						<g>
							<path id="m0d5b0a6425_1_" stroke="#000000" stroke-width="0.5" stroke-linejoin="round" d="M528.121,354.24h-4"/>
						</g>
					</g>
				</g>
				<g id="text_12">
					<g transform="translate(52.105625 358.6078125)scale(0.12 -0.12)">
						<g>
							<path id="BitstreamVeraSans-Roman-30_12_" d="M31.785,66.41c-5.074,0-8.891-2.507-11.454-7.503
								c-2.551-4.989-3.829-12.5-3.829-22.534c0-9.985,1.278-17.48,3.829-22.485c2.563-4.997,6.38-7.495,11.454-7.495
								c5.115,0,8.948,2.498,11.499,7.495c2.563,5.005,3.845,12.5,3.845,22.485c0,10.034-1.282,17.545-3.845,22.534
								C40.733,63.903,36.9,66.41,31.785,66.41 M31.785,74.222c8.175,0,14.421-3.239,18.734-9.709
								c4.313-6.453,6.47-15.836,6.47-28.141c0-12.264-2.157-21.639-6.47-28.109C46.206,1.81,39.96-1.421,31.785-1.421
								c-8.167,0-14.408,3.231-18.717,9.684c-4.313,6.47-6.47,15.845-6.47,28.109c0,12.305,2.157,21.688,6.47,28.141
								C17.377,70.983,23.619,74.222,31.785,74.222"/>
						</g>
						<g>
							<path id="BitstreamVeraSans-Roman-2e_11_" d="M74.314,12.406h10.311V0.003H74.314V12.406z"/>
						</g>
						<g>
							<path id="BitstreamVeraSans-Roman-35_1_" d="M106.211,72.904h38.717v-8.309h-29.688V46.732
								c1.428,0.488,2.856,0.854,4.285,1.099c1.437,0.236,2.873,0.358,4.309,0.358c8.138,0,14.579-2.23,19.328-6.689
								c4.761-4.46,7.141-10.49,7.141-18.107c0-7.845-2.441-13.94-7.328-18.294c-4.883-4.346-11.771-6.519-20.654-6.519
								c-3.064,0-6.181,0.26-9.359,0.781c-3.169,0.521-6.445,1.302-9.831,2.344v9.92c2.93-1.595,5.953-2.783,9.078-3.564
								s6.429-1.172,9.908-1.172c5.636,0,10.095,1.481,13.375,4.443c3.292,2.954,4.936,6.974,4.936,12.061
								c0,5.07-1.644,9.09-4.936,12.044c-3.28,2.97-7.739,4.452-13.375,4.452c-2.637,0-5.265-0.285-7.89-0.871
								c-2.616-0.586-5.29-1.497-8.016-2.734V72.904z"/>
						</g>
					</g>
				</g>
			</g>
			<g id="ytick_3">
				<g id="line2d_25">
					<g>
						<g>
							<path id="mc8fcea1516_2_" stroke="#000000" stroke-width="0.5" stroke-linejoin="round" d="M73.351,309.96h4"/>
						</g>
					</g>
				</g>
				<g id="line2d_26">
					<g>
						<g>
							<path id="m0d5b0a6425_2_" stroke="#000000" stroke-width="0.5" stroke-linejoin="round" d="M528.121,309.96h-4"/>
						</g>
					</g>
				</g>
				<g id="text_13">
					<g transform="translate(52.38125 314.3278125)scale(0.12 -0.12)">
						<g>
							<path id="BitstreamVeraSans-Roman-31_2_" d="M12.411,8.298h16.109v55.624l-17.533-3.516v8.984l17.439,3.516h9.859V8.298
								h16.109v-8.301H12.411V8.298z"/>
						</g>
						<g>
							<path id="BitstreamVeraSans-Roman-2e_12_" d="M74.313,12.408h10.315V-0.002H74.313V12.408z"/>
						</g>
						<g>
							<path id="BitstreamVeraSans-Roman-30_13_" d="M127.194,66.404c-5.07,0-8.891-2.499-11.45-7.495
								c-2.555-4.989-3.829-12.5-3.829-22.534c0-9.985,1.273-17.48,3.829-22.485c2.56-4.997,6.38-7.495,11.45-7.495
								c5.115,0,8.948,2.499,11.503,7.495c2.559,5.005,3.841,12.5,3.841,22.485c0,10.034-1.282,17.545-3.841,22.534
								C136.142,63.905,132.309,66.404,127.194,66.404 M127.194,74.216c8.179,0,14.425-3.231,18.738-9.701
								c4.309-6.461,6.466-15.836,6.466-28.141c0-12.272-2.157-21.639-6.466-28.109c-4.313-6.461-10.559-9.684-18.738-9.684
								c-8.167,0-14.404,3.223-18.717,9.684c-4.313,6.47-6.47,15.837-6.47,28.109c0,12.305,2.157,21.68,6.47,28.141
								C112.79,70.985,119.027,74.216,127.194,74.216"/>
						</g>
					</g>
				</g>
			</g>
			<g id="ytick_4">
				<g id="line2d_27">
					<g>
						<g>
							<path id="mc8fcea1516_3_" stroke="#000000" stroke-width="0.5" stroke-linejoin="round" d="M73.351,265.68h4"/>
						</g>
					</g>
				</g>
				<g id="line2d_28">
					<g>
						<g>
							<path id="m0d5b0a6425_3_" stroke="#000000" stroke-width="0.5" stroke-linejoin="round" d="M528.121,265.68h-4"/>
						</g>
					</g>
				</g>
				<g id="text_14">
					<g transform="translate(52.6325 269.9690625)scale(0.12 -0.12)">
						<g>
							<path id="BitstreamVeraSans-Roman-31_3_" d="M12.409,8.295h16.109v55.624l-17.529-3.516v8.984l17.436,3.516h9.859V8.295
								h16.109V0.003H12.409V8.295z"/>
						</g>
						<g>
							<path id="BitstreamVeraSans-Roman-2e_13_" d="M74.315,12.405h10.311V0.003H74.315V12.405z"/>
						</g>
						<g>
							<path id="BitstreamVeraSans-Roman-35_2_" d="M106.212,72.903h38.717v-8.309h-29.688V46.731
								c1.428,0.488,2.856,0.862,4.28,1.099c1.44,0.236,2.877,0.358,4.313,0.358c8.138,0,14.579-2.23,19.328-6.689
								c4.761-4.452,7.141-10.49,7.141-18.107c0-7.845-2.441-13.949-7.328-18.294c-4.883-4.346-11.768-6.519-20.654-6.519
								c-3.064,0-6.185,0.26-9.359,0.781c-3.166,0.521-6.445,1.302-9.831,2.344v9.92c2.93-1.595,5.953-2.783,9.078-3.564
								s6.429-1.172,9.908-1.172c5.636,0,10.095,1.481,13.375,4.443c3.292,2.954,4.936,6.982,4.936,12.061s-1.644,9.09-4.936,12.044
								c-3.28,2.971-7.739,4.46-13.375,4.46c-2.637,0-5.265-0.293-7.89-0.879c-2.617-0.586-5.286-1.498-8.016-2.734V72.903z"/>
						</g>
					</g>
				</g>
			</g>
			<g id="ytick_5">
				<g id="line2d_29">
					<g>
						<g>
							<path id="mc8fcea1516_4_" stroke="#000000" stroke-width="0.5" stroke-linejoin="round" d="M73.351,221.4h4"/>
						</g>
					</g>
				</g>
				<g id="line2d_30">
					<g>
						<g>
							<path id="m0d5b0a6425_4_" stroke="#000000" stroke-width="0.5" stroke-linejoin="round" d="M528.121,221.4h-4"/>
						</g>
					</g>
				</g>
				<g id="text_15">
					<g transform="translate(51.9425 225.7678125)scale(0.12 -0.12)">
						<g>
							<path id="BitstreamVeraSans-Roman-32_1_" d="M19.193,8.295h34.42V0.002H7.332v8.293c3.739,3.882,8.838,9.074,15.299,15.601
								c6.466,6.526,10.531,10.742,12.187,12.634c3.158,3.544,5.359,6.543,6.608,9c1.261,2.458,1.892,4.875,1.892,7.251
								c0,3.874-1.359,7.031-4.082,9.469c-2.718,2.449-6.258,3.67-10.624,3.67c-3.092,0-6.36-0.533-9.794-1.607
								c-3.43-1.074-7.097-2.702-11.003-4.891v9.969c3.972,1.595,7.678,2.795,11.125,3.609c3.458,0.814,6.62,1.221,9.485,1.221
								c7.552,0,13.574-1.892,18.062-5.672c4.492-3.772,6.734-8.813,6.734-15.129c0-2.999-0.562-5.843-1.688-8.528
								c-1.111-2.678-3.154-5.839-6.124-9.489c-0.81-0.944-3.397-3.678-7.764-8.187C33.292,22.708,27.14,16.401,19.193,8.295"/>
						</g>
						<g>
							<path id="BitstreamVeraSans-Roman-2e_14_" d="M74.316,12.405h10.311V0.002H74.316V12.405z"/>
						</g>
						<g>
							<path id="BitstreamVeraSans-Roman-30_14_" d="M127.197,66.409c-5.074,0-8.891-2.502-11.454-7.503
								c-2.551-4.989-3.829-12.5-3.829-22.53c0-9.989,1.278-17.484,3.829-22.489c2.563-4.997,6.38-7.495,11.454-7.495
								c5.115,0,8.948,2.498,11.499,7.495c2.563,5.005,3.845,12.5,3.845,22.489c0,10.03-1.282,17.542-3.845,22.53
								C136.145,63.906,132.312,66.409,127.197,66.409 M127.197,74.221c8.175,0,14.42-3.235,18.734-9.705
								c4.313-6.458,6.47-15.84,6.47-28.141c0-12.268-2.157-21.643-6.47-28.104c-4.313-6.462-10.559-9.692-18.734-9.692
								c-8.167,0-14.408,3.23-18.722,9.692c-4.309,6.461-6.465,15.836-6.465,28.104c0,12.301,2.156,21.684,6.465,28.141
								C112.789,70.986,119.03,74.221,127.197,74.221"/>
						</g>
					</g>
				</g>
			</g>
			<g id="ytick_6">
				<g id="line2d_31">
					<g>
						<g>
							<path id="mc8fcea1516_5_" stroke="#000000" stroke-width="0.5" stroke-linejoin="round" d="M73.351,177.12h4"/>
						</g>
					</g>
				</g>
				<g id="line2d_32">
					<g>
						<g>
							<path id="m0d5b0a6425_5_" stroke="#000000" stroke-width="0.5" stroke-linejoin="round" d="M528.121,177.12h-4"/>
						</g>
					</g>
				</g>
				<g id="text_16">
					<g transform="translate(52.19375 181.4878125)scale(0.12 -0.12)">
						<g>
							<path id="BitstreamVeraSans-Roman-32_2_" d="M19.192,8.298h34.424V0.001H7.334v8.296c3.74,3.874,8.838,9.074,15.295,15.593
								c6.47,6.535,10.531,10.746,12.187,12.642c3.157,3.54,5.359,6.543,6.612,9.001c1.257,2.458,1.888,4.875,1.888,7.247
								c0,3.878-1.359,7.031-4.077,9.473c-2.718,2.446-6.262,3.67-10.624,3.67c-3.093,0-6.36-0.537-9.798-1.611
								c-3.426-1.07-7.092-2.702-10.999-4.891v9.969c3.967,1.595,7.678,2.799,11.125,3.613c3.459,0.81,6.621,1.217,9.485,1.217
								c7.552,0,13.57-1.892,18.063-5.672c4.488-3.772,6.734-8.813,6.734-15.125c0-2.999-0.562-5.843-1.689-8.533
								c-1.115-2.677-3.157-5.839-6.124-9.485c-0.814-0.944-3.402-3.674-7.768-8.187C33.291,22.71,27.143,16.403,19.192,8.298"/>
						</g>
						<g>
							<path id="BitstreamVeraSans-Roman-2e_15_" d="M74.314,12.408h10.315V0.001H74.314V12.408z"/>
						</g>
						<g>
							<path id="BitstreamVeraSans-Roman-35_3_" d="M106.211,72.906h38.721v-8.309h-29.688V46.734
								c1.424,0.492,2.853,0.854,4.281,1.095c1.437,0.24,2.873,0.362,4.313,0.362c8.134,0,14.575-2.229,19.328-6.689
								c4.761-4.459,7.141-10.494,7.141-18.107c0-7.845-2.446-13.944-7.329-18.298c-4.887-4.346-11.771-6.515-20.658-6.515
								c-3.06,0-6.181,0.261-9.359,0.781c-3.166,0.521-6.441,1.302-9.827,2.344v9.92c2.926-1.595,5.953-2.783,9.078-3.564
								s6.425-1.172,9.904-1.172c5.636,0,10.095,1.481,13.375,4.439c3.292,2.958,4.94,6.978,4.94,12.064
								c0,5.07-1.648,9.086-4.94,12.044c-3.28,2.97-7.739,4.451-13.375,4.451c-2.632,0-5.265-0.289-7.89-0.871
								c-2.612-0.586-5.286-1.498-8.016-2.734V72.906z"/>
						</g>
					</g>
				</g>
			</g>
			<g id="ytick_7">
				<g id="line2d_33">
					<g>
						<g>
							<path id="mc8fcea1516_6_" stroke="#000000" stroke-width="0.5" stroke-linejoin="round" d="M73.351,132.84h4"/>
						</g>
					</g>
				</g>
				<g id="line2d_34">
					<g>
						<g>
							<path id="m0d5b0a6425_6_" stroke="#000000" stroke-width="0.5" stroke-linejoin="round" d="M528.121,132.84h-4"/>
						</g>
					</g>
				</g>
				<g id="text_17">
					<g transform="translate(51.978125 137.2078125)scale(0.12 -0.12)">
						<g>
							<path id="BitstreamVeraSans-Roman-33_1_" d="M40.585,39.315c4.716-1.009,8.398-3.117,11.047-6.315
								c2.653-3.186,3.983-7.125,3.983-11.812c0-7.186-2.474-12.752-7.422-16.704C43.247,0.549,36.215-1.42,27.101-1.42
								c-3.052,0-6.197,0.301-9.44,0.907c-3.239,0.602-6.583,1.51-10.03,2.718v9.513c2.73-1.591,5.721-2.795,8.968-3.609
								c3.263-0.81,6.669-1.216,10.221-1.216c6.177,0,10.885,1.216,14.124,3.654c3.239,2.438,4.858,5.985,4.858,10.641
								c0,4.305-1.505,7.662-4.517,10.079c-3.007,2.429-7.194,3.642-12.561,3.642h-8.5v8.109h8.891
								c4.846,0,8.553,0.968,11.125,2.905c2.576,1.937,3.861,4.728,3.861,8.374c0,3.739-1.331,6.612-3.988,8.61
								c-2.645,2.01-6.441,3.015-11.389,3.015c-2.706,0-5.607-0.297-8.704-0.891c-3.092-0.582-6.494-1.489-10.201-2.718v8.781
								c3.748,1.042,7.259,1.823,10.53,2.344s6.352,0.781,9.249,0.781c7.491,0,13.412-1.701,17.765-5.106
								c4.366-3.398,6.547-7.992,6.547-13.782c0-4.045-1.156-7.455-3.467-10.234C48.129,42.313,44.846,40.389,40.585,39.315"/>
						</g>
						<g>
							<path id="BitstreamVeraSans-Roman-2e_16_" d="M74.317,12.406h10.311V0H74.317V12.406z"/>
						</g>
						<g>
							<path id="BitstreamVeraSans-Roman-30_15_" d="M127.198,66.406c-5.074,0-8.891-2.499-11.454-7.499
								c-2.551-4.989-3.829-12.5-3.829-22.53c0-9.989,1.278-17.484,3.829-22.485c2.563-5.001,6.38-7.499,11.454-7.499
								c5.115,0,8.948,2.498,11.499,7.499c2.563,5.001,3.845,12.496,3.845,22.485c0,10.03-1.282,17.542-3.845,22.53
								C136.146,63.908,132.313,66.406,127.198,66.406 M127.198,74.219c8.175,0,14.421-3.231,18.734-9.701
								c4.313-6.461,6.47-15.84,6.47-28.141c0-12.272-2.157-21.639-6.47-28.109c-4.313-6.461-10.559-9.688-18.734-9.688
								c-8.167,0-14.408,3.227-18.717,9.688c-4.313,6.47-6.47,15.837-6.47,28.109c0,12.301,2.157,21.68,6.47,28.141
								C112.79,70.988,119.032,74.219,127.198,74.219"/>
						</g>
					</g>
				</g>
			</g>
			<g id="ytick_8">
				<g id="line2d_35">
					<g>
						<g>
							<path id="mc8fcea1516_7_" stroke="#000000" stroke-width="0.5" stroke-linejoin="round" d="M73.351,88.56h4"/>
						</g>
					</g>
				</g>
				<g id="line2d_36">
					<g>
						<g>
							<path id="m0d5b0a6425_7_" stroke="#000000" stroke-width="0.5" stroke-linejoin="round" d="M528.121,88.56h-4"/>
						</g>
					</g>
				</g>
				<g id="text_18">
					<g transform="translate(52.229375 92.9278125)scale(0.12 -0.12)">
						<g>
							<path id="BitstreamVeraSans-Roman-33_2_" d="M40.584,39.313c4.72-1.009,8.403-3.113,11.047-6.311
								c2.657-3.186,3.984-7.125,3.984-11.813c0-7.19-2.474-12.756-7.422-16.703C43.245,0.548,36.214-1.421,27.1-1.421
								c-3.052,0-6.197,0.305-9.436,0.907c-3.239,0.606-6.584,1.51-10.03,2.718v9.518c2.726-1.595,5.717-2.8,8.968-3.609
								c3.259-0.814,6.665-1.221,10.217-1.221c6.177,0,10.884,1.221,14.124,3.658c3.243,2.437,4.862,5.985,4.862,10.64
								c0,4.301-1.505,7.662-4.517,10.079c-3.011,2.425-7.198,3.638-12.561,3.638h-8.5v8.109h8.891c4.842,0,8.549,0.973,11.125,2.91
								c2.572,1.937,3.857,4.728,3.857,8.374c0,3.739-1.326,6.608-3.983,8.61c-2.645,2.01-6.441,3.015-11.389,3.015
								c-2.71,0-5.611-0.297-8.704-0.891c-3.097-0.582-6.494-1.489-10.205-2.718v8.781c3.751,1.042,7.263,1.823,10.535,2.344
								c3.268,0.521,6.352,0.781,9.249,0.781c7.487,0,13.411-1.705,17.765-5.111c4.362-3.394,6.547-7.987,6.547-13.782
								c0-4.041-1.155-7.45-3.471-10.233C48.132,42.316,44.844,40.388,40.584,39.313"/>
						</g>
						<g>
							<path id="BitstreamVeraSans-Roman-2e_17_" d="M74.316,12.409h10.315V0.003H74.316V12.409z"/>
						</g>
						<g>
							<path id="BitstreamVeraSans-Roman-35_4_" d="M106.213,72.907h38.721v-8.313h-29.688V46.735
								c1.424,0.492,2.852,0.854,4.28,1.095c1.437,0.24,2.873,0.358,4.313,0.358c8.134,0,14.575-2.226,19.328-6.686
								c4.761-4.459,7.141-10.494,7.141-18.111c0-7.841-2.445-13.94-7.328-18.294c-4.887-4.346-11.772-6.519-20.659-6.519
								c-3.06,0-6.181,0.26-9.358,0.781c-3.166,0.521-6.441,1.302-9.827,2.344v9.924c2.925-1.595,5.953-2.783,9.078-3.564
								s6.425-1.172,9.904-1.172c5.635,0,10.095,1.481,13.375,4.439c3.292,2.958,4.94,6.978,4.94,12.061
								c0,5.074-1.648,9.09-4.94,12.048c-3.279,2.97-7.739,4.451-13.375,4.451c-2.633,0-5.266-0.289-7.89-0.875
								c-2.616-0.582-5.286-1.494-8.016-2.734V72.907z"/>
						</g>
					</g>
				</g>
			</g>
			<g id="ytick_9">
				<g id="line2d_37">
					<g>
						<g>
							<path id="mc8fcea1516_8_" stroke="#000000" stroke-width="0.5" stroke-linejoin="round" d="M73.351,44.28h4"/>
						</g>
					</g>
				</g>
				<g id="line2d_38">
					<g>
						<g>
							<path id="m0d5b0a6425_8_" stroke="#000000" stroke-width="0.5" stroke-linejoin="round" d="M528.121,44.28h-4"/>
						</g>
					</g>
				</g>
				<g id="text_19">
					<g transform="translate(51.65 48.6478125)scale(0.12 -0.12)">
						<g>
							<path id="BitstreamVeraSans-Roman-34_1_" d="M37.804,64.316L12.897,25.392h24.906V64.316z M35.212,72.91h12.406V25.392
								h10.404v-8.203H47.618V0.001h-9.814v17.188H4.897v9.517L35.212,72.91z"/>
						</g>
						<g>
							<path id="BitstreamVeraSans-Roman-2e_18_" d="M74.319,12.408H84.63V0.001H74.319V12.408z"/>
						</g>
						<g>
							<path id="BitstreamVeraSans-Roman-30_16_" d="M127.2,66.408c-5.074,0-8.891-2.499-11.454-7.5
								c-2.551-4.988-3.829-12.5-3.829-22.53c0-9.99,1.278-17.485,3.829-22.485c2.563-5.001,6.38-7.5,11.454-7.5
								c5.115,0,8.948,2.499,11.499,7.5c2.563,5,3.845,12.496,3.845,22.485c0,10.03-1.282,17.542-3.845,22.53
								C136.147,63.909,132.314,66.408,127.2,66.408 M127.2,74.22c8.175,0,14.421-3.235,18.734-9.701
								c4.313-6.461,6.47-15.841,6.47-28.141c0-12.272-2.157-21.643-6.47-28.109c-4.313-6.461-10.559-9.688-18.734-9.688
								c-8.167,0-14.408,3.227-18.717,9.688c-4.313,6.466-6.47,15.836-6.47,28.109c0,12.3,2.157,21.68,6.47,28.141
								C112.792,70.985,119.033,74.22,127.2,74.22"/>
						</g>
					</g>
				</g>
			</g>
		</g>
		<g id="patch_53">
			<path fill="none" stroke="#000000" stroke-linecap="square" stroke-linejoin="round" d="M73.351,44.28h454.77"/>
		</g>
		<g id="patch_54">
			<path fill="none" stroke="#000000" stroke-linecap="square" stroke-linejoin="round" d="M528.121,398.519V44.28"/>
		</g>
		<g id="patch_55">
			<path fill="none" stroke="#000000" stroke-linecap="square" stroke-linejoin="round" d="M73.351,398.519h454.77"/>
		</g>
		<g id="patch_56">
			<path fill="none" stroke="#000000" stroke-linecap="square" stroke-linejoin="round" d="M73.351,398.519V44.28"/>
		</g>
		<g id="text_20">
			<g transform="translate(205.849125 39.28)scale(0.144 -0.144)">
				<g>
					<path id="BitstreamVeraSans-Roman-46" d="M9.82,72.907h41.89v-8.311H19.677V43.112h28.907v-8.298H19.677V0H9.82V72.907z"/>
				</g>
				<g>
					<path id="BitstreamVeraSans-Roman-73" d="M101.807,53.081v-8.5c-2.529,1.302-5.164,2.275-7.904,2.923
						c-2.729,0.654-5.564,0.983-8.501,0.983c-4.459,0-7.802-0.682-10.03-2.045c-2.231-1.367-3.347-3.418-3.347-6.158
						c0-2.082,0.8-3.72,2.394-4.907c1.594-1.187,4.801-2.316,9.623-3.391l3.079-0.688c6.375-1.363,10.905-3.289,13.594-5.781
						c2.686-2.489,4.032-5.961,4.032-10.42c0-5.083-2.011-9.111-6.032-12.079c-4.021-2.96-9.545-4.438-16.578-4.438
						c-2.926,0-5.981,0.288-9.155,0.861c-3.177,0.573-6.524,1.428-10.034,2.56v9.284c3.323-1.729,6.595-3.028,9.813-3.893
						c3.218-0.854,6.412-1.282,9.579-1.282c4.229,0,7.48,0.726,9.749,2.173c2.282,1.448,3.421,3.489,3.421,6.124
						c0,2.438-0.821,4.306-2.469,5.608c-1.634,1.302-5.239,2.56-10.81,3.767l-3.126,0.732c-5.561,1.167-9.583,2.964-12.064,5.392
						c-2.469,2.428-3.703,5.758-3.703,9.986c0,5.144,1.824,9.115,5.469,11.905c3.645,2.801,8.823,4.205,15.534,4.205
						c3.309,0,6.429-0.248,9.358-0.736C96.636,54.79,99.338,54.061,101.807,53.081"/>
				</g>
				<g>
					<path id="BitstreamVeraSans-Roman-74" d="M127.94,70.221V54.688h18.5v-6.982h-18.5V18.02c0-4.459,0.607-7.324,1.828-8.596
						c1.217-1.271,3.703-1.905,7.453-1.905h9.22V0h-9.22c-6.938,0-11.726,1.292-14.36,3.875c-2.634,2.594-3.954,7.308-3.954,14.144
						v29.687h-6.592v6.982h6.592v15.533H127.94z"/>
				</g>
				<g>
					<path id="BitstreamVeraSans-Roman-2d" d="M153.724,31.393h26.313v-7.999h-26.313V31.393z"/>
				</g>
				<g>
					<path id="BitstreamVeraSans-Roman-74_1_" d="M203.23,70.221V54.688h18.5v-6.982h-18.5V18.02c0-4.459,0.61-7.324,1.831-8.596
						c1.217-1.271,3.703-1.905,7.453-1.905h9.216V0h-9.216c-6.938,0-11.726,1.292-14.36,3.875
						c-2.635,2.594-3.954,7.308-3.954,14.144v29.687h-6.595v6.982h6.595v15.533H203.23z"/>
				</g>
				<g>
					<path id="BitstreamVeraSans-Roman-65" d="M280.332,29.596v-4.391h-41.314c0.397-6.188,2.262-10.901,5.595-14.14
						c3.333-3.238,7.979-4.859,13.936-4.859c3.449,0,6.792,0.42,10.034,1.265c3.238,0.845,6.456,2.116,9.654,3.815V2.784
						c-3.228-1.366-6.534-2.407-9.922-3.126c-3.384-0.719-6.815-1.078-10.294-1.078c-8.731,0-15.642,2.537-20.735,7.609
						c-5.093,5.083-7.64,11.96-7.64,20.627c0,8.948,2.414,16.045,7.25,21.294c4.832,5.262,11.353,7.894,19.562,7.894
						c7.354,0,13.173-2.37,17.453-7.11C278.192,44.163,280.332,37.73,280.332,29.596 M271.346,32.237
						c-0.061,4.906-1.438,8.823-4.124,11.749c-2.689,2.937-6.246,4.408-10.671,4.408c-5.012,0-9.023-1.417-12.034-4.252
						c-3.007-2.835-4.744-6.823-5.201-11.97L271.346,32.237z"/>
				</g>
				<g>
					<path id="BitstreamVeraSans-Roman-73_1_" d="M329.933,53.081v-8.5c-2.53,1.302-5.167,2.275-7.908,2.923
						c-2.726,0.654-5.561,0.983-8.497,0.983c-4.459,0-7.803-0.682-10.034-2.045c-2.228-1.367-3.343-3.418-3.343-6.158
						c0-2.082,0.797-3.72,2.391-4.907c1.594-1.187,4.801-2.316,9.626-3.391l3.079-0.688c6.375-1.363,10.905-3.289,13.594-5.781
						c2.686-2.489,4.028-5.961,4.028-10.42c0-5.083-2.007-9.111-6.029-12.079c-4.022-2.96-9.549-4.438-16.578-4.438
						c-2.93,0-5.981,0.288-9.159,0.861s-6.521,1.428-10.03,2.56v9.284c3.323-1.729,6.592-3.028,9.813-3.893
						c3.218-0.854,6.412-1.282,9.576-1.282c4.232,0,7.48,0.726,9.752,2.173c2.282,1.448,3.421,3.489,3.421,6.124
						c0,2.438-0.824,4.306-2.469,5.608c-1.634,1.302-5.239,2.56-10.813,3.767l-3.123,0.732c-5.564,1.167-9.586,2.964-12.065,5.392
						c-2.468,2.428-3.703,5.758-3.703,9.986c0,5.144,1.824,9.115,5.47,11.905c3.645,2.801,8.823,4.205,15.53,4.205
						c3.313,0,6.433-0.248,9.359-0.736C324.762,54.79,327.464,54.061,329.933,53.081"/>
				</g>
				<g>
					<path id="BitstreamVeraSans-Roman-74_2_" d="M356.063,70.221V54.688h18.5v-6.982h-18.5V18.02c0-4.459,0.61-7.324,1.831-8.596
						c1.217-1.271,3.703-1.905,7.453-1.905h9.216V0h-9.216c-6.938,0-11.726,1.292-14.36,3.875
						c-2.635,2.594-3.954,7.308-3.954,14.144v29.687h-6.595v6.982h6.595v15.533H356.063z"/>
				</g>
				<g>
					<path id="BitstreamVeraSans-Roman-20" d="M376.96,0"/>
				</g>
				<g>
					<path id="BitstreamVeraSans-Roman-66" d="M445.855,75.986v-7.483h-8.593c-3.218,0-5.459-0.651-6.717-1.953
						c-1.251-1.302-1.875-3.646-1.875-7.033v-4.829h14.794v-6.982H428.67V0h-9.033v47.706h-8.592v6.982h8.592v3.814
						c0,6.083,1.417,10.515,4.249,13.296c2.834,2.794,7.324,4.188,13.472,4.188H445.855z"/>
				</g>
				<g>
					<path id="BitstreamVeraSans-Roman-6f" d="M474.562,48.395c-4.812,0-8.62-1.882-11.424-5.643
						c-2.801-3.76-4.201-8.911-4.201-15.452c0-6.541,1.39-11.695,4.171-15.456c2.791-3.761,6.609-5.639,11.454-5.639
						c4.792,0,8.583,1.885,11.376,5.656c2.801,3.781,4.201,8.928,4.201,15.438c0,6.479-1.4,11.613-4.201,15.404
						C483.145,46.496,479.354,48.395,474.562,48.395 M474.562,56.003c7.813,0,13.947-2.543,18.406-7.626
						c4.469-5.073,6.704-12.099,6.704-21.077c0-8.949-2.235-15.975-6.704-21.081c-4.459-5.093-10.593-7.64-18.406-7.64
						c-7.843,0-13.991,2.546-18.439,7.64c-4.435,5.106-6.656,12.132-6.656,21.081c0,8.979,2.221,16.004,6.656,21.077
						C460.571,53.46,466.719,56.003,474.562,56.003"/>
				</g>
				<g>
					<path id="BitstreamVeraSans-Roman-72" d="M546.245,46.299c-1.011,0.583-2.109,1.011-3.299,1.282
						c-1.187,0.282-2.492,0.42-3.92,0.42c-5.083,0-8.986-1.651-11.705-4.95c-2.716-3.303-4.076-8.05-4.076-14.235V0h-9.033v54.688
						h9.033V46.19c1.896,3.323,4.354,5.785,7.375,7.389c3.031,1.618,6.71,2.424,11.044,2.424c0.617,0,1.299-0.044,2.048-0.125
						c0.75-0.074,1.58-0.193,2.486-0.359L546.245,46.299z"/>
				</g>
				<g>
					<path id="BitstreamVeraSans-Roman-20_1_" d="M546.248,0"/>
				</g>
				<g>
					<path id="BitstreamVeraSans-Roman-6c" d="M587.457,75.986h8.982V0h-8.982V75.986z"/>
				</g>
				<g>
					<path id="BitstreamVeraSans-Roman-6f_1_" d="M636.431,48.395c-4.815,0-8.626-1.882-11.427-5.643
						c-2.801-3.76-4.198-8.911-4.198-15.452c0-6.541,1.384-11.695,4.164-15.456c2.794-3.761,6.612-5.639,11.461-5.639
						c4.788,0,8.579,1.885,11.373,5.656c2.801,3.781,4.198,8.928,4.198,15.438c0,6.479-1.397,11.613-4.198,15.404
						C645.01,46.496,641.219,48.395,636.431,48.395 M636.431,56.003c7.813,0,13.943-2.543,18.406-7.626
						c4.462-5.073,6.7-12.099,6.7-21.077c0-8.949-2.238-15.975-6.7-21.081c-4.462-5.093-10.593-7.64-18.406-7.64
						c-7.846,0-13.997,2.546-18.446,7.64c-4.435,5.106-6.653,12.132-6.653,21.081c0,8.979,2.218,16.004,6.653,21.077
						C622.434,53.46,628.584,56.003,636.431,56.003"/>
				</g>
				<g>
					<path id="BitstreamVeraSans-Roman-77" d="M671.201,54.688h8.985l11.23-42.67l11.176,42.67h10.593l11.23-42.67l11.189,42.67
						h8.986L730.276,0h-10.593l-11.759,44.83L696.109,0h-10.606L671.201,54.688z"/>
				</g>
				<g>
					<path id="BitstreamVeraSans-Roman-65_1_" d="M804.99,29.596v-4.391h-41.314c0.4-6.188,2.258-10.901,5.595-14.14
						c3.336-3.238,7.975-4.859,13.937-4.859c3.452,0,6.788,0.42,10.03,1.265c3.242,0.845,6.456,2.116,9.657,3.815V2.784
						c-3.228-1.366-6.538-2.407-9.921-3.126c-3.384-0.719-6.816-1.078-10.295-1.078c-8.728,0-15.646,2.537-20.731,7.609
						c-5.1,5.083-7.643,11.96-7.643,20.627c0,8.948,2.414,16.045,7.25,21.294c4.829,5.262,11.353,7.894,19.559,7.894
						c7.358,0,13.177-2.37,17.456-7.11C802.854,44.163,804.99,37.73,804.99,29.596 M796.004,32.237
						c-0.061,4.906-1.438,8.823-4.124,11.749c-2.686,2.937-6.246,4.408-10.674,4.408c-5.005,0-9.02-1.417-12.031-4.252
						c-3.011-2.835-4.747-6.823-5.201-11.97L796.004,32.237z"/>
				</g>
				<g>
					<path id="BitstreamVeraSans-Roman-72_1_" d="M851.424,46.299c-1.017,0.583-2.116,1.011-3.303,1.282
						c-1.187,0.282-2.489,0.42-3.92,0.42c-5.08,0-8.986-1.651-11.705-4.95c-2.719-3.303-4.076-8.05-4.076-14.235V0h-9.033v54.688
						h9.033V46.19c1.899,3.323,4.354,5.785,7.378,7.389c3.024,1.618,6.707,2.424,11.041,2.424c0.617,0,1.302-0.044,2.048-0.125
						c0.746-0.074,1.581-0.193,2.482-0.359L851.424,46.299z"/>
				</g>
				<g>
					<path id="BitstreamVeraSans-Roman-20_2_" d="M851.424,0"/>
				</g>
				<g>
					<path id="BitstreamVeraSans-Roman-65_2_" d="M939.409,29.596v-4.391h-41.307c0.394-6.188,2.258-10.901,5.595-14.14
						c3.33-3.238,7.976-4.859,13.937-4.859c3.445,0,6.789,0.42,10.03,1.265c3.242,0.845,6.456,2.116,9.657,3.815V2.784
						c-3.229-1.366-6.538-2.407-9.922-3.126c-3.384-0.719-6.815-1.078-10.301-1.078c-8.721,0-15.639,2.537-20.731,7.609
						c-5.093,5.083-7.643,11.96-7.643,20.627c0,8.948,2.421,16.045,7.256,21.294c4.829,5.262,11.353,7.894,19.558,7.894
						c7.352,0,13.17-2.37,17.456-7.11C937.273,44.163,939.409,37.73,939.409,29.596 M930.43,32.237
						c-0.067,4.906-1.438,8.823-4.123,11.749c-2.692,2.937-6.246,4.408-10.674,4.408c-5.012,0-9.02-1.417-12.031-4.252
						c-3.011-2.835-4.747-6.823-5.208-11.97L930.43,32.237z"/>
				</g>
				<g>
					<path id="BitstreamVeraSans-Roman-73_2_" d="M989.011,53.081v-8.5c-2.523,1.302-5.161,2.275-7.901,2.923
						c-2.733,0.654-5.568,0.983-8.498,0.983c-4.462,0-7.806-0.682-10.037-2.045c-2.225-1.367-3.343-3.418-3.343-6.158
						c0-2.082,0.8-3.72,2.394-4.907c1.594-1.187,4.802-2.316,9.624-3.391l3.079-0.688c6.375-1.363,10.905-3.289,13.597-5.781
						c2.686-2.489,4.028-5.961,4.028-10.42c0-5.083-2.007-9.111-6.036-12.079c-4.015-2.96-9.542-4.438-16.574-4.438
						c-2.93,0-5.981,0.288-9.155,0.861s-6.524,1.428-10.037,2.56v9.284c3.323-1.729,6.599-3.028,9.82-3.893
						c3.215-0.854,6.409-1.282,9.576-1.282c4.231,0,7.48,0.726,9.752,2.173c2.278,1.448,3.418,3.489,3.418,6.124
						c0,2.438-0.821,4.306-2.469,5.608c-1.634,1.302-5.235,2.56-10.81,3.767l-3.126,0.732c-5.561,1.167-9.583,2.964-12.065,5.392
						c-2.468,2.428-3.703,5.758-3.703,9.986c0,5.144,1.824,9.115,5.466,11.905c3.649,2.801,8.83,4.205,15.537,4.205
						c3.31,0,6.429-0.248,9.358-0.736C983.843,54.79,986.542,54.061,989.011,53.081"/>
				</g>
				<g>
					<path id="BitstreamVeraSans-Roman-74_3_" d="M1015.147,70.221V54.688h18.5v-6.982h-18.5V18.02c0-4.459,0.61-7.324,1.831-8.596
						c1.214-1.271,3.703-1.905,7.446-1.905h9.223V0h-9.223c-6.931,0-11.719,1.292-14.356,3.875
						c-2.638,2.594-3.954,7.308-3.954,14.144v29.687h-6.592v6.982h6.592v15.533H1015.147z"/>
				</g>
				<g>
					<path id="BitstreamVeraSans-Roman-69" d="M1045.461,54.688h8.986V0h-8.986V54.688z M1045.461,75.986h8.986v-11.39h-8.986
						V75.986z"/>
				</g>
				<g>
					<path id="BitstreamVeraSans-Roman-6d" d="M1115.828,44.19c2.251,4.042,4.937,7.019,8.057,8.938
						c3.126,1.916,6.809,2.875,11.034,2.875c5.697,0,10.098-1.997,13.19-5.985c3.092-3.98,4.639-9.647,4.639-17.001V0h-9.033v32.722
						c0,5.239-0.929,9.125-2.794,11.654c-1.858,2.543-4.68,3.814-8.484,3.814c-4.659,0-8.342-1.549-11.047-4.642
						c-2.699-3.082-4.049-7.297-4.049-12.641V0h-9.026v32.722c0,5.269-0.936,9.166-2.787,11.685
						c-1.852,2.523-4.713,3.784-8.593,3.784c-4.598,0-8.246-1.553-10.952-4.659c-2.699-3.103-4.049-7.311-4.049-12.625V0h-9.033
						v54.688h9.033V46.19c2.055,3.354,4.517,5.826,7.378,7.419c2.862,1.597,6.267,2.394,10.2,2.394c3.981,0,7.365-1.01,10.146-3.031
						C1112.437,50.961,1114.492,48.035,1115.828,44.19"/>
				</g>
				<g>
					<path id="BitstreamVeraSans-Roman-61" d="M1195.52,27.487c-7.263,0-12.295-0.828-15.096-2.486
						c-2.801-1.655-4.198-4.489-4.198-8.5c0-3.188,1.044-5.717,3.154-7.592c2.102-1.865,4.957-2.797,8.565-2.797
						c4.985,0,8.986,1.767,11.997,5.296c3.011,3.533,4.517,8.226,4.517,14.079v2.001H1195.52z M1213.444,31.207V0h-8.986v8.297
						c-2.055-3.313-4.612-5.761-7.67-7.341c-3.065-1.583-6.809-2.377-11.237-2.377c-5.595,0-10.044,1.573-13.36,4.72
						c-3.302,3.143-4.957,7.354-4.957,12.624c0,6.144,2.062,10.783,6.171,13.906c4.13,3.126,10.274,4.689,18.446,4.689h12.607v0.889
						c0,4.137-1.363,7.334-4.076,9.596c-2.727,2.258-6.538,3.391-11.461,3.391c-3.12,0-6.171-0.376-9.135-1.126
						c-2.963-0.752-5.805-1.875-8.531-3.377v8.314c3.275,1.271,6.463,2.217,9.562,2.841c3.092,0.638,6.104,0.956,9.026,0.956
						c7.921,0,13.835-2.055,17.741-6.158C1211.491,45.753,1213.444,39.538,1213.444,31.207"/>
				</g>
				<g>
					<path id="BitstreamVeraSans-Roman-74_4_" d="M1240.828,70.221V54.688h18.5v-6.982h-18.5V18.02c0-4.459,0.61-7.324,1.831-8.596
						c1.221-1.271,3.703-1.905,7.453-1.905h9.216V0h-9.216c-6.938,0-11.726,1.292-14.357,3.875c-2.638,2.594-3.96,7.308-3.96,14.144
						v29.687h-6.592v6.982h6.592v15.533H1240.828z"/>
				</g>
				<g>
					<path id="BitstreamVeraSans-Roman-65_3_" d="M1317.929,29.596v-4.391h-41.314c0.4-6.188,2.258-10.901,5.595-14.14
						s7.975-4.859,13.937-4.859c3.452,0,6.788,0.42,10.03,1.265c3.242,0.845,6.456,2.116,9.657,3.815V2.784
						c-3.228-1.366-6.538-2.407-9.921-3.126c-3.384-0.719-6.816-1.078-10.295-1.078c-8.728,0-15.645,2.537-20.731,7.609
						c-5.1,5.083-7.643,11.96-7.643,20.627c0,8.948,2.415,16.045,7.25,21.294c4.829,5.262,11.353,7.894,19.559,7.894
						c7.358,0,13.177-2.37,17.456-7.11C1315.793,44.163,1317.929,37.73,1317.929,29.596 M1308.943,32.237
						c-0.061,4.906-1.438,8.823-4.124,11.749c-2.686,2.937-6.246,4.408-10.674,4.408c-5.005,0-9.02-1.417-12.031-4.252
						c-3.011-2.835-4.747-6.823-5.201-11.97L1308.943,32.237z"/>
				</g>
			</g>
		</g>
	</g>
</g>
</svg>
