<?xml version="1.0" encoding="utf-8"?>
<!-- Generator: Adobe Illustrator 16.0.0, SVG Export Plug-In . SVG Version: 6.00 Build 0)  -->
<!DOCTYPE svg PUBLIC "-//W3C//DTD SVG 1.1//EN" "http://www.w3.org/Graphics/SVG/1.1/DTD/svg11.dtd">
<svg version="1.1" id="Layer_1" xmlns="http://www.w3.org/2000/svg" xmlns:xlink="http://www.w3.org/1999/xlink" x="0px" y="0px"
	 width="586px" height="442px" viewBox="0 0 586 442" enable-background="new 0 0 586 442" xml:space="preserve">
<g id="figure_1">
	<g id="patch_1">
		<path fill="#FFFFFF" d="M0,442.8h586.8V0H0V442.8z"/>
	</g>
	<g id="axes_1">
		<g id="patch_2">
			<path fill="#FFFFFF" d="M73.35,398.52h454.77V44.28H73.35V398.52z"/>
		</g>
		<g id="patch_3">
			<g>
				<defs>
					<rect id="SVGID_1_" x="73.35" y="44.28" width="454.77" height="354.239"/>
				</defs>
				<clipPath id="SVGID_2_">
					<use xlink:href="#SVGID_1_"  overflow="visible"/>
				</clipPath>
				
					<path opacity="0.5" clip-path="url(#SVGID_2_)" fill="#008000" stroke="#000000" stroke-linecap="square" stroke-linejoin="round" enable-background="new    " d="
					M78.523,398.52h8.965V339.48h-8.965V398.52z"/>
			</g>
		</g>
		<g id="patch_4">
			<g>
				<defs>
					<rect id="SVGID_3_" x="73.35" y="44.28" width="454.77" height="354.239"/>
				</defs>
				<clipPath id="SVGID_4_">
					<use xlink:href="#SVGID_3_"  overflow="visible"/>
				</clipPath>
				
					<path opacity="0.5" clip-path="url(#SVGID_4_)" fill="#008000" stroke="#000000" stroke-linecap="square" stroke-linejoin="round" enable-background="new    " d="
					M87.489,398.52h8.966l0,0H87.489z"/>
			</g>
		</g>
		<g id="patch_5">
			<g>
				<defs>
					<rect id="SVGID_5_" x="73.35" y="44.28" width="454.77" height="354.239"/>
				</defs>
				<clipPath id="SVGID_6_">
					<use xlink:href="#SVGID_5_"  overflow="visible"/>
				</clipPath>
				
					<path opacity="0.5" clip-path="url(#SVGID_6_)" fill="#008000" stroke="#000000" stroke-linecap="square" stroke-linejoin="round" enable-background="new    " d="
					M96.455,398.52h8.965V339.48h-8.965V398.52z"/>
			</g>
		</g>
		<g id="patch_6">
			<g>
				<defs>
					<rect id="SVGID_7_" x="73.35" y="44.28" width="454.77" height="354.239"/>
				</defs>
				<clipPath id="SVGID_8_">
					<use xlink:href="#SVGID_7_"  overflow="visible"/>
				</clipPath>
				
					<path opacity="0.5" clip-path="url(#SVGID_8_)" fill="#008000" stroke="#000000" stroke-linecap="square" stroke-linejoin="round" enable-background="new    " d="
					M105.42,398.52h8.966V339.48h-8.966V398.52z"/>
			</g>
		</g>
		<g id="patch_7">
			<g>
				<defs>
					<rect id="SVGID_9_" x="73.35" y="44.28" width="454.77" height="354.239"/>
				</defs>
				<clipPath id="SVGID_10_">
					<use xlink:href="#SVGID_9_"  overflow="visible"/>
				</clipPath>
				
					<path opacity="0.5" clip-path="url(#SVGID_10_)" fill="#008000" stroke="#000000" stroke-linecap="square" stroke-linejoin="round" enable-background="new    " d="
					M114.386,398.52h8.965v-118.08h-8.965V398.52z"/>
			</g>
		</g>
		<g id="patch_8">
			<g>
				<defs>
					<rect id="SVGID_11_" x="73.35" y="44.28" width="454.77" height="354.239"/>
				</defs>
				<clipPath id="SVGID_12_">
					<use xlink:href="#SVGID_11_"  overflow="visible"/>
				</clipPath>
				
					<path opacity="0.5" clip-path="url(#SVGID_12_)" fill="#008000" stroke="#000000" stroke-linecap="square" stroke-linejoin="round" enable-background="new    " d="
					M123.351,398.52h8.966V221.4h-8.966V398.52z"/>
			</g>
		</g>
		<g id="patch_9">
			<g>
				<defs>
					<rect id="SVGID_13_" x="73.35" y="44.28" width="454.77" height="354.239"/>
				</defs>
				<clipPath id="SVGID_14_">
					<use xlink:href="#SVGID_13_"  overflow="visible"/>
				</clipPath>
				
					<path opacity="0.5" clip-path="url(#SVGID_14_)" fill="#008000" stroke="#000000" stroke-linecap="square" stroke-linejoin="round" enable-background="new    " d="
					M132.317,398.52h8.966V339.48h-8.966V398.52z"/>
			</g>
		</g>
		<g id="patch_10">
			<g>
				<defs>
					<rect id="SVGID_15_" x="73.35" y="44.28" width="454.77" height="354.239"/>
				</defs>
				<clipPath id="SVGID_16_">
					<use xlink:href="#SVGID_15_"  overflow="visible"/>
				</clipPath>
				
					<path opacity="0.5" clip-path="url(#SVGID_16_)" fill="#008000" stroke="#000000" stroke-linecap="square" stroke-linejoin="round" enable-background="new    " d="
					M141.283,398.52h8.965V339.48h-8.965V398.52z"/>
			</g>
		</g>
		<g id="patch_11">
			<g>
				<defs>
					<rect id="SVGID_17_" x="73.35" y="44.28" width="454.77" height="354.239"/>
				</defs>
				<clipPath id="SVGID_18_">
					<use xlink:href="#SVGID_17_"  overflow="visible"/>
				</clipPath>
				
					<path opacity="0.5" clip-path="url(#SVGID_18_)" fill="#008000" stroke="#000000" stroke-linecap="square" stroke-linejoin="round" enable-background="new    " d="
					M150.248,398.52h8.966V339.48h-8.966V398.52z"/>
			</g>
		</g>
		<g id="patch_12">
			<g>
				<defs>
					<rect id="SVGID_19_" x="73.35" y="44.28" width="454.77" height="354.239"/>
				</defs>
				<clipPath id="SVGID_20_">
					<use xlink:href="#SVGID_19_"  overflow="visible"/>
				</clipPath>
				
					<path opacity="0.5" clip-path="url(#SVGID_20_)" fill="#008000" stroke="#000000" stroke-linecap="square" stroke-linejoin="round" enable-background="new    " d="
					M159.214,398.52h8.966V339.48h-8.966V398.52z"/>
			</g>
		</g>
		<g id="patch_13">
			<g>
				<defs>
					<rect id="SVGID_21_" x="73.35" y="44.28" width="454.77" height="354.239"/>
				</defs>
				<clipPath id="SVGID_22_">
					<use xlink:href="#SVGID_21_"  overflow="visible"/>
				</clipPath>
				
					<path opacity="0.5" clip-path="url(#SVGID_22_)" fill="#008000" stroke="#000000" stroke-linecap="square" stroke-linejoin="round" enable-background="new    " d="
					M168.18,398.52h8.965v-118.08h-8.965V398.52z"/>
			</g>
		</g>
		<g id="patch_14">
			<g>
				<defs>
					<rect id="SVGID_23_" x="73.35" y="44.28" width="454.77" height="354.239"/>
				</defs>
				<clipPath id="SVGID_24_">
					<use xlink:href="#SVGID_23_"  overflow="visible"/>
				</clipPath>
				
					<path opacity="0.5" clip-path="url(#SVGID_24_)" fill="#008000" stroke="#000000" stroke-linecap="square" stroke-linejoin="round" enable-background="new    " d="
					M177.145,398.52h8.966V339.48h-8.966V398.52z"/>
			</g>
		</g>
		<g id="patch_15">
			<g>
				<defs>
					<rect id="SVGID_25_" x="73.35" y="44.28" width="454.77" height="354.239"/>
				</defs>
				<clipPath id="SVGID_26_">
					<use xlink:href="#SVGID_25_"  overflow="visible"/>
				</clipPath>
				
					<path opacity="0.5" clip-path="url(#SVGID_26_)" fill="#008000" stroke="#000000" stroke-linecap="square" stroke-linejoin="round" enable-background="new    " d="
					M186.111,398.52h8.965l0,0H186.111z"/>
			</g>
		</g>
		<g id="patch_16">
			<g>
				<defs>
					<rect id="SVGID_27_" x="73.35" y="44.28" width="454.77" height="354.239"/>
				</defs>
				<clipPath id="SVGID_28_">
					<use xlink:href="#SVGID_27_"  overflow="visible"/>
				</clipPath>
				
					<path opacity="0.5" clip-path="url(#SVGID_28_)" fill="#008000" stroke="#000000" stroke-linecap="square" stroke-linejoin="round" enable-background="new    " d="
					M195.076,398.52h8.966l0,0H195.076z"/>
			</g>
		</g>
		<g id="patch_17">
			<g>
				<defs>
					<rect id="SVGID_29_" x="73.35" y="44.28" width="454.77" height="354.239"/>
				</defs>
				<clipPath id="SVGID_30_">
					<use xlink:href="#SVGID_29_"  overflow="visible"/>
				</clipPath>
				
					<path opacity="0.5" clip-path="url(#SVGID_30_)" fill="#008000" stroke="#000000" stroke-linecap="square" stroke-linejoin="round" enable-background="new    " d="
					M204.042,398.52h8.966V339.48h-8.966V398.52z"/>
			</g>
		</g>
		<g id="patch_18">
			<g>
				<defs>
					<rect id="SVGID_31_" x="73.35" y="44.28" width="454.77" height="354.239"/>
				</defs>
				<clipPath id="SVGID_32_">
					<use xlink:href="#SVGID_31_"  overflow="visible"/>
				</clipPath>
				
					<path opacity="0.5" clip-path="url(#SVGID_32_)" fill="#008000" stroke="#000000" stroke-linecap="square" stroke-linejoin="round" enable-background="new    " d="
					M213.008,398.52h8.965l0,0H213.008z"/>
			</g>
		</g>
		<g id="patch_19">
			<g>
				<defs>
					<rect id="SVGID_33_" x="73.35" y="44.28" width="454.77" height="354.239"/>
				</defs>
				<clipPath id="SVGID_34_">
					<use xlink:href="#SVGID_33_"  overflow="visible"/>
				</clipPath>
				
					<path opacity="0.5" clip-path="url(#SVGID_34_)" fill="#008000" stroke="#000000" stroke-linecap="square" stroke-linejoin="round" enable-background="new    " d="
					M221.973,398.52h8.966l0,0H221.973z"/>
			</g>
		</g>
		<g id="patch_20">
			<g>
				<defs>
					<rect id="SVGID_35_" x="73.35" y="44.28" width="454.77" height="354.239"/>
				</defs>
				<clipPath id="SVGID_36_">
					<use xlink:href="#SVGID_35_"  overflow="visible"/>
				</clipPath>
				
					<path opacity="0.5" clip-path="url(#SVGID_36_)" fill="#008000" stroke="#000000" stroke-linecap="square" stroke-linejoin="round" enable-background="new    " d="
					M230.939,398.52h8.966V339.48h-8.966V398.52z"/>
			</g>
		</g>
		<g id="patch_21">
			<g>
				<defs>
					<rect id="SVGID_37_" x="73.35" y="44.28" width="454.77" height="354.239"/>
				</defs>
				<clipPath id="SVGID_38_">
					<use xlink:href="#SVGID_37_"  overflow="visible"/>
				</clipPath>
				
					<path opacity="0.5" clip-path="url(#SVGID_38_)" fill="#008000" stroke="#000000" stroke-linecap="square" stroke-linejoin="round" enable-background="new    " d="
					M239.905,398.52h8.965V221.4h-8.965V398.52z"/>
			</g>
		</g>
		<g id="patch_22">
			<g>
				<defs>
					<rect id="SVGID_39_" x="73.35" y="44.28" width="454.77" height="354.239"/>
				</defs>
				<clipPath id="SVGID_40_">
					<use xlink:href="#SVGID_39_"  overflow="visible"/>
				</clipPath>
				
					<path opacity="0.5" clip-path="url(#SVGID_40_)" fill="#008000" stroke="#000000" stroke-linecap="square" stroke-linejoin="round" enable-background="new    " d="
					M248.87,398.52h8.966l0,0H248.87z"/>
			</g>
		</g>
		<g id="patch_23">
			<g>
				<defs>
					<rect id="SVGID_41_" x="73.35" y="44.28" width="454.77" height="354.239"/>
				</defs>
				<clipPath id="SVGID_42_">
					<use xlink:href="#SVGID_41_"  overflow="visible"/>
				</clipPath>
				
					<path opacity="0.5" clip-path="url(#SVGID_42_)" fill="#008000" stroke="#000000" stroke-linecap="square" stroke-linejoin="round" enable-background="new    " d="
					M257.836,398.52h8.965V221.4h-8.965V398.52z"/>
			</g>
		</g>
		<g id="patch_24">
			<g>
				<defs>
					<rect id="SVGID_43_" x="73.35" y="44.28" width="454.77" height="354.239"/>
				</defs>
				<clipPath id="SVGID_44_">
					<use xlink:href="#SVGID_43_"  overflow="visible"/>
				</clipPath>
				
					<path opacity="0.5" clip-path="url(#SVGID_44_)" fill="#008000" stroke="#000000" stroke-linecap="square" stroke-linejoin="round" enable-background="new    " d="
					M266.801,398.52h8.966l0,0H266.801z"/>
			</g>
		</g>
		<g id="patch_25">
			<g>
				<defs>
					<rect id="SVGID_45_" x="73.35" y="44.28" width="454.77" height="354.239"/>
				</defs>
				<clipPath id="SVGID_46_">
					<use xlink:href="#SVGID_45_"  overflow="visible"/>
				</clipPath>
				
					<path opacity="0.5" clip-path="url(#SVGID_46_)" fill="#008000" stroke="#000000" stroke-linecap="square" stroke-linejoin="round" enable-background="new    " d="
					M275.767,398.52h8.966v-118.08h-8.966V398.52z"/>
			</g>
		</g>
		<g id="patch_26">
			<g>
				<defs>
					<rect id="SVGID_47_" x="73.35" y="44.28" width="454.77" height="354.239"/>
				</defs>
				<clipPath id="SVGID_48_">
					<use xlink:href="#SVGID_47_"  overflow="visible"/>
				</clipPath>
				
					<path opacity="0.5" clip-path="url(#SVGID_48_)" fill="#008000" stroke="#000000" stroke-linecap="square" stroke-linejoin="round" enable-background="new    " d="
					M284.733,398.52h8.965V339.48h-8.965V398.52z"/>
			</g>
		</g>
		<g id="patch_27">
			<g>
				<defs>
					<rect id="SVGID_49_" x="73.35" y="44.28" width="454.77" height="354.239"/>
				</defs>
				<clipPath id="SVGID_50_">
					<use xlink:href="#SVGID_49_"  overflow="visible"/>
				</clipPath>
				
					<path opacity="0.5" clip-path="url(#SVGID_50_)" fill="#008000" stroke="#000000" stroke-linecap="square" stroke-linejoin="round" enable-background="new    " d="
					M293.698,398.52h8.966V339.48h-8.966V398.52z"/>
			</g>
		</g>
		<g id="patch_28">
			<g>
				<defs>
					<rect id="SVGID_51_" x="73.35" y="44.28" width="454.77" height="354.239"/>
				</defs>
				<clipPath id="SVGID_52_">
					<use xlink:href="#SVGID_51_"  overflow="visible"/>
				</clipPath>
				
					<path opacity="0.5" clip-path="url(#SVGID_52_)" fill="#008000" stroke="#000000" stroke-linecap="square" stroke-linejoin="round" enable-background="new    " d="
					M302.664,398.52h8.966V162.36h-8.966V398.52z"/>
			</g>
		</g>
		<g id="patch_29">
			<g>
				<defs>
					<rect id="SVGID_53_" x="73.35" y="44.28" width="454.77" height="354.239"/>
				</defs>
				<clipPath id="SVGID_54_">
					<use xlink:href="#SVGID_53_"  overflow="visible"/>
				</clipPath>
				
					<path opacity="0.5" clip-path="url(#SVGID_54_)" fill="#008000" stroke="#000000" stroke-linecap="square" stroke-linejoin="round" enable-background="new    " d="
					M311.63,398.52h8.965v-118.08h-8.965V398.52z"/>
			</g>
		</g>
		<g id="patch_30">
			<g>
				<defs>
					<rect id="SVGID_55_" x="73.35" y="44.28" width="454.77" height="354.239"/>
				</defs>
				<clipPath id="SVGID_56_">
					<use xlink:href="#SVGID_55_"  overflow="visible"/>
				</clipPath>
				
					<path opacity="0.5" clip-path="url(#SVGID_56_)" fill="#008000" stroke="#000000" stroke-linecap="square" stroke-linejoin="round" enable-background="new    " d="
					M320.595,398.52h8.966V162.36h-8.966V398.52z"/>
			</g>
		</g>
		<g id="patch_31">
			<g>
				<defs>
					<rect id="SVGID_57_" x="73.35" y="44.28" width="454.77" height="354.239"/>
				</defs>
				<clipPath id="SVGID_58_">
					<use xlink:href="#SVGID_57_"  overflow="visible"/>
				</clipPath>
				
					<path opacity="0.5" clip-path="url(#SVGID_58_)" fill="#008000" stroke="#000000" stroke-linecap="square" stroke-linejoin="round" enable-background="new    " d="
					M329.561,398.52h8.967v-118.08h-8.967V398.52z"/>
			</g>
		</g>
		<g id="patch_32">
			<g>
				<defs>
					<rect id="SVGID_59_" x="73.35" y="44.28" width="454.77" height="354.239"/>
				</defs>
				<clipPath id="SVGID_60_">
					<use xlink:href="#SVGID_59_"  overflow="visible"/>
				</clipPath>
				
					<path opacity="0.5" clip-path="url(#SVGID_60_)" fill="#008000" stroke="#000000" stroke-linecap="square" stroke-linejoin="round" enable-background="new    " d="
					M338.527,398.52h8.965v-295.2h-8.965V398.52z"/>
			</g>
		</g>
		<g id="patch_33">
			<g>
				<defs>
					<rect id="SVGID_61_" x="73.35" y="44.28" width="454.77" height="354.239"/>
				</defs>
				<clipPath id="SVGID_62_">
					<use xlink:href="#SVGID_61_"  overflow="visible"/>
				</clipPath>
				
					<path opacity="0.5" clip-path="url(#SVGID_62_)" fill="#008000" stroke="#000000" stroke-linecap="square" stroke-linejoin="round" enable-background="new    " d="
					M347.492,398.52h8.966V221.4h-8.966V398.52z"/>
			</g>
		</g>
		<g id="patch_34">
			<g>
				<defs>
					<rect id="SVGID_63_" x="73.35" y="44.28" width="454.77" height="354.239"/>
				</defs>
				<clipPath id="SVGID_64_">
					<use xlink:href="#SVGID_63_"  overflow="visible"/>
				</clipPath>
				
					<path opacity="0.5" clip-path="url(#SVGID_64_)" fill="#008000" stroke="#000000" stroke-linecap="square" stroke-linejoin="round" enable-background="new    " d="
					M356.458,398.52h8.965l0,0H356.458z"/>
			</g>
		</g>
		<g id="patch_35">
			<g>
				<defs>
					<rect id="SVGID_65_" x="73.35" y="44.28" width="454.77" height="354.239"/>
				</defs>
				<clipPath id="SVGID_66_">
					<use xlink:href="#SVGID_65_"  overflow="visible"/>
				</clipPath>
				
					<path opacity="0.5" clip-path="url(#SVGID_66_)" fill="#008000" stroke="#000000" stroke-linecap="square" stroke-linejoin="round" enable-background="new    " d="
					M365.423,398.52h8.966v-118.08h-8.966V398.52z"/>
			</g>
		</g>
		<g id="patch_36">
			<g>
				<defs>
					<rect id="SVGID_67_" x="73.35" y="44.28" width="454.77" height="354.239"/>
				</defs>
				<clipPath id="SVGID_68_">
					<use xlink:href="#SVGID_67_"  overflow="visible"/>
				</clipPath>
				
					<path opacity="0.5" clip-path="url(#SVGID_68_)" fill="#008000" stroke="#000000" stroke-linecap="square" stroke-linejoin="round" enable-background="new    " d="
					M374.389,398.52h8.967V339.48h-8.967V398.52z"/>
			</g>
		</g>
		<g id="patch_37">
			<g>
				<defs>
					<rect id="SVGID_69_" x="73.35" y="44.28" width="454.77" height="354.239"/>
				</defs>
				<clipPath id="SVGID_70_">
					<use xlink:href="#SVGID_69_"  overflow="visible"/>
				</clipPath>
				
					<path opacity="0.5" clip-path="url(#SVGID_70_)" fill="#008000" stroke="#000000" stroke-linecap="square" stroke-linejoin="round" enable-background="new    " d="
					M383.355,398.52h8.965v-118.08h-8.965V398.52z"/>
			</g>
		</g>
		<g id="patch_38">
			<g>
				<defs>
					<rect id="SVGID_71_" x="73.35" y="44.28" width="454.77" height="354.239"/>
				</defs>
				<clipPath id="SVGID_72_">
					<use xlink:href="#SVGID_71_"  overflow="visible"/>
				</clipPath>
				
					<path opacity="0.5" clip-path="url(#SVGID_72_)" fill="#008000" stroke="#000000" stroke-linecap="square" stroke-linejoin="round" enable-background="new    " d="
					M392.32,398.52h8.966l0,0H392.32z"/>
			</g>
		</g>
		<g id="patch_39">
			<g>
				<defs>
					<rect id="SVGID_73_" x="73.35" y="44.28" width="454.77" height="354.239"/>
				</defs>
				<clipPath id="SVGID_74_">
					<use xlink:href="#SVGID_73_"  overflow="visible"/>
				</clipPath>
				
					<path opacity="0.5" clip-path="url(#SVGID_74_)" fill="#008000" stroke="#000000" stroke-linecap="square" stroke-linejoin="round" enable-background="new    " d="
					M401.286,398.52h8.966v-118.08h-8.966V398.52z"/>
			</g>
		</g>
		<g id="patch_40">
			<g>
				<defs>
					<rect id="SVGID_75_" x="73.35" y="44.28" width="454.77" height="354.239"/>
				</defs>
				<clipPath id="SVGID_76_">
					<use xlink:href="#SVGID_75_"  overflow="visible"/>
				</clipPath>
				
					<path opacity="0.5" clip-path="url(#SVGID_76_)" fill="#008000" stroke="#000000" stroke-linecap="square" stroke-linejoin="round" enable-background="new    " d="
					M410.252,398.52h8.965V162.36h-8.965V398.52z"/>
			</g>
		</g>
		<g id="patch_41">
			<g>
				<defs>
					<rect id="SVGID_77_" x="73.35" y="44.28" width="454.77" height="354.239"/>
				</defs>
				<clipPath id="SVGID_78_">
					<use xlink:href="#SVGID_77_"  overflow="visible"/>
				</clipPath>
				
					<path opacity="0.5" clip-path="url(#SVGID_78_)" fill="#008000" stroke="#000000" stroke-linecap="square" stroke-linejoin="round" enable-background="new    " d="
					M419.217,398.52h8.966V162.36h-8.966V398.52z"/>
			</g>
		</g>
		<g id="patch_42">
			<g>
				<defs>
					<rect id="SVGID_79_" x="73.35" y="44.28" width="454.77" height="354.239"/>
				</defs>
				<clipPath id="SVGID_80_">
					<use xlink:href="#SVGID_79_"  overflow="visible"/>
				</clipPath>
				
					<path opacity="0.5" clip-path="url(#SVGID_80_)" fill="#008000" stroke="#000000" stroke-linecap="square" stroke-linejoin="round" enable-background="new    " d="
					M428.183,398.52h8.966V221.4h-8.966V398.52z"/>
			</g>
		</g>
		<g id="patch_43">
			<g>
				<defs>
					<rect id="SVGID_81_" x="73.35" y="44.28" width="454.77" height="354.239"/>
				</defs>
				<clipPath id="SVGID_82_">
					<use xlink:href="#SVGID_81_"  overflow="visible"/>
				</clipPath>
				
					<path opacity="0.5" clip-path="url(#SVGID_82_)" fill="#008000" stroke="#000000" stroke-linecap="square" stroke-linejoin="round" enable-background="new    " d="
					M437.148,398.52h8.966v-295.2h-8.966V398.52z"/>
			</g>
		</g>
		<g id="patch_44">
			<g>
				<defs>
					<rect id="SVGID_83_" x="73.35" y="44.28" width="454.77" height="354.239"/>
				</defs>
				<clipPath id="SVGID_84_">
					<use xlink:href="#SVGID_83_"  overflow="visible"/>
				</clipPath>
				
					<path opacity="0.5" clip-path="url(#SVGID_84_)" fill="#008000" stroke="#000000" stroke-linecap="square" stroke-linejoin="round" enable-background="new    " d="
					M446.114,398.52h8.966v-295.2h-8.966V398.52z"/>
			</g>
		</g>
		<g id="patch_45">
			<g>
				<defs>
					<rect id="SVGID_85_" x="73.35" y="44.28" width="454.77" height="354.239"/>
				</defs>
				<clipPath id="SVGID_86_">
					<use xlink:href="#SVGID_85_"  overflow="visible"/>
				</clipPath>
				
					<path opacity="0.5" clip-path="url(#SVGID_86_)" fill="#008000" stroke="#000000" stroke-linecap="square" stroke-linejoin="round" enable-background="new    " d="
					M455.08,398.52h8.965V339.48h-8.965V398.52z"/>
			</g>
		</g>
		<g id="patch_46">
			<g>
				<defs>
					<rect id="SVGID_87_" x="73.35" y="44.28" width="454.77" height="354.239"/>
				</defs>
				<clipPath id="SVGID_88_">
					<use xlink:href="#SVGID_87_"  overflow="visible"/>
				</clipPath>
				
					<path opacity="0.5" clip-path="url(#SVGID_88_)" fill="#008000" stroke="#000000" stroke-linecap="square" stroke-linejoin="round" enable-background="new    " d="
					M464.045,398.52h8.966V44.28h-8.966V398.52z"/>
			</g>
		</g>
		<g id="patch_47">
			<g>
				<defs>
					<rect id="SVGID_89_" x="73.35" y="44.28" width="454.77" height="354.239"/>
				</defs>
				<clipPath id="SVGID_90_">
					<use xlink:href="#SVGID_89_"  overflow="visible"/>
				</clipPath>
				
					<path opacity="0.5" clip-path="url(#SVGID_90_)" fill="#008000" stroke="#000000" stroke-linecap="square" stroke-linejoin="round" enable-background="new    " d="
					M473.011,398.52h8.966V221.4h-8.966V398.52z"/>
			</g>
		</g>
		<g id="patch_48">
			<g>
				<defs>
					<rect id="SVGID_91_" x="73.35" y="44.28" width="454.77" height="354.239"/>
				</defs>
				<clipPath id="SVGID_92_">
					<use xlink:href="#SVGID_91_"  overflow="visible"/>
				</clipPath>
				
					<path opacity="0.5" clip-path="url(#SVGID_92_)" fill="#008000" stroke="#000000" stroke-linecap="square" stroke-linejoin="round" enable-background="new    " d="
					M481.977,398.52h8.966v-295.2h-8.966V398.52z"/>
			</g>
		</g>
		<g id="patch_49">
			<g>
				<defs>
					<rect id="SVGID_93_" x="73.35" y="44.28" width="454.77" height="354.239"/>
				</defs>
				<clipPath id="SVGID_94_">
					<use xlink:href="#SVGID_93_"  overflow="visible"/>
				</clipPath>
				
					<path opacity="0.5" clip-path="url(#SVGID_94_)" fill="#008000" stroke="#000000" stroke-linecap="square" stroke-linejoin="round" enable-background="new    " d="
					M490.942,398.52h8.966l0,0H490.942z"/>
			</g>
		</g>
		<g id="patch_50">
			<g>
				<defs>
					<rect id="SVGID_95_" x="73.35" y="44.28" width="454.77" height="354.239"/>
				</defs>
				<clipPath id="SVGID_96_">
					<use xlink:href="#SVGID_95_"  overflow="visible"/>
				</clipPath>
				
					<path opacity="0.5" clip-path="url(#SVGID_96_)" fill="#008000" stroke="#000000" stroke-linecap="square" stroke-linejoin="round" enable-background="new    " d="
					M499.908,398.52h8.965v-118.08h-8.965V398.52z"/>
			</g>
		</g>
		<g id="patch_51">
			<g>
				<defs>
					<rect id="SVGID_97_" x="73.35" y="44.28" width="454.77" height="354.239"/>
				</defs>
				<clipPath id="SVGID_98_">
					<use xlink:href="#SVGID_97_"  overflow="visible"/>
				</clipPath>
				
					<path opacity="0.5" clip-path="url(#SVGID_98_)" fill="#008000" stroke="#000000" stroke-linecap="square" stroke-linejoin="round" enable-background="new    " d="
					M508.873,398.52h8.966V162.36h-8.966V398.52z"/>
			</g>
		</g>
		<g id="patch_52">
			<g>
				<defs>
					<rect id="SVGID_99_" x="73.35" y="44.28" width="454.77" height="354.239"/>
				</defs>
				<clipPath id="SVGID_100_">
					<use xlink:href="#SVGID_99_"  overflow="visible"/>
				</clipPath>
				
					<path opacity="0.5" clip-path="url(#SVGID_100_)" fill="#008000" stroke="#000000" stroke-linecap="square" stroke-linejoin="round" enable-background="new    " d="
					M517.839,398.52h8.966V162.36h-8.966V398.52z"/>
			</g>
		</g>
		<g id="matplotlib.axis_1">
			<g id="xtick_1">
				<g id="line2d_1">
					<g>
						<g>
							<path id="mcb557df647" stroke="#000000" stroke-width="0.5" stroke-linejoin="round" d="M73.35,398.52v-4"/>
						</g>
					</g>
				</g>
				<g id="line2d_2">
					<g>
						<g>
							<path id="mdad270ee8e" stroke="#000000" stroke-width="0.5" stroke-linejoin="round" d="M73.35,44.28v4"/>
						</g>
					</g>
				</g>
				<g id="text_1">
					<g transform="translate(64.6021875 411.42625)scale(0.12 -0.12)">
						<g>
							<path id="BitstreamVeraSans-Roman-30" d="M31.782,66.41c-5.074,0-8.891-2.506-11.454-7.503
								c-2.551-4.989-3.829-12.5-3.829-22.534c0-9.985,1.278-17.48,3.829-22.485c2.563-4.997,6.38-7.495,11.454-7.495
								c5.115,0,8.948,2.498,11.499,7.495c2.563,5.005,3.845,12.5,3.845,22.485c0,10.034-1.282,17.546-3.845,22.534
								C40.729,63.904,36.896,66.41,31.782,66.41 M31.782,74.222c8.175,0,14.421-3.239,18.734-9.708
								c4.313-6.454,6.47-15.837,6.47-28.141c0-12.272-2.157-21.639-6.47-28.109C46.203,1.81,39.957-1.42,31.782-1.42
								c-8.167,0-14.408,3.231-18.717,9.684c-4.313,6.47-6.47,15.836-6.47,28.109c0,12.305,2.157,21.688,6.47,28.141
								C17.374,70.984,23.615,74.222,31.782,74.222"/>
						</g>
						<g>
							<path id="BitstreamVeraSans-Roman-2e" d="M74.311,12.406h10.311V0.004H74.311V12.406z"/>
						</g>
						<g>
							<path id="BitstreamVeraSans-Roman-30_1_" d="M127.192,66.41c-5.074,0-8.891-2.506-11.454-7.503
								c-2.551-4.989-3.829-12.5-3.829-22.534c0-9.985,1.278-17.48,3.829-22.485c2.563-4.997,6.38-7.495,11.454-7.495
								c5.115,0,8.948,2.498,11.499,7.495c2.563,5.005,3.845,12.5,3.845,22.485c0,10.034-1.282,17.546-3.845,22.534
								C136.14,63.904,132.307,66.41,127.192,66.41 M127.192,74.222c8.175,0,14.421-3.239,18.734-9.708
								c4.313-6.454,6.47-15.837,6.47-28.141c0-12.272-2.157-21.639-6.47-28.109c-4.313-6.454-10.559-9.684-18.734-9.684
								c-8.167,0-14.408,3.231-18.717,9.684c-4.313,6.47-6.47,15.836-6.47,28.109c0,12.305,2.157,21.688,6.47,28.141
								C112.784,70.984,119.025,74.222,127.192,74.222"/>
						</g>
					</g>
				</g>
			</g>
			<g id="xtick_2">
				<g id="line2d_3">
					<g>
						<g>
							<path id="mcb557df647_1_" stroke="#000000" stroke-width="0.5" stroke-linejoin="round" d="M164.304,398.52v-4"/>
						</g>
					</g>
				</g>
				<g id="line2d_4">
					<g>
						<g>
							<path id="mdad270ee8e_1_" stroke="#000000" stroke-width="0.5" stroke-linejoin="round" d="M164.304,44.28v4"/>
						</g>
					</g>
				</g>
				<g id="text_2">
					<g transform="translate(155.7586875 411.42625)scale(0.12 -0.12)">
						<g>
							<path id="BitstreamVeraSans-Roman-30_2_" d="M31.78,66.41c-5.07,0-8.891-2.506-11.45-7.503
								c-2.555-4.989-3.829-12.5-3.829-22.534c0-9.985,1.273-17.48,3.829-22.485c2.56-4.997,6.38-7.495,11.45-7.495
								c5.115,0,8.948,2.498,11.499,7.495c2.563,5.005,3.845,12.5,3.845,22.485c0,10.034-1.282,17.546-3.845,22.534
								C40.728,63.904,36.895,66.41,31.78,66.41 M31.78,74.222c8.179,0,14.425-3.239,18.734-9.708
								c4.313-6.454,6.47-15.837,6.47-28.141c0-12.272-2.157-21.639-6.47-28.109C46.205,1.81,39.958-1.42,31.78-1.42
								c-8.167,0-14.404,3.231-18.717,9.684c-4.313,6.47-6.47,15.836-6.47,28.109c0,12.305,2.157,21.688,6.47,28.141
								C17.375,70.984,23.613,74.222,31.78,74.222"/>
						</g>
						<g>
							<path id="BitstreamVeraSans-Roman-2e_1_" d="M74.309,12.406h10.315V0.004H74.309V12.406z"/>
						</g>
						<g>
							<path id="BitstreamVeraSans-Roman-32" d="M114.597,8.296h34.424V0.004h-46.281v8.293c3.74,3.874,8.838,9.074,15.295,15.593
								c6.47,6.535,10.531,10.75,12.187,12.638c3.157,3.548,5.359,6.543,6.612,9.001c1.257,2.458,1.888,4.875,1.888,7.251
								c0,3.874-1.359,7.031-4.077,9.473c-2.718,2.449-6.262,3.67-10.624,3.67c-3.097,0-6.36-0.537-9.798-1.611
								c-3.426-1.074-7.092-2.702-10.999-4.891v9.969c3.967,1.595,7.674,2.8,11.125,3.613c3.459,0.814,6.621,1.221,9.485,1.221
								c7.552,0,13.57-1.896,18.063-5.672c4.488-3.776,6.734-8.813,6.734-15.129c0-3.003-0.566-5.843-1.689-8.529
								c-1.115-2.677-3.157-5.843-6.124-9.489c-0.814-0.944-3.402-3.678-7.768-8.187C128.696,22.709,122.543,16.402,114.597,8.296"
								/>
						</g>
					</g>
				</g>
			</g>
			<g id="xtick_3">
				<g id="line2d_5">
					<g>
						<g>
							<path id="mcb557df647_2_" stroke="#000000" stroke-width="0.5" stroke-linejoin="round" d="M255.258,398.52v-4"/>
						</g>
					</g>
				</g>
				<g id="line2d_6">
					<g>
						<g>
							<path id="mdad270ee8e_2_" stroke="#000000" stroke-width="0.5" stroke-linejoin="round" d="M255.258,44.28v4"/>
						</g>
					</g>
				</g>
				<g id="text_3">
					<g transform="translate(246.4483125 411.42625)scale(0.12 -0.12)">
						<g>
							<path id="BitstreamVeraSans-Roman-30_3_" d="M31.783,66.41c-5.074,0-8.891-2.506-11.454-7.503
								c-2.551-4.989-3.829-12.5-3.829-22.534c0-9.985,1.278-17.48,3.829-22.485c2.563-4.997,6.38-7.495,11.454-7.495
								c5.115,0,8.948,2.498,11.499,7.495c2.563,5.005,3.845,12.5,3.845,22.485c0,10.034-1.282,17.546-3.845,22.534
								C40.73,63.904,36.897,66.41,31.783,66.41 M31.783,74.222c8.175,0,14.421-3.239,18.734-9.708
								c4.313-6.454,6.47-15.837,6.47-28.141c0-12.272-2.157-21.639-6.47-28.109C46.204,1.81,39.958-1.42,31.783-1.42
								c-8.167,0-14.408,3.231-18.721,9.684C8.748,14.734,6.596,24.1,6.596,36.373c0,12.305,2.152,21.688,6.466,28.141
								C17.375,70.984,23.616,74.222,31.783,74.222"/>
						</g>
						<g>
							<path id="BitstreamVeraSans-Roman-2e_2_" d="M74.312,12.406h10.311V0.004H74.312V12.406z"/>
						</g>
						<g>
							<path id="BitstreamVeraSans-Roman-34" d="M133.207,64.31l-24.906-38.916h24.906V64.31z M130.615,72.904h12.406v-47.51h10.404
								v-8.203h-10.404V0.004h-9.814v17.188h-32.906v9.513L130.615,72.904z"/>
						</g>
					</g>
				</g>
			</g>
			<g id="xtick_4">
				<g id="line2d_7">
					<g>
						<g>
							<path id="mcb557df647_3_" stroke="#000000" stroke-width="0.5" stroke-linejoin="round" d="M346.212,398.52v-4"/>
						</g>
					</g>
				</g>
				<g id="line2d_8">
					<g>
						<g>
							<path id="mdad270ee8e_3_" stroke="#000000" stroke-width="0.5" stroke-linejoin="round" d="M346.212,44.28v4"/>
						</g>
					</g>
				</g>
				<g id="text_4">
					<g transform="translate(337.4435625 411.42625)scale(0.12 -0.12)">
						<g>
							<path id="BitstreamVeraSans-Roman-30_4_" d="M31.786,66.41c-5.078,0-8.895-2.506-11.458-7.503
								c-2.556-4.989-3.825-12.5-3.825-22.534c0-9.985,1.27-17.48,3.825-22.485c2.563-4.997,6.38-7.495,11.458-7.495
								c5.11,0,8.943,2.498,11.491,7.495c2.571,5.005,3.849,12.5,3.849,22.485c0,10.034-1.277,17.546-3.849,22.534
								C40.729,63.904,36.896,66.41,31.786,66.41 M31.786,74.222c8.171,0,14.421-3.239,18.733-9.708
								c4.313-6.454,6.462-15.837,6.462-28.141c0-12.272-2.148-21.639-6.462-28.109C46.207,1.81,39.957-1.42,31.786-1.42
								S17.382,1.81,13.068,8.264C8.756,14.734,6.591,24.1,6.591,36.373c0,12.305,2.165,21.688,6.478,28.141
								C17.382,70.984,23.615,74.222,31.786,74.222"/>
						</g>
						<g>
							<path id="BitstreamVeraSans-Roman-2e_3_" d="M74.315,12.406h10.311V0.004H74.315V12.406z"/>
						</g>
						<g>
							<path id="BitstreamVeraSans-Roman-36" d="M128.425,40.376c-4.427,0-7.935-1.514-10.53-4.549
								c-2.58-3.019-3.874-7.17-3.874-12.435c0-5.241,1.294-9.391,3.874-12.443c2.596-3.036,6.104-4.557,10.53-4.557
								c4.428,0,7.935,1.522,10.522,4.557c2.58,3.052,3.874,7.202,3.874,12.443c0,5.265-1.294,9.416-3.874,12.435
								C136.359,38.863,132.853,40.376,128.425,40.376 M148.005,71.293v-8.984c-2.481,1.172-4.98,2.059-7.495,2.677
								c-2.522,0.627-5.029,0.936-7.503,0.936c-6.511,0-11.491-2.197-14.925-6.592c-3.427-4.395-5.388-11.035-5.876-19.922
								c1.921,2.832,4.329,5.005,7.227,6.51c2.897,1.514,6.096,2.271,9.57,2.271c7.324,0,13.11-2.222,17.366-6.673
								c4.248-4.435,6.372-10.482,6.372-18.124c0-7.495-2.213-13.501-6.641-18.034c-4.427-4.517-10.318-6.779-17.676-6.779
								c-8.438,0-14.884,3.231-19.344,9.684c-4.46,6.47-6.689,15.836-6.689,28.109c0,11.523,2.734,20.711,8.203,27.563
								s12.81,10.286,22.021,10.286c2.474,0,4.98-0.252,7.503-0.74C142.634,72.994,145.263,72.269,148.005,71.293"/>
						</g>
					</g>
				</g>
			</g>
			<g id="xtick_5">
				<g id="line2d_9">
					<g>
						<g>
							<path id="mcb557df647_4_" stroke="#000000" stroke-width="0.5" stroke-linejoin="round" d="M437.166,398.52v-4"/>
						</g>
					</g>
				</g>
				<g id="line2d_10">
					<g>
						<g>
							<path id="mdad270ee8e_4_" stroke="#000000" stroke-width="0.5" stroke-linejoin="round" d="M437.166,44.28v4"/>
						</g>
					</g>
				</g>
				<g id="text_5">
					<g transform="translate(428.430375 411.42625)scale(0.12 -0.12)">
						<g>
							<path id="BitstreamVeraSans-Roman-30_5_" d="M31.782,66.41c-5.07,0-8.887-2.506-11.45-7.503
								c-2.556-4.989-3.833-12.5-3.833-22.534c0-9.985,1.277-17.48,3.833-22.485c2.563-4.997,6.38-7.495,11.45-7.495
								c5.11,0,8.951,2.498,11.499,7.495c2.563,5.005,3.849,12.5,3.849,22.485c0,10.034-1.285,17.546-3.849,22.534
								C40.733,63.904,36.893,66.41,31.782,66.41 M31.782,74.222c8.179,0,14.42-3.239,18.733-9.708
								c4.313-6.454,6.47-15.837,6.47-28.141c0-12.272-2.156-21.639-6.47-28.109C46.202,1.81,39.961-1.42,31.782-1.42
								c-8.171,0-14.404,3.231-18.718,9.684c-4.313,6.47-6.47,15.836-6.47,28.109c0,12.305,2.156,21.688,6.47,28.141
								C17.378,70.984,23.611,74.222,31.782,74.222"/>
						</g>
						<g>
							<path id="BitstreamVeraSans-Roman-2e_4_" d="M74.312,12.406h10.311V0.004H74.312V12.406z"/>
						</g>
						<g>
							<path id="BitstreamVeraSans-Roman-38" d="M127.192,34.623c-4.688,0-8.374-1.253-11.06-3.76
								c-2.678-2.515-4.021-5.965-4.021-10.352c0-4.395,1.343-7.845,4.021-10.352c2.686-2.515,6.372-3.768,11.06-3.768
								s8.382,1.261,11.075,3.776c2.71,2.531,4.062,5.981,4.062,10.343c0,4.386-1.343,7.837-4.028,10.352
								C135.623,33.37,131.92,34.623,127.192,34.623 M117.329,38.814c-4.224,1.042-7.52,3.011-9.888,5.908
								c-2.353,2.905-3.532,6.437-3.532,10.604c0,5.827,2.075,10.433,6.218,13.818c4.158,3.385,9.847,5.078,17.065,5.078
								c7.259,0,12.955-1.693,17.09-5.078c4.142-3.385,6.209-7.991,6.209-13.818c0-4.167-1.188-7.698-3.548-10.604
								c-2.353-2.897-5.632-4.866-9.831-5.908c4.753-1.107,8.447-3.271,11.092-6.502c2.661-3.215,3.988-7.153,3.988-11.8
								c0-7.072-2.157-12.5-6.47-16.276c-4.313-3.776-10.49-5.656-18.53-5.656c-8.032,0-14.209,1.88-18.53,5.656
								c-4.313,3.776-6.47,9.204-6.47,16.276c0,4.647,1.334,8.586,4.004,11.8C108.865,35.542,112.584,37.707,117.329,38.814
								 M113.724,54.39c0-3.768,1.18-6.714,3.532-8.83c2.368-2.116,5.672-3.174,9.937-3.174c4.239,0,7.552,1.058,9.937,3.174
								c2.4,2.116,3.597,5.062,3.597,8.83c0,3.784-1.196,6.73-3.597,8.846c-2.385,2.116-5.697,3.174-9.937,3.174
								c-4.265,0-7.568-1.058-9.937-3.174C114.903,61.12,113.724,58.174,113.724,54.39"/>
						</g>
					</g>
				</g>
			</g>
			<g id="xtick_6">
				<g id="line2d_11">
					<g>
						<g>
							<path id="mcb557df647_5_" stroke="#000000" stroke-width="0.5" stroke-linejoin="round" d="M528.12,398.52v-4"/>
						</g>
					</g>
				</g>
				<g id="line2d_12">
					<g>
						<g>
							<path id="mdad270ee8e_5_" stroke="#000000" stroke-width="0.5" stroke-linejoin="round" d="M528.12,44.28v4"/>
						</g>
					</g>
				</g>
				<g id="text_6">
					<g transform="translate(519.635625 411.42625)scale(0.12 -0.12)">
						<g>
							<path id="BitstreamVeraSans-Roman-31" d="M12.403,8.296h16.113V63.92l-17.529-3.516v8.984l17.432,3.516h9.863V8.296h16.105
								V0.004H12.403V8.296z"/>
						</g>
						<g>
							<path id="BitstreamVeraSans-Roman-2e_5_" d="M74.31,12.406H84.62V0.004H74.31V12.406z"/>
						</g>
						<g>
							<path id="BitstreamVeraSans-Roman-30_6_" d="M127.19,66.41c-5.07,0-8.887-2.506-11.45-7.503
								c-2.556-4.989-3.833-12.5-3.833-22.534c0-9.985,1.277-17.48,3.833-22.485c2.563-4.997,6.38-7.495,11.45-7.495
								c5.119,0,8.952,2.498,11.499,7.495c2.563,5.005,3.85,12.5,3.85,22.485c0,10.034-1.286,17.546-3.85,22.534
								C136.143,63.904,132.31,66.41,127.19,66.41 M127.19,74.222c8.179,0,14.421-3.239,18.733-9.708
								c4.313-6.454,6.47-15.837,6.47-28.141c0-12.272-2.156-21.639-6.47-28.109C141.611,1.81,135.369-1.42,127.19-1.42
								c-8.162,0-14.404,3.231-18.718,9.684c-4.313,6.47-6.47,15.836-6.47,28.109c0,12.305,2.157,21.688,6.47,28.141
								C112.786,70.984,119.028,74.222,127.19,74.222"/>
						</g>
					</g>
				</g>
			</g>
		</g>
		<g id="matplotlib.axis_2">
			<g id="ytick_1">
				<g id="line2d_13">
					<g>
						<g>
							<path id="mc8fcea1516" stroke="#000000" stroke-width="0.5" stroke-linejoin="round" d="M73.35,398.52h4"/>
						</g>
					</g>
				</g>
				<g id="line2d_14">
					<g>
						<g>
							<path id="m0d5b0a6425" stroke="#000000" stroke-width="0.5" stroke-linejoin="round" d="M528.12,398.52h-4"/>
						</g>
					</g>
				</g>
				<g id="text_7">
					<g transform="translate(63.303125 402.8878125)scale(0.12 -0.12)">
						<g>
							<path id="BitstreamVeraSans-Roman-30_7_" d="M31.781,66.407c-5.07,0-8.891-2.499-11.45-7.503
								c-2.555-4.989-3.829-12.5-3.829-22.526c0-9.994,1.273-17.489,3.829-22.485c2.56-5.005,6.38-7.503,11.45-7.503
								c5.115,0,8.948,2.499,11.503,7.503c2.559,4.997,3.841,12.492,3.841,22.485c0,10.026-1.282,17.537-3.841,22.526
								C40.729,63.909,36.896,66.407,31.781,66.407 M31.781,74.22c8.179,0,14.425-3.239,18.738-9.701
								c4.309-6.461,6.466-15.845,6.466-28.141c0-12.272-2.157-21.647-6.466-28.109c-4.313-6.461-10.559-9.692-18.738-9.692
								c-8.167,0-14.404,3.231-18.717,9.692c-4.313,6.462-6.47,15.837-6.47,28.109c0,12.296,2.157,21.68,6.47,28.141
								C17.376,70.981,23.614,74.22,31.781,74.22"/>
						</g>
					</g>
				</g>
			</g>
			<g id="ytick_2">
				<g id="line2d_15">
					<g>
						<g>
							<path id="mc8fcea1516_1_" stroke="#000000" stroke-width="0.5" stroke-linejoin="round" d="M73.35,339.48h4"/>
						</g>
					</g>
				</g>
				<g id="line2d_16">
					<g>
						<g>
							<path id="m0d5b0a6425_1_" stroke="#000000" stroke-width="0.5" stroke-linejoin="round" d="M528.12,339.48h-4"/>
						</g>
					</g>
				</g>
				<g id="text_8">
					<g transform="translate(64.14125 343.854375)scale(0.12 -0.12)">
						<g>
							<path id="BitstreamVeraSans-Roman-31_1_" d="M12.406,8.3h16.109v55.623l-17.529-3.516v8.984l17.436,3.516h9.859V8.3h16.109
								v-8.301H12.406V8.3z"/>
						</g>
					</g>
				</g>
			</g>
			<g id="ytick_3">
				<g id="line2d_17">
					<g>
						<g>
							<path id="mc8fcea1516_2_" stroke="#000000" stroke-width="0.5" stroke-linejoin="round" d="M73.35,280.439h4"/>
						</g>
					</g>
				</g>
				<g id="line2d_18">
					<g>
						<g>
							<path id="m0d5b0a6425_2_" stroke="#000000" stroke-width="0.5" stroke-linejoin="round" d="M528.12,280.439h-4"/>
						</g>
					</g>
				</g>
				<g id="text_9">
					<g transform="translate(63.79625 284.893125)scale(0.12 -0.12)">
						<g>
							<path id="BitstreamVeraSans-Roman-32_1_" d="M19.188,8.297h34.424V0.005H7.331v8.292c3.739,3.874,8.838,9.074,15.295,15.592
								c6.47,6.535,10.531,10.75,12.187,12.639c3.158,3.548,5.359,6.543,6.612,9c1.257,2.458,1.888,4.883,1.888,7.251
								c0,3.882-1.359,7.031-4.077,9.464c-2.718,2.458-6.262,3.679-10.625,3.679c-3.092,0-6.36-0.537-9.798-1.611
								c-3.426-1.074-7.092-2.702-10.999-4.891v9.969c3.967,1.595,7.678,2.799,11.125,3.613c3.458,0.813,6.62,1.221,9.485,1.221
								c7.552,0,13.57-1.896,18.063-5.681c4.488-3.768,6.734-8.805,6.734-15.12c0-3.003-0.562-5.843-1.688-8.529
								c-1.115-2.686-3.158-5.843-6.124-9.489c-0.813-0.944-3.401-3.679-7.768-8.187C33.287,22.71,27.139,16.403,19.188,8.297"/>
						</g>
					</g>
				</g>
			</g>
			<g id="ytick_4">
				<g id="line2d_19">
					<g>
						<g>
							<path id="mc8fcea1516_3_" stroke="#000000" stroke-width="0.5" stroke-linejoin="round" d="M73.35,221.4h4"/>
						</g>
					</g>
				</g>
				<g id="line2d_20">
					<g>
						<g>
							<path id="m0d5b0a6425_3_" stroke="#000000" stroke-width="0.5" stroke-linejoin="round" d="M528.12,221.4h-4"/>
						</g>
					</g>
				</g>
				<g id="text_10">
					<g transform="translate(63.591875 225.7678125)scale(0.12 -0.12)">
						<g>
							<path id="BitstreamVeraSans-Roman-33" d="M40.582,39.313c4.716-1.009,8.398-3.113,11.047-6.311
								c2.653-3.19,3.984-7.129,3.984-11.816c0-7.186-2.474-12.752-7.422-16.699c-4.948-3.939-11.979-5.908-21.094-5.908
								c-3.052,0-6.197,0.301-9.44,0.903C14.418,0.084,11.073,0.996,7.627,2.2v9.521c2.73-1.595,5.721-2.799,8.968-3.613
								c3.264-0.813,6.669-1.221,10.222-1.221c6.177,0,10.884,1.221,14.124,3.662c3.239,2.434,4.858,5.981,4.858,10.637
								c0,4.305-1.506,7.658-4.517,10.083c-3.007,2.425-7.198,3.638-12.561,3.638h-8.5v8.109h8.891
								c4.842,0,8.553,0.968,11.125,2.905s3.861,4.732,3.861,8.378c0,3.735-1.331,6.608-3.987,8.606
								c-2.645,2.01-6.441,3.015-11.389,3.015c-2.71,0-5.607-0.293-8.704-0.887c-3.093-0.586-6.494-1.489-10.201-2.722v8.785
								c3.748,1.042,7.259,1.823,10.531,2.344c3.271,0.521,6.352,0.781,9.249,0.781c7.491,0,13.412-1.705,17.766-5.11
								c4.366-3.398,6.547-7.992,6.547-13.782c0-4.041-1.156-7.455-3.467-10.234C48.125,42.312,44.842,40.388,40.582,39.313"/>
						</g>
					</g>
				</g>
			</g>
			<g id="ytick_5">
				<g id="line2d_21">
					<g>
						<g>
							<path id="mc8fcea1516_4_" stroke="#000000" stroke-width="0.5" stroke-linejoin="round" d="M73.35,162.36h4"/>
						</g>
					</g>
				</g>
				<g id="line2d_22">
					<g>
						<g>
							<path id="m0d5b0a6425_4_" stroke="#000000" stroke-width="0.5" stroke-linejoin="round" d="M528.12,162.36h-4"/>
						</g>
					</g>
				</g>
				<g id="text_11">
					<g transform="translate(62.975 166.734375)scale(0.12 -0.12)">
						<g>
							<path id="BitstreamVeraSans-Roman-34_1_" d="M37.8,64.316L12.894,25.392H37.8V64.316z M35.204,72.906H47.61V25.392h10.409
								v-8.203H47.61V0.001H37.8v17.188H4.894v9.514L35.204,72.906z"/>
						</g>
					</g>
				</g>
			</g>
			<g id="ytick_6">
				<g id="line2d_23">
					<g>
						<g>
							<path id="mc8fcea1516_5_" stroke="#000000" stroke-width="0.5" stroke-linejoin="round" d="M73.35,103.32h4"/>
						</g>
					</g>
				</g>
				<g id="line2d_24">
					<g>
						<g>
							<path id="m0d5b0a6425_5_" stroke="#000000" stroke-width="0.5" stroke-linejoin="round" d="M528.12,103.32h-4"/>
						</g>
					</g>
				</g>
				<g id="text_12">
					<g transform="translate(63.689375 107.6090625)scale(0.12 -0.12)">
						<g>
							<path id="BitstreamVeraSans-Roman-35" d="M10.798,72.908h38.721v-8.313H19.831V46.736c1.428,0.488,2.853,0.854,4.281,1.094
								c1.436,0.24,2.876,0.358,4.313,0.358c8.134,0,14.579-2.23,19.328-6.686c4.761-4.459,7.141-10.498,7.141-18.111
								c0-7.845-2.441-13.944-7.328-18.298c-4.887-4.341-11.771-6.514-20.658-6.514c-3.06,0-6.181,0.26-9.359,0.781
								c-3.166,0.521-6.441,1.302-9.827,2.344v9.924c2.926-1.595,5.953-2.783,9.078-3.564s6.425-1.172,9.904-1.172
								c5.636,0,10.095,1.481,13.379,4.439c3.288,2.958,4.936,6.979,4.936,12.061c0,5.074-1.648,9.09-4.936,12.048
								c-3.284,2.966-7.743,4.452-13.379,4.452c-2.633,0-5.265-0.293-7.89-0.875c-2.612-0.582-5.286-1.493-8.016-2.734V72.908z"/>
						</g>
					</g>
				</g>
			</g>
			<g id="ytick_7">
				<g id="line2d_25">
					<g>
						<g>
							<path id="mc8fcea1516_6_" stroke="#000000" stroke-width="0.5" stroke-linejoin="round" d="M73.35,44.28h4"/>
						</g>
					</g>
				</g>
				<g id="line2d_26">
					<g>
						<g>
							<path id="m0d5b0a6425_6_" stroke="#000000" stroke-width="0.5" stroke-linejoin="round" d="M528.12,44.28h-4"/>
						</g>
					</g>
				</g>
				<g id="text_13">
					<g transform="translate(63.30875 48.6478125)scale(0.12 -0.12)">
						<g>
							<path id="BitstreamVeraSans-Roman-36_1_" d="M33.017,40.377c-4.427,0-7.935-1.518-10.53-4.549
								c-2.584-3.02-3.874-7.166-3.874-12.435c0-5.241,1.29-9.387,3.874-12.439c2.596-3.04,6.104-4.562,10.53-4.562
								c4.427,0,7.935,1.522,10.519,4.562c2.584,3.052,3.874,7.198,3.874,12.439c0,5.27-1.29,9.416-3.874,12.435
								C40.952,38.86,37.444,40.377,33.017,40.377 M52.597,71.298v-8.984c-2.482,1.168-4.98,2.059-7.499,2.673
								c-2.523,0.623-5.021,0.936-7.503,0.936c-6.51,0-11.482-2.197-14.921-6.592c-3.426-4.398-5.383-11.039-5.875-19.922
								c1.917,2.832,4.325,5.005,7.218,6.515c2.909,1.509,6.1,2.266,9.579,2.266c7.324,0,13.11-2.226,17.362-6.673
								c4.248-4.436,6.372-10.478,6.372-18.124c0-7.491-2.213-13.501-6.641-18.034c-4.427-4.521-10.315-6.779-17.672-6.779
								c-8.435,0-14.884,3.227-19.344,9.688c-4.456,6.466-6.686,15.836-6.686,28.109c0,11.519,2.734,20.707,8.203,27.559
								C20.66,70.793,27.996,74.22,37.204,74.22c2.482,0,4.98-0.244,7.503-0.732C47.226,72.995,49.855,72.267,52.597,71.298"/>
						</g>
					</g>
				</g>
			</g>
		</g>
		<g id="patch_53">
			<path fill="none" stroke="#000000" stroke-linecap="square" stroke-linejoin="round" d="M73.35,44.28h454.77"/>
		</g>
		<g id="patch_54">
			<path fill="none" stroke="#000000" stroke-linecap="square" stroke-linejoin="round" d="M528.12,398.519V44.28"/>
		</g>
		<g id="patch_55">
			<path fill="none" stroke="#000000" stroke-linecap="square" stroke-linejoin="round" d="M73.35,398.519h454.77"/>
		</g>
		<g id="patch_56">
			<path fill="none" stroke="#000000" stroke-linecap="square" stroke-linejoin="round" d="M73.35,398.519V44.28"/>
		</g>
		<g id="text_14">
			<g transform="translate(212.38425 39.28)scale(0.144 -0.144)">
				<g>
					<path id="BitstreamVeraSans-Roman-50" d="M19.673,64.799V37.408H32.08c4.595,0,8.142,1.187,10.641,3.564
						c2.513,2.374,3.767,5.761,3.767,10.155c0,4.364-1.254,7.735-3.767,10.108c-2.499,2.377-6.046,3.563-10.641,3.563H19.673z
						 M9.816,72.907H32.08c8.179,0,14.354-1.848,18.531-5.544c4.188-3.699,6.283-9.111,6.283-16.235
						c0-7.199-2.096-12.634-6.283-16.313c-4.178-3.675-10.353-5.517-18.531-5.517H19.673V0H9.816V72.907z"/>
				</g>
				<g>
					<path id="BitstreamVeraSans-Roman-2d" d="M62.947,31.393H89.26v-7.999H62.947V31.393z"/>
				</g>
				<g>
					<path id="BitstreamVeraSans-Roman-74" d="M112.453,70.221V54.688h18.5v-6.982h-18.5V18.02c0-4.459,0.607-7.324,1.828-8.596
						c1.217-1.271,3.703-1.905,7.453-1.905h9.22V0h-9.22c-6.938,0-11.726,1.292-14.36,3.875c-2.635,2.594-3.954,7.308-3.954,14.144
						v29.687h-6.592v6.982h6.592v15.533H112.453z"/>
				</g>
				<g>
					<path id="BitstreamVeraSans-Roman-65" d="M189.551,29.596v-4.391H148.24c0.394-6.188,2.258-10.901,5.591-14.14
						c3.333-3.238,7.979-4.859,13.94-4.859c3.445,0,6.792,0.42,10.03,1.265c3.238,0.845,6.459,2.116,9.657,3.815V2.784
						c-3.232-1.366-6.538-2.407-9.922-3.126c-3.387-0.719-6.819-1.078-10.298-1.078c-8.728,0-15.642,2.537-20.735,7.609
						c-5.093,5.083-7.639,11.96-7.639,20.627c0,8.948,2.417,16.045,7.25,21.294c4.832,5.262,11.356,7.894,19.562,7.894
						c7.355,0,13.174-2.37,17.453-7.11C187.411,44.163,189.551,37.73,189.551,29.596 M180.568,32.237
						c-0.064,4.906-1.438,8.823-4.126,11.749c-2.689,2.937-6.243,4.408-10.671,4.408c-5.012,0-9.02-1.417-12.031-4.252
						c-3.011-2.835-4.747-6.823-5.205-11.97L180.568,32.237z"/>
				</g>
				<g>
					<path id="BitstreamVeraSans-Roman-73" d="M239.152,53.081v-8.5c-2.53,1.302-5.165,2.275-7.904,2.923
						c-2.729,0.654-5.564,0.983-8.501,0.983c-4.459,0-7.802-0.682-10.03-2.045c-2.231-1.367-3.347-3.418-3.347-6.158
						c0-2.082,0.8-3.72,2.394-4.907c1.594-1.187,4.802-2.316,9.624-3.391l3.079-0.688c6.375-1.363,10.905-3.289,13.594-5.781
						c2.686-2.489,4.032-5.961,4.032-10.42c0-5.083-2.011-9.111-6.032-12.079c-4.021-2.96-9.545-4.438-16.578-4.438
						c-2.926,0-5.981,0.288-9.155,0.861c-3.177,0.573-6.524,1.428-10.034,2.56v9.284c3.323-1.729,6.595-3.028,9.813-3.893
						c3.218-0.854,6.412-1.282,9.58-1.282c4.228,0,7.48,0.726,9.749,2.173c2.282,1.448,3.421,3.489,3.421,6.124
						c0,2.438-0.821,4.306-2.469,5.608c-1.634,1.302-5.239,2.56-10.81,3.767l-3.126,0.732c-5.561,1.167-9.583,2.964-12.065,5.392
						c-2.468,2.428-3.703,5.758-3.703,9.986c0,5.144,1.824,9.115,5.469,11.905c3.646,2.801,8.823,4.205,15.534,4.205
						c3.31,0,6.429-0.248,9.358-0.736C233.981,54.79,236.684,54.061,239.152,53.081"/>
				</g>
				<g>
					<path id="BitstreamVeraSans-Roman-74_1_" d="M265.285,70.221V54.688h18.5v-6.982h-18.5V18.02c0-4.459,0.607-7.324,1.828-8.596
						c1.218-1.271,3.703-1.905,7.453-1.905h9.22V0h-9.22c-6.938,0-11.726,1.292-14.36,3.875c-2.635,2.594-3.954,7.308-3.954,14.144
						v29.687h-6.592v6.982h6.592v15.533H265.285z"/>
				</g>
				<g>
					<path id="BitstreamVeraSans-Roman-20" d="M286.18,0"/>
				</g>
				<g>
					<path id="BitstreamVeraSans-Roman-66" d="M355.078,75.986v-7.483h-8.596c-3.218,0-5.459-0.651-6.717-1.953
						c-1.251-1.302-1.875-3.646-1.875-7.033v-4.829h14.797v-6.982H337.89V0h-9.033v47.706h-8.592v6.982h8.592v3.814
						c0,6.083,1.417,10.515,4.252,13.296c2.832,2.794,7.321,4.188,13.469,4.188H355.078z"/>
				</g>
				<g>
					<path id="BitstreamVeraSans-Roman-6f" d="M383.782,48.395c-4.812,0-8.62-1.882-11.42-5.643
						c-2.804-3.76-4.205-8.911-4.205-15.452c0-6.541,1.39-11.695,4.171-15.456c2.794-3.761,6.612-5.639,11.454-5.639
						c4.791,0,8.582,1.885,11.376,5.656c2.801,3.781,4.201,8.928,4.201,15.438c0,6.479-1.4,11.613-4.201,15.404
						C392.364,46.496,388.573,48.395,383.782,48.395 M383.782,56.003c7.813,0,13.95-2.543,18.405-7.626
						c4.469-5.073,6.704-12.099,6.704-21.077c0-8.949-2.235-15.975-6.704-21.081c-4.456-5.093-10.593-7.64-18.405-7.64
						c-7.843,0-13.991,2.546-18.436,7.64c-4.438,5.106-6.656,12.132-6.656,21.081c0,8.979,2.218,16.004,6.656,21.077
						C369.791,53.46,375.938,56.003,383.782,56.003"/>
				</g>
				<g>
					<path id="BitstreamVeraSans-Roman-72" d="M455.464,46.299c-1.011,0.583-2.109,1.011-3.296,1.282
						c-1.19,0.282-2.496,0.42-3.923,0.42c-5.083,0-8.986-1.651-11.702-4.95c-2.72-3.303-4.08-8.05-4.08-14.235V0h-9.03v54.688h9.03
						V46.19c1.896,3.323,4.354,5.785,7.375,7.389c3.031,1.618,6.714,2.424,11.047,2.424c0.613,0,1.295-0.044,2.044-0.125
						c0.753-0.074,1.58-0.193,2.485-0.359L455.464,46.299z"/>
				</g>
				<g>
					<path id="BitstreamVeraSans-Roman-20_1_" d="M455.467,0"/>
				</g>
				<g>
					<path id="BitstreamVeraSans-Roman-6c" d="M496.676,75.986h8.986V0h-8.986V75.986z"/>
				</g>
				<g>
					<path id="BitstreamVeraSans-Roman-6f_1_" d="M545.647,48.395c-4.812,0-8.62-1.882-11.42-5.643
						c-2.804-3.76-4.205-8.911-4.205-15.452c0-6.541,1.39-11.695,4.171-15.456c2.794-3.761,6.612-5.639,11.454-5.639
						c4.792,0,8.582,1.885,11.376,5.656c2.801,3.781,4.201,8.928,4.201,15.438c0,6.479-1.4,11.613-4.201,15.404
						C554.229,46.496,550.438,48.395,545.647,48.395 M545.647,56.003c7.813,0,13.95-2.543,18.405-7.626
						c4.469-5.073,6.701-12.099,6.701-21.077c0-8.949-2.231-15.975-6.701-21.081c-4.456-5.093-10.593-7.64-18.405-7.64
						c-7.843,0-13.991,2.546-18.436,7.64c-4.438,5.106-6.656,12.132-6.656,21.081c0,8.979,2.218,16.004,6.656,21.077
						C531.656,53.46,537.804,56.003,545.647,56.003"/>
				</g>
				<g>
					<path id="BitstreamVeraSans-Roman-77" d="M580.423,54.688h8.979l11.237-42.67l11.169,42.67h10.6l11.237-42.67l11.183,42.67
						h8.986L639.505,0h-10.6l-11.766,44.83L605.326,0h-10.606L580.423,54.688z"/>
				</g>
				<g>
					<path id="BitstreamVeraSans-Roman-65_1_" d="M714.212,29.596v-4.391h-41.314c0.394-6.188,2.258-10.901,5.588-14.14
						c3.336-3.238,7.982-4.859,13.943-4.859c3.445,0,6.795,0.42,10.03,1.265c3.235,0.845,6.463,2.116,9.657,3.815V2.784
						c-3.235-1.366-6.538-2.407-9.922-3.126c-3.391-0.719-6.822-1.078-10.294-1.078c-8.735,0-15.646,2.537-20.738,7.609
						c-5.093,5.083-7.636,11.96-7.636,20.627c0,8.948,2.414,16.045,7.243,21.294c4.835,5.262,11.359,7.894,19.565,7.894
						c7.358,0,13.177-2.37,17.45-7.11C712.069,44.163,714.212,37.73,714.212,29.596 M705.227,32.237
						c-0.061,4.906-1.438,8.823-4.13,11.749c-2.686,2.937-6.239,4.408-10.667,4.408c-5.012,0-9.02-1.417-12.031-4.252
						c-3.011-2.835-4.747-6.823-5.202-11.97L705.227,32.237z"/>
				</g>
				<g>
					<path id="BitstreamVeraSans-Roman-72_1_" d="M760.64,46.299c-1.011,0.583-2.109,1.011-3.296,1.282
						c-1.194,0.282-2.496,0.42-3.92,0.42c-5.086,0-8.993-1.651-11.705-4.95c-2.72-3.303-4.083-8.05-4.083-14.235V0h-9.027v54.688
						h9.027V46.19c1.898,3.323,4.354,5.785,7.378,7.389c3.031,1.618,6.714,2.424,11.047,2.424c0.617,0,1.295-0.044,2.041-0.125
						c0.76-0.074,1.587-0.193,2.489-0.359L760.64,46.299z"/>
				</g>
				<g>
					<path id="BitstreamVeraSans-Roman-20_2_" d="M760.64,0"/>
				</g>
				<g>
					<path id="BitstreamVeraSans-Roman-65_2_" d="M848.632,29.596v-4.391h-41.307c0.393-6.188,2.258-10.901,5.588-14.14
						c3.337-3.238,7.982-4.859,13.943-4.859c3.445,0,6.789,0.42,10.023,1.265c3.241,0.845,6.463,2.116,9.657,3.815V2.784
						c-3.228-1.366-6.538-2.407-9.915-3.126c-3.391-0.719-6.822-1.078-10.301-1.078c-8.728,0-15.639,2.537-20.732,7.609
						c-5.1,5.083-7.643,11.96-7.643,20.627c0,8.948,2.421,16.045,7.25,21.294c4.835,5.262,11.353,7.894,19.565,7.894
						c7.352,0,13.17-2.37,17.449-7.11C846.496,44.163,848.632,37.73,848.632,29.596 M839.646,32.237
						c-0.061,4.906-1.438,8.823-4.123,11.749c-2.686,2.937-6.239,4.408-10.674,4.408c-5.005,0-9.02-1.417-12.031-4.252
						c-3.011-2.835-4.741-6.823-5.202-11.97L839.646,32.237z"/>
				</g>
				<g>
					<path id="BitstreamVeraSans-Roman-73_1_" d="M898.233,53.081v-8.5c-2.529,1.302-5.161,2.275-7.9,2.923
						c-2.733,0.654-5.568,0.983-8.504,0.983c-4.462,0-7.799-0.682-10.03-2.045c-2.231-1.367-3.343-3.418-3.343-6.158
						c0-2.082,0.8-3.72,2.387-4.907c1.601-1.187,4.801-2.316,9.63-3.391l3.079-0.688c6.375-1.363,10.905-3.289,13.59-5.781
						c2.686-2.489,4.028-5.961,4.028-10.42c0-5.083-2.007-9.111-6.029-12.079c-4.021-2.96-9.542-4.438-16.581-4.438
						c-2.923,0-5.975,0.288-9.155,0.861c-3.174,0.573-6.518,1.428-10.03,2.56v9.284c3.323-1.729,6.599-3.028,9.813-3.893
						c3.221-0.854,6.416-1.282,9.576-1.282c4.232,0,7.487,0.726,9.752,2.173c2.278,1.448,3.424,3.489,3.424,6.124
						c0,2.438-0.82,4.306-2.468,5.608c-1.634,1.302-5.242,2.56-10.817,3.767l-3.12,0.732c-5.561,1.167-9.589,2.964-12.064,5.392
						c-2.469,2.428-3.703,5.758-3.703,9.986c0,5.144,1.824,9.115,5.466,11.905c3.648,2.801,8.823,4.205,15.537,4.205
						c3.31,0,6.429-0.248,9.359-0.736C893.059,54.79,895.765,54.061,898.233,53.081"/>
				</g>
				<g>
					<path id="BitstreamVeraSans-Roman-74_2_" d="M924.363,70.221V54.688h18.5v-6.982h-18.5V18.02c0-4.459,0.61-7.324,1.831-8.596
						c1.221-1.271,3.703-1.905,7.453-1.905h9.216V0h-9.216c-6.938,0-11.726,1.292-14.357,3.875c-2.638,2.594-3.96,7.308-3.96,14.144
						v29.687h-6.592v6.982h6.592v15.533H924.363z"/>
				</g>
				<g>
					<path id="BitstreamVeraSans-Roman-69" d="M954.684,54.688h8.986V0h-8.986V54.688z M954.684,75.986h8.986v-11.39h-8.986V75.986z
						"/>
				</g>
				<g>
					<path id="BitstreamVeraSans-Roman-6d" d="M1025.044,44.19c2.251,4.042,4.937,7.019,8.063,8.938
						c3.126,1.916,6.802,2.875,11.034,2.875c5.696,0,10.091-1.997,13.184-5.985c3.092-3.98,4.639-9.647,4.639-17.001V0h-9.026
						v32.722c0,5.239-0.929,9.125-2.801,11.654c-1.852,2.543-4.68,3.814-8.478,3.814c-4.659,0-8.341-1.549-11.054-4.642
						c-2.699-3.082-4.042-7.297-4.042-12.641V0h-9.033v32.722c0,5.269-0.922,9.166-2.781,11.685
						c-1.858,2.523-4.72,3.784-8.599,3.784c-4.584,0-8.24-1.553-10.945-4.659c-2.699-3.103-4.049-7.311-4.049-12.625V0h-9.033
						v54.688h9.033V46.19c2.055,3.354,4.51,5.826,7.372,7.419c2.869,1.597,6.266,2.394,10.207,2.394
						c3.981,0,7.358-1.01,10.139-3.031C1021.653,50.961,1023.715,48.035,1025.044,44.19"/>
				</g>
				<g>
					<path id="BitstreamVeraSans-Roman-61" d="M1104.743,27.487c-7.263,0-12.295-0.828-15.096-2.486
						c-2.808-1.655-4.205-4.489-4.205-8.5c0-3.188,1.051-5.717,3.16-7.592c2.103-1.865,4.951-2.797,8.559-2.797
						c4.991,0,8.993,1.767,12.003,5.296c3.011,3.533,4.517,8.226,4.517,14.079v2.001H1104.743z M1122.66,31.207V0h-8.979v8.297
						c-2.055-3.313-4.611-5.761-7.677-7.341c-3.065-1.583-6.809-2.377-11.23-2.377c-5.602,0-10.05,1.573-13.36,4.72
						c-3.31,3.143-4.958,7.354-4.958,12.624c0,6.144,2.055,10.783,6.178,13.906c4.124,3.126,10.268,4.689,18.433,4.689h12.614v0.889
						c0,4.137-1.363,7.334-4.083,9.596c-2.719,2.258-6.538,3.391-11.454,3.391c-3.126,0-6.171-0.376-9.135-1.126
						c-2.964-0.752-5.805-1.875-8.532-3.377v8.314c3.276,1.271,6.463,2.217,9.563,2.841c3.092,0.638,6.104,0.956,9.026,0.956
						c7.914,0,13.828-2.055,17.734-6.158C1120.707,45.753,1122.66,39.538,1122.66,31.207"/>
				</g>
				<g>
					<path id="BitstreamVeraSans-Roman-74_3_" d="M1150.051,70.221V54.688h18.5v-6.982h-18.5V18.02c0-4.459,0.604-7.324,1.824-8.596
						c1.221-1.271,3.703-1.905,7.459-1.905h9.216V0h-9.216c-6.944,0-11.732,1.292-14.363,3.875
						c-2.631,2.594-3.954,7.308-3.954,14.144v29.687h-6.592v6.982h6.592v15.533H1150.051z"/>
				</g>
				<g>
					<path id="BitstreamVeraSans-Roman-65_3_" d="M1227.152,29.596v-4.391h-41.314c0.394-6.188,2.258-10.901,5.588-14.14
						c3.336-3.238,7.982-4.859,13.943-4.859c3.445,0,6.795,0.42,10.03,1.265c3.235,0.845,6.463,2.116,9.657,3.815V2.784
						c-3.235-1.366-6.538-2.407-9.922-3.126c-3.391-0.719-6.822-1.078-10.294-1.078c-8.735,0-15.646,2.537-20.738,7.609
						c-5.093,5.083-7.636,11.96-7.636,20.627c0,8.948,2.414,16.045,7.243,21.294c4.835,5.262,11.359,7.894,19.565,7.894
						c7.358,0,13.177-2.37,17.449-7.11C1225.009,44.163,1227.152,37.73,1227.152,29.596 M1218.167,32.237
						c-0.061,4.906-1.438,8.823-4.13,11.749c-2.686,2.937-6.239,4.408-10.667,4.408c-5.012,0-9.02-1.417-12.031-4.252
						c-3.011-2.835-4.747-6.823-5.202-11.97L1218.167,32.237z"/>
				</g>
			</g>
		</g>
	</g>
</g>
</svg>
