<?xml version="1.0" encoding="utf-8"?>
<!-- Generator: Adobe Illustrator 16.0.0, SVG Export Plug-In . SVG Version: 6.00 Build 0)  -->
<!DOCTYPE svg PUBLIC "-//W3C//DTD SVG 1.1//EN" "http://www.w3.org/Graphics/SVG/1.1/DTD/svg11.dtd">
<svg version="1.1" id="Layer_1" xmlns="http://www.w3.org/2000/svg" xmlns:xlink="http://www.w3.org/1999/xlink" x="0px" y="0px"
	 width="586px" height="442px" viewBox="0 0 586 442" enable-background="new 0 0 586 442" xml:space="preserve">
<g id="figure_1">
	<g id="patch_1">
		<path fill="#FFFFFF" d="M0,442.8h586.8V0H0V442.8z"/>
	</g>
	<g id="axes_1">
		<g id="patch_2">
			<path fill="#FFFFFF" d="M73.35,398.52h454.77V44.28H73.35V398.52z"/>
		</g>
		<g id="line2d_1">
			<g>
				<defs>
					<rect id="SVGID_1_" x="73.35" y="44.28" width="454.77" height="354.239"/>
				</defs>
				<clipPath id="SVGID_2_">
					<use xlink:href="#SVGID_1_"  overflow="visible"/>
				</clipPath>
				
					<path clip-path="url(#SVGID_2_)" fill="none" stroke="#FF0000" stroke-width="2" stroke-linecap="square" stroke-linejoin="round" d="
					M73.35,90.683l7.58,31.65l7.579,28.598l7.58,25.728l7.58,23.045l7.58,20.552l7.579,18.249l7.58,16.14l7.579,14.215l7.58,12.479
					l7.579,10.918l7.58,9.527l7.579,8.296l7.58,7.212l7.579,6.262l7.58,5.437l7.579,4.718l7.58,4.099l7.579,3.563l7.58,3.104
					l7.579,2.707l7.58,2.367l7.579,2.074l7.58,1.822l7.579,1.605l7.58,1.419l7.579,1.258l7.58,1.118l7.579,0.996l7.58,0.893
					l7.578,0.799l7.58,0.72l7.58,0.649l7.58,0.587l7.578,0.533l7.58,0.484l7.579,0.442l7.58,0.405l7.579,0.369l7.58,0.342
					l7.579,0.313l7.579,0.29l7.58,0.268l7.58,0.249l7.578,0.231l7.58,0.215l7.579,0.2l7.58,0.187l7.579,0.176l7.58,0.164
					l7.579,0.153l7.58,0.146l7.579,0.137l7.58,0.128l7.578,0.121l7.58,0.115l7.579,0.108l7.58,0.104l7.579,0.097l7.58,0.093
					l7.579,0.088"/>
			</g>
		</g>
		<g id="line2d_2">
			<g>
				<defs>
					<rect id="SVGID_3_" x="73.35" y="44.28" width="454.77" height="354.239"/>
				</defs>
				<clipPath id="SVGID_4_">
					<use xlink:href="#SVGID_3_"  overflow="visible"/>
				</clipPath>
				
					<path clip-path="url(#SVGID_4_)" fill="none" stroke="#FF0000" stroke-width="2" stroke-linecap="square" stroke-linejoin="round" d="
					M73.35,117.273l7.58,29.975l7.579,26.765l7.58,23.808l7.58,21.099l7.58,18.629l7.579,16.393l7.58,14.377l7.579,12.574
					l7.58,10.971l7.579,9.55l7.58,8.303l7.579,7.21l7.58,6.257l7.579,5.432l7.58,4.715l7.579,4.098l7.58,3.567l7.579,3.109
					l7.58,2.716l7.579,2.378l7.58,2.087l7.579,1.836l7.58,1.621l7.579,1.434l7.58,1.273l7.579,1.133l7.58,1.012l7.579,0.907
					l7.58,0.813l7.578,0.734l7.58,0.662l7.58,0.6l7.58,0.545l7.578,0.496l7.58,0.453l7.579,0.414l7.58,0.381l7.579,0.35l7.58,0.322
					l7.579,0.298l7.579,0.275l7.58,0.255l7.58,0.237l7.578,0.221l7.58,0.206l7.579,0.193l7.58,0.18l7.579,0.169l7.58,0.158
					l7.579,0.149l7.58,0.14l7.579,0.132l7.58,0.125l7.578,0.118l7.58,0.111l7.579,0.105l7.58,0.101l7.579,0.095l7.58,0.091
					l7.579,0.086"/>
			</g>
		</g>
		<g id="line2d_3">
			<g>
				<defs>
					<rect id="SVGID_5_" x="73.35" y="44.28" width="454.77" height="354.239"/>
				</defs>
				<clipPath id="SVGID_6_">
					<use xlink:href="#SVGID_5_"  overflow="visible"/>
				</clipPath>
				
					<path clip-path="url(#SVGID_6_)" fill="none" stroke="#000000" stroke-width="2" stroke-linecap="square" stroke-linejoin="round" d="
					M73.35,96.081l7.58,32.953l7.579,29.491l7.58,26.27l7.58,23.292l7.58,20.558l7.579,18.067l7.58,15.813l7.579,13.791l7.58,11.986
					l7.579,10.391l7.58,8.988l7.579,7.764l7.58,6.699l7.579,5.779l7.58,4.988l7.579,4.308l7.58,3.727l7.579,3.229l7.58,2.804
					l7.579,2.44l7.58,2.131l7.579,1.866l7.58,1.638l7.579,1.444l7.58,1.276l7.579,1.131l7.58,1.007l7.579,0.898l7.58,0.806
					l7.578,0.723l7.58,0.651l7.58,0.589l7.58,0.534l7.578,0.484l7.58,0.442l7.579,0.404l7.58,0.371l7.579,0.34l7.58,0.313
					l7.579,0.289l7.579,0.268l7.58,0.247l7.58,0.23l7.578,0.214l7.58,0.2l7.579,0.186l7.58,0.175l7.579,0.164l7.58,0.152
					l7.579,0.145l7.58,0.135l7.579,0.128l7.58,0.121l7.578,0.114l7.58,0.106l7.579,0.104l7.58,0.096l7.579,0.092l7.58,0.088
					l7.579,0.083"/>
			</g>
		</g>
		<g id="matplotlib.axis_1">
			<g id="xtick_1">
				<g id="line2d_4">
					<g>
						<g>
							<path id="mcb557df647" stroke="#000000" stroke-width="0.5" stroke-linejoin="round" d="M73.35,398.52v-4"/>
						</g>
					</g>
				</g>
				<g id="line2d_5">
					<g>
						<g>
							<path id="mdad270ee8e" stroke="#000000" stroke-width="0.5" stroke-linejoin="round" d="M73.35,44.28v4"/>
						</g>
					</g>
				</g>
				<g id="text_1">
					<g transform="translate(64.6021875 411.42625)scale(0.12 -0.12)">
						<g>
							<path id="BitstreamVeraSans-Roman-30" d="M31.782,66.41c-5.074,0-8.891-2.506-11.454-7.503
								c-2.551-4.989-3.829-12.5-3.829-22.534c0-9.985,1.278-17.48,3.829-22.485c2.563-4.997,6.38-7.495,11.454-7.495
								c5.115,0,8.948,2.498,11.499,7.495c2.563,5.005,3.845,12.5,3.845,22.485c0,10.034-1.282,17.546-3.845,22.534
								C40.729,63.904,36.896,66.41,31.782,66.41 M31.782,74.222c8.175,0,14.421-3.239,18.734-9.708
								c4.313-6.454,6.47-15.837,6.47-28.141c0-12.272-2.157-21.639-6.47-28.109C46.203,1.81,39.957-1.42,31.782-1.42
								c-8.167,0-14.408,3.231-18.717,9.684c-4.313,6.47-6.47,15.836-6.47,28.109c0,12.305,2.157,21.688,6.47,28.141
								C17.374,70.984,23.615,74.222,31.782,74.222"/>
						</g>
						<g>
							<path id="BitstreamVeraSans-Roman-2e" d="M74.311,12.406h10.311V0.004H74.311V12.406z"/>
						</g>
						<g>
							<path id="BitstreamVeraSans-Roman-30_1_" d="M127.192,66.41c-5.074,0-8.891-2.506-11.454-7.503
								c-2.551-4.989-3.829-12.5-3.829-22.534c0-9.985,1.278-17.48,3.829-22.485c2.563-4.997,6.38-7.495,11.454-7.495
								c5.115,0,8.948,2.498,11.499,7.495c2.563,5.005,3.845,12.5,3.845,22.485c0,10.034-1.282,17.546-3.845,22.534
								C136.14,63.904,132.307,66.41,127.192,66.41 M127.192,74.222c8.175,0,14.421-3.239,18.734-9.708
								c4.313-6.454,6.47-15.837,6.47-28.141c0-12.272-2.157-21.639-6.47-28.109c-4.313-6.454-10.559-9.684-18.734-9.684
								c-8.167,0-14.408,3.231-18.717,9.684c-4.313,6.47-6.47,15.836-6.47,28.109c0,12.305,2.157,21.688,6.47,28.141
								C112.784,70.984,119.025,74.222,127.192,74.222"/>
						</g>
					</g>
				</g>
			</g>
			<g id="xtick_2">
				<g id="line2d_6">
					<g>
						<g>
							<path id="mcb557df647_1_" stroke="#000000" stroke-width="0.5" stroke-linejoin="round" d="M187.042,398.52v-4"/>
						</g>
					</g>
				</g>
				<g id="line2d_7">
					<g>
						<g>
							<path id="mdad270ee8e_1_" stroke="#000000" stroke-width="0.5" stroke-linejoin="round" d="M187.042,44.28v4"/>
						</g>
					</g>
				</g>
				<g id="text_2">
					<g transform="translate(178.4203125 411.42625)scale(0.12 -0.12)">
						<g>
							<path id="BitstreamVeraSans-Roman-30_2_" d="M31.78,66.41c-5.07,0-8.891-2.506-11.45-7.503
								c-2.556-4.989-3.829-12.5-3.829-22.534c0-9.985,1.273-17.48,3.829-22.485c2.559-4.997,6.38-7.495,11.45-7.495
								c5.115,0,8.948,2.498,11.503,7.495c2.56,5.005,3.841,12.5,3.841,22.485c0,10.034-1.282,17.546-3.841,22.534
								C40.728,63.904,36.895,66.41,31.78,66.41 M31.78,74.222c8.179,0,14.424-3.239,18.738-9.708
								c4.309-6.454,6.465-15.837,6.465-28.141c0-12.272-2.156-21.639-6.465-28.109C46.204,1.81,39.958-1.42,31.78-1.42
								c-8.167,0-14.404,3.231-18.718,9.684c-4.313,6.47-6.47,15.836-6.47,28.109c0,12.305,2.157,21.688,6.47,28.141
								C17.375,70.984,23.613,74.222,31.78,74.222"/>
						</g>
						<g>
							<path id="BitstreamVeraSans-Roman-2e_1_" d="M74.309,12.406h10.315V0.004H74.309V12.406z"/>
						</g>
						<g>
							<path id="BitstreamVeraSans-Roman-35" d="M106.206,72.904h38.721v-8.309h-29.688V46.732c1.424,0.488,2.852,0.854,4.28,1.099
								c1.437,0.236,2.873,0.358,4.313,0.358c8.134,0,14.575-2.23,19.328-6.689c4.761-4.46,7.141-10.498,7.141-18.107
								c0-7.845-2.445-13.948-7.328-18.302c-4.887-4.338-11.772-6.51-20.659-6.51c-3.06,0-6.181,0.26-9.358,0.781
								c-3.166,0.521-6.441,1.302-9.827,2.344v9.92c2.925-1.595,5.953-2.783,9.078-3.564s6.425-1.172,9.904-1.172
								c5.635,0,10.095,1.481,13.375,4.443c3.292,2.954,4.94,6.974,4.94,12.061c0,5.07-1.648,9.09-4.94,12.044
								c-3.279,2.97-7.739,4.451-13.375,4.451c-2.633,0-5.266-0.293-7.89-0.871c-2.612-0.586-5.286-1.497-8.016-2.734V72.904z"/>
						</g>
					</g>
				</g>
			</g>
			<g id="xtick_3">
				<g id="line2d_8">
					<g>
						<g>
							<path id="mcb557df647_2_" stroke="#000000" stroke-width="0.5" stroke-linejoin="round" d="M300.734,398.52v-4"/>
						</g>
					</g>
				</g>
				<g id="line2d_9">
					<g>
						<g>
							<path id="mdad270ee8e_2_" stroke="#000000" stroke-width="0.5" stroke-linejoin="round" d="M300.734,44.28v4"/>
						</g>
					</g>
				</g>
				<g id="text_3">
					<g transform="translate(292.250625 411.42625)scale(0.12 -0.12)">
						<g>
							<path id="BitstreamVeraSans-Roman-31" d="M12.406,8.296h16.105V63.92l-17.529-3.516v8.984l17.44,3.516h9.855V8.296H54.39
								V0.004H12.406V8.296z"/>
						</g>
						<g>
							<path id="BitstreamVeraSans-Roman-2e_2_" d="M74.312,12.406h10.311V0.004H74.312V12.406z"/>
						</g>
						<g>
							<path id="BitstreamVeraSans-Roman-30_3_" d="M127.192,66.41c-5.078,0-8.887-2.506-11.458-7.503
								c-2.547-4.989-3.825-12.5-3.825-22.534c0-9.985,1.278-17.48,3.825-22.485c2.572-4.997,6.38-7.495,11.458-7.495
								c5.111,0,8.952,2.498,11.499,7.495c2.563,5.005,3.849,12.5,3.849,22.485c0,10.034-1.286,17.546-3.849,22.534
								C136.144,63.904,132.303,66.41,127.192,66.41 M127.192,74.222c8.17,0,14.42-3.239,18.734-9.708
								c4.313-6.454,6.47-15.837,6.47-28.141c0-12.272-2.157-21.639-6.47-28.109c-4.313-6.454-10.563-9.684-18.734-9.684
								s-14.404,3.231-18.717,9.684c-4.313,6.47-6.47,15.836-6.47,28.109c0,12.305,2.156,21.688,6.47,28.141
								C112.788,70.984,119.022,74.222,127.192,74.222"/>
						</g>
					</g>
				</g>
			</g>
			<g id="xtick_4">
				<g id="line2d_10">
					<g>
						<g>
							<path id="mcb557df647_3_" stroke="#000000" stroke-width="0.5" stroke-linejoin="round" d="M414.428,398.52v-4"/>
						</g>
					</g>
				</g>
				<g id="line2d_11">
					<g>
						<g>
							<path id="mdad270ee8e_3_" stroke="#000000" stroke-width="0.5" stroke-linejoin="round" d="M414.428,44.28v4"/>
						</g>
					</g>
				</g>
				<g id="text_4">
					<g transform="translate(406.06875 411.26875)scale(0.12 -0.12)">
						<g>
							<path id="BitstreamVeraSans-Roman-31_1_" d="M12.407,8.294h16.105v55.631L10.983,60.41v8.984l17.439,3.516h9.855V8.294
								h16.113V0.001H12.407V8.294z"/>
						</g>
						<g>
							<path id="BitstreamVeraSans-Roman-2e_3_" d="M74.313,12.404h10.311V0.001H74.313V12.404z"/>
						</g>
						<g>
							<path id="BitstreamVeraSans-Roman-35_1_" d="M106.206,72.91h38.721v-8.317h-29.688V46.738
								c1.425,0.488,2.856,0.846,4.281,1.091c1.44,0.236,2.872,0.358,4.313,0.358c8.139,0,14.575-2.23,19.328-6.689
								c4.761-4.46,7.137-10.49,7.137-18.107c0-7.845-2.441-13.94-7.324-18.294c-4.883-4.346-11.775-6.519-20.654-6.519
								c-3.067,0-6.185,0.26-9.358,0.781c-3.174,0.521-6.445,1.302-9.831,2.344v9.92c2.93-1.595,5.949-2.775,9.074-3.556
								s6.429-1.172,9.912-1.172c5.632,0,10.091,1.473,13.371,4.435c3.296,2.954,4.939,6.974,4.939,12.061
								c0,5.07-1.644,9.09-4.939,12.044c-3.28,2.97-7.739,4.46-13.371,4.46c-2.637,0-5.266-0.293-7.894-0.879
								c-2.612-0.586-5.29-1.497-8.017-2.734V72.91z"/>
						</g>
					</g>
				</g>
			</g>
			<g id="xtick_5">
				<g id="line2d_12">
					<g>
						<g>
							<path id="mcb557df647_4_" stroke="#000000" stroke-width="0.5" stroke-linejoin="round" d="M528.12,398.52v-4"/>
						</g>
					</g>
				</g>
				<g id="line2d_13">
					<g>
						<g>
							<path id="mdad270ee8e_4_" stroke="#000000" stroke-width="0.5" stroke-linejoin="round" d="M528.12,44.28v4"/>
						</g>
					</g>
				</g>
				<g id="text_5">
					<g transform="translate(519.41625 411.42625)scale(0.12 -0.12)">
						<g>
							<path id="BitstreamVeraSans-Roman-32" d="M19.188,8.296h34.424V0.004H7.331v8.293c3.735,3.874,8.838,9.074,15.291,15.593
								c6.47,6.535,10.53,10.75,12.19,12.638c3.158,3.548,5.363,6.543,6.608,9.001c1.262,2.458,1.888,4.875,1.888,7.251
								c0,3.874-1.351,7.031-4.077,9.473c-2.718,2.449-6.258,3.67-10.62,3.67c-3.092,0-6.363-0.537-9.798-1.611
								c-3.426-1.074-7.097-2.702-11.003-4.891v9.969c3.972,1.595,7.683,2.8,11.125,3.613c3.459,0.814,6.624,1.221,9.489,1.221
								c7.552,0,13.574-1.896,18.058-5.672c4.492-3.776,6.738-8.813,6.738-15.129c0-3.003-0.562-5.843-1.692-8.529
								c-1.106-2.677-3.149-5.843-6.12-9.489c-0.813-0.944-3.401-3.678-7.764-8.187C33.283,22.709,27.139,16.402,19.188,8.296"/>
						</g>
						<g>
							<path id="BitstreamVeraSans-Roman-2e_4_" d="M74.314,12.406h10.312V0.004H74.314V12.406z"/>
						</g>
						<g>
							<path id="BitstreamVeraSans-Roman-30_4_" d="M127.195,66.41c-5.078,0-8.895-2.506-11.458-7.503
								c-2.547-4.989-3.825-12.5-3.825-22.534c0-9.985,1.278-17.48,3.825-22.485c2.563-4.997,6.38-7.495,11.458-7.495
								c5.111,0,8.944,2.498,11.499,7.495c2.563,5.005,3.842,12.5,3.842,22.485c0,10.034-1.278,17.546-3.842,22.534
								C136.14,63.904,132.307,66.41,127.195,66.41 M127.195,74.222c8.171,0,14.421-3.239,18.734-9.708
								c4.313-6.454,6.461-15.837,6.461-28.141c0-12.272-2.148-21.639-6.461-28.109c-4.313-6.454-10.563-9.684-18.734-9.684
								c-8.17,0-14.412,3.231-18.726,9.684C104.165,14.734,102,24.1,102,36.373c0,12.305,2.165,21.688,6.47,28.141
								C112.783,70.984,119.025,74.222,127.195,74.222"/>
						</g>
					</g>
				</g>
			</g>
		</g>
		<g id="matplotlib.axis_2">
			<g id="ytick_1">
				<g id="line2d_14">
					<g>
						<g>
							<path id="mc8fcea1516" stroke="#000000" stroke-width="0.5" stroke-linejoin="round" d="M73.35,398.52h4"/>
						</g>
					</g>
				</g>
				<g id="line2d_15">
					<g>
						<g>
							<path id="m0d5b0a6425" stroke="#000000" stroke-width="0.5" stroke-linejoin="round" d="M528.12,398.52h-4"/>
						</g>
					</g>
				</g>
				<g id="text_6">
					<g transform="translate(63.303125 402.8878125)scale(0.12 -0.12)">
						<g>
							<path id="BitstreamVeraSans-Roman-30_5_" d="M31.781,66.407c-5.07,0-8.891-2.499-11.45-7.503
								c-2.555-4.989-3.829-12.5-3.829-22.526c0-9.994,1.273-17.489,3.829-22.485c2.56-5.005,6.38-7.503,11.45-7.503
								c5.115,0,8.948,2.499,11.503,7.503c2.559,4.997,3.841,12.492,3.841,22.485c0,10.026-1.282,17.537-3.841,22.526
								C40.729,63.909,36.896,66.407,31.781,66.407 M31.781,74.22c8.179,0,14.425-3.239,18.738-9.701
								c4.309-6.461,6.466-15.845,6.466-28.141c0-12.272-2.157-21.647-6.466-28.109c-4.313-6.461-10.559-9.692-18.738-9.692
								c-8.167,0-14.404,3.231-18.717,9.692c-4.313,6.462-6.47,15.837-6.47,28.109c0,12.296,2.157,21.68,6.47,28.141
								C17.376,70.981,23.614,74.22,31.781,74.22"/>
						</g>
					</g>
				</g>
			</g>
			<g id="ytick_2">
				<g id="line2d_16">
					<g>
						<g>
							<path id="mc8fcea1516_1_" stroke="#000000" stroke-width="0.5" stroke-linejoin="round" d="M73.35,347.914h4"/>
						</g>
					</g>
				</g>
				<g id="line2d_17">
					<g>
						<g>
							<path id="m0d5b0a6425_1_" stroke="#000000" stroke-width="0.5" stroke-linejoin="round" d="M528.12,347.914h-4"/>
						</g>
					</g>
				</g>
				<g id="text_7">
					<g transform="translate(63.79625 352.367410714)scale(0.12 -0.12)">
						<g>
							<path id="BitstreamVeraSans-Roman-32_1_" d="M19.188,8.294h34.424V0.002H7.331v8.293c3.739,3.874,8.838,9.074,15.295,15.592
								c6.47,6.535,10.531,10.75,12.187,12.646c3.158,3.54,5.359,6.543,6.612,9.001c1.257,2.458,1.888,4.875,1.888,7.251
								c0,3.874-1.359,7.031-4.077,9.465c-2.718,2.449-6.262,3.67-10.625,3.67c-3.092,0-6.36-0.537-9.798-1.611
								c-3.426-1.066-7.092-2.702-10.999-4.883v9.961c3.967,1.595,7.678,2.8,11.125,3.613c3.458,0.814,6.62,1.221,9.485,1.221
								c7.552,0,13.57-1.896,18.063-5.672c4.488-3.776,6.734-8.813,6.734-15.129c0-2.995-0.562-5.843-1.688-8.529
								c-1.115-2.677-3.158-5.843-6.124-9.489c-0.813-0.944-3.401-3.67-7.768-8.187C33.287,22.707,27.139,16.4,19.188,8.294"/>
						</g>
					</g>
				</g>
			</g>
			<g id="ytick_3">
				<g id="line2d_18">
					<g>
						<g>
							<path id="mc8fcea1516_2_" stroke="#000000" stroke-width="0.5" stroke-linejoin="round" d="M73.35,297.309h4"/>
						</g>
					</g>
				</g>
				<g id="line2d_19">
					<g>
						<g>
							<path id="m0d5b0a6425_2_" stroke="#000000" stroke-width="0.5" stroke-linejoin="round" d="M528.12,297.309h-4"/>
						</g>
					</g>
				</g>
				<g id="text_8">
					<g transform="translate(62.975 301.682946429)scale(0.12 -0.12)">
						<g>
							<path id="BitstreamVeraSans-Roman-34" d="M37.799,64.317L12.893,25.385h24.906V64.317z M35.204,72.911H47.61V25.385h10.409
								v-8.203H47.61V-0.005h-9.811v17.188H4.894v9.521L35.204,72.911z"/>
						</g>
					</g>
				</g>
			</g>
			<g id="ytick_4">
				<g id="line2d_20">
					<g>
						<g>
							<path id="mc8fcea1516_3_" stroke="#000000" stroke-width="0.5" stroke-linejoin="round" d="M73.35,246.703h4"/>
						</g>
					</g>
				</g>
				<g id="line2d_21">
					<g>
						<g>
							<path id="m0d5b0a6425_3_" stroke="#000000" stroke-width="0.5" stroke-linejoin="round" d="M528.12,246.703h-4"/>
						</g>
					</g>
				</g>
				<g id="text_9">
					<g transform="translate(63.30875 251.070669643)scale(0.12 -0.12)">
						<g>
							<path id="BitstreamVeraSans-Roman-36" d="M33.016,40.375c-4.427,0-7.935-1.521-10.53-4.549
								c-2.584-3.02-3.874-7.162-3.874-12.435c0-5.241,1.29-9.391,3.874-12.435c2.596-3.043,6.104-4.565,10.53-4.565
								c4.427,0,7.935,1.522,10.519,4.565c2.584,3.044,3.874,7.194,3.874,12.435c0,5.273-1.29,9.416-3.874,12.435
								C40.951,38.854,37.443,40.375,33.016,40.375 M52.596,71.292v-8.984c-2.482,1.172-4.98,2.067-7.499,2.677
								c-2.523,0.627-5.021,0.936-7.503,0.936c-6.51,0-11.482-2.197-14.921-6.592c-3.426-4.395-5.383-11.035-5.875-19.922
								c1.917,2.832,4.325,5.005,7.218,6.51c2.909,1.514,6.1,2.271,9.579,2.271c7.324,0,13.11-2.222,17.362-6.673
								c4.248-4.436,6.372-10.474,6.372-18.124c0-7.487-2.213-13.501-6.641-18.034c-4.427-4.525-10.315-6.779-17.672-6.779
								c-8.435,0-14.884,3.231-19.344,9.692C9.217,14.733,6.987,24.108,6.987,36.38c0,11.515,2.734,20.703,8.203,27.555
								c5.469,6.853,12.805,10.287,22.013,10.287c2.482,0,4.98-0.244,7.503-0.732C47.225,72.993,49.854,72.269,52.596,71.292"/>
						</g>
					</g>
				</g>
			</g>
			<g id="ytick_5">
				<g id="line2d_22">
					<g>
						<g>
							<path id="mc8fcea1516_4_" stroke="#000000" stroke-width="0.5" stroke-linejoin="round" d="M73.35,196.097h4"/>
						</g>
					</g>
				</g>
				<g id="line2d_23">
					<g>
						<g>
							<path id="m0d5b0a6425_4_" stroke="#000000" stroke-width="0.5" stroke-linejoin="round" d="M528.12,196.097h-4"/>
						</g>
					</g>
				</g>
				<g id="text_10">
					<g transform="translate(63.35 200.464955357)scale(0.12 -0.12)">
						<g>
							<path id="BitstreamVeraSans-Roman-38" d="M31.782,34.624c-4.688,0-8.374-1.253-11.06-3.764
								c-2.677-2.511-4.016-5.961-4.016-10.344c0-4.398,1.339-7.849,4.016-10.359c2.686-2.511,6.372-3.768,11.06-3.768
								s8.382,1.261,11.08,3.784c2.71,2.531,4.061,5.978,4.061,10.343c0,4.382-1.343,7.833-4.028,10.344
								C40.217,33.371,36.514,34.624,31.782,34.624 M21.923,38.811c-4.228,1.042-7.524,3.011-9.888,5.908
								c-2.356,2.905-3.532,6.441-3.532,10.608c0,5.823,2.071,10.429,6.218,13.814c4.158,3.385,9.843,5.078,17.061,5.078
								c7.263,0,12.96-1.693,17.094-5.078c4.138-3.386,6.205-7.992,6.205-13.814c0-4.167-1.184-7.703-3.548-10.608
								c-2.356-2.897-5.631-4.867-9.827-5.908c4.749-1.103,8.447-3.271,11.092-6.498c2.657-3.219,3.983-7.153,3.983-11.796
								c0-7.076-2.156-12.5-6.465-16.284c-4.313-3.768-10.49-5.656-18.535-5.656c-8.028,0-14.205,1.888-18.53,5.656
								c-4.313,3.784-6.47,9.208-6.47,16.284c0,4.643,1.335,8.578,4,11.796C13.459,35.54,17.174,37.708,21.923,38.811
								 M18.313,54.391c0-3.772,1.176-6.714,3.532-8.83c2.364-2.112,5.676-3.17,9.937-3.17c4.24,0,7.552,1.058,9.941,3.17
								c2.393,2.116,3.593,5.058,3.593,8.83c0,3.78-1.2,6.726-3.593,8.842c-2.389,2.116-5.701,3.174-9.941,3.174
								c-4.26,0-7.572-1.058-9.937-3.174C19.489,61.117,18.313,58.171,18.313,54.391"/>
						</g>
					</g>
				</g>
			</g>
			<g id="ytick_6">
				<g id="line2d_24">
					<g>
						<g>
							<path id="mc8fcea1516_5_" stroke="#000000" stroke-width="0.5" stroke-linejoin="round" d="M73.35,145.491h4"/>
						</g>
					</g>
				</g>
				<g id="line2d_25">
					<g>
						<g>
							<path id="m0d5b0a6425_5_" stroke="#000000" stroke-width="0.5" stroke-linejoin="round" d="M528.12,145.491h-4"/>
						</g>
					</g>
				</g>
				<g id="text_11">
					<g transform="translate(56.195 149.859241071)scale(0.12 -0.12)">
						<g>
							<path id="BitstreamVeraSans-Roman-31_2_" d="M12.407,8.296h16.109v55.627l-17.529-3.516v8.984l17.436,3.516h9.859V8.296
								h16.109v-8.297H12.407V8.296z"/>
						</g>
						<g>
							<path id="BitstreamVeraSans-Roman-30_6_" d="M95.407,66.405c-5.074,0-8.891-2.498-11.454-7.499
								c-2.551-4.989-3.829-12.5-3.829-22.53c0-9.989,1.278-17.484,3.829-22.485c2.563-5,6.38-7.499,11.454-7.499
								c5.115,0,8.948,2.499,11.499,7.499c2.563,5.001,3.845,12.496,3.845,22.485c0,10.03-1.282,17.542-3.845,22.53
								C104.354,63.907,100.521,66.405,95.407,66.405 M95.407,74.218c8.179,0,14.42-3.235,18.734-9.7
								c4.313-6.462,6.47-15.841,6.47-28.142c0-12.272-2.157-21.643-6.47-28.108c-4.313-6.462-10.555-9.688-18.734-9.688
								c-8.167,0-14.404,3.227-18.717,9.688c-4.313,6.465-6.47,15.836-6.47,28.108c0,12.301,2.156,21.68,6.47,28.142
								C81.002,70.983,87.24,74.218,95.407,74.218"/>
						</g>
					</g>
				</g>
			</g>
			<g id="ytick_7">
				<g id="line2d_26">
					<g>
						<g>
							<path id="mc8fcea1516_6_" stroke="#000000" stroke-width="0.5" stroke-linejoin="round" d="M73.35,94.886h4"/>
						</g>
					</g>
				</g>
				<g id="line2d_27">
					<g>
						<g>
							<path id="m0d5b0a6425_6_" stroke="#000000" stroke-width="0.5" stroke-linejoin="round" d="M528.12,94.886h-4"/>
						</g>
					</g>
				</g>
				<g id="text_12">
					<g transform="translate(56.6 99.3388392857)scale(0.12 -0.12)">
						<g>
							<path id="BitstreamVeraSans-Roman-31_3_" d="M12.41,8.297h16.109v55.627l-17.533-3.52v8.984l17.439,3.516h9.859V8.297h16.109
								V0H12.41V8.297z"/>
						</g>
						<g>
							<path id="BitstreamVeraSans-Roman-32_2_" d="M82.812,8.297h34.424V0H70.955v8.297c3.74,3.874,8.838,9.074,15.295,15.592
								c6.47,6.531,10.531,10.746,12.187,12.643c3.157,3.54,5.359,6.543,6.612,9c1.257,2.458,1.888,4.875,1.888,7.251
								c0,3.874-1.359,7.031-4.077,9.464c-2.718,2.45-6.262,3.674-10.624,3.674c-3.093,0-6.36-0.537-9.798-1.607
								c-3.426-1.074-7.092-2.706-10.999-4.891v9.965c3.967,1.595,7.678,2.8,11.125,3.609c3.459,0.814,6.621,1.221,9.485,1.221
								c7.552,0,13.57-1.892,18.063-5.672c4.488-3.772,6.734-8.813,6.734-15.125c0-2.999-0.562-5.843-1.689-8.533
								c-1.115-2.677-3.157-5.839-6.124-9.485c-0.814-0.948-3.402-3.674-7.768-8.187C96.911,22.709,90.763,16.403,82.812,8.297"/>
						</g>
					</g>
				</g>
			</g>
			<g id="ytick_8">
				<g id="line2d_28">
					<g>
						<g>
							<path id="mc8fcea1516_7_" stroke="#000000" stroke-width="0.5" stroke-linejoin="round" d="M73.35,44.28h4"/>
						</g>
					</g>
				</g>
				<g id="line2d_29">
					<g>
						<g>
							<path id="m0d5b0a6425_7_" stroke="#000000" stroke-width="0.5" stroke-linejoin="round" d="M528.12,44.28h-4"/>
						</g>
					</g>
				</g>
				<g id="text_13">
					<g transform="translate(56.07125 48.654375)scale(0.12 -0.12)">
						<g>
							<path id="BitstreamVeraSans-Roman-31_4_" d="M12.409,8.298h16.109v55.624l-17.533-3.516v8.984l17.439,3.516h9.859V8.298
								h16.109V0.001H12.409V8.298z"/>
						</g>
						<g>
							<path id="BitstreamVeraSans-Roman-34_1_" d="M101.423,64.313l-24.906-38.92h24.906V64.313z M98.827,72.906h12.406V25.392
								h10.409v-8.203h-10.409V0.001h-9.811v17.188H68.517v9.514L98.827,72.906z"/>
						</g>
					</g>
				</g>
			</g>
		</g>
		<g id="patch_3">
			<path fill="none" stroke="#000000" stroke-linecap="square" stroke-linejoin="round" d="M73.35,44.28h454.77"/>
		</g>
		<g id="patch_4">
			<path fill="none" stroke="#000000" stroke-linecap="square" stroke-linejoin="round" d="M528.12,398.519V44.28"/>
		</g>
		<g id="patch_5">
			<path fill="none" stroke="#000000" stroke-linecap="square" stroke-linejoin="round" d="M73.35,398.519h454.77"/>
		</g>
		<g id="patch_6">
			<path fill="none" stroke="#000000" stroke-linecap="square" stroke-linejoin="round" d="M73.35,398.519V44.28"/>
		</g>
		<g id="text_14">
			<g transform="translate(211.019625 39.28)scale(0.144 -0.144)">
				<g>
					<path id="BitstreamVeraSans-Roman-44" d="M19.675,64.798V8.11h11.922c10.061,0,17.426,2.275,22.091,6.829
						c4.669,4.561,7.002,11.759,7.002,21.593c0,9.759-2.333,16.91-7.002,21.454c-4.666,4.54-12.03,6.812-22.091,6.812H19.675z
						 M9.814,72.906h20.267c14.123,0,24.489-2.936,31.094-8.813c6.612-5.873,9.921-15.062,9.921-27.561
						c0-12.573-3.323-21.806-9.969-27.703C54.492,2.943,44.144,0,30.082,0H9.814V72.906z"/>
				</g>
				<g>
					<path id="BitstreamVeraSans-Roman-2d" d="M81.894,31.392h26.313v-7.999H81.894V31.392z"/>
				</g>
				<g>
					<path id="BitstreamVeraSans-Roman-74" d="M131.4,70.22V54.687h18.5v-6.982h-18.5V18.019c0-4.459,0.61-7.324,1.828-8.596
						c1.221-1.271,3.703-1.905,7.453-1.905h9.22V0h-9.22c-6.938,0-11.722,1.292-14.357,3.875c-2.638,2.594-3.954,7.308-3.954,14.144
						v29.687h-6.595v6.982h6.595V70.22H131.4z"/>
				</g>
				<g>
					<path id="BitstreamVeraSans-Roman-65" d="M208.501,29.595v-4.391h-41.314c0.396-6.188,2.262-10.901,5.595-14.14
						c3.333-3.238,7.979-4.859,13.937-4.859c3.448,0,6.792,0.42,10.034,1.265c3.238,0.845,6.456,2.116,9.653,3.815V2.783
						c-3.228-1.366-6.534-2.407-9.921-3.126c-3.384-0.719-6.815-1.078-10.294-1.078c-8.731,0-15.642,2.537-20.735,7.609
						c-5.093,5.083-7.643,11.96-7.643,20.627c0,8.948,2.418,16.045,7.253,21.294c4.832,5.262,11.353,7.894,19.562,7.894
						c7.355,0,13.17-2.37,17.453-7.11C206.361,44.162,208.501,37.729,208.501,29.595 M199.515,32.236
						c-0.061,4.906-1.438,8.823-4.123,11.749c-2.689,2.937-6.246,4.408-10.671,4.408c-5.012,0-9.023-1.417-12.034-4.252
						c-3.008-2.835-4.744-6.823-5.202-11.97L199.515,32.236z"/>
				</g>
				<g>
					<path id="BitstreamVeraSans-Roman-73" d="M258.102,53.08v-8.5c-2.533,1.302-5.167,2.275-7.907,2.923
						c-2.729,0.654-5.561,0.983-8.501,0.983c-4.456,0-7.799-0.682-10.03-2.045c-2.228-1.367-3.344-3.418-3.344-6.158
						c0-2.082,0.797-3.72,2.391-4.907c1.594-1.187,4.801-2.316,9.626-3.391l3.079-0.688c6.375-1.363,10.905-3.289,13.59-5.781
						c2.689-2.489,4.032-5.961,4.032-10.42c0-5.083-2.011-9.111-6.032-12.079c-4.018-2.96-9.545-4.438-16.574-4.438
						c-2.93,0-5.981,0.288-9.159,0.861s-6.521,1.428-10.03,2.56v9.284c3.323-1.729,6.592-3.028,9.813-3.893
						c3.218-0.854,6.412-1.282,9.576-1.282c4.232,0,7.48,0.726,9.752,2.173c2.282,1.448,3.421,3.489,3.421,6.124
						c0,2.438-0.824,4.306-2.469,5.608c-1.634,1.302-5.239,2.56-10.813,3.767l-3.123,0.732c-5.564,1.167-9.586,2.964-12.064,5.392
						c-2.469,2.428-3.703,5.758-3.703,9.986c0,5.144,1.824,9.115,5.469,11.905c3.645,2.801,8.823,4.205,15.53,4.205
						c3.313,0,6.432-0.248,9.358-0.736C252.931,54.789,255.634,54.06,258.102,53.08"/>
				</g>
				<g>
					<path id="BitstreamVeraSans-Roman-74_1_" d="M284.232,70.22V54.687h18.5v-6.982h-18.5V18.019c0-4.459,0.61-7.324,1.828-8.596
						c1.221-1.271,3.703-1.905,7.453-1.905h9.22V0h-9.22c-6.938,0-11.722,1.292-14.357,3.875c-2.638,2.594-3.954,7.308-3.954,14.144
						v29.687h-6.595v6.982h6.595V70.22H284.232z"/>
				</g>
				<g>
					<path id="BitstreamVeraSans-Roman-20" d="M305.13,0"/>
				</g>
				<g>
					<path id="BitstreamVeraSans-Roman-66" d="M374.025,75.985v-7.483h-8.592c-3.218,0-5.459-0.651-6.721-1.953
						c-1.248-1.302-1.872-3.646-1.872-7.033v-4.829h14.794v-6.982H356.84V0h-9.033v47.706h-8.593v6.982h8.593v3.814
						c0,6.083,1.417,10.515,4.249,13.296c2.835,2.794,7.324,4.188,13.472,4.188H374.025z"/>
				</g>
				<g>
					<path id="BitstreamVeraSans-Roman-6f" d="M402.732,48.394c-4.815,0-8.62-1.882-11.424-5.643
						c-2.801-3.76-4.201-8.911-4.201-15.452c0-6.541,1.39-11.695,4.17-15.456c2.791-3.761,6.609-5.639,11.455-5.639
						c4.791,0,8.582,1.885,11.373,5.656c2.804,3.781,4.205,8.928,4.205,15.438c0,6.479-1.401,11.613-4.205,15.404
						C411.314,46.495,407.523,48.394,402.732,48.394 M402.732,56.002c7.813,0,13.946-2.543,18.405-7.626
						c4.469-5.073,6.704-12.099,6.704-21.077c0-8.949-2.234-15.975-6.704-21.081c-4.459-5.093-10.593-7.64-18.405-7.64
						c-7.847,0-13.991,2.546-18.439,7.64c-4.435,5.106-6.656,12.132-6.656,21.081c0,8.979,2.221,16.004,6.656,21.077
						C388.741,53.459,394.885,56.002,402.732,56.002"/>
				</g>
				<g>
					<path id="BitstreamVeraSans-Roman-72" d="M474.414,46.298c-1.01,0.583-2.109,1.011-3.299,1.282
						c-1.187,0.282-2.492,0.42-3.919,0.42c-5.083,0-8.986-1.651-11.706-4.95c-2.716-3.303-4.079-8.05-4.079-14.235V0h-9.03v54.688
						h9.03v-8.498c1.899,3.323,4.357,5.785,7.378,7.389c3.032,1.618,6.71,2.424,11.044,2.424c0.617,0,1.299-0.044,2.048-0.125
						c0.75-0.074,1.577-0.193,2.485-0.359L474.414,46.298z"/>
				</g>
				<g>
					<path id="BitstreamVeraSans-Roman-20_1_" d="M474.417,0"/>
				</g>
				<g>
					<path id="BitstreamVeraSans-Roman-6c" d="M515.626,75.985h8.982V0h-8.982V75.985z"/>
				</g>
				<g>
					<path id="BitstreamVeraSans-Roman-6f_1_" d="M564.597,48.394c-4.815,0-8.62-1.882-11.424-5.643
						c-2.801-3.76-4.201-8.911-4.201-15.452c0-6.541,1.39-11.695,4.17-15.456c2.791-3.761,6.609-5.639,11.455-5.639
						c4.791,0,8.579,1.885,11.373,5.656c2.808,3.781,4.205,8.928,4.205,15.438c0,6.479-1.397,11.613-4.205,15.404
						C573.176,46.495,569.388,48.394,564.597,48.394 M564.597,56.002c7.813,0,13.95-2.543,18.405-7.626
						c4.469-5.073,6.707-12.099,6.707-21.077c0-8.949-2.238-15.975-6.707-21.081c-4.456-5.093-10.593-7.64-18.405-7.64
						c-7.847,0-13.991,2.546-18.439,7.64c-4.435,5.106-6.656,12.132-6.656,21.081c0,8.979,2.221,16.004,6.656,21.077
						C550.606,53.459,556.75,56.002,564.597,56.002"/>
				</g>
				<g>
					<path id="BitstreamVeraSans-Roman-77" d="M599.367,54.687h8.993l11.23-42.67l11.176,42.67h10.593l11.23-42.67l11.19,42.67
						h8.979L658.449,0h-10.593l-11.767,44.83L624.283,0h-10.613L599.367,54.687z"/>
				</g>
				<g>
					<path id="BitstreamVeraSans-Roman-65_1_" d="M733.156,29.595v-4.391h-41.314c0.4-6.188,2.265-10.901,5.602-14.14
						c3.33-3.238,7.976-4.859,13.93-4.859c3.452,0,6.795,0.42,10.037,1.265c3.241,0.845,6.456,2.116,9.657,3.815V2.783
						c-3.228-1.366-6.538-2.407-9.928-3.126c-3.377-0.719-6.809-1.078-10.294-1.078c-8.728,0-15.639,2.537-20.732,7.609
						c-5.093,5.083-7.643,11.96-7.643,20.627c0,8.948,2.414,16.045,7.256,21.294c4.829,5.262,11.353,7.894,19.558,7.894
						c7.352,0,13.17-2.37,17.456-7.11C731.02,44.162,733.156,37.729,733.156,29.595 M724.177,32.236
						c-0.068,4.906-1.438,8.823-4.123,11.749c-2.692,2.937-6.253,4.408-10.674,4.408c-5.012,0-9.02-1.417-12.031-4.252
						c-3.011-2.835-4.747-6.823-5.208-11.97L724.177,32.236z"/>
				</g>
				<g>
					<path id="BitstreamVeraSans-Roman-72_1_" d="M779.59,46.298c-1.01,0.583-2.109,1.011-3.302,1.282
						c-1.18,0.282-2.489,0.42-3.92,0.42c-5.08,0-8.979-1.651-11.705-4.95c-2.713-3.303-4.076-8.05-4.076-14.235V0h-9.026v54.688
						h9.026v-8.498c1.899,3.323,4.361,5.785,7.378,7.389c3.032,1.618,6.708,2.424,11.047,2.424c0.61,0,1.295-0.044,2.048-0.125
						c0.746-0.074,1.573-0.193,2.482-0.359L779.59,46.298z"/>
				</g>
				<g>
					<path id="BitstreamVeraSans-Roman-20_2_" d="M779.597,0"/>
				</g>
				<g>
					<path id="BitstreamVeraSans-Roman-65_2_" d="M867.583,29.595v-4.391h-41.314c0.393-6.188,2.265-10.901,5.595-14.14
						s7.982-4.859,13.937-4.859c3.445,0,6.795,0.42,10.037,1.265c3.235,0.845,6.456,2.116,9.65,3.815V2.783
						c-3.228-1.366-6.531-2.407-9.921-3.126c-3.384-0.719-6.816-1.078-10.295-1.078c-8.735,0-15.638,2.537-20.738,7.609
						c-5.086,5.083-7.636,11.96-7.636,20.627c0,8.948,2.415,16.045,7.25,21.294c4.835,5.262,11.353,7.894,19.565,7.894
						c7.351,0,13.17-2.37,17.449-7.11C865.439,44.162,867.583,37.729,867.583,29.595 M858.597,32.236
						c-0.061,4.906-1.438,8.823-4.123,11.749c-2.692,2.937-6.246,4.408-10.668,4.408c-5.018,0-9.026-1.417-12.037-4.252
						c-3.004-2.835-4.741-6.823-5.202-11.97L858.597,32.236z"/>
				</g>
				<g>
					<path id="BitstreamVeraSans-Roman-73_1_" d="M917.184,53.08v-8.5c-2.529,1.302-5.167,2.275-7.907,2.923
						c-2.727,0.654-5.561,0.983-8.498,0.983c-4.456,0-7.806-0.682-10.03-2.045c-2.231-1.367-3.35-3.418-3.35-6.158
						c0-2.082,0.8-3.72,2.394-4.907c1.594-1.187,4.801-2.316,9.623-3.391l3.079-0.688c6.375-1.363,10.905-3.289,13.597-5.781
						c2.686-2.489,4.028-5.961,4.028-10.42c0-5.083-2.007-9.111-6.029-12.079c-4.021-2.96-9.549-4.438-16.575-4.438
						c-2.93,0-5.981,0.288-9.162,0.861c-3.18,0.573-6.517,1.428-10.03,2.56v9.284c3.323-1.729,6.592-3.028,9.813-3.893
						c3.221-0.854,6.409-1.282,9.576-1.282c4.232,0,7.48,0.726,9.752,2.173c2.286,1.448,3.425,3.489,3.425,6.124
						c0,2.438-0.827,4.306-2.468,5.608s-5.242,2.56-10.817,3.767l-3.126,0.732c-5.561,1.167-9.583,2.964-12.058,5.392
						c-2.469,2.428-3.703,5.758-3.703,9.986c0,5.144,1.818,9.115,5.466,11.905c3.648,2.801,8.823,4.205,15.53,4.205
						c3.31,0,6.429-0.248,9.359-0.736C912.016,54.789,914.715,54.06,917.184,53.08"/>
				</g>
				<g>
					<path id="BitstreamVeraSans-Roman-74_2_" d="M943.313,70.22V54.687h18.5v-6.982h-18.5V18.019c0-4.459,0.61-7.324,1.831-8.596
						c1.214-1.271,3.703-1.905,7.453-1.905h9.216V0h-9.216c-6.938,0-11.726,1.292-14.364,3.875
						c-2.631,2.594-3.947,7.308-3.947,14.144v29.687h-6.599v6.982h6.599V70.22H943.313z"/>
				</g>
				<g>
					<path id="BitstreamVeraSans-Roman-69" d="M973.634,54.687h8.979V0h-8.979V54.687z M973.634,75.985h8.979v-11.39h-8.979V75.985z
						"/>
				</g>
				<g>
					<path id="BitstreamVeraSans-Roman-6d" d="M1043.994,44.189c2.252,4.042,4.938,7.019,8.063,8.938
						c3.12,1.916,6.802,2.875,11.027,2.875c5.696,0,10.098-1.997,13.19-5.985c3.092-3.98,4.645-9.647,4.645-17.001V0h-9.033v32.722
						c0,5.239-0.936,9.125-2.801,11.654c-1.851,2.543-4.679,3.814-8.484,3.814c-4.652,0-8.341-1.549-11.047-4.642
						c-2.692-3.082-4.048-7.297-4.048-12.641V0h-9.026v32.722c0,5.269-0.929,9.166-2.788,11.685
						c-1.845,2.523-4.713,3.784-8.585,3.784c-4.598,0-8.247-1.553-10.959-4.659c-2.699-3.103-4.042-7.311-4.042-12.625V0h-9.033
						v54.688h9.033v-8.498c2.048,3.354,4.51,5.826,7.372,7.419c2.869,1.597,6.266,2.394,10.207,2.394
						c3.974,0,7.358-1.01,10.139-3.031C1040.604,50.96,1042.658,48.034,1043.994,44.189"/>
				</g>
				<g>
					<path id="BitstreamVeraSans-Roman-61" d="M1123.686,27.486c-7.256,0-12.289-0.828-15.096-2.486
						c-2.794-1.655-4.198-4.489-4.198-8.5c0-3.188,1.051-5.717,3.153-7.592c2.103-1.865,4.964-2.797,8.565-2.797
						c4.984,0,8.986,1.767,11.997,5.296c3.011,3.533,4.517,8.226,4.517,14.079v2.001H1123.686z M1141.61,31.206V0h-8.986v8.297
						c-2.048-3.313-4.611-5.761-7.67-7.341c-3.059-1.583-6.809-2.377-11.237-2.377c-5.588,0-10.043,1.573-13.36,4.72
						c-3.296,3.143-4.951,7.354-4.951,12.624c0,6.144,2.062,10.783,6.171,13.906c4.123,3.126,10.268,4.689,18.439,4.689h12.607
						v0.889c0,4.137-1.356,7.334-4.076,9.596c-2.719,2.258-6.538,3.391-11.454,3.391c-3.126,0-6.171-0.376-9.142-1.126
						c-2.957-0.752-5.805-1.875-8.532-3.377v8.314c3.283,1.271,6.47,2.217,9.563,2.841c3.092,0.638,6.104,0.956,9.033,0.956
						c7.921,0,13.828-2.055,17.734-6.158C1139.657,45.752,1141.61,39.537,1141.61,31.206"/>
				</g>
				<g>
					<path id="BitstreamVeraSans-Roman-74_3_" d="M1169.001,70.22V54.687h18.5v-6.982h-18.5V18.019c0-4.459,0.61-7.324,1.824-8.596
						c1.221-1.271,3.703-1.905,7.453-1.905h9.223V0h-9.223c-6.938,0-11.719,1.292-14.356,3.875
						c-2.638,2.594-3.954,7.308-3.954,14.144v29.687h-6.592v6.982h6.592V70.22H1169.001z"/>
				</g>
				<g>
					<path id="BitstreamVeraSans-Roman-65_3_" d="M1246.095,29.595v-4.391h-41.314c0.4-6.188,2.265-10.901,5.602-14.14
						c3.33-3.238,7.976-4.859,13.93-4.859c3.452,0,6.795,0.42,10.037,1.265c3.242,0.845,6.456,2.116,9.657,3.815V2.783
						c-3.228-1.366-6.537-2.407-9.928-3.126c-3.377-0.719-6.809-1.078-10.294-1.078c-8.728,0-15.639,2.537-20.732,7.609
						c-5.093,5.083-7.643,11.96-7.643,20.627c0,8.948,2.414,16.045,7.256,21.294c4.829,5.262,11.353,7.894,19.558,7.894
						c7.352,0,13.17-2.37,17.456-7.11C1243.959,44.162,1246.095,37.729,1246.095,29.595 M1237.116,32.236
						c-0.068,4.906-1.438,8.823-4.123,11.749c-2.692,2.937-6.253,4.408-10.674,4.408c-5.012,0-9.02-1.417-12.031-4.252
						c-3.011-2.835-4.747-6.823-5.208-11.97L1237.116,32.236z"/>
				</g>
			</g>
		</g>
	</g>
</g>
</svg>
