<?xml version="1.0" encoding="utf-8"?>
<!-- Generator: Adobe Illustrator 16.0.0, SVG Export Plug-In . SVG Version: 6.00 Build 0)  -->
<!DOCTYPE svg PUBLIC "-//W3C//DTD SVG 1.1//EN" "http://www.w3.org/Graphics/SVG/1.1/DTD/svg11.dtd">
<svg version="1.1" id="Layer_1" xmlns="http://www.w3.org/2000/svg" xmlns:xlink="http://www.w3.org/1999/xlink" x="0px" y="0px"
	 width="586px" height="442px" viewBox="0 0 586 442" enable-background="new 0 0 586 442" xml:space="preserve">
<g id="figure_1">
	<g id="patch_1">
		<path fill="#FFFFFF" d="M0,442.8h586.8V0H0V442.8z"/>
	</g>
	<g id="axes_1">
		<g id="patch_2">
			<path fill="#FFFFFF" d="M73.35,398.52h454.77V44.28H73.35V398.52z"/>
		</g>
		<g id="patch_3">
			<g>
				<defs>
					<rect id="SVGID_1_" x="73.35" y="44.28" width="454.77" height="354.239"/>
				</defs>
				<clipPath id="SVGID_2_">
					<use xlink:href="#SVGID_1_"  overflow="visible"/>
				</clipPath>
				
					<path opacity="0.5" clip-path="url(#SVGID_2_)" fill="#0000FF" stroke="#000000" stroke-linecap="square" stroke-linejoin="round" enable-background="new    " d="
					M89.243,398.52h8.216v-50.605h-8.216V398.52z"/>
			</g>
		</g>
		<g id="patch_4">
			<g>
				<defs>
					<rect id="SVGID_3_" x="73.35" y="44.28" width="454.77" height="354.239"/>
				</defs>
				<clipPath id="SVGID_4_">
					<use xlink:href="#SVGID_3_"  overflow="visible"/>
				</clipPath>
				
					<path opacity="0.5" clip-path="url(#SVGID_4_)" fill="#0000FF" stroke="#000000" stroke-linecap="square" stroke-linejoin="round" enable-background="new    " d="
					M97.459,398.52h8.216V297.309h-8.216V398.52z"/>
			</g>
		</g>
		<g id="patch_5">
			<g>
				<defs>
					<rect id="SVGID_5_" x="73.35" y="44.28" width="454.77" height="354.239"/>
				</defs>
				<clipPath id="SVGID_6_">
					<use xlink:href="#SVGID_5_"  overflow="visible"/>
				</clipPath>
				
					<path opacity="0.5" clip-path="url(#SVGID_6_)" fill="#0000FF" stroke="#000000" stroke-linecap="square" stroke-linejoin="round" enable-background="new    " d="
					M105.675,398.52h8.216l0,0H105.675z"/>
			</g>
		</g>
		<g id="patch_6">
			<g>
				<defs>
					<rect id="SVGID_7_" x="73.35" y="44.28" width="454.77" height="354.239"/>
				</defs>
				<clipPath id="SVGID_8_">
					<use xlink:href="#SVGID_7_"  overflow="visible"/>
				</clipPath>
				
					<path opacity="0.5" clip-path="url(#SVGID_8_)" fill="#0000FF" stroke="#000000" stroke-linecap="square" stroke-linejoin="round" enable-background="new    " d="
					M113.891,398.52h8.217V297.309h-8.217V398.52z"/>
			</g>
		</g>
		<g id="patch_7">
			<g>
				<defs>
					<rect id="SVGID_9_" x="73.35" y="44.28" width="454.77" height="354.239"/>
				</defs>
				<clipPath id="SVGID_10_">
					<use xlink:href="#SVGID_9_"  overflow="visible"/>
				</clipPath>
				
					<path opacity="0.5" clip-path="url(#SVGID_10_)" fill="#0000FF" stroke="#000000" stroke-linecap="square" stroke-linejoin="round" enable-background="new    " d="
					M122.108,398.52h8.216V246.703h-8.216V398.52z"/>
			</g>
		</g>
		<g id="patch_8">
			<g>
				<defs>
					<rect id="SVGID_11_" x="73.35" y="44.28" width="454.77" height="354.239"/>
				</defs>
				<clipPath id="SVGID_12_">
					<use xlink:href="#SVGID_11_"  overflow="visible"/>
				</clipPath>
				
					<path opacity="0.5" clip-path="url(#SVGID_12_)" fill="#0000FF" stroke="#000000" stroke-linecap="square" stroke-linejoin="round" enable-background="new    " d="
					M130.324,398.52h8.216V246.703h-8.216V398.52z"/>
			</g>
		</g>
		<g id="patch_9">
			<g>
				<defs>
					<rect id="SVGID_13_" x="73.35" y="44.28" width="454.77" height="354.239"/>
				</defs>
				<clipPath id="SVGID_14_">
					<use xlink:href="#SVGID_13_"  overflow="visible"/>
				</clipPath>
				
					<path opacity="0.5" clip-path="url(#SVGID_14_)" fill="#0000FF" stroke="#000000" stroke-linecap="square" stroke-linejoin="round" enable-background="new    " d="
					M138.54,398.52h8.217l0,0H138.54z"/>
			</g>
		</g>
		<g id="patch_10">
			<g>
				<defs>
					<rect id="SVGID_15_" x="73.35" y="44.28" width="454.77" height="354.239"/>
				</defs>
				<clipPath id="SVGID_16_">
					<use xlink:href="#SVGID_15_"  overflow="visible"/>
				</clipPath>
				
					<path opacity="0.5" clip-path="url(#SVGID_16_)" fill="#0000FF" stroke="#000000" stroke-linecap="square" stroke-linejoin="round" enable-background="new    " d="
					M146.757,398.52h8.216V145.491h-8.216V398.52z"/>
			</g>
		</g>
		<g id="patch_11">
			<g>
				<defs>
					<rect id="SVGID_17_" x="73.35" y="44.28" width="454.77" height="354.239"/>
				</defs>
				<clipPath id="SVGID_18_">
					<use xlink:href="#SVGID_17_"  overflow="visible"/>
				</clipPath>
				
					<path opacity="0.5" clip-path="url(#SVGID_18_)" fill="#0000FF" stroke="#000000" stroke-linecap="square" stroke-linejoin="round" enable-background="new    " d="
					M154.973,398.52h8.216V297.309h-8.216V398.52z"/>
			</g>
		</g>
		<g id="patch_12">
			<g>
				<defs>
					<rect id="SVGID_19_" x="73.35" y="44.28" width="454.77" height="354.239"/>
				</defs>
				<clipPath id="SVGID_20_">
					<use xlink:href="#SVGID_19_"  overflow="visible"/>
				</clipPath>
				
					<path opacity="0.5" clip-path="url(#SVGID_20_)" fill="#0000FF" stroke="#000000" stroke-linecap="square" stroke-linejoin="round" enable-background="new    " d="
					M163.189,398.52h8.216V246.703h-8.216V398.52z"/>
			</g>
		</g>
		<g id="patch_13">
			<g>
				<defs>
					<rect id="SVGID_21_" x="73.35" y="44.28" width="454.77" height="354.239"/>
				</defs>
				<clipPath id="SVGID_22_">
					<use xlink:href="#SVGID_21_"  overflow="visible"/>
				</clipPath>
				
					<path opacity="0.5" clip-path="url(#SVGID_22_)" fill="#0000FF" stroke="#000000" stroke-linecap="square" stroke-linejoin="round" enable-background="new    " d="
					M171.405,398.52h8.217v-50.605h-8.217V398.52z"/>
			</g>
		</g>
		<g id="patch_14">
			<g>
				<defs>
					<rect id="SVGID_23_" x="73.35" y="44.28" width="454.77" height="354.239"/>
				</defs>
				<clipPath id="SVGID_24_">
					<use xlink:href="#SVGID_23_"  overflow="visible"/>
				</clipPath>
				
					<path opacity="0.5" clip-path="url(#SVGID_24_)" fill="#0000FF" stroke="#000000" stroke-linecap="square" stroke-linejoin="round" enable-background="new    " d="
					M179.622,398.52h8.216v-50.605h-8.216V398.52z"/>
			</g>
		</g>
		<g id="patch_15">
			<g>
				<defs>
					<rect id="SVGID_25_" x="73.35" y="44.28" width="454.77" height="354.239"/>
				</defs>
				<clipPath id="SVGID_26_">
					<use xlink:href="#SVGID_25_"  overflow="visible"/>
				</clipPath>
				
					<path opacity="0.5" clip-path="url(#SVGID_26_)" fill="#0000FF" stroke="#000000" stroke-linecap="square" stroke-linejoin="round" enable-background="new    " d="
					M187.838,398.52h8.216V145.491h-8.216V398.52z"/>
			</g>
		</g>
		<g id="patch_16">
			<g>
				<defs>
					<rect id="SVGID_27_" x="73.35" y="44.28" width="454.77" height="354.239"/>
				</defs>
				<clipPath id="SVGID_28_">
					<use xlink:href="#SVGID_27_"  overflow="visible"/>
				</clipPath>
				
					<path opacity="0.5" clip-path="url(#SVGID_28_)" fill="#0000FF" stroke="#000000" stroke-linecap="square" stroke-linejoin="round" enable-background="new    " d="
					M196.054,398.52h8.216V297.309h-8.216V398.52z"/>
			</g>
		</g>
		<g id="patch_17">
			<g>
				<defs>
					<rect id="SVGID_29_" x="73.35" y="44.28" width="454.77" height="354.239"/>
				</defs>
				<clipPath id="SVGID_30_">
					<use xlink:href="#SVGID_29_"  overflow="visible"/>
				</clipPath>
				
					<path opacity="0.5" clip-path="url(#SVGID_30_)" fill="#0000FF" stroke="#000000" stroke-linecap="square" stroke-linejoin="round" enable-background="new    " d="
					M204.27,398.52h8.217V145.491h-8.217V398.52z"/>
			</g>
		</g>
		<g id="patch_18">
			<g>
				<defs>
					<rect id="SVGID_31_" x="73.35" y="44.28" width="454.77" height="354.239"/>
				</defs>
				<clipPath id="SVGID_32_">
					<use xlink:href="#SVGID_31_"  overflow="visible"/>
				</clipPath>
				
					<path opacity="0.5" clip-path="url(#SVGID_32_)" fill="#0000FF" stroke="#000000" stroke-linecap="square" stroke-linejoin="round" enable-background="new    " d="
					M212.487,398.52h8.216V145.491h-8.216V398.52z"/>
			</g>
		</g>
		<g id="patch_19">
			<g>
				<defs>
					<rect id="SVGID_33_" x="73.35" y="44.28" width="454.77" height="354.239"/>
				</defs>
				<clipPath id="SVGID_34_">
					<use xlink:href="#SVGID_33_"  overflow="visible"/>
				</clipPath>
				
					<path opacity="0.5" clip-path="url(#SVGID_34_)" fill="#0000FF" stroke="#000000" stroke-linecap="square" stroke-linejoin="round" enable-background="new    " d="
					M220.703,398.52h8.216V196.097h-8.216V398.52z"/>
			</g>
		</g>
		<g id="patch_20">
			<g>
				<defs>
					<rect id="SVGID_35_" x="73.35" y="44.28" width="454.77" height="354.239"/>
				</defs>
				<clipPath id="SVGID_36_">
					<use xlink:href="#SVGID_35_"  overflow="visible"/>
				</clipPath>
				
					<path opacity="0.5" clip-path="url(#SVGID_36_)" fill="#0000FF" stroke="#000000" stroke-linecap="square" stroke-linejoin="round" enable-background="new    " d="
					M228.919,398.52h8.217V297.309h-8.217V398.52z"/>
			</g>
		</g>
		<g id="patch_21">
			<g>
				<defs>
					<rect id="SVGID_37_" x="73.35" y="44.28" width="454.77" height="354.239"/>
				</defs>
				<clipPath id="SVGID_38_">
					<use xlink:href="#SVGID_37_"  overflow="visible"/>
				</clipPath>
				
					<path opacity="0.5" clip-path="url(#SVGID_38_)" fill="#0000FF" stroke="#000000" stroke-linecap="square" stroke-linejoin="round" enable-background="new    " d="
					M237.136,398.52h8.216V145.491h-8.216V398.52z"/>
			</g>
		</g>
		<g id="patch_22">
			<g>
				<defs>
					<rect id="SVGID_39_" x="73.35" y="44.28" width="454.77" height="354.239"/>
				</defs>
				<clipPath id="SVGID_40_">
					<use xlink:href="#SVGID_39_"  overflow="visible"/>
				</clipPath>
				
					<path opacity="0.5" clip-path="url(#SVGID_40_)" fill="#0000FF" stroke="#000000" stroke-linecap="square" stroke-linejoin="round" enable-background="new    " d="
					M245.352,398.52h8.216V196.097h-8.216V398.52z"/>
			</g>
		</g>
		<g id="patch_23">
			<g>
				<defs>
					<rect id="SVGID_41_" x="73.35" y="44.28" width="454.77" height="354.239"/>
				</defs>
				<clipPath id="SVGID_42_">
					<use xlink:href="#SVGID_41_"  overflow="visible"/>
				</clipPath>
				
					<path opacity="0.5" clip-path="url(#SVGID_42_)" fill="#0000FF" stroke="#000000" stroke-linecap="square" stroke-linejoin="round" enable-background="new    " d="
					M253.568,398.52h8.216V246.703h-8.216V398.52z"/>
			</g>
		</g>
		<g id="patch_24">
			<g>
				<defs>
					<rect id="SVGID_43_" x="73.35" y="44.28" width="454.77" height="354.239"/>
				</defs>
				<clipPath id="SVGID_44_">
					<use xlink:href="#SVGID_43_"  overflow="visible"/>
				</clipPath>
				
					<path opacity="0.5" clip-path="url(#SVGID_44_)" fill="#0000FF" stroke="#000000" stroke-linecap="square" stroke-linejoin="round" enable-background="new    " d="
					M261.784,398.52h8.217V196.097h-8.217V398.52z"/>
			</g>
		</g>
		<g id="patch_25">
			<g>
				<defs>
					<rect id="SVGID_45_" x="73.35" y="44.28" width="454.77" height="354.239"/>
				</defs>
				<clipPath id="SVGID_46_">
					<use xlink:href="#SVGID_45_"  overflow="visible"/>
				</clipPath>
				
					<path opacity="0.5" clip-path="url(#SVGID_46_)" fill="#0000FF" stroke="#000000" stroke-linecap="square" stroke-linejoin="round" enable-background="new    " d="
					M270.001,398.52h8.216v-50.605h-8.216V398.52z"/>
			</g>
		</g>
		<g id="patch_26">
			<g>
				<defs>
					<rect id="SVGID_47_" x="73.35" y="44.28" width="454.77" height="354.239"/>
				</defs>
				<clipPath id="SVGID_48_">
					<use xlink:href="#SVGID_47_"  overflow="visible"/>
				</clipPath>
				
					<path opacity="0.5" clip-path="url(#SVGID_48_)" fill="#0000FF" stroke="#000000" stroke-linecap="square" stroke-linejoin="round" enable-background="new    " d="
					M278.217,398.52h8.216V246.703h-8.216V398.52z"/>
			</g>
		</g>
		<g id="patch_27">
			<g>
				<defs>
					<rect id="SVGID_49_" x="73.35" y="44.28" width="454.77" height="354.239"/>
				</defs>
				<clipPath id="SVGID_50_">
					<use xlink:href="#SVGID_49_"  overflow="visible"/>
				</clipPath>
				
					<path opacity="0.5" clip-path="url(#SVGID_50_)" fill="#0000FF" stroke="#000000" stroke-linecap="square" stroke-linejoin="round" enable-background="new    " d="
					M286.433,398.52h8.217V246.703h-8.217V398.52z"/>
			</g>
		</g>
		<g id="patch_28">
			<g>
				<defs>
					<rect id="SVGID_51_" x="73.35" y="44.28" width="454.77" height="354.239"/>
				</defs>
				<clipPath id="SVGID_52_">
					<use xlink:href="#SVGID_51_"  overflow="visible"/>
				</clipPath>
				
					<path opacity="0.5" clip-path="url(#SVGID_52_)" fill="#0000FF" stroke="#000000" stroke-linecap="square" stroke-linejoin="round" enable-background="new    " d="
					M294.65,398.52h8.216V196.097h-8.216V398.52z"/>
			</g>
		</g>
		<g id="patch_29">
			<g>
				<defs>
					<rect id="SVGID_53_" x="73.35" y="44.28" width="454.77" height="354.239"/>
				</defs>
				<clipPath id="SVGID_54_">
					<use xlink:href="#SVGID_53_"  overflow="visible"/>
				</clipPath>
				
					<path opacity="0.5" clip-path="url(#SVGID_54_)" fill="#0000FF" stroke="#000000" stroke-linecap="square" stroke-linejoin="round" enable-background="new    " d="
					M302.866,398.52h8.216V297.309h-8.216V398.52z"/>
			</g>
		</g>
		<g id="patch_30">
			<g>
				<defs>
					<rect id="SVGID_55_" x="73.35" y="44.28" width="454.77" height="354.239"/>
				</defs>
				<clipPath id="SVGID_56_">
					<use xlink:href="#SVGID_55_"  overflow="visible"/>
				</clipPath>
				
					<path opacity="0.5" clip-path="url(#SVGID_56_)" fill="#0000FF" stroke="#000000" stroke-linecap="square" stroke-linejoin="round" enable-background="new    " d="
					M311.082,398.52h8.216V196.097h-8.216V398.52z"/>
			</g>
		</g>
		<g id="patch_31">
			<g>
				<defs>
					<rect id="SVGID_57_" x="73.35" y="44.28" width="454.77" height="354.239"/>
				</defs>
				<clipPath id="SVGID_58_">
					<use xlink:href="#SVGID_57_"  overflow="visible"/>
				</clipPath>
				
					<path opacity="0.5" clip-path="url(#SVGID_58_)" fill="#0000FF" stroke="#000000" stroke-linecap="square" stroke-linejoin="round" enable-background="new    " d="
					M319.298,398.52h8.218v-50.605h-8.218V398.52z"/>
			</g>
		</g>
		<g id="patch_32">
			<g>
				<defs>
					<rect id="SVGID_59_" x="73.35" y="44.28" width="454.77" height="354.239"/>
				</defs>
				<clipPath id="SVGID_60_">
					<use xlink:href="#SVGID_59_"  overflow="visible"/>
				</clipPath>
				
					<path opacity="0.5" clip-path="url(#SVGID_60_)" fill="#0000FF" stroke="#000000" stroke-linecap="square" stroke-linejoin="round" enable-background="new    " d="
					M327.516,398.52h8.215V44.28h-8.215V398.52z"/>
			</g>
		</g>
		<g id="patch_33">
			<g>
				<defs>
					<rect id="SVGID_61_" x="73.35" y="44.28" width="454.77" height="354.239"/>
				</defs>
				<clipPath id="SVGID_62_">
					<use xlink:href="#SVGID_61_"  overflow="visible"/>
				</clipPath>
				
					<path opacity="0.5" clip-path="url(#SVGID_62_)" fill="#0000FF" stroke="#000000" stroke-linecap="square" stroke-linejoin="round" enable-background="new    " d="
					M335.73,398.52h8.217v-50.605h-8.217V398.52z"/>
			</g>
		</g>
		<g id="patch_34">
			<g>
				<defs>
					<rect id="SVGID_63_" x="73.35" y="44.28" width="454.77" height="354.239"/>
				</defs>
				<clipPath id="SVGID_64_">
					<use xlink:href="#SVGID_63_"  overflow="visible"/>
				</clipPath>
				
					<path opacity="0.5" clip-path="url(#SVGID_64_)" fill="#0000FF" stroke="#000000" stroke-linecap="square" stroke-linejoin="round" enable-background="new    " d="
					M343.947,398.52h8.216v-50.605h-8.216V398.52z"/>
			</g>
		</g>
		<g id="patch_35">
			<g>
				<defs>
					<rect id="SVGID_65_" x="73.35" y="44.28" width="454.77" height="354.239"/>
				</defs>
				<clipPath id="SVGID_66_">
					<use xlink:href="#SVGID_65_"  overflow="visible"/>
				</clipPath>
				
					<path opacity="0.5" clip-path="url(#SVGID_66_)" fill="#0000FF" stroke="#000000" stroke-linecap="square" stroke-linejoin="round" enable-background="new    " d="
					M352.163,398.52h8.217v-50.605h-8.217V398.52z"/>
			</g>
		</g>
		<g id="patch_36">
			<g>
				<defs>
					<rect id="SVGID_67_" x="73.35" y="44.28" width="454.77" height="354.239"/>
				</defs>
				<clipPath id="SVGID_68_">
					<use xlink:href="#SVGID_67_"  overflow="visible"/>
				</clipPath>
				
					<path opacity="0.5" clip-path="url(#SVGID_68_)" fill="#0000FF" stroke="#000000" stroke-linecap="square" stroke-linejoin="round" enable-background="new    " d="
					M360.38,398.52h8.216V297.309h-8.216V398.52z"/>
			</g>
		</g>
		<g id="patch_37">
			<g>
				<defs>
					<rect id="SVGID_69_" x="73.35" y="44.28" width="454.77" height="354.239"/>
				</defs>
				<clipPath id="SVGID_70_">
					<use xlink:href="#SVGID_69_"  overflow="visible"/>
				</clipPath>
				
					<path opacity="0.5" clip-path="url(#SVGID_70_)" fill="#0000FF" stroke="#000000" stroke-linecap="square" stroke-linejoin="round" enable-background="new    " d="
					M368.596,398.52h8.217V297.309h-8.217V398.52z"/>
			</g>
		</g>
		<g id="patch_38">
			<g>
				<defs>
					<rect id="SVGID_71_" x="73.35" y="44.28" width="454.77" height="354.239"/>
				</defs>
				<clipPath id="SVGID_72_">
					<use xlink:href="#SVGID_71_"  overflow="visible"/>
				</clipPath>
				
					<path opacity="0.5" clip-path="url(#SVGID_72_)" fill="#0000FF" stroke="#000000" stroke-linecap="square" stroke-linejoin="round" enable-background="new    " d="
					M376.813,398.52h8.217v-50.605h-8.217V398.52z"/>
			</g>
		</g>
		<g id="patch_39">
			<g>
				<defs>
					<rect id="SVGID_73_" x="73.35" y="44.28" width="454.77" height="354.239"/>
				</defs>
				<clipPath id="SVGID_74_">
					<use xlink:href="#SVGID_73_"  overflow="visible"/>
				</clipPath>
				
					<path opacity="0.5" clip-path="url(#SVGID_74_)" fill="#0000FF" stroke="#000000" stroke-linecap="square" stroke-linejoin="round" enable-background="new    " d="
					M385.029,398.52h8.216l0,0H385.029z"/>
			</g>
		</g>
		<g id="patch_40">
			<g>
				<defs>
					<rect id="SVGID_75_" x="73.35" y="44.28" width="454.77" height="354.239"/>
				</defs>
				<clipPath id="SVGID_76_">
					<use xlink:href="#SVGID_75_"  overflow="visible"/>
				</clipPath>
				
					<path opacity="0.5" clip-path="url(#SVGID_76_)" fill="#0000FF" stroke="#000000" stroke-linecap="square" stroke-linejoin="round" enable-background="new    " d="
					M393.245,398.52h8.216v-50.605h-8.216V398.52z"/>
			</g>
		</g>
		<g id="patch_41">
			<g>
				<defs>
					<rect id="SVGID_77_" x="73.35" y="44.28" width="454.77" height="354.239"/>
				</defs>
				<clipPath id="SVGID_78_">
					<use xlink:href="#SVGID_77_"  overflow="visible"/>
				</clipPath>
				
					<path opacity="0.5" clip-path="url(#SVGID_78_)" fill="#0000FF" stroke="#000000" stroke-linecap="square" stroke-linejoin="round" enable-background="new    " d="
					M401.461,398.52h8.216l0,0H401.461z"/>
			</g>
		</g>
		<g id="patch_42">
			<g>
				<defs>
					<rect id="SVGID_79_" x="73.35" y="44.28" width="454.77" height="354.239"/>
				</defs>
				<clipPath id="SVGID_80_">
					<use xlink:href="#SVGID_79_"  overflow="visible"/>
				</clipPath>
				
					<path opacity="0.5" clip-path="url(#SVGID_80_)" fill="#0000FF" stroke="#000000" stroke-linecap="square" stroke-linejoin="round" enable-background="new    " d="
					M409.677,398.52h8.218l0,0H409.677z"/>
			</g>
		</g>
		<g id="patch_43">
			<g>
				<defs>
					<rect id="SVGID_81_" x="73.35" y="44.28" width="454.77" height="354.239"/>
				</defs>
				<clipPath id="SVGID_82_">
					<use xlink:href="#SVGID_81_"  overflow="visible"/>
				</clipPath>
				
					<path opacity="0.5" clip-path="url(#SVGID_82_)" fill="#0000FF" stroke="#000000" stroke-linecap="square" stroke-linejoin="round" enable-background="new    " d="
					M417.895,398.52h8.216v-50.605h-8.216V398.52z"/>
			</g>
		</g>
		<g id="patch_44">
			<g>
				<defs>
					<rect id="SVGID_83_" x="73.35" y="44.28" width="454.77" height="354.239"/>
				</defs>
				<clipPath id="SVGID_84_">
					<use xlink:href="#SVGID_83_"  overflow="visible"/>
				</clipPath>
				
					<path opacity="0.5" clip-path="url(#SVGID_84_)" fill="#0000FF" stroke="#000000" stroke-linecap="square" stroke-linejoin="round" enable-background="new    " d="
					M426.11,398.52h8.216l0,0H426.11z"/>
			</g>
		</g>
		<g id="patch_45">
			<g>
				<defs>
					<rect id="SVGID_85_" x="73.35" y="44.28" width="454.77" height="354.239"/>
				</defs>
				<clipPath id="SVGID_86_">
					<use xlink:href="#SVGID_85_"  overflow="visible"/>
				</clipPath>
				
					<path opacity="0.5" clip-path="url(#SVGID_86_)" fill="#0000FF" stroke="#000000" stroke-linecap="square" stroke-linejoin="round" enable-background="new    " d="
					M434.326,398.52h8.216l0,0H434.326z"/>
			</g>
		</g>
		<g id="patch_46">
			<g>
				<defs>
					<rect id="SVGID_87_" x="73.35" y="44.28" width="454.77" height="354.239"/>
				</defs>
				<clipPath id="SVGID_88_">
					<use xlink:href="#SVGID_87_"  overflow="visible"/>
				</clipPath>
				
					<path opacity="0.5" clip-path="url(#SVGID_88_)" fill="#0000FF" stroke="#000000" stroke-linecap="square" stroke-linejoin="round" enable-background="new    " d="
					M442.542,398.52h8.217l0,0H442.542z"/>
			</g>
		</g>
		<g id="patch_47">
			<g>
				<defs>
					<rect id="SVGID_89_" x="73.35" y="44.28" width="454.77" height="354.239"/>
				</defs>
				<clipPath id="SVGID_90_">
					<use xlink:href="#SVGID_89_"  overflow="visible"/>
				</clipPath>
				
					<path opacity="0.5" clip-path="url(#SVGID_90_)" fill="#0000FF" stroke="#000000" stroke-linecap="square" stroke-linejoin="round" enable-background="new    " d="
					M450.759,398.52h8.216l0,0H450.759z"/>
			</g>
		</g>
		<g id="patch_48">
			<g>
				<defs>
					<rect id="SVGID_91_" x="73.35" y="44.28" width="454.77" height="354.239"/>
				</defs>
				<clipPath id="SVGID_92_">
					<use xlink:href="#SVGID_91_"  overflow="visible"/>
				</clipPath>
				
					<path opacity="0.5" clip-path="url(#SVGID_92_)" fill="#0000FF" stroke="#000000" stroke-linecap="square" stroke-linejoin="round" enable-background="new    " d="
					M458.975,398.52h8.217l0,0H458.975z"/>
			</g>
		</g>
		<g id="patch_49">
			<g>
				<defs>
					<rect id="SVGID_93_" x="73.35" y="44.28" width="454.77" height="354.239"/>
				</defs>
				<clipPath id="SVGID_94_">
					<use xlink:href="#SVGID_93_"  overflow="visible"/>
				</clipPath>
				
					<path opacity="0.5" clip-path="url(#SVGID_94_)" fill="#0000FF" stroke="#000000" stroke-linecap="square" stroke-linejoin="round" enable-background="new    " d="
					M467.191,398.52h8.217l0,0H467.191z"/>
			</g>
		</g>
		<g id="patch_50">
			<g>
				<defs>
					<rect id="SVGID_95_" x="73.35" y="44.28" width="454.77" height="354.239"/>
				</defs>
				<clipPath id="SVGID_96_">
					<use xlink:href="#SVGID_95_"  overflow="visible"/>
				</clipPath>
				
					<path opacity="0.5" clip-path="url(#SVGID_96_)" fill="#0000FF" stroke="#000000" stroke-linecap="square" stroke-linejoin="round" enable-background="new    " d="
					M475.408,398.52h8.216l0,0H475.408z"/>
			</g>
		</g>
		<g id="patch_51">
			<g>
				<defs>
					<rect id="SVGID_97_" x="73.35" y="44.28" width="454.77" height="354.239"/>
				</defs>
				<clipPath id="SVGID_98_">
					<use xlink:href="#SVGID_97_"  overflow="visible"/>
				</clipPath>
				
					<path opacity="0.5" clip-path="url(#SVGID_98_)" fill="#0000FF" stroke="#000000" stroke-linecap="square" stroke-linejoin="round" enable-background="new    " d="
					M483.624,398.52h8.216v-50.605h-8.216V398.52z"/>
			</g>
		</g>
		<g id="patch_52">
			<g>
				<defs>
					<rect id="SVGID_99_" x="73.35" y="44.28" width="454.77" height="354.239"/>
				</defs>
				<clipPath id="SVGID_100_">
					<use xlink:href="#SVGID_99_"  overflow="visible"/>
				</clipPath>
				
					<path opacity="0.5" clip-path="url(#SVGID_100_)" fill="#0000FF" stroke="#000000" stroke-linecap="square" stroke-linejoin="round" enable-background="new    " d="
					M491.84,398.52h8.216V297.309h-8.216V398.52z"/>
			</g>
		</g>
		<g id="matplotlib.axis_1">
			<g id="xtick_1">
				<g id="line2d_1">
					<g>
						<g>
							<path id="mcb557df647" stroke="#000000" stroke-width="0.5" stroke-linejoin="round" d="M73.35,398.52v-4"/>
						</g>
					</g>
				</g>
				<g id="line2d_2">
					<g>
						<g>
							<path id="mdad270ee8e" stroke="#000000" stroke-width="0.5" stroke-linejoin="round" d="M73.35,44.28v4"/>
						</g>
					</g>
				</g>
				<g id="text_1">
					<g transform="translate(64.6021875 411.42625)scale(0.12 -0.12)">
						<g>
							<path id="BitstreamVeraSans-Roman-30" d="M31.782,66.41c-5.074,0-8.891-2.506-11.454-7.503
								c-2.551-4.989-3.829-12.5-3.829-22.534c0-9.985,1.278-17.48,3.829-22.485c2.563-4.997,6.38-7.495,11.454-7.495
								c5.115,0,8.948,2.498,11.499,7.495c2.563,5.005,3.845,12.5,3.845,22.485c0,10.034-1.282,17.546-3.845,22.534
								C40.729,63.904,36.896,66.41,31.782,66.41 M31.782,74.222c8.175,0,14.421-3.239,18.734-9.708
								c4.313-6.454,6.47-15.837,6.47-28.141c0-12.272-2.157-21.639-6.47-28.109C46.203,1.81,39.957-1.42,31.782-1.42
								c-8.167,0-14.408,3.231-18.717,9.684c-4.313,6.47-6.47,15.836-6.47,28.109c0,12.305,2.157,21.688,6.47,28.141
								C17.374,70.984,23.615,74.222,31.782,74.222"/>
						</g>
						<g>
							<path id="BitstreamVeraSans-Roman-2e" d="M74.311,12.406h10.311V0.004H74.311V12.406z"/>
						</g>
						<g>
							<path id="BitstreamVeraSans-Roman-30_1_" d="M127.192,66.41c-5.074,0-8.891-2.506-11.454-7.503
								c-2.551-4.989-3.829-12.5-3.829-22.534c0-9.985,1.278-17.48,3.829-22.485c2.563-4.997,6.38-7.495,11.454-7.495
								c5.115,0,8.948,2.498,11.499,7.495c2.563,5.005,3.845,12.5,3.845,22.485c0,10.034-1.282,17.546-3.845,22.534
								C136.14,63.904,132.307,66.41,127.192,66.41 M127.192,74.222c8.175,0,14.421-3.239,18.734-9.708
								c4.313-6.454,6.47-15.837,6.47-28.141c0-12.272-2.157-21.639-6.47-28.109c-4.313-6.454-10.559-9.684-18.734-9.684
								c-8.167,0-14.408,3.231-18.717,9.684c-4.313,6.47-6.47,15.836-6.47,28.109c0,12.305,2.157,21.688,6.47,28.141
								C112.784,70.984,119.025,74.222,127.192,74.222"/>
						</g>
					</g>
				</g>
			</g>
			<g id="xtick_2">
				<g id="line2d_3">
					<g>
						<g>
							<path id="mcb557df647_1_" stroke="#000000" stroke-width="0.5" stroke-linejoin="round" d="M130.196,398.52v-4"/>
						</g>
					</g>
				</g>
				<g id="line2d_4">
					<g>
						<g>
							<path id="mdad270ee8e_1_" stroke="#000000" stroke-width="0.5" stroke-linejoin="round" d="M130.196,44.28v4"/>
						</g>
					</g>
				</g>
				<g id="text_2">
					<g transform="translate(121.6040625 411.42625)scale(0.12 -0.12)">
						<g>
							<path id="BitstreamVeraSans-Roman-30_2_" d="M31.782,66.41c-5.074,0-8.891-2.506-11.454-7.503
								c-2.551-4.989-3.829-12.5-3.829-22.534c0-9.985,1.278-17.48,3.829-22.485c2.563-4.997,6.38-7.495,11.454-7.495
								c5.115,0,8.948,2.498,11.499,7.495c2.563,5.005,3.845,12.5,3.845,22.485c0,10.034-1.282,17.546-3.845,22.534
								C40.73,63.904,36.897,66.41,31.782,66.41 M31.782,74.222c8.175,0,14.421-3.239,18.734-9.708
								c4.313-6.454,6.47-15.837,6.47-28.141c0-12.272-2.157-21.639-6.47-28.109C46.203,1.81,39.957-1.42,31.782-1.42
								c-8.167,0-14.408,3.231-18.721,9.684C8.752,14.734,6.595,24.1,6.595,36.373c0,12.305,2.157,21.688,6.466,28.141
								C17.374,70.984,23.616,74.222,31.782,74.222"/>
						</g>
						<g>
							<path id="BitstreamVeraSans-Roman-2e_1_" d="M74.312,12.406h10.311V0.004H74.312V12.406z"/>
						</g>
						<g>
							<path id="BitstreamVeraSans-Roman-31" d="M107.816,8.296h16.109V63.92l-17.529-3.516v8.984l17.436,3.516h9.859V8.296H149.8
								V0.004h-41.984V8.296z"/>
						</g>
					</g>
				</g>
			</g>
			<g id="xtick_3">
				<g id="line2d_5">
					<g>
						<g>
							<path id="mcb557df647_2_" stroke="#000000" stroke-width="0.5" stroke-linejoin="round" d="M187.043,398.52v-4"/>
						</g>
					</g>
				</g>
				<g id="line2d_6">
					<g>
						<g>
							<path id="mdad270ee8e_2_" stroke="#000000" stroke-width="0.5" stroke-linejoin="round" d="M187.043,44.28v4"/>
						</g>
					</g>
				</g>
				<g id="text_3">
					<g transform="translate(178.4971875 411.42625)scale(0.12 -0.12)">
						<g>
							<path id="BitstreamVeraSans-Roman-30_3_" d="M31.782,66.41c-5.074,0-8.891-2.506-11.454-7.503
								c-2.551-4.989-3.829-12.5-3.829-22.534c0-9.985,1.278-17.48,3.829-22.485c2.563-4.997,6.38-7.495,11.454-7.495
								c5.115,0,8.948,2.498,11.499,7.495c2.563,5.005,3.845,12.5,3.845,22.485c0,10.034-1.282,17.546-3.845,22.534
								C40.73,63.904,36.897,66.41,31.782,66.41 M31.782,74.222c8.175,0,14.421-3.239,18.734-9.708
								c4.313-6.454,6.47-15.837,6.47-28.141c0-12.272-2.157-21.639-6.47-28.109C46.203,1.81,39.957-1.42,31.782-1.42
								c-8.167,0-14.408,3.231-18.721,9.684C8.752,14.734,6.595,24.1,6.595,36.373c0,12.305,2.157,21.688,6.466,28.141
								C17.374,70.984,23.616,74.222,31.782,74.222"/>
						</g>
						<g>
							<path id="BitstreamVeraSans-Roman-2e_2_" d="M74.312,12.406h10.311V0.004H74.312V12.406z"/>
						</g>
						<g>
							<path id="BitstreamVeraSans-Roman-32" d="M114.599,8.296h34.419V0.004h-46.281v8.293c3.739,3.874,8.838,9.074,15.299,15.593
								c6.466,6.535,10.531,10.75,12.187,12.638c3.157,3.548,5.359,6.543,6.608,9.001c1.261,2.458,1.892,4.875,1.892,7.251
								c0,3.874-1.359,7.031-4.081,9.473c-2.718,2.449-6.258,3.67-10.625,3.67c-3.092,0-6.36-0.537-9.794-1.611
								c-3.43-1.074-7.096-2.702-11.002-4.891v9.969c3.971,1.595,7.678,2.8,11.125,3.613c3.458,0.814,6.62,1.221,9.485,1.221
								c7.552,0,13.574-1.896,18.063-5.672c4.492-3.776,6.734-8.813,6.734-15.129c0-3.003-0.562-5.843-1.688-8.529
								c-1.111-2.677-3.153-5.843-6.124-9.489c-0.81-0.944-3.397-3.678-7.764-8.187C128.698,22.709,122.546,16.402,114.599,8.296"/>
						</g>
					</g>
				</g>
			</g>
			<g id="xtick_4">
				<g id="line2d_7">
					<g>
						<g>
							<path id="mcb557df647_3_" stroke="#000000" stroke-width="0.5" stroke-linejoin="round" d="M243.889,398.52v-4"/>
						</g>
					</g>
				</g>
				<g id="line2d_8">
					<g>
						<g>
							<path id="mdad270ee8e_3_" stroke="#000000" stroke-width="0.5" stroke-linejoin="round" d="M243.889,44.28v4"/>
						</g>
					</g>
				</g>
				<g id="text_4">
					<g transform="translate(235.2234375 411.42625)scale(0.12 -0.12)">
						<g>
							<path id="BitstreamVeraSans-Roman-30_4_" d="M31.781,66.41c-5.07,0-8.891-2.506-11.45-7.503
								c-2.555-4.989-3.829-12.5-3.829-22.534c0-9.985,1.273-17.48,3.829-22.485c2.56-4.997,6.38-7.495,11.45-7.495
								c5.115,0,8.948,2.498,11.499,7.495c2.563,5.005,3.845,12.5,3.845,22.485c0,10.034-1.282,17.546-3.845,22.534
								C40.729,63.904,36.896,66.41,31.781,66.41 M31.781,74.222c8.179,0,14.421-3.239,18.734-9.708
								c4.313-6.454,6.47-15.837,6.47-28.141c0-12.272-2.157-21.639-6.47-28.109C46.202,1.81,39.96-1.42,31.781-1.42
								c-8.167,0-14.404,3.231-18.717,9.684c-4.313,6.47-6.47,15.836-6.47,28.109c0,12.305,2.157,21.688,6.47,28.141
								C17.377,70.984,23.615,74.222,31.781,74.222"/>
						</g>
						<g>
							<path id="BitstreamVeraSans-Roman-2e_3_" d="M74.311,12.406h10.315V0.004H74.311V12.406z"/>
						</g>
						<g>
							<path id="BitstreamVeraSans-Roman-33" d="M135.989,39.31c4.72-1.009,8.402-3.109,11.047-6.307
								c2.657-3.19,3.983-7.129,3.983-11.816c0-7.186-2.474-12.752-7.422-16.699c-4.948-3.939-11.979-5.908-21.094-5.908
								c-3.052,0-6.197,0.301-9.436,0.903c-3.239,0.602-6.583,1.514-10.03,2.718v9.521c2.726-1.595,5.717-2.799,8.968-3.613
								c3.259-0.814,6.665-1.221,10.217-1.221c6.177,0,10.885,1.221,14.124,3.662c3.243,2.433,4.863,5.981,4.863,10.636
								c0,4.305-1.506,7.658-4.517,10.075c-3.011,2.433-7.198,3.646-12.561,3.646h-8.5v8.105h8.891
								c4.842,0,8.549,0.969,11.125,2.905c2.572,1.937,3.857,4.736,3.857,8.382c0,3.735-1.327,6.608-3.983,8.602
								c-2.645,2.01-6.441,3.019-11.389,3.019c-2.71,0-5.611-0.293-8.704-0.887c-3.097-0.586-6.499-1.489-10.205-2.726v8.789
								c3.751,1.042,7.263,1.823,10.53,2.344c3.271,0.521,6.356,0.781,9.253,0.781c7.487,0,13.412-1.709,17.766-5.111
								c4.362-3.402,6.547-7.991,6.547-13.786c0-4.036-1.156-7.454-3.471-10.229C143.537,42.313,140.249,40.385,135.989,39.31"/>
						</g>
					</g>
				</g>
			</g>
			<g id="xtick_5">
				<g id="line2d_9">
					<g>
						<g>
							<path id="mcb557df647_4_" stroke="#000000" stroke-width="0.5" stroke-linejoin="round" d="M300.735,398.52v-4"/>
						</g>
					</g>
				</g>
				<g id="line2d_10">
					<g>
						<g>
							<path id="mdad270ee8e_4_" stroke="#000000" stroke-width="0.5" stroke-linejoin="round" d="M300.735,44.28v4"/>
						</g>
					</g>
				</g>
				<g id="text_5">
					<g transform="translate(291.9253125 411.42625)scale(0.12 -0.12)">
						<g>
							<path id="BitstreamVeraSans-Roman-30_5_" d="M31.784,66.41c-5.07,0-8.895-2.506-11.45-7.503
								c-2.555-4.989-3.833-12.5-3.833-22.534c0-9.985,1.278-17.48,3.833-22.485c2.555-4.997,6.38-7.495,11.45-7.495
								c5.111,0,8.944,2.498,11.499,7.495c2.563,5.005,3.841,12.5,3.841,22.485c0,10.034-1.278,17.546-3.841,22.534
								C40.728,63.904,36.895,66.41,31.784,66.41 M31.784,74.222c8.179,0,14.42-3.239,18.734-9.708
								c4.313-6.454,6.47-15.837,6.47-28.141c0-12.272-2.157-21.639-6.47-28.109C46.205,1.81,39.963-1.42,31.784-1.42
								c-8.17,0-14.413,3.231-18.722,9.684C8.75,14.734,6.597,24.1,6.597,36.373c0,12.305,2.152,21.688,6.465,28.141
								C17.372,70.984,23.614,74.222,31.784,74.222"/>
						</g>
						<g>
							<path id="BitstreamVeraSans-Roman-2e_4_" d="M74.313,12.406h10.311V0.004H74.313V12.406z"/>
						</g>
						<g>
							<path id="BitstreamVeraSans-Roman-34" d="M133.208,64.31l-24.902-38.916h24.902V64.31z M130.612,72.904h12.411v-47.51h10.4
								v-8.203h-10.4V0.004h-9.814v17.188h-32.91v9.513L130.612,72.904z"/>
						</g>
					</g>
				</g>
			</g>
			<g id="xtick_6">
				<g id="line2d_11">
					<g>
						<g>
							<path id="mcb557df647_5_" stroke="#000000" stroke-width="0.5" stroke-linejoin="round" d="M357.581,398.52v-4"/>
						</g>
					</g>
				</g>
				<g id="line2d_12">
					<g>
						<g>
							<path id="mdad270ee8e_5_" stroke="#000000" stroke-width="0.5" stroke-linejoin="round" d="M357.581,44.28v4"/>
						</g>
					</g>
				</g>
				<g id="text_6">
					<g transform="translate(348.9590625 411.42625)scale(0.12 -0.12)">
						<g>
							<path id="BitstreamVeraSans-Roman-30_6_" d="M31.789,66.41c-5.078,0-8.896-2.506-11.459-7.503
								c-2.555-4.989-3.824-12.5-3.824-22.534c0-9.985,1.27-17.48,3.824-22.485c2.563-4.997,6.381-7.495,11.459-7.495
								c5.11,0,8.943,2.498,11.49,7.495c2.572,5.005,3.85,12.5,3.85,22.485c0,10.034-1.277,17.546-3.85,22.534
								C40.732,63.904,36.899,66.41,31.789,66.41 M31.789,74.222c8.17,0,14.42-3.239,18.733-9.708
								c4.313-6.454,6.462-15.837,6.462-28.141c0-12.272-2.148-21.639-6.462-28.109C46.209,1.81,39.959-1.42,31.789-1.42
								c-8.171,0-14.413,3.231-18.726,9.684c-4.306,6.47-6.47,15.836-6.47,28.109c0,12.305,2.164,21.688,6.47,28.141
								C17.376,70.984,23.618,74.222,31.789,74.222"/>
						</g>
						<g>
							<path id="BitstreamVeraSans-Roman-2e_5_" d="M74.318,12.406h10.303V0.004H74.318V12.406z"/>
						</g>
						<g>
							<path id="BitstreamVeraSans-Roman-35" d="M106.211,72.904h38.713v-8.309h-29.688V46.732c1.432,0.488,2.864,0.854,4.28,1.099
								c1.448,0.236,2.881,0.358,4.313,0.358c8.138,0,14.583-2.23,19.336-6.689c4.752-4.46,7.137-10.498,7.137-18.107
								c0-7.845-2.441-13.948-7.332-18.302c-4.883-4.338-11.768-6.51-20.654-6.51c-3.061,0-6.186,0.26-9.359,0.781
								c-3.165,0.521-6.445,1.302-9.83,2.344v9.92c2.93-1.595,5.957-2.783,9.082-3.564s6.429-1.172,9.912-1.172
								c5.631,0,10.091,1.481,13.37,4.443c3.296,2.954,4.94,6.974,4.94,12.061c0,5.07-1.645,9.09-4.94,12.044
								c-3.279,2.97-7.739,4.451-13.37,4.451c-2.637,0-5.273-0.293-7.895-0.871c-2.62-0.586-5.289-1.497-8.016-2.734V72.904z"/>
						</g>
					</g>
				</g>
			</g>
			<g id="xtick_7">
				<g id="line2d_13">
					<g>
						<g>
							<path id="mcb557df647_6_" stroke="#000000" stroke-width="0.5" stroke-linejoin="round" d="M414.428,398.52v-4"/>
						</g>
					</g>
				</g>
				<g id="line2d_14">
					<g>
						<g>
							<path id="mdad270ee8e_6_" stroke="#000000" stroke-width="0.5" stroke-linejoin="round" d="M414.428,44.28v4"/>
						</g>
					</g>
				</g>
				<g id="text_7">
					<g transform="translate(405.6590625 411.42625)scale(0.12 -0.12)">
						<g>
							<path id="BitstreamVeraSans-Roman-30_7_" d="M31.783,66.41c-5.07,0-8.887-2.506-11.45-7.503
								c-2.556-4.989-3.833-12.5-3.833-22.534c0-9.985,1.277-17.48,3.833-22.485c2.563-4.997,6.38-7.495,11.45-7.495
								c5.119,0,8.952,2.498,11.499,7.495c2.563,5.005,3.85,12.5,3.85,22.485c0,10.034-1.286,17.546-3.85,22.534
								C40.735,63.904,36.902,66.41,31.783,66.41 M31.783,74.222c8.179,0,14.421-3.239,18.733-9.708
								c4.313-6.454,6.47-15.837,6.47-28.141c0-12.272-2.156-21.639-6.47-28.109C46.204,1.81,39.962-1.42,31.783-1.42
								c-8.162,0-14.404,3.231-18.718,9.684c-4.313,6.47-6.47,15.836-6.47,28.109c0,12.305,2.157,21.688,6.47,28.141
								C17.379,70.984,23.621,74.222,31.783,74.222"/>
						</g>
						<g>
							<path id="BitstreamVeraSans-Roman-2e_6_" d="M74.313,12.406h10.311V0.004H74.313V12.406z"/>
						</g>
						<g>
							<path id="BitstreamVeraSans-Roman-36" d="M128.431,40.376c-4.428,0-7.943-1.514-10.531-4.549
								c-2.588-3.019-3.873-7.17-3.873-12.435c0-5.241,1.285-9.391,3.873-12.443c2.588-3.036,6.104-4.557,10.531-4.557
								c4.427,0,7.935,1.522,10.514,4.557c2.58,3.052,3.874,7.202,3.874,12.443c0,5.265-1.294,9.416-3.874,12.435
								C136.365,38.863,132.857,40.376,128.431,40.376 M148.011,71.293v-8.984c-2.482,1.172-4.98,2.059-7.504,2.677
								c-2.522,0.627-5.021,0.936-7.503,0.936c-6.511,0-11.482-2.197-14.917-6.592c-3.426-4.395-5.388-11.035-5.876-19.922
								c1.913,2.832,4.321,5.005,7.219,6.51c2.905,1.514,6.096,2.271,9.578,2.271c7.324,0,13.11-2.222,17.358-6.673
								c4.248-4.435,6.372-10.482,6.372-18.124c0-7.495-2.213-13.501-6.641-18.034c-4.427-4.517-10.311-6.779-17.667-6.779
								c-8.439,0-14.885,3.231-19.345,9.684c-4.459,6.47-6.689,15.836-6.689,28.109c0,11.523,2.734,20.711,8.203,27.563
								s12.81,10.286,22.014,10.286c2.482,0,4.98-0.252,7.503-0.74C142.64,72.994,145.268,72.269,148.011,71.293"/>
						</g>
					</g>
				</g>
			</g>
			<g id="xtick_8">
				<g id="line2d_15">
					<g>
						<g>
							<path id="mcb557df647_7_" stroke="#000000" stroke-width="0.5" stroke-linejoin="round" d="M471.274,398.52v-4"/>
						</g>
					</g>
				</g>
				<g id="line2d_16">
					<g>
						<g>
							<path id="mdad270ee8e_7_" stroke="#000000" stroke-width="0.5" stroke-linejoin="round" d="M471.274,44.28v4"/>
						</g>
					</g>
				</g>
				<g id="text_8">
					<g transform="translate(462.6403125 411.42625)scale(0.12 -0.12)">
						<g>
							<path id="BitstreamVeraSans-Roman-30_8_" d="M31.786,66.41c-5.07,0-8.896-2.506-11.45-7.503
								c-2.556-4.989-3.833-12.5-3.833-22.534c0-9.985,1.277-17.48,3.833-22.485c2.555-4.997,6.38-7.495,11.45-7.495
								c5.118,0,8.943,2.498,11.499,7.495c2.563,5.005,3.841,12.5,3.841,22.485c0,10.034-1.277,17.546-3.841,22.534
								C40.729,63.904,36.904,66.41,31.786,66.41 M31.786,74.222c8.179,0,14.42-3.239,18.733-9.708
								c4.313-6.454,6.47-15.837,6.47-28.141c0-12.272-2.156-21.639-6.47-28.109C46.206,1.81,39.965-1.42,31.786-1.42
								c-8.163,0-14.404,3.231-18.718,9.684c-4.313,6.47-6.47,15.836-6.47,28.109c0,12.305,2.156,21.688,6.47,28.141
								C17.382,70.984,23.623,74.222,31.786,74.222"/>
						</g>
						<g>
							<path id="BitstreamVeraSans-Roman-2e_7_" d="M74.315,12.406h10.311V0.004H74.315V12.406z"/>
						</g>
						<g>
							<path id="BitstreamVeraSans-Roman-37" d="M103.62,72.904h46.875v-4.199L124.022,0.004h-10.295l24.902,64.592h-35.01V72.904z"
								/>
						</g>
					</g>
				</g>
			</g>
			<g id="xtick_9">
				<g id="line2d_17">
					<g>
						<g>
							<path id="mcb557df647_8_" stroke="#000000" stroke-width="0.5" stroke-linejoin="round" d="M528.121,398.52v-4"/>
						</g>
					</g>
				</g>
				<g id="line2d_18">
					<g>
						<g>
							<path id="mdad270ee8e_8_" stroke="#000000" stroke-width="0.5" stroke-linejoin="round" d="M528.121,44.28v4"/>
						</g>
					</g>
				</g>
				<g id="text_9">
					<g transform="translate(519.384375 411.42625)scale(0.12 -0.12)">
						<g>
							<path id="BitstreamVeraSans-Roman-30_9_" d="M31.786,66.41c-5.069,0-8.895-2.506-11.45-7.503
								c-2.555-4.989-3.833-12.5-3.833-22.534c0-9.985,1.278-17.48,3.833-22.485c2.556-4.997,6.381-7.495,11.45-7.495
								c5.111,0,8.944,2.498,11.499,7.495c2.563,5.005,3.842,12.5,3.842,22.485c0,10.034-1.278,17.546-3.842,22.534
								C40.73,63.904,36.897,66.41,31.786,66.41 M31.786,74.222c8.179,0,14.421-3.239,18.734-9.708
								c4.313-6.454,6.47-15.837,6.47-28.141c0-12.272-2.157-21.639-6.47-28.109C46.207,1.81,39.965-1.42,31.786-1.42
								c-8.17,0-14.404,3.231-18.717,9.684C8.756,14.734,6.6,24.1,6.6,36.373c0,12.305,2.156,21.688,6.47,28.141
								C17.382,70.984,23.616,74.222,31.786,74.222"/>
						</g>
						<g>
							<path id="BitstreamVeraSans-Roman-2e_8_" d="M74.315,12.406h10.312V0.004H74.315V12.406z"/>
						</g>
						<g>
							<path id="BitstreamVeraSans-Roman-38" d="M127.196,34.623c-4.688,0-8.374-1.253-11.06-3.76
								c-2.677-2.515-4.02-5.965-4.02-10.352c0-4.395,1.343-7.845,4.02-10.352c2.686-2.515,6.372-3.768,11.06-3.768
								s8.383,1.261,11.076,3.776c2.71,2.531,4.061,5.981,4.061,10.343c0,4.386-1.343,7.837-4.028,10.352
								C135.628,33.37,131.925,34.623,127.196,34.623 M117.333,38.814c-4.224,1.042-7.52,3.011-9.888,5.908
								c-2.352,2.905-3.531,6.437-3.531,10.604c0,5.827,2.075,10.433,6.217,13.818c4.159,3.385,9.848,5.078,17.065,5.078
								c7.26,0,12.956-1.693,17.09-5.078c4.143-3.385,6.21-7.991,6.21-13.818c0-4.167-1.188-7.698-3.549-10.604
								c-2.359-2.897-5.631-4.866-9.83-5.908c4.752-1.107,8.447-3.271,11.092-6.502c2.661-3.215,3.987-7.153,3.987-11.8
								c0-7.072-2.156-12.5-6.47-16.276c-4.313-3.776-10.489-5.656-18.53-5.656c-8.032,0-14.209,1.88-18.53,5.656
								c-4.313,3.776-6.47,9.204-6.47,16.276c0,4.647,1.335,8.586,3.996,11.8C108.87,35.542,112.589,37.707,117.333,38.814
								 M113.729,54.39c0-3.768,1.172-6.714,3.531-8.83c2.36-2.116,5.673-3.174,9.937-3.174c4.24,0,7.553,1.058,9.937,3.174
								c2.393,2.116,3.598,5.062,3.598,8.83c0,3.784-1.205,6.73-3.598,8.846c-2.384,2.116-5.696,3.174-9.937,3.174
								c-4.264,0-7.576-1.058-9.937-3.174C114.9,61.12,113.729,58.174,113.729,54.39"/>
						</g>
					</g>
				</g>
			</g>
		</g>
		<g id="matplotlib.axis_2">
			<g id="ytick_1">
				<g id="line2d_19">
					<g>
						<g>
							<path id="mc8fcea1516" stroke="#000000" stroke-width="0.5" stroke-linejoin="round" d="M73.351,398.52h4"/>
						</g>
					</g>
				</g>
				<g id="line2d_20">
					<g>
						<g>
							<path id="m0d5b0a6425" stroke="#000000" stroke-width="0.5" stroke-linejoin="round" d="M528.121,398.52h-4"/>
						</g>
					</g>
				</g>
				<g id="text_10">
					<g transform="translate(63.303125 402.8878125)scale(0.12 -0.12)">
						<g>
							<path id="BitstreamVeraSans-Roman-30_10_" d="M31.785,66.407c-5.07,0-8.891-2.499-11.45-7.503
								c-2.555-4.989-3.829-12.5-3.829-22.526c0-9.994,1.273-17.489,3.829-22.485c2.56-5.005,6.38-7.503,11.45-7.503
								c5.115,0,8.948,2.499,11.503,7.503c2.559,4.997,3.841,12.492,3.841,22.485c0,10.026-1.282,17.537-3.841,22.526
								C40.733,63.909,36.9,66.407,31.785,66.407 M31.785,74.22c8.179,0,14.425-3.239,18.738-9.701
								c4.309-6.461,6.466-15.845,6.466-28.141c0-12.272-2.157-21.647-6.466-28.109C46.21,1.808,39.964-1.423,31.785-1.423
								c-8.167,0-14.404,3.231-18.717,9.692c-4.313,6.462-6.47,15.837-6.47,28.109c0,12.296,2.157,21.68,6.47,28.141
								C17.381,70.981,23.619,74.22,31.785,74.22"/>
						</g>
					</g>
				</g>
			</g>
			<g id="ytick_2">
				<g id="line2d_21">
					<g>
						<g>
							<path id="mc8fcea1516_1_" stroke="#000000" stroke-width="0.5" stroke-linejoin="round" d="M73.351,347.914h4"/>
						</g>
					</g>
				</g>
				<g id="line2d_22">
					<g>
						<g>
							<path id="m0d5b0a6425_1_" stroke="#000000" stroke-width="0.5" stroke-linejoin="round" d="M528.121,347.914h-4"/>
						</g>
					</g>
				</g>
				<g id="text_11">
					<g transform="translate(64.14125 352.288660714)scale(0.12 -0.12)">
						<g>
							<path id="BitstreamVeraSans-Roman-31_1_" d="M12.411,8.298h16.109v55.623l-17.529-3.516v8.984l17.436,3.516h9.859V8.298
								h16.109v-8.301H12.411V8.298z"/>
						</g>
					</g>
				</g>
			</g>
			<g id="ytick_3">
				<g id="line2d_23">
					<g>
						<g>
							<path id="mc8fcea1516_2_" stroke="#000000" stroke-width="0.5" stroke-linejoin="round" d="M73.351,297.309h4"/>
						</g>
					</g>
				</g>
				<g id="line2d_24">
					<g>
						<g>
							<path id="m0d5b0a6425_2_" stroke="#000000" stroke-width="0.5" stroke-linejoin="round" d="M528.121,297.309h-4"/>
						</g>
					</g>
				</g>
				<g id="text_12">
					<g transform="translate(63.79625 301.761696429)scale(0.12 -0.12)">
						<g>
							<path id="BitstreamVeraSans-Roman-32_1_" d="M19.193,8.301h34.424V0H7.336v8.301c3.739,3.874,8.838,9.065,15.295,15.592
								c6.47,6.527,10.531,10.742,12.187,12.638c3.158,3.54,5.359,6.543,6.612,9.001c1.257,2.458,1.888,4.875,1.888,7.251
								c0,3.874-1.359,7.031-4.077,9.464c-2.718,2.45-6.262,3.67-10.625,3.67c-3.092,0-6.36-0.537-9.798-1.604
								c-3.426-1.074-7.092-2.71-10.999-4.891v9.961c3.967,1.595,7.678,2.799,11.125,3.613c3.458,0.813,6.62,1.221,9.485,1.221
								c7.552,0,13.57-1.888,18.063-5.672c4.488-3.768,6.734-8.813,6.734-15.128c0-2.995-0.562-5.843-1.688-8.529
								c-1.115-2.677-3.158-5.843-6.124-9.489c-0.813-0.944-3.401-3.67-7.768-8.187C33.292,22.705,27.144,16.406,19.193,8.301"/>
						</g>
					</g>
				</g>
			</g>
			<g id="ytick_4">
				<g id="line2d_25">
					<g>
						<g>
							<path id="mc8fcea1516_3_" stroke="#000000" stroke-width="0.5" stroke-linejoin="round" d="M73.351,246.703h4"/>
						</g>
					</g>
				</g>
				<g id="line2d_26">
					<g>
						<g>
							<path id="m0d5b0a6425_3_" stroke="#000000" stroke-width="0.5" stroke-linejoin="round" d="M528.121,246.703h-4"/>
						</g>
					</g>
				</g>
				<g id="text_13">
					<g transform="translate(63.591875 251.070669643)scale(0.12 -0.12)">
						<g>
							<path id="BitstreamVeraSans-Roman-33_1_" d="M40.587,39.31c4.716-1.009,8.398-3.109,11.047-6.315
								c2.653-3.182,3.984-7.121,3.984-11.809c0-7.186-2.474-12.752-7.422-16.707c-4.948-3.931-11.979-5.9-21.094-5.9
								c-3.052,0-6.197,0.301-9.44,0.903C14.423,0.084,11.079,0.996,7.632,2.2v9.521c2.73-1.595,5.721-2.799,8.968-3.613
								c3.264-0.814,6.669-1.221,10.222-1.221c6.177,0,10.884,1.221,14.124,3.662c3.239,2.433,4.858,5.981,4.858,10.636
								c0,4.305-1.506,7.658-4.517,10.083c-3.007,2.425-7.198,3.638-12.561,3.638h-8.5v8.114h8.891c4.842,0,8.553,0.96,11.125,2.897
								c2.572,1.937,3.861,4.736,3.861,8.382c0,3.735-1.331,6.608-3.987,8.61c-2.645,2.002-6.441,3.011-11.389,3.011
								c-2.71,0-5.607-0.293-8.704-0.895c-3.093-0.578-6.494-1.481-10.201-2.718v8.789c3.748,1.042,7.259,1.823,10.531,2.344
								s6.352,0.781,9.249,0.781c7.491,0,13.412-1.709,17.766-5.111c4.366-3.401,6.547-7.991,6.547-13.786
								c0-4.037-1.156-7.455-3.467-10.229C48.131,42.313,44.847,40.384,40.587,39.31"/>
						</g>
					</g>
				</g>
			</g>
			<g id="ytick_5">
				<g id="line2d_27">
					<g>
						<g>
							<path id="mc8fcea1516_4_" stroke="#000000" stroke-width="0.5" stroke-linejoin="round" d="M73.351,196.097h4"/>
						</g>
					</g>
				</g>
				<g id="line2d_28">
					<g>
						<g>
							<path id="m0d5b0a6425_4_" stroke="#000000" stroke-width="0.5" stroke-linejoin="round" d="M528.121,196.097h-4"/>
						</g>
					</g>
				</g>
				<g id="text_14">
					<g transform="translate(62.975 200.471517857)scale(0.12 -0.12)">
						<g>
							<path id="BitstreamVeraSans-Roman-34_1_" d="M37.806,64.313L12.899,25.389h24.906V64.313z M35.21,72.907h12.406V25.389
								h10.409v-8.203H47.616V-0.001h-9.811v17.188H4.9v9.518L35.21,72.907z"/>
						</g>
					</g>
				</g>
			</g>
			<g id="ytick_6">
				<g id="line2d_29">
					<g>
						<g>
							<path id="mc8fcea1516_5_" stroke="#000000" stroke-width="0.5" stroke-linejoin="round" d="M73.351,145.491h4"/>
						</g>
					</g>
				</g>
				<g id="line2d_30">
					<g>
						<g>
							<path id="m0d5b0a6425_5_" stroke="#000000" stroke-width="0.5" stroke-linejoin="round" d="M528.121,145.491h-4"/>
						</g>
					</g>
				</g>
				<g id="text_15">
					<g transform="translate(63.689375 149.780491071)scale(0.12 -0.12)">
						<g>
							<path id="BitstreamVeraSans-Roman-35_1_" d="M10.804,72.907h38.721v-8.313H19.837V46.735
								c1.428,0.488,2.853,0.854,4.281,1.094c1.436,0.24,2.876,0.358,4.313,0.358c8.134,0,14.579-2.23,19.328-6.689
								C52.52,37.042,54.9,31.004,54.9,23.391c0-7.845-2.441-13.944-7.328-18.298C42.685,0.751,35.8-1.422,26.914-1.422
								c-3.06,0-6.181,0.26-9.359,0.781c-3.166,0.521-6.441,1.302-9.827,2.344v9.92c2.926-1.591,5.953-2.779,9.078-3.56
								s6.425-1.172,9.904-1.172c5.636,0,10.095,1.477,13.379,4.439c3.288,2.954,4.936,6.979,4.936,12.061
								c0,5.074-1.648,9.09-4.936,12.048c-3.284,2.966-7.743,4.452-13.379,4.452c-2.633,0-5.265-0.293-7.89-0.875
								c-2.612-0.582-5.286-1.493-8.016-2.734V72.907z"/>
						</g>
					</g>
				</g>
			</g>
			<g id="ytick_7">
				<g id="line2d_31">
					<g>
						<g>
							<path id="mc8fcea1516_6_" stroke="#000000" stroke-width="0.5" stroke-linejoin="round" d="M73.351,94.886h4"/>
						</g>
					</g>
				</g>
				<g id="line2d_32">
					<g>
						<g>
							<path id="m0d5b0a6425_6_" stroke="#000000" stroke-width="0.5" stroke-linejoin="round" d="M528.121,94.886h-4"/>
						</g>
					</g>
				</g>
				<g id="text_16">
					<g transform="translate(63.30875 99.2535267857)scale(0.12 -0.12)">
						<g>
							<path id="BitstreamVeraSans-Roman-36_1_" d="M33.024,40.375c-4.427,0-7.935-1.514-10.53-4.545
								c-2.584-3.019-3.874-7.166-3.874-12.439c0-5.237,1.29-9.383,3.874-12.435c2.596-3.044,6.104-4.565,10.53-4.565
								c4.427,0,7.935,1.521,10.519,4.565c2.584,3.052,3.874,7.198,3.874,12.435c0,5.273-1.29,9.42-3.874,12.439
								C40.958,38.861,37.451,40.375,33.024,40.375 M52.604,71.299v-8.984c-2.482,1.164-4.98,2.055-7.499,2.669
								c-2.523,0.626-5.021,0.94-7.503,0.94c-6.51,0-11.482-2.197-14.921-6.596c-3.426-4.395-5.383-11.035-5.875-19.922
								c1.917,2.836,4.325,5.005,7.218,6.515c2.909,1.514,6.1,2.267,9.579,2.267c7.324,0,13.11-2.222,17.362-6.669
								c4.248-4.439,6.372-10.481,6.372-18.127c0-7.487-2.213-13.497-6.641-18.03C46.269,0.84,40.381-1.422,33.024-1.422
								c-8.435,0-14.884,3.23-19.344,9.688c-4.456,6.47-6.686,15.841-6.686,28.109c0,11.523,2.734,20.711,8.203,27.563
								s12.805,10.282,22.013,10.282c2.482,0,4.98-0.244,7.503-0.736C47.233,72.996,49.862,72.268,52.604,71.299"/>
						</g>
					</g>
				</g>
			</g>
			<g id="ytick_8">
				<g id="line2d_33">
					<g>
						<g>
							<path id="mc8fcea1516_7_" stroke="#000000" stroke-width="0.5" stroke-linejoin="round" d="M73.351,44.28h4"/>
						</g>
					</g>
				</g>
				<g id="line2d_34">
					<g>
						<g>
							<path id="m0d5b0a6425_7_" stroke="#000000" stroke-width="0.5" stroke-linejoin="round" d="M528.121,44.28h-4"/>
						</g>
					</g>
				</g>
				<g id="text_17">
					<g transform="translate(63.725 48.654375)scale(0.12 -0.12)">
						<g>
							<path id="BitstreamVeraSans-Roman-37_1_" d="M8.214,72.907h46.875v-4.204L28.621,0.002H18.322l24.906,64.592H8.214V72.907z"
								/>
						</g>
					</g>
				</g>
			</g>
		</g>
		<g id="patch_53">
			<path fill="none" stroke="#000000" stroke-linecap="square" stroke-linejoin="round" d="M73.351,44.28h454.77"/>
		</g>
		<g id="patch_54">
			<path fill="none" stroke="#000000" stroke-linecap="square" stroke-linejoin="round" d="M528.121,398.519V44.28"/>
		</g>
		<g id="patch_55">
			<path fill="none" stroke="#000000" stroke-linecap="square" stroke-linejoin="round" d="M73.351,398.519h454.77"/>
		</g>
		<g id="patch_56">
			<path fill="none" stroke="#000000" stroke-linecap="square" stroke-linejoin="round" d="M73.351,398.519V44.28"/>
		</g>
		<g id="text_18">
			<g transform="translate(189.78075 39.28)scale(0.144 -0.144)">
				<g>
					<path id="BitstreamVeraSans-Roman-55" d="M8.696,72.906h9.922V28.612c0-7.813,1.41-13.438,4.235-16.876
						c2.835-3.428,7.426-5.141,13.78-5.141c6.314,0,10.885,1.712,13.72,5.141c2.834,3.438,4.249,9.063,4.249,16.876v44.294h9.908
						V27.391c0-9.498-2.357-16.676-7.063-21.532c-4.7-4.853-11.634-7.28-20.813-7.28c-9.22,0-16.181,2.428-20.891,7.28
						c-4.696,4.855-7.046,12.034-7.046,21.532V72.906z"/>
				</g>
				<g>
					<path id="BitstreamVeraSans-Roman-6e" d="M128.091,33.017V0h-8.982v32.722c0,5.174-1.01,9.047-3.031,11.607
						c-2.021,2.573-5.045,3.862-9.077,3.862c-4.856,0-8.684-1.549-11.485-4.642c-2.804-3.082-4.205-7.297-4.205-12.641V0h-9.03
						v54.688h9.03V46.19c2.156,3.289,4.689,5.751,7.595,7.375c2.916,1.625,6.28,2.438,10.095,2.438c6.28,0,11.03-1.943,14.248-5.829
						C126.477,46.289,128.091,40.568,128.091,33.017"/>
				</g>
				<g>
					<path id="BitstreamVeraSans-Roman-69" d="M146.002,54.688h8.985V0h-8.985V54.688z M146.002,75.985h8.985v-11.39h-8.985V75.985z
						"/>
				</g>
				<g>
					<path id="BitstreamVeraSans-Roman-46" d="M174.176,72.906h41.891v-8.311h-32.03V43.111h28.907v-8.298h-28.907V0h-9.86V72.906z"
						/>
				</g>
				<g>
					<path id="BitstreamVeraSans-Roman-72" d="M255.743,46.298c-1.011,0.583-2.109,1.011-3.296,1.282
						c-1.187,0.282-2.496,0.42-3.923,0.42c-5.083,0-8.982-1.651-11.702-4.95c-2.72-3.303-4.08-8.05-4.08-14.235V0h-9.03v54.688h9.03
						V46.19c1.896,3.323,4.354,5.785,7.375,7.389c3.031,1.618,6.714,2.424,11.047,2.424c0.614,0,1.295-0.044,2.048-0.125
						c0.75-0.074,1.577-0.193,2.482-0.359L255.743,46.298z"/>
				</g>
				<g>
					<path id="BitstreamVeraSans-Roman-61" d="M290.028,27.486c-7.26,0-12.292-0.828-15.093-2.486
						c-2.801-1.655-4.205-4.489-4.205-8.5c0-3.188,1.055-5.717,3.157-7.592c2.106-1.865,4.958-2.797,8.562-2.797
						c4.991,0,8.993,1.767,12,5.296c3.011,3.533,4.517,8.226,4.517,14.079v2.001H290.028z M307.952,31.206V0h-8.986v8.297
						c-2.051-3.313-4.608-5.761-7.673-7.341c-3.062-1.583-6.805-2.377-11.234-2.377c-5.591,0-10.047,1.573-13.356,4.72
						c-3.303,3.143-4.954,7.354-4.954,12.624c0,6.144,2.058,10.783,6.171,13.906c4.124,3.126,10.271,4.689,18.436,4.689h12.61v0.889
						c0,4.137-1.359,7.334-4.079,9.596c-2.719,2.258-6.534,3.391-11.451,3.391c-3.126,0-6.175-0.376-9.142-1.126
						c-2.96-0.752-5.802-1.875-8.532-3.377v8.314c3.283,1.271,6.47,2.217,9.563,2.841c3.096,0.638,6.104,0.956,9.03,0.956
						c7.917,0,13.831-2.055,17.737-6.158C305.999,45.752,307.952,39.537,307.952,31.206"/>
				</g>
				<g>
					<path id="BitstreamVeraSans-Roman-63" d="M365.806,52.595v-8.406c-2.54,1.407-5.086,2.458-7.639,3.157
						c-2.55,0.699-5.13,1.048-7.735,1.048c-5.832,0-10.366-1.852-13.594-5.547c-3.218-3.689-4.829-8.871-4.829-15.547
						c0-6.677,1.611-11.865,4.829-15.564c3.228-3.686,7.762-5.531,13.594-5.531c2.604,0,5.185,0.349,7.735,1.048
						c2.553,0.695,5.1,1.75,7.639,3.153V2.096c-2.509-1.167-5.106-2.042-7.795-2.625c-2.679-0.594-5.53-0.892-8.562-0.892
						c-8.24,0-14.787,2.591-19.64,7.765c-4.846,5.178-7.267,12.163-7.267,20.956c0,8.915,2.448,15.927,7.345,21.03
						c4.903,5.113,11.624,7.673,20.155,7.673c2.76,0,5.459-0.288,8.094-0.861C360.771,54.579,363.328,53.731,365.806,52.595"/>
				</g>
				<g>
					<path id="BitstreamVeraSans-Roman-2d" d="M376.898,31.393h26.313v-7.999h-26.313V31.393z"/>
				</g>
				<g>
					<path id="BitstreamVeraSans-Roman-74" d="M426.404,70.221V54.688h18.5v-6.982h-18.5V18.019c0-4.459,0.61-7.324,1.828-8.596
						c1.217-1.271,3.703-1.905,7.453-1.905h9.22V0h-9.22c-6.938,0-11.722,1.292-14.36,3.875c-2.635,2.594-3.954,7.308-3.954,14.144
						v29.687h-6.592v6.982h6.592v15.533H426.404z"/>
				</g>
				<g>
					<path id="BitstreamVeraSans-Roman-65" d="M503.505,29.595v-4.391h-41.314c0.397-6.188,2.258-10.901,5.595-14.14
						c3.333-3.238,7.979-4.859,13.936-4.859c3.449,0,6.792,0.42,10.03,1.265c3.242,0.845,6.459,2.116,9.657,3.815V2.784
						c-3.228-1.366-6.538-2.407-9.922-3.126c-3.384-0.719-6.819-1.078-10.298-1.078c-8.728,0-15.639,2.537-20.735,7.609
						c-5.093,5.083-7.64,11.96-7.64,20.627c0,8.948,2.417,16.045,7.25,21.294c4.835,5.262,11.356,7.894,19.562,7.894
						c7.354,0,13.173-2.37,17.456-7.11C501.362,44.162,503.505,37.73,503.505,29.595 M494.52,32.237
						c-0.061,4.906-1.438,8.823-4.127,11.749c-2.686,2.937-6.243,4.408-10.671,4.408c-5.012,0-9.02-1.417-12.031-4.252
						c-3.011-2.835-4.744-6.823-5.202-11.97L494.52,32.237z"/>
				</g>
				<g>
					<path id="BitstreamVeraSans-Roman-73" d="M553.106,53.08v-8.5c-2.533,1.302-5.168,2.275-7.908,2.923
						c-2.729,0.654-5.561,0.983-8.501,0.983c-4.458,0-7.802-0.682-10.03-2.045c-2.231-1.367-3.343-3.418-3.343-6.158
						c0-2.082,0.797-3.72,2.39-4.907c1.594-1.187,4.802-2.316,9.624-3.391l3.079-0.688c6.375-1.363,10.905-3.289,13.594-5.781
						c2.689-2.489,4.032-5.961,4.032-10.42c0-5.083-2.011-9.111-6.033-12.079c-4.021-2.96-9.545-4.438-16.578-4.438
						c-2.926,0-5.978,0.288-9.155,0.861s-6.521,1.428-10.03,2.56v9.284c3.32-1.729,6.592-3.028,9.81-3.893
						c3.218-0.854,6.412-1.282,9.579-1.282c4.228,0,7.48,0.726,9.749,2.173c2.282,1.448,3.421,3.489,3.421,6.124
						c0,2.438-0.821,4.306-2.469,5.608c-1.634,1.302-5.239,2.56-10.81,3.767l-3.126,0.732c-5.561,1.167-9.583,2.964-12.062,5.392
						c-2.468,2.428-3.703,5.758-3.703,9.986c0,5.144,1.821,9.115,5.469,11.905c3.646,2.801,8.823,4.205,15.53,4.205
						c3.313,0,6.432-0.248,9.359-0.736C547.932,54.789,550.638,54.06,553.106,53.08"/>
				</g>
				<g>
					<path id="BitstreamVeraSans-Roman-74_1_" d="M579.236,70.221V54.688h18.5v-6.982h-18.5V18.019c0-4.459,0.61-7.324,1.828-8.596
						c1.217-1.271,3.703-1.905,7.453-1.905h9.22V0h-9.22c-6.938,0-11.722,1.292-14.36,3.875c-2.635,2.594-3.954,7.308-3.954,14.144
						v29.687h-6.592v6.982h6.592v15.533H579.236z"/>
				</g>
				<g>
					<path id="BitstreamVeraSans-Roman-20" d="M600.13,0"/>
				</g>
				<g>
					<path id="BitstreamVeraSans-Roman-66" d="M669.029,75.985v-7.483h-8.596c-3.218,0-5.456-0.651-6.717-1.953
						c-1.251-1.302-1.875-3.646-1.875-7.033v-4.829h14.798v-6.982h-14.798V0h-9.03v47.706h-8.596v6.982h8.596v3.814
						c0,6.083,1.414,10.515,4.249,13.296c2.835,2.794,7.324,4.188,13.469,4.188H669.029z"/>
				</g>
				<g>
					<path id="BitstreamVeraSans-Roman-6f" d="M697.732,48.394c-4.812,0-8.62-1.882-11.42-5.643
						c-2.801-3.76-4.205-8.911-4.205-15.452c0-6.541,1.39-11.695,4.174-15.456c2.791-3.761,6.608-5.639,11.451-5.639
						c4.795,0,8.585,1.885,11.376,5.656c2.801,3.781,4.201,8.928,4.201,15.438c0,6.479-1.4,11.613-4.201,15.404
						C706.318,46.495,702.527,48.394,697.732,48.394 M697.732,56.003c7.813,0,13.95-2.543,18.406-7.626
						c4.469-5.073,6.707-12.099,6.707-21.077c0-8.949-2.238-15.975-6.707-21.081c-4.456-5.093-10.593-7.64-18.406-7.64
						c-7.843,0-13.987,2.546-18.436,7.64c-4.438,5.106-6.656,12.132-6.656,21.081c0,8.979,2.218,16.004,6.656,21.077
						C683.745,53.46,689.89,56.003,697.732,56.003"/>
				</g>
				<g>
					<path id="BitstreamVeraSans-Roman-72_1_" d="M769.415,46.298c-1.011,0.583-2.109,1.011-3.296,1.282
						c-1.187,0.282-2.496,0.42-3.927,0.42c-5.08,0-8.979-1.651-11.698-4.95c-2.72-3.303-4.076-8.05-4.076-14.235V0h-9.033v54.688
						h9.033V46.19c1.892,3.323,4.354,5.785,7.372,7.389c3.031,1.618,6.714,2.424,11.047,2.424c0.61,0,1.295-0.044,2.048-0.125
						c0.746-0.074,1.573-0.193,2.482-0.359L769.415,46.298z"/>
				</g>
				<g>
					<path id="BitstreamVeraSans-Roman-20_1_" d="M769.422,0"/>
				</g>
				<g>
					<path id="BitstreamVeraSans-Roman-6c" d="M810.627,75.985h8.986V0h-8.986V75.985z"/>
				</g>
				<g>
					<path id="BitstreamVeraSans-Roman-6f_1_" d="M859.598,48.394c-4.808,0-8.62-1.882-11.42-5.643
						c-2.801-3.76-4.205-8.911-4.205-15.452c0-6.541,1.39-11.695,4.171-15.456c2.794-3.761,6.612-5.639,11.454-5.639
						c4.795,0,8.585,1.885,11.373,5.656c2.808,3.781,4.205,8.928,4.205,15.438c0,6.479-1.397,11.613-4.205,15.404
						C868.183,46.495,864.393,48.394,859.598,48.394 M859.598,56.003c7.813,0,13.95-2.543,18.406-7.626
						c4.469-5.073,6.707-12.099,6.707-21.077c0-8.949-2.238-15.975-6.707-21.081c-4.456-5.093-10.593-7.64-18.406-7.64
						c-7.846,0-13.991,2.546-18.439,7.64c-4.435,5.106-6.653,12.132-6.653,21.081c0,8.979,2.218,16.004,6.653,21.077
						C845.607,53.46,851.751,56.003,859.598,56.003"/>
				</g>
				<g>
					<path id="BitstreamVeraSans-Roman-77" d="M894.374,54.688h8.986l11.23-42.67l11.176,42.67h10.593l11.23-42.67l11.189,42.67
						h8.986L953.45,0h-10.593l-11.759,44.83L919.283,0H908.67L894.374,54.688z"/>
				</g>
				<g>
					<path id="BitstreamVeraSans-Roman-65_1_" d="M1028.163,29.595v-4.391h-41.314c0.4-6.188,2.258-10.901,5.595-14.14
						c3.336-3.238,7.975-4.859,13.936-4.859c3.452,0,6.789,0.42,10.03,1.265c3.242,0.845,6.456,2.116,9.657,3.815V2.784
						c-3.228-1.366-6.538-2.407-9.922-3.126c-3.384-0.719-6.815-1.078-10.301-1.078c-8.721,0-15.639,2.537-20.731,7.609
						c-5.093,5.083-7.643,11.96-7.643,20.627c0,8.948,2.421,16.045,7.256,21.294c4.829,5.262,11.353,7.894,19.559,7.894
						c7.351,0,13.17-2.37,17.456-7.11C1026.021,44.162,1028.163,37.73,1028.163,29.595 M1019.178,32.237
						c-0.061,4.906-1.438,8.823-4.124,11.749c-2.686,2.937-6.246,4.408-10.674,4.408c-5.012,0-9.02-1.417-12.031-4.252
						c-3.011-2.835-4.747-6.823-5.202-11.97L1019.178,32.237z"/>
				</g>
				<g>
					<path id="BitstreamVeraSans-Roman-72_2_" d="M1074.591,46.298c-1.011,0.583-2.109,1.011-3.296,1.282
						c-1.187,0.282-2.496,0.42-3.927,0.42c-5.08,0-8.979-1.651-11.698-4.95c-2.72-3.303-4.076-8.05-4.076-14.235V0h-9.033v54.688
						h9.033V46.19c1.892,3.323,4.354,5.785,7.372,7.389c3.031,1.618,6.714,2.424,11.047,2.424c0.61,0,1.295-0.044,2.048-0.125
						c0.746-0.074,1.573-0.193,2.482-0.359L1074.591,46.298z"/>
				</g>
				<g>
					<path id="BitstreamVeraSans-Roman-20_2_" d="M1074.598,0"/>
				</g>
				<g>
					<path id="BitstreamVeraSans-Roman-65_2_" d="M1162.583,29.595v-4.391h-41.314c0.4-6.188,2.265-10.901,5.602-14.14
						c3.33-3.238,7.976-4.859,13.93-4.859c3.452,0,6.795,0.42,10.037,1.265c3.241,0.845,6.456,2.116,9.657,3.815V2.784
						c-3.228-1.366-6.538-2.407-9.928-3.126c-3.377-0.719-6.815-1.078-10.294-1.078c-8.728,0-15.639,2.537-20.732,7.609
						c-5.093,5.083-7.643,11.96-7.643,20.627c0,8.948,2.414,16.045,7.25,21.294c4.835,5.262,11.359,7.894,19.565,7.894
						c7.352,0,13.17-2.37,17.456-7.11C1160.44,44.162,1162.583,37.73,1162.583,29.595 M1153.604,32.237
						c-0.068,4.906-1.438,8.823-4.123,11.749c-2.692,2.937-6.253,4.408-10.674,4.408c-5.012,0-9.02-1.417-12.031-4.252
						c-3.011-2.835-4.747-6.823-5.208-11.97L1153.604,32.237z"/>
				</g>
				<g>
					<path id="BitstreamVeraSans-Roman-73_1_" d="M1212.184,53.08v-8.5c-2.529,1.302-5.167,2.275-7.907,2.923
						c-2.726,0.654-5.561,0.983-8.498,0.983c-4.456,0-7.799-0.682-10.03-2.045c-2.225-1.367-3.344-3.418-3.344-6.158
						c0-2.082,0.793-3.72,2.394-4.907c1.587-1.187,4.801-2.316,9.623-3.391l3.072-0.688c6.375-1.363,10.912-3.289,13.597-5.781
						c2.692-2.489,4.035-5.961,4.035-10.42c0-5.083-2.014-9.111-6.036-12.079c-4.015-2.96-9.548-4.438-16.574-4.438
						c-2.93,0-5.981,0.288-9.155,0.861c-3.181,0.573-6.524,1.428-10.037,2.56v9.284c3.323-1.729,6.592-3.028,9.813-3.893
						c3.222-0.854,6.409-1.282,9.583-1.282c4.225,0,7.474,0.726,9.752,2.173c2.278,1.448,3.418,3.489,3.418,6.124
						c0,2.438-0.828,4.306-2.469,5.608s-5.242,2.56-10.81,3.767l-3.133,0.732c-5.561,1.167-9.576,2.964-12.058,5.392
						c-2.469,2.428-3.703,5.758-3.703,9.986c0,5.144,1.824,9.115,5.466,11.905c3.648,2.801,8.83,4.205,15.53,4.205
						c3.316,0,6.436-0.248,9.358-0.736C1207.017,54.789,1209.716,54.06,1212.184,53.08"/>
				</g>
				<g>
					<path id="BitstreamVeraSans-Roman-74_2_" d="M1238.321,70.221V54.688h18.5v-6.982h-18.5V18.019c0-4.459,0.61-7.324,1.824-8.596
						c1.221-1.271,3.703-1.905,7.453-1.905h9.223V0h-9.223c-6.938,0-11.719,1.292-14.357,3.875
						c-2.638,2.594-3.954,7.308-3.954,14.144v29.687h-6.592v6.982h6.592v15.533H1238.321z"/>
				</g>
				<g>
					<path id="BitstreamVeraSans-Roman-69_1_" d="M1268.635,54.688h8.985V0h-8.985V54.688z M1268.635,75.985h8.985v-11.39h-8.985
						V75.985z"/>
				</g>
				<g>
					<path id="BitstreamVeraSans-Roman-6d" d="M1339.002,44.189c2.245,4.042,4.937,7.019,8.057,8.938
						c3.126,1.916,6.802,2.875,11.034,2.875c5.697,0,10.091-1.997,13.19-5.985c3.092-3.98,4.639-9.647,4.639-17.001V0h-9.033v32.722
						c0,5.239-0.936,9.125-2.794,11.654c-1.858,2.543-4.687,3.814-8.491,3.814c-4.652,0-8.335-1.549-11.041-4.642
						c-2.699-3.082-4.049-7.297-4.049-12.641V0h-9.033v32.722c0,5.269-0.929,9.166-2.781,11.685
						c-1.851,2.523-4.72,3.784-8.592,3.784c-4.598,0-8.247-1.553-10.959-4.659c-2.692-3.103-4.042-7.311-4.042-12.625V0h-9.033
						v54.688h9.033V46.19c2.048,3.354,4.51,5.826,7.378,7.419c2.862,1.597,6.266,2.394,10.2,2.394c3.974,0,7.358-1.01,10.139-3.031
						C1335.611,50.961,1337.666,48.035,1339.002,44.189"/>
				</g>
				<g>
					<path id="BitstreamVeraSans-Roman-61_1_" d="M1418.687,27.486c-7.256,0-12.289-0.828-15.089-2.486
						c-2.801-1.655-4.205-4.489-4.205-8.5c0-3.188,1.051-5.717,3.154-7.592c2.109-1.865,4.964-2.797,8.565-2.797
						c4.991,0,8.993,1.767,11.997,5.296c3.011,3.533,4.517,8.226,4.517,14.079v2.001H1418.687z M1436.61,31.206V0h-8.985v8.297
						c-2.048-3.313-4.605-5.761-7.67-7.341c-3.059-1.583-6.802-2.377-11.237-2.377c-5.588,0-10.043,1.573-13.353,4.72
						c-3.303,3.143-4.958,7.354-4.958,12.624c0,6.144,2.062,10.783,6.171,13.906c4.124,3.126,10.274,4.689,18.439,4.689h12.607
						v0.889c0,4.137-1.356,7.334-4.076,9.596c-2.719,2.258-6.531,3.391-11.454,3.391c-3.12,0-6.171-0.376-9.142-1.126
						c-2.957-0.752-5.798-1.875-8.531-3.377v8.314c3.282,1.271,6.47,2.217,9.562,2.841c3.099,0.638,6.104,0.956,9.033,0.956
						c7.921,0,13.834-2.055,17.741-6.158C1434.657,45.752,1436.61,39.537,1436.61,31.206"/>
				</g>
				<g>
					<path id="BitstreamVeraSans-Roman-74_3_" d="M1464.002,70.221V54.688h18.5v-6.982h-18.5V18.019c0-4.459,0.61-7.324,1.831-8.596
						c1.214-1.271,3.703-1.905,7.446-1.905h9.223V0h-9.223c-6.931,0-11.719,1.292-14.357,3.875
						c-2.638,2.594-3.954,7.308-3.954,14.144v29.687h-6.592v6.982h6.592v15.533H1464.002z"/>
				</g>
				<g>
					<path id="BitstreamVeraSans-Roman-65_3_" d="M1541.103,29.595v-4.391h-41.314c0.394-6.188,2.258-10.901,5.595-14.14
						c3.33-3.238,7.975-4.859,13.936-4.859c3.445,0,6.789,0.42,10.03,1.265c3.242,0.845,6.456,2.116,9.657,3.815V2.784
						c-3.228-1.366-6.538-2.407-9.922-3.126c-3.384-0.719-6.815-1.078-10.294-1.078c-8.735,0-15.646,2.537-20.738,7.609
						c-5.093,5.083-7.636,11.96-7.636,20.627c0,8.948,2.414,16.045,7.25,21.294c4.829,5.262,11.353,7.894,19.559,7.894
						c7.358,0,13.17-2.37,17.456-7.11C1538.96,44.162,1541.103,37.73,1541.103,29.595 M1532.117,32.237
						c-0.061,4.906-1.438,8.823-4.124,11.749c-2.692,2.937-6.246,4.408-10.674,4.408c-5.012,0-9.02-1.417-12.031-4.252
						c-3.011-2.835-4.747-6.823-5.201-11.97L1532.117,32.237z"/>
				</g>
			</g>
		</g>
	</g>
</g>
</svg>
