<?xml version="1.0" encoding="utf-8"?>
<!-- Generator: Adobe Illustrator 16.0.0, SVG Export Plug-In . SVG Version: 6.00 Build 0)  -->
<!DOCTYPE svg PUBLIC "-//W3C//DTD SVG 1.1//EN" "http://www.w3.org/Graphics/SVG/1.1/DTD/svg11.dtd">
<svg version="1.1" id="Layer_1" xmlns="http://www.w3.org/2000/svg" xmlns:xlink="http://www.w3.org/1999/xlink" x="0px" y="0px"
	 width="586px" height="442px" viewBox="0 0 586 442" enable-background="new 0 0 586 442" xml:space="preserve">
<g id="figure_1">
	<g id="patch_1">
		<path fill="#FFFFFF" d="M0,442.8h586.8V0H0V442.8z"/>
	</g>
	<g id="axes_1">
		<g id="patch_2">
			<path fill="#FFFFFF" d="M73.35,398.52h454.77V44.28H73.35V398.52z"/>
		</g>
		<g id="patch_3">
			<g>
				<defs>
					<rect id="SVGID_1_" x="73.35" y="44.28" width="454.77" height="354.239"/>
				</defs>
				<clipPath id="SVGID_2_">
					<use xlink:href="#SVGID_1_"  overflow="visible"/>
				</clipPath>
				
					<path opacity="0.5" clip-path="url(#SVGID_2_)" fill="#0000FF" stroke="#000000" stroke-linecap="square" stroke-linejoin="round" enable-background="new    " d="
					M79.802,398.52h7.458V123h-7.458V398.52z"/>
			</g>
		</g>
		<g id="patch_4">
			<g>
				<defs>
					<rect id="SVGID_3_" x="73.35" y="44.28" width="454.77" height="354.239"/>
				</defs>
				<clipPath id="SVGID_4_">
					<use xlink:href="#SVGID_3_"  overflow="visible"/>
				</clipPath>
				
					<path opacity="0.5" clip-path="url(#SVGID_4_)" fill="#0000FF" stroke="#000000" stroke-linecap="square" stroke-linejoin="round" enable-background="new    " d="
					M87.259,398.52h7.458V123h-7.458V398.52z"/>
			</g>
		</g>
		<g id="patch_5">
			<g>
				<defs>
					<rect id="SVGID_5_" x="73.35" y="44.28" width="454.77" height="354.239"/>
				</defs>
				<clipPath id="SVGID_6_">
					<use xlink:href="#SVGID_5_"  overflow="visible"/>
				</clipPath>
				
					<path opacity="0.5" clip-path="url(#SVGID_6_)" fill="#0000FF" stroke="#000000" stroke-linecap="square" stroke-linejoin="round" enable-background="new    " d="
					M94.717,398.52h7.458V241.08h-7.458V398.52z"/>
			</g>
		</g>
		<g id="patch_6">
			<g>
				<defs>
					<rect id="SVGID_7_" x="73.35" y="44.28" width="454.77" height="354.239"/>
				</defs>
				<clipPath id="SVGID_8_">
					<use xlink:href="#SVGID_7_"  overflow="visible"/>
				</clipPath>
				
					<path opacity="0.5" clip-path="url(#SVGID_8_)" fill="#0000FF" stroke="#000000" stroke-linecap="square" stroke-linejoin="round" enable-background="new    " d="
					M102.175,398.52h7.457V241.08h-7.457V398.52z"/>
			</g>
		</g>
		<g id="patch_7">
			<g>
				<defs>
					<rect id="SVGID_9_" x="73.35" y="44.28" width="454.77" height="354.239"/>
				</defs>
				<clipPath id="SVGID_10_">
					<use xlink:href="#SVGID_9_"  overflow="visible"/>
				</clipPath>
				
					<path opacity="0.5" clip-path="url(#SVGID_10_)" fill="#0000FF" stroke="#000000" stroke-linecap="square" stroke-linejoin="round" enable-background="new    " d="
					M109.632,398.52h7.458V241.08h-7.458V398.52z"/>
			</g>
		</g>
		<g id="patch_8">
			<g>
				<defs>
					<rect id="SVGID_11_" x="73.35" y="44.28" width="454.77" height="354.239"/>
				</defs>
				<clipPath id="SVGID_12_">
					<use xlink:href="#SVGID_11_"  overflow="visible"/>
				</clipPath>
				
					<path opacity="0.5" clip-path="url(#SVGID_12_)" fill="#0000FF" stroke="#000000" stroke-linecap="square" stroke-linejoin="round" enable-background="new    " d="
					M117.09,398.52h7.458V162.36h-7.458V398.52z"/>
			</g>
		</g>
		<g id="patch_9">
			<g>
				<defs>
					<rect id="SVGID_13_" x="73.35" y="44.28" width="454.77" height="354.239"/>
				</defs>
				<clipPath id="SVGID_14_">
					<use xlink:href="#SVGID_13_"  overflow="visible"/>
				</clipPath>
				
					<path opacity="0.5" clip-path="url(#SVGID_14_)" fill="#0000FF" stroke="#000000" stroke-linecap="square" stroke-linejoin="round" enable-background="new    " d="
					M124.548,398.52h7.457v-196.8h-7.457V398.52z"/>
			</g>
		</g>
		<g id="patch_10">
			<g>
				<defs>
					<rect id="SVGID_15_" x="73.35" y="44.28" width="454.77" height="354.239"/>
				</defs>
				<clipPath id="SVGID_16_">
					<use xlink:href="#SVGID_15_"  overflow="visible"/>
				</clipPath>
				
					<path opacity="0.5" clip-path="url(#SVGID_16_)" fill="#0000FF" stroke="#000000" stroke-linecap="square" stroke-linejoin="round" enable-background="new    " d="
					M132.005,398.52h7.458V162.36h-7.458V398.52z"/>
			</g>
		</g>
		<g id="patch_11">
			<g>
				<defs>
					<rect id="SVGID_17_" x="73.35" y="44.28" width="454.77" height="354.239"/>
				</defs>
				<clipPath id="SVGID_18_">
					<use xlink:href="#SVGID_17_"  overflow="visible"/>
				</clipPath>
				
					<path opacity="0.5" clip-path="url(#SVGID_18_)" fill="#0000FF" stroke="#000000" stroke-linecap="square" stroke-linejoin="round" enable-background="new    " d="
					M139.463,398.52h7.458V44.28h-7.458V398.52z"/>
			</g>
		</g>
		<g id="patch_12">
			<g>
				<defs>
					<rect id="SVGID_19_" x="73.35" y="44.28" width="454.77" height="354.239"/>
				</defs>
				<clipPath id="SVGID_20_">
					<use xlink:href="#SVGID_19_"  overflow="visible"/>
				</clipPath>
				
					<path opacity="0.5" clip-path="url(#SVGID_20_)" fill="#0000FF" stroke="#000000" stroke-linecap="square" stroke-linejoin="round" enable-background="new    " d="
					M146.921,398.52h7.458V319.8h-7.458V398.52z"/>
			</g>
		</g>
		<g id="patch_13">
			<g>
				<defs>
					<rect id="SVGID_21_" x="73.35" y="44.28" width="454.77" height="354.239"/>
				</defs>
				<clipPath id="SVGID_22_">
					<use xlink:href="#SVGID_21_"  overflow="visible"/>
				</clipPath>
				
					<path opacity="0.5" clip-path="url(#SVGID_22_)" fill="#0000FF" stroke="#000000" stroke-linecap="square" stroke-linejoin="round" enable-background="new    " d="
					M154.379,398.52h7.457v-118.08h-7.457V398.52z"/>
			</g>
		</g>
		<g id="patch_14">
			<g>
				<defs>
					<rect id="SVGID_23_" x="73.35" y="44.28" width="454.77" height="354.239"/>
				</defs>
				<clipPath id="SVGID_24_">
					<use xlink:href="#SVGID_23_"  overflow="visible"/>
				</clipPath>
				
					<path opacity="0.5" clip-path="url(#SVGID_24_)" fill="#0000FF" stroke="#000000" stroke-linecap="square" stroke-linejoin="round" enable-background="new    " d="
					M161.836,398.52h7.458V123h-7.458V398.52z"/>
			</g>
		</g>
		<g id="patch_15">
			<g>
				<defs>
					<rect id="SVGID_25_" x="73.35" y="44.28" width="454.77" height="354.239"/>
				</defs>
				<clipPath id="SVGID_26_">
					<use xlink:href="#SVGID_25_"  overflow="visible"/>
				</clipPath>
				
					<path opacity="0.5" clip-path="url(#SVGID_26_)" fill="#0000FF" stroke="#000000" stroke-linecap="square" stroke-linejoin="round" enable-background="new    " d="
					M169.294,398.52h7.458V319.8h-7.458V398.52z"/>
			</g>
		</g>
		<g id="patch_16">
			<g>
				<defs>
					<rect id="SVGID_27_" x="73.35" y="44.28" width="454.77" height="354.239"/>
				</defs>
				<clipPath id="SVGID_28_">
					<use xlink:href="#SVGID_27_"  overflow="visible"/>
				</clipPath>
				
					<path opacity="0.5" clip-path="url(#SVGID_28_)" fill="#0000FF" stroke="#000000" stroke-linecap="square" stroke-linejoin="round" enable-background="new    " d="
					M176.752,398.52h7.457V241.08h-7.457V398.52z"/>
			</g>
		</g>
		<g id="patch_17">
			<g>
				<defs>
					<rect id="SVGID_29_" x="73.35" y="44.28" width="454.77" height="354.239"/>
				</defs>
				<clipPath id="SVGID_30_">
					<use xlink:href="#SVGID_29_"  overflow="visible"/>
				</clipPath>
				
					<path opacity="0.5" clip-path="url(#SVGID_30_)" fill="#0000FF" stroke="#000000" stroke-linecap="square" stroke-linejoin="round" enable-background="new    " d="
					M184.209,398.52h7.458V241.08h-7.458V398.52z"/>
			</g>
		</g>
		<g id="patch_18">
			<g>
				<defs>
					<rect id="SVGID_31_" x="73.35" y="44.28" width="454.77" height="354.239"/>
				</defs>
				<clipPath id="SVGID_32_">
					<use xlink:href="#SVGID_31_"  overflow="visible"/>
				</clipPath>
				
					<path opacity="0.5" clip-path="url(#SVGID_32_)" fill="#0000FF" stroke="#000000" stroke-linecap="square" stroke-linejoin="round" enable-background="new    " d="
					M191.667,398.52h7.458v-196.8h-7.458V398.52z"/>
			</g>
		</g>
		<g id="patch_19">
			<g>
				<defs>
					<rect id="SVGID_33_" x="73.35" y="44.28" width="454.77" height="354.239"/>
				</defs>
				<clipPath id="SVGID_34_">
					<use xlink:href="#SVGID_33_"  overflow="visible"/>
				</clipPath>
				
					<path opacity="0.5" clip-path="url(#SVGID_34_)" fill="#0000FF" stroke="#000000" stroke-linecap="square" stroke-linejoin="round" enable-background="new    " d="
					M199.125,398.52h7.457V319.8h-7.457V398.52z"/>
			</g>
		</g>
		<g id="patch_20">
			<g>
				<defs>
					<rect id="SVGID_35_" x="73.35" y="44.28" width="454.77" height="354.239"/>
				</defs>
				<clipPath id="SVGID_36_">
					<use xlink:href="#SVGID_35_"  overflow="visible"/>
				</clipPath>
				
					<path opacity="0.5" clip-path="url(#SVGID_36_)" fill="#0000FF" stroke="#000000" stroke-linecap="square" stroke-linejoin="round" enable-background="new    " d="
					M206.582,398.52h7.458V359.16h-7.458V398.52z"/>
			</g>
		</g>
		<g id="patch_21">
			<g>
				<defs>
					<rect id="SVGID_37_" x="73.35" y="44.28" width="454.77" height="354.239"/>
				</defs>
				<clipPath id="SVGID_38_">
					<use xlink:href="#SVGID_37_"  overflow="visible"/>
				</clipPath>
				
					<path opacity="0.5" clip-path="url(#SVGID_38_)" fill="#0000FF" stroke="#000000" stroke-linecap="square" stroke-linejoin="round" enable-background="new    " d="
					M214.04,398.52h7.458v-118.08h-7.458V398.52z"/>
			</g>
		</g>
		<g id="patch_22">
			<g>
				<defs>
					<rect id="SVGID_39_" x="73.35" y="44.28" width="454.77" height="354.239"/>
				</defs>
				<clipPath id="SVGID_40_">
					<use xlink:href="#SVGID_39_"  overflow="visible"/>
				</clipPath>
				
					<path opacity="0.5" clip-path="url(#SVGID_40_)" fill="#0000FF" stroke="#000000" stroke-linecap="square" stroke-linejoin="round" enable-background="new    " d="
					M221.498,398.52h7.457V359.16h-7.457V398.52z"/>
			</g>
		</g>
		<g id="patch_23">
			<g>
				<defs>
					<rect id="SVGID_41_" x="73.35" y="44.28" width="454.77" height="354.239"/>
				</defs>
				<clipPath id="SVGID_42_">
					<use xlink:href="#SVGID_41_"  overflow="visible"/>
				</clipPath>
				
					<path opacity="0.5" clip-path="url(#SVGID_42_)" fill="#0000FF" stroke="#000000" stroke-linecap="square" stroke-linejoin="round" enable-background="new    " d="
					M228.955,398.52h7.458V359.16h-7.458V398.52z"/>
			</g>
		</g>
		<g id="patch_24">
			<g>
				<defs>
					<rect id="SVGID_43_" x="73.35" y="44.28" width="454.77" height="354.239"/>
				</defs>
				<clipPath id="SVGID_44_">
					<use xlink:href="#SVGID_43_"  overflow="visible"/>
				</clipPath>
				
					<path opacity="0.5" clip-path="url(#SVGID_44_)" fill="#0000FF" stroke="#000000" stroke-linecap="square" stroke-linejoin="round" enable-background="new    " d="
					M236.413,398.52h7.458l0,0H236.413z"/>
			</g>
		</g>
		<g id="patch_25">
			<g>
				<defs>
					<rect id="SVGID_45_" x="73.35" y="44.28" width="454.77" height="354.239"/>
				</defs>
				<clipPath id="SVGID_46_">
					<use xlink:href="#SVGID_45_"  overflow="visible"/>
				</clipPath>
				
					<path opacity="0.5" clip-path="url(#SVGID_46_)" fill="#0000FF" stroke="#000000" stroke-linecap="square" stroke-linejoin="round" enable-background="new    " d="
					M243.871,398.52h7.458V241.08h-7.458V398.52z"/>
			</g>
		</g>
		<g id="patch_26">
			<g>
				<defs>
					<rect id="SVGID_47_" x="73.35" y="44.28" width="454.77" height="354.239"/>
				</defs>
				<clipPath id="SVGID_48_">
					<use xlink:href="#SVGID_47_"  overflow="visible"/>
				</clipPath>
				
					<path opacity="0.5" clip-path="url(#SVGID_48_)" fill="#0000FF" stroke="#000000" stroke-linecap="square" stroke-linejoin="round" enable-background="new    " d="
					M251.329,398.52h7.457l0,0H251.329z"/>
			</g>
		</g>
		<g id="patch_27">
			<g>
				<defs>
					<rect id="SVGID_49_" x="73.35" y="44.28" width="454.77" height="354.239"/>
				</defs>
				<clipPath id="SVGID_50_">
					<use xlink:href="#SVGID_49_"  overflow="visible"/>
				</clipPath>
				
					<path opacity="0.5" clip-path="url(#SVGID_50_)" fill="#0000FF" stroke="#000000" stroke-linecap="square" stroke-linejoin="round" enable-background="new    " d="
					M258.786,398.52h7.458V319.8h-7.458V398.52z"/>
			</g>
		</g>
		<g id="patch_28">
			<g>
				<defs>
					<rect id="SVGID_51_" x="73.35" y="44.28" width="454.77" height="354.239"/>
				</defs>
				<clipPath id="SVGID_52_">
					<use xlink:href="#SVGID_51_"  overflow="visible"/>
				</clipPath>
				
					<path opacity="0.5" clip-path="url(#SVGID_52_)" fill="#0000FF" stroke="#000000" stroke-linecap="square" stroke-linejoin="round" enable-background="new    " d="
					M266.244,398.52h7.458V319.8h-7.458V398.52z"/>
			</g>
		</g>
		<g id="patch_29">
			<g>
				<defs>
					<rect id="SVGID_53_" x="73.35" y="44.28" width="454.77" height="354.239"/>
				</defs>
				<clipPath id="SVGID_54_">
					<use xlink:href="#SVGID_53_"  overflow="visible"/>
				</clipPath>
				
					<path opacity="0.5" clip-path="url(#SVGID_54_)" fill="#0000FF" stroke="#000000" stroke-linecap="square" stroke-linejoin="round" enable-background="new    " d="
					M273.702,398.52h7.457V359.16h-7.457V398.52z"/>
			</g>
		</g>
		<g id="patch_30">
			<g>
				<defs>
					<rect id="SVGID_55_" x="73.35" y="44.28" width="454.77" height="354.239"/>
				</defs>
				<clipPath id="SVGID_56_">
					<use xlink:href="#SVGID_55_"  overflow="visible"/>
				</clipPath>
				
					<path opacity="0.5" clip-path="url(#SVGID_56_)" fill="#0000FF" stroke="#000000" stroke-linecap="square" stroke-linejoin="round" enable-background="new    " d="
					M281.159,398.52h7.458l0,0H281.159z"/>
			</g>
		</g>
		<g id="patch_31">
			<g>
				<defs>
					<rect id="SVGID_57_" x="73.35" y="44.28" width="454.77" height="354.239"/>
				</defs>
				<clipPath id="SVGID_58_">
					<use xlink:href="#SVGID_57_"  overflow="visible"/>
				</clipPath>
				
					<path opacity="0.5" clip-path="url(#SVGID_58_)" fill="#0000FF" stroke="#000000" stroke-linecap="square" stroke-linejoin="round" enable-background="new    " d="
					M288.617,398.52h7.458l0,0H288.617z"/>
			</g>
		</g>
		<g id="patch_32">
			<g>
				<defs>
					<rect id="SVGID_59_" x="73.35" y="44.28" width="454.77" height="354.239"/>
				</defs>
				<clipPath id="SVGID_60_">
					<use xlink:href="#SVGID_59_"  overflow="visible"/>
				</clipPath>
				
					<path opacity="0.5" clip-path="url(#SVGID_60_)" fill="#0000FF" stroke="#000000" stroke-linecap="square" stroke-linejoin="round" enable-background="new    " d="
					M296.075,398.52h7.457l0,0H296.075z"/>
			</g>
		</g>
		<g id="patch_33">
			<g>
				<defs>
					<rect id="SVGID_61_" x="73.35" y="44.28" width="454.77" height="354.239"/>
				</defs>
				<clipPath id="SVGID_62_">
					<use xlink:href="#SVGID_61_"  overflow="visible"/>
				</clipPath>
				
					<path opacity="0.5" clip-path="url(#SVGID_62_)" fill="#0000FF" stroke="#000000" stroke-linecap="square" stroke-linejoin="round" enable-background="new    " d="
					M303.532,398.52h7.458V359.16h-7.458V398.52z"/>
			</g>
		</g>
		<g id="patch_34">
			<g>
				<defs>
					<rect id="SVGID_63_" x="73.35" y="44.28" width="454.77" height="354.239"/>
				</defs>
				<clipPath id="SVGID_64_">
					<use xlink:href="#SVGID_63_"  overflow="visible"/>
				</clipPath>
				
					<path opacity="0.5" clip-path="url(#SVGID_64_)" fill="#0000FF" stroke="#000000" stroke-linecap="square" stroke-linejoin="round" enable-background="new    " d="
					M310.99,398.52h7.458l0,0H310.99z"/>
			</g>
		</g>
		<g id="patch_35">
			<g>
				<defs>
					<rect id="SVGID_65_" x="73.35" y="44.28" width="454.77" height="354.239"/>
				</defs>
				<clipPath id="SVGID_66_">
					<use xlink:href="#SVGID_65_"  overflow="visible"/>
				</clipPath>
				
					<path opacity="0.5" clip-path="url(#SVGID_66_)" fill="#0000FF" stroke="#000000" stroke-linecap="square" stroke-linejoin="round" enable-background="new    " d="
					M318.448,398.52h7.457l0,0H318.448z"/>
			</g>
		</g>
		<g id="patch_36">
			<g>
				<defs>
					<rect id="SVGID_67_" x="73.35" y="44.28" width="454.77" height="354.239"/>
				</defs>
				<clipPath id="SVGID_68_">
					<use xlink:href="#SVGID_67_"  overflow="visible"/>
				</clipPath>
				
					<path opacity="0.5" clip-path="url(#SVGID_68_)" fill="#0000FF" stroke="#000000" stroke-linecap="square" stroke-linejoin="round" enable-background="new    " d="
					M325.905,398.52h7.458l0,0H325.905z"/>
			</g>
		</g>
		<g id="patch_37">
			<g>
				<defs>
					<rect id="SVGID_69_" x="73.35" y="44.28" width="454.77" height="354.239"/>
				</defs>
				<clipPath id="SVGID_70_">
					<use xlink:href="#SVGID_69_"  overflow="visible"/>
				</clipPath>
				
					<path opacity="0.5" clip-path="url(#SVGID_70_)" fill="#0000FF" stroke="#000000" stroke-linecap="square" stroke-linejoin="round" enable-background="new    " d="
					M333.363,398.52h7.458V359.16h-7.458V398.52z"/>
			</g>
		</g>
		<g id="patch_38">
			<g>
				<defs>
					<rect id="SVGID_71_" x="73.35" y="44.28" width="454.77" height="354.239"/>
				</defs>
				<clipPath id="SVGID_72_">
					<use xlink:href="#SVGID_71_"  overflow="visible"/>
				</clipPath>
				
					<path opacity="0.5" clip-path="url(#SVGID_72_)" fill="#0000FF" stroke="#000000" stroke-linecap="square" stroke-linejoin="round" enable-background="new    " d="
					M340.821,398.52h7.458l0,0H340.821z"/>
			</g>
		</g>
		<g id="patch_39">
			<g>
				<defs>
					<rect id="SVGID_73_" x="73.35" y="44.28" width="454.77" height="354.239"/>
				</defs>
				<clipPath id="SVGID_74_">
					<use xlink:href="#SVGID_73_"  overflow="visible"/>
				</clipPath>
				
					<path opacity="0.5" clip-path="url(#SVGID_74_)" fill="#0000FF" stroke="#000000" stroke-linecap="square" stroke-linejoin="round" enable-background="new    " d="
					M348.279,398.52h7.457l0,0H348.279z"/>
			</g>
		</g>
		<g id="patch_40">
			<g>
				<defs>
					<rect id="SVGID_75_" x="73.35" y="44.28" width="454.77" height="354.239"/>
				</defs>
				<clipPath id="SVGID_76_">
					<use xlink:href="#SVGID_75_"  overflow="visible"/>
				</clipPath>
				
					<path opacity="0.5" clip-path="url(#SVGID_76_)" fill="#0000FF" stroke="#000000" stroke-linecap="square" stroke-linejoin="round" enable-background="new    " d="
					M355.736,398.52h7.457l0,0H355.736z"/>
			</g>
		</g>
		<g id="patch_41">
			<g>
				<defs>
					<rect id="SVGID_77_" x="73.35" y="44.28" width="454.77" height="354.239"/>
				</defs>
				<clipPath id="SVGID_78_">
					<use xlink:href="#SVGID_77_"  overflow="visible"/>
				</clipPath>
				
					<path opacity="0.5" clip-path="url(#SVGID_78_)" fill="#0000FF" stroke="#000000" stroke-linecap="square" stroke-linejoin="round" enable-background="new    " d="
					M363.193,398.52h7.459l0,0H363.193z"/>
			</g>
		</g>
		<g id="patch_42">
			<g>
				<defs>
					<rect id="SVGID_79_" x="73.35" y="44.28" width="454.77" height="354.239"/>
				</defs>
				<clipPath id="SVGID_80_">
					<use xlink:href="#SVGID_79_"  overflow="visible"/>
				</clipPath>
				
					<path opacity="0.5" clip-path="url(#SVGID_80_)" fill="#0000FF" stroke="#000000" stroke-linecap="square" stroke-linejoin="round" enable-background="new    " d="
					M370.652,398.52h7.457l0,0H370.652z"/>
			</g>
		</g>
		<g id="patch_43">
			<g>
				<defs>
					<rect id="SVGID_81_" x="73.35" y="44.28" width="454.77" height="354.239"/>
				</defs>
				<clipPath id="SVGID_82_">
					<use xlink:href="#SVGID_81_"  overflow="visible"/>
				</clipPath>
				
					<path opacity="0.5" clip-path="url(#SVGID_82_)" fill="#0000FF" stroke="#000000" stroke-linecap="square" stroke-linejoin="round" enable-background="new    " d="
					M378.109,398.52h7.457l0,0H378.109z"/>
			</g>
		</g>
		<g id="patch_44">
			<g>
				<defs>
					<rect id="SVGID_83_" x="73.35" y="44.28" width="454.77" height="354.239"/>
				</defs>
				<clipPath id="SVGID_84_">
					<use xlink:href="#SVGID_83_"  overflow="visible"/>
				</clipPath>
				
					<path opacity="0.5" clip-path="url(#SVGID_84_)" fill="#0000FF" stroke="#000000" stroke-linecap="square" stroke-linejoin="round" enable-background="new    " d="
					M385.566,398.52h7.459l0,0H385.566z"/>
			</g>
		</g>
		<g id="patch_45">
			<g>
				<defs>
					<rect id="SVGID_85_" x="73.35" y="44.28" width="454.77" height="354.239"/>
				</defs>
				<clipPath id="SVGID_86_">
					<use xlink:href="#SVGID_85_"  overflow="visible"/>
				</clipPath>
				
					<path opacity="0.5" clip-path="url(#SVGID_86_)" fill="#0000FF" stroke="#000000" stroke-linecap="square" stroke-linejoin="round" enable-background="new    " d="
					M393.025,398.52h7.457l0,0H393.025z"/>
			</g>
		</g>
		<g id="patch_46">
			<g>
				<defs>
					<rect id="SVGID_87_" x="73.35" y="44.28" width="454.77" height="354.239"/>
				</defs>
				<clipPath id="SVGID_88_">
					<use xlink:href="#SVGID_87_"  overflow="visible"/>
				</clipPath>
				
					<path opacity="0.5" clip-path="url(#SVGID_88_)" fill="#0000FF" stroke="#000000" stroke-linecap="square" stroke-linejoin="round" enable-background="new    " d="
					M400.482,398.52h7.458l0,0H400.482z"/>
			</g>
		</g>
		<g id="patch_47">
			<g>
				<defs>
					<rect id="SVGID_89_" x="73.35" y="44.28" width="454.77" height="354.239"/>
				</defs>
				<clipPath id="SVGID_90_">
					<use xlink:href="#SVGID_89_"  overflow="visible"/>
				</clipPath>
				
					<path opacity="0.5" clip-path="url(#SVGID_90_)" fill="#0000FF" stroke="#000000" stroke-linecap="square" stroke-linejoin="round" enable-background="new    " d="
					M407.94,398.52h7.458l0,0H407.94z"/>
			</g>
		</g>
		<g id="patch_48">
			<g>
				<defs>
					<rect id="SVGID_91_" x="73.35" y="44.28" width="454.77" height="354.239"/>
				</defs>
				<clipPath id="SVGID_92_">
					<use xlink:href="#SVGID_91_"  overflow="visible"/>
				</clipPath>
				
					<path opacity="0.5" clip-path="url(#SVGID_92_)" fill="#0000FF" stroke="#000000" stroke-linecap="square" stroke-linejoin="round" enable-background="new    " d="
					M415.398,398.52h7.457l0,0H415.398z"/>
			</g>
		</g>
		<g id="patch_49">
			<g>
				<defs>
					<rect id="SVGID_93_" x="73.35" y="44.28" width="454.77" height="354.239"/>
				</defs>
				<clipPath id="SVGID_94_">
					<use xlink:href="#SVGID_93_"  overflow="visible"/>
				</clipPath>
				
					<path opacity="0.5" clip-path="url(#SVGID_94_)" fill="#0000FF" stroke="#000000" stroke-linecap="square" stroke-linejoin="round" enable-background="new    " d="
					M422.855,398.52h7.457l0,0H422.855z"/>
			</g>
		</g>
		<g id="patch_50">
			<g>
				<defs>
					<rect id="SVGID_95_" x="73.35" y="44.28" width="454.77" height="354.239"/>
				</defs>
				<clipPath id="SVGID_96_">
					<use xlink:href="#SVGID_95_"  overflow="visible"/>
				</clipPath>
				
					<path opacity="0.5" clip-path="url(#SVGID_96_)" fill="#0000FF" stroke="#000000" stroke-linecap="square" stroke-linejoin="round" enable-background="new    " d="
					M430.313,398.52h7.459V359.16h-7.459V398.52z"/>
			</g>
		</g>
		<g id="patch_51">
			<g>
				<defs>
					<rect id="SVGID_97_" x="73.35" y="44.28" width="454.77" height="354.239"/>
				</defs>
				<clipPath id="SVGID_98_">
					<use xlink:href="#SVGID_97_"  overflow="visible"/>
				</clipPath>
				
					<path opacity="0.5" clip-path="url(#SVGID_98_)" fill="#0000FF" stroke="#000000" stroke-linecap="square" stroke-linejoin="round" enable-background="new    " d="
					M437.771,398.52h7.457l0,0H437.771z"/>
			</g>
		</g>
		<g id="patch_52">
			<g>
				<defs>
					<rect id="SVGID_99_" x="73.35" y="44.28" width="454.77" height="354.239"/>
				</defs>
				<clipPath id="SVGID_100_">
					<use xlink:href="#SVGID_99_"  overflow="visible"/>
				</clipPath>
				
					<path opacity="0.5" clip-path="url(#SVGID_100_)" fill="#0000FF" stroke="#000000" stroke-linecap="square" stroke-linejoin="round" enable-background="new    " d="
					M445.229,398.52h7.457V359.16h-7.457V398.52z"/>
			</g>
		</g>
		<g id="matplotlib.axis_1">
			<g id="xtick_1">
				<g id="line2d_1">
					<g>
						<g>
							<path id="mcb557df647" stroke="#000000" stroke-width="0.5" stroke-linejoin="round" d="M73.35,398.52v-4"/>
						</g>
					</g>
				</g>
				<g id="line2d_2">
					<g>
						<g>
							<path id="mdad270ee8e" stroke="#000000" stroke-width="0.5" stroke-linejoin="round" d="M73.35,44.28v4"/>
						</g>
					</g>
				</g>
				<g id="text_1">
					<g transform="translate(60.7846875 411.42625)scale(0.12 -0.12)">
						<g>
							<path id="BitstreamVeraSans-Roman-30" d="M31.783,66.41c-5.074,0-8.891-2.506-11.454-7.503
								c-2.551-4.989-3.829-12.5-3.829-22.534c0-9.985,1.278-17.48,3.829-22.485c2.563-4.997,6.38-7.495,11.454-7.495
								c5.111,0,8.948,2.498,11.499,7.495c2.563,5.005,3.841,12.5,3.841,22.485c0,10.034-1.278,17.546-3.841,22.534
								C40.73,63.904,36.894,66.41,31.783,66.41 M31.783,74.222c8.175,0,14.421-3.239,18.734-9.708
								c4.313-6.454,6.47-15.837,6.47-28.141c0-12.272-2.157-21.639-6.47-28.109C46.204,1.81,39.958-1.42,31.783-1.42
								c-8.17,0-14.408,3.231-18.721,9.684C8.748,14.734,6.596,24.1,6.596,36.373c0,12.305,2.152,21.688,6.466,28.141
								C17.375,70.984,23.612,74.222,31.783,74.222"/>
						</g>
						<g>
							<path id="BitstreamVeraSans-Roman-2e" d="M74.312,12.406h10.311V0.004H74.312V12.406z"/>
						</g>
						<g>
							<path id="BitstreamVeraSans-Roman-30_1_" d="M127.193,66.41c-5.074,0-8.891-2.506-11.454-7.503
								c-2.551-4.989-3.829-12.5-3.829-22.534c0-9.985,1.278-17.48,3.829-22.485c2.563-4.997,6.38-7.495,11.454-7.495
								c5.111,0,8.948,2.498,11.499,7.495c2.563,5.005,3.841,12.5,3.841,22.485c0,10.034-1.278,17.546-3.841,22.534
								C136.141,63.904,132.304,66.41,127.193,66.41 M127.193,74.222c8.175,0,14.421-3.239,18.734-9.708
								c4.313-6.454,6.47-15.837,6.47-28.141c0-12.272-2.157-21.639-6.47-28.109c-4.313-6.454-10.559-9.684-18.734-9.684
								c-8.17,0-14.408,3.231-18.721,9.684c-4.313,6.47-6.466,15.836-6.466,28.109c0,12.305,2.152,21.688,6.466,28.141
								C112.785,70.984,119.022,74.222,127.193,74.222"/>
						</g>
						<g>
							<path id="BitstreamVeraSans-Roman-30_2_" d="M190.816,66.41c-5.074,0-8.891-2.506-11.454-7.503
								c-2.551-4.989-3.829-12.5-3.829-22.534c0-9.985,1.278-17.48,3.829-22.485c2.563-4.997,6.38-7.495,11.454-7.495
								c5.111,0,8.948,2.498,11.499,7.495c2.563,5.005,3.841,12.5,3.841,22.485c0,10.034-1.278,17.546-3.841,22.534
								C199.764,63.904,195.927,66.41,190.816,66.41 M190.816,74.222c8.175,0,14.421-3.239,18.734-9.708
								c4.313-6.454,6.47-15.837,6.47-28.141c0-12.272-2.157-21.639-6.47-28.109c-4.313-6.454-10.559-9.684-18.734-9.684
								c-8.17,0-14.408,3.231-18.721,9.684c-4.313,6.47-6.466,15.836-6.466,28.109c0,12.305,2.152,21.688,6.466,28.141
								C176.408,70.984,182.646,74.222,190.816,74.222"/>
						</g>
					</g>
				</g>
			</g>
			<g id="xtick_2">
				<g id="line2d_3">
					<g>
						<g>
							<path id="mcb557df647_1_" stroke="#000000" stroke-width="0.5" stroke-linejoin="round" d="M164.304,398.52v-4"/>
						</g>
					</g>
				</g>
				<g id="line2d_4">
					<g>
						<g>
							<path id="mdad270ee8e_1_" stroke="#000000" stroke-width="0.5" stroke-linejoin="round" d="M164.304,44.28v4"/>
						</g>
					</g>
				</g>
				<g id="text_2">
					<g transform="translate(151.8643125 411.42625)scale(0.12 -0.12)">
						<g>
							<path id="BitstreamVeraSans-Roman-30_3_" d="M31.783,66.41c-5.074,0-8.891-2.506-11.454-7.503
								c-2.551-4.989-3.829-12.5-3.829-22.534c0-9.985,1.278-17.48,3.829-22.485c2.563-4.997,6.38-7.495,11.454-7.495
								c5.115,0,8.948,2.498,11.499,7.495c2.563,5.005,3.845,12.5,3.845,22.485c0,10.034-1.282,17.546-3.845,22.534
								C40.73,63.904,36.897,66.41,31.783,66.41 M31.783,74.222c8.175,0,14.42-3.239,18.734-9.708
								c4.313-6.454,6.47-15.837,6.47-28.141c0-12.272-2.157-21.639-6.47-28.109C46.203,1.81,39.958-1.42,31.783-1.42
								c-8.167,0-14.408,3.231-18.722,9.684C8.748,14.734,6.596,24.1,6.596,36.373c0,12.305,2.152,21.688,6.465,28.141
								C17.375,70.984,23.616,74.222,31.783,74.222"/>
						</g>
						<g>
							<path id="BitstreamVeraSans-Roman-2e_1_" d="M74.312,12.406h10.311V0.004H74.312V12.406z"/>
						</g>
						<g>
							<path id="BitstreamVeraSans-Roman-30_4_" d="M127.193,66.41c-5.074,0-8.891-2.506-11.454-7.503
								c-2.551-4.989-3.829-12.5-3.829-22.534c0-9.985,1.278-17.48,3.829-22.485c2.563-4.997,6.38-7.495,11.454-7.495
								c5.115,0,8.948,2.498,11.499,7.495c2.563,5.005,3.845,12.5,3.845,22.485c0,10.034-1.282,17.546-3.845,22.534
								C136.141,63.904,132.308,66.41,127.193,66.41 M127.193,74.222c8.175,0,14.42-3.239,18.734-9.708
								c4.313-6.454,6.47-15.837,6.47-28.141c0-12.272-2.157-21.639-6.47-28.109c-4.313-6.454-10.559-9.684-18.734-9.684
								c-8.167,0-14.408,3.231-18.722,9.684c-4.313,6.47-6.465,15.836-6.465,28.109c0,12.305,2.152,21.688,6.465,28.141
								C112.785,70.984,119.026,74.222,127.193,74.222"/>
						</g>
						<g>
							<path id="BitstreamVeraSans-Roman-35" d="M169.832,72.904h38.717v-8.309h-29.688V46.732c1.428,0.488,2.852,0.854,4.28,1.099
								c1.437,0.236,2.877,0.358,4.313,0.358c8.134,0,14.579-2.23,19.328-6.689c4.761-4.46,7.141-10.498,7.141-18.107
								c0-7.845-2.441-13.948-7.328-18.302c-4.887-4.338-11.772-6.51-20.654-6.51c-3.064,0-6.185,0.26-9.363,0.781
								c-3.166,0.521-6.441,1.302-9.827,2.344v9.92c2.925-1.595,5.953-2.783,9.078-3.564s6.429-1.172,9.908-1.172
								c5.636,0,10.091,1.481,13.375,4.443c3.292,2.954,4.936,6.974,4.936,12.061c0,5.07-1.644,9.09-4.936,12.044
								c-3.284,2.97-7.739,4.451-13.375,4.451c-2.637,0-5.265-0.293-7.89-0.871c-2.617-0.586-5.29-1.497-8.016-2.734V72.904z"/>
						</g>
					</g>
				</g>
			</g>
			<g id="xtick_3">
				<g id="line2d_5">
					<g>
						<g>
							<path id="mcb557df647_2_" stroke="#000000" stroke-width="0.5" stroke-linejoin="round" d="M255.258,398.52v-4"/>
						</g>
					</g>
				</g>
				<g id="line2d_6">
					<g>
						<g>
							<path id="mdad270ee8e_2_" stroke="#000000" stroke-width="0.5" stroke-linejoin="round" d="M255.258,44.28v4"/>
						</g>
					</g>
				</g>
				<g id="text_3">
					<g transform="translate(242.6926875 411.42625)scale(0.12 -0.12)">
						<g>
							<path id="BitstreamVeraSans-Roman-30_5_" d="M31.781,66.41c-5.074,0-8.891-2.506-11.454-7.503
								c-2.551-4.989-3.825-12.5-3.825-22.534c0-9.985,1.273-17.48,3.825-22.485c2.563-4.997,6.38-7.495,11.454-7.495
								c5.115,0,8.948,2.498,11.499,7.495c2.563,5.005,3.845,12.5,3.845,22.485c0,10.034-1.282,17.546-3.845,22.534
								C40.729,63.904,36.896,66.41,31.781,66.41 M31.781,74.222c8.179,0,14.425-3.239,18.734-9.708
								c4.313-6.454,6.47-15.837,6.47-28.141c0-12.272-2.157-21.639-6.47-28.109C46.206,1.81,39.959-1.42,31.781-1.42
								c-8.167,0-14.404,3.231-18.717,9.684c-4.313,6.47-6.47,15.836-6.47,28.109c0,12.305,2.157,21.688,6.47,28.141
								C17.376,70.984,23.614,74.222,31.781,74.222"/>
						</g>
						<g>
							<path id="BitstreamVeraSans-Roman-2e_2_" d="M74.31,12.406h10.315V0.004H74.31V12.406z"/>
						</g>
						<g>
							<path id="BitstreamVeraSans-Roman-31" d="M107.818,8.296h16.109V63.92l-17.533-3.516v8.984l17.439,3.516h9.859V8.296h16.109
								V0.004h-41.984V8.296z"/>
						</g>
						<g>
							<path id="BitstreamVeraSans-Roman-30_6_" d="M190.814,66.41c-5.074,0-8.891-2.506-11.454-7.503
								c-2.551-4.989-3.825-12.5-3.825-22.534c0-9.985,1.273-17.48,3.825-22.485c2.563-4.997,6.38-7.495,11.454-7.495
								c5.115,0,8.948,2.498,11.499,7.495c2.563,5.005,3.845,12.5,3.845,22.485c0,10.034-1.282,17.546-3.845,22.534
								C199.762,63.904,195.929,66.41,190.814,66.41 M190.814,74.222c8.179,0,14.425-3.239,18.734-9.708
								c4.313-6.454,6.47-15.837,6.47-28.141c0-12.272-2.157-21.639-6.47-28.109c-4.309-6.454-10.555-9.684-18.734-9.684
								c-8.167,0-14.404,3.231-18.717,9.684c-4.313,6.47-6.47,15.836-6.47,28.109c0,12.305,2.157,21.688,6.47,28.141
								C176.41,70.984,182.647,74.222,190.814,74.222"/>
						</g>
					</g>
				</g>
			</g>
			<g id="xtick_4">
				<g id="line2d_7">
					<g>
						<g>
							<path id="mcb557df647_3_" stroke="#000000" stroke-width="0.5" stroke-linejoin="round" d="M346.212,398.52v-4"/>
						</g>
					</g>
				</g>
				<g id="line2d_8">
					<g>
						<g>
							<path id="mdad270ee8e_3_" stroke="#000000" stroke-width="0.5" stroke-linejoin="round" d="M346.212,44.28v4"/>
						</g>
					</g>
				</g>
				<g id="text_4">
					<g transform="translate(333.7723125 411.42625)scale(0.12 -0.12)">
						<g>
							<path id="BitstreamVeraSans-Roman-30_7_" d="M31.781,66.41c-5.07,0-8.887-2.506-11.45-7.503
								c-2.556-4.989-3.833-12.5-3.833-22.534c0-9.985,1.277-17.48,3.833-22.485c2.563-4.997,6.38-7.495,11.45-7.495
								c5.11,0,8.951,2.498,11.499,7.495c2.563,5.005,3.849,12.5,3.849,22.485c0,10.034-1.285,17.546-3.849,22.534
								C40.732,63.904,36.892,66.41,31.781,66.41 M31.781,74.222c8.179,0,14.42-3.239,18.733-9.708
								c4.313-6.454,6.47-15.837,6.47-28.141c0-12.272-2.156-21.639-6.47-28.109C46.201,1.81,39.96-1.42,31.781-1.42
								c-8.171,0-14.404,3.231-18.718,9.684c-4.313,6.47-6.47,15.836-6.47,28.109c0,12.305,2.156,21.688,6.47,28.141
								C17.377,70.984,23.61,74.222,31.781,74.222"/>
						</g>
						<g>
							<path id="BitstreamVeraSans-Roman-2e_3_" d="M74.311,12.406h10.318V0.004H74.311V12.406z"/>
						</g>
						<g>
							<path id="BitstreamVeraSans-Roman-31_1_" d="M107.822,8.296h16.105V63.92l-17.537-3.516v8.984l17.447,3.516h9.855V8.296
								h16.105V0.004h-41.977V8.296z"/>
						</g>
						<g>
							<path id="BitstreamVeraSans-Roman-35_1_" d="M169.834,72.904h38.721v-8.309h-29.688V46.732
								c1.416,0.488,2.849,0.854,4.281,1.099c1.432,0.236,2.864,0.358,4.313,0.358c8.13,0,14.567-2.23,19.32-6.689
								c4.769-4.46,7.145-10.498,7.145-18.107c0-7.845-2.441-13.948-7.324-18.302c-4.891-4.338-11.775-6.51-20.662-6.51
								c-3.06,0-6.177,0.26-9.358,0.781c-3.166,0.521-6.438,1.302-9.823,2.344v9.92c2.922-1.595,5.949-2.783,9.074-3.564
								s6.421-1.172,9.904-1.172c5.631,0,10.091,1.481,13.379,4.443c3.287,2.954,4.932,6.974,4.932,12.061
								c0,5.07-1.645,9.09-4.932,12.044c-3.288,2.97-7.748,4.451-13.379,4.451c-2.637,0-5.266-0.293-7.895-0.871
								c-2.612-0.586-5.281-1.497-8.008-2.734V72.904z"/>
						</g>
					</g>
				</g>
			</g>
			<g id="xtick_5">
				<g id="line2d_9">
					<g>
						<g>
							<path id="mcb557df647_4_" stroke="#000000" stroke-width="0.5" stroke-linejoin="round" d="M437.166,398.52v-4"/>
						</g>
					</g>
				</g>
				<g id="line2d_10">
					<g>
						<g>
							<path id="mdad270ee8e_4_" stroke="#000000" stroke-width="0.5" stroke-linejoin="round" d="M437.166,44.28v4"/>
						</g>
					</g>
				</g>
				<g id="text_5">
					<g transform="translate(424.6006875 411.42625)scale(0.12 -0.12)">
						<g>
							<path id="BitstreamVeraSans-Roman-30_8_" d="M31.779,66.41c-5.069,0-8.887-2.506-11.45-7.503
								c-2.555-4.989-3.824-12.5-3.824-22.534c0-9.985,1.27-17.48,3.824-22.485c2.563-4.997,6.381-7.495,11.45-7.495
								c5.119,0,8.952,2.498,11.508,7.495c2.555,5.005,3.841,12.5,3.841,22.485c0,10.034-1.286,17.546-3.841,22.534
								C40.731,63.904,36.898,66.41,31.779,66.41 M31.779,74.222c8.179,0,14.429-3.239,18.734-9.708
								c4.313-6.454,6.47-15.837,6.47-28.141c0-12.272-2.157-21.639-6.47-28.109C46.208,1.81,39.958-1.42,31.779-1.42
								c-8.162,0-14.404,3.231-18.717,9.684c-4.313,6.47-6.47,15.836-6.47,28.109c0,12.305,2.156,21.688,6.47,28.141
								C17.375,70.984,23.617,74.222,31.779,74.222"/>
						</g>
						<g>
							<path id="BitstreamVeraSans-Roman-2e_4_" d="M74.309,12.406h10.319V0.004H74.309V12.406z"/>
						</g>
						<g>
							<path id="BitstreamVeraSans-Roman-32" d="M114.601,8.296h34.424V0.004h-46.281v8.293c3.735,3.874,8.838,9.074,15.291,15.593
								c6.47,6.535,10.531,10.75,12.191,12.638c3.157,3.548,5.354,6.543,6.607,9.001c1.262,2.458,1.889,4.875,1.889,7.251
								c0,3.874-1.359,7.031-4.077,9.473c-2.719,2.449-6.259,3.67-10.62,3.67c-3.101,0-6.364-0.537-9.799-1.611
								c-3.426-1.074-7.096-2.702-11.002-4.891v9.969c3.971,1.595,7.674,2.8,11.124,3.613c3.459,0.814,6.625,1.221,9.489,1.221
								c7.552,0,13.566-1.896,18.059-5.672s6.738-8.813,6.738-15.129c0-3.003-0.562-5.843-1.693-8.529
								c-1.114-2.677-3.157-5.843-6.119-9.489c-0.814-0.944-3.402-3.678-7.772-8.187C128.695,22.709,122.551,16.402,114.601,8.296"
								/>
						</g>
						<g>
							<path id="BitstreamVeraSans-Roman-30_9_" d="M190.813,66.41c-5.069,0-8.887-2.506-11.45-7.503
								c-2.555-4.989-3.824-12.5-3.824-22.534c0-9.985,1.27-17.48,3.824-22.485c2.563-4.997,6.381-7.495,11.45-7.495
								c5.119,0,8.952,2.498,11.508,7.495c2.555,5.005,3.841,12.5,3.841,22.485c0,10.034-1.286,17.546-3.841,22.534
								C199.765,63.904,195.932,66.41,190.813,66.41 M190.813,74.222c8.179,0,14.429-3.239,18.734-9.708
								c4.313-6.454,6.47-15.837,6.47-28.141c0-12.272-2.157-21.639-6.47-28.109c-4.306-6.454-10.556-9.684-18.734-9.684
								c-8.162,0-14.404,3.231-18.717,9.684c-4.313,6.47-6.47,15.836-6.47,28.109c0,12.305,2.156,21.688,6.47,28.141
								C176.408,70.984,182.65,74.222,190.813,74.222"/>
						</g>
					</g>
				</g>
			</g>
			<g id="xtick_6">
				<g id="line2d_11">
					<g>
						<g>
							<path id="mcb557df647_5_" stroke="#000000" stroke-width="0.5" stroke-linejoin="round" d="M528.12,398.52v-4"/>
						</g>
					</g>
				</g>
				<g id="line2d_12">
					<g>
						<g>
							<path id="mdad270ee8e_5_" stroke="#000000" stroke-width="0.5" stroke-linejoin="round" d="M528.12,44.28v4"/>
						</g>
					</g>
				</g>
				<g id="text_6">
					<g transform="translate(515.6803125 411.42625)scale(0.12 -0.12)">
						<g>
							<path id="BitstreamVeraSans-Roman-30_10_" d="M31.784,66.41c-5.078,0-8.895-2.506-11.458-7.503
								c-2.548-4.989-3.825-12.5-3.825-22.534c0-9.985,1.277-17.48,3.825-22.485c2.563-4.997,6.38-7.495,11.458-7.495
								c5.11,0,8.943,2.498,11.499,7.495c2.563,5.005,3.841,12.5,3.841,22.485c0,10.034-1.277,17.546-3.841,22.534
								C40.728,63.904,36.895,66.41,31.784,66.41 M31.784,74.222c8.179,0,14.421-3.239,18.733-9.708
								c4.313-6.454,6.47-15.837,6.47-28.141c0-12.272-2.156-21.639-6.47-28.109C46.205,1.81,39.963-1.42,31.784-1.42
								c-8.171,0-14.404,3.231-18.718,9.684c-4.313,6.47-6.47,15.836-6.47,28.109c0,12.305,2.157,21.688,6.47,28.141
								C17.38,70.984,23.613,74.222,31.784,74.222"/>
						</g>
						<g>
							<path id="BitstreamVeraSans-Roman-2e_5_" d="M74.313,12.406h10.311V0.004H74.313V12.406z"/>
						</g>
						<g>
							<path id="BitstreamVeraSans-Roman-32_1_" d="M114.597,8.296h34.424V0.004h-46.281v8.293c3.744,3.874,8.838,9.074,15.3,15.593
								c6.47,6.535,10.53,10.75,12.183,12.638c3.157,3.548,5.363,6.543,6.608,9.001c1.261,2.458,1.896,4.875,1.896,7.251
								c0,3.874-1.358,7.031-4.077,9.473c-2.718,2.449-6.266,3.67-10.628,3.67c-3.093,0-6.355-0.537-9.798-1.611
								c-3.427-1.074-7.089-2.702-10.995-4.891v9.969c3.964,1.595,7.675,2.8,11.125,3.613c3.459,0.814,6.616,1.221,9.48,1.221
								c7.553,0,13.574-1.896,18.066-5.672c4.484-3.776,6.73-8.813,6.73-15.129c0-3.003-0.562-5.843-1.685-8.529
								c-1.115-2.677-3.157-5.843-6.128-9.489c-0.813-0.944-3.401-3.678-7.764-8.187C128.7,22.709,122.548,16.402,114.597,8.296"/>
						</g>
						<g>
							<path id="BitstreamVeraSans-Roman-35_2_" d="M169.829,72.904h38.721v-8.309h-29.688V46.732
								c1.425,0.488,2.856,0.854,4.281,1.099c1.44,0.236,2.872,0.358,4.313,0.358c8.139,0,14.575-2.23,19.328-6.689
								c4.761-4.46,7.146-10.498,7.146-18.107c0-7.845-2.45-13.948-7.333-18.302c-4.883-4.338-11.768-6.51-20.654-6.51
								c-3.067,0-6.185,0.26-9.358,0.781c-3.166,0.521-6.445,1.302-9.831,2.344v9.92c2.93-1.595,5.957-2.783,9.082-3.564
								s6.421-1.172,9.904-1.172c5.632,0,10.091,1.481,13.371,4.443c3.296,2.954,4.939,6.974,4.939,12.061
								c0,5.07-1.644,9.09-4.939,12.044c-3.28,2.97-7.739,4.451-13.371,4.451c-2.637,0-5.266-0.293-7.894-0.871
								c-2.612-0.586-5.282-1.497-8.017-2.734V72.904z"/>
						</g>
					</g>
				</g>
			</g>
		</g>
		<g id="matplotlib.axis_2">
			<g id="ytick_1">
				<g id="line2d_13">
					<g>
						<g>
							<path id="mc8fcea1516" stroke="#000000" stroke-width="0.5" stroke-linejoin="round" d="M73.35,398.52h4"/>
						</g>
					</g>
				</g>
				<g id="line2d_14">
					<g>
						<g>
							<path id="m0d5b0a6425" stroke="#000000" stroke-width="0.5" stroke-linejoin="round" d="M528.12,398.52h-4"/>
						</g>
					</g>
				</g>
				<g id="text_7">
					<g transform="translate(63.303125 402.8878125)scale(0.12 -0.12)">
						<g>
							<path id="BitstreamVeraSans-Roman-30_11_" d="M31.783,66.407c-5.07,0-8.891-2.499-11.45-7.503
								c-2.555-4.989-3.829-12.5-3.829-22.526c0-9.994,1.273-17.489,3.829-22.485c2.56-5.005,6.38-7.503,11.45-7.503
								c5.115,0,8.948,2.499,11.503,7.503c2.559,4.997,3.841,12.492,3.841,22.485c0,10.026-1.282,17.537-3.841,22.526
								C40.73,63.909,36.897,66.407,31.783,66.407 M31.783,74.22c8.179,0,14.425-3.239,18.738-9.701
								c4.309-6.461,6.466-15.845,6.466-28.141c0-12.272-2.157-21.647-6.466-28.109c-4.313-6.461-10.559-9.692-18.738-9.692
								c-8.167,0-14.404,3.231-18.717,9.692c-4.313,6.462-6.47,15.837-6.47,28.109c0,12.296,2.157,21.68,6.47,28.141
								C17.378,70.981,23.616,74.22,31.783,74.22"/>
						</g>
					</g>
				</g>
			</g>
			<g id="ytick_2">
				<g id="line2d_15">
					<g>
						<g>
							<path id="mc8fcea1516_1_" stroke="#000000" stroke-width="0.5" stroke-linejoin="round" d="M73.35,359.16h4"/>
						</g>
					</g>
				</g>
				<g id="line2d_16">
					<g>
						<g>
							<path id="m0d5b0a6425_1_" stroke="#000000" stroke-width="0.5" stroke-linejoin="round" d="M528.12,359.16h-4"/>
						</g>
					</g>
				</g>
				<g id="text_8">
					<g transform="translate(64.14125 363.534375)scale(0.12 -0.12)">
						<g>
							<path id="BitstreamVeraSans-Roman-31_2_" d="M12.408,8.294h16.109v55.632L10.988,60.41v8.984l17.436,3.516h9.859V8.294
								h16.109V0.001H12.408V8.294z"/>
						</g>
					</g>
				</g>
			</g>
			<g id="ytick_3">
				<g id="line2d_17">
					<g>
						<g>
							<path id="mc8fcea1516_2_" stroke="#000000" stroke-width="0.5" stroke-linejoin="round" d="M73.35,319.8h4"/>
						</g>
					</g>
				</g>
				<g id="line2d_18">
					<g>
						<g>
							<path id="m0d5b0a6425_2_" stroke="#000000" stroke-width="0.5" stroke-linejoin="round" d="M528.12,319.8h-4"/>
						</g>
					</g>
				</g>
				<g id="text_9">
					<g transform="translate(63.79625 324.253125)scale(0.12 -0.12)">
						<g>
							<path id="BitstreamVeraSans-Roman-32_2_" d="M19.189,8.294h34.424V0.002H7.333v8.292c3.739,3.874,8.838,9.074,15.295,15.592
								c6.47,6.535,10.531,10.75,12.187,12.646c3.158,3.54,5.359,6.543,6.612,9.001c1.257,2.458,1.888,4.875,1.888,7.251
								c0,3.874-1.359,7.031-4.077,9.464c-2.718,2.45-6.262,3.67-10.625,3.67c-3.092,0-6.36-0.537-9.798-1.604
								c-3.426-1.074-7.092-2.71-10.999-4.891v9.969c3.967,1.587,7.678,2.792,11.125,3.605c3.458,0.813,6.62,1.221,9.485,1.221
								c7.552,0,13.57-1.896,18.063-5.672c4.488-3.776,6.734-8.813,6.734-15.128c0-2.995-0.562-5.843-1.688-8.529
								c-1.115-2.677-3.158-5.835-6.124-9.481c-0.813-0.952-3.401-3.678-7.768-8.195C33.289,22.707,27.141,16.4,19.189,8.294"/>
						</g>
					</g>
				</g>
			</g>
			<g id="ytick_4">
				<g id="line2d_19">
					<g>
						<g>
							<path id="mc8fcea1516_3_" stroke="#000000" stroke-width="0.5" stroke-linejoin="round" d="M73.351,280.439h4"/>
						</g>
					</g>
				</g>
				<g id="line2d_20">
					<g>
						<g>
							<path id="m0d5b0a6425_3_" stroke="#000000" stroke-width="0.5" stroke-linejoin="round" d="M528.121,280.439h-4"/>
						</g>
					</g>
				</g>
				<g id="text_10">
					<g transform="translate(63.591875 284.8078125)scale(0.12 -0.12)">
						<g>
							<path id="BitstreamVeraSans-Roman-33" d="M40.583,39.316c4.716-1.009,8.398-3.117,11.047-6.315
								c2.653-3.19,3.984-7.129,3.984-11.816c0-7.186-2.474-12.752-7.422-16.699c-4.948-3.939-11.979-5.908-21.094-5.908
								c-3.052,0-6.197,0.301-9.44,0.912c-3.239,0.602-6.583,1.505-10.03,2.718v9.514c2.73-1.595,5.721-2.8,8.968-3.605
								c3.264-0.813,6.669-1.221,10.222-1.221c6.177,0,10.884,1.221,14.124,3.654C44.18,12.982,45.8,16.53,45.8,21.185
								c0,4.305-1.506,7.666-4.517,10.083c-3.007,2.425-7.198,3.638-12.561,3.638h-8.5v8.105h8.891
								c4.842,0,8.553,0.977,11.125,2.914c2.572,1.937,3.861,4.728,3.861,8.374c0,3.735-1.331,6.608-3.987,8.61
								c-2.645,2.01-6.441,3.019-11.389,3.019c-2.71,0-5.607-0.301-8.704-0.895c-3.093-0.586-6.494-1.489-10.201-2.718v8.781
								c3.748,1.042,7.259,1.823,10.531,2.344c3.271,0.521,6.352,0.781,9.249,0.781c7.491,0,13.412-1.701,17.766-5.111
								c4.366-3.394,6.547-7.992,6.547-13.778c0-4.044-1.156-7.454-3.467-10.237C48.127,42.312,44.843,40.391,40.583,39.316"/>
						</g>
					</g>
				</g>
			</g>
			<g id="ytick_5">
				<g id="line2d_21">
					<g>
						<g>
							<path id="mc8fcea1516_4_" stroke="#000000" stroke-width="0.5" stroke-linejoin="round" d="M73.351,241.08h4"/>
						</g>
					</g>
				</g>
				<g id="line2d_22">
					<g>
						<g>
							<path id="m0d5b0a6425_4_" stroke="#000000" stroke-width="0.5" stroke-linejoin="round" d="M528.121,241.08h-4"/>
						</g>
					</g>
				</g>
				<g id="text_11">
					<g transform="translate(62.975 245.454375)scale(0.12 -0.12)">
						<g>
							<path id="BitstreamVeraSans-Roman-34" d="M37.801,64.318L12.895,25.394h24.906V64.318z M35.206,72.912h12.406V25.394h10.409
								V17.19H47.612V0.003h-9.811V17.19H4.896v9.513L35.206,72.912z"/>
						</g>
					</g>
				</g>
			</g>
			<g id="ytick_6">
				<g id="line2d_23">
					<g>
						<g>
							<path id="mc8fcea1516_5_" stroke="#000000" stroke-width="0.5" stroke-linejoin="round" d="M73.351,201.72h4"/>
						</g>
					</g>
				</g>
				<g id="line2d_24">
					<g>
						<g>
							<path id="m0d5b0a6425_5_" stroke="#000000" stroke-width="0.5" stroke-linejoin="round" d="M528.121,201.72h-4"/>
						</g>
					</g>
				</g>
				<g id="text_12">
					<g transform="translate(63.689375 206.0090625)scale(0.12 -0.12)">
						<g>
							<path id="BitstreamVeraSans-Roman-35_3_" d="M10.799,72.908H49.52v-8.313H19.833V46.736c1.428,0.488,2.853,0.854,4.281,1.095
								c1.436,0.24,2.876,0.358,4.313,0.358c8.134,0,14.579-2.229,19.328-6.689c4.761-4.456,7.141-10.494,7.141-18.107
								c0-7.845-2.441-13.944-7.328-18.298C42.68,0.752,35.795-1.421,26.909-1.421c-3.06,0-6.181,0.261-9.359,0.781
								c-3.166,0.521-6.441,1.302-9.827,2.344v9.92c2.926-1.591,5.953-2.779,9.078-3.561s6.425-1.172,9.904-1.172
								c5.636,0,10.095,1.477,13.379,4.439c3.288,2.954,4.936,6.979,4.936,12.061c0,5.074-1.648,9.09-4.936,12.048
								c-3.284,2.966-7.743,4.452-13.379,4.452c-2.633,0-5.265-0.293-7.89-0.875c-2.612-0.582-5.286-1.493-8.016-2.734V72.908z"/>
						</g>
					</g>
				</g>
			</g>
			<g id="ytick_7">
				<g id="line2d_25">
					<g>
						<g>
							<path id="mc8fcea1516_6_" stroke="#000000" stroke-width="0.5" stroke-linejoin="round" d="M73.351,162.36h4"/>
						</g>
					</g>
				</g>
				<g id="line2d_26">
					<g>
						<g>
							<path id="m0d5b0a6425_6_" stroke="#000000" stroke-width="0.5" stroke-linejoin="round" d="M528.121,162.36h-4"/>
						</g>
					</g>
				</g>
				<g id="text_13">
					<g transform="translate(63.30875 166.7278125)scale(0.12 -0.12)">
						<g>
							<path id="BitstreamVeraSans-Roman-36" d="M33.019,40.376c-4.427,0-7.935-1.514-10.53-4.545
								c-2.584-3.023-3.874-7.169-3.874-12.439c0-5.241,1.29-9.387,3.874-12.439c2.596-3.04,6.104-4.562,10.53-4.562
								c4.427,0,7.935,1.522,10.519,4.562c2.584,3.052,3.874,7.198,3.874,12.439c0,5.27-1.29,9.416-3.874,12.439
								C40.953,38.862,37.446,40.376,33.019,40.376 M52.599,71.296v-8.984c-2.482,1.168-4.98,2.059-7.499,2.673
								c-2.523,0.627-5.021,0.936-7.503,0.936c-6.51,0-11.482-2.197-14.921-6.592c-3.426-4.395-5.383-11.035-5.875-19.922
								c1.917,2.832,4.325,5.005,7.218,6.515c2.909,1.509,6.1,2.266,9.579,2.266c7.324,0,13.11-2.222,17.362-6.673
								c4.248-4.436,6.372-10.478,6.372-18.124c0-7.491-2.213-13.501-6.641-18.03c-4.427-4.521-10.315-6.783-17.672-6.783
								c-8.435,0-14.884,3.231-19.344,9.688c-4.456,6.47-6.686,15.836-6.686,28.109c0,11.519,2.734,20.707,8.203,27.563
								c5.469,6.852,12.805,10.282,22.013,10.282c2.482,0,4.98-0.248,7.503-0.736C47.228,72.998,49.856,72.269,52.599,71.296"/>
						</g>
					</g>
				</g>
			</g>
			<g id="ytick_8">
				<g id="line2d_27">
					<g>
						<g>
							<path id="mc8fcea1516_7_" stroke="#000000" stroke-width="0.5" stroke-linejoin="round" d="M73.351,123h4"/>
						</g>
					</g>
				</g>
				<g id="line2d_28">
					<g>
						<g>
							<path id="m0d5b0a6425_7_" stroke="#000000" stroke-width="0.5" stroke-linejoin="round" d="M528.121,123h-4"/>
						</g>
					</g>
				</g>
				<g id="text_14">
					<g transform="translate(63.725 127.374375)scale(0.12 -0.12)">
						<g>
							<path id="BitstreamVeraSans-Roman-37" d="M8.208,72.909h46.875v-4.204L28.615,0H18.316l24.906,64.596H8.208V72.909z"/>
						</g>
					</g>
				</g>
			</g>
			<g id="ytick_9">
				<g id="line2d_29">
					<g>
						<g>
							<path id="mc8fcea1516_8_" stroke="#000000" stroke-width="0.5" stroke-linejoin="round" d="M73.351,83.64h4"/>
						</g>
					</g>
				</g>
				<g id="line2d_30">
					<g>
						<g>
							<path id="m0d5b0a6425_8_" stroke="#000000" stroke-width="0.5" stroke-linejoin="round" d="M528.121,83.64h-4"/>
						</g>
					</g>
				</g>
				<g id="text_15">
					<g transform="translate(63.35 88.0078125)scale(0.12 -0.12)">
						<g>
							<path id="BitstreamVeraSans-Roman-38" d="M31.784,34.629c-4.688,0-8.374-1.257-11.06-3.768
								c-2.677-2.51-4.016-5.957-4.016-10.343c0-4.395,1.339-7.849,4.016-10.36c2.686-2.51,6.372-3.768,11.06-3.768
								s8.382,1.261,11.08,3.784c2.71,2.531,4.061,5.977,4.061,10.343c0,4.386-1.343,7.833-4.028,10.343
								C40.219,33.372,36.517,34.629,31.784,34.629 M21.925,38.812c-4.228,1.042-7.524,3.011-9.888,5.908
								c-2.356,2.905-3.532,6.441-3.532,10.608c0,5.823,2.071,10.429,6.218,13.814c4.158,3.386,9.843,5.078,17.061,5.078
								c7.263,0,12.96-1.692,17.094-5.078c4.138-3.385,6.205-7.991,6.205-13.814c0-4.167-1.184-7.703-3.548-10.608
								c-2.356-2.897-5.631-4.867-9.827-5.908c4.749-1.103,8.447-3.268,11.092-6.499c2.657-3.218,3.983-7.149,3.983-11.796
								c0-7.072-2.156-12.5-6.465-16.28c-4.313-3.772-10.49-5.66-18.535-5.66c-8.028,0-14.205,1.888-18.53,5.66
								c-4.313,3.78-6.47,9.208-6.47,16.28c0,4.647,1.335,8.578,4,11.796C13.461,35.544,17.177,37.709,21.925,38.812 M18.316,54.392
								c0-3.772,1.176-6.714,3.532-8.826c2.364-2.116,5.676-3.174,9.937-3.174c4.24,0,7.552,1.058,9.941,3.174
								c2.393,2.112,3.593,5.054,3.593,8.826c0,3.78-1.2,6.73-3.593,8.842c-2.389,2.116-5.701,3.174-9.941,3.174
								c-4.26,0-7.572-1.058-9.937-3.174C19.492,61.122,18.316,58.172,18.316,54.392"/>
						</g>
					</g>
				</g>
			</g>
			<g id="ytick_10">
				<g id="line2d_31">
					<g>
						<g>
							<path id="mc8fcea1516_9_" stroke="#000000" stroke-width="0.5" stroke-linejoin="round" d="M73.351,44.28h4"/>
						</g>
					</g>
				</g>
				<g id="line2d_32">
					<g>
						<g>
							<path id="m0d5b0a6425_9_" stroke="#000000" stroke-width="0.5" stroke-linejoin="round" d="M528.121,44.28h-4"/>
						</g>
					</g>
				</g>
				<g id="text_16">
					<g transform="translate(63.314375 48.6478125)scale(0.12 -0.12)">
						<g>
							<path id="BitstreamVeraSans-Roman-39" d="M10.987,1.519v8.984c2.482-1.18,4.985-2.075,7.516-2.689
								c2.543-0.615,5.038-0.92,7.487-0.92c6.511,0,11.479,2.185,14.905,6.563c3.438,4.374,5.4,11.023,5.892,19.95
								c-1.884-2.803-4.281-4.952-7.19-6.453c-2.893-1.498-6.095-2.25-9.607-2.25c-7.292,0-13.062,2.206-17.313,6.612
								C8.428,35.731,6.3,41.769,6.3,49.423c0,7.479,2.214,13.481,6.641,18.001c4.427,4.529,10.319,6.795,17.672,6.795
								c8.439,0,14.876-3.235,19.315-9.701c4.448-6.461,6.669-15.841,6.669-28.141c0-11.491-2.727-20.663-8.187-27.519
								C42.962,2.007,35.633-1.419,26.425-1.419c-2.478,0-4.989,0.244-7.532,0.732C16.363-0.194,13.73,0.538,10.987,1.519
								 M30.612,32.423c4.427,0,7.935,1.509,10.519,4.533c2.592,3.031,3.89,7.186,3.89,12.467c0,5.241-1.298,9.379-3.89,12.423
								c-2.584,3.043-6.091,4.562-10.519,4.562s-7.931-1.518-10.514-4.562c-2.584-3.043-3.874-7.182-3.874-12.423
								c0-5.281,1.29-9.436,3.874-12.467C22.682,33.932,26.185,32.423,30.612,32.423"/>
						</g>
					</g>
				</g>
			</g>
		</g>
		<g id="patch_53">
			<path fill="none" stroke="#000000" stroke-linecap="square" stroke-linejoin="round" d="M73.351,44.28h454.77"/>
		</g>
		<g id="patch_54">
			<path fill="none" stroke="#000000" stroke-linecap="square" stroke-linejoin="round" d="M528.121,398.519V44.28"/>
		</g>
		<g id="patch_55">
			<path fill="none" stroke="#000000" stroke-linecap="square" stroke-linejoin="round" d="M73.351,398.519h454.77"/>
		</g>
		<g id="patch_56">
			<path fill="none" stroke="#000000" stroke-linecap="square" stroke-linejoin="round" d="M73.351,398.519V44.28"/>
		</g>
		<g id="text_17">
			<g transform="translate(173.188125 39.28)scale(0.144 -0.144)">
				<g>
					<path id="BitstreamVeraSans-Roman-55" d="M8.691,72.907h9.921V28.612c0-7.813,1.414-13.438,4.235-16.876
						c2.835-3.428,7.426-5.141,13.78-5.141c6.314,0,10.888,1.712,13.72,5.141C53.182,15.174,54.6,20.8,54.6,28.612v44.294h9.905
						V27.392c0-9.498-2.354-16.676-7.063-21.532c-4.696-4.853-11.634-7.28-20.813-7.28c-9.216,0-16.181,2.428-20.887,7.28
						c-4.7,4.855-7.05,12.034-7.05,21.532V72.907z"/>
				</g>
				<g>
					<path id="BitstreamVeraSans-Roman-6e" d="M128.089,33.017V0h-8.986v32.722c0,5.174-1.01,9.047-3.031,11.607
						c-2.021,2.573-5.046,3.862-9.078,3.862c-4.855,0-8.68-1.549-11.484-4.642c-2.801-3.082-4.202-7.297-4.202-12.641V0h-9.033
						v54.688h9.033V46.19c2.157,3.289,4.687,5.751,7.592,7.375c2.916,1.625,6.283,2.438,10.095,2.438
						c6.28,0,11.03-1.943,14.248-5.829C126.475,46.289,128.089,40.568,128.089,33.017"/>
				</g>
				<g>
					<path id="BitstreamVeraSans-Roman-69" d="M146,54.688h8.982V0H146V54.688z M146,75.986h8.982v-11.39H146V75.986z"/>
				</g>
				<g>
					<path id="BitstreamVeraSans-Roman-46" d="M174.174,72.907h41.89v-8.311h-32.033V43.112h28.907v-8.298h-28.907V0h-9.857V72.907z
						"/>
				</g>
				<g>
					<path id="BitstreamVeraSans-Roman-72" d="M255.737,46.299c-1.01,0.583-2.109,1.011-3.296,1.282
						c-1.187,0.282-2.496,0.42-3.919,0.42c-5.086,0-8.986-1.651-11.706-4.95c-2.719-3.303-4.079-8.05-4.079-14.235V0h-9.03v54.688
						h9.03V46.19c1.896,3.323,4.357,5.785,7.375,7.389c3.032,1.618,6.714,2.424,11.047,2.424c0.617,0,1.299-0.044,2.048-0.125
						c0.75-0.074,1.577-0.193,2.485-0.359L255.737,46.299z"/>
				</g>
				<g>
					<path id="BitstreamVeraSans-Roman-61" d="M290.022,27.487c-7.26,0-12.292-0.828-15.093-2.486
						c-2.801-1.655-4.201-4.489-4.201-8.5c0-3.188,1.051-5.717,3.153-7.592c2.106-1.865,4.961-2.797,8.565-2.797
						c4.988,0,8.989,1.767,12,5.296c3.008,3.533,4.513,8.226,4.513,14.079v2.001H290.022z M307.946,31.207V0h-8.986v8.297
						c-2.051-3.313-4.608-5.761-7.67-7.341c-3.062-1.583-6.809-2.377-11.234-2.377c-5.595,0-10.047,1.573-13.36,4.72
						c-3.303,3.143-4.954,7.354-4.954,12.624c0,6.144,2.058,10.783,6.171,13.906c4.126,3.126,10.271,4.689,18.439,4.689h12.607
						v0.889c0,4.137-1.359,7.334-4.079,9.596c-2.716,2.258-6.534,3.391-11.451,3.391c-3.126,0-6.171-0.376-9.142-1.126
						c-2.957-0.752-5.802-1.875-8.532-3.377v8.314c3.283,1.271,6.47,2.217,9.563,2.841c3.096,0.638,6.107,0.956,9.033,0.956
						c7.917,0,13.828-2.055,17.734-6.158C305.993,45.753,307.946,39.538,307.946,31.207"/>
				</g>
				<g>
					<path id="BitstreamVeraSans-Roman-63" d="M365.804,52.596V44.19c-2.543,1.407-5.089,2.458-7.643,3.157
						c-2.55,0.699-5.13,1.048-7.734,1.048c-5.832,0-10.362-1.852-13.594-5.547c-3.218-3.689-4.825-8.871-4.825-15.547
						c0-6.677,1.607-11.865,4.825-15.564c3.231-3.686,7.762-5.531,13.594-5.531c2.604,0,5.185,0.349,7.734,1.048
						c2.554,0.695,5.1,1.75,7.643,3.153V2.096c-2.513-1.167-5.11-2.042-7.799-2.625c-2.675-0.594-5.53-0.892-8.562-0.892
						c-8.24,0-14.788,2.591-19.64,7.765c-4.846,5.178-7.267,12.163-7.267,20.956c0,8.915,2.448,15.927,7.345,21.03
						c4.906,5.113,11.624,7.673,20.155,7.673c2.76,0,5.459-0.288,8.094-0.861C360.766,54.58,363.322,53.732,365.804,52.596"/>
				</g>
				<g>
					<path id="BitstreamVeraSans-Roman-2d" d="M376.892,31.393h26.313v-7.999h-26.313V31.393z"/>
				</g>
				<g>
					<path id="BitstreamVeraSans-Roman-74" d="M426.398,70.221V54.688h18.5v-6.982h-18.5V18.02c0-4.459,0.61-7.324,1.828-8.596
						c1.221-1.271,3.703-1.905,7.453-1.905h9.22V0h-9.22c-6.938,0-11.722,1.292-14.36,3.875c-2.635,2.594-3.951,7.308-3.951,14.144
						v29.687h-6.595v6.982h6.595v15.533H426.398z"/>
				</g>
				<g>
					<path id="BitstreamVeraSans-Roman-65" d="M503.5,29.596v-4.391h-41.314c0.397-6.188,2.262-10.901,5.595-14.14
						c3.333-3.238,7.979-4.859,13.937-4.859c3.449,0,6.792,0.42,10.03,1.265c3.242,0.845,6.459,2.116,9.657,3.815V2.784
						c-3.229-1.366-6.534-2.407-9.922-3.126c-3.384-0.719-6.815-1.078-10.294-1.078c-8.731,0-15.642,2.537-20.735,7.609
						c-5.096,5.083-7.643,11.96-7.643,20.627c0,8.948,2.417,16.045,7.253,21.294c4.832,5.262,11.353,7.894,19.562,7.894
						c7.355,0,13.17-2.37,17.453-7.11C501.356,44.163,503.5,37.73,503.5,29.596 M494.514,32.237
						c-0.061,4.906-1.438,8.823-4.123,11.749c-2.689,2.937-6.246,4.408-10.674,4.408c-5.008,0-9.02-1.417-12.031-4.252
						c-3.011-2.835-4.744-6.823-5.202-11.97L494.514,32.237z"/>
				</g>
				<g>
					<path id="BitstreamVeraSans-Roman-73" d="M553.101,53.081v-8.5c-2.533,1.302-5.168,2.275-7.908,2.923
						c-2.729,0.654-5.561,0.983-8.501,0.983c-4.456,0-7.802-0.682-10.03-2.045c-2.228-1.367-3.344-3.418-3.344-6.158
						c0-2.082,0.797-3.72,2.391-4.907c1.594-1.187,4.802-2.316,9.624-3.391l3.079-0.688c6.375-1.363,10.908-3.289,13.594-5.781
						c2.689-2.489,4.032-5.961,4.032-10.42c0-5.083-2.011-9.111-6.029-12.079c-4.021-2.96-9.548-4.438-16.581-4.438
						c-2.926,0-5.978,0.288-9.155,0.861s-6.521,1.428-10.03,2.56v9.284c3.323-1.729,6.592-3.028,9.813-3.893
						c3.218-0.854,6.409-1.282,9.576-1.282c4.231,0,7.48,0.726,9.752,2.173c2.278,1.448,3.421,3.489,3.421,6.124
						c0,2.438-0.824,4.306-2.469,5.608c-1.638,1.302-5.239,2.56-10.813,3.767l-3.126,0.732c-5.561,1.167-9.583,2.964-12.062,5.392
						c-2.468,2.428-3.703,5.758-3.703,9.986c0,5.144,1.821,9.115,5.469,11.905c3.645,2.801,8.823,4.205,15.53,4.205
						c3.313,0,6.432-0.248,9.358-0.736C547.93,54.79,550.632,54.061,553.101,53.081"/>
				</g>
				<g>
					<path id="BitstreamVeraSans-Roman-74_1_" d="M579.23,70.221V54.688h18.5v-6.982h-18.5V18.02c0-4.459,0.61-7.324,1.828-8.596
						c1.221-1.271,3.703-1.905,7.453-1.905h9.22V0h-9.22c-6.938,0-11.722,1.292-14.36,3.875c-2.635,2.594-3.951,7.308-3.951,14.144
						v29.687h-6.595v6.982h6.595v15.533H579.23z"/>
				</g>
				<g>
					<path id="BitstreamVeraSans-Roman-20" d="M600.128,0"/>
				</g>
				<g>
					<path id="BitstreamVeraSans-Roman-66" d="M669.023,75.986v-7.483h-8.592c-3.218,0-5.459-0.651-6.721-1.953
						c-1.248-1.302-1.875-3.646-1.875-7.033v-4.829h14.797v-6.982h-14.797V0h-9.03v47.706h-8.596v6.982h8.596v3.814
						c0,6.083,1.417,10.515,4.249,13.296c2.835,2.794,7.324,4.188,13.469,4.188H669.023z"/>
				</g>
				<g>
					<path id="BitstreamVeraSans-Roman-6f" d="M697.73,48.395c-4.815,0-8.623-1.882-11.424-5.643
						c-2.801-3.76-4.201-8.911-4.201-15.452c0-6.541,1.39-11.695,4.171-15.456c2.791-3.761,6.608-5.639,11.454-5.639
						c4.791,0,8.582,1.885,11.373,5.656c2.804,3.781,4.205,8.928,4.205,15.438c0,6.479-1.4,11.613-4.205,15.404
						C706.313,46.496,702.521,48.395,697.73,48.395 M697.73,56.003c7.813,0,13.946-2.543,18.405-7.626
						c4.469-5.073,6.704-12.099,6.704-21.077c0-8.949-2.235-15.975-6.704-21.081c-4.459-5.093-10.593-7.64-18.405-7.64
						c-7.847,0-13.991,2.546-18.439,7.64c-4.438,5.106-6.656,12.132-6.656,21.081c0,8.979,2.218,16.004,6.656,21.077
						C683.74,53.46,689.884,56.003,697.73,56.003"/>
				</g>
				<g>
					<path id="BitstreamVeraSans-Roman-72_1_" d="M769.41,46.299c-1.011,0.583-2.109,1.011-3.296,1.282
						c-1.187,0.282-2.496,0.42-3.92,0.42c-5.086,0-8.986-1.651-11.705-4.95c-2.72-3.303-4.08-8.05-4.08-14.235V0h-9.03v54.688h9.03
						V46.19c1.896,3.323,4.357,5.785,7.375,7.389c3.031,1.618,6.714,2.424,11.047,2.424c0.617,0,1.298-0.044,2.048-0.125
						c0.75-0.074,1.577-0.193,2.485-0.359L769.41,46.299z"/>
				</g>
				<g>
					<path id="BitstreamVeraSans-Roman-20_1_" d="M769.416,0"/>
				</g>
				<g>
					<path id="BitstreamVeraSans-Roman-6d" d="M853.204,44.19c2.251,4.042,4.937,7.019,8.057,8.938
						c3.133,1.916,6.809,2.875,11.034,2.875c5.703,0,10.098-1.997,13.19-5.985c3.092-3.98,4.639-9.647,4.639-17.001V0h-9.033v32.722
						c0,5.239-0.929,9.125-2.794,11.654c-1.858,2.543-4.68,3.814-8.484,3.814c-4.659,0-8.342-1.549-11.047-4.642
						c-2.699-3.082-4.049-7.297-4.049-12.641V0h-9.026v32.722c0,5.269-0.929,9.166-2.781,11.685
						c-1.858,2.523-4.72,3.784-8.599,3.784c-4.591,0-8.243-1.553-10.952-4.659c-2.699-3.103-4.049-7.311-4.049-12.625V0h-9.03
						v54.688h9.03V46.19c2.055,3.354,4.513,5.826,7.378,7.419c2.862,1.597,6.263,2.394,10.2,2.394c3.981,0,7.365-1.01,10.146-3.031
						C849.813,50.961,851.868,48.035,853.204,44.19"/>
				</g>
				<g>
					<path id="BitstreamVeraSans-Roman-61_1_" d="M932.896,27.487c-7.263,0-12.295-0.828-15.089-2.486
						c-2.808-1.655-4.205-4.489-4.205-8.5c0-3.188,1.044-5.717,3.153-7.592c2.103-1.865,4.958-2.797,8.565-2.797
						c4.984,0,8.986,1.767,11.997,5.296c3.011,3.533,4.517,8.226,4.517,14.079v2.001H932.896z M950.819,31.207V0h-8.985v8.297
						c-2.055-3.313-4.612-5.761-7.67-7.341c-3.065-1.583-6.809-2.377-11.237-2.377c-5.595,0-10.043,1.573-13.36,4.72
						c-3.303,3.143-4.951,7.354-4.951,12.624c0,6.144,2.055,10.783,6.171,13.906c4.124,3.126,10.274,4.689,18.439,4.689h12.607
						v0.889c0,4.137-1.363,7.334-4.076,9.596c-2.726,2.258-6.538,3.391-11.461,3.391c-3.12,0-6.171-0.376-9.135-1.126
						c-2.964-0.752-5.798-1.875-8.531-3.377v8.314c3.275,1.271,6.47,2.217,9.562,2.841c3.092,0.638,6.104,0.956,9.026,0.956
						c7.921,0,13.834-2.055,17.741-6.158C948.866,45.753,950.819,39.538,950.819,31.207"/>
				</g>
				<g>
					<path id="BitstreamVeraSans-Roman-78" d="M1014.784,54.688L995.002,28.08l20.8-28.08h-10.593l-15.923,21.484L973.375,0h-10.606
						l21.253,28.612L964.58,54.688h10.6l14.5-19.484l14.499,19.484H1014.784z"/>
				</g>
				<g>
					<path id="BitstreamVeraSans-Roman-69_1_" d="M1028.497,54.688h8.979V0h-8.979V54.688z M1028.497,75.986h8.979v-11.39h-8.979
						V75.986z"/>
				</g>
				<g>
					<path id="BitstreamVeraSans-Roman-6d_1_" d="M1098.857,44.19c2.245,4.042,4.937,7.019,8.063,8.938
						c3.12,1.916,6.795,2.875,11.027,2.875c5.697,0,10.091-1.997,13.19-5.985c3.092-3.98,4.639-9.647,4.639-17.001V0h-9.026v32.722
						c0,5.239-0.936,9.125-2.801,11.654c-1.852,2.543-4.686,3.814-8.484,3.814c-4.652,0-8.341-1.549-11.047-4.642
						c-2.699-3.082-4.049-7.297-4.049-12.641V0h-9.033v32.722c0,5.269-0.922,9.166-2.78,11.685c-1.852,2.523-4.72,3.784-8.586,3.784
						c-4.598,0-8.246-1.553-10.959-4.659c-2.699-3.103-4.042-7.311-4.042-12.625V0h-9.033v54.688h9.033V46.19
						c2.048,3.354,4.503,5.826,7.372,7.419c2.869,1.597,6.267,2.394,10.207,2.394c3.974,0,7.352-1.01,10.139-3.031
						C1095.466,50.961,1097.521,48.035,1098.857,44.19"/>
				</g>
				<g>
					<path id="BitstreamVeraSans-Roman-75" d="M1152.765,21.58v33.108h8.992V21.926c0-5.178,1.004-9.064,3.011-11.658
						c2.021-2.584,5.052-3.876,9.094-3.876c4.842,0,8.674,1.546,11.481,4.642c2.821,3.092,4.239,7.311,4.239,12.655v30.999h8.985V0
						h-8.985V8.41c-2.177-3.323-4.713-5.792-7.596-7.409c-2.875-1.614-6.219-2.421-10.03-2.421c-6.28,0-11.054,1.953-14.309,5.859
						C1154.392,8.345,1152.765,14.059,1152.765,21.58"/>
				</g>
				<g>
					<path id="BitstreamVeraSans-Roman-6d_2_" d="M1259.644,44.19c2.251,4.042,4.937,7.019,8.07,8.938
						c3.12,1.916,6.795,2.875,11.027,2.875c5.696,0,10.091-1.997,13.184-5.985c3.092-3.98,4.646-9.647,4.646-17.001V0h-9.033v32.722
						c0,5.239-0.929,9.125-2.801,11.654c-1.852,2.543-4.68,3.814-8.478,3.814c-4.659,0-8.341-1.549-11.054-4.642
						c-2.692-3.082-4.042-7.297-4.042-12.641V0h-9.033v32.722c0,5.269-0.922,9.166-2.781,11.685
						c-1.851,2.523-4.72,3.784-8.592,3.784c-4.591,0-8.247-1.553-10.952-4.659c-2.699-3.103-4.049-7.311-4.049-12.625V0h-9.026
						v54.688h9.026V46.19c2.055,3.354,4.51,5.826,7.372,7.419c2.869,1.597,6.266,2.394,10.207,2.394
						c3.981,0,7.358-1.01,10.139-3.031C1256.253,50.961,1258.314,48.035,1259.644,44.19"/>
				</g>
				<g>
					<path id="BitstreamVeraSans-Roman-20_2_" d="M1305.061,0"/>
				</g>
				<g>
					<path id="BitstreamVeraSans-Roman-65_1_" d="M1393.053,29.596v-4.391h-41.314c0.393-6.188,2.258-10.901,5.588-14.14
						c3.337-3.238,7.982-4.859,13.943-4.859c3.445,0,6.789,0.42,10.03,1.265c3.235,0.845,6.457,2.116,9.65,3.815V2.784
						c-3.228-1.366-6.531-2.407-9.915-3.126c-3.391-0.719-6.822-1.078-10.295-1.078c-8.734,0-15.645,2.537-20.738,7.609
						c-5.093,5.083-7.643,11.96-7.643,20.627c0,8.948,2.421,16.045,7.25,21.294c4.835,5.262,11.353,7.894,19.565,7.894
						c7.358,0,13.17-2.37,17.449-7.11C1390.91,44.163,1393.053,37.73,1393.053,29.596 M1384.061,32.237
						c-0.054,4.906-1.438,8.823-4.123,11.749c-2.686,2.937-6.239,4.408-10.667,4.408c-5.012,0-9.027-1.417-12.038-4.252
						c-3.004-2.835-4.741-6.823-5.195-11.97L1384.061,32.237z"/>
				</g>
				<g>
					<path id="BitstreamVeraSans-Roman-73_1_" d="M1442.654,53.081v-8.5c-2.536,1.302-5.167,2.275-7.907,2.923
						c-2.733,0.654-5.561,0.983-8.504,0.983c-4.456,0-7.799-0.682-10.03-2.045c-2.231-1.367-3.343-3.418-3.343-6.158
						c0-2.082,0.8-3.72,2.387-4.907c1.601-1.187,4.801-2.316,9.63-3.391l3.079-0.688c6.375-1.363,10.905-3.289,13.59-5.781
						c2.686-2.489,4.028-5.961,4.028-10.42c0-5.083-2.007-9.111-6.029-12.079c-4.021-2.96-9.542-4.438-16.574-4.438
						c-2.93,0-5.981,0.288-9.162,0.861c-3.174,0.573-6.518,1.428-10.023,2.56v9.284c3.323-1.729,6.592-3.028,9.806-3.893
						c3.221-0.854,6.416-1.282,9.576-1.282c4.232,0,7.487,0.726,9.752,2.173c2.285,1.448,3.424,3.489,3.424,6.124
						c0,2.438-0.82,4.306-2.468,5.608c-1.634,1.302-5.242,2.56-10.817,3.767l-3.12,0.732c-5.561,1.167-9.589,2.964-12.064,5.392
						c-2.469,2.428-3.703,5.758-3.703,9.986c0,5.144,1.824,9.115,5.473,11.905c3.642,2.801,8.816,4.205,15.53,4.205
						c3.31,0,6.429-0.248,9.359-0.736C1437.48,54.79,1440.186,54.061,1442.654,53.081"/>
				</g>
				<g>
					<path id="BitstreamVeraSans-Roman-74_2_" d="M1468.777,70.221V54.688h18.5v-6.982h-18.5V18.02c0-4.459,0.61-7.324,1.831-8.596
						c1.221-1.271,3.703-1.905,7.453-1.905h9.216V0h-9.216c-6.938,0-11.726,1.292-14.357,3.875
						c-2.638,2.594-3.954,7.308-3.954,14.144v29.687h-6.599v6.982h6.599v15.533H1468.777z"/>
				</g>
				<g>
					<path id="BitstreamVeraSans-Roman-69_2_" d="M1499.098,54.688h8.986V0h-8.986V54.688z M1499.098,75.986h8.986v-11.39h-8.986
						V75.986z"/>
				</g>
				<g>
					<path id="BitstreamVeraSans-Roman-6d_3_" d="M1569.458,44.19c2.251,4.042,4.937,7.019,8.063,8.938
						c3.126,1.916,6.802,2.875,11.034,2.875c5.697,0,10.091-1.997,13.184-5.985c3.099-3.98,4.646-9.647,4.646-17.001V0h-9.033
						v32.722c0,5.239-0.929,9.125-2.794,11.654c-1.858,2.543-4.687,3.814-8.484,3.814c-4.659,0-8.342-1.549-11.047-4.642
						c-2.699-3.082-4.049-7.297-4.049-12.641V0h-9.033v32.722c0,5.269-0.922,9.166-2.781,11.685
						c-1.851,2.523-4.72,3.784-8.592,3.784c-4.591,0-8.247-1.553-10.952-4.659c-2.699-3.103-4.049-7.311-4.049-12.625V0h-9.026
						v54.688h9.026V46.19c2.055,3.354,4.51,5.826,7.372,7.419c2.869,1.597,6.266,2.394,10.207,2.394
						c3.981,0,7.358-1.01,10.139-3.031C1566.067,50.961,1568.129,48.035,1569.458,44.19"/>
				</g>
				<g>
					<path id="BitstreamVeraSans-Roman-61_2_" d="M1649.157,27.487c-7.263,0-12.295-0.828-15.096-2.486
						c-2.801-1.655-4.205-4.489-4.205-8.5c0-3.188,1.051-5.717,3.16-7.592c2.103-1.865,4.958-2.797,8.559-2.797
						c4.991,0,8.993,1.767,12.004,5.296c3.011,3.533,4.517,8.226,4.517,14.079v2.001H1649.157z M1667.074,31.207V0h-8.979v8.297
						c-2.055-3.313-4.612-5.761-7.677-7.341c-3.059-1.583-6.802-2.377-11.23-2.377c-5.595,0-10.05,1.573-13.36,4.72
						c-3.303,3.143-4.951,7.354-4.951,12.624c0,6.144,2.055,10.783,6.171,13.906c4.124,3.126,10.268,4.689,18.433,4.689h12.614
						v0.889c0,4.137-1.363,7.334-4.083,9.596c-2.719,2.258-6.537,3.391-11.454,3.391c-3.12,0-6.171-0.376-9.135-1.126
						c-2.964-0.752-5.805-1.875-8.531-3.377v8.314c3.275,1.271,6.47,2.217,9.562,2.841c3.092,0.638,6.104,0.956,9.026,0.956
						c7.921,0,13.828-2.055,17.734-6.158C1665.121,45.753,1667.074,39.538,1667.074,31.207"/>
				</g>
				<g>
					<path id="BitstreamVeraSans-Roman-74_3_" d="M1694.465,70.221V54.688h18.5v-6.982h-18.5V18.02c0-4.459,0.61-7.324,1.831-8.596
						c1.214-1.271,3.703-1.905,7.453-1.905h9.216V0h-9.216c-6.938,0-11.726,1.292-14.364,3.875
						c-2.631,2.594-3.954,7.308-3.954,14.144v29.687h-6.592v6.982h6.592v15.533H1694.465z"/>
				</g>
				<g>
					<path id="BitstreamVeraSans-Roman-65_2_" d="M1771.566,29.596v-4.391h-41.314c0.394-6.188,2.258-10.901,5.595-14.14
						c3.33-3.238,7.982-4.859,13.936-4.859c3.445,0,6.795,0.42,10.03,1.265c3.242,0.845,6.463,2.116,9.657,3.815V2.784
						c-3.228-1.366-6.538-2.407-9.922-3.126c-3.384-0.719-6.815-1.078-10.294-1.078c-8.728,0-15.646,2.537-20.738,7.609
						c-5.093,5.083-7.636,11.96-7.636,20.627c0,8.948,2.414,16.045,7.25,21.294c4.829,5.262,11.353,7.894,19.559,7.894
						c7.358,0,13.177-2.37,17.456-7.11C1769.423,44.163,1771.566,37.73,1771.566,29.596 M1762.581,32.237
						c-0.061,4.906-1.438,8.823-4.124,11.749c-2.692,2.937-6.246,4.408-10.674,4.408c-5.012,0-9.02-1.417-12.031-4.252
						c-3.011-2.835-4.747-6.823-5.202-11.97L1762.581,32.237z"/>
				</g>
			</g>
		</g>
	</g>
</g>
</svg>
