<?xml version="1.0" encoding="utf-8"?>
<!-- Generator: Adobe Illustrator 16.0.0, SVG Export Plug-In . SVG Version: 6.00 Build 0)  -->
<!DOCTYPE svg PUBLIC "-//W3C//DTD SVG 1.1//EN" "http://www.w3.org/Graphics/SVG/1.1/DTD/svg11.dtd">
<svg version="1.1" id="Layer_1" xmlns="http://www.w3.org/2000/svg" xmlns:xlink="http://www.w3.org/1999/xlink" x="0px" y="0px"
	 width="586px" height="442px" viewBox="0 0 586 442" enable-background="new 0 0 586 442" xml:space="preserve">
<g id="figure_1">
	<g id="patch_1">
		<path fill="#FFFFFF" d="M0,442.8h586.8V0H0V442.8z"/>
	</g>
	<g id="axes_1">
		<g id="patch_2">
			<path fill="#FFFFFF" d="M73.35,398.52h454.77V44.28H73.35V398.52z"/>
		</g>
		<g id="line2d_1">
			<g>
				<defs>
					<rect id="SVGID_1_" x="73.35" y="44.28" width="454.77" height="354.239"/>
				</defs>
				<clipPath id="SVGID_2_">
					<use xlink:href="#SVGID_1_"  overflow="visible"/>
				</clipPath>
				
					<path clip-path="url(#SVGID_2_)" fill="none" stroke="#FF0000" stroke-width="2" stroke-linecap="square" stroke-linejoin="round" d="
					M73.35,60.708l7.58,41.756l7.579,38.621l7.58,35.44l7.58,32.236l7.58,29.038l7.579,25.882l7.58,22.799l7.579,19.829l7.58,17.015
					l7.579,14.388l7.58,11.985l7.579,9.83l7.58,7.941l7.579,6.323l7.58,4.97l7.579,3.862l7.58,2.977l7.579,2.281l7.58,1.743
					l7.579,1.334l7.58,1.023l7.579,0.787l7.58,0.613l7.579,0.48l7.58,0.38l7.579,0.303l7.58,0.245l7.579,0.199l7.58,0.164
					l7.578,0.136l7.58,0.114l7.58,0.097l7.58,0.082l7.578,0.072l7.58,0.061l7.579,0.054l7.58,0.049l7.579,0.042l7.58,0.037
					l7.579,0.033l7.579,0.03l7.58,0.027l7.58,0.024l7.578,0.023l7.58,0.021l7.579,0.02l7.58,0.018l7.579,0.017l7.58,0.015
					l7.579,0.014l7.58,0.015l7.579,0.012l7.58,0.012l7.578,0.011l7.58,0.011l7.579,0.009l7.58,0.009l7.579,0.009l7.58,0.009
					l7.579,0.008"/>
			</g>
		</g>
		<g id="line2d_2">
			<g>
				<defs>
					<rect id="SVGID_3_" x="73.35" y="44.28" width="454.77" height="354.239"/>
				</defs>
				<clipPath id="SVGID_4_">
					<use xlink:href="#SVGID_3_"  overflow="visible"/>
				</clipPath>
				
					<path clip-path="url(#SVGID_4_)" fill="none" stroke="#FF0000" stroke-width="2" stroke-linecap="square" stroke-linejoin="round" d="
					M73.35,93.131l7.58,38.44l7.579,35.424l7.58,32.383l7.58,29.337l7.58,26.318l7.579,23.355l7.58,20.484l7.579,17.739l7.58,15.153
					l7.579,12.763l7.58,10.589l7.579,8.657l7.58,6.976l7.579,5.545l7.58,4.355l7.579,3.386l7.58,2.615l7.579,2.01l7.58,1.542
					l7.579,1.185l7.58,0.915l7.579,0.709l7.58,0.556l7.579,0.437l7.58,0.348l7.579,0.28l7.58,0.228l7.579,0.185l7.58,0.154
					l7.578,0.129l7.58,0.107l7.58,0.093l7.58,0.079l7.578,0.067l7.58,0.06l7.579,0.052l7.58,0.046l7.579,0.041l7.58,0.037
					l7.579,0.032l7.579,0.029l7.58,0.027l7.58,0.024l7.578,0.021l7.58,0.021l7.579,0.019l7.58,0.017l7.579,0.017l7.58,0.015
					l7.579,0.015l7.58,0.013l7.579,0.012l7.58,0.012l7.578,0.012l7.58,0.01l7.579,0.009l7.58,0.009l7.579,0.01l7.58,0.008
					l7.579,0.007"/>
			</g>
		</g>
		<g id="line2d_3">
			<g>
				<defs>
					<rect id="SVGID_5_" x="73.35" y="44.28" width="454.77" height="354.239"/>
				</defs>
				<clipPath id="SVGID_6_">
					<use xlink:href="#SVGID_5_"  overflow="visible"/>
				</clipPath>
				
					<path clip-path="url(#SVGID_6_)" fill="none" stroke="#000000" stroke-width="2" stroke-linecap="square" stroke-linejoin="round" d="
					M73.35,374.997l7.58,2.563l7.579,2.294l7.58,2.043l7.58,1.813l7.58,1.599l7.579,1.405l7.58,1.23l7.579,1.071l7.58,0.934
					l7.579,0.808l7.58,0.699l7.579,0.604l7.58,0.521l7.579,0.449l7.58,0.388l7.579,0.335l7.58,0.29l7.579,0.251l7.58,0.218
					l7.579,0.19l7.58,0.166l7.579,0.145l7.58,0.127l7.579,0.113l7.58,0.099l7.579,0.089l7.58,0.077l7.579,0.07l7.58,0.063
					l7.578,0.056l7.58,0.051l7.58,0.045l7.58,0.042l7.578,0.038l7.58,0.034l7.579,0.031l7.58,0.028l7.579,0.027l7.58,0.024
					l7.579,0.022l7.579,0.021l7.58,0.02l7.58,0.019l7.578,0.016l7.58,0.016l7.579,0.015l7.58,0.014l7.579,0.012l7.58,0.013
					l7.579,0.012l7.58,0.01l7.579,0.01l7.58,0.01l7.578,0.009l7.58,0.009l7.579,0.008l7.58,0.007l7.579,0.008l7.58,0.007
					l7.579,0.007"/>
			</g>
		</g>
		<g id="matplotlib.axis_1">
			<g id="xtick_1">
				<g id="line2d_4">
					<g>
						<g>
							<path id="mcb557df647" stroke="#000000" stroke-width="0.5" stroke-linejoin="round" d="M73.35,398.52v-4"/>
						</g>
					</g>
				</g>
				<g id="line2d_5">
					<g>
						<g>
							<path id="mdad270ee8e" stroke="#000000" stroke-width="0.5" stroke-linejoin="round" d="M73.35,44.28v4"/>
						</g>
					</g>
				</g>
				<g id="text_1">
					<g transform="translate(64.6021875 411.42625)scale(0.12 -0.12)">
						<g>
							<path id="BitstreamVeraSans-Roman-30" d="M31.782,66.41c-5.074,0-8.891-2.506-11.454-7.503
								c-2.551-4.989-3.829-12.5-3.829-22.534c0-9.985,1.278-17.48,3.829-22.485c2.563-4.997,6.38-7.495,11.454-7.495
								c5.115,0,8.948,2.498,11.499,7.495c2.563,5.005,3.845,12.5,3.845,22.485c0,10.034-1.282,17.546-3.845,22.534
								C40.729,63.904,36.896,66.41,31.782,66.41 M31.782,74.222c8.175,0,14.421-3.239,18.734-9.708
								c4.313-6.454,6.47-15.837,6.47-28.141c0-12.272-2.157-21.639-6.47-28.109C46.203,1.81,39.957-1.42,31.782-1.42
								c-8.167,0-14.408,3.231-18.717,9.684c-4.313,6.47-6.47,15.836-6.47,28.109c0,12.305,2.157,21.688,6.47,28.141
								C17.374,70.984,23.615,74.222,31.782,74.222"/>
						</g>
						<g>
							<path id="BitstreamVeraSans-Roman-2e" d="M74.311,12.406h10.311V0.004H74.311V12.406z"/>
						</g>
						<g>
							<path id="BitstreamVeraSans-Roman-30_1_" d="M127.192,66.41c-5.074,0-8.891-2.506-11.454-7.503
								c-2.551-4.989-3.829-12.5-3.829-22.534c0-9.985,1.278-17.48,3.829-22.485c2.563-4.997,6.38-7.495,11.454-7.495
								c5.115,0,8.948,2.498,11.499,7.495c2.563,5.005,3.845,12.5,3.845,22.485c0,10.034-1.282,17.546-3.845,22.534
								C136.14,63.904,132.307,66.41,127.192,66.41 M127.192,74.222c8.175,0,14.421-3.239,18.734-9.708
								c4.313-6.454,6.47-15.837,6.47-28.141c0-12.272-2.157-21.639-6.47-28.109c-4.313-6.454-10.559-9.684-18.734-9.684
								c-8.167,0-14.408,3.231-18.717,9.684c-4.313,6.47-6.47,15.836-6.47,28.109c0,12.305,2.157,21.688,6.47,28.141
								C112.784,70.984,119.025,74.222,127.192,74.222"/>
						</g>
					</g>
				</g>
			</g>
			<g id="xtick_2">
				<g id="line2d_6">
					<g>
						<g>
							<path id="mcb557df647_1_" stroke="#000000" stroke-width="0.5" stroke-linejoin="round" d="M187.042,398.52v-4"/>
						</g>
					</g>
				</g>
				<g id="line2d_7">
					<g>
						<g>
							<path id="mdad270ee8e_1_" stroke="#000000" stroke-width="0.5" stroke-linejoin="round" d="M187.042,44.28v4"/>
						</g>
					</g>
				</g>
				<g id="text_2">
					<g transform="translate(178.4203125 411.42625)scale(0.12 -0.12)">
						<g>
							<path id="BitstreamVeraSans-Roman-30_2_" d="M31.78,66.41c-5.07,0-8.891-2.506-11.45-7.503
								c-2.556-4.989-3.829-12.5-3.829-22.534c0-9.985,1.273-17.48,3.829-22.485c2.559-4.997,6.38-7.495,11.45-7.495
								c5.115,0,8.948,2.498,11.503,7.495c2.56,5.005,3.841,12.5,3.841,22.485c0,10.034-1.282,17.546-3.841,22.534
								C40.728,63.904,36.895,66.41,31.78,66.41 M31.78,74.222c8.179,0,14.424-3.239,18.738-9.708
								c4.309-6.454,6.465-15.837,6.465-28.141c0-12.272-2.156-21.639-6.465-28.109C46.204,1.81,39.958-1.42,31.78-1.42
								c-8.167,0-14.404,3.231-18.718,9.684c-4.313,6.47-6.47,15.836-6.47,28.109c0,12.305,2.157,21.688,6.47,28.141
								C17.375,70.984,23.613,74.222,31.78,74.222"/>
						</g>
						<g>
							<path id="BitstreamVeraSans-Roman-2e_1_" d="M74.309,12.406h10.315V0.004H74.309V12.406z"/>
						</g>
						<g>
							<path id="BitstreamVeraSans-Roman-35" d="M106.206,72.904h38.721v-8.309h-29.688V46.732c1.424,0.488,2.852,0.854,4.28,1.099
								c1.437,0.236,2.873,0.358,4.313,0.358c8.134,0,14.575-2.23,19.328-6.689c4.761-4.46,7.141-10.498,7.141-18.107
								c0-7.845-2.445-13.948-7.328-18.302c-4.887-4.338-11.772-6.51-20.659-6.51c-3.06,0-6.181,0.26-9.358,0.781
								c-3.166,0.521-6.441,1.302-9.827,2.344v9.92c2.925-1.595,5.953-2.783,9.078-3.564s6.425-1.172,9.904-1.172
								c5.635,0,10.095,1.481,13.375,4.443c3.292,2.954,4.94,6.974,4.94,12.061c0,5.07-1.648,9.09-4.94,12.044
								c-3.279,2.97-7.739,4.451-13.375,4.451c-2.633,0-5.266-0.293-7.89-0.871c-2.612-0.586-5.286-1.497-8.016-2.734V72.904z"/>
						</g>
					</g>
				</g>
			</g>
			<g id="xtick_3">
				<g id="line2d_8">
					<g>
						<g>
							<path id="mcb557df647_2_" stroke="#000000" stroke-width="0.5" stroke-linejoin="round" d="M300.734,398.52v-4"/>
						</g>
					</g>
				</g>
				<g id="line2d_9">
					<g>
						<g>
							<path id="mdad270ee8e_2_" stroke="#000000" stroke-width="0.5" stroke-linejoin="round" d="M300.734,44.28v4"/>
						</g>
					</g>
				</g>
				<g id="text_3">
					<g transform="translate(292.250625 411.42625)scale(0.12 -0.12)">
						<g>
							<path id="BitstreamVeraSans-Roman-31" d="M12.406,8.296h16.105V63.92l-17.529-3.516v8.984l17.44,3.516h9.855V8.296H54.39
								V0.004H12.406V8.296z"/>
						</g>
						<g>
							<path id="BitstreamVeraSans-Roman-2e_2_" d="M74.312,12.406h10.311V0.004H74.312V12.406z"/>
						</g>
						<g>
							<path id="BitstreamVeraSans-Roman-30_3_" d="M127.192,66.41c-5.078,0-8.887-2.506-11.458-7.503
								c-2.547-4.989-3.825-12.5-3.825-22.534c0-9.985,1.278-17.48,3.825-22.485c2.572-4.997,6.38-7.495,11.458-7.495
								c5.111,0,8.952,2.498,11.499,7.495c2.563,5.005,3.849,12.5,3.849,22.485c0,10.034-1.286,17.546-3.849,22.534
								C136.144,63.904,132.303,66.41,127.192,66.41 M127.192,74.222c8.17,0,14.42-3.239,18.734-9.708
								c4.313-6.454,6.47-15.837,6.47-28.141c0-12.272-2.157-21.639-6.47-28.109c-4.313-6.454-10.563-9.684-18.734-9.684
								s-14.404,3.231-18.717,9.684c-4.313,6.47-6.47,15.836-6.47,28.109c0,12.305,2.156,21.688,6.47,28.141
								C112.788,70.984,119.022,74.222,127.192,74.222"/>
						</g>
					</g>
				</g>
			</g>
			<g id="xtick_4">
				<g id="line2d_10">
					<g>
						<g>
							<path id="mcb557df647_3_" stroke="#000000" stroke-width="0.5" stroke-linejoin="round" d="M414.428,398.52v-4"/>
						</g>
					</g>
				</g>
				<g id="line2d_11">
					<g>
						<g>
							<path id="mdad270ee8e_3_" stroke="#000000" stroke-width="0.5" stroke-linejoin="round" d="M414.428,44.28v4"/>
						</g>
					</g>
				</g>
				<g id="text_4">
					<g transform="translate(406.06875 411.26875)scale(0.12 -0.12)">
						<g>
							<path id="BitstreamVeraSans-Roman-31_1_" d="M12.407,8.294h16.105v55.631L10.983,60.41v8.984l17.439,3.516h9.855V8.294
								h16.113V0.001H12.407V8.294z"/>
						</g>
						<g>
							<path id="BitstreamVeraSans-Roman-2e_3_" d="M74.313,12.404h10.311V0.001H74.313V12.404z"/>
						</g>
						<g>
							<path id="BitstreamVeraSans-Roman-35_1_" d="M106.206,72.91h38.721v-8.317h-29.688V46.738
								c1.425,0.488,2.856,0.846,4.281,1.091c1.44,0.236,2.872,0.358,4.313,0.358c8.139,0,14.575-2.23,19.328-6.689
								c4.761-4.46,7.137-10.49,7.137-18.107c0-7.845-2.441-13.94-7.324-18.294c-4.883-4.346-11.775-6.519-20.654-6.519
								c-3.067,0-6.185,0.26-9.358,0.781c-3.174,0.521-6.445,1.302-9.831,2.344v9.92c2.93-1.595,5.949-2.775,9.074-3.556
								s6.429-1.172,9.912-1.172c5.632,0,10.091,1.473,13.371,4.435c3.296,2.954,4.939,6.974,4.939,12.061
								c0,5.07-1.644,9.09-4.939,12.044c-3.28,2.97-7.739,4.46-13.371,4.46c-2.637,0-5.266-0.293-7.894-0.879
								c-2.612-0.586-5.29-1.497-8.017-2.734V72.91z"/>
						</g>
					</g>
				</g>
			</g>
			<g id="xtick_5">
				<g id="line2d_12">
					<g>
						<g>
							<path id="mcb557df647_4_" stroke="#000000" stroke-width="0.5" stroke-linejoin="round" d="M528.12,398.52v-4"/>
						</g>
					</g>
				</g>
				<g id="line2d_13">
					<g>
						<g>
							<path id="mdad270ee8e_4_" stroke="#000000" stroke-width="0.5" stroke-linejoin="round" d="M528.12,44.28v4"/>
						</g>
					</g>
				</g>
				<g id="text_5">
					<g transform="translate(519.41625 411.42625)scale(0.12 -0.12)">
						<g>
							<path id="BitstreamVeraSans-Roman-32" d="M19.188,8.296h34.424V0.004H7.331v8.293c3.735,3.874,8.838,9.074,15.291,15.593
								c6.47,6.535,10.53,10.75,12.19,12.638c3.158,3.548,5.363,6.543,6.608,9.001c1.262,2.458,1.888,4.875,1.888,7.251
								c0,3.874-1.351,7.031-4.077,9.473c-2.718,2.449-6.258,3.67-10.62,3.67c-3.092,0-6.363-0.537-9.798-1.611
								c-3.426-1.074-7.097-2.702-11.003-4.891v9.969c3.972,1.595,7.683,2.8,11.125,3.613c3.459,0.814,6.624,1.221,9.489,1.221
								c7.552,0,13.574-1.896,18.058-5.672c4.492-3.776,6.738-8.813,6.738-15.129c0-3.003-0.562-5.843-1.692-8.529
								c-1.106-2.677-3.149-5.843-6.12-9.489c-0.813-0.944-3.401-3.678-7.764-8.187C33.283,22.709,27.139,16.402,19.188,8.296"/>
						</g>
						<g>
							<path id="BitstreamVeraSans-Roman-2e_4_" d="M74.314,12.406h10.312V0.004H74.314V12.406z"/>
						</g>
						<g>
							<path id="BitstreamVeraSans-Roman-30_4_" d="M127.195,66.41c-5.078,0-8.895-2.506-11.458-7.503
								c-2.547-4.989-3.825-12.5-3.825-22.534c0-9.985,1.278-17.48,3.825-22.485c2.563-4.997,6.38-7.495,11.458-7.495
								c5.111,0,8.944,2.498,11.499,7.495c2.563,5.005,3.842,12.5,3.842,22.485c0,10.034-1.278,17.546-3.842,22.534
								C136.14,63.904,132.307,66.41,127.195,66.41 M127.195,74.222c8.171,0,14.421-3.239,18.734-9.708
								c4.313-6.454,6.461-15.837,6.461-28.141c0-12.272-2.148-21.639-6.461-28.109c-4.313-6.454-10.563-9.684-18.734-9.684
								c-8.17,0-14.412,3.231-18.726,9.684C104.165,14.734,102,24.1,102,36.373c0,12.305,2.165,21.688,6.47,28.141
								C112.783,70.984,119.025,74.222,127.195,74.222"/>
						</g>
					</g>
				</g>
			</g>
		</g>
		<g id="matplotlib.axis_2">
			<g id="ytick_1">
				<g id="line2d_14">
					<g>
						<g>
							<path id="mc8fcea1516" stroke="#000000" stroke-width="0.5" stroke-linejoin="round" d="M73.35,398.52h4"/>
						</g>
					</g>
				</g>
				<g id="line2d_15">
					<g>
						<g>
							<path id="m0d5b0a6425" stroke="#000000" stroke-width="0.5" stroke-linejoin="round" d="M528.12,398.52h-4"/>
						</g>
					</g>
				</g>
				<g id="text_6">
					<g transform="translate(63.303125 402.8878125)scale(0.12 -0.12)">
						<g>
							<path id="BitstreamVeraSans-Roman-30_5_" d="M31.781,66.407c-5.07,0-8.891-2.499-11.45-7.503
								c-2.555-4.989-3.829-12.5-3.829-22.526c0-9.994,1.273-17.489,3.829-22.485c2.56-5.005,6.38-7.503,11.45-7.503
								c5.115,0,8.948,2.499,11.503,7.503c2.559,4.997,3.841,12.492,3.841,22.485c0,10.026-1.282,17.537-3.841,22.526
								C40.729,63.909,36.896,66.407,31.781,66.407 M31.781,74.22c8.179,0,14.425-3.239,18.738-9.701
								c4.309-6.461,6.466-15.845,6.466-28.141c0-12.272-2.157-21.647-6.466-28.109c-4.313-6.461-10.559-9.692-18.738-9.692
								c-8.167,0-14.404,3.231-18.717,9.692c-4.313,6.462-6.47,15.837-6.47,28.109c0,12.296,2.157,21.68,6.47,28.141
								C17.376,70.981,23.614,74.22,31.781,74.22"/>
						</g>
					</g>
				</g>
			</g>
			<g id="ytick_2">
				<g id="line2d_16">
					<g>
						<g>
							<path id="mc8fcea1516_1_" stroke="#000000" stroke-width="0.5" stroke-linejoin="round" d="M73.35,359.16h4"/>
						</g>
					</g>
				</g>
				<g id="line2d_17">
					<g>
						<g>
							<path id="m0d5b0a6425_1_" stroke="#000000" stroke-width="0.5" stroke-linejoin="round" d="M528.12,359.16h-4"/>
						</g>
					</g>
				</g>
				<g id="text_7">
					<g transform="translate(55.75625 363.5278125)scale(0.12 -0.12)">
						<g>
							<path id="BitstreamVeraSans-Roman-32_1_" d="M19.188,8.296h34.424V0.004H7.33v8.292c3.74,3.874,8.838,9.074,15.295,15.593
								c6.47,6.535,10.531,10.75,12.187,12.638c3.157,3.548,5.359,6.543,6.612,9c1.257,2.458,1.888,4.875,1.888,7.251
								c0,3.874-1.359,7.031-4.077,9.473c-2.718,2.45-6.262,3.67-10.624,3.67c-3.093,0-6.36-0.537-9.798-1.611
								c-3.426-1.074-7.092-2.702-10.999-4.891v9.969c3.967,1.595,7.678,2.799,11.125,3.613c3.459,0.814,6.621,1.221,9.485,1.221
								c7.552,0,13.57-1.896,18.063-5.672c4.488-3.776,6.734-8.813,6.734-15.128c0-3.003-0.562-5.843-1.689-8.529
								c-1.115-2.677-3.157-5.843-6.124-9.489c-0.814-0.944-3.402-3.678-7.768-8.187C33.287,22.709,27.138,16.402,19.188,8.296"/>
						</g>
						<g>
							<path id="BitstreamVeraSans-Roman-30_6_" d="M95.404,66.41c-5.07,0-8.891-2.507-11.45-7.503
								c-2.555-4.989-3.829-12.5-3.829-22.534c0-9.985,1.273-17.48,3.829-22.485c2.56-4.997,6.38-7.495,11.45-7.495
								c5.115,0,8.948,2.499,11.503,7.495c2.559,5.005,3.841,12.5,3.841,22.485c0,10.034-1.282,17.546-3.841,22.534
								C104.352,63.904,100.519,66.41,95.404,66.41 M95.404,74.223c8.179,0,14.425-3.239,18.738-9.709
								c4.309-6.453,6.466-15.837,6.466-28.141c0-12.272-2.157-21.639-6.466-28.109c-4.313-6.453-10.559-9.684-18.738-9.684
								C87.237-1.42,81,1.811,76.687,8.264c-4.313,6.47-6.47,15.837-6.47,28.109c0,12.305,2.157,21.688,6.47,28.141
								C81,70.984,87.237,74.223,95.404,74.223"/>
						</g>
					</g>
				</g>
			</g>
			<g id="ytick_3">
				<g id="line2d_18">
					<g>
						<g>
							<path id="mc8fcea1516_2_" stroke="#000000" stroke-width="0.5" stroke-linejoin="round" d="M73.35,319.8h4"/>
						</g>
					</g>
				</g>
				<g id="line2d_19">
					<g>
						<g>
							<path id="m0d5b0a6425_2_" stroke="#000000" stroke-width="0.5" stroke-linejoin="round" d="M528.12,319.8h-4"/>
						</g>
					</g>
				</g>
				<g id="text_8">
					<g transform="translate(55.46375 324.1678125)scale(0.12 -0.12)">
						<g>
							<path id="BitstreamVeraSans-Roman-34" d="M37.799,64.313L12.893,25.39h24.907V64.313z M35.203,72.907h12.406V25.39h10.409
								v-8.203H47.609V-0.001h-9.81v17.188H4.893V26.7L35.203,72.907z"/>
						</g>
						<g>
							<path id="BitstreamVeraSans-Roman-30_7_" d="M95.404,66.405c-5.07,0-8.891-2.499-11.45-7.503
								c-2.556-4.989-3.829-12.5-3.829-22.526c0-9.994,1.273-17.489,3.829-22.485c2.559-4.997,6.38-7.503,11.45-7.503
								c5.115,0,8.948,2.506,11.499,7.503c2.563,4.997,3.845,12.492,3.845,22.485c0,10.026-1.282,17.537-3.845,22.526
								C104.352,63.907,100.519,66.405,95.404,66.405 M95.404,74.218c8.179,0,14.424-3.231,18.733-9.701
								c4.313-6.461,6.47-15.836,6.47-28.141c0-12.272-2.156-21.639-6.47-28.109c-4.309-6.461-10.555-9.692-18.733-9.692
								c-8.167,0-14.404,3.231-18.718,9.692c-4.313,6.47-6.47,15.836-6.47,28.109c0,12.305,2.157,21.68,6.47,28.141
								C81,70.987,87.238,74.218,95.404,74.218"/>
						</g>
					</g>
				</g>
			</g>
			<g id="ytick_4">
				<g id="line2d_20">
					<g>
						<g>
							<path id="mc8fcea1516_3_" stroke="#000000" stroke-width="0.5" stroke-linejoin="round" d="M73.35,280.439h4"/>
						</g>
					</g>
				</g>
				<g id="line2d_21">
					<g>
						<g>
							<path id="m0d5b0a6425_3_" stroke="#000000" stroke-width="0.5" stroke-linejoin="round" d="M528.12,280.439h-4"/>
						</g>
					</g>
				</g>
				<g id="text_9">
					<g transform="translate(55.715 284.8078125)scale(0.12 -0.12)">
						<g>
							<path id="BitstreamVeraSans-Roman-36" d="M33.016,40.375c-4.427,0-7.935-1.514-10.53-4.541
								c-2.584-3.027-3.874-7.169-3.874-12.443c0-5.241,1.29-9.383,3.874-12.435c2.596-3.043,6.104-4.565,10.53-4.565
								c4.427,0,7.935,1.522,10.519,4.565c2.584,3.052,3.874,7.194,3.874,12.435c0,5.273-1.29,9.416-3.874,12.443
								S37.443,40.375,33.016,40.375 M52.596,71.299v-8.984c-2.482,1.164-4.98,2.051-7.499,2.669
								c-2.523,0.626-5.021,0.944-7.503,0.944c-6.51,0-11.482-2.205-14.921-6.6c-3.426-4.395-5.383-11.035-5.875-19.922
								c1.917,2.832,4.325,5.005,7.218,6.519c2.909,1.514,6.1,2.262,9.579,2.262c7.324,0,13.11-2.222,17.362-6.673
								c4.248-4.435,6.372-10.481,6.372-18.123c0-7.487-2.213-13.501-6.641-18.026S40.373-1.422,33.016-1.422
								c-8.435,0-14.884,3.231-19.344,9.684C9.217,14.74,6.987,24.106,6.987,36.371c0,11.523,2.734,20.711,8.203,27.572
								c5.469,6.852,12.805,10.278,22.013,10.278c2.482,0,4.98-0.244,7.503-0.741C47.225,72.992,49.854,72.268,52.596,71.299"/>
						</g>
						<g>
							<path id="BitstreamVeraSans-Roman-30_8_" d="M95.406,66.408c-5.074,0-8.891-2.499-11.454-7.503
								c-2.551-4.989-3.829-12.5-3.829-22.534c0-9.985,1.278-17.48,3.829-22.477c2.563-4.997,6.38-7.503,11.454-7.503
								c5.115,0,8.948,2.506,11.499,7.503c2.563,4.997,3.845,12.492,3.845,22.477c0,10.034-1.282,17.545-3.845,22.534
								C104.354,63.91,100.521,66.408,95.406,66.408 M95.406,74.221c8.175,0,14.421-3.231,18.734-9.709
								c4.313-6.453,6.47-15.836,6.47-28.141c0-12.264-2.157-21.631-6.47-28.109c-4.313-6.453-10.559-9.684-18.734-9.684
								c-8.167,0-14.408,3.231-18.717,9.684c-4.313,6.478-6.47,15.845-6.47,28.109c0,12.305,2.157,21.688,6.47,28.141
								C80.998,70.99,87.24,74.221,95.406,74.221"/>
						</g>
					</g>
				</g>
			</g>
			<g id="ytick_5">
				<g id="line2d_22">
					<g>
						<g>
							<path id="mc8fcea1516_4_" stroke="#000000" stroke-width="0.5" stroke-linejoin="round" d="M73.35,241.08h4"/>
						</g>
					</g>
				</g>
				<g id="line2d_23">
					<g>
						<g>
							<path id="m0d5b0a6425_4_" stroke="#000000" stroke-width="0.5" stroke-linejoin="round" d="M528.12,241.08h-4"/>
						</g>
					</g>
				</g>
				<g id="text_10">
					<g transform="translate(55.690625 245.4478125)scale(0.12 -0.12)">
						<g>
							<path id="BitstreamVeraSans-Roman-38" d="M31.784,34.625c-4.688,0-8.374-1.253-11.064-3.76
								c-2.677-2.515-4.016-5.965-4.016-10.352c0-4.395,1.339-7.845,4.016-10.352c2.69-2.515,6.376-3.776,11.064-3.776
								s8.378,1.27,11.08,3.792c2.706,2.523,4.061,5.973,4.061,10.335c0,4.386-1.343,7.837-4.032,10.352
								C40.214,33.371,36.512,34.625,31.784,34.625 M21.924,38.807c-4.232,1.042-7.528,3.011-9.892,5.908
								C9.681,47.629,8.5,51.161,8.5,55.328c0,5.827,2.075,10.433,6.222,13.818c4.154,3.385,9.843,5.078,17.062,5.078
								c7.259,0,12.959-1.693,17.094-5.078c4.134-3.386,6.201-7.992,6.201-13.818c0-4.167-1.18-7.699-3.544-10.612
								c-2.356-2.897-5.632-4.866-9.831-5.908c4.753-1.099,8.452-3.263,11.096-6.494c2.653-3.223,3.984-7.153,3.984-11.8
								c0-7.072-2.157-12.5-6.47-16.276C46,0.461,39.824-1.427,31.784-1.427c-8.032,0-14.209,1.888-18.53,5.664
								c-4.313,3.776-6.47,9.204-6.47,16.276c0,4.646,1.334,8.577,4,11.8C13.461,35.544,17.172,37.708,21.924,38.807 M18.315,54.392
								c0-3.768,1.176-6.714,3.532-8.83c2.364-2.116,5.676-3.174,9.937-3.174c4.24,0,7.552,1.058,9.937,3.174
								c2.396,2.116,3.593,5.062,3.593,8.83c0,3.784-1.196,6.73-3.593,8.846c-2.385,2.116-5.697,3.174-9.937,3.174
								c-4.26,0-7.573-1.058-9.937-3.174C19.491,61.122,18.315,58.176,18.315,54.392"/>
						</g>
						<g>
							<path id="BitstreamVeraSans-Roman-30_9_" d="M95.407,66.412c-5.074,0-8.891-2.507-11.455-7.503
								c-2.551-4.997-3.829-12.5-3.829-22.534c0-9.985,1.277-17.489,3.829-22.485c2.563-4.997,6.38-7.503,11.455-7.503
								c5.115,0,8.948,2.507,11.499,7.503c2.563,4.997,3.845,12.5,3.845,22.485c0,10.034-1.282,17.538-3.845,22.534
								C104.354,63.905,100.521,66.412,95.407,66.412 M95.407,74.224c8.174,0,14.42-3.239,18.733-9.709
								c4.313-6.453,6.47-15.836,6.47-28.141c0-12.264-2.156-21.639-6.47-28.109c-4.313-6.453-10.559-9.692-18.733-9.692
								c-8.167,0-14.409,3.239-18.718,9.692c-4.313,6.47-6.47,15.845-6.47,28.109c0,12.305,2.157,21.688,6.47,28.141
								C80.998,70.985,87.24,74.224,95.407,74.224"/>
						</g>
					</g>
				</g>
			</g>
			<g id="ytick_6">
				<g id="line2d_24">
					<g>
						<g>
							<path id="mc8fcea1516_5_" stroke="#000000" stroke-width="0.5" stroke-linejoin="round" d="M73.35,201.72h4"/>
						</g>
					</g>
				</g>
				<g id="line2d_25">
					<g>
						<g>
							<path id="m0d5b0a6425_5_" stroke="#000000" stroke-width="0.5" stroke-linejoin="round" d="M528.12,201.72h-4"/>
						</g>
					</g>
				</g>
				<g id="text_11">
					<g transform="translate(48.56 206.0878125)scale(0.12 -0.12)">
						<g>
							<path id="BitstreamVeraSans-Roman-31_2_" d="M12.41,8.297h16.109v55.627l-17.533-3.516v8.984l17.44,3.516h9.859V8.297h16.109
								V0H12.41V8.297z"/>
						</g>
						<g>
							<path id="BitstreamVeraSans-Roman-30_10_" d="M95.405,66.407c-5.07,0-8.891-2.499-11.45-7.499
								c-2.551-4.989-3.829-12.5-3.829-22.53c0-9.989,1.278-17.484,3.829-22.485c2.559-5.001,6.38-7.499,11.45-7.499
								c5.115,0,8.948,2.498,11.503,7.499c2.56,5.001,3.841,12.496,3.841,22.485c0,10.03-1.282,17.542-3.841,22.53
								C104.353,63.908,100.52,66.407,95.405,66.407 M95.405,74.219c8.179,0,14.424-3.235,18.738-9.701
								c4.313-6.461,6.465-15.84,6.465-28.141c0-12.272-2.152-21.643-6.465-28.109c-4.313-6.461-10.559-9.688-18.738-9.688
								c-8.167,0-14.404,3.227-18.718,9.688c-4.313,6.466-6.47,15.837-6.47,28.109c0,12.301,2.157,21.68,6.47,28.141
								C81.001,70.984,87.239,74.219,95.405,74.219"/>
						</g>
						<g>
							<path id="BitstreamVeraSans-Roman-30_11_" d="M159.028,66.407c-5.07,0-8.891-2.499-11.45-7.499
								c-2.551-4.989-3.829-12.5-3.829-22.53c0-9.989,1.278-17.484,3.829-22.485c2.559-5.001,6.38-7.499,11.45-7.499
								c5.115,0,8.948,2.498,11.503,7.499c2.56,5.001,3.841,12.496,3.841,22.485c0,10.03-1.282,17.542-3.841,22.53
								C167.976,63.908,164.143,66.407,159.028,66.407 M159.028,74.219c8.179,0,14.424-3.235,18.738-9.701
								c4.313-6.461,6.465-15.84,6.465-28.141c0-12.272-2.152-21.643-6.465-28.109c-4.313-6.461-10.559-9.688-18.738-9.688
								c-8.167,0-14.404,3.227-18.718,9.688c-4.313,6.466-6.47,15.837-6.47,28.109c0,12.301,2.157,21.68,6.47,28.141
								C144.624,70.984,150.862,74.219,159.028,74.219"/>
						</g>
					</g>
				</g>
			</g>
			<g id="ytick_7">
				<g id="line2d_26">
					<g>
						<g>
							<path id="mc8fcea1516_6_" stroke="#000000" stroke-width="0.5" stroke-linejoin="round" d="M73.35,162.36h4"/>
						</g>
					</g>
				</g>
				<g id="line2d_27">
					<g>
						<g>
							<path id="m0d5b0a6425_6_" stroke="#000000" stroke-width="0.5" stroke-linejoin="round" d="M528.12,162.36h-4"/>
						</g>
					</g>
				</g>
				<g id="text_12">
					<g transform="translate(48.56 166.7278125)scale(0.12 -0.12)">
						<g>
							<path id="BitstreamVeraSans-Roman-31_3_" d="M12.41,8.296h16.109v55.627l-17.533-3.516v8.984l17.44,3.516h9.859V8.296h16.109
								V0.004H12.41V8.296z"/>
						</g>
						<g>
							<path id="BitstreamVeraSans-Roman-32_2_" d="M82.812,8.296h34.424V0.004H70.955v8.292c3.739,3.878,8.838,9.074,15.295,15.597
								c6.47,6.531,10.53,10.746,12.187,12.638c3.158,3.544,5.363,6.543,6.612,9.001c1.257,2.458,1.888,4.875,1.888,7.251
								c0,3.874-1.359,7.031-4.077,9.468c-2.718,2.45-6.262,3.67-10.624,3.67c-3.092,0-6.36-0.533-9.798-1.607
								c-3.426-1.074-7.092-2.702-10.999-4.891v9.969c3.967,1.595,7.678,2.795,11.125,3.609c3.458,0.814,6.62,1.221,9.485,1.221
								c7.552,0,13.574-1.892,18.062-5.672c4.488-3.772,6.734-8.813,6.734-15.128c0-2.999-0.562-5.843-1.688-8.529
								c-1.115-2.677-3.154-5.839-6.124-9.485c-0.814-0.948-3.402-3.678-7.768-8.187C96.911,22.709,90.763,16.402,82.812,8.296"/>
						</g>
						<g>
							<path id="BitstreamVeraSans-Roman-30_12_" d="M159.029,66.41c-5.07,0-8.891-2.502-11.45-7.503
								c-2.551-4.988-3.829-12.5-3.829-22.53c0-9.99,1.278-17.485,3.829-22.485c2.559-5.001,6.38-7.5,11.45-7.5
								c5.115,0,8.948,2.499,11.503,7.5c2.56,5,3.841,12.496,3.841,22.485c0,10.03-1.282,17.542-3.841,22.53
								C167.977,63.908,164.144,66.41,159.029,66.41 M159.029,74.223c8.179,0,14.424-3.235,18.738-9.705
								c4.313-6.458,6.465-15.841,6.465-28.141c0-12.272-2.152-21.639-6.465-28.109c-4.313-6.458-10.559-9.688-18.738-9.688
								c-8.167,0-14.404,3.231-18.718,9.688c-4.313,6.47-6.47,15.836-6.47,28.109c0,12.3,2.157,21.684,6.47,28.141
								C144.625,70.988,150.862,74.223,159.029,74.223"/>
						</g>
					</g>
				</g>
			</g>
			<g id="ytick_8">
				<g id="line2d_28">
					<g>
						<g>
							<path id="mc8fcea1516_7_" stroke="#000000" stroke-width="0.5" stroke-linejoin="round" d="M73.351,123h4"/>
						</g>
					</g>
				</g>
				<g id="line2d_29">
					<g>
						<g>
							<path id="m0d5b0a6425_7_" stroke="#000000" stroke-width="0.5" stroke-linejoin="round" d="M528.121,123h-4"/>
						</g>
					</g>
				</g>
				<g id="text_13">
					<g transform="translate(48.56 127.3678125)scale(0.12 -0.12)">
						<g>
							<path id="BitstreamVeraSans-Roman-31_4_" d="M12.411,8.3H28.52v55.624l-17.533-3.516v8.984l17.44,3.516h9.859V8.3h16.109
								V0.003H12.411V8.3z"/>
						</g>
						<g>
							<path id="BitstreamVeraSans-Roman-34_1_" d="M101.424,64.314l-24.907-38.92h24.907V64.314z M98.828,72.908h12.406V25.394
								h10.409v-8.203h-10.409V0.003h-9.81v17.188H68.518v9.513L98.828,72.908z"/>
						</g>
						<g>
							<path id="BitstreamVeraSans-Roman-30_13_" d="M159.029,66.41c-5.07,0-8.891-2.502-11.45-7.5
								c-2.551-4.993-3.829-12.5-3.829-22.534c0-9.989,1.278-17.484,3.829-22.485c2.559-4.997,6.38-7.499,11.45-7.499
								c5.115,0,8.948,2.502,11.503,7.499c2.56,5.001,3.841,12.496,3.841,22.485c0,10.034-1.282,17.542-3.841,22.534
								C167.977,63.907,164.144,66.41,159.029,66.41 M159.029,74.222c8.179,0,14.424-3.235,18.738-9.705
								c4.313-6.458,6.465-15.837,6.465-28.142c0-12.268-2.152-21.639-6.465-28.108c-4.313-6.458-10.559-9.688-18.738-9.688
								c-8.167,0-14.404,3.231-18.718,9.688c-4.313,6.47-6.47,15.84-6.47,28.108c0,12.305,2.157,21.684,6.47,28.142
								C144.625,70.987,150.863,74.222,159.029,74.222"/>
						</g>
					</g>
				</g>
			</g>
			<g id="ytick_9">
				<g id="line2d_30">
					<g>
						<g>
							<path id="mc8fcea1516_8_" stroke="#000000" stroke-width="0.5" stroke-linejoin="round" d="M73.351,83.64h4"/>
						</g>
					</g>
				</g>
				<g id="line2d_31">
					<g>
						<g>
							<path id="m0d5b0a6425_8_" stroke="#000000" stroke-width="0.5" stroke-linejoin="round" d="M528.121,83.64h-4"/>
						</g>
					</g>
				</g>
				<g id="text_14">
					<g transform="translate(48.56 88.0078125)scale(0.12 -0.12)">
						<g>
							<path id="BitstreamVeraSans-Roman-31_5_" d="M12.411,8.299H28.52v55.627l-17.533-3.52v8.984l17.44,3.516h9.859V8.299h16.109
								V0.002H12.411V8.299z"/>
						</g>
						<g>
							<path id="BitstreamVeraSans-Roman-36_1_" d="M96.644,40.375c-4.427,0-7.938-1.514-10.531-4.545
								c-2.583-3.019-3.877-7.166-3.877-12.439c0-5.237,1.294-9.383,3.877-12.435c2.592-3.044,6.104-4.565,10.531-4.565
								s7.931,1.521,10.514,4.565c2.584,3.052,3.874,7.198,3.874,12.435c0,5.273-1.29,9.42-3.874,12.439
								C104.574,38.862,101.071,40.375,96.644,40.375 M116.22,71.3v-8.984c-2.478,1.168-4.977,2.059-7.5,2.673
								c-2.519,0.623-5.021,0.936-7.499,0.936c-6.51,0-11.483-2.197-14.921-6.596c-3.43-4.395-5.388-11.035-5.876-19.922
								c1.917,2.836,4.321,5.005,7.219,6.519c2.905,1.51,6.099,2.263,9.578,2.263c7.32,0,13.11-2.222,17.358-6.669
								c4.252-4.439,6.376-10.478,6.376-18.127c0-7.487-2.214-13.497-6.641-18.03c-4.427-4.521-10.319-6.783-17.672-6.783
								c-8.439,0-14.889,3.23-19.344,9.688c-4.459,6.47-6.689,15.841-6.689,28.113c0,11.52,2.734,20.708,8.203,27.56
								c5.469,6.856,12.81,10.282,22.018,10.282c2.478,0,4.98-0.244,7.499-0.732C110.853,72.997,113.481,72.268,116.22,71.3"/>
						</g>
						<g>
							<path id="BitstreamVeraSans-Roman-30_14_" d="M159.03,66.409c-5.07,0-8.891-2.498-11.45-7.499
								c-2.551-4.993-3.829-12.5-3.829-22.53c0-9.993,1.278-17.488,3.829-22.485c2.559-5,6.38-7.503,11.45-7.503
								c5.115,0,8.948,2.502,11.503,7.503c2.56,4.997,3.841,12.492,3.841,22.485c0,10.03-1.282,17.538-3.841,22.53
								C167.978,63.911,164.145,66.409,159.03,66.409 M159.03,74.221c8.179,0,14.424-3.235,18.738-9.705
								c4.313-6.458,6.465-15.836,6.465-28.137c0-12.272-2.152-21.643-6.465-28.113c-4.313-6.458-10.559-9.688-18.738-9.688
								c-8.167,0-14.404,3.23-18.718,9.688c-4.313,6.47-6.47,15.841-6.47,28.113c0,12.301,2.157,21.68,6.47,28.137
								C144.625,70.986,150.863,74.221,159.03,74.221"/>
						</g>
					</g>
				</g>
			</g>
			<g id="ytick_10">
				<g id="line2d_32">
					<g>
						<g>
							<path id="mc8fcea1516_9_" stroke="#000000" stroke-width="0.5" stroke-linejoin="round" d="M73.351,44.28h4"/>
						</g>
					</g>
				</g>
				<g id="line2d_33">
					<g>
						<g>
							<path id="m0d5b0a6425_9_" stroke="#000000" stroke-width="0.5" stroke-linejoin="round" d="M528.121,44.28h-4"/>
						</g>
					</g>
				</g>
				<g id="text_15">
					<g transform="translate(48.56 48.6478125)scale(0.12 -0.12)">
						<g>
							<path id="BitstreamVeraSans-Roman-31_6_" d="M12.412,8.298h16.109v55.627L10.987,60.41v8.984l17.44,3.516h9.859V8.298h16.109
								V0.002H12.412V8.298z"/>
						</g>
						<g>
							<path id="BitstreamVeraSans-Roman-38_1_" d="M95.407,34.629c-4.688,0-8.374-1.257-11.06-3.768
								c-2.678-2.511-4.016-5.957-4.016-10.344c0-4.395,1.338-7.849,4.016-10.359c2.686-2.511,6.372-3.764,11.06-3.764
								s8.382,1.262,11.08,3.78c2.71,2.531,4.061,5.978,4.061,10.343c0,4.387-1.343,7.833-4.028,10.344
								C103.842,33.372,100.139,34.629,95.407,34.629 M85.548,38.816c-4.228,1.042-7.523,3.011-9.888,5.904
								c-2.356,2.909-3.532,6.445-3.532,10.612c0,5.823,2.071,10.425,6.217,13.811c4.159,3.385,9.843,5.078,17.062,5.078
								c7.263,0,12.959-1.693,17.094-5.078c4.138-3.386,6.205-7.988,6.205-13.811c0-4.167-1.184-7.703-3.548-10.612
								c-2.352-2.893-5.627-4.862-9.827-5.904c4.749-1.106,8.447-3.271,11.092-6.502c2.657-3.219,3.984-7.149,3.984-11.796
								c0-7.072-2.153-12.5-6.466-16.28c-4.313-3.772-10.49-5.656-18.534-5.656c-8.028,0-14.205,1.884-18.53,5.656
								c-4.313,3.78-6.47,9.208-6.47,16.28c0,4.647,1.334,8.578,4,11.796C77.084,35.544,80.799,37.709,85.548,38.816 M81.938,54.392
								c0-3.768,1.18-6.714,3.532-8.826c2.364-2.116,5.676-3.174,9.937-3.174c4.24,0,7.552,1.058,9.94,3.174
								c2.393,2.112,3.593,5.058,3.593,8.826c0,3.784-1.2,6.73-3.593,8.846c-2.389,2.112-5.701,3.17-9.94,3.17
								c-4.26,0-7.573-1.058-9.937-3.17C83.119,61.123,81.938,58.176,81.938,54.392"/>
						</g>
						<g>
							<path id="BitstreamVeraSans-Roman-30_15_" d="M159.03,66.408c-5.07,0-8.891-2.499-11.45-7.5
								c-2.551-4.988-3.829-12.5-3.829-22.53c0-9.99,1.278-17.485,3.829-22.485c2.559-5.001,6.38-7.5,11.45-7.5
								c5.115,0,8.948,2.499,11.503,7.5c2.56,5,3.841,12.496,3.841,22.485c0,10.03-1.282,17.542-3.841,22.53
								C167.978,63.91,164.145,66.408,159.03,66.408 M159.03,74.221c8.179,0,14.424-3.235,18.738-9.701
								c4.313-6.461,6.465-15.841,6.465-28.141c0-12.272-2.152-21.643-6.465-28.109c-4.313-6.461-10.559-9.688-18.738-9.688
								c-8.167,0-14.404,3.227-18.718,9.688c-4.313,6.466-6.47,15.836-6.47,28.109c0,12.3,2.157,21.68,6.47,28.141
								C144.626,70.986,150.864,74.221,159.03,74.221"/>
						</g>
					</g>
				</g>
			</g>
		</g>
		<g id="patch_3">
			<path fill="none" stroke="#000000" stroke-linecap="square" stroke-linejoin="round" d="M73.351,44.28h454.77"/>
		</g>
		<g id="patch_4">
			<path fill="none" stroke="#000000" stroke-linecap="square" stroke-linejoin="round" d="M528.121,398.519V44.28"/>
		</g>
		<g id="patch_5">
			<path fill="none" stroke="#000000" stroke-linecap="square" stroke-linejoin="round" d="M73.351,398.519h454.77"/>
		</g>
		<g id="patch_6">
			<path fill="none" stroke="#000000" stroke-linecap="square" stroke-linejoin="round" d="M73.351,398.519V44.28"/>
		</g>
		<g id="text_16">
			<g transform="translate(194.427 39.28)scale(0.144 -0.144)">
				<g>
					<path id="BitstreamVeraSans-Roman-44" d="M19.677,64.799V8.111h11.922c10.061,0,17.426,2.275,22.095,6.829
						c4.666,4.561,6.999,11.759,6.999,21.593c0,9.759-2.333,16.91-6.999,21.454c-4.669,4.54-12.034,6.812-22.095,6.812H19.677z
						 M9.816,72.907h20.267c14.123,0,24.489-2.936,31.094-8.813c6.615-5.873,9.921-15.062,9.921-27.561
						c0-12.573-3.323-21.806-9.969-27.703C54.494,2.944,44.145,0,30.083,0H9.816V72.907z"/>
				</g>
				<g>
					<path id="BitstreamVeraSans-Roman-2d" d="M81.898,31.393h26.31v-7.999h-26.31V31.393z"/>
				</g>
				<g>
					<path id="BitstreamVeraSans-Roman-74" d="M131.405,70.221V54.688h18.497v-6.982h-18.497V18.02c0-4.459,0.607-7.324,1.828-8.596
						c1.217-1.271,3.703-1.905,7.453-1.905h9.216V0h-9.216c-6.938,0-11.726,1.292-14.36,3.875
						c-2.635,2.594-3.954,7.308-3.954,14.144v29.687h-6.592v6.982h6.592v15.533H131.405z"/>
				</g>
				<g>
					<path id="BitstreamVeraSans-Roman-65" d="M208.502,29.596v-4.391h-41.311c0.393-6.188,2.258-10.901,5.591-14.14
						s7.979-4.859,13.94-4.859c3.445,0,6.788,0.42,10.03,1.265c3.238,0.845,6.457,2.116,9.657,3.815V2.784
						c-3.231-1.366-6.538-2.407-9.921-3.126c-3.388-0.719-6.819-1.078-10.298-1.078c-8.731,0-15.642,2.537-20.735,7.609
						c-5.093,5.083-7.64,11.96-7.64,20.627c0,8.948,2.418,16.045,7.25,21.294c4.832,5.262,11.353,7.894,19.562,7.894
						c7.355,0,13.173-2.37,17.453-7.11C206.363,44.163,208.502,37.73,208.502,29.596 M199.52,32.237
						c-0.064,4.906-1.438,8.823-4.126,11.749c-2.689,2.937-6.246,4.408-10.671,4.408c-5.011,0-9.023-1.417-12.03-4.252
						c-3.011-2.835-4.748-6.823-5.205-11.97L199.52,32.237z"/>
				</g>
				<g>
					<path id="BitstreamVeraSans-Roman-73" d="M258.104,53.081v-8.5c-2.529,1.302-5.164,2.275-7.904,2.923
						c-2.73,0.654-5.564,0.983-8.501,0.983c-4.459,0-7.802-0.682-10.034-2.045c-2.228-1.367-3.343-3.418-3.343-6.158
						c0-2.082,0.797-3.72,2.391-4.907c1.594-1.187,4.805-2.316,9.626-3.391l3.079-0.688c6.375-1.363,10.905-3.289,13.594-5.781
						c2.686-2.489,4.032-5.961,4.032-10.42c0-5.083-2.011-9.111-6.032-12.079c-4.021-2.96-9.549-4.438-16.578-4.438
						c-2.93,0-5.981,0.288-9.158,0.861c-3.177,0.573-6.521,1.428-10.03,2.56v9.284c3.323-1.729,6.595-3.028,9.813-3.893
						c3.218-0.854,6.412-1.282,9.579-1.282c4.229,0,7.477,0.726,9.749,2.173c2.282,1.448,3.421,3.489,3.421,6.124
						c0,2.438-0.82,4.306-2.468,5.608c-1.634,1.302-5.239,2.56-10.813,3.767l-3.123,0.732c-5.564,1.167-9.583,2.964-12.064,5.392
						c-2.469,2.428-3.703,5.758-3.703,9.986c0,5.144,1.825,9.115,5.47,11.905c3.645,2.801,8.823,4.205,15.533,4.205
						c3.31,0,6.429-0.248,9.359-0.736C252.933,54.79,255.635,54.061,258.104,53.081"/>
				</g>
				<g>
					<path id="BitstreamVeraSans-Roman-74_1_" d="M284.237,70.221V54.688h18.497v-6.982h-18.497V18.02
						c0-4.459,0.607-7.324,1.828-8.596c1.217-1.271,3.703-1.905,7.453-1.905h9.216V0h-9.216c-6.938,0-11.726,1.292-14.36,3.875
						c-2.635,2.594-3.954,7.308-3.954,14.144v29.687h-6.592v6.982h6.592v15.533H284.237z"/>
				</g>
				<g>
					<path id="BitstreamVeraSans-Roman-20" d="M305.131,0"/>
				</g>
				<g>
					<path id="BitstreamVeraSans-Roman-66" d="M374.026,75.986v-7.483h-8.592c-3.218,0-5.459-0.651-6.717-1.953
						c-1.251-1.302-1.875-3.646-1.875-7.033v-4.829h14.797v-6.982h-14.797V0h-9.033v47.706h-8.593v6.982h8.593v3.814
						c0,6.083,1.417,10.515,4.252,13.296c2.831,2.794,7.321,4.188,13.468,4.188H374.026z"/>
				</g>
				<g>
					<path id="BitstreamVeraSans-Roman-6f" d="M402.733,48.395c-4.812,0-8.62-1.882-11.42-5.643
						c-2.804-3.76-4.205-8.911-4.205-15.452c0-6.541,1.39-11.695,4.17-15.456c2.794-3.761,6.612-5.639,11.455-5.639
						c4.791,0,8.582,1.885,11.376,5.656c2.801,3.781,4.201,8.928,4.201,15.438c0,6.479-1.4,11.613-4.201,15.404
						C411.315,46.496,407.524,48.395,402.733,48.395 M402.733,56.003c7.813,0,13.946-2.543,18.405-7.626
						c4.469-5.073,6.704-12.099,6.704-21.077c0-8.949-2.234-15.975-6.704-21.081c-4.459-5.093-10.593-7.64-18.405-7.64
						c-7.843,0-13.991,2.546-18.439,7.64c-4.436,5.106-6.653,12.132-6.653,21.081c0,8.979,2.217,16.004,6.653,21.077
						C388.743,53.46,394.89,56.003,402.733,56.003"/>
				</g>
				<g>
					<path id="BitstreamVeraSans-Roman-72" d="M474.416,46.299c-1.01,0.583-2.109,1.011-3.296,1.282
						c-1.19,0.282-2.496,0.42-3.923,0.42c-5.083,0-8.985-1.651-11.702-4.95c-2.719-3.303-4.079-8.05-4.079-14.235V0h-9.033v54.688
						h9.033V46.19c1.896,3.323,4.354,5.785,7.375,7.389c3.032,1.618,6.714,2.424,11.047,2.424c0.614,0,1.295-0.044,2.045-0.125
						c0.749-0.074,1.58-0.193,2.485-0.359L474.416,46.299z"/>
				</g>
				<g>
					<path id="BitstreamVeraSans-Roman-20_1_" d="M474.419,0"/>
				</g>
				<g>
					<path id="BitstreamVeraSans-Roman-6d" d="M558.207,44.19c2.249,4.042,4.937,7.019,8.06,8.938
						c3.126,1.916,6.802,2.875,11.034,2.875c5.696,0,10.091-1.997,13.187-5.985c3.092-3.98,4.639-9.647,4.639-17.001V0h-9.03v32.722
						c0,5.239-0.932,9.125-2.797,11.654c-1.854,2.543-4.683,3.814-8.484,3.814c-4.655,0-8.338-1.549-11.047-4.642
						c-2.696-3.082-4.045-7.297-4.045-12.641V0h-9.033v32.722c0,5.269-0.926,9.166-2.781,11.685
						c-1.855,2.523-4.72,3.784-8.592,3.784c-4.595,0-8.247-1.553-10.956-4.659c-2.695-3.103-4.045-7.311-4.045-12.625V0h-9.033
						v54.688h9.033V46.19c2.051,3.354,4.51,5.826,7.375,7.419c2.865,1.597,6.266,2.394,10.203,2.394
						c3.977,0,7.358-1.01,10.139-3.031C554.816,50.961,556.874,48.035,558.207,44.19"/>
				</g>
				<g>
					<path id="BitstreamVeraSans-Roman-61" d="M637.898,27.487c-7.26,0-12.292-0.828-15.093-2.486
						c-2.801-1.655-4.205-4.489-4.205-8.5c0-3.188,1.055-5.717,3.157-7.592c2.106-1.865,4.958-2.797,8.562-2.797
						c4.991,0,8.993,1.767,12,5.296c3.011,3.533,4.517,8.226,4.517,14.079v2.001H637.898z M655.822,31.207V0h-8.986v8.297
						c-2.051-3.313-4.608-5.761-7.673-7.341c-3.062-1.583-6.805-2.377-11.234-2.377c-5.591,0-10.047,1.573-13.356,4.72
						c-3.303,3.143-4.954,7.354-4.954,12.624c0,6.144,2.058,10.783,6.171,13.906c4.123,3.126,10.271,4.689,18.436,4.689h12.61v0.889
						c0,4.137-1.359,7.334-4.079,9.596c-2.719,2.258-6.534,3.391-11.451,3.391c-3.126,0-6.175-0.376-9.142-1.126
						c-2.96-0.752-5.802-1.875-8.532-3.377v8.314c3.283,1.271,6.47,2.217,9.563,2.841c3.096,0.638,6.104,0.956,9.03,0.956
						c7.917,0,13.831-2.055,17.737-6.158C653.869,45.753,655.822,39.538,655.822,31.207"/>
				</g>
				<g>
					<path id="BitstreamVeraSans-Roman-78" d="M719.791,54.688L700.001,28.08L720.808,0h-10.6l-15.917,21.484L678.381,0h-10.61
						l21.25,28.612l-19.436,26.076h10.593l14.499-19.484l14.5,19.484H719.791z"/>
				</g>
				<g>
					<path id="BitstreamVeraSans-Roman-69" d="M733.503,54.688h8.979V0h-8.979V54.688z M733.503,75.986h8.979v-11.39h-8.979V75.986z
						"/>
				</g>
				<g>
					<path id="BitstreamVeraSans-Roman-6d_1_" d="M803.856,44.19c2.251,4.042,4.937,7.019,8.07,8.938
						c3.12,1.916,6.795,2.875,11.027,2.875c5.696,0,10.091-1.997,13.184-5.985c3.099-3.98,4.646-9.647,4.646-17.001V0h-9.033v32.722
						c0,5.239-0.929,9.125-2.794,11.654c-1.851,2.543-4.686,3.814-8.484,3.814c-4.659,0-8.341-1.549-11.047-4.642
						c-2.699-3.082-4.048-7.297-4.048-12.641V0h-9.033v32.722c0,5.269-0.922,9.166-2.781,11.685
						c-1.851,2.523-4.72,3.784-8.592,3.784c-4.591,0-8.24-1.553-10.952-4.659c-2.699-3.103-4.049-7.311-4.049-12.625V0h-9.026
						v54.688h9.026V46.19c2.055,3.354,4.51,5.826,7.372,7.419c2.869,1.597,6.266,2.394,10.207,2.394
						c3.981,0,7.358-1.01,10.139-3.031C800.465,50.961,802.527,48.035,803.856,44.19"/>
				</g>
				<g>
					<path id="BitstreamVeraSans-Roman-75" d="M857.771,21.58v33.108h8.986V21.926c0-5.178,1.004-9.064,3.018-11.658
						c2.021-2.584,5.045-3.876,9.087-3.876c4.849,0,8.681,1.546,11.488,4.642c2.821,3.092,4.231,7.311,4.231,12.655v30.999h8.986V0
						h-8.986V8.41c-2.17-3.323-4.707-5.792-7.588-7.409c-2.875-1.614-6.219-2.421-10.03-2.421c-6.28,0-11.054,1.953-14.316,5.859
						C859.398,8.345,857.771,14.059,857.771,21.58"/>
				</g>
				<g>
					<path id="BitstreamVeraSans-Roman-6d_2_" d="M964.65,44.19c2.251,4.042,4.937,7.019,8.063,8.938
						c3.126,1.916,6.802,2.875,11.034,2.875c5.697,0,10.091-1.997,13.184-5.985c3.093-3.98,4.639-9.647,4.639-17.001V0h-9.026
						v32.722c0,5.239-0.929,9.125-2.801,11.654c-1.851,2.543-4.679,3.814-8.477,3.814c-4.666,0-8.341-1.549-11.054-4.642
						c-2.699-3.082-4.042-7.297-4.042-12.641V0h-9.033v32.722c0,5.269-0.929,9.166-2.78,11.685c-1.858,2.523-4.72,3.784-8.599,3.784
						c-4.591,0-8.24-1.553-10.946-4.659c-2.699-3.103-4.048-7.311-4.048-12.625V0h-9.033v54.688h9.033V46.19
						c2.055,3.354,4.51,5.826,7.372,7.419c2.862,1.597,6.266,2.394,10.207,2.394c3.98,0,7.358-1.01,10.138-3.031
						C961.259,50.961,963.321,48.035,964.65,44.19"/>
				</g>
				<g>
					<path id="BitstreamVeraSans-Roman-20_2_" d="M1010.06,0"/>
				</g>
				<g>
					<path id="BitstreamVeraSans-Roman-65_1_" d="M1098.053,29.596v-4.391h-41.308c0.394-6.188,2.252-10.901,5.588-14.14
						s7.982-4.859,13.943-4.859c3.445,0,6.789,0.42,10.023,1.265c3.242,0.845,6.463,2.116,9.657,3.815V2.784
						c-3.228-1.366-6.538-2.407-9.915-3.126c-3.391-0.719-6.822-1.078-10.301-1.078c-8.728,0-15.645,2.537-20.731,7.609
						c-5.1,5.083-7.643,11.96-7.643,20.627c0,8.948,2.421,16.045,7.25,21.294c4.829,5.262,11.353,7.894,19.559,7.894
						c7.358,0,13.177-2.37,17.456-7.11C1095.917,44.163,1098.053,37.73,1098.053,29.596 M1089.067,32.237
						c-0.061,4.906-1.438,8.823-4.124,11.749c-2.686,2.937-6.246,4.408-10.674,4.408c-5.005,0-9.02-1.417-12.031-4.252
						c-3.011-2.835-4.747-6.823-5.201-11.97L1089.067,32.237z"/>
				</g>
				<g>
					<path id="BitstreamVeraSans-Roman-73_1_" d="M1147.654,53.081v-8.5c-2.53,1.302-5.161,2.275-7.901,2.923
						c-2.733,0.654-5.567,0.983-8.504,0.983c-4.462,0-7.799-0.682-10.03-2.045c-2.231-1.367-3.343-3.418-3.343-6.158
						c0-2.082,0.793-3.72,2.387-4.907c1.594-1.187,4.801-2.316,9.63-3.391l3.079-0.688c6.375-1.363,10.905-3.289,13.59-5.781
						c2.686-2.489,4.028-5.961,4.028-10.42c0-5.083-2.007-9.111-6.029-12.079c-4.021-2.96-9.549-4.438-16.582-4.438
						c-2.923,0-5.975,0.288-9.155,0.861c-3.174,0.573-6.517,1.428-10.03,2.56v9.284c3.323-1.729,6.599-3.028,9.813-3.893
						c3.214-0.854,6.416-1.282,9.576-1.282c4.232,0,7.48,0.726,9.752,2.173c2.279,1.448,3.418,3.489,3.418,6.124
						c0,2.438-0.813,4.306-2.468,5.608c-1.628,1.302-5.236,2.56-10.81,3.767l-3.12,0.732c-5.568,1.167-9.589,2.964-12.064,5.392
						c-2.469,2.428-3.71,5.758-3.71,9.986c0,5.144,1.831,9.115,5.473,11.905c3.642,2.801,8.823,4.205,15.537,4.205
						c3.31,0,6.429-0.248,9.359-0.736C1142.479,54.79,1145.185,54.061,1147.654,53.081"/>
				</g>
				<g>
					<path id="BitstreamVeraSans-Roman-74_2_" d="M1173.784,70.221V54.688h18.5v-6.982h-18.5V18.02c0-4.459,0.61-7.324,1.831-8.596
						c1.221-1.271,3.703-1.905,7.453-1.905h9.216V0h-9.216c-6.938,0-11.726,1.292-14.357,3.875c-2.638,2.594-3.96,7.308-3.96,14.144
						v29.687h-6.592v6.982h6.592v15.533H1173.784z"/>
				</g>
				<g>
					<path id="BitstreamVeraSans-Roman-69_1_" d="M1204.104,54.688h8.986V0h-8.986V54.688z M1204.104,75.986h8.986v-11.39h-8.986
						V75.986z"/>
				</g>
				<g>
					<path id="BitstreamVeraSans-Roman-6d_3_" d="M1274.464,44.19c2.251,4.042,4.937,7.019,8.063,8.938
						c3.126,1.916,6.802,2.875,11.034,2.875c5.697,0,10.091-1.997,13.184-5.985c3.093-3.98,4.639-9.647,4.639-17.001V0h-9.026
						v32.722c0,5.239-0.929,9.125-2.801,11.654c-1.851,2.543-4.679,3.814-8.477,3.814c-4.666,0-8.341-1.549-11.054-4.642
						c-2.699-3.082-4.042-7.297-4.042-12.641V0h-9.033v32.722c0,5.269-0.929,9.166-2.78,11.685c-1.858,2.523-4.72,3.784-8.599,3.784
						c-4.591,0-8.24-1.553-10.946-4.659c-2.699-3.103-4.048-7.311-4.048-12.625V0h-9.033v54.688h9.033V46.19
						c2.055,3.354,4.51,5.826,7.372,7.419c2.862,1.597,6.266,2.394,10.207,2.394c3.98,0,7.358-1.01,10.138-3.031
						C1271.074,50.961,1273.135,48.035,1274.464,44.19"/>
				</g>
				<g>
					<path id="BitstreamVeraSans-Roman-61_1_" d="M1354.163,27.487c-7.263,0-12.295-0.828-15.096-2.486
						c-2.808-1.655-4.205-4.489-4.205-8.5c0-3.188,1.051-5.717,3.16-7.592c2.103-1.865,4.951-2.797,8.559-2.797
						c4.991,0,8.992,1.767,12.003,5.296c3.011,3.533,4.517,8.226,4.517,14.079v2.001H1354.163z M1372.08,31.207V0h-8.979v8.297
						c-2.062-3.313-4.611-5.761-7.677-7.341c-3.065-1.583-6.809-2.377-11.23-2.377c-5.602,0-10.05,1.573-13.36,4.72
						c-3.31,3.143-4.958,7.354-4.958,12.624c0,6.144,2.055,10.783,6.171,13.906c4.13,3.126,10.274,4.689,18.439,4.689h12.614v0.889
						c0,4.137-1.363,7.334-4.083,9.596c-2.719,2.258-6.538,3.391-11.454,3.391c-3.126,0-6.171-0.376-9.135-1.126
						c-2.963-0.752-5.805-1.875-8.531-3.377v8.314c3.275,1.271,6.463,2.217,9.562,2.841c3.093,0.638,6.104,0.956,9.027,0.956
						c7.914,0,13.828-2.055,17.734-6.158C1370.127,45.753,1372.08,39.538,1372.08,31.207"/>
				</g>
				<g>
					<path id="BitstreamVeraSans-Roman-74_3_" d="M1399.471,70.221V54.688h18.5v-6.982h-18.5V18.02c0-4.459,0.61-7.324,1.824-8.596
						c1.221-1.271,3.703-1.905,7.453-1.905h9.223V0h-9.223c-6.938,0-11.726,1.292-14.357,3.875
						c-2.631,2.594-3.954,7.308-3.954,14.144v29.687h-6.592v6.982h6.592v15.533H1399.471z"/>
				</g>
				<g>
					<path id="BitstreamVeraSans-Roman-65_2_" d="M1476.572,29.596v-4.391h-41.314c0.394-6.188,2.258-10.901,5.595-14.14
						c3.33-3.238,7.976-4.859,13.937-4.859c3.445,0,6.789,0.42,10.03,1.265c3.242,0.845,6.456,2.116,9.657,3.815V2.784
						c-3.228-1.366-6.537-2.407-9.921-3.126c-3.384-0.719-6.822-1.078-10.301-1.078c-8.728,0-15.639,2.537-20.732,7.609
						c-5.093,5.083-7.643,11.96-7.643,20.627c0,8.948,2.421,16.045,7.25,21.294c4.835,5.262,11.359,7.894,19.565,7.894
						c7.352,0,13.17-2.37,17.456-7.11C1474.429,44.163,1476.572,37.73,1476.572,29.596 M1467.586,32.237
						c-0.061,4.906-1.438,8.823-4.13,11.749c-2.686,2.937-6.239,4.408-10.667,4.408c-5.012,0-9.02-1.417-12.031-4.252
						c-3.011-2.835-4.747-6.823-5.202-11.97L1467.586,32.237z"/>
				</g>
			</g>
		</g>
	</g>
</g>
</svg>
