<?xml version="1.0" encoding="utf-8"?>
<!-- Generator: Adobe Illustrator 16.0.0, SVG Export Plug-In . SVG Version: 6.00 Build 0)  -->
<!DOCTYPE svg PUBLIC "-//W3C//DTD SVG 1.1//EN" "http://www.w3.org/Graphics/SVG/1.1/DTD/svg11.dtd">
<svg version="1.1" id="Layer_1" xmlns="http://www.w3.org/2000/svg" xmlns:xlink="http://www.w3.org/1999/xlink" x="0px" y="0px"
	 width="586px" height="442px" viewBox="0 0 586 442" enable-background="new 0 0 586 442" xml:space="preserve">
<g id="figure_1">
	<g id="patch_1">
		<path fill="#FFFFFF" d="M0,442.8h586.8V0H0V442.8z"/>
	</g>
	<g id="axes_1">
		<g id="patch_2">
			<path fill="#FFFFFF" d="M73.35,398.52h454.77V44.28H73.35V398.52z"/>
		</g>
		<g id="patch_3">
			<g>
				<defs>
					<rect id="SVGID_1_" x="73.35" y="44.28" width="454.77" height="354.239"/>
				</defs>
				<clipPath id="SVGID_2_">
					<use xlink:href="#SVGID_1_"  overflow="visible"/>
				</clipPath>
				
					<path opacity="0.5" clip-path="url(#SVGID_2_)" fill="#FF0000" stroke="#000000" stroke-linecap="square" stroke-linejoin="round" enable-background="new    " d="
					M87.979,398.52h8.803v-25.303h-8.803V398.52z"/>
			</g>
		</g>
		<g id="patch_4">
			<g>
				<defs>
					<rect id="SVGID_3_" x="73.35" y="44.28" width="454.77" height="354.239"/>
				</defs>
				<clipPath id="SVGID_4_">
					<use xlink:href="#SVGID_3_"  overflow="visible"/>
				</clipPath>
				
					<path opacity="0.5" clip-path="url(#SVGID_4_)" fill="#FF0000" stroke="#000000" stroke-linecap="square" stroke-linejoin="round" enable-background="new    " d="
					M96.781,398.52h8.803l0,0H96.781z"/>
			</g>
		</g>
		<g id="patch_5">
			<g>
				<defs>
					<rect id="SVGID_5_" x="73.35" y="44.28" width="454.77" height="354.239"/>
				</defs>
				<clipPath id="SVGID_6_">
					<use xlink:href="#SVGID_5_"  overflow="visible"/>
				</clipPath>
				
					<path opacity="0.5" clip-path="url(#SVGID_6_)" fill="#FF0000" stroke="#000000" stroke-linecap="square" stroke-linejoin="round" enable-background="new    " d="
					M105.584,398.52h8.803l0,0H105.584z"/>
			</g>
		</g>
		<g id="patch_6">
			<g>
				<defs>
					<rect id="SVGID_7_" x="73.35" y="44.28" width="454.77" height="354.239"/>
				</defs>
				<clipPath id="SVGID_8_">
					<use xlink:href="#SVGID_7_"  overflow="visible"/>
				</clipPath>
				
					<path opacity="0.5" clip-path="url(#SVGID_8_)" fill="#FF0000" stroke="#000000" stroke-linecap="square" stroke-linejoin="round" enable-background="new    " d="
					M114.387,398.52h8.803l0,0H114.387z"/>
			</g>
		</g>
		<g id="patch_7">
			<g>
				<defs>
					<rect id="SVGID_9_" x="73.35" y="44.28" width="454.77" height="354.239"/>
				</defs>
				<clipPath id="SVGID_10_">
					<use xlink:href="#SVGID_9_"  overflow="visible"/>
				</clipPath>
				
					<path opacity="0.5" clip-path="url(#SVGID_10_)" fill="#FF0000" stroke="#000000" stroke-linecap="square" stroke-linejoin="round" enable-background="new    " d="
					M123.19,398.52h8.803l0,0H123.19z"/>
			</g>
		</g>
		<g id="patch_8">
			<g>
				<defs>
					<rect id="SVGID_11_" x="73.35" y="44.28" width="454.77" height="354.239"/>
				</defs>
				<clipPath id="SVGID_12_">
					<use xlink:href="#SVGID_11_"  overflow="visible"/>
				</clipPath>
				
					<path opacity="0.5" clip-path="url(#SVGID_12_)" fill="#FF0000" stroke="#000000" stroke-linecap="square" stroke-linejoin="round" enable-background="new    " d="
					M131.993,398.52h8.802l0,0H131.993z"/>
			</g>
		</g>
		<g id="patch_9">
			<g>
				<defs>
					<rect id="SVGID_13_" x="73.35" y="44.28" width="454.77" height="354.239"/>
				</defs>
				<clipPath id="SVGID_14_">
					<use xlink:href="#SVGID_13_"  overflow="visible"/>
				</clipPath>
				
					<path opacity="0.5" clip-path="url(#SVGID_14_)" fill="#FF0000" stroke="#000000" stroke-linecap="square" stroke-linejoin="round" enable-background="new    " d="
					M140.795,398.52h8.803l0,0H140.795z"/>
			</g>
		</g>
		<g id="patch_10">
			<g>
				<defs>
					<rect id="SVGID_15_" x="73.35" y="44.28" width="454.77" height="354.239"/>
				</defs>
				<clipPath id="SVGID_16_">
					<use xlink:href="#SVGID_15_"  overflow="visible"/>
				</clipPath>
				
					<path opacity="0.5" clip-path="url(#SVGID_16_)" fill="#FF0000" stroke="#000000" stroke-linecap="square" stroke-linejoin="round" enable-background="new    " d="
					M149.598,398.52h8.803l0,0H149.598z"/>
			</g>
		</g>
		<g id="patch_11">
			<g>
				<defs>
					<rect id="SVGID_17_" x="73.35" y="44.28" width="454.77" height="354.239"/>
				</defs>
				<clipPath id="SVGID_18_">
					<use xlink:href="#SVGID_17_"  overflow="visible"/>
				</clipPath>
				
					<path opacity="0.5" clip-path="url(#SVGID_18_)" fill="#FF0000" stroke="#000000" stroke-linecap="square" stroke-linejoin="round" enable-background="new    " d="
					M158.401,398.52h8.803l0,0H158.401z"/>
			</g>
		</g>
		<g id="patch_12">
			<g>
				<defs>
					<rect id="SVGID_19_" x="73.35" y="44.28" width="454.77" height="354.239"/>
				</defs>
				<clipPath id="SVGID_20_">
					<use xlink:href="#SVGID_19_"  overflow="visible"/>
				</clipPath>
				
					<path opacity="0.5" clip-path="url(#SVGID_20_)" fill="#FF0000" stroke="#000000" stroke-linecap="square" stroke-linejoin="round" enable-background="new    " d="
					M167.204,398.52h8.803l0,0H167.204z"/>
			</g>
		</g>
		<g id="patch_13">
			<g>
				<defs>
					<rect id="SVGID_21_" x="73.35" y="44.28" width="454.77" height="354.239"/>
				</defs>
				<clipPath id="SVGID_22_">
					<use xlink:href="#SVGID_21_"  overflow="visible"/>
				</clipPath>
				
					<path opacity="0.5" clip-path="url(#SVGID_22_)" fill="#FF0000" stroke="#000000" stroke-linecap="square" stroke-linejoin="round" enable-background="new    " d="
					M176.007,398.52h8.803l0,0H176.007z"/>
			</g>
		</g>
		<g id="patch_14">
			<g>
				<defs>
					<rect id="SVGID_23_" x="73.35" y="44.28" width="454.77" height="354.239"/>
				</defs>
				<clipPath id="SVGID_24_">
					<use xlink:href="#SVGID_23_"  overflow="visible"/>
				</clipPath>
				
					<path opacity="0.5" clip-path="url(#SVGID_24_)" fill="#FF0000" stroke="#000000" stroke-linecap="square" stroke-linejoin="round" enable-background="new    " d="
					M184.81,398.52h8.802l0,0H184.81z"/>
			</g>
		</g>
		<g id="patch_15">
			<g>
				<defs>
					<rect id="SVGID_25_" x="73.35" y="44.28" width="454.77" height="354.239"/>
				</defs>
				<clipPath id="SVGID_26_">
					<use xlink:href="#SVGID_25_"  overflow="visible"/>
				</clipPath>
				
					<path opacity="0.5" clip-path="url(#SVGID_26_)" fill="#FF0000" stroke="#000000" stroke-linecap="square" stroke-linejoin="round" enable-background="new    " d="
					M193.612,398.52h8.803l0,0H193.612z"/>
			</g>
		</g>
		<g id="patch_16">
			<g>
				<defs>
					<rect id="SVGID_27_" x="73.35" y="44.28" width="454.77" height="354.239"/>
				</defs>
				<clipPath id="SVGID_28_">
					<use xlink:href="#SVGID_27_"  overflow="visible"/>
				</clipPath>
				
					<path opacity="0.5" clip-path="url(#SVGID_28_)" fill="#FF0000" stroke="#000000" stroke-linecap="square" stroke-linejoin="round" enable-background="new    " d="
					M202.415,398.52h8.803v-25.303h-8.803V398.52z"/>
			</g>
		</g>
		<g id="patch_17">
			<g>
				<defs>
					<rect id="SVGID_29_" x="73.35" y="44.28" width="454.77" height="354.239"/>
				</defs>
				<clipPath id="SVGID_30_">
					<use xlink:href="#SVGID_29_"  overflow="visible"/>
				</clipPath>
				
					<path opacity="0.5" clip-path="url(#SVGID_30_)" fill="#FF0000" stroke="#000000" stroke-linecap="square" stroke-linejoin="round" enable-background="new    " d="
					M211.218,398.52h8.803l0,0H211.218z"/>
			</g>
		</g>
		<g id="patch_18">
			<g>
				<defs>
					<rect id="SVGID_31_" x="73.35" y="44.28" width="454.77" height="354.239"/>
				</defs>
				<clipPath id="SVGID_32_">
					<use xlink:href="#SVGID_31_"  overflow="visible"/>
				</clipPath>
				
					<path opacity="0.5" clip-path="url(#SVGID_32_)" fill="#FF0000" stroke="#000000" stroke-linecap="square" stroke-linejoin="round" enable-background="new    " d="
					M220.021,398.52h8.803l0,0H220.021z"/>
			</g>
		</g>
		<g id="patch_19">
			<g>
				<defs>
					<rect id="SVGID_33_" x="73.35" y="44.28" width="454.77" height="354.239"/>
				</defs>
				<clipPath id="SVGID_34_">
					<use xlink:href="#SVGID_33_"  overflow="visible"/>
				</clipPath>
				
					<path opacity="0.5" clip-path="url(#SVGID_34_)" fill="#FF0000" stroke="#000000" stroke-linecap="square" stroke-linejoin="round" enable-background="new    " d="
					M228.824,398.52h8.803l0,0H228.824z"/>
			</g>
		</g>
		<g id="patch_20">
			<g>
				<defs>
					<rect id="SVGID_35_" x="73.35" y="44.28" width="454.77" height="354.239"/>
				</defs>
				<clipPath id="SVGID_36_">
					<use xlink:href="#SVGID_35_"  overflow="visible"/>
				</clipPath>
				
					<path opacity="0.5" clip-path="url(#SVGID_36_)" fill="#FF0000" stroke="#000000" stroke-linecap="square" stroke-linejoin="round" enable-background="new    " d="
					M237.627,398.52h8.802l0,0H237.627z"/>
			</g>
		</g>
		<g id="patch_21">
			<g>
				<defs>
					<rect id="SVGID_37_" x="73.35" y="44.28" width="454.77" height="354.239"/>
				</defs>
				<clipPath id="SVGID_38_">
					<use xlink:href="#SVGID_37_"  overflow="visible"/>
				</clipPath>
				
					<path opacity="0.5" clip-path="url(#SVGID_38_)" fill="#FF0000" stroke="#000000" stroke-linecap="square" stroke-linejoin="round" enable-background="new    " d="
					M246.429,398.52h8.803v-25.303h-8.803V398.52z"/>
			</g>
		</g>
		<g id="patch_22">
			<g>
				<defs>
					<rect id="SVGID_39_" x="73.35" y="44.28" width="454.77" height="354.239"/>
				</defs>
				<clipPath id="SVGID_40_">
					<use xlink:href="#SVGID_39_"  overflow="visible"/>
				</clipPath>
				
					<path opacity="0.5" clip-path="url(#SVGID_40_)" fill="#FF0000" stroke="#000000" stroke-linecap="square" stroke-linejoin="round" enable-background="new    " d="
					M255.232,398.52h8.803l0,0H255.232z"/>
			</g>
		</g>
		<g id="patch_23">
			<g>
				<defs>
					<rect id="SVGID_41_" x="73.35" y="44.28" width="454.77" height="354.239"/>
				</defs>
				<clipPath id="SVGID_42_">
					<use xlink:href="#SVGID_41_"  overflow="visible"/>
				</clipPath>
				
					<path opacity="0.5" clip-path="url(#SVGID_42_)" fill="#FF0000" stroke="#000000" stroke-linecap="square" stroke-linejoin="round" enable-background="new    " d="
					M264.035,398.52h8.803v-25.303h-8.803V398.52z"/>
			</g>
		</g>
		<g id="patch_24">
			<g>
				<defs>
					<rect id="SVGID_43_" x="73.35" y="44.28" width="454.77" height="354.239"/>
				</defs>
				<clipPath id="SVGID_44_">
					<use xlink:href="#SVGID_43_"  overflow="visible"/>
				</clipPath>
				
					<path opacity="0.5" clip-path="url(#SVGID_44_)" fill="#FF0000" stroke="#000000" stroke-linecap="square" stroke-linejoin="round" enable-background="new    " d="
					M272.838,398.52h8.803l0,0H272.838z"/>
			</g>
		</g>
		<g id="patch_25">
			<g>
				<defs>
					<rect id="SVGID_45_" x="73.35" y="44.28" width="454.77" height="354.239"/>
				</defs>
				<clipPath id="SVGID_46_">
					<use xlink:href="#SVGID_45_"  overflow="visible"/>
				</clipPath>
				
					<path opacity="0.5" clip-path="url(#SVGID_46_)" fill="#FF0000" stroke="#000000" stroke-linecap="square" stroke-linejoin="round" enable-background="new    " d="
					M281.641,398.52h8.803l0,0H281.641z"/>
			</g>
		</g>
		<g id="patch_26">
			<g>
				<defs>
					<rect id="SVGID_47_" x="73.35" y="44.28" width="454.77" height="354.239"/>
				</defs>
				<clipPath id="SVGID_48_">
					<use xlink:href="#SVGID_47_"  overflow="visible"/>
				</clipPath>
				
					<path opacity="0.5" clip-path="url(#SVGID_48_)" fill="#FF0000" stroke="#000000" stroke-linecap="square" stroke-linejoin="round" enable-background="new    " d="
					M290.444,398.52h8.802l0,0H290.444z"/>
			</g>
		</g>
		<g id="patch_27">
			<g>
				<defs>
					<rect id="SVGID_49_" x="73.35" y="44.28" width="454.77" height="354.239"/>
				</defs>
				<clipPath id="SVGID_50_">
					<use xlink:href="#SVGID_49_"  overflow="visible"/>
				</clipPath>
				
					<path opacity="0.5" clip-path="url(#SVGID_50_)" fill="#FF0000" stroke="#000000" stroke-linecap="square" stroke-linejoin="round" enable-background="new    " d="
					M299.246,398.52h8.803l0,0H299.246z"/>
			</g>
		</g>
		<g id="patch_28">
			<g>
				<defs>
					<rect id="SVGID_51_" x="73.35" y="44.28" width="454.77" height="354.239"/>
				</defs>
				<clipPath id="SVGID_52_">
					<use xlink:href="#SVGID_51_"  overflow="visible"/>
				</clipPath>
				
					<path opacity="0.5" clip-path="url(#SVGID_52_)" fill="#FF0000" stroke="#000000" stroke-linecap="square" stroke-linejoin="round" enable-background="new    " d="
					M308.049,398.52h8.803v-25.303h-8.803V398.52z"/>
			</g>
		</g>
		<g id="patch_29">
			<g>
				<defs>
					<rect id="SVGID_53_" x="73.35" y="44.28" width="454.77" height="354.239"/>
				</defs>
				<clipPath id="SVGID_54_">
					<use xlink:href="#SVGID_53_"  overflow="visible"/>
				</clipPath>
				
					<path opacity="0.5" clip-path="url(#SVGID_54_)" fill="#FF0000" stroke="#000000" stroke-linecap="square" stroke-linejoin="round" enable-background="new    " d="
					M316.852,398.52h8.804l0,0H316.852z"/>
			</g>
		</g>
		<g id="patch_30">
			<g>
				<defs>
					<rect id="SVGID_55_" x="73.35" y="44.28" width="454.77" height="354.239"/>
				</defs>
				<clipPath id="SVGID_56_">
					<use xlink:href="#SVGID_55_"  overflow="visible"/>
				</clipPath>
				
					<path opacity="0.5" clip-path="url(#SVGID_56_)" fill="#FF0000" stroke="#000000" stroke-linecap="square" stroke-linejoin="round" enable-background="new    " d="
					M325.655,398.52h8.803l0,0H325.655z"/>
			</g>
		</g>
		<g id="patch_31">
			<g>
				<defs>
					<rect id="SVGID_57_" x="73.35" y="44.28" width="454.77" height="354.239"/>
				</defs>
				<clipPath id="SVGID_58_">
					<use xlink:href="#SVGID_57_"  overflow="visible"/>
				</clipPath>
				
					<path opacity="0.5" clip-path="url(#SVGID_58_)" fill="#FF0000" stroke="#000000" stroke-linecap="square" stroke-linejoin="round" enable-background="new    " d="
					M334.458,398.52h8.803l0,0H334.458z"/>
			</g>
		</g>
		<g id="patch_32">
			<g>
				<defs>
					<rect id="SVGID_59_" x="73.35" y="44.28" width="454.77" height="354.239"/>
				</defs>
				<clipPath id="SVGID_60_">
					<use xlink:href="#SVGID_59_"  overflow="visible"/>
				</clipPath>
				
					<path opacity="0.5" clip-path="url(#SVGID_60_)" fill="#FF0000" stroke="#000000" stroke-linecap="square" stroke-linejoin="round" enable-background="new    " d="
					M343.261,398.52h8.802l0,0H343.261z"/>
			</g>
		</g>
		<g id="patch_33">
			<g>
				<defs>
					<rect id="SVGID_61_" x="73.35" y="44.28" width="454.77" height="354.239"/>
				</defs>
				<clipPath id="SVGID_62_">
					<use xlink:href="#SVGID_61_"  overflow="visible"/>
				</clipPath>
				
					<path opacity="0.5" clip-path="url(#SVGID_62_)" fill="#FF0000" stroke="#000000" stroke-linecap="square" stroke-linejoin="round" enable-background="new    " d="
					M352.063,398.52h8.804l0,0H352.063z"/>
			</g>
		</g>
		<g id="patch_34">
			<g>
				<defs>
					<rect id="SVGID_63_" x="73.35" y="44.28" width="454.77" height="354.239"/>
				</defs>
				<clipPath id="SVGID_64_">
					<use xlink:href="#SVGID_63_"  overflow="visible"/>
				</clipPath>
				
					<path opacity="0.5" clip-path="url(#SVGID_64_)" fill="#FF0000" stroke="#000000" stroke-linecap="square" stroke-linejoin="round" enable-background="new    " d="
					M360.866,398.52h8.803l0,0H360.866z"/>
			</g>
		</g>
		<g id="patch_35">
			<g>
				<defs>
					<rect id="SVGID_65_" x="73.35" y="44.28" width="454.77" height="354.239"/>
				</defs>
				<clipPath id="SVGID_66_">
					<use xlink:href="#SVGID_65_"  overflow="visible"/>
				</clipPath>
				
					<path opacity="0.5" clip-path="url(#SVGID_66_)" fill="#FF0000" stroke="#000000" stroke-linecap="square" stroke-linejoin="round" enable-background="new    " d="
					M369.669,398.52h8.804l0,0H369.669z"/>
			</g>
		</g>
		<g id="patch_36">
			<g>
				<defs>
					<rect id="SVGID_67_" x="73.35" y="44.28" width="454.77" height="354.239"/>
				</defs>
				<clipPath id="SVGID_68_">
					<use xlink:href="#SVGID_67_"  overflow="visible"/>
				</clipPath>
				
					<path opacity="0.5" clip-path="url(#SVGID_68_)" fill="#FF0000" stroke="#000000" stroke-linecap="square" stroke-linejoin="round" enable-background="new    " d="
					M378.473,398.52h8.803l0,0H378.473z"/>
			</g>
		</g>
		<g id="patch_37">
			<g>
				<defs>
					<rect id="SVGID_69_" x="73.35" y="44.28" width="454.77" height="354.239"/>
				</defs>
				<clipPath id="SVGID_70_">
					<use xlink:href="#SVGID_69_"  overflow="visible"/>
				</clipPath>
				
					<path opacity="0.5" clip-path="url(#SVGID_70_)" fill="#FF0000" stroke="#000000" stroke-linecap="square" stroke-linejoin="round" enable-background="new    " d="
					M387.275,398.52h8.803v-25.303h-8.803V398.52z"/>
			</g>
		</g>
		<g id="patch_38">
			<g>
				<defs>
					<rect id="SVGID_71_" x="73.35" y="44.28" width="454.77" height="354.239"/>
				</defs>
				<clipPath id="SVGID_72_">
					<use xlink:href="#SVGID_71_"  overflow="visible"/>
				</clipPath>
				
					<path opacity="0.5" clip-path="url(#SVGID_72_)" fill="#FF0000" stroke="#000000" stroke-linecap="square" stroke-linejoin="round" enable-background="new    " d="
					M396.078,398.52h8.802l0,0H396.078z"/>
			</g>
		</g>
		<g id="patch_39">
			<g>
				<defs>
					<rect id="SVGID_73_" x="73.35" y="44.28" width="454.77" height="354.239"/>
				</defs>
				<clipPath id="SVGID_74_">
					<use xlink:href="#SVGID_73_"  overflow="visible"/>
				</clipPath>
				
					<path opacity="0.5" clip-path="url(#SVGID_74_)" fill="#FF0000" stroke="#000000" stroke-linecap="square" stroke-linejoin="round" enable-background="new    " d="
					M404.88,398.52h8.803v-25.303h-8.803V398.52z"/>
			</g>
		</g>
		<g id="patch_40">
			<g>
				<defs>
					<rect id="SVGID_75_" x="73.35" y="44.28" width="454.77" height="354.239"/>
				</defs>
				<clipPath id="SVGID_76_">
					<use xlink:href="#SVGID_75_"  overflow="visible"/>
				</clipPath>
				
					<path opacity="0.5" clip-path="url(#SVGID_76_)" fill="#FF0000" stroke="#000000" stroke-linecap="square" stroke-linejoin="round" enable-background="new    " d="
					M413.683,398.52h8.804v-25.303h-8.804V398.52z"/>
			</g>
		</g>
		<g id="patch_41">
			<g>
				<defs>
					<rect id="SVGID_77_" x="73.35" y="44.28" width="454.77" height="354.239"/>
				</defs>
				<clipPath id="SVGID_78_">
					<use xlink:href="#SVGID_77_"  overflow="visible"/>
				</clipPath>
				
					<path opacity="0.5" clip-path="url(#SVGID_78_)" fill="#FF0000" stroke="#000000" stroke-linecap="square" stroke-linejoin="round" enable-background="new    " d="
					M422.486,398.52h8.803l0,0H422.486z"/>
			</g>
		</g>
		<g id="patch_42">
			<g>
				<defs>
					<rect id="SVGID_79_" x="73.35" y="44.28" width="454.77" height="354.239"/>
				</defs>
				<clipPath id="SVGID_80_">
					<use xlink:href="#SVGID_79_"  overflow="visible"/>
				</clipPath>
				
					<path opacity="0.5" clip-path="url(#SVGID_80_)" fill="#FF0000" stroke="#000000" stroke-linecap="square" stroke-linejoin="round" enable-background="new    " d="
					M431.289,398.52h8.803l0,0H431.289z"/>
			</g>
		</g>
		<g id="patch_43">
			<g>
				<defs>
					<rect id="SVGID_81_" x="73.35" y="44.28" width="454.77" height="354.239"/>
				</defs>
				<clipPath id="SVGID_82_">
					<use xlink:href="#SVGID_81_"  overflow="visible"/>
				</clipPath>
				
					<path opacity="0.5" clip-path="url(#SVGID_82_)" fill="#FF0000" stroke="#000000" stroke-linecap="square" stroke-linejoin="round" enable-background="new    " d="
					M440.092,398.52h8.803v-25.303h-8.803V398.52z"/>
			</g>
		</g>
		<g id="patch_44">
			<g>
				<defs>
					<rect id="SVGID_83_" x="73.35" y="44.28" width="454.77" height="354.239"/>
				</defs>
				<clipPath id="SVGID_84_">
					<use xlink:href="#SVGID_83_"  overflow="visible"/>
				</clipPath>
				
					<path opacity="0.5" clip-path="url(#SVGID_84_)" fill="#FF0000" stroke="#000000" stroke-linecap="square" stroke-linejoin="round" enable-background="new    " d="
					M448.895,398.52h8.803v-25.303h-8.803V398.52z"/>
			</g>
		</g>
		<g id="patch_45">
			<g>
				<defs>
					<rect id="SVGID_85_" x="73.35" y="44.28" width="454.77" height="354.239"/>
				</defs>
				<clipPath id="SVGID_86_">
					<use xlink:href="#SVGID_85_"  overflow="visible"/>
				</clipPath>
				
					<path opacity="0.5" clip-path="url(#SVGID_86_)" fill="#FF0000" stroke="#000000" stroke-linecap="square" stroke-linejoin="round" enable-background="new    " d="
					M457.697,398.52h8.803l0,0H457.697z"/>
			</g>
		</g>
		<g id="patch_46">
			<g>
				<defs>
					<rect id="SVGID_87_" x="73.35" y="44.28" width="454.77" height="354.239"/>
				</defs>
				<clipPath id="SVGID_88_">
					<use xlink:href="#SVGID_87_"  overflow="visible"/>
				</clipPath>
				
					<path opacity="0.5" clip-path="url(#SVGID_88_)" fill="#FF0000" stroke="#000000" stroke-linecap="square" stroke-linejoin="round" enable-background="new    " d="
					M466.5,398.52h8.803l0,0H466.5z"/>
			</g>
		</g>
		<g id="patch_47">
			<g>
				<defs>
					<rect id="SVGID_89_" x="73.35" y="44.28" width="454.77" height="354.239"/>
				</defs>
				<clipPath id="SVGID_90_">
					<use xlink:href="#SVGID_89_"  overflow="visible"/>
				</clipPath>
				
					<path opacity="0.5" clip-path="url(#SVGID_90_)" fill="#FF0000" stroke="#000000" stroke-linecap="square" stroke-linejoin="round" enable-background="new    " d="
					M475.303,398.52h8.803v-25.303h-8.803V398.52z"/>
			</g>
		</g>
		<g id="patch_48">
			<g>
				<defs>
					<rect id="SVGID_91_" x="73.35" y="44.28" width="454.77" height="354.239"/>
				</defs>
				<clipPath id="SVGID_92_">
					<use xlink:href="#SVGID_91_"  overflow="visible"/>
				</clipPath>
				
					<path opacity="0.5" clip-path="url(#SVGID_92_)" fill="#FF0000" stroke="#000000" stroke-linecap="square" stroke-linejoin="round" enable-background="new    " d="
					M484.105,398.52h8.804l0,0H484.105z"/>
			</g>
		</g>
		<g id="patch_49">
			<g>
				<defs>
					<rect id="SVGID_93_" x="73.35" y="44.28" width="454.77" height="354.239"/>
				</defs>
				<clipPath id="SVGID_94_">
					<use xlink:href="#SVGID_93_"  overflow="visible"/>
				</clipPath>
				
					<path opacity="0.5" clip-path="url(#SVGID_94_)" fill="#FF0000" stroke="#000000" stroke-linecap="square" stroke-linejoin="round" enable-background="new    " d="
					M492.909,398.52h8.803l0,0H492.909z"/>
			</g>
		</g>
		<g id="patch_50">
			<g>
				<defs>
					<rect id="SVGID_95_" x="73.35" y="44.28" width="454.77" height="354.239"/>
				</defs>
				<clipPath id="SVGID_96_">
					<use xlink:href="#SVGID_95_"  overflow="visible"/>
				</clipPath>
				
					<path opacity="0.5" clip-path="url(#SVGID_96_)" fill="#FF0000" stroke="#000000" stroke-linecap="square" stroke-linejoin="round" enable-background="new    " d="
					M501.712,398.52h8.802v-50.605h-8.802V398.52z"/>
			</g>
		</g>
		<g id="patch_51">
			<g>
				<defs>
					<rect id="SVGID_97_" x="73.35" y="44.28" width="454.77" height="354.239"/>
				</defs>
				<clipPath id="SVGID_98_">
					<use xlink:href="#SVGID_97_"  overflow="visible"/>
				</clipPath>
				
					<path opacity="0.5" clip-path="url(#SVGID_98_)" fill="#FF0000" stroke="#000000" stroke-linecap="square" stroke-linejoin="round" enable-background="new    " d="
					M510.514,398.52h8.804v-75.908h-8.804V398.52z"/>
			</g>
		</g>
		<g id="patch_52">
			<g>
				<defs>
					<rect id="SVGID_99_" x="73.35" y="44.28" width="454.77" height="354.239"/>
				</defs>
				<clipPath id="SVGID_100_">
					<use xlink:href="#SVGID_99_"  overflow="visible"/>
				</clipPath>
				
					<path opacity="0.5" clip-path="url(#SVGID_100_)" fill="#FF0000" stroke="#000000" stroke-linecap="square" stroke-linejoin="round" enable-background="new    " d="
					M519.317,398.52h8.803V44.28h-8.803V398.52z"/>
			</g>
		</g>
		<g id="matplotlib.axis_1">
			<g id="xtick_1">
				<g id="line2d_1">
					<g>
						<g>
							<path id="mcb557df647" stroke="#000000" stroke-width="0.5" stroke-linejoin="round" d="M73.35,398.52v-4"/>
						</g>
					</g>
				</g>
				<g id="line2d_2">
					<g>
						<g>
							<path id="mdad270ee8e" stroke="#000000" stroke-width="0.5" stroke-linejoin="round" d="M73.35,44.28v4"/>
						</g>
					</g>
				</g>
				<g id="text_1">
					<g transform="translate(64.6846875 411.42625)scale(0.12 -0.12)">
						<g>
							<path id="BitstreamVeraSans-Roman-30" d="M31.782,66.41c-5.074,0-8.891-2.506-11.455-7.503
								c-2.551-4.989-3.829-12.5-3.829-22.534c0-9.985,1.277-17.48,3.829-22.485c2.563-4.997,6.38-7.495,11.455-7.495
								c5.115,0,8.948,2.498,11.499,7.495c2.563,5.005,3.845,12.5,3.845,22.485c0,10.034-1.282,17.546-3.845,22.534
								C40.73,63.904,36.897,66.41,31.782,66.41 M31.782,74.222c8.174,0,14.42-3.239,18.733-9.708
								c4.313-6.454,6.47-15.837,6.47-28.141c0-12.272-2.156-21.639-6.47-28.109C46.203,1.81,39.957-1.42,31.782-1.42
								c-8.167,0-14.409,3.231-18.722,9.684C8.751,14.734,6.595,24.1,6.595,36.373c0,12.305,2.157,21.688,6.466,28.141
								C17.374,70.984,23.616,74.222,31.782,74.222"/>
						</g>
						<g>
							<path id="BitstreamVeraSans-Roman-2e" d="M74.312,12.406h10.311V0.004H74.312V12.406z"/>
						</g>
						<g>
							<path id="BitstreamVeraSans-Roman-33" d="M135.989,39.31c4.716-1.009,8.398-3.109,11.047-6.307
								c2.653-3.19,3.984-7.129,3.984-11.816c0-7.186-2.474-12.752-7.422-16.699c-4.948-3.939-11.979-5.908-21.094-5.908
								c-3.052,0-6.197,0.301-9.436,0.903c-3.243,0.602-6.584,1.514-10.034,2.718v9.521c2.73-1.595,5.721-2.799,8.968-3.613
								c3.264-0.814,6.669-1.221,10.222-1.221c6.177,0,10.884,1.221,14.124,3.662c3.239,2.433,4.858,5.981,4.858,10.636
								c0,4.305-1.506,7.658-4.513,10.075c-3.011,2.433-7.198,3.646-12.565,3.646h-8.5v8.105h8.891
								c4.846,0,8.553,0.969,11.125,2.905c2.576,1.937,3.861,4.736,3.861,8.382c0,3.735-1.331,6.608-3.983,8.602
								c-2.649,2.01-6.445,3.019-11.393,3.019c-2.706,0-5.607-0.293-8.704-0.887c-3.093-0.586-6.494-1.489-10.201-2.726v8.789
								c3.748,1.042,7.259,1.823,10.531,2.344c3.271,0.521,6.355,0.781,9.249,0.781c7.491,0,13.412-1.709,17.766-5.111
								c4.366-3.402,6.547-7.991,6.547-13.786c0-4.036-1.156-7.454-3.467-10.229C143.538,42.313,140.25,40.385,135.989,39.31"/>
						</g>
					</g>
				</g>
			</g>
			<g id="xtick_2">
				<g id="line2d_3">
					<g>
						<g>
							<path id="mcb557df647_1_" stroke="#000000" stroke-width="0.5" stroke-linejoin="round" d="M138.317,398.52v-4"/>
						</g>
					</g>
				</g>
				<g id="line2d_4">
					<g>
						<g>
							<path id="mdad270ee8e_1_" stroke="#000000" stroke-width="0.5" stroke-linejoin="round" d="M138.317,44.28v4"/>
						</g>
					</g>
				</g>
				<g id="text_2">
					<g transform="translate(129.507455357 411.42625)scale(0.12 -0.12)">
						<g>
							<path id="BitstreamVeraSans-Roman-30_1_" d="M31.783,66.41c-5.074,0-8.891-2.506-11.455-7.503
								c-2.551-4.989-3.829-12.5-3.829-22.534c0-9.985,1.277-17.48,3.829-22.485c2.563-4.997,6.38-7.495,11.455-7.495
								c5.115,0,8.948,2.498,11.499,7.495c2.563,5.005,3.845,12.5,3.845,22.485c0,10.034-1.282,17.546-3.845,22.534
								C40.73,63.904,36.897,66.41,31.783,66.41 M31.783,74.222c8.174,0,14.42-3.239,18.733-9.708
								c4.313-6.454,6.47-15.837,6.47-28.141c0-12.272-2.156-21.639-6.47-28.109C46.203,1.81,39.957-1.42,31.783-1.42
								c-8.167,0-14.409,3.231-18.718,9.684c-4.313,6.47-6.47,15.836-6.47,28.109c0,12.305,2.157,21.688,6.47,28.141
								C17.374,70.984,23.616,74.222,31.783,74.222"/>
						</g>
						<g>
							<path id="BitstreamVeraSans-Roman-2e_1_" d="M74.312,12.406h10.311V0.004H74.312V12.406z"/>
						</g>
						<g>
							<path id="BitstreamVeraSans-Roman-34" d="M133.207,64.31L108.3,25.394h24.906V64.31z M130.615,72.904h12.406v-47.51h10.405
								v-8.203h-10.405V0.004h-9.814v17.188h-32.906v9.513L130.615,72.904z"/>
						</g>
					</g>
				</g>
			</g>
			<g id="xtick_3">
				<g id="line2d_5">
					<g>
						<g>
							<path id="mcb557df647_2_" stroke="#000000" stroke-width="0.5" stroke-linejoin="round" d="M203.284,398.52v-4"/>
						</g>
					</g>
				</g>
				<g id="line2d_6">
					<g>
						<g>
							<path id="mdad270ee8e_2_" stroke="#000000" stroke-width="0.5" stroke-linejoin="round" d="M203.284,44.28v4"/>
						</g>
					</g>
				</g>
				<g id="text_3">
					<g transform="translate(194.662098214 411.42625)scale(0.12 -0.12)">
						<g>
							<path id="BitstreamVeraSans-Roman-30_2_" d="M31.78,66.41c-5.07,0-8.887-2.506-11.45-7.503
								c-2.551-4.989-3.829-12.5-3.829-22.534c0-9.985,1.277-17.48,3.829-22.485c2.563-4.997,6.38-7.495,11.45-7.495
								c5.119,0,8.952,2.498,11.503,7.495c2.559,5.005,3.845,12.5,3.845,22.485c0,10.034-1.286,17.546-3.845,22.534
								C40.732,63.904,36.899,66.41,31.78,66.41 M31.78,74.222c8.179,0,14.425-3.239,18.738-9.708
								c4.309-6.454,6.466-15.837,6.466-28.141c0-12.272-2.157-21.639-6.466-28.109C46.205,1.81,39.958-1.42,31.78-1.42
								c-8.162,0-14.404,3.231-18.717,9.684c-4.313,6.47-6.47,15.836-6.47,28.109c0,12.305,2.157,21.688,6.47,28.141
								C17.375,70.984,23.618,74.222,31.78,74.222"/>
						</g>
						<g>
							<path id="BitstreamVeraSans-Roman-2e_2_" d="M74.309,12.406h10.315V0.004H74.309V12.406z"/>
						</g>
						<g>
							<path id="BitstreamVeraSans-Roman-35" d="M106.21,72.904h38.716v-8.309h-29.688V46.732c1.428,0.488,2.853,0.854,4.281,1.099
								c1.437,0.236,2.877,0.358,4.313,0.358c8.134,0,14.58-2.23,19.328-6.689c4.761-4.46,7.141-10.498,7.141-18.107
								c0-7.845-2.441-13.948-7.329-18.302c-4.887-4.338-11.771-6.51-20.658-6.51c-3.06,0-6.181,0.26-9.359,0.781
								c-3.166,0.521-6.441,1.302-9.827,2.344v9.92c2.926-1.595,5.953-2.783,9.078-3.564s6.429-1.172,9.904-1.172
								c5.64,0,10.095,1.481,13.379,4.443c3.288,2.954,4.936,6.974,4.936,12.061c0,5.07-1.648,9.09-4.936,12.044
								c-3.284,2.97-7.739,4.451-13.379,4.451c-2.632,0-5.265-0.293-7.89-0.871c-2.612-0.586-5.286-1.497-8.012-2.734V72.904z"/>
						</g>
					</g>
				</g>
			</g>
			<g id="xtick_4">
				<g id="line2d_7">
					<g>
						<g>
							<path id="mcb557df647_3_" stroke="#000000" stroke-width="0.5" stroke-linejoin="round" d="M268.252,398.52v-4"/>
						</g>
					</g>
				</g>
				<g id="line2d_8">
					<g>
						<g>
							<path id="mdad270ee8e_3_" stroke="#000000" stroke-width="0.5" stroke-linejoin="round" d="M268.252,44.28v4"/>
						</g>
					</g>
				</g>
				<g id="text_4">
					<g transform="translate(259.482991071 411.42625)scale(0.12 -0.12)">
						<g>
							<path id="BitstreamVeraSans-Roman-30_3_" d="M31.784,66.41c-5.074,0-8.891-2.506-11.455-7.503
								c-2.551-4.989-3.829-12.5-3.829-22.534c0-9.985,1.277-17.48,3.829-22.485c2.563-4.997,6.38-7.495,11.455-7.495
								c5.115,0,8.948,2.498,11.499,7.495c2.563,5.005,3.845,12.5,3.845,22.485c0,10.034-1.282,17.546-3.845,22.534
								C40.731,63.904,36.898,66.41,31.784,66.41 M31.784,74.222c8.174,0,14.42-3.239,18.733-9.708
								c4.313-6.454,6.47-15.837,6.47-28.141c0-12.272-2.156-21.639-6.47-28.109C46.204,1.81,39.958-1.42,31.784-1.42
								c-8.167,0-14.409,3.231-18.718,9.684c-4.313,6.47-6.47,15.836-6.47,28.109c0,12.305,2.157,21.688,6.47,28.141
								C17.375,70.984,23.617,74.222,31.784,74.222"/>
						</g>
						<g>
							<path id="BitstreamVeraSans-Roman-2e_3_" d="M74.313,12.406h10.311V0.004H74.313V12.406z"/>
						</g>
						<g>
							<path id="BitstreamVeraSans-Roman-36" d="M128.427,40.376c-4.427,0-7.939-1.514-10.531-4.549
								c-2.584-3.019-3.874-7.17-3.874-12.435c0-5.241,1.29-9.391,3.874-12.443c2.592-3.036,6.104-4.557,10.531-4.557
								c4.427,0,7.935,1.522,10.518,4.557c2.58,3.052,3.874,7.202,3.874,12.443c0,5.265-1.294,9.416-3.874,12.435
								C136.361,38.863,132.854,40.376,128.427,40.376 M148.007,71.293v-8.984c-2.482,1.172-4.98,2.059-7.5,2.677
								c-2.522,0.627-5.021,0.936-7.503,0.936c-6.511,0-11.483-2.197-14.921-6.592c-3.426-4.395-5.383-11.035-5.875-19.922
								c1.917,2.832,4.325,5.005,7.218,6.51c2.91,1.514,6.1,2.271,9.579,2.271c7.324,0,13.11-2.222,17.362-6.673
								c4.248-4.435,6.372-10.482,6.372-18.124c0-7.495-2.213-13.501-6.641-18.034c-4.427-4.517-10.319-6.779-17.671-6.779
								c-8.435,0-14.885,3.231-19.344,9.684c-4.456,6.47-6.686,15.836-6.686,28.109c0,11.523,2.734,20.711,8.203,27.563
								s12.805,10.286,22.014,10.286c2.482,0,4.98-0.252,7.503-0.74C142.636,72.994,145.264,72.269,148.007,71.293"/>
						</g>
					</g>
				</g>
			</g>
			<g id="xtick_5">
				<g id="line2d_9">
					<g>
						<g>
							<path id="mcb557df647_4_" stroke="#000000" stroke-width="0.5" stroke-linejoin="round" d="M333.219,398.52v-4"/>
						</g>
					</g>
				</g>
				<g id="line2d_10">
					<g>
						<g>
							<path id="mdad270ee8e_4_" stroke="#000000" stroke-width="0.5" stroke-linejoin="round" d="M333.219,44.28v4"/>
						</g>
					</g>
				</g>
				<g id="text_5">
					<g transform="translate(324.585133929 411.42625)scale(0.12 -0.12)">
						<g>
							<path id="BitstreamVeraSans-Roman-30_4_" d="M31.779,66.41c-5.07,0-8.887-2.506-11.45-7.503
								c-2.548-4.989-3.833-12.5-3.833-22.534c0-9.985,1.285-17.48,3.833-22.485c2.563-4.997,6.38-7.495,11.45-7.495
								c5.118,0,8.951,2.498,11.507,7.495c2.556,5.005,3.841,12.5,3.841,22.485c0,10.034-1.285,17.546-3.841,22.534
								C40.73,63.904,36.897,66.41,31.779,66.41 M31.779,74.222c8.179,0,14.42-3.239,18.733-9.708
								c4.313-6.454,6.478-15.837,6.478-28.141c0-12.272-2.164-21.639-6.478-28.109C46.199,1.81,39.958-1.42,31.779-1.42
								c-8.163,0-14.404,3.231-18.718,9.684C8.748,14.734,6.6,24.1,6.6,36.373c0,12.305,2.148,21.688,6.462,28.141
								C17.375,70.984,23.616,74.222,31.779,74.222"/>
						</g>
						<g>
							<path id="BitstreamVeraSans-Roman-2e_4_" d="M74.309,12.406h10.318V0.004H74.309V12.406z"/>
						</g>
						<g>
							<path id="BitstreamVeraSans-Roman-37" d="M103.613,72.904h46.875v-4.199L124.016,0.004h-10.287l24.902,64.592h-35.018V72.904
								z"/>
						</g>
					</g>
				</g>
			</g>
			<g id="xtick_6">
				<g id="line2d_11">
					<g>
						<g>
							<path id="mcb557df647_5_" stroke="#000000" stroke-width="0.5" stroke-linejoin="round" d="M398.186,398.52v-4"/>
						</g>
					</g>
				</g>
				<g id="line2d_12">
					<g>
						<g>
							<path id="mdad270ee8e_5_" stroke="#000000" stroke-width="0.5" stroke-linejoin="round" d="M398.186,44.28v4"/>
						</g>
					</g>
				</g>
				<g id="text_6">
					<g transform="translate(389.450089286 411.42625)scale(0.12 -0.12)">
						<g>
							<path id="BitstreamVeraSans-Roman-30_5_" d="M31.781,66.41c-5.069,0-8.887-2.506-11.45-7.503
								c-2.555-4.989-3.833-12.5-3.833-22.534c0-9.985,1.278-17.48,3.833-22.485c2.563-4.997,6.381-7.495,11.45-7.495
								c5.111,0,8.952,2.498,11.499,7.495c2.563,5.005,3.85,12.5,3.85,22.485c0,10.034-1.286,17.546-3.85,22.534
								C40.733,63.904,36.893,66.41,31.781,66.41 M31.781,74.222c8.179,0,14.421-3.239,18.734-9.708
								c4.313-6.454,6.47-15.837,6.47-28.141c0-12.272-2.157-21.639-6.47-28.109C46.202,1.81,39.96-1.42,31.781-1.42
								c-8.17,0-14.404,3.231-18.717,9.684c-4.313,6.47-6.47,15.836-6.47,28.109c0,12.305,2.156,21.688,6.47,28.141
								C17.377,70.984,23.611,74.222,31.781,74.222"/>
						</g>
						<g>
							<path id="BitstreamVeraSans-Roman-2e_5_" d="M74.311,12.406h10.312V0.004H74.311V12.406z"/>
						</g>
						<g>
							<path id="BitstreamVeraSans-Roman-38" d="M127.191,34.623c-4.688,0-8.374-1.253-11.06-3.76
								c-2.677-2.515-4.02-5.965-4.02-10.352c0-4.395,1.343-7.845,4.02-10.352c2.686-2.515,6.372-3.768,11.06-3.768
								s8.383,1.261,11.076,3.776c2.71,2.531,4.069,5.981,4.069,10.343c0,4.386-1.343,7.837-4.037,10.352
								C135.623,33.37,131.92,34.623,127.191,34.623 M117.337,38.814c-4.232,1.042-7.528,3.011-9.896,5.908
								c-2.352,2.905-3.531,6.437-3.531,10.604c0,5.827,2.075,10.433,6.226,13.818c4.15,3.385,9.839,5.078,17.057,5.078
								c7.26,0,12.956-1.693,17.099-5.078c4.134-3.385,6.201-7.991,6.201-13.818c0-4.167-1.181-7.698-3.549-10.604
								c-2.352-2.897-5.631-4.866-9.83-5.908c4.752-1.107,8.447-3.271,11.1-6.502c2.653-3.215,3.979-7.153,3.979-11.8
								c0-7.072-2.156-12.5-6.47-16.276c-4.313-3.776-10.489-5.656-18.53-5.656c-8.032,0-14.209,1.88-18.53,5.656
								c-4.313,3.776-6.47,9.204-6.47,16.276c0,4.647,1.335,8.586,4.004,11.8C108.873,35.542,112.584,37.707,117.337,38.814
								 M113.724,54.39c0-3.768,1.18-6.714,3.531-8.83c2.368-2.116,5.681-3.174,9.937-3.174c4.24,0,7.553,1.058,9.937,3.174
								c2.401,2.116,3.598,5.062,3.598,8.83c0,3.784-1.196,6.73-3.598,8.846c-2.384,2.116-5.696,3.174-9.937,3.174
								c-4.256,0-7.568-1.058-9.937-3.174C114.903,61.12,113.724,58.174,113.724,54.39"/>
						</g>
					</g>
				</g>
			</g>
			<g id="xtick_7">
				<g id="line2d_13">
					<g>
						<g>
							<path id="mcb557df647_6_" stroke="#000000" stroke-width="0.5" stroke-linejoin="round" d="M463.153,398.52v-4"/>
						</g>
					</g>
				</g>
				<g id="line2d_14">
					<g>
						<g>
							<path id="mdad270ee8e_6_" stroke="#000000" stroke-width="0.5" stroke-linejoin="round" d="M463.153,44.28v4"/>
						</g>
					</g>
				</g>
				<g id="text_7">
					<g transform="translate(454.428482143 411.42625)scale(0.12 -0.12)">
						<g>
							<path id="BitstreamVeraSans-Roman-30_6_" d="M31.783,66.41c-5.07,0-8.887-2.506-11.45-7.503
								c-2.556-4.989-3.833-12.5-3.833-22.534c0-9.985,1.277-17.48,3.833-22.485c2.563-4.997,6.38-7.495,11.45-7.495
								c5.11,0,8.951,2.498,11.499,7.495c2.563,5.005,3.849,12.5,3.849,22.485c0,10.034-1.285,17.546-3.849,22.534
								C40.734,63.904,36.894,66.41,31.783,66.41 M31.783,74.222c8.179,0,14.42-3.239,18.733-9.708
								c4.313-6.454,6.47-15.837,6.47-28.141c0-12.272-2.156-21.639-6.47-28.109C46.203,1.81,39.962-1.42,31.783-1.42
								c-8.171,0-14.404,3.231-18.718,9.684c-4.313,6.47-6.47,15.836-6.47,28.109c0,12.305,2.156,21.688,6.47,28.141
								C17.379,70.984,23.612,74.222,31.783,74.222"/>
						</g>
						<g>
							<path id="BitstreamVeraSans-Roman-2e_6_" d="M74.313,12.406h10.311V0.004H74.313V12.406z"/>
						</g>
						<g>
							<path id="BitstreamVeraSans-Roman-39" d="M106.393,1.517v8.984c2.481-1.18,4.988-2.075,7.52-2.686
								c2.539-0.618,5.037-0.928,7.486-0.928c6.511,0,11.475,2.189,14.901,6.567c3.442,4.37,5.403,11.027,5.892,19.946
								c-1.88-2.799-4.28-4.948-7.186-6.445c-2.897-1.505-6.096-2.254-9.611-2.254c-7.292,0-13.062,2.205-17.31,6.608
								c-4.248,4.419-6.38,10.457-6.38,18.107c0,7.487,2.213,13.485,6.641,18.001c4.427,4.533,10.318,6.803,17.676,6.803
								c8.438,0,14.876-3.239,19.312-9.708c4.451-6.454,6.673-15.837,6.673-28.141c0-11.491-2.727-20.662-8.187-27.515
								C138.375,2.006,131.042-1.42,121.838-1.42c-2.481,0-4.996,0.244-7.535,0.732C111.771-0.2,109.135,0.533,106.393,1.517
								 M126.021,32.426c4.427,0,7.935,1.506,10.514,4.525c2.597,3.035,3.891,7.194,3.891,12.467c0,5.241-1.294,9.383-3.891,12.427
								c-2.579,3.044-6.087,4.565-10.514,4.565c-4.428,0-7.935-1.522-10.515-4.565c-2.588-3.043-3.874-7.186-3.874-12.427
								c0-5.273,1.286-9.432,3.874-12.467C118.087,33.931,121.594,32.426,126.021,32.426"/>
						</g>
					</g>
				</g>
			</g>
			<g id="xtick_8">
				<g id="line2d_15">
					<g>
						<g>
							<path id="mcb557df647_7_" stroke="#000000" stroke-width="0.5" stroke-linejoin="round" d="M528.12,398.52v-4"/>
						</g>
					</g>
				</g>
				<g id="line2d_16">
					<g>
						<g>
							<path id="mdad270ee8e_7_" stroke="#000000" stroke-width="0.5" stroke-linejoin="round" d="M528.12,44.28v4"/>
						</g>
					</g>
				</g>
				<g id="text_8">
					<g transform="translate(519.635625 411.42625)scale(0.12 -0.12)">
						<g>
							<path id="BitstreamVeraSans-Roman-31" d="M12.405,8.296h16.113V63.92l-17.529-3.516v8.984l17.432,3.516h9.863V8.296H54.39
								V0.004H12.405V8.296z"/>
						</g>
						<g>
							<path id="BitstreamVeraSans-Roman-2e_7_" d="M74.312,12.406h10.311V0.004H74.312V12.406z"/>
						</g>
						<g>
							<path id="BitstreamVeraSans-Roman-30_7_" d="M127.192,66.41c-5.07,0-8.887-2.506-11.45-7.503
								c-2.556-4.989-3.833-12.5-3.833-22.534c0-9.985,1.277-17.48,3.833-22.485c2.563-4.997,6.38-7.495,11.45-7.495
								c5.119,0,8.952,2.498,11.499,7.495c2.563,5.005,3.85,12.5,3.85,22.485c0,10.034-1.286,17.546-3.85,22.534
								C136.145,63.904,132.312,66.41,127.192,66.41 M127.192,74.222c8.179,0,14.421-3.239,18.733-9.708
								c4.313-6.454,6.47-15.837,6.47-28.141c0-12.272-2.156-21.639-6.47-28.109c-4.313-6.454-10.555-9.684-18.733-9.684
								c-8.162,0-14.404,3.231-18.718,9.684c-4.313,6.47-6.47,15.836-6.47,28.109c0,12.305,2.157,21.688,6.47,28.141
								C112.788,70.984,119.03,74.222,127.192,74.222"/>
						</g>
					</g>
				</g>
			</g>
		</g>
		<g id="matplotlib.axis_2">
			<g id="ytick_1">
				<g id="line2d_17">
					<g>
						<g>
							<path id="mc8fcea1516" stroke="#000000" stroke-width="0.5" stroke-linejoin="round" d="M73.35,398.52h4"/>
						</g>
					</g>
				</g>
				<g id="line2d_18">
					<g>
						<g>
							<path id="m0d5b0a6425" stroke="#000000" stroke-width="0.5" stroke-linejoin="round" d="M528.12,398.52h-4"/>
						</g>
					</g>
				</g>
				<g id="text_9">
					<g transform="translate(63.303125 402.8878125)scale(0.12 -0.12)">
						<g>
							<path id="BitstreamVeraSans-Roman-30_8_" d="M31.783,66.407c-5.07,0-8.891-2.499-11.45-7.503
								c-2.555-4.989-3.829-12.5-3.829-22.526c0-9.994,1.273-17.489,3.829-22.485c2.56-5.005,6.38-7.503,11.45-7.503
								c5.115,0,8.948,2.499,11.503,7.503c2.559,4.997,3.841,12.492,3.841,22.485c0,10.026-1.282,17.537-3.841,22.526
								C40.73,63.909,36.897,66.407,31.783,66.407 M31.783,74.22c8.179,0,14.425-3.239,18.738-9.701
								c4.309-6.461,6.466-15.845,6.466-28.141c0-12.272-2.157-21.647-6.466-28.109c-4.313-6.461-10.559-9.692-18.738-9.692
								c-8.167,0-14.404,3.231-18.717,9.692c-4.313,6.462-6.47,15.837-6.47,28.109c0,12.296,2.157,21.68,6.47,28.141
								C17.378,70.981,23.616,74.22,31.783,74.22"/>
						</g>
					</g>
				</g>
			</g>
			<g id="ytick_2">
				<g id="line2d_19">
					<g>
						<g>
							<path id="mc8fcea1516_1_" stroke="#000000" stroke-width="0.5" stroke-linejoin="round" d="M73.35,347.914h4"/>
						</g>
					</g>
				</g>
				<g id="line2d_20">
					<g>
						<g>
							<path id="m0d5b0a6425_1_" stroke="#000000" stroke-width="0.5" stroke-linejoin="round" d="M528.12,347.914h-4"/>
						</g>
					</g>
				</g>
				<g id="text_10">
					<g transform="translate(63.79625 352.367410714)scale(0.12 -0.12)">
						<g>
							<path id="BitstreamVeraSans-Roman-32" d="M19.189,8.294h34.424V0.002H7.333v8.293c3.739,3.874,8.838,9.074,15.295,15.592
								c6.47,6.535,10.531,10.75,12.187,12.646c3.158,3.54,5.359,6.543,6.612,9.001c1.257,2.458,1.888,4.875,1.888,7.251
								c0,3.874-1.359,7.031-4.077,9.465c-2.718,2.449-6.262,3.67-10.625,3.67c-3.092,0-6.36-0.537-9.798-1.611
								c-3.426-1.066-7.092-2.702-10.999-4.883v9.961c3.967,1.595,7.678,2.8,11.125,3.613c3.458,0.814,6.62,1.221,9.485,1.221
								c7.552,0,13.57-1.896,18.063-5.672c4.488-3.776,6.734-8.813,6.734-15.129c0-2.995-0.562-5.843-1.688-8.529
								c-1.115-2.677-3.158-5.843-6.124-9.489c-0.813-0.944-3.401-3.67-7.768-8.187C33.289,22.707,27.141,16.4,19.189,8.294"/>
						</g>
					</g>
				</g>
			</g>
			<g id="ytick_3">
				<g id="line2d_21">
					<g>
						<g>
							<path id="mc8fcea1516_2_" stroke="#000000" stroke-width="0.5" stroke-linejoin="round" d="M73.351,297.309h4"/>
						</g>
					</g>
				</g>
				<g id="line2d_22">
					<g>
						<g>
							<path id="m0d5b0a6425_2_" stroke="#000000" stroke-width="0.5" stroke-linejoin="round" d="M528.121,297.309h-4"/>
						</g>
					</g>
				</g>
				<g id="text_11">
					<g transform="translate(62.975 301.682946429)scale(0.12 -0.12)">
						<g>
							<path id="BitstreamVeraSans-Roman-34_1_" d="M37.801,64.317L12.895,25.385h24.906V64.317z M35.206,72.911h12.406V25.385
								h10.409v-8.203H47.612V-0.005h-9.811v17.188H4.896v9.521L35.206,72.911z"/>
						</g>
					</g>
				</g>
			</g>
			<g id="ytick_4">
				<g id="line2d_23">
					<g>
						<g>
							<path id="mc8fcea1516_3_" stroke="#000000" stroke-width="0.5" stroke-linejoin="round" d="M73.351,246.703h4"/>
						</g>
					</g>
				</g>
				<g id="line2d_24">
					<g>
						<g>
							<path id="m0d5b0a6425_3_" stroke="#000000" stroke-width="0.5" stroke-linejoin="round" d="M528.121,246.703h-4"/>
						</g>
					</g>
				</g>
				<g id="text_12">
					<g transform="translate(63.30875 251.070669643)scale(0.12 -0.12)">
						<g>
							<path id="BitstreamVeraSans-Roman-36_1_" d="M33.018,40.375c-4.427,0-7.935-1.521-10.53-4.549
								c-2.584-3.02-3.874-7.162-3.874-12.435c0-5.241,1.29-9.391,3.874-12.435c2.596-3.043,6.104-4.565,10.53-4.565
								c4.427,0,7.935,1.522,10.519,4.565C46.121,14,47.41,18.151,47.41,23.392c0,5.273-1.29,9.416-3.874,12.435
								C40.953,38.854,37.445,40.375,33.018,40.375 M52.598,71.292v-8.984c-2.482,1.172-4.98,2.067-7.499,2.677
								c-2.523,0.627-5.021,0.936-7.503,0.936c-6.51,0-11.482-2.197-14.921-6.592c-3.426-4.395-5.383-11.035-5.875-19.922
								c1.917,2.832,4.325,5.005,7.218,6.51c2.909,1.514,6.1,2.271,9.579,2.271c7.324,0,13.11-2.222,17.362-6.673
								c4.248-4.436,6.372-10.474,6.372-18.124c0-7.487-2.213-13.501-6.641-18.034c-4.427-4.525-10.315-6.779-17.672-6.779
								c-8.435,0-14.884,3.231-19.344,9.692C9.219,14.733,6.989,24.108,6.989,36.38c0,11.515,2.734,20.703,8.203,27.555
								c5.469,6.853,12.805,10.287,22.013,10.287c2.482,0,4.98-0.244,7.503-0.732C47.227,72.993,49.856,72.269,52.598,71.292"/>
						</g>
					</g>
				</g>
			</g>
			<g id="ytick_5">
				<g id="line2d_25">
					<g>
						<g>
							<path id="mc8fcea1516_4_" stroke="#000000" stroke-width="0.5" stroke-linejoin="round" d="M73.351,196.097h4"/>
						</g>
					</g>
				</g>
				<g id="line2d_26">
					<g>
						<g>
							<path id="m0d5b0a6425_4_" stroke="#000000" stroke-width="0.5" stroke-linejoin="round" d="M528.121,196.097h-4"/>
						</g>
					</g>
				</g>
				<g id="text_13">
					<g transform="translate(63.35 200.464955357)scale(0.12 -0.12)">
						<g>
							<path id="BitstreamVeraSans-Roman-38_1_" d="M31.784,34.624c-4.688,0-8.374-1.253-11.06-3.764
								c-2.677-2.511-4.016-5.961-4.016-10.344c0-4.398,1.339-7.849,4.016-10.359c2.686-2.511,6.372-3.768,11.06-3.768
								s8.382,1.261,11.08,3.784c2.71,2.531,4.061,5.978,4.061,10.343c0,4.382-1.343,7.833-4.028,10.344
								C40.219,33.371,36.516,34.624,31.784,34.624 M21.925,38.811c-4.228,1.042-7.524,3.011-9.888,5.908
								c-2.356,2.905-3.532,6.441-3.532,10.608c0,5.823,2.071,10.429,6.218,13.814c4.158,3.385,9.843,5.078,17.061,5.078
								c7.263,0,12.96-1.693,17.094-5.078c4.138-3.386,6.205-7.992,6.205-13.814c0-4.167-1.184-7.703-3.548-10.608
								c-2.356-2.897-5.631-4.867-9.827-5.908c4.749-1.103,8.447-3.271,11.092-6.498c2.657-3.219,3.983-7.153,3.983-11.796
								c0-7.076-2.156-12.5-6.465-16.284c-4.313-3.768-10.49-5.656-18.535-5.656c-8.028,0-14.205,1.888-18.53,5.656
								c-4.313,3.784-6.47,9.208-6.47,16.284c0,4.643,1.335,8.578,4,11.796C13.461,35.54,17.176,37.708,21.925,38.811
								 M18.315,54.391c0-3.772,1.176-6.714,3.532-8.83c2.364-2.112,5.676-3.17,9.937-3.17c4.24,0,7.552,1.058,9.941,3.17
								c2.393,2.116,3.593,5.058,3.593,8.83c0,3.78-1.2,6.726-3.593,8.842c-2.389,2.116-5.701,3.174-9.941,3.174
								c-4.26,0-7.572-1.058-9.937-3.174C19.491,61.117,18.315,58.171,18.315,54.391"/>
						</g>
					</g>
				</g>
			</g>
			<g id="ytick_6">
				<g id="line2d_27">
					<g>
						<g>
							<path id="mc8fcea1516_5_" stroke="#000000" stroke-width="0.5" stroke-linejoin="round" d="M73.351,145.491h4"/>
						</g>
					</g>
				</g>
				<g id="line2d_28">
					<g>
						<g>
							<path id="m0d5b0a6425_5_" stroke="#000000" stroke-width="0.5" stroke-linejoin="round" d="M528.121,145.491h-4"/>
						</g>
					</g>
				</g>
				<g id="text_14">
					<g transform="translate(56.195 149.859241071)scale(0.12 -0.12)">
						<g>
							<path id="BitstreamVeraSans-Roman-31_1_" d="M12.409,8.296h16.109v55.627l-17.529-3.516v8.984l17.436,3.516h9.859V8.296
								h16.109v-8.297H12.409V8.296z"/>
						</g>
						<g>
							<path id="BitstreamVeraSans-Roman-30_9_" d="M95.409,66.405c-5.074,0-8.891-2.498-11.454-7.499
								c-2.551-4.989-3.829-12.5-3.829-22.53c0-9.989,1.278-17.484,3.829-22.485c2.563-5,6.38-7.499,11.454-7.499
								c5.115,0,8.948,2.499,11.499,7.499c2.563,5.001,3.845,12.496,3.845,22.485c0,10.03-1.282,17.542-3.845,22.53
								C104.356,63.907,100.523,66.405,95.409,66.405 M95.409,74.218c8.179,0,14.42-3.235,18.734-9.7
								c4.313-6.462,6.47-15.841,6.47-28.142c0-12.272-2.157-21.643-6.47-28.108c-4.313-6.462-10.555-9.688-18.734-9.688
								c-8.167,0-14.404,3.227-18.717,9.688c-4.313,6.465-6.47,15.836-6.47,28.108c0,12.301,2.156,21.68,6.47,28.142
								C81.004,70.983,87.242,74.218,95.409,74.218"/>
						</g>
					</g>
				</g>
			</g>
			<g id="ytick_7">
				<g id="line2d_29">
					<g>
						<g>
							<path id="mc8fcea1516_6_" stroke="#000000" stroke-width="0.5" stroke-linejoin="round" d="M73.351,94.886h4"/>
						</g>
					</g>
				</g>
				<g id="line2d_30">
					<g>
						<g>
							<path id="m0d5b0a6425_6_" stroke="#000000" stroke-width="0.5" stroke-linejoin="round" d="M528.121,94.886h-4"/>
						</g>
					</g>
				</g>
				<g id="text_15">
					<g transform="translate(56.6 99.3388392857)scale(0.12 -0.12)">
						<g>
							<path id="BitstreamVeraSans-Roman-31_2_" d="M12.412,8.297h16.109v55.627l-17.533-3.52v8.984l17.439,3.516h9.859V8.297
								h16.109V0H12.412V8.297z"/>
						</g>
						<g>
							<path id="BitstreamVeraSans-Roman-32_1_" d="M82.814,8.297h34.424V0H70.957v8.297c3.74,3.874,8.838,9.074,15.295,15.592
								c6.47,6.531,10.531,10.746,12.187,12.643c3.157,3.54,5.359,6.543,6.612,9c1.257,2.458,1.888,4.875,1.888,7.251
								c0,3.874-1.359,7.031-4.077,9.464c-2.718,2.45-6.262,3.674-10.624,3.674c-3.093,0-6.36-0.537-9.798-1.607
								c-3.426-1.074-7.092-2.706-10.999-4.891v9.965c3.967,1.595,7.678,2.8,11.125,3.609c3.459,0.814,6.621,1.221,9.485,1.221
								c7.552,0,13.57-1.892,18.063-5.672c4.488-3.772,6.734-8.813,6.734-15.125c0-2.999-0.562-5.843-1.689-8.533
								c-1.115-2.677-3.157-5.839-6.124-9.485c-0.814-0.948-3.402-3.674-7.768-8.187C96.913,22.709,90.765,16.403,82.814,8.297"/>
						</g>
					</g>
				</g>
			</g>
			<g id="ytick_8">
				<g id="line2d_31">
					<g>
						<g>
							<path id="mc8fcea1516_7_" stroke="#000000" stroke-width="0.5" stroke-linejoin="round" d="M73.351,44.28h4"/>
						</g>
					</g>
				</g>
				<g id="line2d_32">
					<g>
						<g>
							<path id="m0d5b0a6425_7_" stroke="#000000" stroke-width="0.5" stroke-linejoin="round" d="M528.121,44.28h-4"/>
						</g>
					</g>
				</g>
				<g id="text_16">
					<g transform="translate(56.07125 48.654375)scale(0.12 -0.12)">
						<g>
							<path id="BitstreamVeraSans-Roman-31_3_" d="M12.411,8.298h16.109v55.624l-17.533-3.516v8.984l17.439,3.516h9.859V8.298
								h16.109V0.001H12.411V8.298z"/>
						</g>
						<g>
							<path id="BitstreamVeraSans-Roman-34_2_" d="M101.425,64.313l-24.906-38.92h24.906V64.313z M98.829,72.906h12.406V25.392
								h10.409v-8.203h-10.409V0.001h-9.811v17.188H68.519v9.514L98.829,72.906z"/>
						</g>
					</g>
				</g>
			</g>
		</g>
		<g id="patch_53">
			<path fill="none" stroke="#000000" stroke-linecap="square" stroke-linejoin="round" d="M73.351,44.28h454.77"/>
		</g>
		<g id="patch_54">
			<path fill="none" stroke="#000000" stroke-linecap="square" stroke-linejoin="round" d="M528.121,398.519V44.28"/>
		</g>
		<g id="patch_55">
			<path fill="none" stroke="#000000" stroke-linecap="square" stroke-linejoin="round" d="M73.351,398.519h454.77"/>
		</g>
		<g id="patch_56">
			<path fill="none" stroke="#000000" stroke-linecap="square" stroke-linejoin="round" d="M73.351,398.519V44.28"/>
		</g>
		<g id="text_17">
			<g transform="translate(189.2565 39.28)scale(0.144 -0.144)">
				<g>
					<path id="BitstreamVeraSans-Roman-46" d="M9.816,72.906h41.891v-8.311h-32.03V43.111h28.907v-8.298H19.677V0H9.816V72.906z"/>
				</g>
				<g>
					<path id="BitstreamVeraSans-Roman-73" d="M101.806,53.08v-8.5c-2.533,1.302-5.167,2.275-7.907,2.923
						c-2.729,0.654-5.561,0.983-8.501,0.983c-4.459,0-7.802-0.682-10.03-2.045c-2.231-1.367-3.343-3.418-3.343-6.158
						c0-2.082,0.797-3.72,2.391-4.907c1.594-1.187,4.801-2.316,9.623-3.391l3.079-0.688c6.375-1.363,10.905-3.289,13.594-5.781
						c2.689-2.489,4.032-5.961,4.032-10.42c0-5.083-2.011-9.111-6.032-12.079c-4.021-2.96-9.545-4.438-16.578-4.438
						c-2.926,0-5.978,0.288-9.155,0.861S66.457,0.868,62.947,2v9.284c3.319-1.729,6.592-3.028,9.81-3.893
						c3.218-0.854,6.412-1.282,9.579-1.282c4.229,0,7.48,0.726,9.749,2.173c2.282,1.448,3.421,3.489,3.421,6.124
						c0,2.438-0.82,4.306-2.468,5.608c-1.634,1.302-5.239,2.56-10.81,3.767l-3.126,0.732c-5.561,1.167-9.583,2.964-12.061,5.392
						c-2.469,2.428-3.703,5.758-3.703,9.986c0,5.144,1.821,9.115,5.47,11.905c3.645,2.801,8.823,4.205,15.53,4.205
						c3.313,0,6.433-0.248,9.359-0.736C96.632,54.789,99.338,54.06,101.806,53.08"/>
				</g>
				<g>
					<path id="BitstreamVeraSans-Roman-74" d="M127.936,70.22V54.687h18.5v-6.982h-18.5V18.019c0-4.459,0.61-7.324,1.828-8.596
						c1.217-1.271,3.703-1.905,7.453-1.905h9.22V0h-9.22c-6.938,0-11.722,1.292-14.36,3.875c-2.634,2.594-3.954,7.308-3.954,14.144
						v29.687h-6.592v6.982h6.592V70.22H127.936z"/>
				</g>
				<g>
					<path id="BitstreamVeraSans-Roman-2d" d="M153.724,31.392h26.313v-7.999h-26.313V31.392z"/>
				</g>
				<g>
					<path id="BitstreamVeraSans-Roman-74_1_" d="M203.23,70.22V54.687h18.497v-6.982H203.23V18.019
						c0-4.459,0.607-7.324,1.828-8.596c1.217-1.271,3.703-1.905,7.453-1.905h9.216V0h-9.216c-6.938,0-11.725,1.292-14.36,3.875
						c-2.635,2.594-3.954,7.308-3.954,14.144v29.687h-6.592v6.982h6.592V70.22H203.23z"/>
				</g>
				<g>
					<path id="BitstreamVeraSans-Roman-65" d="M280.327,29.595v-4.391h-41.311c0.394-6.188,2.258-10.901,5.592-14.14
						c3.333-3.238,7.982-4.859,13.939-4.859c3.449,0,6.792,0.42,10.03,1.265c3.238,0.845,6.459,2.116,9.657,3.815V2.783
						c-3.231-1.366-6.538-2.407-9.922-3.126c-3.387-0.719-6.819-1.078-10.298-1.078c-8.728,0-15.642,2.537-20.735,7.609
						c-5.093,5.083-7.64,11.96-7.64,20.627c0,8.948,2.417,16.045,7.25,21.294c4.832,5.262,11.353,7.894,19.562,7.894
						c7.354,0,13.173-2.37,17.453-7.11C278.188,44.162,280.327,37.729,280.327,29.595 M271.345,32.236
						c-0.064,4.906-1.438,8.823-4.127,11.749c-2.686,2.937-6.246,4.408-10.671,4.408c-5.012,0-9.023-1.417-12.031-4.252
						c-3.011-2.835-4.747-6.823-5.205-11.97L271.345,32.236z"/>
				</g>
				<g>
					<path id="BitstreamVeraSans-Roman-73_1_" d="M329.929,53.08v-8.5c-2.53,1.302-5.165,2.275-7.904,2.923
						c-2.729,0.654-5.564,0.983-8.501,0.983c-4.458,0-7.802-0.682-10.03-2.045c-2.231-1.367-3.343-3.418-3.343-6.158
						c0-2.082,0.793-3.72,2.387-4.907c1.594-1.187,4.805-2.316,9.627-3.391l3.079-0.688c6.375-1.363,10.905-3.289,13.594-5.781
						c2.686-2.489,4.032-5.961,4.032-10.42c0-5.083-2.011-9.111-6.033-12.079c-4.021-2.96-9.548-4.438-16.578-4.438
						c-2.926,0-5.978,0.288-9.159,0.861c-3.174,0.573-6.517,1.428-10.03,2.56v9.284c3.323-1.729,6.595-3.028,9.813-3.893
						c3.218-0.854,6.412-1.282,9.579-1.282c4.228,0,7.477,0.726,9.749,2.173c2.282,1.448,3.421,3.489,3.421,6.124
						c0,2.438-0.821,4.306-2.469,5.608c-1.634,1.302-5.239,2.56-10.813,3.767l-3.123,0.732c-5.564,1.167-9.583,2.964-12.062,5.392
						c-2.468,2.428-3.706,5.758-3.706,9.986c0,5.144,1.824,9.115,5.469,11.905c3.646,2.801,8.823,4.205,15.534,4.205
						c3.313,0,6.432-0.248,9.359-0.736C324.757,54.789,327.46,54.06,329.929,53.08"/>
				</g>
				<g>
					<path id="BitstreamVeraSans-Roman-74_2_" d="M356.062,70.22V54.687h18.497v-6.982h-18.497V18.019
						c0-4.459,0.607-7.324,1.828-8.596c1.217-1.271,3.703-1.905,7.453-1.905h9.216V0h-9.216c-6.938,0-11.726,1.292-14.36,3.875
						c-2.635,2.594-3.954,7.308-3.954,14.144v29.687h-6.592v6.982h6.592V70.22H356.062z"/>
				</g>
				<g>
					<path id="BitstreamVeraSans-Roman-20" d="M376.956,0"/>
				</g>
				<g>
					<path id="BitstreamVeraSans-Roman-66" d="M445.854,75.985v-7.483h-8.596c-3.218,0-5.456-0.651-6.717-1.953
						c-1.251-1.302-1.875-3.646-1.875-7.033v-4.829h14.798v-6.982h-14.798V0h-9.033v47.706h-8.592v6.982h8.592v3.814
						c0,6.083,1.417,10.515,4.252,13.296c2.832,2.794,7.321,4.188,13.469,4.188H445.854z"/>
				</g>
				<g>
					<path id="BitstreamVeraSans-Roman-6f" d="M474.558,48.394c-4.812,0-8.62-1.882-11.42-5.643
						c-2.804-3.76-4.205-8.911-4.205-15.452c0-6.541,1.39-11.695,4.171-15.456c2.794-3.761,6.612-5.639,11.454-5.639
						c4.792,0,8.583,1.885,11.376,5.656c2.801,3.781,4.201,8.928,4.201,15.438c0,6.479-1.4,11.613-4.201,15.404
						C483.141,46.495,479.35,48.394,474.558,48.394 M474.558,56.002c7.813,0,13.947-2.543,18.406-7.626
						c4.469-5.073,6.704-12.099,6.704-21.077c0-8.949-2.235-15.975-6.704-21.081c-4.459-5.093-10.593-7.64-18.406-7.64
						c-7.843,0-13.991,2.546-18.436,7.64c-4.438,5.106-6.656,12.132-6.656,21.081c0,8.979,2.218,16.004,6.656,21.077
						C460.567,53.459,466.715,56.002,474.558,56.002"/>
				</g>
				<g>
					<path id="BitstreamVeraSans-Roman-72" d="M546.241,46.298c-1.011,0.583-2.109,1.011-3.296,1.282
						c-1.19,0.282-2.496,0.42-3.923,0.42c-5.083,0-8.986-1.651-11.702-4.95c-2.72-3.303-4.079-8.05-4.079-14.235V0h-9.033v54.688
						h9.033v-8.498c1.895,3.323,4.354,5.785,7.375,7.389c3.031,1.618,6.714,2.424,11.047,2.424c0.614,0,1.295-0.044,2.044-0.125
						c0.753-0.074,1.58-0.193,2.485-0.359L546.241,46.298z"/>
				</g>
				<g>
					<path id="BitstreamVeraSans-Roman-20_1_" d="M546.244,0"/>
				</g>
				<g>
					<path id="BitstreamVeraSans-Roman-6d" d="M630.032,44.189c2.251,4.042,4.937,7.019,8.063,8.938
						c3.123,1.916,6.802,2.875,11.03,2.875c5.697,0,10.095-1.997,13.187-5.985c3.092-3.98,4.642-9.647,4.642-17.001V0h-9.033v32.722
						c0,5.239-0.933,9.125-2.797,11.654c-1.852,2.543-4.68,3.814-8.484,3.814c-4.656,0-8.338-1.549-11.047-4.642
						c-2.696-3.082-4.045-7.297-4.045-12.641V0h-9.03v32.722c0,5.269-0.929,9.166-2.784,11.685
						c-1.855,2.523-4.717,3.784-8.593,3.784c-4.594,0-8.247-1.553-10.952-4.659c-2.699-3.103-4.049-7.311-4.049-12.625V0h-9.03
						v54.688h9.03v-8.498c2.052,3.354,4.51,5.826,7.375,7.419c2.865,1.597,6.267,2.394,10.203,2.394
						c3.981,0,7.362-1.01,10.142-3.031C626.641,50.96,628.699,48.034,630.032,44.189"/>
				</g>
				<g>
					<path id="BitstreamVeraSans-Roman-61" d="M709.723,27.486c-7.26,0-12.288-0.828-15.092-2.486
						c-2.801-1.655-4.202-4.489-4.202-8.5c0-3.188,1.051-5.717,3.154-7.592c2.105-1.865,4.96-2.797,8.565-2.797
						c4.988,0,8.989,1.767,11.997,5.296c3.011,3.533,4.517,8.226,4.517,14.079v2.001H709.723z M727.647,31.206V0h-8.986v8.297
						c-2.052-3.313-4.608-5.761-7.67-7.341c-3.065-1.583-6.809-2.377-11.237-2.377c-5.592,0-10.044,1.573-13.357,4.72
						c-3.302,3.143-4.954,7.354-4.954,12.624c0,6.144,2.058,10.783,6.171,13.906c4.127,3.126,10.271,4.689,18.439,4.689h12.607
						v0.889c0,4.137-1.36,7.334-4.076,9.596c-2.72,2.258-6.538,3.391-11.455,3.391c-3.126,0-6.171-0.376-9.142-1.126
						c-2.957-0.752-5.802-1.875-8.531-3.377v8.314c3.282,1.271,6.47,2.217,9.562,2.841c3.096,0.638,6.104,0.956,9.033,0.956
						c7.914,0,13.828-2.055,17.734-6.158C725.694,45.752,727.647,39.537,727.647,31.206"/>
				</g>
				<g>
					<path id="BitstreamVeraSans-Roman-78" d="M791.612,54.687l-19.775-26.608L792.629,0h-10.593l-15.923,21.484L750.203,0h-10.606
						l21.254,28.612l-19.437,26.076h10.593l14.5-19.484l14.499,19.484H791.612z"/>
				</g>
				<g>
					<path id="BitstreamVeraSans-Roman-69" d="M805.325,54.687h8.986V0h-8.986V54.687z M805.325,75.985h8.986v-11.39h-8.986V75.985z
						"/>
				</g>
				<g>
					<path id="BitstreamVeraSans-Roman-6d_1_" d="M875.685,44.189c2.251,4.042,4.937,7.019,8.063,8.938
						c3.126,1.916,6.802,2.875,11.027,2.875c5.704,0,10.098-1.997,13.19-5.985c3.1-3.98,4.646-9.647,4.646-17.001V0h-9.033v32.722
						c0,5.239-0.936,9.125-2.794,11.654c-1.858,2.543-4.686,3.814-8.491,3.814c-4.652,0-8.334-1.549-11.041-4.642
						c-2.699-3.082-4.056-7.297-4.056-12.641V0h-9.026v32.722c0,5.269-0.929,9.166-2.78,11.685c-1.852,2.523-4.72,3.784-8.592,3.784
						c-4.598,0-8.247-1.553-10.959-4.659c-2.699-3.103-4.042-7.311-4.042-12.625V0h-9.033v54.688h9.033v-8.498
						c2.048,3.354,4.51,5.826,7.372,7.419c2.869,1.597,6.266,2.394,10.206,2.394c3.974,0,7.358-1.01,10.139-3.031
						C872.294,50.96,874.349,48.034,875.685,44.189"/>
				</g>
				<g>
					<path id="BitstreamVeraSans-Roman-75" d="M929.599,21.579v33.108h8.986V21.925c0-5.178,1.003-9.064,3.011-11.658
						c2.021-2.584,5.053-3.876,9.094-3.876c4.849,0,8.674,1.546,11.481,4.642c2.828,3.092,4.239,7.311,4.239,12.655v30.999h8.986V0
						h-8.986v8.409c-2.177-3.323-4.707-5.792-7.589-7.409c-2.875-1.614-6.226-2.421-10.037-2.421c-6.28,0-11.054,1.953-14.31,5.859
						S929.599,14.058,929.599,21.579"/>
				</g>
				<g>
					<path id="BitstreamVeraSans-Roman-6d_2_" d="M1036.472,44.189c2.251,4.042,4.944,7.019,8.07,8.938
						c3.12,1.916,6.795,2.875,11.027,2.875c5.697,0,10.091-1.997,13.19-5.985c3.092-3.98,4.639-9.647,4.639-17.001V0h-9.026v32.722
						c0,5.239-0.936,9.125-2.801,11.654c-1.852,2.543-4.687,3.814-8.484,3.814c-4.659,0-8.342-1.549-11.047-4.642
						c-2.699-3.082-4.049-7.297-4.049-12.641V0h-9.033v32.722c0,5.269-0.922,9.166-2.78,11.685c-1.852,2.523-4.72,3.784-8.593,3.784
						c-4.591,0-8.24-1.553-10.952-4.659c-2.699-3.103-4.042-7.311-4.042-12.625V0h-9.033v54.688h9.033v-8.498
						c2.048,3.354,4.503,5.826,7.372,7.419c2.862,1.597,6.267,2.394,10.207,2.394c3.974,0,7.352-1.01,10.132-3.031
						C1033.087,50.96,1035.143,48.034,1036.472,44.189"/>
				</g>
				<g>
					<path id="BitstreamVeraSans-Roman-20_2_" d="M1081.889,0"/>
				</g>
				<g>
					<path id="BitstreamVeraSans-Roman-65_1_" d="M1169.881,29.595v-4.391h-41.314c0.394-6.188,2.258-10.901,5.595-14.14
						c3.33-3.238,7.982-4.859,13.937-4.859c3.445,0,6.795,0.42,10.03,1.265c3.242,0.845,6.463,2.116,9.657,3.815V2.783
						c-3.228-1.366-6.537-2.407-9.921-3.126c-3.384-0.719-6.822-1.078-10.294-1.078c-8.735,0-15.639,2.537-20.739,7.609
						c-5.093,5.083-7.636,11.96-7.636,20.627c0,8.948,2.414,16.045,7.243,21.294c4.842,5.262,11.359,7.894,19.565,7.894
						c7.358,0,13.177-2.37,17.456-7.11C1167.738,44.162,1169.881,37.729,1169.881,29.595 M1160.895,32.236
						c-0.061,4.906-1.438,8.823-4.13,11.749c-2.686,2.937-6.239,4.408-10.667,4.408c-5.012,0-9.02-1.417-12.031-4.252
						c-3.011-2.835-4.74-6.823-5.202-11.97L1160.895,32.236z"/>
				</g>
				<g>
					<path id="BitstreamVeraSans-Roman-73_2_" d="M1219.482,53.08v-8.5c-2.536,1.302-5.167,2.275-7.907,2.923
						c-2.726,0.654-5.561,0.983-8.504,0.983c-4.456,0-7.799-0.682-10.023-2.045c-2.238-1.367-3.351-3.418-3.351-6.158
						c0-2.082,0.8-3.72,2.394-4.907c1.594-1.187,4.802-2.316,9.624-3.391l3.079-0.688c6.375-1.363,10.905-3.289,13.59-5.781
						c2.692-2.489,4.035-5.961,4.035-10.42c0-5.083-2.014-9.111-6.029-12.079c-4.028-2.96-9.548-4.438-16.581-4.438
						c-2.923,0-5.975,0.288-9.155,0.861s-6.517,1.428-10.03,2.56v9.284c3.323-1.729,6.592-3.028,9.806-3.893
						c3.222-0.854,6.416-1.282,9.583-1.282c4.225,0,7.48,0.726,9.746,2.173c2.285,1.448,3.425,3.489,3.425,6.124
						c0,2.438-0.821,4.306-2.469,5.608c-1.634,1.302-5.242,2.56-10.81,3.767l-3.126,0.732c-5.561,1.167-9.583,2.964-12.058,5.392
						c-2.469,2.428-3.703,5.758-3.703,9.986c0,5.144,1.817,9.115,5.466,11.905c3.648,2.801,8.823,4.205,15.53,4.205
						c3.309,0,6.429-0.248,9.358-0.736C1214.308,54.789,1217.014,54.06,1219.482,53.08"/>
				</g>
				<g>
					<path id="BitstreamVeraSans-Roman-74_3_" d="M1245.612,70.22V54.687h18.5v-6.982h-18.5V18.019c0-4.459,0.61-7.324,1.824-8.596
						c1.221-1.271,3.703-1.905,7.46-1.905h9.216V0h-9.216c-6.944,0-11.726,1.292-14.363,3.875
						c-2.631,2.594-3.954,7.308-3.954,14.144v29.687h-6.592v6.982h6.592V70.22H1245.612z"/>
				</g>
				<g>
					<path id="BitstreamVeraSans-Roman-69_1_" d="M1275.933,54.687h8.979V0h-8.979V54.687z M1275.933,75.985h8.979v-11.39h-8.979
						V75.985z"/>
				</g>
				<g>
					<path id="BitstreamVeraSans-Roman-6d_3_" d="M1346.286,44.189c2.251,4.042,4.944,7.019,8.07,8.938
						c3.12,1.916,6.795,2.875,11.027,2.875c5.697,0,10.091-1.997,13.19-5.985c3.092-3.98,4.639-9.647,4.639-17.001V0h-9.026v32.722
						c0,5.239-0.936,9.125-2.801,11.654c-1.852,2.543-4.687,3.814-8.484,3.814c-4.659,0-8.342-1.549-11.047-4.642
						c-2.699-3.082-4.049-7.297-4.049-12.641V0h-9.033v32.722c0,5.269-0.922,9.166-2.78,11.685c-1.852,2.523-4.72,3.784-8.593,3.784
						c-4.591,0-8.24-1.553-10.952-4.659c-2.699-3.103-4.042-7.311-4.042-12.625V0h-9.033v54.688h9.033v-8.498
						c2.048,3.354,4.503,5.826,7.372,7.419c2.862,1.597,6.267,2.394,10.207,2.394c3.974,0,7.352-1.01,10.132-3.031
						C1342.902,50.96,1344.957,48.034,1346.286,44.189"/>
				</g>
				<g>
					<path id="BitstreamVeraSans-Roman-61_1_" d="M1425.984,27.486c-7.256,0-12.289-0.828-15.096-2.486
						c-2.801-1.655-4.205-4.489-4.205-8.5c0-3.188,1.058-5.717,3.161-7.592c2.102-1.865,4.957-2.797,8.558-2.797
						c4.992,0,8.993,1.767,12.004,5.296c3.011,3.533,4.517,8.226,4.517,14.079v2.001H1425.984z M1443.909,31.206V0h-8.986v8.297
						c-2.055-3.313-4.612-5.761-7.677-7.341c-3.058-1.583-6.802-2.377-11.23-2.377c-5.595,0-10.05,1.573-13.36,4.72
						c-3.303,3.143-4.951,7.354-4.951,12.624c0,6.144,2.055,10.783,6.171,13.906c4.124,3.126,10.268,4.689,18.433,4.689h12.614
						v0.889c0,4.137-1.356,7.334-4.083,9.596c-2.713,2.258-6.538,3.391-11.448,3.391c-3.126,0-6.171-0.376-9.142-1.126
						c-2.957-0.752-5.805-1.875-8.531-3.377v8.314c3.282,1.271,6.47,2.217,9.562,2.841c3.092,0.638,6.104,0.956,9.033,0.956
						c7.914,0,13.821-2.055,17.734-6.158C1441.956,45.752,1443.909,39.537,1443.909,31.206"/>
				</g>
				<g>
					<path id="BitstreamVeraSans-Roman-74_4_" d="M1471.293,70.22V54.687h18.5v-6.982h-18.5V18.019c0-4.459,0.61-7.324,1.831-8.596
						c1.221-1.271,3.703-1.905,7.453-1.905h9.216V0h-9.216c-6.938,0-11.726,1.292-14.364,3.875
						c-2.631,2.594-3.947,7.308-3.947,14.144v29.687h-6.599v6.982h6.599V70.22H1471.293z"/>
				</g>
				<g>
					<path id="BitstreamVeraSans-Roman-65_2_" d="M1548.394,29.595v-4.391h-41.314c0.4-6.188,2.265-10.901,5.595-14.14
						c3.336-3.238,7.982-4.859,13.937-4.859c3.452,0,6.795,0.42,10.037,1.265c3.235,0.845,6.456,2.116,9.65,3.815V2.783
						c-3.228-1.366-6.531-2.407-9.921-3.126c-3.384-0.719-6.816-1.078-10.295-1.078c-8.728,0-15.639,2.537-20.731,7.609
						c-5.093,5.083-7.643,11.96-7.643,20.627c0,8.948,2.415,16.045,7.25,21.294c4.835,5.262,11.353,7.894,19.565,7.894
						c7.351,0,13.17-2.37,17.449-7.11C1546.251,44.162,1548.394,37.729,1548.394,29.595 M1539.408,32.236
						c-0.061,4.906-1.438,8.823-4.124,11.749c-2.686,2.937-6.246,4.408-10.674,4.408c-5.005,0-9.02-1.417-12.031-4.252
						c-3.011-2.835-4.74-6.823-5.201-11.97L1539.408,32.236z"/>
				</g>
			</g>
		</g>
	</g>
</g>
</svg>
