<?xml version="1.0" encoding="utf-8"?>
<!-- Generator: Adobe Illustrator 16.0.0, SVG Export Plug-In . SVG Version: 6.00 Build 0)  -->
<!DOCTYPE svg PUBLIC "-//W3C//DTD SVG 1.1//EN" "http://www.w3.org/Graphics/SVG/1.1/DTD/svg11.dtd">
<svg version="1.1" id="Layer_1" xmlns="http://www.w3.org/2000/svg" xmlns:xlink="http://www.w3.org/1999/xlink" x="0px" y="0px"
	 width="586px" height="442px" viewBox="0 0 586 442" enable-background="new 0 0 586 442" xml:space="preserve">
<g id="figure_1">
	<g id="patch_1">
		<path fill="#FFFFFF" d="M0,442.8h586.8V0H0V442.8z"/>
	</g>
	<g id="axes_1">
		<g id="patch_2">
			<path fill="#FFFFFF" d="M73.35,398.52h454.77V44.28H73.35V398.52z"/>
		</g>
		<g id="patch_3">
			<g>
				<defs>
					<rect id="SVGID_1_" x="73.35" y="44.28" width="454.77" height="354.239"/>
				</defs>
				<clipPath id="SVGID_2_">
					<use xlink:href="#SVGID_1_"  overflow="visible"/>
				</clipPath>
				
					<path opacity="0.5" clip-path="url(#SVGID_2_)" fill="#008000" stroke="#000000" stroke-linecap="square" stroke-linejoin="round" enable-background="new    " d="
					M73.35,398.52h7.821V47.822H73.35V398.52z"/>
			</g>
		</g>
		<g id="patch_4">
			<g>
				<defs>
					<rect id="SVGID_3_" x="73.35" y="44.28" width="454.77" height="354.239"/>
				</defs>
				<clipPath id="SVGID_4_">
					<use xlink:href="#SVGID_3_"  overflow="visible"/>
				</clipPath>
				
					<path opacity="0.5" clip-path="url(#SVGID_4_)" fill="#008000" stroke="#000000" stroke-linecap="square" stroke-linejoin="round" enable-background="new    " d="
					M81.171,398.52h7.821l0,0H81.171z"/>
			</g>
		</g>
		<g id="patch_5">
			<g>
				<defs>
					<rect id="SVGID_5_" x="73.35" y="44.28" width="454.77" height="354.239"/>
				</defs>
				<clipPath id="SVGID_6_">
					<use xlink:href="#SVGID_5_"  overflow="visible"/>
				</clipPath>
				
					<path opacity="0.5" clip-path="url(#SVGID_6_)" fill="#008000" stroke="#000000" stroke-linecap="square" stroke-linejoin="round" enable-background="new    " d="
					M88.992,398.52h7.821l0,0H88.992z"/>
			</g>
		</g>
		<g id="patch_6">
			<g>
				<defs>
					<rect id="SVGID_7_" x="73.35" y="44.28" width="454.77" height="354.239"/>
				</defs>
				<clipPath id="SVGID_8_">
					<use xlink:href="#SVGID_7_"  overflow="visible"/>
				</clipPath>
				
					<path opacity="0.5" clip-path="url(#SVGID_8_)" fill="#008000" stroke="#000000" stroke-linecap="square" stroke-linejoin="round" enable-background="new    " d="
					M96.813,398.52h7.82l0,0H96.813z"/>
			</g>
		</g>
		<g id="patch_7">
			<g>
				<defs>
					<rect id="SVGID_9_" x="73.35" y="44.28" width="454.77" height="354.239"/>
				</defs>
				<clipPath id="SVGID_10_">
					<use xlink:href="#SVGID_9_"  overflow="visible"/>
				</clipPath>
				
					<path opacity="0.5" clip-path="url(#SVGID_10_)" fill="#008000" stroke="#000000" stroke-linecap="square" stroke-linejoin="round" enable-background="new    " d="
					M104.633,398.52h7.821l0,0H104.633z"/>
			</g>
		</g>
		<g id="patch_8">
			<g>
				<defs>
					<rect id="SVGID_11_" x="73.35" y="44.28" width="454.77" height="354.239"/>
				</defs>
				<clipPath id="SVGID_12_">
					<use xlink:href="#SVGID_11_"  overflow="visible"/>
				</clipPath>
				
					<path opacity="0.5" clip-path="url(#SVGID_12_)" fill="#008000" stroke="#000000" stroke-linecap="square" stroke-linejoin="round" enable-background="new    " d="
					M112.454,398.52h7.821l0,0H112.454z"/>
			</g>
		</g>
		<g id="patch_9">
			<g>
				<defs>
					<rect id="SVGID_13_" x="73.35" y="44.28" width="454.77" height="354.239"/>
				</defs>
				<clipPath id="SVGID_14_">
					<use xlink:href="#SVGID_13_"  overflow="visible"/>
				</clipPath>
				
					<path opacity="0.5" clip-path="url(#SVGID_14_)" fill="#008000" stroke="#000000" stroke-linecap="square" stroke-linejoin="round" enable-background="new    " d="
					M120.275,398.52h7.821l0,0H120.275z"/>
			</g>
		</g>
		<g id="patch_10">
			<g>
				<defs>
					<rect id="SVGID_15_" x="73.35" y="44.28" width="454.77" height="354.239"/>
				</defs>
				<clipPath id="SVGID_16_">
					<use xlink:href="#SVGID_15_"  overflow="visible"/>
				</clipPath>
				
					<path opacity="0.5" clip-path="url(#SVGID_16_)" fill="#008000" stroke="#000000" stroke-linecap="square" stroke-linejoin="round" enable-background="new    " d="
					M128.096,398.52h7.821l0,0H128.096z"/>
			</g>
		</g>
		<g id="patch_11">
			<g>
				<defs>
					<rect id="SVGID_17_" x="73.35" y="44.28" width="454.77" height="354.239"/>
				</defs>
				<clipPath id="SVGID_18_">
					<use xlink:href="#SVGID_17_"  overflow="visible"/>
				</clipPath>
				
					<path opacity="0.5" clip-path="url(#SVGID_18_)" fill="#008000" stroke="#000000" stroke-linecap="square" stroke-linejoin="round" enable-background="new    " d="
					M135.917,398.52h7.821l0,0H135.917z"/>
			</g>
		</g>
		<g id="patch_12">
			<g>
				<defs>
					<rect id="SVGID_19_" x="73.35" y="44.28" width="454.77" height="354.239"/>
				</defs>
				<clipPath id="SVGID_20_">
					<use xlink:href="#SVGID_19_"  overflow="visible"/>
				</clipPath>
				
					<path opacity="0.5" clip-path="url(#SVGID_20_)" fill="#008000" stroke="#000000" stroke-linecap="square" stroke-linejoin="round" enable-background="new    " d="
					M143.738,398.52h7.821l0,0H143.738z"/>
			</g>
		</g>
		<g id="patch_13">
			<g>
				<defs>
					<rect id="SVGID_21_" x="73.35" y="44.28" width="454.77" height="354.239"/>
				</defs>
				<clipPath id="SVGID_22_">
					<use xlink:href="#SVGID_21_"  overflow="visible"/>
				</clipPath>
				
					<path opacity="0.5" clip-path="url(#SVGID_22_)" fill="#008000" stroke="#000000" stroke-linecap="square" stroke-linejoin="round" enable-background="new    " d="
					M151.559,398.52h7.82l0,0H151.559z"/>
			</g>
		</g>
		<g id="patch_14">
			<g>
				<defs>
					<rect id="SVGID_23_" x="73.35" y="44.28" width="454.77" height="354.239"/>
				</defs>
				<clipPath id="SVGID_24_">
					<use xlink:href="#SVGID_23_"  overflow="visible"/>
				</clipPath>
				
					<path opacity="0.5" clip-path="url(#SVGID_24_)" fill="#008000" stroke="#000000" stroke-linecap="square" stroke-linejoin="round" enable-background="new    " d="
					M159.379,398.52h7.821l0,0H159.379z"/>
			</g>
		</g>
		<g id="patch_15">
			<g>
				<defs>
					<rect id="SVGID_25_" x="73.35" y="44.28" width="454.77" height="354.239"/>
				</defs>
				<clipPath id="SVGID_26_">
					<use xlink:href="#SVGID_25_"  overflow="visible"/>
				</clipPath>
				
					<path opacity="0.5" clip-path="url(#SVGID_26_)" fill="#008000" stroke="#000000" stroke-linecap="square" stroke-linejoin="round" enable-background="new    " d="
					M167.2,398.52h7.821l0,0H167.2z"/>
			</g>
		</g>
		<g id="patch_16">
			<g>
				<defs>
					<rect id="SVGID_27_" x="73.35" y="44.28" width="454.77" height="354.239"/>
				</defs>
				<clipPath id="SVGID_28_">
					<use xlink:href="#SVGID_27_"  overflow="visible"/>
				</clipPath>
				
					<path opacity="0.5" clip-path="url(#SVGID_28_)" fill="#008000" stroke="#000000" stroke-linecap="square" stroke-linejoin="round" enable-background="new    " d="
					M175.021,398.52h7.821l0,0H175.021z"/>
			</g>
		</g>
		<g id="patch_17">
			<g>
				<defs>
					<rect id="SVGID_29_" x="73.35" y="44.28" width="454.77" height="354.239"/>
				</defs>
				<clipPath id="SVGID_30_">
					<use xlink:href="#SVGID_29_"  overflow="visible"/>
				</clipPath>
				
					<path opacity="0.5" clip-path="url(#SVGID_30_)" fill="#008000" stroke="#000000" stroke-linecap="square" stroke-linejoin="round" enable-background="new    " d="
					M182.842,398.52h7.821l0,0H182.842z"/>
			</g>
		</g>
		<g id="patch_18">
			<g>
				<defs>
					<rect id="SVGID_31_" x="73.35" y="44.28" width="454.77" height="354.239"/>
				</defs>
				<clipPath id="SVGID_32_">
					<use xlink:href="#SVGID_31_"  overflow="visible"/>
				</clipPath>
				
					<path opacity="0.5" clip-path="url(#SVGID_32_)" fill="#008000" stroke="#000000" stroke-linecap="square" stroke-linejoin="round" enable-background="new    " d="
					M190.663,398.52h7.821l0,0H190.663z"/>
			</g>
		</g>
		<g id="patch_19">
			<g>
				<defs>
					<rect id="SVGID_33_" x="73.35" y="44.28" width="454.77" height="354.239"/>
				</defs>
				<clipPath id="SVGID_34_">
					<use xlink:href="#SVGID_33_"  overflow="visible"/>
				</clipPath>
				
					<path opacity="0.5" clip-path="url(#SVGID_34_)" fill="#008000" stroke="#000000" stroke-linecap="square" stroke-linejoin="round" enable-background="new    " d="
					M198.484,398.52h7.821l0,0H198.484z"/>
			</g>
		</g>
		<g id="patch_20">
			<g>
				<defs>
					<rect id="SVGID_35_" x="73.35" y="44.28" width="454.77" height="354.239"/>
				</defs>
				<clipPath id="SVGID_36_">
					<use xlink:href="#SVGID_35_"  overflow="visible"/>
				</clipPath>
				
					<path opacity="0.5" clip-path="url(#SVGID_36_)" fill="#008000" stroke="#000000" stroke-linecap="square" stroke-linejoin="round" enable-background="new    " d="
					M206.305,398.52h7.82l0,0H206.305z"/>
			</g>
		</g>
		<g id="patch_21">
			<g>
				<defs>
					<rect id="SVGID_37_" x="73.35" y="44.28" width="454.77" height="354.239"/>
				</defs>
				<clipPath id="SVGID_38_">
					<use xlink:href="#SVGID_37_"  overflow="visible"/>
				</clipPath>
				
					<path opacity="0.5" clip-path="url(#SVGID_38_)" fill="#008000" stroke="#000000" stroke-linecap="square" stroke-linejoin="round" enable-background="new    " d="
					M214.125,398.52h7.821l0,0H214.125z"/>
			</g>
		</g>
		<g id="patch_22">
			<g>
				<defs>
					<rect id="SVGID_39_" x="73.35" y="44.28" width="454.77" height="354.239"/>
				</defs>
				<clipPath id="SVGID_40_">
					<use xlink:href="#SVGID_39_"  overflow="visible"/>
				</clipPath>
				
					<path opacity="0.5" clip-path="url(#SVGID_40_)" fill="#008000" stroke="#000000" stroke-linecap="square" stroke-linejoin="round" enable-background="new    " d="
					M221.946,398.52h7.821l0,0H221.946z"/>
			</g>
		</g>
		<g id="patch_23">
			<g>
				<defs>
					<rect id="SVGID_41_" x="73.35" y="44.28" width="454.77" height="354.239"/>
				</defs>
				<clipPath id="SVGID_42_">
					<use xlink:href="#SVGID_41_"  overflow="visible"/>
				</clipPath>
				
					<path opacity="0.5" clip-path="url(#SVGID_42_)" fill="#008000" stroke="#000000" stroke-linecap="square" stroke-linejoin="round" enable-background="new    " d="
					M229.767,398.52h7.821l0,0H229.767z"/>
			</g>
		</g>
		<g id="patch_24">
			<g>
				<defs>
					<rect id="SVGID_43_" x="73.35" y="44.28" width="454.77" height="354.239"/>
				</defs>
				<clipPath id="SVGID_44_">
					<use xlink:href="#SVGID_43_"  overflow="visible"/>
				</clipPath>
				
					<path opacity="0.5" clip-path="url(#SVGID_44_)" fill="#008000" stroke="#000000" stroke-linecap="square" stroke-linejoin="round" enable-background="new    " d="
					M237.588,398.52h7.821l0,0H237.588z"/>
			</g>
		</g>
		<g id="patch_25">
			<g>
				<defs>
					<rect id="SVGID_45_" x="73.35" y="44.28" width="454.77" height="354.239"/>
				</defs>
				<clipPath id="SVGID_46_">
					<use xlink:href="#SVGID_45_"  overflow="visible"/>
				</clipPath>
				
					<path opacity="0.5" clip-path="url(#SVGID_46_)" fill="#008000" stroke="#000000" stroke-linecap="square" stroke-linejoin="round" enable-background="new    " d="
					M245.409,398.52h7.821l0,0H245.409z"/>
			</g>
		</g>
		<g id="patch_26">
			<g>
				<defs>
					<rect id="SVGID_47_" x="73.35" y="44.28" width="454.77" height="354.239"/>
				</defs>
				<clipPath id="SVGID_48_">
					<use xlink:href="#SVGID_47_"  overflow="visible"/>
				</clipPath>
				
					<path opacity="0.5" clip-path="url(#SVGID_48_)" fill="#008000" stroke="#000000" stroke-linecap="square" stroke-linejoin="round" enable-background="new    " d="
					M253.23,398.52h7.821l0,0H253.23z"/>
			</g>
		</g>
		<g id="patch_27">
			<g>
				<defs>
					<rect id="SVGID_49_" x="73.35" y="44.28" width="454.77" height="354.239"/>
				</defs>
				<clipPath id="SVGID_50_">
					<use xlink:href="#SVGID_49_"  overflow="visible"/>
				</clipPath>
				
					<path opacity="0.5" clip-path="url(#SVGID_50_)" fill="#008000" stroke="#000000" stroke-linecap="square" stroke-linejoin="round" enable-background="new    " d="
					M261.051,398.52h7.821l0,0H261.051z"/>
			</g>
		</g>
		<g id="patch_28">
			<g>
				<defs>
					<rect id="SVGID_51_" x="73.35" y="44.28" width="454.77" height="354.239"/>
				</defs>
				<clipPath id="SVGID_52_">
					<use xlink:href="#SVGID_51_"  overflow="visible"/>
				</clipPath>
				
					<path opacity="0.5" clip-path="url(#SVGID_52_)" fill="#008000" stroke="#000000" stroke-linecap="square" stroke-linejoin="round" enable-background="new    " d="
					M268.872,398.52h7.82l0,0H268.872z"/>
			</g>
		</g>
		<g id="patch_29">
			<g>
				<defs>
					<rect id="SVGID_53_" x="73.35" y="44.28" width="454.77" height="354.239"/>
				</defs>
				<clipPath id="SVGID_54_">
					<use xlink:href="#SVGID_53_"  overflow="visible"/>
				</clipPath>
				
					<path opacity="0.5" clip-path="url(#SVGID_54_)" fill="#008000" stroke="#000000" stroke-linecap="square" stroke-linejoin="round" enable-background="new    " d="
					M276.692,398.52h7.821l0,0H276.692z"/>
			</g>
		</g>
		<g id="patch_30">
			<g>
				<defs>
					<rect id="SVGID_55_" x="73.35" y="44.28" width="454.77" height="354.239"/>
				</defs>
				<clipPath id="SVGID_56_">
					<use xlink:href="#SVGID_55_"  overflow="visible"/>
				</clipPath>
				
					<path opacity="0.5" clip-path="url(#SVGID_56_)" fill="#008000" stroke="#000000" stroke-linecap="square" stroke-linejoin="round" enable-background="new    " d="
					M284.513,398.52h7.821l0,0H284.513z"/>
			</g>
		</g>
		<g id="patch_31">
			<g>
				<defs>
					<rect id="SVGID_57_" x="73.35" y="44.28" width="454.77" height="354.239"/>
				</defs>
				<clipPath id="SVGID_58_">
					<use xlink:href="#SVGID_57_"  overflow="visible"/>
				</clipPath>
				
					<path opacity="0.5" clip-path="url(#SVGID_58_)" fill="#008000" stroke="#000000" stroke-linecap="square" stroke-linejoin="round" enable-background="new    " d="
					M292.334,398.52h7.821l0,0H292.334z"/>
			</g>
		</g>
		<g id="patch_32">
			<g>
				<defs>
					<rect id="SVGID_59_" x="73.35" y="44.28" width="454.77" height="354.239"/>
				</defs>
				<clipPath id="SVGID_60_">
					<use xlink:href="#SVGID_59_"  overflow="visible"/>
				</clipPath>
				
					<path opacity="0.5" clip-path="url(#SVGID_60_)" fill="#008000" stroke="#000000" stroke-linecap="square" stroke-linejoin="round" enable-background="new    " d="
					M300.155,398.52h7.821l0,0H300.155z"/>
			</g>
		</g>
		<g id="patch_33">
			<g>
				<defs>
					<rect id="SVGID_61_" x="73.35" y="44.28" width="454.77" height="354.239"/>
				</defs>
				<clipPath id="SVGID_62_">
					<use xlink:href="#SVGID_61_"  overflow="visible"/>
				</clipPath>
				
					<path opacity="0.5" clip-path="url(#SVGID_62_)" fill="#008000" stroke="#000000" stroke-linecap="square" stroke-linejoin="round" enable-background="new    " d="
					M307.977,398.52h7.82l0,0H307.977z"/>
			</g>
		</g>
		<g id="patch_34">
			<g>
				<defs>
					<rect id="SVGID_63_" x="73.35" y="44.28" width="454.77" height="354.239"/>
				</defs>
				<clipPath id="SVGID_64_">
					<use xlink:href="#SVGID_63_"  overflow="visible"/>
				</clipPath>
				
					<path opacity="0.5" clip-path="url(#SVGID_64_)" fill="#008000" stroke="#000000" stroke-linecap="square" stroke-linejoin="round" enable-background="new    " d="
					M315.797,398.52h7.821l0,0H315.797z"/>
			</g>
		</g>
		<g id="patch_35">
			<g>
				<defs>
					<rect id="SVGID_65_" x="73.35" y="44.28" width="454.77" height="354.239"/>
				</defs>
				<clipPath id="SVGID_66_">
					<use xlink:href="#SVGID_65_"  overflow="visible"/>
				</clipPath>
				
					<path opacity="0.5" clip-path="url(#SVGID_66_)" fill="#008000" stroke="#000000" stroke-linecap="square" stroke-linejoin="round" enable-background="new    " d="
					M323.618,398.52h7.819l0,0H323.618z"/>
			</g>
		</g>
		<g id="patch_36">
			<g>
				<defs>
					<rect id="SVGID_67_" x="73.35" y="44.28" width="454.77" height="354.239"/>
				</defs>
				<clipPath id="SVGID_68_">
					<use xlink:href="#SVGID_67_"  overflow="visible"/>
				</clipPath>
				
					<path opacity="0.5" clip-path="url(#SVGID_68_)" fill="#008000" stroke="#000000" stroke-linecap="square" stroke-linejoin="round" enable-background="new    " d="
					M331.438,398.52h7.821l0,0H331.438z"/>
			</g>
		</g>
		<g id="patch_37">
			<g>
				<defs>
					<rect id="SVGID_69_" x="73.35" y="44.28" width="454.77" height="354.239"/>
				</defs>
				<clipPath id="SVGID_70_">
					<use xlink:href="#SVGID_69_"  overflow="visible"/>
				</clipPath>
				
					<path opacity="0.5" clip-path="url(#SVGID_70_)" fill="#008000" stroke="#000000" stroke-linecap="square" stroke-linejoin="round" enable-background="new    " d="
					M339.259,398.52h7.821l0,0H339.259z"/>
			</g>
		</g>
		<g id="patch_38">
			<g>
				<defs>
					<rect id="SVGID_71_" x="73.35" y="44.28" width="454.77" height="354.239"/>
				</defs>
				<clipPath id="SVGID_72_">
					<use xlink:href="#SVGID_71_"  overflow="visible"/>
				</clipPath>
				
					<path opacity="0.5" clip-path="url(#SVGID_72_)" fill="#008000" stroke="#000000" stroke-linecap="square" stroke-linejoin="round" enable-background="new    " d="
					M347.08,398.52h7.82l0,0H347.08z"/>
			</g>
		</g>
		<g id="patch_39">
			<g>
				<defs>
					<rect id="SVGID_73_" x="73.35" y="44.28" width="454.77" height="354.239"/>
				</defs>
				<clipPath id="SVGID_74_">
					<use xlink:href="#SVGID_73_"  overflow="visible"/>
				</clipPath>
				
					<path opacity="0.5" clip-path="url(#SVGID_74_)" fill="#008000" stroke="#000000" stroke-linecap="square" stroke-linejoin="round" enable-background="new    " d="
					M354.9,398.52h7.822l0,0H354.9z"/>
			</g>
		</g>
		<g id="patch_40">
			<g>
				<defs>
					<rect id="SVGID_75_" x="73.35" y="44.28" width="454.77" height="354.239"/>
				</defs>
				<clipPath id="SVGID_76_">
					<use xlink:href="#SVGID_75_"  overflow="visible"/>
				</clipPath>
				
					<path opacity="0.5" clip-path="url(#SVGID_76_)" fill="#008000" stroke="#000000" stroke-linecap="square" stroke-linejoin="round" enable-background="new    " d="
					M362.723,398.52h7.82l0,0H362.723z"/>
			</g>
		</g>
		<g id="patch_41">
			<g>
				<defs>
					<rect id="SVGID_77_" x="73.35" y="44.28" width="454.77" height="354.239"/>
				</defs>
				<clipPath id="SVGID_78_">
					<use xlink:href="#SVGID_77_"  overflow="visible"/>
				</clipPath>
				
					<path opacity="0.5" clip-path="url(#SVGID_78_)" fill="#008000" stroke="#000000" stroke-linecap="square" stroke-linejoin="round" enable-background="new    " d="
					M370.543,398.52h7.821l0,0H370.543z"/>
			</g>
		</g>
		<g id="patch_42">
			<g>
				<defs>
					<rect id="SVGID_79_" x="73.35" y="44.28" width="454.77" height="354.239"/>
				</defs>
				<clipPath id="SVGID_80_">
					<use xlink:href="#SVGID_79_"  overflow="visible"/>
				</clipPath>
				
					<path opacity="0.5" clip-path="url(#SVGID_80_)" fill="#008000" stroke="#000000" stroke-linecap="square" stroke-linejoin="round" enable-background="new    " d="
					M378.364,398.52h7.819l0,0H378.364z"/>
			</g>
		</g>
		<g id="patch_43">
			<g>
				<defs>
					<rect id="SVGID_81_" x="73.35" y="44.28" width="454.77" height="354.239"/>
				</defs>
				<clipPath id="SVGID_82_">
					<use xlink:href="#SVGID_81_"  overflow="visible"/>
				</clipPath>
				
					<path opacity="0.5" clip-path="url(#SVGID_82_)" fill="#008000" stroke="#000000" stroke-linecap="square" stroke-linejoin="round" enable-background="new    " d="
					M386.184,398.52h7.821l0,0H386.184z"/>
			</g>
		</g>
		<g id="patch_44">
			<g>
				<defs>
					<rect id="SVGID_83_" x="73.35" y="44.28" width="454.77" height="354.239"/>
				</defs>
				<clipPath id="SVGID_84_">
					<use xlink:href="#SVGID_83_"  overflow="visible"/>
				</clipPath>
				
					<path opacity="0.5" clip-path="url(#SVGID_84_)" fill="#008000" stroke="#000000" stroke-linecap="square" stroke-linejoin="round" enable-background="new    " d="
					M394.005,398.52h7.821l0,0H394.005z"/>
			</g>
		</g>
		<g id="patch_45">
			<g>
				<defs>
					<rect id="SVGID_85_" x="73.35" y="44.28" width="454.77" height="354.239"/>
				</defs>
				<clipPath id="SVGID_86_">
					<use xlink:href="#SVGID_85_"  overflow="visible"/>
				</clipPath>
				
					<path opacity="0.5" clip-path="url(#SVGID_86_)" fill="#008000" stroke="#000000" stroke-linecap="square" stroke-linejoin="round" enable-background="new    " d="
					M401.826,398.52h7.82l0,0H401.826z"/>
			</g>
		</g>
		<g id="patch_46">
			<g>
				<defs>
					<rect id="SVGID_87_" x="73.35" y="44.28" width="454.77" height="354.239"/>
				</defs>
				<clipPath id="SVGID_88_">
					<use xlink:href="#SVGID_87_"  overflow="visible"/>
				</clipPath>
				
					<path opacity="0.5" clip-path="url(#SVGID_88_)" fill="#008000" stroke="#000000" stroke-linecap="square" stroke-linejoin="round" enable-background="new    " d="
					M409.646,398.52h7.821l0,0H409.646z"/>
			</g>
		</g>
		<g id="patch_47">
			<g>
				<defs>
					<rect id="SVGID_89_" x="73.35" y="44.28" width="454.77" height="354.239"/>
				</defs>
				<clipPath id="SVGID_90_">
					<use xlink:href="#SVGID_89_"  overflow="visible"/>
				</clipPath>
				
					<path opacity="0.5" clip-path="url(#SVGID_90_)" fill="#008000" stroke="#000000" stroke-linecap="square" stroke-linejoin="round" enable-background="new    " d="
					M417.468,398.52h7.821l0,0H417.468z"/>
			</g>
		</g>
		<g id="patch_48">
			<g>
				<defs>
					<rect id="SVGID_91_" x="73.35" y="44.28" width="454.77" height="354.239"/>
				</defs>
				<clipPath id="SVGID_92_">
					<use xlink:href="#SVGID_91_"  overflow="visible"/>
				</clipPath>
				
					<path opacity="0.5" clip-path="url(#SVGID_92_)" fill="#008000" stroke="#000000" stroke-linecap="square" stroke-linejoin="round" enable-background="new    " d="
					M425.289,398.52h7.821l0,0H425.289z"/>
			</g>
		</g>
		<g id="patch_49">
			<g>
				<defs>
					<rect id="SVGID_93_" x="73.35" y="44.28" width="454.77" height="354.239"/>
				</defs>
				<clipPath id="SVGID_94_">
					<use xlink:href="#SVGID_93_"  overflow="visible"/>
				</clipPath>
				
					<path opacity="0.5" clip-path="url(#SVGID_94_)" fill="#008000" stroke="#000000" stroke-linecap="square" stroke-linejoin="round" enable-background="new    " d="
					M433.11,398.52h7.819l0,0H433.11z"/>
			</g>
		</g>
		<g id="patch_50">
			<g>
				<defs>
					<rect id="SVGID_95_" x="73.35" y="44.28" width="454.77" height="354.239"/>
				</defs>
				<clipPath id="SVGID_96_">
					<use xlink:href="#SVGID_95_"  overflow="visible"/>
				</clipPath>
				
					<path opacity="0.5" clip-path="url(#SVGID_96_)" fill="#008000" stroke="#000000" stroke-linecap="square" stroke-linejoin="round" enable-background="new    " d="
					M440.93,398.52h7.821l0,0H440.93z"/>
			</g>
		</g>
		<g id="patch_51">
			<g>
				<defs>
					<rect id="SVGID_97_" x="73.35" y="44.28" width="454.77" height="354.239"/>
				</defs>
				<clipPath id="SVGID_98_">
					<use xlink:href="#SVGID_97_"  overflow="visible"/>
				</clipPath>
				
					<path opacity="0.5" clip-path="url(#SVGID_98_)" fill="#008000" stroke="#000000" stroke-linecap="square" stroke-linejoin="round" enable-background="new    " d="
					M448.751,398.52h7.821l0,0H448.751z"/>
			</g>
		</g>
		<g id="patch_52">
			<g>
				<defs>
					<rect id="SVGID_99_" x="73.35" y="44.28" width="454.77" height="354.239"/>
				</defs>
				<clipPath id="SVGID_100_">
					<use xlink:href="#SVGID_99_"  overflow="visible"/>
				</clipPath>
				
					<path opacity="0.5" clip-path="url(#SVGID_100_)" fill="#008000" stroke="#000000" stroke-linecap="square" stroke-linejoin="round" enable-background="new    " d="
					M456.572,398.52h7.82v-3.542h-7.82V398.52z"/>
			</g>
		</g>
		<g id="matplotlib.axis_1">
			<g id="xtick_1">
				<g id="line2d_1">
					<g>
						<g>
							<path id="mcb557df647" stroke="#000000" stroke-width="0.5" stroke-linejoin="round" d="M73.35,398.52v-4"/>
						</g>
					</g>
				</g>
				<g id="line2d_2">
					<g>
						<g>
							<path id="mdad270ee8e" stroke="#000000" stroke-width="0.5" stroke-linejoin="round" d="M73.35,44.28v4"/>
						</g>
					</g>
				</g>
				<g id="text_1">
					<g transform="translate(64.6021875 411.42625)scale(0.12 -0.12)">
						<g>
							<path id="BitstreamVeraSans-Roman-30" d="M31.782,66.41c-5.074,0-8.891-2.506-11.454-7.503
								c-2.551-4.989-3.829-12.5-3.829-22.534c0-9.985,1.278-17.48,3.829-22.485c2.563-4.997,6.38-7.495,11.454-7.495
								c5.115,0,8.948,2.498,11.499,7.495c2.563,5.005,3.845,12.5,3.845,22.485c0,10.034-1.282,17.546-3.845,22.534
								C40.729,63.904,36.896,66.41,31.782,66.41 M31.782,74.222c8.175,0,14.421-3.239,18.734-9.708
								c4.313-6.454,6.47-15.837,6.47-28.141c0-12.272-2.157-21.639-6.47-28.109C46.203,1.81,39.957-1.42,31.782-1.42
								c-8.167,0-14.408,3.231-18.717,9.684c-4.313,6.47-6.47,15.836-6.47,28.109c0,12.305,2.157,21.688,6.47,28.141
								C17.374,70.984,23.615,74.222,31.782,74.222"/>
						</g>
						<g>
							<path id="BitstreamVeraSans-Roman-2e" d="M74.311,12.406h10.311V0.004H74.311V12.406z"/>
						</g>
						<g>
							<path id="BitstreamVeraSans-Roman-30_1_" d="M127.192,66.41c-5.074,0-8.891-2.506-11.454-7.503
								c-2.551-4.989-3.829-12.5-3.829-22.534c0-9.985,1.278-17.48,3.829-22.485c2.563-4.997,6.38-7.495,11.454-7.495
								c5.115,0,8.948,2.498,11.499,7.495c2.563,5.005,3.845,12.5,3.845,22.485c0,10.034-1.282,17.546-3.845,22.534
								C136.14,63.904,132.307,66.41,127.192,66.41 M127.192,74.222c8.175,0,14.421-3.239,18.734-9.708
								c4.313-6.454,6.47-15.837,6.47-28.141c0-12.272-2.157-21.639-6.47-28.109c-4.313-6.454-10.559-9.684-18.734-9.684
								c-8.167,0-14.408,3.231-18.717,9.684c-4.313,6.47-6.47,15.836-6.47,28.109c0,12.305,2.157,21.688,6.47,28.141
								C112.784,70.984,119.025,74.222,127.192,74.222"/>
						</g>
					</g>
				</g>
			</g>
			<g id="xtick_2">
				<g id="line2d_3">
					<g>
						<g>
							<path id="mcb557df647_1_" stroke="#000000" stroke-width="0.5" stroke-linejoin="round" d="M138.317,398.52v-4"/>
						</g>
					</g>
				</g>
				<g id="line2d_4">
					<g>
						<g>
							<path id="mdad270ee8e_1_" stroke="#000000" stroke-width="0.5" stroke-linejoin="round" d="M138.317,44.28v4"/>
						</g>
					</g>
				</g>
				<g id="text_2">
					<g transform="translate(129.694955357 411.42625)scale(0.12 -0.12)">
						<g>
							<path id="BitstreamVeraSans-Roman-30_2_" d="M31.782,66.41c-5.074,0-8.891-2.506-11.455-7.503
								c-2.551-4.989-3.829-12.5-3.829-22.534c0-9.985,1.277-17.48,3.829-22.485c2.563-4.997,6.38-7.495,11.455-7.495
								c5.115,0,8.948,2.498,11.499,7.495c2.563,5.005,3.845,12.5,3.845,22.485c0,10.034-1.282,17.546-3.845,22.534
								C40.729,63.904,36.896,66.41,31.782,66.41 M31.782,74.222c8.174,0,14.42-3.239,18.733-9.708
								c4.313-6.454,6.47-15.837,6.47-28.141c0-12.272-2.156-21.639-6.47-28.109C46.202,1.81,39.956-1.42,31.782-1.42
								c-8.167,0-14.409,3.231-18.718,9.684c-4.313,6.47-6.47,15.836-6.47,28.109c0,12.305,2.157,21.688,6.47,28.141
								C17.373,70.984,23.615,74.222,31.782,74.222"/>
						</g>
						<g>
							<path id="BitstreamVeraSans-Roman-2e_1_" d="M74.311,12.406h10.311V0.004H74.311V12.406z"/>
						</g>
						<g>
							<path id="BitstreamVeraSans-Roman-35" d="M106.208,72.904h38.716v-8.309h-29.688V46.732c1.428,0.488,2.856,0.854,4.281,1.099
								c1.44,0.236,2.877,0.358,4.313,0.358c8.138,0,14.58-2.23,19.328-6.689c4.761-4.46,7.141-10.498,7.141-18.107
								c0-7.845-2.441-13.948-7.329-18.302c-4.883-4.338-11.771-6.51-20.654-6.51c-3.064,0-6.185,0.26-9.358,0.781
								c-3.17,0.521-6.445,1.302-9.831,2.344v9.92c2.93-1.595,5.953-2.783,9.078-3.564s6.429-1.172,9.908-1.172
								c5.635,0,10.091,1.481,13.375,4.443c3.292,2.954,4.936,6.974,4.936,12.061c0,5.07-1.644,9.09-4.936,12.044
								c-3.284,2.97-7.739,4.451-13.375,4.451c-2.637,0-5.266-0.293-7.89-0.871c-2.616-0.586-5.29-1.497-8.016-2.734V72.904z"/>
						</g>
					</g>
				</g>
			</g>
			<g id="xtick_3">
				<g id="line2d_5">
					<g>
						<g>
							<path id="mcb557df647_2_" stroke="#000000" stroke-width="0.5" stroke-linejoin="round" d="M203.284,398.52v-4"/>
						</g>
					</g>
				</g>
				<g id="line2d_6">
					<g>
						<g>
							<path id="mdad270ee8e_2_" stroke="#000000" stroke-width="0.5" stroke-linejoin="round" d="M203.284,44.28v4"/>
						</g>
					</g>
				</g>
				<g id="text_3">
					<g transform="translate(194.799910714 411.42625)scale(0.12 -0.12)">
						<g>
							<path id="BitstreamVeraSans-Roman-31" d="M12.405,8.296h16.109V63.92l-17.529-3.516v8.984l17.436,3.516h9.859V8.296H54.39
								V0.004H12.405V8.296z"/>
						</g>
						<g>
							<path id="BitstreamVeraSans-Roman-2e_2_" d="M74.312,12.406h10.311V0.004H74.312V12.406z"/>
						</g>
						<g>
							<path id="BitstreamVeraSans-Roman-30_3_" d="M127.192,66.41c-5.074,0-8.891-2.506-11.455-7.503
								c-2.551-4.989-3.829-12.5-3.829-22.534c0-9.985,1.277-17.48,3.829-22.485c2.563-4.997,6.38-7.495,11.455-7.495
								c5.115,0,8.948,2.498,11.499,7.495c2.563,5.005,3.845,12.5,3.845,22.485c0,10.034-1.282,17.546-3.845,22.534
								C136.14,63.904,132.307,66.41,127.192,66.41 M127.192,74.222c8.174,0,14.42-3.239,18.733-9.708
								c4.313-6.454,6.47-15.837,6.47-28.141c0-12.272-2.156-21.639-6.47-28.109c-4.313-6.454-10.559-9.684-18.733-9.684
								c-8.167,0-14.409,3.231-18.722,9.684c-4.309,6.47-6.466,15.836-6.466,28.109c0,12.305,2.157,21.688,6.466,28.141
								C112.784,70.984,119.026,74.222,127.192,74.222"/>
						</g>
					</g>
				</g>
			</g>
			<g id="xtick_4">
				<g id="line2d_7">
					<g>
						<g>
							<path id="mcb557df647_3_" stroke="#000000" stroke-width="0.5" stroke-linejoin="round" d="M268.252,398.52v-4"/>
						</g>
					</g>
				</g>
				<g id="line2d_8">
					<g>
						<g>
							<path id="mdad270ee8e_3_" stroke="#000000" stroke-width="0.5" stroke-linejoin="round" d="M268.252,44.28v4"/>
						</g>
					</g>
				</g>
				<g id="text_4">
					<g transform="translate(259.892678571 411.26875)scale(0.12 -0.12)">
						<g>
							<path id="BitstreamVeraSans-Roman-31_1_" d="M12.406,8.294h16.109v55.631L10.986,60.41v8.984l17.436,3.516h9.859V8.294H54.39
								V0.001H12.406V8.294z"/>
						</g>
						<g>
							<path id="BitstreamVeraSans-Roman-2e_3_" d="M74.312,12.404h10.311V0.001H74.312V12.404z"/>
						</g>
						<g>
							<path id="BitstreamVeraSans-Roman-35_1_" d="M106.208,72.91h38.717v-8.317h-29.688V46.738
								c1.428,0.488,2.856,0.846,4.281,1.091c1.44,0.236,2.876,0.358,4.313,0.358c8.138,0,14.579-2.23,19.328-6.689
								c4.761-4.46,7.141-10.49,7.141-18.107c0-7.845-2.441-13.94-7.328-18.294c-4.883-4.346-11.771-6.519-20.654-6.519
								c-3.064,0-6.185,0.26-9.359,0.781c-3.169,0.521-6.445,1.302-9.831,2.344v9.92c2.93-1.595,5.953-2.775,9.078-3.556
								s6.429-1.172,9.908-1.172c5.636,0,10.095,1.473,13.375,4.435c3.292,2.954,4.936,6.974,4.936,12.061
								c0,5.07-1.644,9.09-4.936,12.044c-3.28,2.97-7.739,4.46-13.375,4.46c-2.637,0-5.265-0.293-7.89-0.879
								c-2.616-0.586-5.29-1.497-8.016-2.734V72.91z"/>
						</g>
					</g>
				</g>
			</g>
			<g id="xtick_5">
				<g id="line2d_9">
					<g>
						<g>
							<path id="mcb557df647_4_" stroke="#000000" stroke-width="0.5" stroke-linejoin="round" d="M333.219,398.52v-4"/>
						</g>
					</g>
				</g>
				<g id="line2d_10">
					<g>
						<g>
							<path id="mdad270ee8e_4_" stroke="#000000" stroke-width="0.5" stroke-linejoin="round" d="M333.219,44.28v4"/>
						</g>
					</g>
				</g>
				<g id="text_5">
					<g transform="translate(324.514821429 411.42625)scale(0.12 -0.12)">
						<g>
							<path id="BitstreamVeraSans-Roman-32" d="M19.189,8.296h34.416V0.004H7.332v8.293c3.735,3.874,8.838,9.074,15.3,15.593
								c6.462,6.535,10.53,10.75,12.183,12.638c3.157,3.548,5.363,6.543,6.608,9.001c1.261,2.458,1.896,4.875,1.896,7.251
								c0,3.874-1.367,7.031-4.085,9.473c-2.718,2.449-6.258,3.67-10.628,3.67c-3.093,0-6.356-0.537-9.79-1.611
								c-3.427-1.074-7.097-2.702-11.003-4.891v9.969c3.972,1.595,7.674,2.8,11.125,3.613c3.458,0.814,6.624,1.221,9.488,1.221
								c7.553,0,13.574-1.896,18.059-5.672c4.492-3.776,6.73-8.813,6.73-15.129c0-3.003-0.554-5.843-1.677-8.529
								c-1.123-2.677-3.157-5.843-6.136-9.489c-0.806-0.944-3.394-3.678-7.764-8.187C33.293,22.709,27.141,16.402,19.189,8.296"/>
						</g>
						<g>
							<path id="BitstreamVeraSans-Roman-2e_4_" d="M74.309,12.406h10.318V0.004H74.309V12.406z"/>
						</g>
						<g>
							<path id="BitstreamVeraSans-Roman-30_4_" d="M127.189,66.41c-5.07,0-8.887-2.506-11.45-7.503
								c-2.548-4.989-3.833-12.5-3.833-22.534c0-9.985,1.285-17.48,3.833-22.485c2.563-4.997,6.38-7.495,11.45-7.495
								c5.118,0,8.951,2.498,11.507,7.495c2.556,5.005,3.841,12.5,3.841,22.485c0,10.034-1.285,17.546-3.841,22.534
								C136.141,63.904,132.308,66.41,127.189,66.41 M127.189,74.222c8.179,0,14.42-3.239,18.733-9.708
								c4.313-6.454,6.478-15.837,6.478-28.141c0-12.272-2.164-21.639-6.478-28.109c-4.313-6.454-10.555-9.684-18.733-9.684
								c-8.163,0-14.404,3.231-18.718,9.684c-4.313,6.47-6.462,15.836-6.462,28.109c0,12.305,2.148,21.688,6.462,28.141
								C112.785,70.984,119.026,74.222,127.189,74.222"/>
						</g>
					</g>
				</g>
			</g>
			<g id="xtick_6">
				<g id="line2d_11">
					<g>
						<g>
							<path id="mcb557df647_5_" stroke="#000000" stroke-width="0.5" stroke-linejoin="round" d="M398.186,398.52v-4"/>
						</g>
					</g>
				</g>
				<g id="line2d_12">
					<g>
						<g>
							<path id="mdad270ee8e_5_" stroke="#000000" stroke-width="0.5" stroke-linejoin="round" d="M398.186,44.28v4"/>
						</g>
					</g>
				</g>
				<g id="text_6">
					<g transform="translate(389.607589286 411.42625)scale(0.12 -0.12)">
						<g>
							<path id="BitstreamVeraSans-Roman-32_1_" d="M19.189,8.296h34.424V0.004H7.324v8.293c3.744,3.874,8.838,9.074,15.3,15.593
								c6.47,6.535,10.53,10.75,12.19,12.638c3.158,3.548,5.355,6.543,6.608,9.001c1.262,2.458,1.888,4.875,1.888,7.251
								c0,3.874-1.351,7.031-4.077,9.473c-2.718,2.449-6.258,3.67-10.62,3.67c-3.092,0-6.363-0.537-9.798-1.611
								s-7.097-2.702-11.003-4.891v9.969c3.972,1.595,7.683,2.8,11.125,3.613c3.459,0.814,6.616,1.221,9.48,1.221
								c7.553,0,13.574-1.896,18.066-5.672s6.738-8.813,6.738-15.129c0-3.003-0.569-5.843-1.692-8.529
								c-1.106-2.677-3.157-5.843-6.12-9.489c-0.813-0.944-3.401-3.678-7.764-8.187C33.285,22.709,27.133,16.402,19.189,8.296"/>
						</g>
						<g>
							<path id="BitstreamVeraSans-Roman-2e_5_" d="M74.309,12.406h10.319V0.004H74.309V12.406z"/>
						</g>
						<g>
							<path id="BitstreamVeraSans-Roman-35_2_" d="M106.21,72.904h38.721v-8.309h-29.688V46.732
								c1.424,0.488,2.848,0.854,4.28,1.099c1.433,0.236,2.873,0.358,4.313,0.358c8.13,0,14.575-2.23,19.327-6.689
								c4.761-4.46,7.138-10.498,7.138-18.107c0-7.845-2.441-13.948-7.324-18.302c-4.892-4.338-11.776-6.51-20.663-6.51
								c-3.06,0-6.177,0.26-9.358,0.781c-3.166,0.521-6.438,1.302-9.822,2.344v9.92c2.921-1.595,5.948-2.783,9.073-3.564
								s6.43-1.172,9.904-1.172c5.64,0,10.1,1.481,13.379,4.443c3.288,2.954,4.939,6.974,4.939,12.061
								c0,5.07-1.651,9.09-4.939,12.044c-3.279,2.97-7.739,4.451-13.379,4.451c-2.629,0-5.266-0.293-7.886-0.871
								c-2.62-0.586-5.29-1.497-8.016-2.734V72.904z"/>
						</g>
					</g>
				</g>
			</g>
			<g id="xtick_7">
				<g id="line2d_13">
					<g>
						<g>
							<path id="mcb557df647_6_" stroke="#000000" stroke-width="0.5" stroke-linejoin="round" d="M463.153,398.52v-4"/>
						</g>
					</g>
				</g>
				<g id="line2d_14">
					<g>
						<g>
							<path id="mdad270ee8e_6_" stroke="#000000" stroke-width="0.5" stroke-linejoin="round" d="M463.153,44.28v4"/>
						</g>
					</g>
				</g>
				<g id="text_7">
					<g transform="translate(454.466919643 411.42625)scale(0.12 -0.12)">
						<g>
							<path id="BitstreamVeraSans-Roman-33" d="M40.577,39.31c4.72-1.009,8.406-3.109,11.052-6.307
								c2.652-3.19,3.979-7.129,3.979-11.816c0-7.186-2.475-12.752-7.422-16.699C43.238,0.549,36.207-1.42,27.093-1.42
								c-3.052,0-6.193,0.301-9.433,0.903c-3.238,0.602-6.583,1.514-10.034,2.718v9.521c2.727-1.595,5.722-2.799,8.969-3.613
								c3.263-0.814,6.665-1.221,10.221-1.221c6.177,0,10.881,1.221,14.12,3.662c3.247,2.433,4.866,5.981,4.866,10.636
								c0,4.305-1.506,7.658-4.517,10.075c-3.011,2.433-7.202,3.646-12.565,3.646h-8.496v8.105h8.887
								c4.843,0,8.554,0.969,11.125,2.905s3.857,4.736,3.857,8.382c0,3.735-1.326,6.608-3.979,8.602
								c-2.645,2.01-6.445,3.019-11.394,3.019c-2.71,0-5.606-0.293-8.699-0.887c-3.093-0.586-6.494-1.489-10.205-2.726v8.789
								c3.752,1.042,7.259,1.823,10.53,2.344c3.271,0.521,6.356,0.781,9.253,0.781c7.487,0,13.412-1.709,17.766-5.111
								c4.362-3.402,6.543-7.991,6.543-13.786c0-4.036-1.155-7.454-3.467-10.229C48.129,42.313,44.842,40.385,40.577,39.31"/>
						</g>
						<g>
							<path id="BitstreamVeraSans-Roman-2e_6_" d="M74.31,12.406h10.318V0.004H74.31V12.406z"/>
						</g>
						<g>
							<path id="BitstreamVeraSans-Roman-30_5_" d="M127.19,66.41c-5.07,0-8.887-2.506-11.45-7.503
								c-2.556-4.989-3.825-12.5-3.825-22.534c0-9.985,1.27-17.48,3.825-22.485c2.563-4.997,6.38-7.495,11.45-7.495
								c5.118,0,8.951,2.498,11.499,7.495c2.563,5.005,3.849,12.5,3.849,22.485c0,10.034-1.285,17.546-3.849,22.534
								C136.142,63.904,132.309,66.41,127.19,66.41 M127.19,74.222c8.179,0,14.429-3.239,18.741-9.708
								c4.306-6.454,6.462-15.837,6.462-28.141c0-12.272-2.156-21.639-6.462-28.109C141.619,1.81,135.369-1.42,127.19-1.42
								c-8.163,0-14.404,3.231-18.718,9.684c-4.313,6.47-6.47,15.836-6.47,28.109c0,12.305,2.156,21.688,6.47,28.141
								C112.786,70.984,119.027,74.222,127.19,74.222"/>
						</g>
					</g>
				</g>
			</g>
			<g id="xtick_8">
				<g id="line2d_15">
					<g>
						<g>
							<path id="mcb557df647_7_" stroke="#000000" stroke-width="0.5" stroke-linejoin="round" d="M528.12,398.52v-4"/>
						</g>
					</g>
				</g>
				<g id="line2d_16">
					<g>
						<g>
							<path id="mdad270ee8e_7_" stroke="#000000" stroke-width="0.5" stroke-linejoin="round" d="M528.12,44.28v4"/>
						</g>
					</g>
				</g>
				<g id="text_8">
					<g transform="translate(519.5596875 411.42625)scale(0.12 -0.12)">
						<g>
							<path id="BitstreamVeraSans-Roman-33_1_" d="M40.577,39.31c4.721-1.009,8.407-3.109,11.052-6.307
								c2.653-3.19,3.979-7.129,3.979-11.816c0-7.186-2.474-12.752-7.422-16.699C43.238,0.549,36.207-1.42,27.093-1.42
								c-3.052,0-6.193,0.301-9.432,0.903c-3.239,0.602-6.584,1.514-10.034,2.718v9.521c2.734-1.595,5.721-2.799,8.968-3.613
								c3.264-0.814,6.665-1.221,10.222-1.221c6.177,0,10.889,1.221,14.127,3.662c3.239,2.433,4.858,5.981,4.858,10.636
								c0,4.305-1.505,7.658-4.517,10.075c-3.011,2.433-7.202,3.646-12.564,3.646h-8.496v8.105h8.887
								c4.842,0,8.553,0.969,11.124,2.905c2.572,1.937,3.857,4.736,3.857,8.382c0,3.735-1.326,6.608-3.979,8.602
								c-2.645,2.01-6.445,3.019-11.393,3.019c-2.71,0-5.607-0.293-8.7-0.887c-3.101-0.586-6.494-1.489-10.205-2.726v8.789
								c3.752,1.042,7.26,1.823,10.531,2.344c3.271,0.521,6.355,0.781,9.253,0.781c7.486,0,13.411-1.709,17.765-5.111
								c4.362-3.402,6.543-7.991,6.543-13.786c0-4.036-1.155-7.454-3.467-10.229C48.13,42.313,44.842,40.385,40.577,39.31"/>
						</g>
						<g>
							<path id="BitstreamVeraSans-Roman-2e_7_" d="M74.31,12.406h10.319V0.004H74.31V12.406z"/>
						</g>
						<g>
							<path id="BitstreamVeraSans-Roman-35_3_" d="M106.211,72.904h38.721v-8.309h-29.688V46.732
								c1.424,0.488,2.848,0.854,4.28,1.099c1.433,0.236,2.873,0.358,4.313,0.358c8.13,0,14.575-2.23,19.327-6.689
								c4.761-4.46,7.138-10.498,7.138-18.107c0-7.845-2.441-13.948-7.324-18.302c-4.892-4.338-11.776-6.51-20.663-6.51
								c-3.06,0-6.177,0.26-9.358,0.781c-3.166,0.521-6.438,1.302-9.822,2.344v9.92c2.921-1.595,5.948-2.783,9.073-3.564
								s6.43-1.172,9.904-1.172c5.64,0,10.1,1.481,13.379,4.443c3.288,2.954,4.939,6.974,4.939,12.061
								c0,5.07-1.651,9.09-4.939,12.044c-3.279,2.97-7.739,4.451-13.379,4.451c-2.629,0-5.266-0.293-7.886-0.871
								c-2.612-0.586-5.29-1.497-8.016-2.734V72.904z"/>
						</g>
					</g>
				</g>
			</g>
			<g id="text_9">
				<g transform="translate(490.295625 423.503125)scale(0.12 -0.12)">
					<g>
						<path id="BitstreamVeraSans-Roman-31_2_" d="M12.408,8.294h16.113v55.631L10.983,60.41v8.984l17.44,3.516h9.863V8.294h16.104
							V0.001H12.408V8.294z"/>
					</g>
					<g>
						<path id="BitstreamVeraSans-Roman-65" d="M119.83,29.591v-4.386H78.513c0.399-6.193,2.263-10.905,5.6-14.144
							c3.336-3.239,7.975-4.858,13.932-4.858c3.451,0,6.796,0.423,10.034,1.27c3.239,0.838,6.462,2.108,9.66,3.809V2.785
							c-3.23-1.367-6.543-2.409-9.929-3.125c-3.385-0.724-6.812-1.082-10.294-1.082c-8.725,0-15.642,2.539-20.736,7.609
							c-5.086,5.086-7.642,11.963-7.642,20.63c0,8.944,2.426,16.04,7.251,21.289c4.834,5.265,11.361,7.894,19.564,7.894
							c7.356,0,13.175-2.368,17.456-7.113C117.689,44.158,119.83,37.729,119.83,29.591 M110.846,32.236
							c-0.065,4.907-1.44,8.822-4.126,11.751c-2.686,2.938-6.242,4.403-10.669,4.403c-5.014,0-9.025-1.416-12.036-4.248
							c-3.012-2.832-4.745-6.828-5.2-11.971L110.846,32.236z"/>
					</g>
					<g>
						<path id="BitstreamVeraSans-Roman-2212" d="M135.739,35.5h62.598v-8.293h-62.598V35.5z"/>
					</g>
					<g>
						<path id="BitstreamVeraSans-Roman-31_3_" d="M221.344,8.294h16.113v55.631l-17.538-3.516v8.984l17.44,3.516h9.863V8.294
							h16.104V0.001h-41.983V8.294z"/>
					</g>
					<g>
						<path id="BitstreamVeraSans-Roman-32_2_" d="M291.745,8.294h34.424V0.001h-46.28v8.293c3.743,3.874,8.838,9.074,15.299,15.592
							c6.47,6.535,10.531,10.75,12.183,12.646c3.158,3.54,5.363,6.543,6.616,9.001c1.262,2.458,1.889,4.875,1.889,7.251
							c0,3.874-1.359,7.031-4.077,9.465c-2.719,2.449-6.259,3.67-10.629,3.67c-3.092,0-6.355-0.537-9.798-1.603
							c-3.426-1.074-7.088-2.71-10.994-4.891v9.969c3.963,1.587,7.674,2.792,11.124,3.605c3.459,0.814,6.616,1.221,9.481,1.221
							c7.552,0,13.574-1.896,18.066-5.672c4.483-3.776,6.729-8.813,6.729-15.129c0-2.995-0.562-5.843-1.685-8.529
							c-1.114-2.677-3.157-5.835-6.128-9.481c-0.813-0.952-3.401-3.678-7.764-8.195C305.849,22.707,299.696,16.4,291.745,8.294"/>
					</g>
				</g>
			</g>
		</g>
		<g id="matplotlib.axis_2">
			<g id="ytick_1">
				<g id="line2d_17">
					<g>
						<g>
							<path id="mc8fcea1516" stroke="#000000" stroke-width="0.5" stroke-linejoin="round" d="M73.351,398.52h4"/>
						</g>
					</g>
				</g>
				<g id="line2d_18">
					<g>
						<g>
							<path id="m0d5b0a6425" stroke="#000000" stroke-width="0.5" stroke-linejoin="round" d="M528.121,398.52h-4"/>
						</g>
					</g>
				</g>
				<g id="text_10">
					<g transform="translate(63.303125 402.8878125)scale(0.12 -0.12)">
						<g>
							<path id="BitstreamVeraSans-Roman-30_6_" d="M31.784,66.407c-5.07,0-8.891-2.499-11.45-7.503
								c-2.555-4.989-3.829-12.5-3.829-22.526c0-9.994,1.273-17.489,3.829-22.485c2.56-5.005,6.38-7.503,11.45-7.503
								c5.115,0,8.948,2.499,11.503,7.503c2.559,4.997,3.841,12.492,3.841,22.485c0,10.026-1.282,17.537-3.841,22.526
								C40.731,63.909,36.898,66.407,31.784,66.407 M31.784,74.22c8.179,0,14.425-3.239,18.738-9.701
								c4.309-6.461,6.466-15.845,6.466-28.141c0-12.272-2.157-21.647-6.466-28.109c-4.313-6.461-10.559-9.692-18.738-9.692
								c-8.167,0-14.404,3.231-18.717,9.692c-4.313,6.462-6.47,15.837-6.47,28.109c0,12.296,2.157,21.68,6.47,28.141
								C17.379,70.981,23.617,74.22,31.784,74.22"/>
						</g>
					</g>
				</g>
			</g>
			<g id="ytick_2">
				<g id="line2d_19">
					<g>
						<g>
							<path id="mc8fcea1516_1_" stroke="#000000" stroke-width="0.5" stroke-linejoin="round" d="M73.351,327.672h4"/>
						</g>
					</g>
				</g>
				<g id="line2d_20">
					<g>
						<g>
							<path id="m0d5b0a6425_1_" stroke="#000000" stroke-width="0.5" stroke-linejoin="round" d="M528.121,327.672h-4"/>
						</g>
					</g>
				</g>
				<g id="text_11">
					<g transform="translate(55.75625 332.0398125)scale(0.12 -0.12)">
						<g>
							<path id="BitstreamVeraSans-Roman-32_3_" d="M19.19,8.299h34.424v-8.301H7.333v8.301c3.74,3.874,8.838,9.074,15.295,15.593
								c6.47,6.535,10.531,10.742,12.187,12.638c3.157,3.54,5.359,6.543,6.612,9.001c1.257,2.458,1.888,4.875,1.888,7.251
								c0,3.874-1.359,7.031-4.077,9.464c-2.718,2.45-6.262,3.678-10.624,3.678c-3.093,0-6.36-0.537-9.798-1.611
								c-3.426-1.074-7.092-2.702-10.999-4.891v9.969c3.967,1.595,7.678,2.8,11.125,3.613c3.459,0.806,6.621,1.213,9.485,1.213
								c7.552,0,13.57-1.888,18.063-5.672c4.488-3.768,6.734-8.813,6.734-15.121c0-3.003-0.562-5.843-1.689-8.537
								c-1.115-2.677-3.157-5.835-6.124-9.481c-0.814-0.944-3.402-3.678-7.768-8.187C33.29,22.711,27.141,16.405,19.19,8.299"/>
						</g>
						<g>
							<path id="BitstreamVeraSans-Roman-30_7_" d="M95.407,66.405c-5.07,0-8.891-2.499-11.45-7.495
								c-2.555-4.997-3.829-12.5-3.829-22.534c0-9.985,1.273-17.489,3.829-22.486c2.56-4.997,6.38-7.503,11.45-7.503
								c5.115,0,8.948,2.507,11.503,7.503c2.559,4.997,3.841,12.5,3.841,22.486c0,10.034-1.282,17.537-3.841,22.534
								C104.354,63.906,100.521,66.405,95.407,66.405 M95.407,74.217c8.179,0,14.425-3.231,18.738-9.701
								c4.309-6.461,6.466-15.836,6.466-28.141c0-12.272-2.157-21.639-6.466-28.109c-4.313-6.462-10.559-9.692-18.738-9.692
								c-8.167,0-14.404,3.231-18.717,9.692c-4.313,6.47-6.47,15.836-6.47,28.109c0,12.305,2.157,21.68,6.47,28.141
								C81.002,70.986,87.24,74.217,95.407,74.217"/>
						</g>
					</g>
				</g>
			</g>
			<g id="ytick_3">
				<g id="line2d_21">
					<g>
						<g>
							<path id="mc8fcea1516_2_" stroke="#000000" stroke-width="0.5" stroke-linejoin="round" d="M73.351,256.824h4"/>
						</g>
					</g>
				</g>
				<g id="line2d_22">
					<g>
						<g>
							<path id="m0d5b0a6425_2_" stroke="#000000" stroke-width="0.5" stroke-linejoin="round" d="M528.121,256.824h-4"/>
						</g>
					</g>
				</g>
				<g id="text_12">
					<g transform="translate(55.46375 261.1918125)scale(0.12 -0.12)">
						<g>
							<path id="BitstreamVeraSans-Roman-34" d="M37.802,64.311L12.896,25.395h24.907V64.311z M35.206,72.904h12.406v-47.51h10.409
								v-8.203H47.612V0.004h-9.81v17.188H4.896v9.513L35.206,72.904z"/>
						</g>
						<g>
							<path id="BitstreamVeraSans-Roman-30_8_" d="M95.407,66.41c-5.07,0-8.891-2.507-11.45-7.503
								c-2.556-4.989-3.829-12.5-3.829-22.526c0-9.994,1.273-17.489,3.829-22.494c2.559-4.997,6.38-7.495,11.45-7.495
								c5.115,0,8.948,2.499,11.499,7.495c2.563,5.005,3.845,12.5,3.845,22.494c0,10.026-1.282,17.537-3.845,22.526
								C104.355,63.903,100.522,66.41,95.407,66.41 M95.407,74.223c8.179,0,14.424-3.239,18.733-9.701
								c4.313-6.461,6.47-15.845,6.47-28.141c0-12.272-2.156-21.647-6.47-28.109c-4.309-6.461-10.555-9.692-18.733-9.692
								c-8.167,0-14.404,3.231-18.718,9.692c-4.313,6.461-6.47,15.836-6.47,28.109c0,12.296,2.157,21.68,6.47,28.141
								C81.003,70.983,87.241,74.223,95.407,74.223"/>
						</g>
					</g>
				</g>
			</g>
			<g id="ytick_4">
				<g id="line2d_23">
					<g>
						<g>
							<path id="mc8fcea1516_3_" stroke="#000000" stroke-width="0.5" stroke-linejoin="round" d="M73.351,185.976h4"/>
						</g>
					</g>
				</g>
				<g id="line2d_24">
					<g>
						<g>
							<path id="m0d5b0a6425_3_" stroke="#000000" stroke-width="0.5" stroke-linejoin="round" d="M528.121,185.976h-4"/>
						</g>
					</g>
				</g>
				<g id="text_13">
					<g transform="translate(55.715 190.3438125)scale(0.12 -0.12)">
						<g>
							<path id="BitstreamVeraSans-Roman-36" d="M33.019,40.374c-4.427,0-7.935-1.514-10.53-4.545
								c-2.584-3.019-3.874-7.166-3.874-12.439c0-5.237,1.29-9.383,3.874-12.435c2.596-3.043,6.104-4.565,10.53-4.565
								c4.427,0,7.935,1.522,10.519,4.565c2.584,3.052,3.874,7.198,3.874,12.435c0,5.273-1.29,9.42-3.874,12.439
								C40.954,38.86,37.446,40.374,33.019,40.374 M52.599,71.299v-8.984c-2.482,1.164-4.98,2.055-7.499,2.669
								c-2.523,0.627-5.021,0.94-7.503,0.94c-6.51,0-11.482-2.197-14.921-6.596c-3.426-4.395-5.383-11.035-5.875-19.922
								c1.917,2.836,4.325,5.005,7.218,6.519c2.909,1.51,6.1,2.262,9.579,2.262c7.324,0,13.11-2.222,17.362-6.669
								c4.248-4.439,6.372-10.482,6.372-18.127c0-7.487-2.213-13.497-6.641-18.03C46.264,0.84,40.376-1.423,33.019-1.423
								c-8.435,0-14.884,3.231-19.344,9.688C9.22,14.735,6.99,24.106,6.99,36.375c0,11.523,2.734,20.711,8.203,27.563
								c5.469,6.856,12.805,10.282,22.013,10.282c2.482,0,4.98-0.244,7.503-0.736C47.228,72.996,49.857,72.267,52.599,71.299"/>
						</g>
						<g>
							<path id="BitstreamVeraSans-Roman-30_9_" d="M95.409,66.408c-5.074,0-8.891-2.499-11.454-7.499
								c-2.551-4.993-3.829-12.5-3.829-22.534c0-9.99,1.278-17.485,3.829-22.481c2.563-5.001,6.38-7.503,11.454-7.503
								c5.115,0,8.948,2.502,11.499,7.503c2.563,4.997,3.845,12.492,3.845,22.481c0,10.034-1.282,17.542-3.845,22.534
								C104.357,63.909,100.524,66.408,95.409,66.408 M95.409,74.22c8.175,0,14.421-3.235,18.734-9.705
								c4.313-6.458,6.47-15.836,6.47-28.141c0-12.268-2.157-21.639-6.47-28.109c-4.313-6.458-10.559-9.688-18.734-9.688
								c-8.167,0-14.408,3.231-18.717,9.688c-4.313,6.47-6.47,15.841-6.47,28.109c0,12.305,2.157,21.684,6.47,28.141
								C81.001,70.985,87.243,74.22,95.409,74.22"/>
						</g>
					</g>
				</g>
			</g>
			<g id="ytick_5">
				<g id="line2d_25">
					<g>
						<g>
							<path id="mc8fcea1516_4_" stroke="#000000" stroke-width="0.5" stroke-linejoin="round" d="M73.351,115.128h4"/>
						</g>
					</g>
				</g>
				<g id="line2d_26">
					<g>
						<g>
							<path id="m0d5b0a6425_4_" stroke="#000000" stroke-width="0.5" stroke-linejoin="round" d="M528.121,115.128h-4"/>
						</g>
					</g>
				</g>
				<g id="text_14">
					<g transform="translate(55.690625 119.4958125)scale(0.12 -0.12)">
						<g>
							<path id="BitstreamVeraSans-Roman-38" d="M31.787,34.626c-4.688,0-8.374-1.253-11.064-3.764
								c-2.677-2.511-4.016-5.961-4.016-10.348c0-4.395,1.339-7.845,4.016-10.355c2.69-2.511,6.376-3.768,11.064-3.768
								s8.378,1.261,11.08,3.78c2.706,2.531,4.061,5.981,4.061,10.343c0,4.386-1.343,7.837-4.032,10.348
								C40.218,33.373,36.515,34.626,31.787,34.626 M21.928,38.813c-4.232,1.042-7.528,3.011-9.892,5.908
								c-2.352,2.905-3.532,6.441-3.532,10.608c0,5.823,2.075,10.429,6.222,13.814c4.154,3.385,9.843,5.078,17.062,5.078
								c7.259,0,12.959-1.693,17.094-5.078c4.134-3.386,6.201-7.992,6.201-13.814c0-4.167-1.18-7.703-3.544-10.608
								c-2.356-2.897-5.632-4.867-9.831-5.908c4.753-1.103,8.452-3.271,11.096-6.498c2.653-3.219,3.984-7.153,3.984-11.8
								c0-7.072-2.157-12.5-6.47-16.28c-4.313-3.772-10.49-5.656-18.53-5.656c-8.032,0-14.209,1.884-18.53,5.656
								c-4.313,3.78-6.47,9.208-6.47,16.28c0,4.647,1.334,8.582,4,11.8C13.464,35.542,17.175,37.71,21.928,38.813 M18.318,54.393
								c0-3.772,1.176-6.714,3.532-8.83c2.364-2.116,5.676-3.174,9.937-3.174c4.24,0,7.552,1.058,9.937,3.174
								c2.396,2.116,3.593,5.058,3.593,8.83c0,3.78-1.196,6.726-3.593,8.842c-2.385,2.116-5.697,3.174-9.937,3.174
								c-4.26,0-7.573-1.058-9.937-3.174C19.495,61.119,18.318,58.173,18.318,54.393"/>
						</g>
						<g>
							<path id="BitstreamVeraSans-Roman-30_10_" d="M95.41,66.409c-5.074,0-8.891-2.502-11.455-7.503
								c-2.551-4.989-3.829-12.5-3.829-22.53c0-9.989,1.277-17.484,3.829-22.485c2.563-4.997,6.38-7.499,11.455-7.499
								c5.115,0,8.948,2.502,11.499,7.499c2.563,5.001,3.845,12.496,3.845,22.485c0,10.03-1.282,17.542-3.845,22.53
								C104.358,63.907,100.525,66.409,95.41,66.409 M95.41,74.222c8.174,0,14.42-3.235,18.733-9.705
								c4.313-6.458,6.47-15.837,6.47-28.142c0-12.272-2.156-21.639-6.47-28.108c-4.313-6.458-10.559-9.688-18.733-9.688
								c-8.167,0-14.409,3.231-18.718,9.688c-4.313,6.47-6.47,15.836-6.47,28.108c0,12.305,2.157,21.684,6.47,28.142
								C81.001,70.987,87.244,74.222,95.41,74.222"/>
						</g>
					</g>
				</g>
			</g>
			<g id="ytick_6">
				<g id="line2d_27">
					<g>
						<g>
							<path id="mc8fcea1516_5_" stroke="#000000" stroke-width="0.5" stroke-linejoin="round" d="M73.351,44.28h4"/>
						</g>
					</g>
				</g>
				<g id="line2d_28">
					<g>
						<g>
							<path id="m0d5b0a6425_5_" stroke="#000000" stroke-width="0.5" stroke-linejoin="round" d="M528.121,44.28h-4"/>
						</g>
					</g>
				</g>
				<g id="text_15">
					<g transform="translate(48.56 48.6478125)scale(0.12 -0.12)">
						<g>
							<path id="BitstreamVeraSans-Roman-31_4_" d="M12.413,8.297h16.109v55.627l-17.533-3.516v8.984l17.44,3.516h9.859V8.297
								h16.109V0H12.413V8.297z"/>
						</g>
						<g>
							<path id="BitstreamVeraSans-Roman-30_11_" d="M95.409,66.407c-5.07,0-8.891-2.499-11.45-7.5
								c-2.551-4.988-3.829-12.5-3.829-22.53c0-9.99,1.278-17.485,3.829-22.485c2.559-5.001,6.38-7.5,11.45-7.5
								c5.115,0,8.948,2.499,11.503,7.5c2.56,5,3.841,12.496,3.841,22.485c0,10.03-1.282,17.542-3.841,22.53
								C104.356,63.908,100.523,66.407,95.409,66.407 M95.409,74.219c8.179,0,14.424-3.235,18.738-9.701
								c4.313-6.461,6.465-15.841,6.465-28.141c0-12.272-2.152-21.643-6.465-28.109c-4.313-6.461-10.559-9.688-18.738-9.688
								c-8.167,0-14.404,3.227-18.718,9.688c-4.313,6.466-6.47,15.836-6.47,28.109c0,12.3,2.157,21.68,6.47,28.141
								C81.004,70.984,87.242,74.219,95.409,74.219"/>
						</g>
						<g>
							<path id="BitstreamVeraSans-Roman-30_12_" d="M159.032,66.407c-5.07,0-8.891-2.499-11.45-7.5
								c-2.551-4.988-3.829-12.5-3.829-22.53c0-9.99,1.278-17.485,3.829-22.485c2.559-5.001,6.38-7.5,11.45-7.5
								c5.115,0,8.948,2.499,11.503,7.5c2.56,5,3.841,12.496,3.841,22.485c0,10.03-1.282,17.542-3.841,22.53
								C167.979,63.908,164.146,66.407,159.032,66.407 M159.032,74.219c8.179,0,14.424-3.235,18.738-9.701
								c4.313-6.461,6.465-15.841,6.465-28.141c0-12.272-2.152-21.643-6.465-28.109c-4.313-6.461-10.559-9.688-18.738-9.688
								c-8.167,0-14.404,3.227-18.718,9.688c-4.313,6.466-6.47,15.836-6.47,28.109c0,12.3,2.157,21.68,6.47,28.141
								C144.627,70.984,150.865,74.219,159.032,74.219"/>
						</g>
					</g>
				</g>
			</g>
		</g>
		<g id="patch_53">
			<path fill="none" stroke="#000000" stroke-linecap="square" stroke-linejoin="round" d="M73.351,44.28h454.77"/>
		</g>
		<g id="patch_54">
			<path fill="none" stroke="#000000" stroke-linecap="square" stroke-linejoin="round" d="M528.121,398.519V44.28"/>
		</g>
		<g id="patch_55">
			<path fill="none" stroke="#000000" stroke-linecap="square" stroke-linejoin="round" d="M73.351,398.519h454.77"/>
		</g>
		<g id="patch_56">
			<path fill="none" stroke="#000000" stroke-linecap="square" stroke-linejoin="round" d="M73.351,398.519V44.28"/>
		</g>
		<g id="text_16">
			<g transform="translate(195.791625 39.28)scale(0.144 -0.144)">
				<g>
					<path id="BitstreamVeraSans-Roman-50" d="M19.678,64.799V37.408h12.407c4.591,0,8.138,1.187,10.641,3.564
						c2.509,2.374,3.764,5.761,3.764,10.155c0,4.364-1.254,7.735-3.764,10.108c-2.502,2.377-6.049,3.563-10.641,3.563H19.678z
						 M9.817,72.906h22.268c8.175,0,14.354-1.848,18.531-5.544c4.188-3.699,6.28-9.111,6.28-16.235
						c0-7.199-2.092-12.634-6.28-16.313c-4.177-3.675-10.355-5.517-18.531-5.517H19.678V0h-9.86V72.906z"/>
				</g>
				<g>
					<path id="BitstreamVeraSans-Roman-2d" d="M62.948,31.393h26.313v-7.999H62.948V31.393z"/>
				</g>
				<g>
					<path id="BitstreamVeraSans-Roman-74" d="M112.455,70.221V54.688h18.5v-6.982h-18.5V18.019c0-4.459,0.61-7.324,1.828-8.596
						c1.217-1.271,3.703-1.905,7.453-1.905h9.22V0h-9.22c-6.938,0-11.722,1.292-14.36,3.875c-2.634,2.594-3.954,7.308-3.954,14.144
						v29.687H96.83v6.982h6.592v15.533H112.455z"/>
				</g>
				<g>
					<path id="BitstreamVeraSans-Roman-65_1_" d="M189.556,29.595v-4.391h-41.314c0.396-6.188,2.258-10.901,5.595-14.14
						c3.333-3.238,7.979-4.859,13.937-4.859c3.448,0,6.792,0.42,10.03,1.265c3.241,0.845,6.459,2.116,9.657,3.815V2.784
						c-3.228-1.366-6.538-2.407-9.921-3.126c-3.384-0.719-6.819-1.078-10.298-1.078c-8.728,0-15.639,2.537-20.735,7.609
						c-5.093,5.083-7.639,11.96-7.639,20.627c0,8.948,2.417,16.045,7.25,21.294c4.835,5.262,11.356,7.894,19.562,7.894
						c7.355,0,13.173-2.37,17.456-7.11C187.413,44.162,189.556,37.73,189.556,29.595 M180.57,32.237
						c-0.061,4.906-1.438,8.823-4.126,11.749c-2.686,2.937-6.243,4.408-10.671,4.408c-5.012,0-9.02-1.417-12.031-4.252
						c-3.011-2.835-4.744-6.823-5.202-11.97L180.57,32.237z"/>
				</g>
				<g>
					<path id="BitstreamVeraSans-Roman-73" d="M239.157,53.08v-8.5c-2.533,1.302-5.167,2.275-7.907,2.923
						c-2.729,0.654-5.561,0.983-8.501,0.983c-4.459,0-7.802-0.682-10.03-2.045c-2.231-1.367-3.344-3.418-3.344-6.158
						c0-2.082,0.797-3.72,2.391-4.907c1.594-1.187,4.801-2.316,9.623-3.391l3.079-0.688c6.375-1.363,10.905-3.289,13.594-5.781
						c2.689-2.489,4.032-5.961,4.032-10.42c0-5.083-2.011-9.111-6.032-12.079c-4.021-2.96-9.545-4.438-16.578-4.438
						c-2.926,0-5.978,0.288-9.155,0.861s-6.521,1.428-10.03,2.56v9.284c3.32-1.729,6.592-3.028,9.81-3.893
						c3.218-0.854,6.412-1.282,9.579-1.282c4.229,0,7.48,0.726,9.749,2.173c2.282,1.448,3.421,3.489,3.421,6.124
						c0,2.438-0.821,4.306-2.469,5.608c-1.634,1.302-5.239,2.56-10.81,3.767l-3.126,0.732c-5.561,1.167-9.583,2.964-12.061,5.392
						c-2.469,2.428-3.703,5.758-3.703,9.986c0,5.144,1.821,9.115,5.469,11.905c3.645,2.801,8.823,4.205,15.53,4.205
						c3.313,0,6.432-0.248,9.358-0.736C233.982,54.789,236.688,54.06,239.157,53.08"/>
				</g>
				<g>
					<path id="BitstreamVeraSans-Roman-74_1_" d="M265.287,70.221V54.688h18.5v-6.982h-18.5V18.019c0-4.459,0.61-7.324,1.828-8.596
						c1.217-1.271,3.703-1.905,7.453-1.905h9.22V0h-9.22c-6.938,0-11.722,1.292-14.36,3.875c-2.634,2.594-3.954,7.308-3.954,14.144
						v29.687h-6.592v6.982h6.592v15.533H265.287z"/>
				</g>
				<g>
					<path id="BitstreamVeraSans-Roman-20" d="M286.181,0"/>
				</g>
				<g>
					<path id="BitstreamVeraSans-Roman-66" d="M355.08,75.985v-7.483h-8.596c-3.218,0-5.456-0.651-6.717-1.953
						c-1.251-1.302-1.875-3.646-1.875-7.033v-4.829h14.797v-6.982h-14.797V0h-9.03v47.706h-8.596v6.982h8.596v3.814
						c0,6.083,1.414,10.515,4.249,13.296c2.835,2.794,7.324,4.188,13.468,4.188H355.08z"/>
				</g>
				<g>
					<path id="BitstreamVeraSans-Roman-6f" d="M383.783,48.394c-4.812,0-8.62-1.882-11.42-5.643
						c-2.801-3.76-4.205-8.911-4.205-15.452c0-6.541,1.39-11.695,4.174-15.456c2.791-3.761,6.609-5.639,11.451-5.639
						c4.794,0,8.585,1.885,11.376,5.656c2.801,3.781,4.202,8.928,4.202,15.438c0,6.479-1.4,11.613-4.202,15.404
						C392.369,46.495,388.578,48.394,383.783,48.394 M383.783,56.003c7.813,0,13.95-2.543,18.405-7.626
						c4.469-5.073,6.704-12.099,6.704-21.077c0-8.949-2.234-15.975-6.704-21.081c-4.456-5.093-10.593-7.64-18.405-7.64
						c-7.843,0-13.987,2.546-18.436,7.64c-4.438,5.106-6.656,12.132-6.656,21.081c0,8.979,2.218,16.004,6.656,21.077
						C369.796,53.46,375.94,56.003,383.783,56.003"/>
				</g>
				<g>
					<path id="BitstreamVeraSans-Roman-72" d="M455.465,46.298c-1.01,0.583-2.109,1.011-3.296,1.282
						c-1.187,0.282-2.496,0.42-3.923,0.42c-5.083,0-8.982-1.651-11.702-4.95c-2.719-3.303-4.079-8.05-4.079-14.235V0h-9.03v54.688
						h9.03V46.19c1.896,3.323,4.354,5.785,7.375,7.389c3.032,1.618,6.714,2.424,11.047,2.424c0.614,0,1.295-0.044,2.048-0.125
						c0.75-0.074,1.577-0.193,2.482-0.359L455.465,46.298z"/>
				</g>
				<g>
					<path id="BitstreamVeraSans-Roman-20_1_" d="M455.469,0"/>
				</g>
				<g>
					<path id="BitstreamVeraSans-Roman-6d" d="M539.257,44.189c2.251,4.042,4.937,7.019,8.063,8.938
						c3.123,1.916,6.802,2.875,11.031,2.875c5.696,0,10.094-1.997,13.187-5.985c3.096-3.98,4.642-9.647,4.642-17.001V0h-9.033
						v32.722c0,5.239-0.929,9.125-2.794,11.654c-1.854,2.543-4.683,3.814-8.484,3.814c-4.659,0-8.341-1.549-11.047-4.642
						c-2.699-3.082-4.048-7.297-4.048-12.641V0h-9.03v32.722c0,5.269-0.929,9.166-2.784,11.685
						c-1.851,2.523-4.716,3.784-8.592,3.784c-4.595,0-8.243-1.553-10.952-4.659c-2.699-3.103-4.049-7.311-4.049-12.625V0h-9.03
						v54.688h9.03V46.19c2.055,3.354,4.513,5.826,7.375,7.419c2.865,1.597,6.266,2.394,10.203,2.394
						c3.981,0,7.361-1.01,10.142-3.031C535.866,50.961,537.924,48.035,539.257,44.189"/>
				</g>
				<g>
					<path id="BitstreamVeraSans-Roman-61" d="M618.952,27.486c-7.263,0-12.292-0.828-15.096-2.486
						c-2.801-1.655-4.201-4.489-4.201-8.5c0-3.188,1.051-5.717,3.157-7.592c2.103-1.865,4.958-2.797,8.562-2.797
						c4.988,0,8.989,1.767,12,5.296c3.011,3.533,4.517,8.226,4.517,14.079v2.001H618.952z M636.872,31.206V0h-8.982v8.297
						c-2.055-3.313-4.611-5.761-7.673-7.341c-3.062-1.583-6.809-2.377-11.234-2.377c-5.595,0-10.047,1.573-13.36,4.72
						c-3.303,3.143-4.954,7.354-4.954,12.624c0,6.144,2.059,10.783,6.171,13.906c4.127,3.126,10.271,4.689,18.439,4.689h12.61v0.889
						c0,4.137-1.359,7.334-4.079,9.596c-2.719,2.258-6.538,3.391-11.454,3.391c-3.123,0-6.171-0.376-9.138-1.126
						c-2.96-0.752-5.805-1.875-8.532-3.377v8.314c3.279,1.271,6.467,2.217,9.563,2.841c3.092,0.638,6.104,0.956,9.03,0.956
						c7.917,0,13.828-2.055,17.734-6.158C634.919,45.752,636.872,39.537,636.872,31.206"/>
				</g>
				<g>
					<path id="BitstreamVeraSans-Roman-78" d="M700.84,54.688L681.058,28.08L701.851,0h-10.593l-15.92,21.484L659.432,0h-10.607
						l21.247,28.612l-19.436,26.076h10.593l14.503-19.484l14.496,19.484H700.84z"/>
				</g>
				<g>
					<path id="BitstreamVeraSans-Roman-69" d="M714.546,54.688h8.992V0h-8.992V54.688z M714.546,75.985h8.992v-11.39h-8.992V75.985z
						"/>
				</g>
				<g>
					<path id="BitstreamVeraSans-Roman-6d_1_" d="M784.913,44.189c2.251,4.042,4.937,7.019,8.057,8.938
						c3.133,1.916,6.809,2.875,11.034,2.875c5.704,0,10.098-1.997,13.19-5.985c3.092-3.98,4.639-9.647,4.639-17.001V0h-9.033v32.722
						c0,5.239-0.929,9.125-2.794,11.654c-1.858,2.543-4.68,3.814-8.484,3.814c-4.659,0-8.335-1.549-11.047-4.642
						c-2.699-3.082-4.049-7.297-4.049-12.641V0h-9.026v32.722c0,5.269-0.929,9.166-2.781,11.685
						c-1.858,2.523-4.72,3.784-8.599,3.784c-4.591,0-8.247-1.553-10.952-4.659c-2.692-3.103-4.049-7.311-4.049-12.625V0h-9.033
						v54.688h9.033V46.19c2.055,3.354,4.517,5.826,7.378,7.419c2.862,1.597,6.267,2.394,10.2,2.394c3.981,0,7.365-1.01,10.146-3.031
						C781.522,50.961,783.577,48.035,784.913,44.189"/>
				</g>
				<g>
					<path id="BitstreamVeraSans-Roman-75" d="M838.827,21.579v33.108h8.979V21.925c0-5.178,1.004-9.064,3.018-11.658
						c2.021-2.584,5.052-3.876,9.094-3.876c4.842,0,8.667,1.546,11.481,4.642c2.828,3.092,4.238,7.311,4.238,12.655v30.999h8.979V0
						h-8.979v8.409c-2.184-3.323-4.706-5.792-7.595-7.409c-2.875-1.614-6.219-2.421-10.03-2.421c-6.287,0-11.054,1.953-14.316,5.859
						C840.448,8.345,838.827,14.059,838.827,21.579"/>
				</g>
				<g>
					<path id="BitstreamVeraSans-Roman-6d_2_" d="M945.707,44.189c2.245,4.042,4.938,7.019,8.057,8.938
						c3.126,1.916,6.802,2.875,11.034,2.875c5.696,0,10.091-1.997,13.19-5.985c3.092-3.98,4.639-9.647,4.639-17.001V0h-9.033v32.722
						c0,5.239-0.936,9.125-2.794,11.654c-1.858,2.543-4.686,3.814-8.491,3.814c-4.652,0-8.334-1.549-11.041-4.642
						c-2.699-3.082-4.048-7.297-4.048-12.641V0h-9.033v32.722c0,5.269-0.929,9.166-2.781,11.685
						c-1.851,2.523-4.72,3.784-8.592,3.784c-4.598,0-8.247-1.553-10.959-4.659c-2.692-3.103-4.042-7.311-4.042-12.625V0h-9.033
						v54.688h9.033V46.19c2.048,3.354,4.51,5.826,7.378,7.419c2.862,1.597,6.266,2.394,10.2,2.394c3.974,0,7.358-1.01,10.139-3.031
						C942.316,50.961,944.371,48.035,945.707,44.189"/>
				</g>
				<g>
					<path id="BitstreamVeraSans-Roman-20_2_" d="M991.117,0"/>
				</g>
				<g>
					<path id="BitstreamVeraSans-Roman-65_2_" d="M1079.103,29.595v-4.391h-41.314c0.4-6.188,2.265-10.901,5.602-14.14
						c3.33-3.238,7.975-4.859,13.93-4.859c3.452,0,6.795,0.42,10.037,1.265c3.242,0.845,6.457,2.116,9.657,3.815V2.784
						c-3.228-1.366-6.538-2.407-9.928-3.126c-3.377-0.719-6.816-1.078-10.295-1.078c-8.728,0-15.638,2.537-20.731,7.609
						c-5.093,5.083-7.643,11.96-7.643,20.627c0,8.948,2.415,16.045,7.25,21.294c4.835,5.262,11.359,7.894,19.565,7.894
						c7.352,0,13.17-2.37,17.456-7.11C1076.959,44.162,1079.103,37.73,1079.103,29.595 M1070.124,32.237
						c-0.068,4.906-1.438,8.823-4.123,11.749c-2.692,2.937-6.253,4.408-10.675,4.408c-5.011,0-9.02-1.417-12.03-4.252
						c-3.011-2.835-4.748-6.823-5.208-11.97L1070.124,32.237z"/>
				</g>
				<g>
					<path id="BitstreamVeraSans-Roman-73_1_" d="M1128.704,53.08v-8.5c-2.529,1.302-5.167,2.275-7.907,2.923
						c-2.727,0.654-5.561,0.983-8.498,0.983c-4.456,0-7.799-0.682-10.03-2.045c-2.224-1.367-3.343-3.418-3.343-6.158
						c0-2.082,0.793-3.72,2.394-4.907c1.587-1.187,4.801-2.316,9.623-3.391l3.072-0.688c6.375-1.363,10.912-3.289,13.597-5.781
						c2.692-2.489,4.035-5.961,4.035-10.42c0-5.083-2.014-9.111-6.036-12.079c-4.015-2.96-9.549-4.438-16.575-4.438
						c-2.93,0-5.981,0.288-9.155,0.861c-3.18,0.573-6.524,1.428-10.037,2.56v9.284c3.323-1.729,6.592-3.028,9.813-3.893
						c3.221-0.854,6.409-1.282,9.583-1.282c4.225,0,7.474,0.726,9.752,2.173c2.279,1.448,3.418,3.489,3.418,6.124
						c0,2.438-0.827,4.306-2.468,5.608s-5.242,2.56-10.81,3.767l-3.133,0.732c-5.561,1.167-9.576,2.964-12.058,5.392
						c-2.469,2.428-3.703,5.758-3.703,9.986c0,5.144,1.825,9.115,5.466,11.905c3.648,2.801,8.83,4.205,15.53,4.205
						c3.316,0,6.436-0.248,9.359-0.736C1123.536,54.789,1126.235,54.06,1128.704,53.08"/>
				</g>
				<g>
					<path id="BitstreamVeraSans-Roman-74_2_" d="M1154.84,70.221V54.688h18.5v-6.982h-18.5V18.019c0-4.459,0.61-7.324,1.824-8.596
						c1.221-1.271,3.703-1.905,7.453-1.905h9.223V0h-9.223c-6.938,0-11.719,1.292-14.357,3.875
						c-2.638,2.594-3.954,7.308-3.954,14.144v29.687h-6.592v6.982h6.592v15.533H1154.84z"/>
				</g>
				<g>
					<path id="BitstreamVeraSans-Roman-69_1_" d="M1185.154,54.688h8.986V0h-8.986V54.688z M1185.154,75.985h8.986v-11.39h-8.986
						V75.985z"/>
				</g>
				<g>
					<path id="BitstreamVeraSans-Roman-6d_3_" d="M1255.521,44.189c2.245,4.042,4.938,7.019,8.057,8.938
						c3.126,1.916,6.802,2.875,11.034,2.875c5.696,0,10.091-1.997,13.19-5.985c3.092-3.98,4.639-9.647,4.639-17.001V0h-9.033v32.722
						c0,5.239-0.936,9.125-2.794,11.654c-1.858,2.543-4.686,3.814-8.491,3.814c-4.652,0-8.334-1.549-11.041-4.642
						c-2.699-3.082-4.048-7.297-4.048-12.641V0H1248v32.722c0,5.269-0.929,9.166-2.781,11.685c-1.851,2.523-4.72,3.784-8.592,3.784
						c-4.598,0-8.247-1.553-10.959-4.659c-2.692-3.103-4.042-7.311-4.042-12.625V0h-9.033v54.688h9.033V46.19
						c2.048,3.354,4.51,5.826,7.378,7.419c2.862,1.597,6.266,2.394,10.2,2.394c3.974,0,7.358-1.01,10.139-3.031
						C1252.13,50.961,1254.185,48.035,1255.521,44.189"/>
				</g>
				<g>
					<path id="BitstreamVeraSans-Roman-61_1_" d="M1335.206,27.486c-7.256,0-12.289-0.828-15.089-2.486
						c-2.801-1.655-4.205-4.489-4.205-8.5c0-3.188,1.051-5.717,3.153-7.592c2.109-1.865,4.964-2.797,8.565-2.797
						c4.991,0,8.993,1.767,11.997,5.296c3.011,3.533,4.517,8.226,4.517,14.079v2.001H1335.206z M1353.137,31.206V0h-8.993v8.297
						c-2.048-3.313-4.604-5.761-7.67-7.341c-3.059-1.583-6.802-2.377-11.237-2.377c-5.588,0-10.043,1.573-13.353,4.72
						c-3.303,3.143-4.958,7.354-4.958,12.624c0,6.144,2.062,10.783,6.171,13.906c4.124,3.126,10.274,4.689,18.439,4.689h12.607
						v0.889c0,4.137-1.356,7.334-4.076,9.596c-2.719,2.258-6.531,3.391-11.454,3.391c-3.12,0-6.171-0.376-9.142-1.126
						c-2.957-0.752-5.798-1.875-8.532-3.377v8.314c3.283,1.271,6.47,2.217,9.563,2.841c3.099,0.638,6.104,0.956,9.033,0.956
						c7.921,0,13.834-2.055,17.741-6.158C1351.184,45.752,1353.137,39.537,1353.137,31.206"/>
				</g>
				<g>
					<path id="BitstreamVeraSans-Roman-74_3_" d="M1380.521,70.221V54.688h18.5v-6.982h-18.5V18.019c0-4.459,0.61-7.324,1.831-8.596
						c1.214-1.271,3.703-1.905,7.446-1.905h9.223V0h-9.223c-6.931,0-11.719,1.292-14.356,3.875
						c-2.638,2.594-3.954,7.308-3.954,14.144v29.687h-6.592v6.982h6.592v15.533H1380.521z"/>
				</g>
				<g>
					<path id="BitstreamVeraSans-Roman-65_3_" d="M1457.622,29.595v-4.391h-41.314c0.394-6.188,2.258-10.901,5.595-14.14
						c3.33-3.238,7.975-4.859,13.936-4.859c3.445,0,6.789,0.42,10.03,1.265c3.242,0.845,6.456,2.116,9.657,3.815V2.784
						c-3.228-1.366-6.538-2.407-9.922-3.126c-3.384-0.719-6.815-1.078-10.294-1.078c-8.735,0-15.646,2.537-20.738,7.609
						c-5.093,5.083-7.636,11.96-7.636,20.627c0,8.948,2.414,16.045,7.25,21.294c4.829,5.262,11.353,7.894,19.559,7.894
						c7.358,0,13.17-2.37,17.456-7.11C1455.479,44.162,1457.622,37.73,1457.622,29.595 M1448.637,32.237
						c-0.061,4.906-1.438,8.823-4.124,11.749c-2.692,2.937-6.246,4.408-10.674,4.408c-5.012,0-9.02-1.417-12.031-4.252
						c-3.011-2.835-4.747-6.823-5.202-11.97L1448.637,32.237z"/>
				</g>
			</g>
		</g>
	</g>
</g>
</svg>
