<?xml version="1.0" encoding="utf-8"?>
<!-- Generator: Adobe Illustrator 16.0.0, SVG Export Plug-In . SVG Version: 6.00 Build 0)  -->
<!DOCTYPE svg PUBLIC "-//W3C//DTD SVG 1.1//EN" "http://www.w3.org/Graphics/SVG/1.1/DTD/svg11.dtd">
<svg version="1.1" id="Layer_1" xmlns="http://www.w3.org/2000/svg" xmlns:xlink="http://www.w3.org/1999/xlink" x="0px" y="0px"
	 width="432px" height="293px" viewBox="0 0 432 293" enable-background="new 0 0 432 293" xml:space="preserve">
<g id="figure_1">
	<g id="patch_1">
		<path fill="#FFFFFF" d="M0,293.4h432V0H0V293.4z"/>
	</g>
	<g id="axes_1">
		<g id="patch_2">
			<path fill="#FFFFFF" d="M54,264.061h334.8V29.34H54V264.061z"/>
		</g>
		<g id="patch_3">
			<g>
				<defs>
					<rect id="SVGID_1_" x="54" y="29.34" width="334.8" height="234.721"/>
				</defs>
				<clipPath id="SVGID_2_">
					<use xlink:href="#SVGID_1_"  overflow="visible"/>
				</clipPath>
				
					<path opacity="0.5" clip-path="url(#SVGID_2_)" fill="#FF0000" stroke="#000000" stroke-linecap="square" stroke-linejoin="round" enable-background="new    " d="
					M58.103,264.061h6.227v-93.889h-6.227V264.061z"/>
			</g>
		</g>
		<g id="patch_4">
			<g>
				<defs>
					<rect id="SVGID_3_" x="54" y="29.34" width="334.8" height="234.721"/>
				</defs>
				<clipPath id="SVGID_4_">
					<use xlink:href="#SVGID_3_"  overflow="visible"/>
				</clipPath>
				
					<path opacity="0.5" clip-path="url(#SVGID_4_)" fill="#FF0000" stroke="#000000" stroke-linecap="square" stroke-linejoin="round" enable-background="new    " d="
					M64.329,264.061h6.226v-46.944h-6.226V264.061z"/>
			</g>
		</g>
		<g id="patch_5">
			<g>
				<defs>
					<rect id="SVGID_5_" x="54" y="29.34" width="334.8" height="234.721"/>
				</defs>
				<clipPath id="SVGID_6_">
					<use xlink:href="#SVGID_5_"  overflow="visible"/>
				</clipPath>
				
					<path opacity="0.5" clip-path="url(#SVGID_6_)" fill="#FF0000" stroke="#000000" stroke-linecap="square" stroke-linejoin="round" enable-background="new    " d="
					M70.555,264.061h6.226v-46.944h-6.226V264.061z"/>
			</g>
		</g>
		<g id="patch_6">
			<g>
				<defs>
					<rect id="SVGID_7_" x="54" y="29.34" width="334.8" height="234.721"/>
				</defs>
				<clipPath id="SVGID_8_">
					<use xlink:href="#SVGID_7_"  overflow="visible"/>
				</clipPath>
				
					<path opacity="0.5" clip-path="url(#SVGID_8_)" fill="#FF0000" stroke="#000000" stroke-linecap="square" stroke-linejoin="round" enable-background="new    " d="
					M76.781,264.061h6.226V29.34h-6.226V264.061z"/>
			</g>
		</g>
		<g id="patch_7">
			<g>
				<defs>
					<rect id="SVGID_9_" x="54" y="29.34" width="334.8" height="234.721"/>
				</defs>
				<clipPath id="SVGID_10_">
					<use xlink:href="#SVGID_9_"  overflow="visible"/>
				</clipPath>
				
					<path opacity="0.5" clip-path="url(#SVGID_10_)" fill="#FF0000" stroke="#000000" stroke-linecap="square" stroke-linejoin="round" enable-background="new    " d="
					M83.007,264.061h6.226V123.228h-6.226V264.061z"/>
			</g>
		</g>
		<g id="patch_8">
			<g>
				<defs>
					<rect id="SVGID_11_" x="54" y="29.34" width="334.8" height="234.721"/>
				</defs>
				<clipPath id="SVGID_12_">
					<use xlink:href="#SVGID_11_"  overflow="visible"/>
				</clipPath>
				
					<path opacity="0.5" clip-path="url(#SVGID_12_)" fill="#FF0000" stroke="#000000" stroke-linecap="square" stroke-linejoin="round" enable-background="new    " d="
					M89.233,264.061h6.226v-93.889h-6.226V264.061z"/>
			</g>
		</g>
		<g id="patch_9">
			<g>
				<defs>
					<rect id="SVGID_13_" x="54" y="29.34" width="334.8" height="234.721"/>
				</defs>
				<clipPath id="SVGID_14_">
					<use xlink:href="#SVGID_13_"  overflow="visible"/>
				</clipPath>
				
					<path opacity="0.5" clip-path="url(#SVGID_14_)" fill="#FF0000" stroke="#000000" stroke-linecap="square" stroke-linejoin="round" enable-background="new    " d="
					M95.459,264.061h6.227v-46.944h-6.227V264.061z"/>
			</g>
		</g>
		<g id="patch_10">
			<g>
				<defs>
					<rect id="SVGID_15_" x="54" y="29.34" width="334.8" height="234.721"/>
				</defs>
				<clipPath id="SVGID_16_">
					<use xlink:href="#SVGID_15_"  overflow="visible"/>
				</clipPath>
				
					<path opacity="0.5" clip-path="url(#SVGID_16_)" fill="#FF0000" stroke="#000000" stroke-linecap="square" stroke-linejoin="round" enable-background="new    " d="
					M101.686,264.061h6.226l0,0H101.686z"/>
			</g>
		</g>
		<g id="patch_11">
			<g>
				<defs>
					<rect id="SVGID_17_" x="54" y="29.34" width="334.8" height="234.721"/>
				</defs>
				<clipPath id="SVGID_18_">
					<use xlink:href="#SVGID_17_"  overflow="visible"/>
				</clipPath>
				
					<path opacity="0.5" clip-path="url(#SVGID_18_)" fill="#FF0000" stroke="#000000" stroke-linecap="square" stroke-linejoin="round" enable-background="new    " d="
					M107.912,264.061h6.226v-46.944h-6.226V264.061z"/>
			</g>
		</g>
		<g id="patch_12">
			<g>
				<defs>
					<rect id="SVGID_19_" x="54" y="29.34" width="334.8" height="234.721"/>
				</defs>
				<clipPath id="SVGID_20_">
					<use xlink:href="#SVGID_19_"  overflow="visible"/>
				</clipPath>
				
					<path opacity="0.5" clip-path="url(#SVGID_20_)" fill="#FF0000" stroke="#000000" stroke-linecap="square" stroke-linejoin="round" enable-background="new    " d="
					M114.138,264.061h6.226v-46.944h-6.226V264.061z"/>
			</g>
		</g>
		<g id="patch_13">
			<g>
				<defs>
					<rect id="SVGID_21_" x="54" y="29.34" width="334.8" height="234.721"/>
				</defs>
				<clipPath id="SVGID_22_">
					<use xlink:href="#SVGID_21_"  overflow="visible"/>
				</clipPath>
				
					<path opacity="0.5" clip-path="url(#SVGID_22_)" fill="#FF0000" stroke="#000000" stroke-linecap="square" stroke-linejoin="round" enable-background="new    " d="
					M120.364,264.061h6.226v-46.944h-6.226V264.061z"/>
			</g>
		</g>
		<g id="patch_14">
			<g>
				<defs>
					<rect id="SVGID_23_" x="54" y="29.34" width="334.8" height="234.721"/>
				</defs>
				<clipPath id="SVGID_24_">
					<use xlink:href="#SVGID_23_"  overflow="visible"/>
				</clipPath>
				
					<path opacity="0.5" clip-path="url(#SVGID_24_)" fill="#FF0000" stroke="#000000" stroke-linecap="square" stroke-linejoin="round" enable-background="new    " d="
					M126.59,264.061h6.226v-46.944h-6.226V264.061z"/>
			</g>
		</g>
		<g id="patch_15">
			<g>
				<defs>
					<rect id="SVGID_25_" x="54" y="29.34" width="334.8" height="234.721"/>
				</defs>
				<clipPath id="SVGID_26_">
					<use xlink:href="#SVGID_25_"  overflow="visible"/>
				</clipPath>
				
					<path opacity="0.5" clip-path="url(#SVGID_26_)" fill="#FF0000" stroke="#000000" stroke-linecap="square" stroke-linejoin="round" enable-background="new    " d="
					M132.816,264.061h6.226V123.228h-6.226V264.061z"/>
			</g>
		</g>
		<g id="patch_16">
			<g>
				<defs>
					<rect id="SVGID_27_" x="54" y="29.34" width="334.8" height="234.721"/>
				</defs>
				<clipPath id="SVGID_28_">
					<use xlink:href="#SVGID_27_"  overflow="visible"/>
				</clipPath>
				
					<path opacity="0.5" clip-path="url(#SVGID_28_)" fill="#FF0000" stroke="#000000" stroke-linecap="square" stroke-linejoin="round" enable-background="new    " d="
					M139.042,264.061h6.226l0,0H139.042z"/>
			</g>
		</g>
		<g id="patch_17">
			<g>
				<defs>
					<rect id="SVGID_29_" x="54" y="29.34" width="334.8" height="234.721"/>
				</defs>
				<clipPath id="SVGID_30_">
					<use xlink:href="#SVGID_29_"  overflow="visible"/>
				</clipPath>
				
					<path opacity="0.5" clip-path="url(#SVGID_30_)" fill="#FF0000" stroke="#000000" stroke-linecap="square" stroke-linejoin="round" enable-background="new    " d="
					M145.268,264.061h6.227l0,0H145.268z"/>
			</g>
		</g>
		<g id="patch_18">
			<g>
				<defs>
					<rect id="SVGID_31_" x="54" y="29.34" width="334.8" height="234.721"/>
				</defs>
				<clipPath id="SVGID_32_">
					<use xlink:href="#SVGID_31_"  overflow="visible"/>
				</clipPath>
				
					<path opacity="0.5" clip-path="url(#SVGID_32_)" fill="#FF0000" stroke="#000000" stroke-linecap="square" stroke-linejoin="round" enable-background="new    " d="
					M151.495,264.061h6.226v-93.889h-6.226V264.061z"/>
			</g>
		</g>
		<g id="patch_19">
			<g>
				<defs>
					<rect id="SVGID_33_" x="54" y="29.34" width="334.8" height="234.721"/>
				</defs>
				<clipPath id="SVGID_34_">
					<use xlink:href="#SVGID_33_"  overflow="visible"/>
				</clipPath>
				
					<path opacity="0.5" clip-path="url(#SVGID_34_)" fill="#FF0000" stroke="#000000" stroke-linecap="square" stroke-linejoin="round" enable-background="new    " d="
					M157.721,264.061h6.226l0,0H157.721z"/>
			</g>
		</g>
		<g id="patch_20">
			<g>
				<defs>
					<rect id="SVGID_35_" x="54" y="29.34" width="334.8" height="234.721"/>
				</defs>
				<clipPath id="SVGID_36_">
					<use xlink:href="#SVGID_35_"  overflow="visible"/>
				</clipPath>
				
					<path opacity="0.5" clip-path="url(#SVGID_36_)" fill="#FF0000" stroke="#000000" stroke-linecap="square" stroke-linejoin="round" enable-background="new    " d="
					M163.947,264.061h6.226l0,0H163.947z"/>
			</g>
		</g>
		<g id="patch_21">
			<g>
				<defs>
					<rect id="SVGID_37_" x="54" y="29.34" width="334.8" height="234.721"/>
				</defs>
				<clipPath id="SVGID_38_">
					<use xlink:href="#SVGID_37_"  overflow="visible"/>
				</clipPath>
				
					<path opacity="0.5" clip-path="url(#SVGID_38_)" fill="#FF0000" stroke="#000000" stroke-linecap="square" stroke-linejoin="round" enable-background="new    " d="
					M170.173,264.061h6.226l0,0H170.173z"/>
			</g>
		</g>
		<g id="patch_22">
			<g>
				<defs>
					<rect id="SVGID_39_" x="54" y="29.34" width="334.8" height="234.721"/>
				</defs>
				<clipPath id="SVGID_40_">
					<use xlink:href="#SVGID_39_"  overflow="visible"/>
				</clipPath>
				
					<path opacity="0.5" clip-path="url(#SVGID_40_)" fill="#FF0000" stroke="#000000" stroke-linecap="square" stroke-linejoin="round" enable-background="new    " d="
					M176.399,264.061h6.226l0,0H176.399z"/>
			</g>
		</g>
		<g id="patch_23">
			<g>
				<defs>
					<rect id="SVGID_41_" x="54" y="29.34" width="334.8" height="234.721"/>
				</defs>
				<clipPath id="SVGID_42_">
					<use xlink:href="#SVGID_41_"  overflow="visible"/>
				</clipPath>
				
					<path opacity="0.5" clip-path="url(#SVGID_42_)" fill="#FF0000" stroke="#000000" stroke-linecap="square" stroke-linejoin="round" enable-background="new    " d="
					M182.625,264.061h6.226l0,0H182.625z"/>
			</g>
		</g>
		<g id="patch_24">
			<g>
				<defs>
					<rect id="SVGID_43_" x="54" y="29.34" width="334.8" height="234.721"/>
				</defs>
				<clipPath id="SVGID_44_">
					<use xlink:href="#SVGID_43_"  overflow="visible"/>
				</clipPath>
				
					<path opacity="0.5" clip-path="url(#SVGID_44_)" fill="#FF0000" stroke="#000000" stroke-linecap="square" stroke-linejoin="round" enable-background="new    " d="
					M188.851,264.061h6.226l0,0H188.851z"/>
			</g>
		</g>
		<g id="patch_25">
			<g>
				<defs>
					<rect id="SVGID_45_" x="54" y="29.34" width="334.8" height="234.721"/>
				</defs>
				<clipPath id="SVGID_46_">
					<use xlink:href="#SVGID_45_"  overflow="visible"/>
				</clipPath>
				
					<path opacity="0.5" clip-path="url(#SVGID_46_)" fill="#FF0000" stroke="#000000" stroke-linecap="square" stroke-linejoin="round" enable-background="new    " d="
					M195.077,264.061h6.227l0,0H195.077z"/>
			</g>
		</g>
		<g id="patch_26">
			<g>
				<defs>
					<rect id="SVGID_47_" x="54" y="29.34" width="334.8" height="234.721"/>
				</defs>
				<clipPath id="SVGID_48_">
					<use xlink:href="#SVGID_47_"  overflow="visible"/>
				</clipPath>
				
					<path opacity="0.5" clip-path="url(#SVGID_48_)" fill="#FF0000" stroke="#000000" stroke-linecap="square" stroke-linejoin="round" enable-background="new    " d="
					M201.304,264.061h6.226v-46.944h-6.226V264.061z"/>
			</g>
		</g>
		<g id="patch_27">
			<g>
				<defs>
					<rect id="SVGID_49_" x="54" y="29.34" width="334.8" height="234.721"/>
				</defs>
				<clipPath id="SVGID_50_">
					<use xlink:href="#SVGID_49_"  overflow="visible"/>
				</clipPath>
				
					<path opacity="0.5" clip-path="url(#SVGID_50_)" fill="#FF0000" stroke="#000000" stroke-linecap="square" stroke-linejoin="round" enable-background="new    " d="
					M207.53,264.061h6.226l0,0H207.53z"/>
			</g>
		</g>
		<g id="patch_28">
			<g>
				<defs>
					<rect id="SVGID_51_" x="54" y="29.34" width="334.8" height="234.721"/>
				</defs>
				<clipPath id="SVGID_52_">
					<use xlink:href="#SVGID_51_"  overflow="visible"/>
				</clipPath>
				
					<path opacity="0.5" clip-path="url(#SVGID_52_)" fill="#FF0000" stroke="#000000" stroke-linecap="square" stroke-linejoin="round" enable-background="new    " d="
					M213.756,264.061h6.227l0,0H213.756z"/>
			</g>
		</g>
		<g id="patch_29">
			<g>
				<defs>
					<rect id="SVGID_53_" x="54" y="29.34" width="334.8" height="234.721"/>
				</defs>
				<clipPath id="SVGID_54_">
					<use xlink:href="#SVGID_53_"  overflow="visible"/>
				</clipPath>
				
					<path opacity="0.5" clip-path="url(#SVGID_54_)" fill="#FF0000" stroke="#000000" stroke-linecap="square" stroke-linejoin="round" enable-background="new    " d="
					M219.982,264.061h6.226l0,0H219.982z"/>
			</g>
		</g>
		<g id="patch_30">
			<g>
				<defs>
					<rect id="SVGID_55_" x="54" y="29.34" width="334.8" height="234.721"/>
				</defs>
				<clipPath id="SVGID_56_">
					<use xlink:href="#SVGID_55_"  overflow="visible"/>
				</clipPath>
				
					<path opacity="0.5" clip-path="url(#SVGID_56_)" fill="#FF0000" stroke="#000000" stroke-linecap="square" stroke-linejoin="round" enable-background="new    " d="
					M226.208,264.061h6.226l0,0H226.208z"/>
			</g>
		</g>
		<g id="patch_31">
			<g>
				<defs>
					<rect id="SVGID_57_" x="54" y="29.34" width="334.8" height="234.721"/>
				</defs>
				<clipPath id="SVGID_58_">
					<use xlink:href="#SVGID_57_"  overflow="visible"/>
				</clipPath>
				
					<path opacity="0.5" clip-path="url(#SVGID_58_)" fill="#FF0000" stroke="#000000" stroke-linecap="square" stroke-linejoin="round" enable-background="new    " d="
					M232.434,264.061h6.227l0,0H232.434z"/>
			</g>
		</g>
		<g id="patch_32">
			<g>
				<defs>
					<rect id="SVGID_59_" x="54" y="29.34" width="334.8" height="234.721"/>
				</defs>
				<clipPath id="SVGID_60_">
					<use xlink:href="#SVGID_59_"  overflow="visible"/>
				</clipPath>
				
					<path opacity="0.5" clip-path="url(#SVGID_60_)" fill="#FF0000" stroke="#000000" stroke-linecap="square" stroke-linejoin="round" enable-background="new    " d="
					M238.66,264.061h6.226l0,0H238.66z"/>
			</g>
		</g>
		<g id="patch_33">
			<g>
				<defs>
					<rect id="SVGID_61_" x="54" y="29.34" width="334.8" height="234.721"/>
				</defs>
				<clipPath id="SVGID_62_">
					<use xlink:href="#SVGID_61_"  overflow="visible"/>
				</clipPath>
				
					<path opacity="0.5" clip-path="url(#SVGID_62_)" fill="#FF0000" stroke="#000000" stroke-linecap="square" stroke-linejoin="round" enable-background="new    " d="
					M244.886,264.061h6.228v-46.944h-6.228V264.061z"/>
			</g>
		</g>
		<g id="patch_34">
			<g>
				<defs>
					<rect id="SVGID_63_" x="54" y="29.34" width="334.8" height="234.721"/>
				</defs>
				<clipPath id="SVGID_64_">
					<use xlink:href="#SVGID_63_"  overflow="visible"/>
				</clipPath>
				
					<path opacity="0.5" clip-path="url(#SVGID_64_)" fill="#FF0000" stroke="#000000" stroke-linecap="square" stroke-linejoin="round" enable-background="new    " d="
					M251.113,264.061h6.226l0,0H251.113z"/>
			</g>
		</g>
		<g id="patch_35">
			<g>
				<defs>
					<rect id="SVGID_65_" x="54" y="29.34" width="334.8" height="234.721"/>
				</defs>
				<clipPath id="SVGID_66_">
					<use xlink:href="#SVGID_65_"  overflow="visible"/>
				</clipPath>
				
					<path opacity="0.5" clip-path="url(#SVGID_66_)" fill="#FF0000" stroke="#000000" stroke-linecap="square" stroke-linejoin="round" enable-background="new    " d="
					M257.339,264.061h6.226l0,0H257.339z"/>
			</g>
		</g>
		<g id="patch_36">
			<g>
				<defs>
					<rect id="SVGID_67_" x="54" y="29.34" width="334.8" height="234.721"/>
				</defs>
				<clipPath id="SVGID_68_">
					<use xlink:href="#SVGID_67_"  overflow="visible"/>
				</clipPath>
				
					<path opacity="0.5" clip-path="url(#SVGID_68_)" fill="#FF0000" stroke="#000000" stroke-linecap="square" stroke-linejoin="round" enable-background="new    " d="
					M263.564,264.061h6.227v-46.944h-6.227V264.061z"/>
			</g>
		</g>
		<g id="patch_37">
			<g>
				<defs>
					<rect id="SVGID_69_" x="54" y="29.34" width="334.8" height="234.721"/>
				</defs>
				<clipPath id="SVGID_70_">
					<use xlink:href="#SVGID_69_"  overflow="visible"/>
				</clipPath>
				
					<path opacity="0.5" clip-path="url(#SVGID_70_)" fill="#FF0000" stroke="#000000" stroke-linecap="square" stroke-linejoin="round" enable-background="new    " d="
					M269.791,264.061h6.227l0,0H269.791z"/>
			</g>
		</g>
		<g id="patch_38">
			<g>
				<defs>
					<rect id="SVGID_71_" x="54" y="29.34" width="334.8" height="234.721"/>
				</defs>
				<clipPath id="SVGID_72_">
					<use xlink:href="#SVGID_71_"  overflow="visible"/>
				</clipPath>
				
					<path opacity="0.5" clip-path="url(#SVGID_72_)" fill="#FF0000" stroke="#000000" stroke-linecap="square" stroke-linejoin="round" enable-background="new    " d="
					M276.018,264.061h6.226l0,0H276.018z"/>
			</g>
		</g>
		<g id="patch_39">
			<g>
				<defs>
					<rect id="SVGID_73_" x="54" y="29.34" width="334.8" height="234.721"/>
				</defs>
				<clipPath id="SVGID_74_">
					<use xlink:href="#SVGID_73_"  overflow="visible"/>
				</clipPath>
				
					<path opacity="0.5" clip-path="url(#SVGID_74_)" fill="#FF0000" stroke="#000000" stroke-linecap="square" stroke-linejoin="round" enable-background="new    " d="
					M282.243,264.061h6.226l0,0H282.243z"/>
			</g>
		</g>
		<g id="patch_40">
			<g>
				<defs>
					<rect id="SVGID_75_" x="54" y="29.34" width="334.8" height="234.721"/>
				</defs>
				<clipPath id="SVGID_76_">
					<use xlink:href="#SVGID_75_"  overflow="visible"/>
				</clipPath>
				
					<path opacity="0.5" clip-path="url(#SVGID_76_)" fill="#FF0000" stroke="#000000" stroke-linecap="square" stroke-linejoin="round" enable-background="new    " d="
					M288.469,264.061h6.227l0,0H288.469z"/>
			</g>
		</g>
		<g id="patch_41">
			<g>
				<defs>
					<rect id="SVGID_77_" x="54" y="29.34" width="334.8" height="234.721"/>
				</defs>
				<clipPath id="SVGID_78_">
					<use xlink:href="#SVGID_77_"  overflow="visible"/>
				</clipPath>
				
					<path opacity="0.5" clip-path="url(#SVGID_78_)" fill="#FF0000" stroke="#000000" stroke-linecap="square" stroke-linejoin="round" enable-background="new    " d="
					M294.695,264.061h6.227l0,0H294.695z"/>
			</g>
		</g>
		<g id="patch_42">
			<g>
				<defs>
					<rect id="SVGID_79_" x="54" y="29.34" width="334.8" height="234.721"/>
				</defs>
				<clipPath id="SVGID_80_">
					<use xlink:href="#SVGID_79_"  overflow="visible"/>
				</clipPath>
				
					<path opacity="0.5" clip-path="url(#SVGID_80_)" fill="#FF0000" stroke="#000000" stroke-linecap="square" stroke-linejoin="round" enable-background="new    " d="
					M300.922,264.061h6.227l0,0H300.922z"/>
			</g>
		</g>
		<g id="patch_43">
			<g>
				<defs>
					<rect id="SVGID_81_" x="54" y="29.34" width="334.8" height="234.721"/>
				</defs>
				<clipPath id="SVGID_82_">
					<use xlink:href="#SVGID_81_"  overflow="visible"/>
				</clipPath>
				
					<path opacity="0.5" clip-path="url(#SVGID_82_)" fill="#FF0000" stroke="#000000" stroke-linecap="square" stroke-linejoin="round" enable-background="new    " d="
					M307.148,264.061h6.226l0,0H307.148z"/>
			</g>
		</g>
		<g id="patch_44">
			<g>
				<defs>
					<rect id="SVGID_83_" x="54" y="29.34" width="334.8" height="234.721"/>
				</defs>
				<clipPath id="SVGID_84_">
					<use xlink:href="#SVGID_83_"  overflow="visible"/>
				</clipPath>
				
					<path opacity="0.5" clip-path="url(#SVGID_84_)" fill="#FF0000" stroke="#000000" stroke-linecap="square" stroke-linejoin="round" enable-background="new    " d="
					M313.374,264.061h6.226l0,0H313.374z"/>
			</g>
		</g>
		<g id="patch_45">
			<g>
				<defs>
					<rect id="SVGID_85_" x="54" y="29.34" width="334.8" height="234.721"/>
				</defs>
				<clipPath id="SVGID_86_">
					<use xlink:href="#SVGID_85_"  overflow="visible"/>
				</clipPath>
				
					<path opacity="0.5" clip-path="url(#SVGID_86_)" fill="#FF0000" stroke="#000000" stroke-linecap="square" stroke-linejoin="round" enable-background="new    " d="
					M319.6,264.061h6.227l0,0H319.6z"/>
			</g>
		</g>
		<g id="patch_46">
			<g>
				<defs>
					<rect id="SVGID_87_" x="54" y="29.34" width="334.8" height="234.721"/>
				</defs>
				<clipPath id="SVGID_88_">
					<use xlink:href="#SVGID_87_"  overflow="visible"/>
				</clipPath>
				
					<path opacity="0.5" clip-path="url(#SVGID_88_)" fill="#FF0000" stroke="#000000" stroke-linecap="square" stroke-linejoin="round" enable-background="new    " d="
					M325.826,264.061h6.226v-46.944h-6.226V264.061z"/>
			</g>
		</g>
		<g id="patch_47">
			<g>
				<defs>
					<rect id="SVGID_89_" x="54" y="29.34" width="334.8" height="234.721"/>
				</defs>
				<clipPath id="SVGID_90_">
					<use xlink:href="#SVGID_89_"  overflow="visible"/>
				</clipPath>
				
					<path opacity="0.5" clip-path="url(#SVGID_90_)" fill="#FF0000" stroke="#000000" stroke-linecap="square" stroke-linejoin="round" enable-background="new    " d="
					M332.052,264.061h6.226l0,0H332.052z"/>
			</g>
		</g>
		<g id="patch_48">
			<g>
				<defs>
					<rect id="SVGID_91_" x="54" y="29.34" width="334.8" height="234.721"/>
				</defs>
				<clipPath id="SVGID_92_">
					<use xlink:href="#SVGID_91_"  overflow="visible"/>
				</clipPath>
				
					<path opacity="0.5" clip-path="url(#SVGID_92_)" fill="#FF0000" stroke="#000000" stroke-linecap="square" stroke-linejoin="round" enable-background="new    " d="
					M338.277,264.061h6.227l0,0H338.277z"/>
			</g>
		</g>
		<g id="patch_49">
			<g>
				<defs>
					<rect id="SVGID_93_" x="54" y="29.34" width="334.8" height="234.721"/>
				</defs>
				<clipPath id="SVGID_94_">
					<use xlink:href="#SVGID_93_"  overflow="visible"/>
				</clipPath>
				
					<path opacity="0.5" clip-path="url(#SVGID_94_)" fill="#FF0000" stroke="#000000" stroke-linecap="square" stroke-linejoin="round" enable-background="new    " d="
					M344.504,264.061h6.227l0,0H344.504z"/>
			</g>
		</g>
		<g id="patch_50">
			<g>
				<defs>
					<rect id="SVGID_95_" x="54" y="29.34" width="334.8" height="234.721"/>
				</defs>
				<clipPath id="SVGID_96_">
					<use xlink:href="#SVGID_95_"  overflow="visible"/>
				</clipPath>
				
					<path opacity="0.5" clip-path="url(#SVGID_96_)" fill="#FF0000" stroke="#000000" stroke-linecap="square" stroke-linejoin="round" enable-background="new    " d="
					M350.73,264.061h6.227l0,0H350.73z"/>
			</g>
		</g>
		<g id="patch_51">
			<g>
				<defs>
					<rect id="SVGID_97_" x="54" y="29.34" width="334.8" height="234.721"/>
				</defs>
				<clipPath id="SVGID_98_">
					<use xlink:href="#SVGID_97_"  overflow="visible"/>
				</clipPath>
				
					<path opacity="0.5" clip-path="url(#SVGID_98_)" fill="#FF0000" stroke="#000000" stroke-linecap="square" stroke-linejoin="round" enable-background="new    " d="
					M356.957,264.061h6.227l0,0H356.957z"/>
			</g>
		</g>
		<g id="patch_52">
			<g>
				<defs>
					<rect id="SVGID_99_" x="54" y="29.34" width="334.8" height="234.721"/>
				</defs>
				<clipPath id="SVGID_100_">
					<use xlink:href="#SVGID_99_"  overflow="visible"/>
				</clipPath>
				
					<path opacity="0.5" clip-path="url(#SVGID_100_)" fill="#FF0000" stroke="#000000" stroke-linecap="square" stroke-linejoin="round" enable-background="new    " d="
					M363.184,264.061h6.226v-93.889h-6.226V264.061z"/>
			</g>
		</g>
		<g id="matplotlib.axis_1">
			<g id="xtick_1">
				<g id="line2d_1">
					<g>
						<g>
							<path id="mcb557df647" stroke="#000000" stroke-width="0.5" stroke-linejoin="round" d="M54,264.061v-4"/>
						</g>
					</g>
				</g>
				<g id="line2d_2">
					<g>
						<g>
							<path id="mdad270ee8e" stroke="#000000" stroke-width="0.5" stroke-linejoin="round" d="M54,29.34v4"/>
						</g>
					</g>
				</g>
				<g id="text_1">
					<g transform="translate(45.2521875 276.96625)scale(0.12 -0.12)">
						<g>
							<path id="BitstreamVeraSans-Roman-30" d="M31.781,66.401c-5.074,0-8.891-2.49-11.455-7.495
								c-2.551-4.989-3.825-12.5-3.825-22.534c0-9.985,1.273-17.48,3.825-22.477c2.563-5.005,6.38-7.503,11.455-7.503
								c5.115,0,8.948,2.499,11.499,7.503c2.563,4.997,3.845,12.492,3.845,22.477c0,10.034-1.282,17.546-3.845,22.534
								C40.729,63.911,36.896,66.401,31.781,66.401 M31.781,74.214c8.179,0,14.42-3.231,18.733-9.7
								c4.313-6.462,6.47-15.837,6.47-28.141c0-12.272-2.156-21.639-6.47-28.109C46.202,1.802,39.96-1.421,31.781-1.421
								c-8.167,0-14.404,3.223-18.718,9.684c-4.313,6.47-6.47,15.837-6.47,28.109c0,12.305,2.157,21.68,6.47,28.141
								C17.377,70.983,23.615,74.214,31.781,74.214"/>
						</g>
						<g>
							<path id="BitstreamVeraSans-Roman-2e" d="M74.311,12.406h10.315V-0.005H74.311V12.406z"/>
						</g>
						<g>
							<path id="BitstreamVeraSans-Roman-30_1_" d="M127.191,66.401c-5.074,0-8.891-2.49-11.455-7.495
								c-2.551-4.989-3.825-12.5-3.825-22.534c0-9.985,1.273-17.48,3.825-22.477c2.563-5.005,6.38-7.503,11.455-7.503
								c5.115,0,8.948,2.499,11.499,7.503c2.563,4.997,3.845,12.492,3.845,22.477c0,10.034-1.282,17.546-3.845,22.534
								C136.139,63.911,132.306,66.401,127.191,66.401 M127.191,74.214c8.179,0,14.42-3.231,18.733-9.7
								c4.313-6.462,6.47-15.837,6.47-28.141c0-12.272-2.156-21.639-6.47-28.109c-4.313-6.462-10.555-9.684-18.733-9.684
								c-8.167,0-14.404,3.223-18.718,9.684c-4.313,6.47-6.47,15.837-6.47,28.109c0,12.305,2.157,21.68,6.47,28.141
								C112.787,70.983,119.025,74.214,127.191,74.214"/>
						</g>
					</g>
				</g>
			</g>
			<g id="xtick_2">
				<g id="line2d_3">
					<g>
						<g>
							<path id="mcb557df647_1_" stroke="#000000" stroke-width="0.5" stroke-linejoin="round" d="M120.96,264.061v-4"/>
						</g>
					</g>
				</g>
				<g id="line2d_4">
					<g>
						<g>
							<path id="mdad270ee8e_1_" stroke="#000000" stroke-width="0.5" stroke-linejoin="round" d="M120.96,29.34v4"/>
						</g>
					</g>
				</g>
				<g id="text_2">
					<g transform="translate(112.4146875 276.96625)scale(0.12 -0.12)">
						<g>
							<path id="BitstreamVeraSans-Roman-30_2_" d="M31.782,66.401c-5.074,0-8.891-2.49-11.454-7.495
								c-2.551-4.989-3.829-12.5-3.829-22.534c0-9.985,1.278-17.48,3.829-22.477c2.563-5.005,6.38-7.503,11.454-7.503
								c5.115,0,8.948,2.499,11.499,7.503c2.563,4.997,3.845,12.492,3.845,22.477c0,10.034-1.282,17.546-3.845,22.534
								C40.73,63.911,36.897,66.401,31.782,66.401 M31.782,74.214c8.175,0,14.421-3.231,18.734-9.7
								c4.313-6.462,6.47-15.837,6.47-28.141c0-12.272-2.157-21.639-6.47-28.109c-4.313-6.462-10.559-9.684-18.734-9.684
								c-8.167,0-14.408,3.223-18.717,9.684c-4.313,6.47-6.47,15.837-6.47,28.109c0,12.305,2.157,21.68,6.47,28.141
								C17.374,70.983,23.616,74.214,31.782,74.214"/>
						</g>
						<g>
							<path id="BitstreamVeraSans-Roman-2e_1_" d="M74.312,12.406h10.311V-0.005H74.312V12.406z"/>
						</g>
						<g>
							<path id="BitstreamVeraSans-Roman-32" d="M114.599,8.296h34.419v-8.301h-46.281v8.301c3.739,3.874,8.838,9.074,15.299,15.593
								c6.466,6.535,10.531,10.742,12.187,12.646c3.153,3.54,5.359,6.543,6.608,9.001c1.261,2.458,1.892,4.866,1.892,7.243
								c0,3.874-1.359,7.031-4.077,9.473c-2.722,2.441-6.262,3.67-10.628,3.67c-3.092,0-6.36-0.537-9.794-1.603
								c-3.43-1.074-7.096-2.71-11.002-4.899v9.969c3.971,1.595,7.678,2.799,11.125,3.613c3.458,0.806,6.62,1.212,9.485,1.212
								c7.552,0,13.574-1.888,18.063-5.664c4.492-3.776,6.734-8.813,6.734-15.128c0-3.003-0.562-5.843-1.685-8.529
								c-1.115-2.677-3.157-5.843-6.128-9.489c-0.81-0.944-3.401-3.67-7.764-8.187C128.698,22.708,122.546,16.401,114.599,8.296"/>
						</g>
					</g>
				</g>
			</g>
			<g id="xtick_3">
				<g id="line2d_5">
					<g>
						<g>
							<path id="mcb557df647_2_" stroke="#000000" stroke-width="0.5" stroke-linejoin="round" d="M187.92,264.061v-4"/>
						</g>
					</g>
				</g>
				<g id="line2d_6">
					<g>
						<g>
							<path id="mdad270ee8e_2_" stroke="#000000" stroke-width="0.5" stroke-linejoin="round" d="M187.92,29.34v4"/>
						</g>
					</g>
				</g>
				<g id="text_3">
					<g transform="translate(179.1103125 276.96625)scale(0.12 -0.12)">
						<g>
							<path id="BitstreamVeraSans-Roman-30_3_" d="M31.78,66.401c-5.07,0-8.887-2.49-11.45-7.495
								c-2.555-4.989-3.829-12.5-3.829-22.534c0-9.985,1.274-17.48,3.829-22.477c2.563-5.005,6.38-7.503,11.45-7.503
								c5.115,0,8.952,2.499,11.503,7.503c2.56,4.997,3.841,12.492,3.841,22.477c0,10.034-1.282,17.546-3.841,22.534
								C40.732,63.911,36.895,66.401,31.78,66.401 M31.78,74.214c8.179,0,14.425-3.231,18.738-9.7
								c4.309-6.462,6.466-15.837,6.466-28.141c0-12.272-2.157-21.639-6.466-28.109C46.205,1.802,39.959-1.421,31.78-1.421
								c-8.167,0-14.404,3.223-18.717,9.684c-4.313,6.47-6.47,15.837-6.47,28.109c0,12.305,2.156,21.68,6.47,28.141
								C17.376,70.983,23.614,74.214,31.78,74.214"/>
						</g>
						<g>
							<path id="BitstreamVeraSans-Roman-2e_2_" d="M74.31,12.406h10.315V-0.005H74.31V12.406z"/>
						</g>
						<g>
							<path id="BitstreamVeraSans-Roman-34" d="M133.208,64.318l-24.906-38.932h24.906V64.318z M130.612,72.904h12.407V25.386
								h10.408v-8.203h-10.408V-0.005h-9.811v17.188h-32.906v9.521L130.612,72.904z"/>
						</g>
					</g>
				</g>
			</g>
			<g id="xtick_4">
				<g id="line2d_7">
					<g>
						<g>
							<path id="mcb557df647_3_" stroke="#000000" stroke-width="0.5" stroke-linejoin="round" d="M254.88,264.061v-4"/>
						</g>
					</g>
				</g>
				<g id="line2d_8">
					<g>
						<g>
							<path id="mdad270ee8e_3_" stroke="#000000" stroke-width="0.5" stroke-linejoin="round" d="M254.88,29.34v4"/>
						</g>
					</g>
				</g>
				<g id="text_4">
					<g transform="translate(246.1115625 276.96625)scale(0.12 -0.12)">
						<g>
							<path id="BitstreamVeraSans-Roman-30_4_" d="M31.787,66.401c-5.078,0-8.895-2.49-11.458-7.495
								c-2.556-4.989-3.825-12.5-3.825-22.534c0-9.985,1.27-17.48,3.825-22.477c2.563-5.005,6.38-7.503,11.458-7.503
								c5.11,0,8.943,2.499,11.491,7.503c2.571,4.997,3.849,12.492,3.849,22.477c0,10.034-1.277,17.546-3.849,22.534
								C40.73,63.911,36.897,66.401,31.787,66.401 M31.787,74.214c8.171,0,14.421-3.231,18.733-9.7
								c4.313-6.462,6.462-15.837,6.462-28.141c0-12.272-2.148-21.639-6.462-28.109c-4.313-6.462-10.563-9.684-18.733-9.684
								S17.383,1.802,13.069,8.263C8.757,14.733,6.592,24.1,6.592,36.372c0,12.305,2.165,21.68,6.478,28.141
								C17.383,70.983,23.616,74.214,31.787,74.214"/>
						</g>
						<g>
							<path id="BitstreamVeraSans-Roman-2e_3_" d="M74.316,12.406h10.311V-0.005H74.316V12.406z"/>
						</g>
						<g>
							<path id="BitstreamVeraSans-Roman-36" d="M128.426,40.376c-4.427,0-7.935-1.514-10.53-4.549
								c-2.58-3.019-3.874-7.17-3.874-12.435c0-5.241,1.294-9.383,3.874-12.443c2.596-3.035,6.104-4.557,10.53-4.557
								c4.428,0,7.935,1.522,10.522,4.557c2.58,3.06,3.874,7.202,3.874,12.443c0,5.265-1.294,9.416-3.874,12.435
								C136.36,38.862,132.854,40.376,128.426,40.376 M148.006,71.301v-8.984c-2.481,1.164-4.98,2.051-7.495,2.669
								c-2.522,0.619-5.029,0.936-7.503,0.936c-6.511,0-11.491-2.197-14.925-6.592c-3.427-4.403-5.388-11.043-5.876-19.922
								c1.921,2.832,4.329,5.005,7.227,6.519c2.897,1.505,6.096,2.262,9.57,2.262c7.324,0,13.11-2.23,17.366-6.673
								c4.248-4.435,6.372-10.482,6.372-18.123c0-7.495-2.213-13.501-6.641-18.034c-4.427-4.517-10.318-6.779-17.676-6.779
								c-8.438,0-14.884,3.223-19.344,9.684c-4.46,6.47-6.689,15.837-6.689,28.109c0,11.523,2.734,20.711,8.203,27.563
								c5.469,6.86,12.81,10.278,22.021,10.278c2.474,0,4.98-0.244,7.503-0.732C142.635,72.993,145.264,72.261,148.006,71.301"/>
						</g>
					</g>
				</g>
			</g>
			<g id="xtick_5">
				<g id="line2d_9">
					<g>
						<g>
							<path id="mcb557df647_4_" stroke="#000000" stroke-width="0.5" stroke-linejoin="round" d="M321.84,264.061v-4"/>
						</g>
					</g>
				</g>
				<g id="line2d_10">
					<g>
						<g>
							<path id="mdad270ee8e_4_" stroke="#000000" stroke-width="0.5" stroke-linejoin="round" d="M321.84,29.34v4"/>
						</g>
					</g>
				</g>
				<g id="text_5">
					<g transform="translate(313.104375 276.96625)scale(0.12 -0.12)">
						<g>
							<path id="BitstreamVeraSans-Roman-30_5_" d="M31.783,66.401c-5.07,0-8.887-2.49-11.45-7.495
								c-2.556-4.989-3.833-12.5-3.833-22.534c0-9.985,1.277-17.48,3.833-22.477c2.563-5.005,6.38-7.503,11.45-7.503
								c5.11,0,8.951,2.499,11.499,7.503c2.563,4.997,3.849,12.492,3.849,22.477c0,10.034-1.285,17.546-3.849,22.534
								C40.734,63.911,36.894,66.401,31.783,66.401 M31.783,74.214c8.179,0,14.42-3.231,18.733-9.7
								c4.313-6.462,6.47-15.837,6.47-28.141c0-12.272-2.156-21.639-6.47-28.109c-4.313-6.462-10.555-9.684-18.733-9.684
								c-8.171,0-14.404,3.223-18.718,9.684c-4.313,6.47-6.47,15.837-6.47,28.109c0,12.305,2.156,21.68,6.47,28.141
								C17.379,70.983,23.612,74.214,31.783,74.214"/>
						</g>
						<g>
							<path id="BitstreamVeraSans-Roman-2e_4_" d="M74.313,12.406h10.318V-0.005H74.313V12.406z"/>
						</g>
						<g>
							<path id="BitstreamVeraSans-Roman-38" d="M127.193,34.631c-4.688,0-8.374-1.261-11.06-3.776
								c-2.678-2.506-4.013-5.957-4.013-10.335c0-4.395,1.335-7.853,4.013-10.368c2.686-2.506,6.372-3.76,11.06-3.76
								s8.382,1.261,11.084,3.776c2.701,2.539,4.053,5.981,4.053,10.352c0,4.378-1.335,7.829-4.028,10.335
								C135.624,33.369,131.921,34.631,127.193,34.631 M117.33,38.813c-4.224,1.042-7.52,3.011-9.888,5.908
								c-2.353,2.905-3.524,6.437-3.524,10.604c0,5.827,2.067,10.425,6.218,13.81c4.15,3.385,9.839,5.078,17.058,5.078
								c7.259,0,12.955-1.693,17.09-5.078c4.142-3.385,6.209-7.983,6.209-13.81c0-4.167-1.18-7.699-3.548-10.604
								c-2.353-2.897-5.632-4.866-9.823-5.908c4.745-1.107,8.447-3.271,11.084-6.502c2.661-3.215,3.988-7.153,3.988-11.792
								c0-7.08-2.157-12.5-6.47-16.284c-4.306-3.768-10.49-5.656-18.53-5.656c-8.032,0-14.209,1.888-18.53,5.656
								c-4.313,3.784-6.47,9.204-6.47,16.284c0,4.639,1.334,8.577,4.004,11.792C108.866,35.542,112.585,37.707,117.33,38.813
								 M113.725,54.39c0-3.768,1.18-6.714,3.532-8.822c2.368-2.116,5.672-3.174,9.937-3.174c4.239,0,7.552,1.058,9.937,3.174
								c2.4,2.108,3.597,5.054,3.597,8.822c0,3.784-1.196,6.73-3.597,8.846c-2.385,2.108-5.697,3.166-9.937,3.166
								c-4.265,0-7.568-1.058-9.937-3.166C114.904,61.12,113.725,58.174,113.725,54.39"/>
						</g>
					</g>
				</g>
			</g>
			<g id="xtick_6">
				<g id="line2d_11">
					<g>
						<g>
							<path id="mcb557df647_5_" stroke="#000000" stroke-width="0.5" stroke-linejoin="round" d="M388.8,264.061v-4"/>
						</g>
					</g>
				</g>
				<g id="line2d_12">
					<g>
						<g>
							<path id="mdad270ee8e_5_" stroke="#000000" stroke-width="0.5" stroke-linejoin="round" d="M388.8,29.34v4"/>
						</g>
					</g>
				</g>
				<g id="text_6">
					<g transform="translate(380.315625 276.96625)scale(0.12 -0.12)">
						<g>
							<path id="BitstreamVeraSans-Roman-31" d="M12.412,8.296h16.104v55.632l-17.529-3.524v8.984l17.44,3.516h9.854V8.296h16.105
								v-8.301H12.412V8.296z"/>
						</g>
						<g>
							<path id="BitstreamVeraSans-Roman-2e_5_" d="M74.31,12.406h10.319V-0.005H74.31V12.406z"/>
						</g>
						<g>
							<path id="BitstreamVeraSans-Roman-30_6_" d="M127.19,66.401c-5.07,0-8.887-2.49-11.45-7.495
								c-2.547-4.989-3.833-12.5-3.833-22.534c0-9.985,1.286-17.48,3.833-22.477c2.563-5.005,6.38-7.503,11.45-7.503
								c5.119,0,8.952,2.499,11.507,7.503c2.556,4.997,3.842,12.492,3.842,22.477c0,10.034-1.286,17.546-3.842,22.534
								C136.143,63.911,132.31,66.401,127.19,66.401 M127.19,74.214c8.179,0,14.429-3.231,18.742-9.7
								c4.305-6.462,6.461-15.837,6.461-28.141c0-12.272-2.156-21.639-6.461-28.109c-4.313-6.462-10.563-9.684-18.742-9.684
								c-8.162,0-14.404,3.223-18.718,9.684c-4.313,6.47-6.461,15.837-6.461,28.109c0,12.305,2.148,21.68,6.461,28.141
								C112.786,70.983,119.028,74.214,127.19,74.214"/>
						</g>
					</g>
				</g>
			</g>
		</g>
		<g id="matplotlib.axis_2">
			<g id="ytick_1">
				<g id="line2d_13">
					<g>
						<g>
							<path id="mc8fcea1516" stroke="#000000" stroke-width="0.5" stroke-linejoin="round" d="M54,264.061h4"/>
						</g>
					</g>
				</g>
				<g id="line2d_14">
					<g>
						<g>
							<path id="m0d5b0a6425" stroke="#000000" stroke-width="0.5" stroke-linejoin="round" d="M388.8,264.061h-4"/>
						</g>
					</g>
				</g>
				<g id="text_7">
					<g transform="translate(43.953125 268.4278125)scale(0.12 -0.12)">
						<g>
							<path id="BitstreamVeraSans-Roman-30_7_" d="M31.783,66.407c-5.07,0-8.887-2.507-11.45-7.503
								c-2.551-4.989-3.829-12.5-3.829-22.526c0-9.993,1.278-17.489,3.829-22.485c2.563-5.005,6.38-7.503,11.45-7.503
								c5.119,0,8.952,2.498,11.503,7.503c2.56,4.997,3.845,12.492,3.845,22.485c0,10.026-1.286,17.537-3.845,22.526
								C40.734,63.9,36.901,66.407,31.783,66.407 M31.783,74.219c8.179,0,14.424-3.239,18.738-9.7
								c4.309-6.462,6.465-15.837,6.465-28.141c0-12.272-2.156-21.647-6.465-28.109c-4.313-6.462-10.559-9.692-18.738-9.692
								c-8.163,0-14.404,3.231-18.718,9.692c-4.313,6.461-6.47,15.836-6.47,28.109c0,12.305,2.157,21.68,6.47,28.141
								C17.378,70.98,23.62,74.219,31.783,74.219"/>
						</g>
					</g>
				</g>
			</g>
			<g id="ytick_2">
				<g id="line2d_15">
					<g>
						<g>
							<path id="mc8fcea1516_1_" stroke="#000000" stroke-width="0.5" stroke-linejoin="round" d="M54,217.116h4"/>
						</g>
					</g>
				</g>
				<g id="line2d_16">
					<g>
						<g>
							<path id="m0d5b0a6425_1_" stroke="#000000" stroke-width="0.5" stroke-linejoin="round" d="M388.8,217.116h-4"/>
						</g>
					</g>
				</g>
				<g id="text_8">
					<g transform="translate(44.79125 221.490375)scale(0.12 -0.12)">
						<g>
							<path id="BitstreamVeraSans-Roman-31_1_" d="M12.413,8.302h16.105v55.615l-17.529-3.516v8.984l17.44,3.516h9.855v-64.6
								h16.113V0.001H12.413V8.302z"/>
						</g>
					</g>
				</g>
			</g>
			<g id="ytick_3">
				<g id="line2d_17">
					<g>
						<g>
							<path id="mc8fcea1516_2_" stroke="#000000" stroke-width="0.5" stroke-linejoin="round" d="M54.001,170.172h4"/>
						</g>
					</g>
				</g>
				<g id="line2d_18">
					<g>
						<g>
							<path id="m0d5b0a6425_2_" stroke="#000000" stroke-width="0.5" stroke-linejoin="round" d="M388.8,170.172h-4"/>
						</g>
					</g>
				</g>
				<g id="text_9">
					<g transform="translate(44.44625 174.625125)scale(0.12 -0.12)">
						<g>
							<path id="BitstreamVeraSans-Roman-32_1_" d="M19.19,8.302h34.424V0.001H7.333v8.301c3.74,3.874,8.838,9.066,15.295,15.592
								c6.47,6.527,10.531,10.742,12.187,12.639c3.157,3.54,5.359,6.535,6.612,9c1.262,2.458,1.888,4.875,1.888,7.251
								c0,3.874-1.359,7.031-4.077,9.464c-2.718,2.45-6.258,3.67-10.624,3.67c-3.093,0-6.36-0.537-9.798-1.611
								c-3.426-1.066-7.092-2.702-10.999-4.883v9.961c3.967,1.595,7.678,2.799,11.125,3.613c3.459,0.814,6.621,1.221,9.485,1.221
								c7.552,0,13.57-1.888,18.063-5.672c4.488-3.768,6.734-8.813,6.734-15.128c0-2.995-0.562-5.843-1.689-8.529
								c-1.115-2.677-3.157-5.843-6.124-9.489c-0.814-0.944-3.402-3.67-7.768-8.187C33.29,22.706,27.141,16.399,19.19,8.302"/>
						</g>
					</g>
				</g>
			</g>
			<g id="ytick_4">
				<g id="line2d_19">
					<g>
						<g>
							<path id="mc8fcea1516_3_" stroke="#000000" stroke-width="0.5" stroke-linejoin="round" d="M54.001,123.228h4"/>
						</g>
					</g>
				</g>
				<g id="line2d_20">
					<g>
						<g>
							<path id="m0d5b0a6425_3_" stroke="#000000" stroke-width="0.5" stroke-linejoin="round" d="M388.8,123.228h-4"/>
						</g>
					</g>
				</g>
				<g id="text_10">
					<g transform="translate(44.241875 127.5958125)scale(0.12 -0.12)">
						<g>
							<path id="BitstreamVeraSans-Roman-33" d="M40.584,39.312c4.72-1.009,8.398-3.113,11.047-6.311
								c2.657-3.19,3.983-7.125,3.983-11.813c0-7.19-2.474-12.756-7.422-16.703c-4.948-3.939-11.979-5.908-21.094-5.908
								c-3.052,0-6.197,0.301-9.44,0.907c-3.239,0.606-6.58,1.51-10.03,2.718v9.517c2.73-1.595,5.721-2.799,8.972-3.609
								C19.86,7.296,23.266,6.89,26.818,6.89c6.177,0,10.885,1.221,14.124,3.658c3.239,2.438,4.858,5.981,4.858,10.641
								c0,4.301-1.505,7.662-4.513,10.079c-3.011,2.425-7.198,3.638-12.565,3.638h-8.5v8.109h8.891
								c4.846,0,8.553,0.968,11.125,2.909c2.576,1.937,3.862,4.729,3.862,8.374c0,3.74-1.327,6.608-3.984,8.61
								c-2.649,2.01-6.445,3.015-11.393,3.015c-2.706,0-5.607-0.297-8.704-0.891c-3.092-0.586-6.494-1.489-10.201-2.718v8.781
								c3.748,1.042,7.259,1.823,10.531,2.344c3.271,0.521,6.356,0.781,9.249,0.781c7.491,0,13.411-1.705,17.765-5.11
								c4.366-3.394,6.547-7.992,6.547-13.782c0-4.041-1.155-7.451-3.467-10.234C48.132,42.31,44.844,40.386,40.584,39.312"/>
						</g>
					</g>
				</g>
			</g>
			<g id="ytick_5">
				<g id="line2d_21">
					<g>
						<g>
							<path id="mc8fcea1516_4_" stroke="#000000" stroke-width="0.5" stroke-linejoin="round" d="M54.001,76.284h4"/>
						</g>
					</g>
				</g>
				<g id="line2d_22">
					<g>
						<g>
							<path id="m0d5b0a6425_4_" stroke="#000000" stroke-width="0.5" stroke-linejoin="round" d="M388.8,76.284h-4"/>
						</g>
					</g>
				</g>
				<g id="text_11">
					<g transform="translate(43.625 80.658375)scale(0.12 -0.12)">
						<g>
							<path id="BitstreamVeraSans-Roman-34_1_" d="M37.803,64.312l-24.907-38.92h24.907V64.312z M35.21,72.906h12.402V25.392
								h10.409v-8.203H47.613V0.001h-9.81v17.188H4.896v9.513L35.21,72.906z"/>
						</g>
					</g>
				</g>
			</g>
			<g id="ytick_6">
				<g id="line2d_23">
					<g>
						<g>
							<path id="mc8fcea1516_5_" stroke="#000000" stroke-width="0.5" stroke-linejoin="round" d="M54.001,29.34h4"/>
						</g>
					</g>
				</g>
				<g id="line2d_24">
					<g>
						<g>
							<path id="m0d5b0a6425_5_" stroke="#000000" stroke-width="0.5" stroke-linejoin="round" d="M388.801,29.34h-4"/>
						</g>
					</g>
				</g>
				<g id="text_12">
					<g transform="translate(44.339375 33.6290625)scale(0.12 -0.12)">
						<g>
							<path id="BitstreamVeraSans-Roman-35" d="M10.801,72.906h38.721v-8.313H19.834V46.734c1.428,0.488,2.853,0.854,4.281,1.094
								c1.437,0.24,2.877,0.358,4.313,0.358c8.134,0,14.58-2.23,19.328-6.686c4.761-4.459,7.141-10.494,7.141-18.111
								c0-7.845-2.441-13.94-7.329-18.294C42.682,0.75,35.797-1.423,26.914-1.423c-3.064,0-6.185,0.26-9.363,0.781
								C14.386-0.121,11.11,0.66,7.725,1.702v9.924c2.926-1.595,5.953-2.783,9.078-3.564s6.425-1.172,9.908-1.172
								c5.631,0,10.091,1.481,13.375,4.439c3.292,2.958,4.936,6.979,4.936,12.061c0,5.074-1.644,9.09-4.936,12.048
								c-3.284,2.966-7.743,4.452-13.375,4.452c-2.637,0-5.266-0.289-7.894-0.875c-2.612-0.582-5.286-1.493-8.016-2.734V72.906z"/>
						</g>
					</g>
				</g>
			</g>
		</g>
		<g id="patch_53">
			<path fill="none" stroke="#000000" stroke-linecap="square" stroke-linejoin="round" d="M54.001,29.34h334.8"/>
		</g>
		<g id="patch_54">
			<path fill="none" stroke="#000000" stroke-linecap="square" stroke-linejoin="round" d="M388.801,264.061V29.34"/>
		</g>
		<g id="patch_55">
			<path fill="none" stroke="#000000" stroke-linecap="square" stroke-linejoin="round" d="M54.001,264.061h334.8"/>
		</g>
		<g id="patch_56">
			<path fill="none" stroke="#000000" stroke-linecap="square" stroke-linejoin="round" d="M54.001,264.061V29.34"/>
		</g>
		<g id="text_13">
			<g transform="translate(112.032 24.34)scale(0.144 -0.144)">
				<g>
					<path id="BitstreamVeraSans-Roman-46" d="M9.816,72.904h41.891v-8.311h-32.03V43.109h28.907v-8.297H19.677V0.001h-9.86V72.904z
						"/>
				</g>
				<g>
					<path id="BitstreamVeraSans-Roman-73" d="M101.807,53.078v-8.501c-2.533,1.302-5.168,2.279-7.908,2.923
						c-2.729,0.658-5.561,0.983-8.5,0.983c-4.456,0-7.803-0.682-10.03-2.044c-2.228-1.367-3.343-3.418-3.343-6.158
						c0-2.082,0.797-3.72,2.391-4.906c1.593-1.187,4.801-2.316,9.623-3.391l3.079-0.685c6.375-1.367,10.909-3.292,13.594-5.785
						c2.689-2.489,4.032-5.961,4.032-10.42c0-5.083-2.011-9.111-6.029-12.078c-4.021-2.96-9.548-4.438-16.581-4.438
						c-2.926,0-5.978,0.288-9.155,0.861c-3.177,0.573-6.521,1.427-10.03,2.563v9.281c3.323-1.729,6.592-3.028,9.813-3.893
						c3.218-0.854,6.409-1.282,9.576-1.282c4.231,0,7.48,0.726,9.752,2.174c2.279,1.448,3.421,3.489,3.421,6.124
						c0,2.438-0.824,4.307-2.469,5.608c-1.638,1.302-5.239,2.561-10.813,3.768l-3.126,0.736c-5.561,1.167-9.583,2.963-12.062,5.388
						c-2.468,2.428-3.703,5.758-3.703,9.986c0,5.144,1.821,9.114,5.469,11.905c3.646,2.804,8.823,4.205,15.53,4.205
						c3.313,0,6.433-0.248,9.359-0.736C96.636,54.787,99.338,54.058,101.807,53.078"/>
				</g>
				<g>
					<path id="BitstreamVeraSans-Roman-74" d="M127.937,70.219v-15.53h18.5v-6.985h-18.5V18.017c0-4.459,0.61-7.324,1.828-8.596
						c1.221-1.268,3.703-1.906,7.453-1.906h9.22V0.001h-9.22c-6.938,0-11.722,1.289-14.36,3.873
						c-2.635,2.594-3.95,7.307-3.95,14.143v29.687h-6.595v6.985h6.595v15.53H127.937z"/>
				</g>
				<g>
					<path id="BitstreamVeraSans-Roman-2d" d="M153.724,31.39h26.313v-7.999h-26.313V31.39z"/>
				</g>
				<g>
					<path id="BitstreamVeraSans-Roman-74_1_" d="M203.23,70.219v-15.53h18.5v-6.985h-18.5V18.017c0-4.459,0.607-7.324,1.828-8.596
						c1.217-1.268,3.703-1.906,7.453-1.906h9.22V0.001h-9.22c-6.938,0-11.726,1.289-14.36,3.873
						c-2.635,2.594-3.954,7.307-3.954,14.143v29.687h-6.592v6.985h6.592v15.53H203.23z"/>
				</g>
				<g>
					<path id="BitstreamVeraSans-Roman-65" d="M280.328,29.593v-4.392h-41.311c0.396-6.185,2.262-10.898,5.595-14.14
						c3.333-3.238,7.979-4.859,13.937-4.859c3.448,0,6.792,0.42,10.03,1.265c3.242,0.844,6.46,2.116,9.657,3.815V2.782
						c-3.228-1.367-6.538-2.408-9.921-3.126c-3.388-0.719-6.819-1.078-10.298-1.078c-8.728,0-15.638,2.536-20.735,7.609
						c-5.093,5.086-7.64,11.959-7.64,20.626c0,8.948,2.418,16.045,7.25,21.298c4.835,5.259,11.356,7.891,19.565,7.891
						c7.352,0,13.17-2.37,17.453-7.111C278.188,44.16,280.328,37.728,280.328,29.593 M271.345,32.234
						c-0.064,4.907-1.438,8.823-4.126,11.75c-2.686,2.94-6.243,4.408-10.671,4.408c-5.008,0-9.02-1.417-12.031-4.252
						c-3.011-2.831-4.744-6.822-5.205-11.966L271.345,32.234z"/>
				</g>
				<g>
					<path id="BitstreamVeraSans-Roman-73_1_" d="M329.929,53.078v-8.501c-2.529,1.302-5.164,2.279-7.904,2.923
						c-2.73,0.658-5.564,0.983-8.501,0.983c-4.459,0-7.802-0.682-10.03-2.044c-2.231-1.367-3.343-3.418-3.343-6.158
						c0-2.082,0.797-3.72,2.391-4.906c1.594-1.187,4.801-2.316,9.623-3.391l3.079-0.685c6.375-1.367,10.905-3.292,13.594-5.785
						c2.689-2.489,4.032-5.961,4.032-10.42c0-5.083-2.011-9.111-6.032-12.078c-4.021-2.96-9.545-4.438-16.578-4.438
						c-2.927,0-5.979,0.288-9.155,0.861c-3.177,0.573-6.521,1.427-10.034,2.563v9.281c3.323-1.729,6.595-3.028,9.813-3.893
						c3.221-0.854,6.412-1.282,9.579-1.282c4.229,0,7.48,0.726,9.749,2.174c2.282,1.448,3.425,3.489,3.425,6.124
						c0,2.438-0.824,4.307-2.468,5.608c-1.638,1.302-5.242,2.561-10.813,3.768l-3.126,0.736c-5.561,1.167-9.583,2.963-12.061,5.388
						c-2.469,2.428-3.703,5.758-3.703,9.986c0,5.144,1.821,9.114,5.466,11.905c3.648,2.804,8.823,4.205,15.533,4.205
						c3.313,0,6.433-0.248,9.359-0.736C324.758,54.787,327.46,54.058,329.929,53.078"/>
				</g>
				<g>
					<path id="BitstreamVeraSans-Roman-74_2_" d="M356.062,70.219v-15.53h18.5v-6.985h-18.5V18.017c0-4.459,0.607-7.324,1.828-8.596
						c1.217-1.268,3.703-1.906,7.453-1.906h9.22V0.001h-9.22c-6.938,0-11.726,1.289-14.36,3.873
						c-2.635,2.594-3.954,7.307-3.954,14.143v29.687h-6.592v6.985h6.592v15.53H356.062z"/>
				</g>
				<g>
					<path id="BitstreamVeraSans-Roman-20" d="M376.96,0.001"/>
				</g>
				<g>
					<path id="BitstreamVeraSans-Roman-66" d="M445.855,75.983V68.5h-8.592c-3.221,0-5.459-0.651-6.721-1.953
						c-1.251-1.302-1.875-3.645-1.875-7.029v-4.829h14.797v-6.985h-14.797V0.001h-9.03v47.703h-8.596v6.985h8.596V58.5
						c0,6.083,1.414,10.515,4.249,13.295c2.834,2.794,7.324,4.188,13.468,4.188H445.855z"/>
				</g>
				<g>
					<path id="BitstreamVeraSans-Roman-6f" d="M474.559,48.392c-4.812,0-8.62-1.882-11.42-5.643
						c-2.804-3.76-4.205-8.911-4.205-15.452s1.39-11.691,4.174-15.456c2.791-3.757,6.609-5.639,11.451-5.639
						c4.791,0,8.585,1.885,11.376,5.656c2.801,3.781,4.205,8.928,4.205,15.438c0,6.48-1.404,11.614-4.205,15.405
						C483.144,46.497,479.35,48.392,474.559,48.392 M474.559,56.001c7.813,0,13.95-2.543,18.409-7.626
						c4.469-5.073,6.7-12.099,6.7-21.078c0-8.948-2.231-15.974-6.7-21.078c-4.459-5.096-10.596-7.643-18.409-7.643
						c-7.843,0-13.987,2.546-18.436,7.643c-4.439,5.104-6.656,12.129-6.656,21.078c0,8.979,2.217,16.005,6.656,21.078
						C460.571,53.458,466.715,56.001,474.559,56.001"/>
				</g>
				<g>
					<path id="BitstreamVeraSans-Roman-72" d="M546.241,46.296c-1.01,0.583-2.109,1.01-3.296,1.282
						c-1.187,0.281-2.496,0.42-3.923,0.42c-5.083,0-8.982-1.651-11.702-4.951c-2.719-3.303-4.079-8.046-4.079-14.235V0.001h-9.03
						v54.688h9.03v-8.5c1.896,3.323,4.354,5.785,7.375,7.389c3.032,1.617,6.714,2.424,11.047,2.424c0.614,0,1.299-0.044,2.048-0.125
						c0.749-0.075,1.577-0.193,2.482-0.359L546.241,46.296z"/>
				</g>
				<g>
					<path id="BitstreamVeraSans-Roman-20_1_" d="M546.244,0.001"/>
				</g>
				<g>
					<path id="BitstreamVeraSans-Roman-6d" d="M630.032,44.187c2.252,4.042,4.938,7.022,8.063,8.938
						c3.126,1.916,6.802,2.875,11.031,2.875c5.7,0,10.094-1.997,13.187-5.985c3.096-3.981,4.642-9.647,4.642-17.002V0.001h-9.03
						v32.718c0,5.239-0.936,9.125-2.797,11.654c-1.854,2.543-4.683,3.815-8.487,3.815c-4.655,0-8.338-1.55-11.044-4.642
						c-2.699-3.083-4.048-7.297-4.048-12.641V0.001h-9.03v32.718c0,5.27-0.929,9.166-2.781,11.688
						c-1.855,2.52-4.72,3.781-8.596,3.781c-4.595,0-8.243-1.553-10.953-4.656c-2.699-3.106-4.048-7.314-4.048-12.627V0.001h-9.03
						v54.688h9.03v-8.5c2.055,3.354,4.513,5.829,7.375,7.422c2.865,1.594,6.266,2.391,10.203,2.391c3.98,0,7.361-1.011,10.142-3.031
						C626.641,50.958,628.699,48.032,630.032,44.187"/>
				</g>
				<g>
					<path id="BitstreamVeraSans-Roman-69" d="M684.865,54.688h8.986V0.001h-8.986V54.688z M684.865,75.983h8.986v-11.39h-8.986
						V75.983z"/>
				</g>
				<g>
					<path id="BitstreamVeraSans-Roman-6e" d="M758.118,33.014V0.001h-8.986v32.718c0,5.178-1.01,9.047-3.024,11.607
						c-2.021,2.574-5.053,3.862-9.087,3.862c-4.849,0-8.681-1.55-11.481-4.642c-2.801-3.083-4.201-7.297-4.201-12.641V0.001h-9.03
						v54.688h9.03v-8.5c2.156,3.292,4.683,5.75,7.592,7.375c2.916,1.624,6.287,2.438,10.098,2.438c6.28,0,11.027-1.943,14.248-5.829
						C756.503,46.286,758.118,40.569,758.118,33.014"/>
				</g>
				<g>
					<path id="BitstreamVeraSans-Roman-69_1_" d="M776.028,54.688h8.986V0.001h-8.986V54.688z M776.028,75.983h8.986v-11.39h-8.986
						V75.983z"/>
				</g>
				<g>
					<path id="BitstreamVeraSans-Roman-6d_1_" d="M846.388,44.187c2.251,4.042,4.944,7.022,8.063,8.938
						c3.126,1.916,6.802,2.875,11.034,2.875c5.696,0,10.091-1.997,13.19-5.985c3.092-3.981,4.639-9.647,4.639-17.002V0.001h-9.033
						v32.718c0,5.239-0.936,9.125-2.794,11.654c-1.858,2.543-4.686,3.815-8.49,3.815c-4.652,0-8.335-1.55-11.041-4.642
						c-2.699-3.083-4.048-7.297-4.048-12.641V0.001h-9.033v32.718c0,5.27-0.929,9.166-2.781,11.688
						c-1.851,2.52-4.72,3.781-8.592,3.781c-4.598,0-8.247-1.553-10.959-4.656c-2.692-3.106-4.042-7.314-4.042-12.627V0.001h-9.033
						v54.688h9.033v-8.5c2.048,3.354,4.51,5.829,7.378,7.422c2.862,1.594,6.266,2.391,10.2,2.391c3.974,0,7.358-1.011,10.139-3.031
						C843.004,50.958,845.052,48.032,846.388,44.187"/>
				</g>
				<g>
					<path id="BitstreamVeraSans-Roman-75" d="M900.302,21.577v33.111h8.986V21.923c0-5.178,1.004-9.063,3.011-11.658
						c2.021-2.583,5.059-3.875,9.101-3.875c4.842,0,8.667,1.546,11.481,4.642c2.821,3.092,4.231,7.311,4.231,12.654v31.002h8.986
						V0.001h-8.986v8.406c-2.177-3.323-4.707-5.792-7.588-7.409c-2.875-1.614-6.226-2.421-10.037-2.421
						c-6.28,0-11.054,1.953-14.309,5.859C901.923,8.343,900.302,14.056,900.302,21.577"/>
				</g>
				<g>
					<path id="BitstreamVeraSans-Roman-6d_2_" d="M1007.182,44.187c2.245,4.042,4.937,7.022,8.063,8.938
						c3.12,1.916,6.795,2.875,11.027,2.875c5.696,0,10.091-1.997,13.19-5.985c3.093-3.981,4.639-9.647,4.639-17.002V0.001h-9.026
						v32.718c0,5.239-0.936,9.125-2.801,11.654c-1.851,2.543-4.686,3.815-8.484,3.815c-4.652,0-8.341-1.55-11.047-4.642
						c-2.699-3.083-4.048-7.297-4.048-12.641V0.001h-9.033v32.718c0,5.27-0.922,9.166-2.781,11.688
						c-1.852,2.52-4.72,3.781-8.585,3.781c-4.598,0-8.247-1.553-10.959-4.656c-2.699-3.106-4.042-7.314-4.042-12.627V0.001h-9.033
						v54.688h9.033v-8.5c2.048,3.354,4.503,5.829,7.372,7.422s6.266,2.391,10.207,2.391c3.974,0,7.351-1.011,10.138-3.031
						C1003.791,50.958,1005.846,48.032,1007.182,44.187"/>
				</g>
				<g>
					<path id="BitstreamVeraSans-Roman-20_2_" d="M1052.592,0.001"/>
				</g>
				<g>
					<path id="BitstreamVeraSans-Roman-65_1_" d="M1140.584,29.593v-4.392h-41.314c0.393-6.185,2.265-10.898,5.595-14.14
						c3.33-3.238,7.982-4.859,13.937-4.859c3.445,0,6.795,0.42,10.03,1.265c3.242,0.844,6.463,2.116,9.657,3.815V2.782
						c-3.228-1.367-6.531-2.408-9.921-3.126c-3.384-0.719-6.816-1.078-10.295-1.078c-8.735,0-15.639,2.536-20.738,7.609
						c-5.093,5.086-7.636,11.959-7.636,20.626c0,8.948,2.415,16.045,7.25,21.298c4.835,5.259,11.353,7.891,19.565,7.891
						c7.351,0,13.17-2.37,17.449-7.111C1138.441,44.16,1140.584,37.728,1140.584,29.593 M1131.599,32.234
						c-0.061,4.907-1.438,8.823-4.124,11.75c-2.692,2.94-6.246,4.408-10.674,4.408c-5.012,0-9.02-1.417-12.031-4.252
						c-3.011-2.831-4.74-6.822-5.201-11.966L1131.599,32.234z"/>
				</g>
				<g>
					<path id="BitstreamVeraSans-Roman-73_2_" d="M1190.186,53.078v-8.501c-2.536,1.302-5.167,2.279-7.907,2.923
						c-2.727,0.658-5.561,0.983-8.504,0.983c-4.449,0-7.799-0.682-10.023-2.044c-2.231-1.367-3.35-3.418-3.35-6.158
						c0-2.082,0.8-3.72,2.394-4.906c1.594-1.187,4.801-2.316,9.623-3.391l3.079-0.685c6.375-1.367,10.905-3.292,13.59-5.785
						c2.692-2.489,4.035-5.961,4.035-10.42c0-5.083-2.014-9.111-6.029-12.078c-4.021-2.96-9.549-4.438-16.582-4.438
						c-2.923,0-5.975,0.288-9.155,0.861c-3.181,0.573-6.517,1.427-10.03,2.563v9.281c3.323-1.729,6.592-3.028,9.813-3.893
						c3.221-0.854,6.409-1.282,9.576-1.282c4.232,0,7.48,0.726,9.752,2.174c2.279,1.448,3.425,3.489,3.425,6.124
						c0,2.438-0.827,4.307-2.468,5.608c-1.642,1.302-5.243,2.561-10.817,3.768l-3.126,0.736c-5.561,1.167-9.583,2.963-12.058,5.388
						c-2.469,2.428-3.703,5.758-3.703,9.986c0,5.144,1.817,9.114,5.466,11.905c3.648,2.804,8.823,4.205,15.53,4.205
						c3.31,0,6.429-0.248,9.359-0.736C1185.018,54.787,1187.717,54.058,1190.186,53.078"/>
				</g>
				<g>
					<path id="BitstreamVeraSans-Roman-74_3_" d="M1216.315,70.219v-15.53h18.5v-6.985h-18.5V18.017c0-4.459,0.61-7.324,1.824-8.596
						c1.221-1.268,3.703-1.906,7.46-1.906h9.216V0.001h-9.216c-6.944,0-11.726,1.289-14.364,3.873
						c-2.631,2.594-3.947,7.307-3.947,14.143v29.687h-6.599v6.985h6.599v15.53H1216.315z"/>
				</g>
				<g>
					<path id="BitstreamVeraSans-Roman-69_2_" d="M1246.636,54.688h8.979V0.001h-8.979V54.688z M1246.636,75.983h8.979v-11.39
						h-8.979V75.983z"/>
				</g>
				<g>
					<path id="BitstreamVeraSans-Roman-6d_3_" d="M1316.996,44.187c2.245,4.042,4.937,7.022,8.063,8.938
						c3.12,1.916,6.795,2.875,11.027,2.875c5.696,0,10.091-1.997,13.19-5.985c3.093-3.981,4.639-9.647,4.639-17.002V0.001h-9.026
						v32.718c0,5.239-0.936,9.125-2.801,11.654c-1.851,2.543-4.686,3.815-8.484,3.815c-4.652,0-8.341-1.55-11.047-4.642
						c-2.699-3.083-4.048-7.297-4.048-12.641V0.001h-9.033v32.718c0,5.27-0.922,9.166-2.781,11.688
						c-1.852,2.52-4.72,3.781-8.585,3.781c-4.598,0-8.247-1.553-10.959-4.656c-2.699-3.106-4.042-7.314-4.042-12.627V0.001h-9.033
						v54.688h9.033v-8.5c2.048,3.354,4.503,5.829,7.372,7.422s6.266,2.391,10.207,2.391c3.974,0,7.351-1.011,10.138-3.031
						C1313.605,50.958,1315.66,48.032,1316.996,44.187"/>
				</g>
				<g>
					<path id="BitstreamVeraSans-Roman-61" d="M1396.688,27.484c-7.256,0-12.289-0.827-15.096-2.485
						c-2.801-1.655-4.205-4.49-4.205-8.498c0-3.188,1.058-5.72,3.16-7.596c2.103-1.865,4.958-2.797,8.559-2.797
						c4.991,0,8.993,1.767,12.003,5.3c3.011,3.53,4.517,8.223,4.517,14.076v2H1396.688z M1414.612,31.204V0.001h-8.986v8.294
						c-2.048-3.309-4.611-5.757-7.67-7.341c-3.065-1.583-6.809-2.377-11.237-2.377c-5.588,0-10.05,1.573-13.36,4.72
						c-3.296,3.147-4.951,7.355-4.951,12.625c0,6.147,2.055,10.783,6.171,13.906c4.123,3.126,10.268,4.689,18.433,4.689h12.614
						v0.888c0,4.137-1.356,7.334-4.083,9.596c-2.712,2.258-6.531,3.391-11.447,3.391c-3.126,0-6.171-0.376-9.142-1.126
						c-2.957-0.75-5.805-1.875-8.531-3.374v8.311c3.282,1.271,6.47,2.218,9.563,2.845c3.092,0.634,6.104,0.953,9.033,0.953
						c7.914,0,13.828-2.052,17.734-6.158C1412.659,45.75,1414.612,39.535,1414.612,31.204"/>
				</g>
				<g>
					<path id="BitstreamVeraSans-Roman-74_4_" d="M1442.003,70.219v-15.53h18.5v-6.985h-18.5V18.017
						c0-4.459,0.604-7.324,1.824-8.596c1.214-1.268,3.703-1.906,7.453-1.906h9.223V0.001h-9.223c-6.938,0-11.726,1.289-14.363,3.873
						c-2.631,2.594-3.947,7.307-3.947,14.143v29.687h-6.592v6.985h6.592v15.53H1442.003z"/>
				</g>
				<g>
					<path id="BitstreamVeraSans-Roman-65_2_" d="M1519.097,29.593v-4.392h-41.314c0.4-6.185,2.265-10.898,5.602-14.14
						c3.33-3.238,7.976-4.859,13.93-4.859c3.452,0,6.795,0.42,10.037,1.265s6.456,2.116,9.657,3.815V2.782
						c-3.228-1.367-6.537-2.408-9.928-3.126c-3.384-0.719-6.815-1.078-10.294-1.078c-8.728,0-15.639,2.536-20.738,7.609
						c-5.086,5.086-7.636,11.959-7.636,20.626c0,8.948,2.414,16.045,7.25,21.298c4.835,5.259,11.359,7.891,19.565,7.891
						c7.352,0,13.17-2.37,17.456-7.111C1516.954,44.16,1519.097,37.728,1519.097,29.593 M1510.118,32.234
						c-0.068,4.907-1.438,8.823-4.13,11.75c-2.686,2.94-6.246,4.408-10.667,4.408c-5.012,0-9.02-1.417-12.031-4.252
						c-3.011-2.831-4.747-6.822-5.208-11.966L1510.118,32.234z"/>
				</g>
			</g>
		</g>
	</g>
</g>
</svg>
