<?xml version="1.0" encoding="utf-8"?>
<!-- Generator: Adobe Illustrator 16.0.0, SVG Export Plug-In . SVG Version: 6.00 Build 0)  -->
<!DOCTYPE svg PUBLIC "-//W3C//DTD SVG 1.1//EN" "http://www.w3.org/Graphics/SVG/1.1/DTD/svg11.dtd">
<svg version="1.1" id="Layer_1" xmlns="http://www.w3.org/2000/svg" xmlns:xlink="http://www.w3.org/1999/xlink" x="0px" y="0px"
	 width="1728px" height="872.1px" viewBox="0 0 1728 872.1" enable-background="new 0 0 1728 872.1" xml:space="preserve">
<g id="figure_1">
	<g id="axes_1">
		<g id="patch_2">
			<path fill="#FFFFFF" d="M216,784.89h1339.2V87.21H216V784.89z"/>
		</g>
		<g id="line2d_1">
			<g>
				<defs>
					<rect id="SVGID_1_" x="216" y="87.21" width="1339.2" height="697.68"/>
				</defs>
				<clipPath id="SVGID_2_">
					<use xlink:href="#SVGID_1_"  overflow="visible"/>
				</clipPath>
				
					<path clip-path="url(#SVGID_2_)" fill="none" stroke="#FF0000" stroke-width="1.5" stroke-linecap="square" stroke-linejoin="round" d="
					M216,287.991l22.32,13.896l22.32,14.689l22.32,15.521l22.32,16.391l22.32,17.282l22.32,18.188l22.32,19.082l22.32,19.941
					l22.32,20.724l22.32,21.39l22.319,21.89l22.32,22.167l22.32,22.176l22.32,21.879l22.319,21.258l22.32,20.324l22.319,19.112
					l22.32,17.686l22.32,16.121l22.32,14.496l22.319,12.885l22.32,11.348l22.32,9.925l22.319,8.635l22.32,7.493l22.32,6.495
					l22.319,5.632l22.32,4.892l22.32,4.26l22.319,3.723l22.32,3.265l22.32,2.876l22.32,2.546l22.319,2.264l22.32,2.021l22.319,1.814
					l22.32,1.636l22.32,1.479l22.32,1.347l22.319,1.228l22.32,1.125l22.319,1.033l22.32,0.954l22.32,0.881l22.32,0.817l22.319,0.76
					l22.32,0.709l22.32,0.662l22.319,0.62l22.32,0.581l22.32,0.547l22.319,0.514l22.32,0.486l22.32,0.458l22.319,0.434l22.32,0.411
					l22.32,0.39l22.32,0.37l22.319,0.353l22.32,0.335"/>
			</g>
		</g>
		<g id="line2d_2">
			<g>
				<defs>
					<rect id="SVGID_3_" x="216" y="87.21" width="1339.2" height="697.68"/>
				</defs>
				<clipPath id="SVGID_4_">
					<use xlink:href="#SVGID_3_"  overflow="visible"/>
				</clipPath>
				
					<path clip-path="url(#SVGID_4_)" fill="none" stroke="#FF0000" stroke-width="1.5" stroke-linecap="square" stroke-linejoin="round" d="
					M216,284.18l22.32,13.799l22.32,14.587l22.32,15.417l22.32,16.281l22.32,17.173l22.32,18.078l22.32,18.976l22.32,19.837
					l22.32,20.632l22.32,21.313l22.319,21.83l22.32,22.138l22.32,22.179l22.32,21.92l22.319,21.34l22.32,20.446l22.319,19.271
					l22.32,17.875l22.32,16.33l22.32,14.72l22.319,13.112l22.32,11.572l22.32,10.138l22.319,8.84l22.32,7.682l22.32,6.669
					l22.319,5.791l22.32,5.036l22.32,4.391l22.319,3.841l22.32,3.373l22.32,2.976l22.32,2.636l22.319,2.345l22.32,2.098
					l22.319,1.884l22.32,1.699l22.32,1.54l22.32,1.399l22.319,1.279l22.32,1.173l22.319,1.078l22.32,0.995l22.32,0.92l22.32,0.854
					l22.319,0.795l22.32,0.741l22.32,0.693l22.319,0.648l22.32,0.61l22.32,0.572l22.319,0.54l22.32,0.509l22.32,0.481l22.319,0.456
					l22.32,0.431l22.32,0.409l22.32,0.389l22.319,0.37l22.32,0.352"/>
			</g>
		</g>
		<g id="line2d_3">
			<g>
				<defs>
					<rect id="SVGID_5_" x="216" y="87.21" width="1339.2" height="697.68"/>
				</defs>
				<clipPath id="SVGID_6_">
					<use xlink:href="#SVGID_5_"  overflow="visible"/>
				</clipPath>
				
					<path clip-path="url(#SVGID_6_)" fill="none" stroke="#FF0000" stroke-width="3.5" stroke-linejoin="round" stroke-dasharray="6,6" d="
					M216,287.991l22.32,13.896l22.32,14.689l22.32,15.521l22.32,16.391l22.32,17.282l22.32,18.188l22.32,19.082l22.32,19.941
					l22.32,20.724l22.32,21.39l22.319,21.89l22.32,22.167l22.32,22.176l22.32,21.879l22.319,21.258l22.32,20.324l22.319,19.112
					l22.32,17.686l22.32,16.121l22.32,14.496l22.319,12.885l22.32,11.348l22.32,9.925l22.319,8.635l22.32,7.493l22.32,6.495
					l22.319,5.632l22.32,4.892l22.32,4.26l22.319,3.723l22.32,3.265l22.32,2.876l22.32,2.546l22.319,2.264l22.32,2.021l22.319,1.814
					l22.32,1.636l22.32,1.479l22.32,1.347l22.319,1.228l22.32,1.125l22.319,1.033l22.32,0.954l22.32,0.881l22.32,0.817l22.319,0.76
					l22.32,0.709l22.32,0.662l22.319,0.62l22.32,0.581l22.32,0.547l22.319,0.514l22.32,0.486l22.32,0.458l22.319,0.434l22.32,0.411
					l22.32,0.39l22.32,0.37l22.319,0.353l22.32,0.335"/>
			</g>
		</g>
		<g id="line2d_4">
			<g>
				<defs>
					<rect id="SVGID_7_" x="216" y="87.21" width="1339.2" height="697.68"/>
				</defs>
				<clipPath id="SVGID_8_">
					<use xlink:href="#SVGID_7_"  overflow="visible"/>
				</clipPath>
				
					<path clip-path="url(#SVGID_8_)" fill="none" stroke="#FF0000" stroke-width="3.5" stroke-linejoin="round" stroke-dasharray="6,6" d="
					M216,284.18l22.32,13.799l22.32,14.587l22.32,15.417l22.32,16.281l22.32,17.173l22.32,18.078l22.32,18.976l22.32,19.837
					l22.32,20.632l22.32,21.313l22.319,21.83l22.32,22.138l22.32,22.179l22.32,21.92l22.319,21.34l22.32,20.446l22.319,19.271
					l22.32,17.875l22.32,16.33l22.32,14.72l22.319,13.112l22.32,11.572l22.32,10.138l22.319,8.84l22.32,7.682l22.32,6.669
					l22.319,5.791l22.32,5.036l22.32,4.391l22.319,3.841l22.32,3.373l22.32,2.976l22.32,2.636l22.319,2.345l22.32,2.098
					l22.319,1.884l22.32,1.699l22.32,1.54l22.32,1.399l22.319,1.279l22.32,1.173l22.319,1.078l22.32,0.995l22.32,0.92l22.32,0.854
					l22.319,0.795l22.32,0.741l22.32,0.693l22.319,0.648l22.32,0.61l22.32,0.572l22.319,0.54l22.32,0.509l22.32,0.481l22.319,0.456
					l22.32,0.431l22.32,0.409l22.32,0.389l22.319,0.37l22.32,0.352"/>
			</g>
		</g>
		<g id="line2d_5">
			<g>
				<defs>
					<rect id="SVGID_9_" x="216" y="87.21" width="1339.2" height="697.68"/>
				</defs>
				<clipPath id="SVGID_10_">
					<use xlink:href="#SVGID_9_"  overflow="visible"/>
				</clipPath>
				
					<path clip-path="url(#SVGID_10_)" fill="none" stroke="#008000" stroke-width="1.5" stroke-linecap="square" stroke-linejoin="round" d="
					M216,533.451l22.32,12.109l22.32,12.129l22.32,12.092l22.32,11.995l22.32,11.834l22.32,11.604l22.32,11.311l22.32,10.95
					l22.32,10.533l22.32,10.065l22.319,9.555l22.32,9.016l22.32,8.456l22.32,7.892l22.319,7.326l22.32,6.773l22.319,6.24
					l22.32,5.731l22.32,5.253l22.32,4.804l22.319,4.389l22.32,4.005l22.32,3.655l22.319,3.334l22.32,3.044l22.32,2.779l22.319,2.541
					l22.32,2.324l22.32,2.13l22.319,1.954l22.32,1.795l22.32,1.651l22.32,1.522l22.319,1.405l22.32,1.299l22.319,1.203l22.32,1.115
					l22.32,1.037l22.32,0.964l22.319,0.9l22.32,0.839l22.319,0.785l22.32,0.735l22.32,0.688l22.32,0.647l22.319,0.608l22.32,0.572
					l22.32,0.54l22.319,0.51l22.32,0.482l22.32,0.455l22.319,0.432l22.32,0.409l22.32,0.388l22.319,0.37l22.32,0.352l22.32,0.334
					l22.32,0.317l22.319,0.304l22.32,0.29"/>
			</g>
		</g>
		<g id="line2d_6">
			<g>
				<defs>
					<rect id="SVGID_11_" x="216" y="87.21" width="1339.2" height="697.68"/>
				</defs>
				<clipPath id="SVGID_12_">
					<use xlink:href="#SVGID_11_"  overflow="visible"/>
				</clipPath>
				
					<path clip-path="url(#SVGID_12_)" fill="none" stroke="#008000" stroke-width="1.5" stroke-linecap="square" stroke-linejoin="round" d="
					M216,536.918l22.32,11.669l22.32,11.688l22.32,11.654l22.32,11.568l22.32,11.422l22.32,11.216l22.32,10.947l22.32,10.621
					l22.32,10.239l22.32,9.81l22.319,9.34l22.32,8.84l22.32,8.319l22.32,7.788l22.319,7.255l22.32,6.732l22.319,6.222l22.32,5.734
					l22.32,5.27l22.32,4.833l22.319,4.428l22.32,4.051l22.32,3.703l22.319,3.386l22.32,3.096l22.32,2.831l22.319,2.591l22.32,2.373
					l22.32,2.176l22.319,1.998l22.32,1.836l22.32,1.69l22.32,1.557l22.319,1.438l22.32,1.329l22.319,1.23l22.32,1.142l22.32,1.06
					l22.32,0.986l22.319,0.919l22.32,0.856l22.319,0.801l22.32,0.75l22.32,0.702l22.32,0.659l22.319,0.619l22.32,0.583l22.32,0.549
					l22.319,0.519l22.32,0.488l22.32,0.462l22.319,0.438l22.32,0.414l22.32,0.394l22.319,0.374l22.32,0.355l22.32,0.338l22.32,0.322
					l22.319,0.306l22.32,0.293"/>
			</g>
		</g>
		<g id="line2d_7">
			<g>
				<defs>
					<rect id="SVGID_13_" x="216" y="87.21" width="1339.2" height="697.68"/>
				</defs>
				<clipPath id="SVGID_14_">
					<use xlink:href="#SVGID_13_"  overflow="visible"/>
				</clipPath>
				
					<path clip-path="url(#SVGID_14_)" fill="none" stroke="#008000" stroke-width="3.5" stroke-linejoin="round" stroke-dasharray="6,6" d="
					M216,533.451l22.32,12.109l22.32,12.129l22.32,12.092l22.32,11.995l22.32,11.834l22.32,11.604l22.32,11.311l22.32,10.95
					l22.32,10.533l22.32,10.065l22.319,9.555l22.32,9.016l22.32,8.456l22.32,7.892l22.319,7.326l22.32,6.773l22.319,6.24
					l22.32,5.731l22.32,5.253l22.32,4.804l22.319,4.389l22.32,4.005l22.32,3.655l22.319,3.334l22.32,3.044l22.32,2.779l22.319,2.541
					l22.32,2.324l22.32,2.13l22.319,1.954l22.32,1.795l22.32,1.651l22.32,1.522l22.319,1.405l22.32,1.299l22.319,1.203l22.32,1.115
					l22.32,1.037l22.32,0.964l22.319,0.9l22.32,0.839l22.319,0.785l22.32,0.735l22.32,0.688l22.32,0.647l22.319,0.608l22.32,0.572
					l22.32,0.54l22.319,0.51l22.32,0.482l22.32,0.455l22.319,0.432l22.32,0.409l22.32,0.388l22.319,0.37l22.32,0.352l22.32,0.334
					l22.32,0.317l22.319,0.304l22.32,0.29"/>
			</g>
		</g>
		<g id="line2d_8">
			<g>
				<defs>
					<rect id="SVGID_15_" x="216" y="87.21" width="1339.2" height="697.68"/>
				</defs>
				<clipPath id="SVGID_16_">
					<use xlink:href="#SVGID_15_"  overflow="visible"/>
				</clipPath>
				
					<path clip-path="url(#SVGID_16_)" fill="none" stroke="#008000" stroke-width="3.5" stroke-linejoin="round" stroke-dasharray="6,6" d="
					M216,536.918l22.32,11.669l22.32,11.688l22.32,11.654l22.32,11.568l22.32,11.422l22.32,11.216l22.32,10.947l22.32,10.621
					l22.32,10.239l22.32,9.81l22.319,9.34l22.32,8.84l22.32,8.319l22.32,7.788l22.319,7.255l22.32,6.732l22.319,6.222l22.32,5.734
					l22.32,5.27l22.32,4.833l22.319,4.428l22.32,4.051l22.32,3.703l22.319,3.386l22.32,3.096l22.32,2.831l22.319,2.591l22.32,2.373
					l22.32,2.176l22.319,1.998l22.32,1.836l22.32,1.69l22.32,1.557l22.319,1.438l22.32,1.329l22.319,1.23l22.32,1.142l22.32,1.06
					l22.32,0.986l22.319,0.919l22.32,0.856l22.319,0.801l22.32,0.75l22.32,0.702l22.32,0.659l22.319,0.619l22.32,0.583l22.32,0.549
					l22.319,0.519l22.32,0.488l22.32,0.462l22.319,0.438l22.32,0.414l22.32,0.394l22.319,0.374l22.32,0.355l22.32,0.338l22.32,0.322
					l22.319,0.306l22.32,0.293"/>
			</g>
		</g>
		<g id="line2d_9">
			<g>
				<defs>
					<rect id="SVGID_17_" x="216" y="87.21" width="1339.2" height="697.68"/>
				</defs>
				<clipPath id="SVGID_18_">
					<use xlink:href="#SVGID_17_"  overflow="visible"/>
				</clipPath>
				
					<path clip-path="url(#SVGID_18_)" fill="none" stroke="#000000" stroke-width="3" stroke-linecap="square" stroke-linejoin="round" d="
					M216,534.314l22.32,11.651l22.32,11.705l22.32,11.709l22.32,11.654l22.32,11.538l22.32,11.356l22.32,11.111l22.32,10.799
					l22.32,10.426l22.32,10.002l22.319,9.529l22.32,9.024l22.32,8.492l22.32,7.946l22.319,7.4l22.32,6.859l22.319,6.335l22.32,5.828
					l22.32,5.35l22.32,4.899l22.319,4.481l22.32,4.094l22.32,3.737l22.319,3.412l22.32,3.113l22.32,2.846l22.319,2.6l22.32,2.379
					l22.32,2.179l22.319,1.998l22.32,1.836l22.32,1.688l22.32,1.555l22.319,1.435l22.32,1.326l22.319,1.227l22.32,1.137l22.32,1.057
					l22.32,0.981l22.319,0.915l22.32,0.854l22.319,0.798l22.32,0.746l22.32,0.699l22.32,0.656l22.319,0.616l22.32,0.581l22.32,0.546
					l22.319,0.517l22.32,0.486l22.32,0.461l22.319,0.437l22.32,0.414l22.32,0.392l22.319,0.372l22.32,0.354l22.32,0.337l22.32,0.321
					l22.319,0.307l22.32,0.292"/>
			</g>
		</g>
		<g id="matplotlib.axis_1">
			<g id="xtick_1">
				<g id="line2d_10">
					<g>
						<g>
							<path id="mcb557df647" stroke="#000000" stroke-width="0.5" stroke-linejoin="round" d="M216,784.89v-4"/>
						</g>
					</g>
				</g>
				<g id="line2d_11">
					<g>
						<g>
							<path id="mdad270ee8e" stroke="#000000" stroke-width="0.5" stroke-linejoin="round" d="M216,87.21v4"/>
						</g>
					</g>
				</g>
				<g id="text_1">
					<g transform="translate(207.2521875 797.79625)scale(0.12 -0.12)">
						<g>
							<path id="BitstreamVeraSans-Roman-30" d="M31.781,66.409c-5.074,0-8.891-2.506-11.454-7.503
								c-2.551-4.989-3.825-12.5-3.825-22.534c0-9.985,1.274-17.48,3.825-22.477c2.563-5.005,6.38-7.503,11.454-7.503
								c5.115,0,8.948,2.498,11.499,7.503c2.563,4.997,3.845,12.492,3.845,22.477c0,10.034-1.282,17.546-3.845,22.534
								C40.729,63.902,36.896,66.409,31.781,66.409 M31.781,74.221c8.179,0,14.421-3.239,18.734-9.708
								c4.313-6.453,6.47-15.837,6.47-28.141c0-12.264-2.157-21.639-6.47-28.109C46.202,1.809,39.96-1.422,31.781-1.422
								c-8.167,0-14.404,3.231-18.717,9.684c-4.313,6.47-6.47,15.845-6.47,28.109c0,12.305,2.156,21.688,6.47,28.141
								C17.377,70.982,23.615,74.221,31.781,74.221"/>
						</g>
						<g>
							<path id="BitstreamVeraSans-Roman-2e" d="M74.31,12.405h10.315V0.003H74.31V12.405z"/>
						</g>
						<g>
							<path id="BitstreamVeraSans-Roman-30_1_" d="M127.191,66.409c-5.074,0-8.891-2.506-11.454-7.503
								c-2.551-4.989-3.825-12.5-3.825-22.534c0-9.985,1.274-17.48,3.825-22.477c2.563-5.005,6.38-7.503,11.454-7.503
								c5.115,0,8.948,2.498,11.499,7.503c2.563,4.997,3.845,12.492,3.845,22.477c0,10.034-1.282,17.546-3.845,22.534
								C136.139,63.902,132.306,66.409,127.191,66.409 M127.191,74.221c8.179,0,14.421-3.239,18.734-9.708
								c4.313-6.453,6.47-15.837,6.47-28.141c0-12.264-2.157-21.639-6.47-28.109c-4.313-6.453-10.555-9.684-18.734-9.684
								c-8.167,0-14.404,3.231-18.717,9.684c-4.313,6.47-6.47,15.845-6.47,28.109c0,12.305,2.156,21.688,6.47,28.141
								C112.787,70.982,119.025,74.221,127.191,74.221"/>
						</g>
					</g>
				</g>
			</g>
			<g id="xtick_2">
				<g id="line2d_12">
					<g>
						<g>
							<path id="mcb557df647_1_" stroke="#000000" stroke-width="0.5" stroke-linejoin="round" d="M550.8,784.89v-4"/>
						</g>
					</g>
				</g>
				<g id="line2d_13">
					<g>
						<g>
							<path id="mdad270ee8e_1_" stroke="#000000" stroke-width="0.5" stroke-linejoin="round" d="M550.8,87.21v4"/>
						</g>
					</g>
				</g>
				<g id="text_2">
					<g transform="translate(542.1778125 797.79625)scale(0.12 -0.12)">
						<g>
							<path id="BitstreamVeraSans-Roman-30_2_" d="M31.779,66.409c-5.07,0-8.887-2.506-11.45-7.503
								c-2.555-4.989-3.825-12.5-3.825-22.534c0-9.985,1.27-17.48,3.825-22.477c2.563-5.005,6.38-7.503,11.45-7.503
								c5.119,0,8.952,2.498,11.499,7.503c2.563,4.997,3.85,12.492,3.85,22.477c0,10.034-1.286,17.546-3.85,22.534
								C40.731,63.902,36.898,66.409,31.779,66.409 M31.779,74.221c8.179,0,14.429-3.239,18.734-9.708
								c4.313-6.453,6.47-15.837,6.47-28.141c0-12.264-2.157-21.639-6.47-28.109c-4.305-6.453-10.555-9.684-18.734-9.684
								c-8.162,0-14.404,3.231-18.717,9.684c-4.313,6.47-6.47,15.845-6.47,28.109c0,12.305,2.157,21.688,6.47,28.141
								C17.375,70.982,23.617,74.221,31.779,74.221"/>
						</g>
						<g>
							<path id="BitstreamVeraSans-Roman-2e_1_" d="M74.308,12.405h10.311V0.003H74.308V12.405z"/>
						</g>
						<g>
							<path id="BitstreamVeraSans-Roman-35" d="M106.209,72.903h38.712v-8.309h-29.688V46.731c1.432,0.496,2.856,0.854,4.289,1.099
								c1.433,0.236,2.873,0.358,4.305,0.358c8.138,0,14.583-2.23,19.336-6.689s7.137-10.49,7.137-18.107
								c0-7.845-2.441-13.94-7.333-18.294c-4.883-4.346-11.768-6.519-20.654-6.519c-3.06,0-6.185,0.26-9.359,0.781
								c-3.166,0.521-6.445,1.302-9.831,2.344v9.92c2.93-1.595,5.957-2.783,9.082-3.564s6.429-1.172,9.904-1.172
								c5.64,0,10.1,1.481,13.379,4.443c3.288,2.954,4.94,6.974,4.94,12.061c0,5.07-1.652,9.09-4.94,12.044
								c-3.279,2.97-7.739,4.452-13.379,4.452c-2.628,0-5.265-0.285-7.886-0.871c-2.62-0.586-5.29-1.497-8.016-2.734V72.903z"/>
						</g>
					</g>
				</g>
			</g>
			<g id="xtick_3">
				<g id="line2d_14">
					<g>
						<g>
							<path id="mcb557df647_2_" stroke="#000000" stroke-width="0.5" stroke-linejoin="round" d="M885.6,784.89v-4"/>
						</g>
					</g>
				</g>
				<g id="line2d_15">
					<g>
						<g>
							<path id="mdad270ee8e_2_" stroke="#000000" stroke-width="0.5" stroke-linejoin="round" d="M885.6,87.21v4"/>
						</g>
					</g>
				</g>
				<g id="text_3">
					<g transform="translate(877.115625 797.79625)scale(0.12 -0.12)">
						<g>
							<path id="BitstreamVeraSans-Roman-31" d="M12.408,8.295h16.105v55.623l-17.529-3.516v8.984l17.44,3.516h9.855V8.295h16.113
								V0.003H12.408V8.295z"/>
						</g>
						<g>
							<path id="BitstreamVeraSans-Roman-2e_2_" d="M74.314,12.405h10.311V0.003H74.314V12.405z"/>
						</g>
						<g>
							<path id="BitstreamVeraSans-Roman-30_3_" d="M127.195,66.409c-5.078,0-8.896-2.506-11.459-7.503
								c-2.547-4.989-3.824-12.5-3.824-22.534c0-9.985,1.277-17.48,3.824-22.477c2.563-5.005,6.381-7.503,11.459-7.503
								c5.11,0,8.943,2.498,11.499,7.503c2.563,4.997,3.841,12.492,3.841,22.477c0,10.034-1.277,17.546-3.841,22.534
								C136.139,63.902,132.306,66.409,127.195,66.409 M127.195,74.221c8.17,0,14.42-3.239,18.733-9.708
								c4.313-6.453,6.47-15.837,6.47-28.141c0-12.264-2.156-21.639-6.47-28.109c-4.313-6.453-10.563-9.684-18.733-9.684
								c-8.171,0-14.413,3.231-18.718,9.684c-4.313,6.47-6.47,15.845-6.47,28.109c0,12.305,2.156,21.688,6.47,28.141
								C112.782,70.982,119.024,74.221,127.195,74.221"/>
						</g>
					</g>
				</g>
			</g>
			<g id="xtick_4">
				<g id="line2d_16">
					<g>
						<g>
							<path id="mcb557df647_3_" stroke="#000000" stroke-width="0.5" stroke-linejoin="round" d="M1220.401,784.89v-4"/>
						</g>
					</g>
				</g>
				<g id="line2d_17">
					<g>
						<g>
							<path id="mdad270ee8e_3_" stroke="#000000" stroke-width="0.5" stroke-linejoin="round" d="M1220.401,87.21v4"/>
						</g>
					</g>
				</g>
				<g id="text_4">
					<g transform="translate(1212.04125 797.63875)scale(0.12 -0.12)">
						<g>
							<path id="BitstreamVeraSans-Roman-31_1_" d="M12.409,8.293h16.105v55.631l-17.529-3.516v8.984l17.439,3.516h9.855V8.293
								h16.113V0H12.409V8.293z"/>
						</g>
						<g>
							<path id="BitstreamVeraSans-Roman-2e_3_" d="M74.315,12.403h10.311V0H74.315V12.403z"/>
						</g>
						<g>
							<path id="BitstreamVeraSans-Roman-35_1_" d="M106.208,72.909h38.721v-8.317h-29.688V46.737
								c1.425,0.488,2.856,0.854,4.281,1.09c1.44,0.236,2.872,0.358,4.313,0.358c8.13,0,14.575-2.23,19.328-6.689
								c4.761-4.451,7.137-10.49,7.137-18.107c0-7.845-2.441-13.94-7.324-18.294c-4.891-4.346-11.775-6.519-20.662-6.519
								c-3.06,0-6.177,0.26-9.358,0.781c-3.166,0.521-6.438,1.302-9.823,2.344v9.92c2.922-1.587,5.949-2.775,9.074-3.556
								s6.429-1.172,9.912-1.172c5.632,0,10.091,1.473,13.371,4.435c3.296,2.954,4.939,6.982,4.939,12.061s-1.644,9.09-4.939,12.044
								c-3.28,2.97-7.739,4.46-13.371,4.46c-2.637,0-5.273-0.293-7.894-0.879c-2.612-0.586-5.29-1.497-8.017-2.734V72.909z"/>
						</g>
					</g>
				</g>
			</g>
			<g id="xtick_5">
				<g id="line2d_18">
					<g>
						<g>
							<path id="mcb557df647_4_" stroke="#000000" stroke-width="0.5" stroke-linejoin="round" d="M1555.2,784.89v-4"/>
						</g>
					</g>
				</g>
				<g id="line2d_19">
					<g>
						<g>
							<path id="mdad270ee8e_4_" stroke="#000000" stroke-width="0.5" stroke-linejoin="round" d="M1555.2,87.21v4"/>
						</g>
					</g>
				</g>
				<g id="text_5">
					<g transform="translate(1546.49625 797.79625)scale(0.12 -0.12)">
						<g>
							<path id="BitstreamVeraSans-Roman-32" d="M19.19,8.295h34.424V0.003H7.325v8.293c3.744,3.874,8.838,9.074,15.3,15.592
								c6.47,6.535,10.53,10.75,12.19,12.646c3.158,3.54,5.355,6.535,6.608,9.001c1.262,2.458,1.888,4.875,1.888,7.243
								c0,3.882-1.358,7.031-4.077,9.473c-2.718,2.449-6.258,3.67-10.62,3.67c-3.101,0-6.363-0.537-9.798-1.611
								c-3.435-1.066-7.097-2.702-11.003-4.891v9.969c3.972,1.595,7.675,2.8,11.125,3.613c3.459,0.814,6.616,1.221,9.48,1.221
								c7.553,0,13.574-1.896,18.066-5.672s6.738-8.813,6.738-15.129c0-3.003-0.569-5.843-1.692-8.529
								c-1.115-2.677-3.157-5.843-6.12-9.489c-0.813-0.944-3.401-3.67-7.771-8.187C33.286,22.708,27.134,16.401,19.19,8.295"/>
						</g>
						<g>
							<path id="BitstreamVeraSans-Roman-2e_4_" d="M74.31,12.405H84.62V0.003H74.31V12.405z"/>
						</g>
						<g>
							<path id="BitstreamVeraSans-Roman-30_4_" d="M127.19,66.409c-5.07,0-8.887-2.506-11.45-7.503
								c-2.556-4.989-3.825-12.5-3.825-22.534c0-9.985,1.27-17.48,3.825-22.477c2.563-5.005,6.38-7.503,11.45-7.503
								c5.119,0,8.952,2.498,11.499,7.503c2.563,4.997,3.85,12.492,3.85,22.477c0,10.034-1.286,17.546-3.85,22.534
								C136.143,63.902,132.31,66.409,127.19,66.409 M127.19,74.221c8.179,0,14.429-3.239,18.733-9.708
								c4.313-6.453,6.47-15.837,6.47-28.141c0-12.264-2.156-21.639-6.47-28.109c-4.305-6.453-10.555-9.684-18.733-9.684
								c-8.162,0-14.404,3.231-18.718,9.684c-4.313,6.47-6.47,15.845-6.47,28.109c0,12.305,2.157,21.688,6.47,28.141
								C112.786,70.982,119.028,74.221,127.19,74.221"/>
						</g>
					</g>
				</g>
			</g>
		</g>
		<g id="matplotlib.axis_2">
			<g id="ytick_1">
				<g id="line2d_20">
					<g>
						<g>
							<path id="mc8fcea1516" stroke="#000000" stroke-width="0.5" stroke-linejoin="round" d="M216,784.89h4"/>
						</g>
					</g>
				</g>
				<g id="line2d_21">
					<g>
						<g>
							<path id="m0d5b0a6425" stroke="#000000" stroke-width="0.5" stroke-linejoin="round" d="M1555.201,784.89h-4"/>
						</g>
					</g>
				</g>
				<g id="text_6">
					<g transform="translate(188.84 791.31)scale(0.12 -0.12)">
						<g transform="translate(0.0 2.546875)">
							<path id="BitstreamVeraSans-Roman-31_2_" d="M12.408,10.843h16.109v55.624l-17.529-3.516v8.984l17.436,3.516h9.859V10.843
								h16.109V2.55H12.408V10.843z"/>
						</g>
						<g transform="translate(63.623046875 2.546875)">
							<path id="BitstreamVeraSans-Roman-30_5_" d="M95.408,68.957c-5.074,0-8.891-2.507-11.454-7.503
								c-2.551-4.989-3.829-12.5-3.829-22.534c0-9.985,1.278-17.48,3.829-22.485c2.563-4.997,6.38-7.495,11.454-7.495
								c5.115,0,8.948,2.499,11.499,7.495c2.563,5.005,3.845,12.5,3.845,22.485c0,10.034-1.282,17.546-3.845,22.534
								C104.356,66.45,100.523,68.957,95.408,68.957 M95.408,76.769c8.175,0,14.42-3.239,18.734-9.709
								c4.313-6.453,6.47-15.837,6.47-28.141c0-12.272-2.156-21.639-6.47-28.109c-4.313-6.453-10.559-9.684-18.734-9.684
								c-8.167,0-14.408,3.231-18.722,9.684c-4.309,6.47-6.466,15.837-6.466,28.109c0,12.305,2.156,21.688,6.466,28.141
								C81,73.53,87.241,76.769,95.408,76.769"/>
						</g>
						<g transform="translate(127.24609375 55.046875)scale(0.7)">
							<path id="BitstreamVeraSans-Roman-30_6_" d="M149.497,101.533c-3.552,0-6.226-1.75-8.02-5.249
								c-1.786-3.499-2.677-8.757-2.677-15.771c0-6.999,0.891-12.24,2.677-15.739c1.794-3.507,4.468-5.257,8.02-5.257
								c3.581,0,6.262,1.75,8.048,5.257c1.794,3.5,2.69,8.74,2.69,15.739c0,7.015-0.895,12.272-2.69,15.771
								C155.76,99.783,153.078,101.533,149.497,101.533 M149.497,107.002c5.721,0,10.095-2.262,13.11-6.795
								c3.019-4.517,4.529-11.084,4.529-19.694c0-8.594-1.51-15.153-4.529-19.678c-3.015-4.525-7.389-6.787-13.11-6.787
								c-5.717,0-10.087,2.262-13.106,6.787c-3.015,4.525-4.525,11.084-4.525,19.678c0,8.61,1.51,15.177,4.525,19.694
								C139.41,104.739,143.78,107.002,149.497,107.002"/>
						</g>
					</g>
				</g>
			</g>
			<g id="ytick_2">
				<g id="line2d_22">
					<g>
						<g>
							<path id="mc8fcea1516_1_" stroke="#000000" stroke-width="0.5" stroke-linejoin="round" d="M216,552.33h4"/>
						</g>
					</g>
				</g>
				<g id="line2d_23">
					<g>
						<g>
							<path id="m0d5b0a6425_1_" stroke="#000000" stroke-width="0.5" stroke-linejoin="round" d="M1555.201,552.33h-4"/>
						</g>
					</g>
				</g>
				<g id="text_7">
					<g transform="translate(188.84 558.69)scale(0.12 -0.12)">
						<g transform="translate(0.0 2.465625)">
							<path id="BitstreamVeraSans-Roman-31_3_" d="M12.408,10.763h16.109v55.623l-17.529-3.516v8.984l17.436,3.516h9.859V10.763
								h16.109V2.462H12.408V10.763z"/>
						</g>
						<g transform="translate(63.623046875 2.465625)">
							<path id="BitstreamVeraSans-Roman-30_7_" d="M95.408,68.868c-5.074,0-8.891-2.499-11.454-7.495
								c-2.551-4.989-3.829-12.5-3.829-22.534c0-9.985,1.278-17.48,3.829-22.485c2.563-4.997,6.38-7.495,11.454-7.495
								c5.115,0,8.948,2.498,11.499,7.495c2.563,5.005,3.845,12.5,3.845,22.485c0,10.034-1.282,17.545-3.845,22.534
								C104.356,66.37,100.523,68.868,95.408,68.868 M95.408,76.681c8.175,0,14.42-3.231,18.734-9.701
								c4.313-6.461,6.47-15.836,6.47-28.141c0-12.272-2.156-21.639-6.47-28.109c-4.313-6.461-10.559-9.684-18.734-9.684
								c-8.167,0-14.408,3.223-18.722,9.684c-4.309,6.47-6.466,15.837-6.466,28.109c0,12.305,2.156,21.68,6.466,28.141
								C81,73.45,87.242,76.681,95.408,76.681"/>
						</g>
						<g transform="translate(127.24609375 54.965625)scale(0.7)">
							<path id="BitstreamVeraSans-Roman-31_4_" d="M135.931,60.771h11.279v38.94l-12.272-2.458v6.283l12.207,2.466h6.901V60.771
								h11.275v-5.802h-29.39V60.771z"/>
						</g>
					</g>
				</g>
			</g>
			<g id="ytick_3">
				<g id="line2d_24">
					<g>
						<g>
							<path id="mc8fcea1516_2_" stroke="#000000" stroke-width="0.5" stroke-linejoin="round" d="M216,319.77h4"/>
						</g>
					</g>
				</g>
				<g id="line2d_25">
					<g>
						<g>
							<path id="m0d5b0a6425_2_" stroke="#000000" stroke-width="0.5" stroke-linejoin="round" d="M1555.201,319.77h-4"/>
						</g>
					</g>
				</g>
				<g id="text_8">
					<g transform="translate(188.84 326.19)scale(0.12 -0.12)">
						<g transform="translate(0.0 2.546875)">
							<path id="BitstreamVeraSans-Roman-31_5_" d="M12.409,10.844h16.109v55.624l-17.529-3.516v8.984l17.436,3.516h9.859V10.844
								h16.109V2.543H12.409V10.844z"/>
						</g>
						<g transform="translate(63.623046875 2.546875)">
							<path id="BitstreamVeraSans-Roman-30_8_" d="M95.408,68.95c-5.074,0-8.891-2.499-11.454-7.495
								c-2.551-4.989-3.829-12.5-3.829-22.534c0-9.985,1.278-17.48,3.829-22.485c2.563-4.997,6.38-7.495,11.454-7.495
								c5.115,0,8.948,2.499,11.499,7.495c2.563,5.005,3.845,12.5,3.845,22.485c0,10.034-1.282,17.545-3.845,22.534
								C104.356,66.451,100.523,68.95,95.408,68.95 M95.408,76.762c8.175,0,14.42-3.231,18.734-9.701
								c4.313-6.461,6.47-15.836,6.47-28.141c0-12.272-2.156-21.639-6.47-28.109c-4.313-6.461-10.559-9.684-18.734-9.684
								c-8.167,0-14.408,3.223-18.722,9.684c-4.309,6.47-6.466,15.837-6.466,28.109c0,12.305,2.156,21.68,6.466,28.141
								C81,73.531,87.242,76.762,95.408,76.762"/>
						</g>
						<g transform="translate(127.24609375 55.046875)scale(0.7)">
							<path id="BitstreamVeraSans-Roman-32_1_" d="M140.68,60.853h24.097V55.05h-32.397v5.803
								c2.616,2.718,6.185,6.355,10.706,10.921c4.529,4.565,7.373,7.52,8.533,8.846c2.209,2.482,3.752,4.582,4.626,6.299
								c0.883,1.725,1.323,3.41,1.323,5.078c0,2.71-0.948,4.916-2.853,6.625c-1.904,1.717-4.382,2.571-7.438,2.571
								c-2.165,0-4.452-0.374-6.856-1.123c-2.401-0.757-4.968-1.896-7.703-3.426v6.974c2.779,1.115,5.375,1.961,7.788,2.531
								c2.421,0.57,4.635,0.854,6.641,0.854c5.286,0,9.501-1.326,12.643-3.971c3.141-2.645,4.716-6.168,4.716-10.587
								c0-2.1-0.395-4.094-1.184-5.974c-0.777-1.872-2.209-4.085-4.285-6.641c-0.57-0.659-2.384-2.571-5.436-5.729
								C150.552,70.943,146.242,66.524,140.68,60.853"/>
						</g>
					</g>
				</g>
			</g>
			<g id="ytick_4">
				<g id="line2d_26">
					<g>
						<g>
							<path id="mc8fcea1516_3_" stroke="#000000" stroke-width="0.5" stroke-linejoin="round" d="M216,87.21h4"/>
						</g>
					</g>
				</g>
				<g id="line2d_27">
					<g>
						<g>
							<path id="m0d5b0a6425_3_" stroke="#000000" stroke-width="0.5" stroke-linejoin="round" d="M1555.201,87.21h-4"/>
						</g>
					</g>
				</g>
				<g id="text_9">
					<g transform="translate(188.84 93.63)scale(0.12 -0.12)">
						<g transform="translate(0.0 2.546875)">
							<path id="BitstreamVeraSans-Roman-31_6_" d="M12.409,10.845h16.109v55.623l-17.529-3.516v8.984l17.436,3.516h9.859V10.845
								h16.109V2.548H12.409V10.845z"/>
						</g>
						<g transform="translate(63.623046875 2.546875)">
							<path id="BitstreamVeraSans-Roman-30_9_" d="M95.408,68.954c-5.074,0-8.891-2.502-11.454-7.503
								c-2.551-4.988-3.829-12.5-3.829-22.53c0-9.99,1.278-17.485,3.829-22.485c2.563-4.997,6.38-7.5,11.454-7.5
								c5.115,0,8.948,2.502,11.499,7.5c2.563,5,3.845,12.496,3.845,22.485c0,10.03-1.282,17.542-3.845,22.53
								C104.356,66.452,100.523,68.954,95.408,68.954 M95.408,76.767c8.175,0,14.42-3.235,18.734-9.705
								c4.313-6.458,6.47-15.841,6.47-28.141c0-12.268-2.156-21.639-6.47-28.109c-4.313-6.458-10.559-9.688-18.734-9.688
								c-8.167,0-14.408,3.231-18.722,9.688c-4.309,6.47-6.466,15.841-6.466,28.109c0,12.3,2.156,21.684,6.466,28.141
								C81,73.532,87.242,76.767,95.408,76.767"/>
						</g>
						<g transform="translate(127.24609375 55.046875)scale(0.7)">
							<path id="BitstreamVeraSans-Roman-33" d="M155.654,82.565c3.304-0.708,5.88-2.181,7.731-4.419
								c1.86-2.23,2.791-4.984,2.791-8.268c0-5.029-1.733-8.928-5.196-11.69c-3.463-2.759-8.386-4.134-14.766-4.134
								c-2.136,0-4.338,0.212-6.604,0.631c-2.271,0.423-4.61,1.058-7.023,1.904v6.661c1.912-1.115,4.004-1.958,6.279-2.527
								c2.283-0.57,4.667-0.851,7.153-0.851c4.325,0,7.621,0.851,9.888,2.555c2.266,1.709,3.402,4.191,3.402,7.451
								c0,3.011-1.054,5.363-3.162,7.056c-2.108,1.697-5.037,2.547-8.793,2.547H141.4v5.676h6.226c3.389,0,5.986,0.68,7.788,2.035
								c1.799,1.359,2.702,3.312,2.702,5.863c0,2.617-0.932,4.626-2.792,6.026c-1.851,1.408-4.508,2.112-7.971,2.112
								c-1.896,0-3.927-0.208-6.091-0.623c-2.169-0.411-4.549-1.046-7.145-1.904v6.144c2.625,0.732,5.082,1.278,7.373,1.644
								c2.291,0.362,4.447,0.545,6.474,0.545c5.245,0,9.387-1.192,12.439-3.577c3.052-2.376,4.582-5.591,4.582-9.648
								c0-2.828-0.81-5.216-2.429-7.161C160.936,84.665,158.637,83.318,155.654,82.565"/>
						</g>
					</g>
				</g>
			</g>
			<g id="ytick_5">
				<g id="line2d_28">
					<g>
						<g>
							<path id="m57a2c8792a" stroke="#000000" stroke-width="0.5" stroke-linejoin="round" d="M216,714.883h2"/>
						</g>
					</g>
				</g>
				<g id="line2d_29">
					<g>
						<g>
							<path id="m46a939d668" stroke="#000000" stroke-width="0.5" stroke-linejoin="round" d="M1555.201,714.883h-2"/>
						</g>
					</g>
				</g>
			</g>
			<g id="ytick_6">
				<g id="line2d_30">
					<g>
						<g>
							<path id="m57a2c8792a_1_" stroke="#000000" stroke-width="0.5" stroke-linejoin="round" d="M216,673.931h2"/>
						</g>
					</g>
				</g>
				<g id="line2d_31">
					<g>
						<g>
							<path id="m46a939d668_1_" stroke="#000000" stroke-width="0.5" stroke-linejoin="round" d="M1555.201,673.931h-2"/>
						</g>
					</g>
				</g>
			</g>
			<g id="ytick_7">
				<g id="line2d_32">
					<g>
						<g>
							<path id="m57a2c8792a_2_" stroke="#000000" stroke-width="0.5" stroke-linejoin="round" d="M216,644.875h2"/>
						</g>
					</g>
				</g>
				<g id="line2d_33">
					<g>
						<g>
							<path id="m46a939d668_2_" stroke="#000000" stroke-width="0.5" stroke-linejoin="round" d="M1555.201,644.875h-2"/>
						</g>
					</g>
				</g>
			</g>
			<g id="ytick_8">
				<g id="line2d_34">
					<g>
						<g>
							<path id="m57a2c8792a_3_" stroke="#000000" stroke-width="0.5" stroke-linejoin="round" d="M216,622.338h2"/>
						</g>
					</g>
				</g>
				<g id="line2d_35">
					<g>
						<g>
							<path id="m46a939d668_3_" stroke="#000000" stroke-width="0.5" stroke-linejoin="round" d="M1555.201,622.338h-2"/>
						</g>
					</g>
				</g>
			</g>
			<g id="ytick_9">
				<g id="line2d_36">
					<g>
						<g>
							<path id="m57a2c8792a_4_" stroke="#000000" stroke-width="0.5" stroke-linejoin="round" d="M216,603.923h2"/>
						</g>
					</g>
				</g>
				<g id="line2d_37">
					<g>
						<g>
							<path id="m46a939d668_4_" stroke="#000000" stroke-width="0.5" stroke-linejoin="round" d="M1555.201,603.923h-2"/>
						</g>
					</g>
				</g>
			</g>
			<g id="ytick_10">
				<g id="line2d_38">
					<g>
						<g>
							<path id="m57a2c8792a_5_" stroke="#000000" stroke-width="0.5" stroke-linejoin="round" d="M216,588.354h2"/>
						</g>
					</g>
				</g>
				<g id="line2d_39">
					<g>
						<g>
							<path id="m46a939d668_5_" stroke="#000000" stroke-width="0.5" stroke-linejoin="round" d="M1555.201,588.354h-2"/>
						</g>
					</g>
				</g>
			</g>
			<g id="ytick_11">
				<g id="line2d_40">
					<g>
						<g>
							<path id="m57a2c8792a_6_" stroke="#000000" stroke-width="0.5" stroke-linejoin="round" d="M216,574.867h2"/>
						</g>
					</g>
				</g>
				<g id="line2d_41">
					<g>
						<g>
							<path id="m46a939d668_6_" stroke="#000000" stroke-width="0.5" stroke-linejoin="round" d="M1555.201,574.867h-2"/>
						</g>
					</g>
				</g>
			</g>
			<g id="ytick_12">
				<g id="line2d_42">
					<g>
						<g>
							<path id="m57a2c8792a_7_" stroke="#000000" stroke-width="0.5" stroke-linejoin="round" d="M216,562.972h2"/>
						</g>
					</g>
				</g>
				<g id="line2d_43">
					<g>
						<g>
							<path id="m46a939d668_7_" stroke="#000000" stroke-width="0.5" stroke-linejoin="round" d="M1555.201,562.972h-2"/>
						</g>
					</g>
				</g>
			</g>
			<g id="ytick_13">
				<g id="line2d_44">
					<g>
						<g>
							<path id="m57a2c8792a_8_" stroke="#000000" stroke-width="0.5" stroke-linejoin="round" d="M216,482.322h2"/>
						</g>
					</g>
				</g>
				<g id="line2d_45">
					<g>
						<g>
							<path id="m46a939d668_8_" stroke="#000000" stroke-width="0.5" stroke-linejoin="round" d="M1555.201,482.322h-2"/>
						</g>
					</g>
				</g>
			</g>
			<g id="ytick_14">
				<g id="line2d_46">
					<g>
						<g>
							<path id="m57a2c8792a_9_" stroke="#000000" stroke-width="0.5" stroke-linejoin="round" d="M216,441.371h2"/>
						</g>
					</g>
				</g>
				<g id="line2d_47">
					<g>
						<g>
							<path id="m46a939d668_9_" stroke="#000000" stroke-width="0.5" stroke-linejoin="round" d="M1555.201,441.371h-2"/>
						</g>
					</g>
				</g>
			</g>
			<g id="ytick_15">
				<g id="line2d_48">
					<g>
						<g>
							<path id="m57a2c8792a_10_" stroke="#000000" stroke-width="0.5" stroke-linejoin="round" d="M216,412.314h2"/>
						</g>
					</g>
				</g>
				<g id="line2d_49">
					<g>
						<g>
							<path id="m46a939d668_10_" stroke="#000000" stroke-width="0.5" stroke-linejoin="round" d="M1555.201,412.314h-2"/>
						</g>
					</g>
				</g>
			</g>
			<g id="ytick_16">
				<g id="line2d_50">
					<g>
						<g>
							<path id="m57a2c8792a_11_" stroke="#000000" stroke-width="0.5" stroke-linejoin="round" d="M216,389.777h2"/>
						</g>
					</g>
				</g>
				<g id="line2d_51">
					<g>
						<g>
							<path id="m46a939d668_11_" stroke="#000000" stroke-width="0.5" stroke-linejoin="round" d="M1555.201,389.777h-2"/>
						</g>
					</g>
				</g>
			</g>
			<g id="ytick_17">
				<g id="line2d_52">
					<g>
						<g>
							<path id="m57a2c8792a_12_" stroke="#000000" stroke-width="0.5" stroke-linejoin="round" d="M216,371.363h2"/>
						</g>
					</g>
				</g>
				<g id="line2d_53">
					<g>
						<g>
							<path id="m46a939d668_12_" stroke="#000000" stroke-width="0.5" stroke-linejoin="round" d="M1555.201,371.363h-2"/>
						</g>
					</g>
				</g>
			</g>
			<g id="ytick_18">
				<g id="line2d_54">
					<g>
						<g>
							<path id="m57a2c8792a_13_" stroke="#000000" stroke-width="0.5" stroke-linejoin="round" d="M216,355.794h2"/>
						</g>
					</g>
				</g>
				<g id="line2d_55">
					<g>
						<g>
							<path id="m46a939d668_13_" stroke="#000000" stroke-width="0.5" stroke-linejoin="round" d="M1555.201,355.794h-2"/>
						</g>
					</g>
				</g>
			</g>
			<g id="ytick_19">
				<g id="line2d_56">
					<g>
						<g>
							<path id="m57a2c8792a_14_" stroke="#000000" stroke-width="0.5" stroke-linejoin="round" d="M216,342.308h2"/>
						</g>
					</g>
				</g>
				<g id="line2d_57">
					<g>
						<g>
							<path id="m46a939d668_14_" stroke="#000000" stroke-width="0.5" stroke-linejoin="round" d="M1555.201,342.308h-2"/>
						</g>
					</g>
				</g>
			</g>
			<g id="ytick_20">
				<g id="line2d_58">
					<g>
						<g>
							<path id="m57a2c8792a_15_" stroke="#000000" stroke-width="0.5" stroke-linejoin="round" d="M216,330.411h2"/>
						</g>
					</g>
				</g>
				<g id="line2d_59">
					<g>
						<g>
							<path id="m46a939d668_15_" stroke="#000000" stroke-width="0.5" stroke-linejoin="round" d="M1555.201,330.411h-2"/>
						</g>
					</g>
				</g>
			</g>
			<g id="ytick_21">
				<g id="line2d_60">
					<g>
						<g>
							<path id="m57a2c8792a_16_" stroke="#000000" stroke-width="0.5" stroke-linejoin="round" d="M216,249.763h2"/>
						</g>
					</g>
				</g>
				<g id="line2d_61">
					<g>
						<g>
							<path id="m46a939d668_16_" stroke="#000000" stroke-width="0.5" stroke-linejoin="round" d="M1555.201,249.763h-2"/>
						</g>
					</g>
				</g>
			</g>
			<g id="ytick_22">
				<g id="line2d_62">
					<g>
						<g>
							<path id="m57a2c8792a_17_" stroke="#000000" stroke-width="0.5" stroke-linejoin="round" d="M216,208.811h2"/>
						</g>
					</g>
				</g>
				<g id="line2d_63">
					<g>
						<g>
							<path id="m46a939d668_17_" stroke="#000000" stroke-width="0.5" stroke-linejoin="round" d="M1555.201,208.811h-2"/>
						</g>
					</g>
				</g>
			</g>
			<g id="ytick_23">
				<g id="line2d_64">
					<g>
						<g>
							<path id="m57a2c8792a_18_" stroke="#000000" stroke-width="0.5" stroke-linejoin="round" d="M216,179.755h2"/>
						</g>
					</g>
				</g>
				<g id="line2d_65">
					<g>
						<g>
							<path id="m46a939d668_18_" stroke="#000000" stroke-width="0.5" stroke-linejoin="round" d="M1555.201,179.755h-2"/>
						</g>
					</g>
				</g>
			</g>
			<g id="ytick_24">
				<g id="line2d_66">
					<g>
						<g>
							<path id="m57a2c8792a_19_" stroke="#000000" stroke-width="0.5" stroke-linejoin="round" d="M216,157.218h2"/>
						</g>
					</g>
				</g>
				<g id="line2d_67">
					<g>
						<g>
							<path id="m46a939d668_19_" stroke="#000000" stroke-width="0.5" stroke-linejoin="round" d="M1555.201,157.218h-2"/>
						</g>
					</g>
				</g>
			</g>
			<g id="ytick_25">
				<g id="line2d_68">
					<g>
						<g>
							<path id="m57a2c8792a_20_" stroke="#000000" stroke-width="0.5" stroke-linejoin="round" d="M216,138.803h2"/>
						</g>
					</g>
				</g>
				<g id="line2d_69">
					<g>
						<g>
							<path id="m46a939d668_20_" stroke="#000000" stroke-width="0.5" stroke-linejoin="round" d="M1555.201,138.803h-2"/>
						</g>
					</g>
				</g>
			</g>
			<g id="ytick_26">
				<g id="line2d_70">
					<g>
						<g>
							<path id="m57a2c8792a_21_" stroke="#000000" stroke-width="0.5" stroke-linejoin="round" d="M216,123.234h2"/>
						</g>
					</g>
				</g>
				<g id="line2d_71">
					<g>
						<g>
							<path id="m46a939d668_21_" stroke="#000000" stroke-width="0.5" stroke-linejoin="round" d="M1555.201,123.234h-2"/>
						</g>
					</g>
				</g>
			</g>
			<g id="ytick_27">
				<g id="line2d_72">
					<g>
						<g>
							<path id="m57a2c8792a_22_" stroke="#000000" stroke-width="0.5" stroke-linejoin="round" d="M216,109.748h2"/>
						</g>
					</g>
				</g>
				<g id="line2d_73">
					<g>
						<g>
							<path id="m46a939d668_22_" stroke="#000000" stroke-width="0.5" stroke-linejoin="round" d="M1555.201,109.748h-2"/>
						</g>
					</g>
				</g>
			</g>
			<g id="ytick_28">
				<g id="line2d_74">
					<g>
						<g>
							<path id="m57a2c8792a_23_" stroke="#000000" stroke-width="0.5" stroke-linejoin="round" d="M216,97.852h2"/>
						</g>
					</g>
				</g>
				<g id="line2d_75">
					<g>
						<g>
							<path id="m46a939d668_23_" stroke="#000000" stroke-width="0.5" stroke-linejoin="round" d="M1555.201,97.852h-2"/>
						</g>
					</g>
				</g>
			</g>
		</g>
		<g id="patch_3">
			<path fill="none" stroke="#000000" stroke-linecap="square" stroke-linejoin="round" d="M216,87.21h1339.2"/>
		</g>
		<g id="patch_4">
			<path fill="none" stroke="#000000" stroke-linecap="square" stroke-linejoin="round" d="M1555.201,784.89V87.21"/>
		</g>
		<g id="patch_5">
			<path fill="none" stroke="#000000" stroke-linecap="square" stroke-linejoin="round" d="M216,784.89h1339.2"/>
		</g>
		<g id="patch_6">
			<path fill="none" stroke="#000000" stroke-linecap="square" stroke-linejoin="round" d="M216,784.89V87.21"/>
		</g>
	</g>
</g>
</svg>
