<?xml version="1.0" encoding="utf-8"?>
<!-- Generator: Adobe Illustrator 16.0.0, SVG Export Plug-In . SVG Version: 6.00 Build 0)  -->
<!DOCTYPE svg PUBLIC "-//W3C//DTD SVG 1.1//EN" "http://www.w3.org/Graphics/SVG/1.1/DTD/svg11.dtd">
<svg version="1.1" id="Layer_1" xmlns="http://www.w3.org/2000/svg" xmlns:xlink="http://www.w3.org/1999/xlink" x="0px" y="0px"
	 width="1728px" height="872px" viewBox="0 0 1728 872" enable-background="new 0 0 1728 872" xml:space="preserve">
<g id="figure_1">
	<g id="patch_1">
		<path fill="#FFFFFF" d="M0,872.1h1728V0H0V872.1z"/>
	</g>
	<g id="axes_1">
		<g id="patch_2">
			<path fill="#FFFFFF" d="M216,784.89h1339.2V87.21H216V784.89z"/>
		</g>
		<g id="line2d_1">
			<g>
				<defs>
					<rect id="SVGID_1_" x="216" y="87.21" width="1339.2" height="697.68"/>
				</defs>
				<clipPath id="SVGID_2_">
					<use xlink:href="#SVGID_1_"  overflow="visible"/>
				</clipPath>
				
					<path clip-path="url(#SVGID_2_)" fill="none" stroke="#000000" stroke-width="3.5" stroke-linecap="square" stroke-linejoin="round" d="
					M216,706.262l22.32,3.896l22.32,3.845l22.32,3.777l22.32,3.691l22.32,3.592l22.32,3.472l22.32,3.338l22.32,3.192l22.32,3.033
					l22.32,2.869l22.319,2.699l22.32,2.526l22.32,2.354l22.32,2.186l22.319,2.021l22.32,1.864l22.319,1.715l22.32,1.576l22.32,1.443
					l22.32,1.323l22.319,1.211l22.32,1.108l22.32,1.014l22.319,0.93l22.32,0.85l22.32,0.78l22.319,0.716l22.32,0.657l22.32,0.604
					l22.319,0.559l22.32,0.514l22.32,0.475l22.32,0.441l22.319,0.408l22.32,0.379l22.319,0.352l22.32,0.329l22.32,0.307l22.32,0.287
					l22.319,0.27l22.32,0.253l22.319,0.238l22.32,0.223l22.32,0.211l22.32,0.2l22.319,0.188l22.32,0.18l22.32,0.17l22.319,0.16
					l22.32,0.154l22.32,0.147l22.319,0.14l22.32,0.134l22.32,0.129l22.319,0.123l22.32,0.118l22.32,0.114l22.32,0.109l22.319,0.105
					l22.32,0.101"/>
			</g>
		</g>
		<g id="line2d_2">
			<g>
				<defs>
					<rect id="SVGID_3_" x="216" y="87.21" width="1339.2" height="697.68"/>
				</defs>
				<clipPath id="SVGID_4_">
					<use xlink:href="#SVGID_3_"  overflow="visible"/>
				</clipPath>
				
					<path clip-path="url(#SVGID_4_)" fill="none" stroke="#008000" stroke-width="2.5" stroke-linejoin="round" stroke-dasharray="6,6" d="
					M216,747.774l22.32,1.043l22.32,1.025l22.32,1.009l22.32,0.988l22.32,0.968l22.32,0.944l22.32,0.921l22.32,0.896l22.32,0.871
					l22.32,0.843l22.319,0.816l22.32,0.79l22.32,0.763l22.32,0.734l22.319,0.707l22.32,0.681l22.319,0.653l22.32,0.627l22.32,0.603
					l22.32,0.577l22.319,0.552l22.32,0.529l22.32,0.506l22.319,0.484l22.32,0.463l22.32,0.442l22.319,0.424l22.32,0.405l22.32,0.387
					l22.319,0.37l22.32,0.354l22.32,0.339l22.32,0.324l22.319,0.311l22.32,0.297l22.319,0.285l22.32,0.273l22.32,0.262l22.32,0.251
					l22.319,0.242l22.32,0.231l22.319,0.224l22.32,0.214l22.32,0.206l22.32,0.198l22.319,0.192l22.32,0.185l22.32,0.179
					l22.319,0.172l22.32,0.167l22.32,0.161l22.319,0.154l22.32,0.151l22.32,0.146l22.319,0.142l22.32,0.138l22.32,0.133l22.32,0.131
					l22.319,0.126l22.32,0.122"/>
			</g>
		</g>
		<g id="line2d_3">
			<g>
				<defs>
					<rect id="SVGID_5_" x="216" y="87.21" width="1339.2" height="697.68"/>
				</defs>
				<clipPath id="SVGID_6_">
					<use xlink:href="#SVGID_5_"  overflow="visible"/>
				</clipPath>
				
					<path clip-path="url(#SVGID_6_)" fill="none" stroke="#FF0000" stroke-width="2.5" stroke-linejoin="round" stroke-dasharray="6,6" d="
					M216,749.803l22.32,1.057l22.32,1.037l22.32,1.016l22.32,0.994l22.32,0.97l22.32,0.944l22.32,0.918l22.32,0.89l22.32,0.862
					l22.32,0.833l22.319,0.804l22.32,0.775l22.32,0.744l22.32,0.716l22.319,0.686l22.32,0.658l22.319,0.629l22.32,0.603l22.32,0.575
					l22.32,0.55l22.319,0.523l22.32,0.5l22.32,0.477l22.319,0.453l22.32,0.434l22.32,0.412l22.319,0.392l22.32,0.374l22.32,0.356
					l22.319,0.339l22.32,0.324l22.32,0.308l22.32,0.293l22.319,0.28l22.32,0.268l22.319,0.255l22.32,0.244l22.32,0.232l22.32,0.223
					l22.319,0.213l22.32,0.204l22.319,0.195l22.32,0.187l22.32,0.181l22.32,0.173l22.319,0.165l22.32,0.158l22.32,0.154
					l22.319,0.147l22.32,0.142l22.32,0.137l22.319,0.133l22.32,0.128l22.32,0.122l22.319,0.12l22.32,0.115l22.32,0.112l22.32,0.107
					l22.319,0.106l22.32,0.102"/>
			</g>
		</g>
		<g id="line2d_4">
			<g>
				<defs>
					<rect id="SVGID_7_" x="216" y="87.21" width="1339.2" height="697.68"/>
				</defs>
				<clipPath id="SVGID_8_">
					<use xlink:href="#SVGID_7_"  overflow="visible"/>
				</clipPath>
				
					<path clip-path="url(#SVGID_8_)" fill="none" stroke="#FF0000" stroke-width="2.5" stroke-linejoin="round" stroke-dasharray="6,6" d="
					M216,163.064l22.32,2.615l22.32,2.803l22.32,3.01l22.32,3.241l22.32,3.501l22.32,3.793l22.32,4.122l22.32,4.497l22.32,4.925
					l22.32,5.417l22.319,5.986l22.32,6.649l22.32,7.428l22.32,8.349l22.319,9.449l22.32,10.773l22.319,12.381l22.32,14.348
					l22.32,16.767l22.32,19.746l22.319,23.396l22.32,27.785l22.32,32.852l22.319,38.237L774,478.239l22.32,46.09l22.319,45.813
					l22.32,41.854l22.32,35.289l22.319,27.964l22.32,21.328l22.32,15.994l22.32,11.97l22.319,9.032l22.32,6.908l22.319,5.375
					l22.32,4.26l22.32,3.438l22.32,2.828l22.319,2.364l22.32,2.008l22.319,1.729l22.32,1.507l22.32,1.328l22.32,1.182l22.319,1.06
					l22.32,0.959l22.32,0.872l22.319,0.8l22.32,0.733l22.32,0.68l22.319,0.632l22.32,0.587l22.32,0.55l22.319,0.516l22.32,0.485
					l22.32,0.458l22.32,0.433l22.319,0.41l22.32,0.389"/>
			</g>
		</g>
		<g id="line2d_5">
			<g>
				<defs>
					<rect id="SVGID_9_" x="216" y="87.21" width="1339.2" height="697.68"/>
				</defs>
				<clipPath id="SVGID_10_">
					<use xlink:href="#SVGID_9_"  overflow="visible"/>
				</clipPath>
				
					<path clip-path="url(#SVGID_10_)" fill="none" stroke="#008000" stroke-width="2.5" stroke-linejoin="round" stroke-dasharray="6,6" d="
					M216,358.244l22.32,9.344l22.32,10.01l22.32,10.749l22.32,11.573l22.32,12.491l22.32,13.521l22.32,14.677l22.32,15.974
					l22.32,17.43l22.32,19.054l22.319,20.842l22.32,22.763l22.32,24.729l22.32,26.547l22.319,27.892l22.32,28.275l22.319,27.183
					l22.32,24.374l22.32,20.194l22.32,15.505l22.319,11.2l22.32,7.78l22.32,5.316l22.319,3.643l22.32,2.547l22.32,1.832
					l22.319,1.372l22.32,1.069l22.32,0.866l22.319,0.727l22.32,0.628l22.32,0.556l22.32,0.501l22.319,0.458l22.32,0.422
					l22.319,0.392l22.32,0.367l22.32,0.346l22.32,0.326l22.319,0.309l22.32,0.293l22.319,0.277l22.32,0.267l22.32,0.253l22.32,0.242
					l22.319,0.231l22.32,0.222l22.32,0.215l22.319,0.205l22.32,0.196l22.32,0.19l22.319,0.183l22.32,0.177l22.32,0.172l22.319,0.164
					l22.32,0.16l22.32,0.154l22.32,0.15l22.319,0.145l22.32,0.141"/>
			</g>
		</g>
		<g id="matplotlib.axis_1">
			<g id="xtick_1">
				<g id="line2d_6">
					<g>
						<g>
							<path id="mcb557df647" stroke="#000000" stroke-width="0.5" stroke-linejoin="round" d="M216,784.89v-4"/>
						</g>
					</g>
				</g>
				<g id="line2d_7">
					<g>
						<g>
							<path id="mdad270ee8e" stroke="#000000" stroke-width="0.5" stroke-linejoin="round" d="M216,87.21v4"/>
						</g>
					</g>
				</g>
				<g id="text_1">
					<g transform="translate(207.2521875 797.79625)scale(0.12 -0.12)">
						<g>
							<path id="BitstreamVeraSans-Roman-30" d="M31.781,66.409c-5.074,0-8.891-2.506-11.454-7.503
								c-2.551-4.989-3.825-12.5-3.825-22.534c0-9.985,1.274-17.48,3.825-22.477c2.563-5.005,6.38-7.503,11.454-7.503
								c5.115,0,8.948,2.498,11.499,7.503c2.563,4.997,3.845,12.492,3.845,22.477c0,10.034-1.282,17.546-3.845,22.534
								C40.729,63.902,36.896,66.409,31.781,66.409 M31.781,74.221c8.179,0,14.421-3.239,18.734-9.708
								c4.313-6.453,6.47-15.837,6.47-28.141c0-12.264-2.157-21.639-6.47-28.109C46.202,1.809,39.96-1.422,31.781-1.422
								c-8.167,0-14.404,3.231-18.717,9.684c-4.313,6.47-6.47,15.845-6.47,28.109c0,12.305,2.156,21.688,6.47,28.141
								C17.377,70.982,23.615,74.221,31.781,74.221"/>
						</g>
						<g>
							<path id="BitstreamVeraSans-Roman-2e" d="M74.31,12.405h10.315V0.003H74.31V12.405z"/>
						</g>
						<g>
							<path id="BitstreamVeraSans-Roman-30_1_" d="M127.191,66.409c-5.074,0-8.891-2.506-11.454-7.503
								c-2.551-4.989-3.825-12.5-3.825-22.534c0-9.985,1.274-17.48,3.825-22.477c2.563-5.005,6.38-7.503,11.454-7.503
								c5.115,0,8.948,2.498,11.499,7.503c2.563,4.997,3.845,12.492,3.845,22.477c0,10.034-1.282,17.546-3.845,22.534
								C136.139,63.902,132.306,66.409,127.191,66.409 M127.191,74.221c8.179,0,14.421-3.239,18.734-9.708
								c4.313-6.453,6.47-15.837,6.47-28.141c0-12.264-2.157-21.639-6.47-28.109c-4.313-6.453-10.555-9.684-18.734-9.684
								c-8.167,0-14.404,3.231-18.717,9.684c-4.313,6.47-6.47,15.845-6.47,28.109c0,12.305,2.156,21.688,6.47,28.141
								C112.787,70.982,119.025,74.221,127.191,74.221"/>
						</g>
					</g>
				</g>
			</g>
			<g id="xtick_2">
				<g id="line2d_8">
					<g>
						<g>
							<path id="mcb557df647_1_" stroke="#000000" stroke-width="0.5" stroke-linejoin="round" d="M550.8,784.89v-4"/>
						</g>
					</g>
				</g>
				<g id="line2d_9">
					<g>
						<g>
							<path id="mdad270ee8e_1_" stroke="#000000" stroke-width="0.5" stroke-linejoin="round" d="M550.8,87.21v4"/>
						</g>
					</g>
				</g>
				<g id="text_2">
					<g transform="translate(542.1778125 797.79625)scale(0.12 -0.12)">
						<g>
							<path id="BitstreamVeraSans-Roman-30_2_" d="M31.779,66.409c-5.07,0-8.887-2.506-11.45-7.503
								c-2.555-4.989-3.825-12.5-3.825-22.534c0-9.985,1.27-17.48,3.825-22.477c2.563-5.005,6.38-7.503,11.45-7.503
								c5.119,0,8.952,2.498,11.499,7.503c2.563,4.997,3.85,12.492,3.85,22.477c0,10.034-1.286,17.546-3.85,22.534
								C40.731,63.902,36.898,66.409,31.779,66.409 M31.779,74.221c8.179,0,14.429-3.239,18.734-9.708
								c4.313-6.453,6.47-15.837,6.47-28.141c0-12.264-2.157-21.639-6.47-28.109c-4.305-6.453-10.555-9.684-18.734-9.684
								c-8.162,0-14.404,3.231-18.717,9.684c-4.313,6.47-6.47,15.845-6.47,28.109c0,12.305,2.157,21.688,6.47,28.141
								C17.375,70.982,23.617,74.221,31.779,74.221"/>
						</g>
						<g>
							<path id="BitstreamVeraSans-Roman-2e_1_" d="M74.308,12.405h10.311V0.003H74.308V12.405z"/>
						</g>
						<g>
							<path id="BitstreamVeraSans-Roman-35" d="M106.209,72.903h38.712v-8.309h-29.688V46.731c1.432,0.496,2.856,0.854,4.289,1.099
								c1.433,0.236,2.873,0.358,4.305,0.358c8.138,0,14.583-2.23,19.336-6.689s7.137-10.49,7.137-18.107
								c0-7.845-2.441-13.94-7.333-18.294c-4.883-4.346-11.768-6.519-20.654-6.519c-3.06,0-6.185,0.26-9.359,0.781
								c-3.166,0.521-6.445,1.302-9.831,2.344v9.92c2.93-1.595,5.957-2.783,9.082-3.564s6.429-1.172,9.904-1.172
								c5.64,0,10.1,1.481,13.379,4.443c3.288,2.954,4.94,6.974,4.94,12.061c0,5.07-1.652,9.09-4.94,12.044
								c-3.279,2.97-7.739,4.452-13.379,4.452c-2.628,0-5.265-0.285-7.886-0.871c-2.62-0.586-5.29-1.497-8.016-2.734V72.903z"/>
						</g>
					</g>
				</g>
			</g>
			<g id="xtick_3">
				<g id="line2d_10">
					<g>
						<g>
							<path id="mcb557df647_2_" stroke="#000000" stroke-width="0.5" stroke-linejoin="round" d="M885.6,784.89v-4"/>
						</g>
					</g>
				</g>
				<g id="line2d_11">
					<g>
						<g>
							<path id="mdad270ee8e_2_" stroke="#000000" stroke-width="0.5" stroke-linejoin="round" d="M885.6,87.21v4"/>
						</g>
					</g>
				</g>
				<g id="text_3">
					<g transform="translate(877.115625 797.79625)scale(0.12 -0.12)">
						<g>
							<path id="BitstreamVeraSans-Roman-31" d="M12.408,8.295h16.105v55.623l-17.529-3.516v8.984l17.44,3.516h9.855V8.295h16.113
								V0.003H12.408V8.295z"/>
						</g>
						<g>
							<path id="BitstreamVeraSans-Roman-2e_2_" d="M74.314,12.405h10.311V0.003H74.314V12.405z"/>
						</g>
						<g>
							<path id="BitstreamVeraSans-Roman-30_3_" d="M127.195,66.409c-5.078,0-8.896-2.506-11.459-7.503
								c-2.547-4.989-3.824-12.5-3.824-22.534c0-9.985,1.277-17.48,3.824-22.477c2.563-5.005,6.381-7.503,11.459-7.503
								c5.11,0,8.943,2.498,11.499,7.503c2.563,4.997,3.841,12.492,3.841,22.477c0,10.034-1.277,17.546-3.841,22.534
								C136.139,63.902,132.306,66.409,127.195,66.409 M127.195,74.221c8.17,0,14.42-3.239,18.733-9.708
								c4.313-6.453,6.47-15.837,6.47-28.141c0-12.264-2.156-21.639-6.47-28.109c-4.313-6.453-10.563-9.684-18.733-9.684
								c-8.171,0-14.413,3.231-18.718,9.684c-4.313,6.47-6.47,15.845-6.47,28.109c0,12.305,2.156,21.688,6.47,28.141
								C112.782,70.982,119.024,74.221,127.195,74.221"/>
						</g>
					</g>
				</g>
			</g>
			<g id="xtick_4">
				<g id="line2d_12">
					<g>
						<g>
							<path id="mcb557df647_3_" stroke="#000000" stroke-width="0.5" stroke-linejoin="round" d="M1220.401,784.89v-4"/>
						</g>
					</g>
				</g>
				<g id="line2d_13">
					<g>
						<g>
							<path id="mdad270ee8e_3_" stroke="#000000" stroke-width="0.5" stroke-linejoin="round" d="M1220.401,87.21v4"/>
						</g>
					</g>
				</g>
				<g id="text_4">
					<g transform="translate(1212.04125 797.63875)scale(0.12 -0.12)">
						<g>
							<path id="BitstreamVeraSans-Roman-31_1_" d="M12.409,8.293h16.105v55.631l-17.529-3.516v8.984l17.439,3.516h9.855V8.293
								h16.113V0H12.409V8.293z"/>
						</g>
						<g>
							<path id="BitstreamVeraSans-Roman-2e_3_" d="M74.315,12.403h10.311V0H74.315V12.403z"/>
						</g>
						<g>
							<path id="BitstreamVeraSans-Roman-35_1_" d="M106.208,72.909h38.721v-8.317h-29.688V46.737
								c1.425,0.488,2.856,0.854,4.281,1.09c1.44,0.236,2.872,0.358,4.313,0.358c8.13,0,14.575-2.23,19.328-6.689
								c4.761-4.451,7.137-10.49,7.137-18.107c0-7.845-2.441-13.94-7.324-18.294c-4.891-4.346-11.775-6.519-20.662-6.519
								c-3.06,0-6.177,0.26-9.358,0.781c-3.166,0.521-6.438,1.302-9.823,2.344v9.92c2.922-1.587,5.949-2.775,9.074-3.556
								s6.429-1.172,9.912-1.172c5.632,0,10.091,1.473,13.371,4.435c3.296,2.954,4.939,6.982,4.939,12.061s-1.644,9.09-4.939,12.044
								c-3.28,2.97-7.739,4.46-13.371,4.46c-2.637,0-5.273-0.293-7.894-0.879c-2.612-0.586-5.29-1.497-8.017-2.734V72.909z"/>
						</g>
					</g>
				</g>
			</g>
			<g id="xtick_5">
				<g id="line2d_14">
					<g>
						<g>
							<path id="mcb557df647_4_" stroke="#000000" stroke-width="0.5" stroke-linejoin="round" d="M1555.2,784.89v-4"/>
						</g>
					</g>
				</g>
				<g id="line2d_15">
					<g>
						<g>
							<path id="mdad270ee8e_4_" stroke="#000000" stroke-width="0.5" stroke-linejoin="round" d="M1555.2,87.21v4"/>
						</g>
					</g>
				</g>
				<g id="text_5">
					<g transform="translate(1546.49625 797.79625)scale(0.12 -0.12)">
						<g>
							<path id="BitstreamVeraSans-Roman-32" d="M19.19,8.295h34.424V0.003H7.325v8.293c3.744,3.874,8.838,9.074,15.3,15.592
								c6.47,6.535,10.53,10.75,12.19,12.646c3.158,3.54,5.355,6.535,6.608,9.001c1.262,2.458,1.888,4.875,1.888,7.243
								c0,3.882-1.358,7.031-4.077,9.473c-2.718,2.449-6.258,3.67-10.62,3.67c-3.101,0-6.363-0.537-9.798-1.611
								c-3.435-1.066-7.097-2.702-11.003-4.891v9.969c3.972,1.595,7.675,2.8,11.125,3.613c3.459,0.814,6.616,1.221,9.48,1.221
								c7.553,0,13.574-1.896,18.066-5.672s6.738-8.813,6.738-15.129c0-3.003-0.569-5.843-1.692-8.529
								c-1.115-2.677-3.157-5.843-6.12-9.489c-0.813-0.944-3.401-3.67-7.771-8.187C33.286,22.708,27.134,16.401,19.19,8.295"/>
						</g>
						<g>
							<path id="BitstreamVeraSans-Roman-2e_4_" d="M74.31,12.405H84.62V0.003H74.31V12.405z"/>
						</g>
						<g>
							<path id="BitstreamVeraSans-Roman-30_4_" d="M127.19,66.409c-5.07,0-8.887-2.506-11.45-7.503
								c-2.556-4.989-3.825-12.5-3.825-22.534c0-9.985,1.27-17.48,3.825-22.477c2.563-5.005,6.38-7.503,11.45-7.503
								c5.119,0,8.952,2.498,11.499,7.503c2.563,4.997,3.85,12.492,3.85,22.477c0,10.034-1.286,17.546-3.85,22.534
								C136.143,63.902,132.31,66.409,127.19,66.409 M127.19,74.221c8.179,0,14.429-3.239,18.733-9.708
								c4.313-6.453,6.47-15.837,6.47-28.141c0-12.264-2.156-21.639-6.47-28.109c-4.305-6.453-10.555-9.684-18.733-9.684
								c-8.162,0-14.404,3.231-18.718,9.684c-4.313,6.47-6.47,15.845-6.47,28.109c0,12.305,2.157,21.688,6.47,28.141
								C112.786,70.982,119.028,74.221,127.19,74.221"/>
						</g>
					</g>
				</g>
			</g>
		</g>
		<g id="matplotlib.axis_2">
			<g id="ytick_1">
				<g id="line2d_16">
					<g>
						<g>
							<path id="mc8fcea1516" stroke="#000000" stroke-width="0.5" stroke-linejoin="round" d="M216,784.89h4"/>
						</g>
					</g>
				</g>
				<g id="line2d_17">
					<g>
						<g>
							<path id="m0d5b0a6425" stroke="#000000" stroke-width="0.5" stroke-linejoin="round" d="M1555.201,784.89h-4"/>
						</g>
					</g>
				</g>
				<g id="text_6">
					<g transform="translate(188.84 791.31)scale(0.12 -0.12)">
						<g transform="translate(0.0 2.546875)">
							<path id="BitstreamVeraSans-Roman-31_2_" d="M12.408,10.843h16.109v55.624l-17.529-3.516v8.984l17.436,3.516h9.859V10.843
								h16.109V2.55H12.408V10.843z"/>
						</g>
						<g transform="translate(63.623046875 2.546875)">
							<path id="BitstreamVeraSans-Roman-30_5_" d="M95.408,68.957c-5.074,0-8.891-2.507-11.454-7.503
								c-2.551-4.989-3.829-12.5-3.829-22.534c0-9.985,1.278-17.48,3.829-22.485c2.563-4.997,6.38-7.495,11.454-7.495
								c5.115,0,8.948,2.499,11.499,7.495c2.563,5.005,3.845,12.5,3.845,22.485c0,10.034-1.282,17.546-3.845,22.534
								C104.356,66.45,100.523,68.957,95.408,68.957 M95.408,76.769c8.175,0,14.42-3.239,18.734-9.709
								c4.313-6.453,6.47-15.837,6.47-28.141c0-12.272-2.156-21.639-6.47-28.109c-4.313-6.453-10.559-9.684-18.734-9.684
								c-8.167,0-14.408,3.231-18.722,9.684c-4.309,6.47-6.466,15.837-6.466,28.109c0,12.305,2.156,21.688,6.466,28.141
								C81,73.53,87.241,76.769,95.408,76.769"/>
						</g>
						<g transform="translate(127.24609375 55.046875)scale(0.7)">
							<path id="BitstreamVeraSans-Roman-30_6_" d="M149.497,101.533c-3.552,0-6.226-1.75-8.02-5.249
								c-1.786-3.499-2.677-8.757-2.677-15.771c0-6.999,0.891-12.24,2.677-15.739c1.794-3.507,4.468-5.257,8.02-5.257
								c3.581,0,6.262,1.75,8.048,5.257c1.794,3.5,2.69,8.74,2.69,15.739c0,7.015-0.895,12.272-2.69,15.771
								C155.76,99.783,153.078,101.533,149.497,101.533 M149.497,107.002c5.721,0,10.095-2.262,13.11-6.795
								c3.019-4.517,4.529-11.084,4.529-19.694c0-8.594-1.51-15.153-4.529-19.678c-3.015-4.525-7.389-6.787-13.11-6.787
								c-5.717,0-10.087,2.262-13.106,6.787c-3.015,4.525-4.525,11.084-4.525,19.678c0,8.61,1.51,15.177,4.525,19.694
								C139.41,104.739,143.78,107.002,149.497,107.002"/>
						</g>
					</g>
				</g>
			</g>
			<g id="ytick_2">
				<g id="line2d_18">
					<g>
						<g>
							<path id="mc8fcea1516_1_" stroke="#000000" stroke-width="0.5" stroke-linejoin="round" d="M216,697.68h4"/>
						</g>
					</g>
				</g>
				<g id="line2d_19">
					<g>
						<g>
							<path id="m0d5b0a6425_1_" stroke="#000000" stroke-width="0.5" stroke-linejoin="round" d="M1555.201,697.68h-4"/>
						</g>
					</g>
				</g>
				<g id="text_7">
					<g transform="translate(188.84 704.04)scale(0.12 -0.12)">
						<g transform="translate(0.0 2.465625)">
							<path id="BitstreamVeraSans-Roman-31_3_" d="M12.408,10.766h16.109v55.624l-17.529-3.516v8.984l17.436,3.516h9.859V10.766
								h16.109V2.465H12.408V10.766z"/>
						</g>
						<g transform="translate(63.623046875 2.465625)">
							<path id="BitstreamVeraSans-Roman-30_7_" d="M95.408,68.871c-5.074,0-8.891-2.498-11.454-7.503
								c-2.551-4.989-3.829-12.5-3.829-22.526c0-9.993,1.278-17.489,3.829-22.485c2.563-4.997,6.38-7.503,11.454-7.503
								c5.115,0,8.948,2.507,11.499,7.503c2.563,4.997,3.845,12.492,3.845,22.485c0,10.026-1.282,17.538-3.845,22.526
								C104.356,66.373,100.523,68.871,95.408,68.871 M95.408,76.684c8.175,0,14.42-3.231,18.734-9.7
								c4.313-6.462,6.47-15.845,6.47-28.141c0-12.272-2.156-21.639-6.47-28.109c-4.313-6.462-10.559-9.692-18.734-9.692
								c-8.167,0-14.408,3.231-18.722,9.692c-4.309,6.47-6.466,15.837-6.466,28.109c0,12.297,2.156,21.68,6.466,28.141
								C81,73.453,87.242,76.684,95.408,76.684"/>
						</g>
						<g transform="translate(127.24609375 54.965625)scale(0.7)">
							<path id="BitstreamVeraSans-Roman-31_4_" d="M135.931,60.774h11.279v38.94l-12.272-2.466v6.291l12.207,2.458h6.901V60.774
								h11.275v-5.811h-29.39V60.774z"/>
						</g>
					</g>
				</g>
			</g>
			<g id="ytick_3">
				<g id="line2d_20">
					<g>
						<g>
							<path id="mc8fcea1516_2_" stroke="#000000" stroke-width="0.5" stroke-linejoin="round" d="M216,610.47h4"/>
						</g>
					</g>
				</g>
				<g id="line2d_21">
					<g>
						<g>
							<path id="m0d5b0a6425_2_" stroke="#000000" stroke-width="0.5" stroke-linejoin="round" d="M1555.201,610.47h-4"/>
						</g>
					</g>
				</g>
				<g id="text_8">
					<g transform="translate(188.84 616.89)scale(0.12 -0.12)">
						<g transform="translate(0.0 2.546875)">
							<path id="BitstreamVeraSans-Roman-31_5_" d="M12.409,10.843h16.109v55.624L10.989,62.95v8.984l17.436,3.516h9.859V10.843
								h16.109V2.55H12.409V10.843z"/>
						</g>
						<g transform="translate(63.623046875 2.546875)">
							<path id="BitstreamVeraSans-Roman-30_8_" d="M95.408,68.956c-5.074,0-8.891-2.507-11.454-7.503
								c-2.551-4.989-3.829-12.5-3.829-22.534c0-9.985,1.278-17.48,3.829-22.485c2.563-4.997,6.38-7.495,11.454-7.495
								c5.115,0,8.948,2.499,11.499,7.495c2.563,5.005,3.845,12.5,3.845,22.485c0,10.034-1.282,17.546-3.845,22.534
								C104.356,66.45,100.523,68.956,95.408,68.956 M95.408,76.769c8.175,0,14.42-3.239,18.734-9.709
								c4.313-6.453,6.47-15.837,6.47-28.141c0-12.264-2.156-21.639-6.47-28.109c-4.313-6.453-10.559-9.684-18.734-9.684
								c-8.167,0-14.408,3.231-18.722,9.684c-4.309,6.47-6.466,15.845-6.466,28.109c0,12.305,2.156,21.688,6.466,28.141
								C81,73.53,87.242,76.769,95.408,76.769"/>
						</g>
						<g transform="translate(127.24609375 55.046875)scale(0.7)">
							<path id="BitstreamVeraSans-Roman-32_1_" d="M140.68,60.851h24.097v-5.802h-32.397v5.802
								c2.616,2.718,6.185,6.356,10.706,10.921c4.529,4.573,7.373,7.52,8.533,8.846c2.209,2.482,3.752,4.582,4.626,6.299
								c0.883,1.725,1.323,3.418,1.323,5.078c0,2.71-0.948,4.924-2.853,6.625c-1.904,1.717-4.382,2.572-7.438,2.572
								c-2.165,0-4.452-0.374-6.856-1.123c-2.401-0.757-4.968-1.896-7.703-3.426v6.974c2.779,1.123,5.375,1.961,7.788,2.531
								c2.421,0.57,4.635,0.854,6.641,0.854c5.286,0,9.501-1.326,12.643-3.971c3.141-2.637,4.716-6.168,4.716-10.587
								c0-2.1-0.395-4.094-1.184-5.973c-0.777-1.872-2.209-4.085-4.285-6.641c-0.57-0.659-2.384-2.572-5.436-5.729
								C150.552,70.942,146.242,66.531,140.68,60.851"/>
						</g>
					</g>
				</g>
			</g>
			<g id="ytick_4">
				<g id="line2d_22">
					<g>
						<g>
							<path id="mc8fcea1516_3_" stroke="#000000" stroke-width="0.5" stroke-linejoin="round" d="M216,523.26h4"/>
						</g>
					</g>
				</g>
				<g id="line2d_23">
					<g>
						<g>
							<path id="m0d5b0a6425_3_" stroke="#000000" stroke-width="0.5" stroke-linejoin="round" d="M1555.201,523.26h-4"/>
						</g>
					</g>
				</g>
				<g id="text_9">
					<g transform="translate(188.84 529.68)scale(0.12 -0.12)">
						<g transform="translate(0.0 2.546875)">
							<path id="BitstreamVeraSans-Roman-31_6_" d="M12.409,10.842h16.109v55.624L10.989,62.95v8.984l17.436,3.516h9.859V10.842
								h16.109V2.55H12.409V10.842z"/>
						</g>
						<g transform="translate(63.623046875 2.546875)">
							<path id="BitstreamVeraSans-Roman-30_9_" d="M95.408,68.956c-5.074,0-8.891-2.507-11.454-7.503
								c-2.551-4.989-3.829-12.5-3.829-22.534c0-9.985,1.278-17.48,3.829-22.477c2.563-5.005,6.38-7.503,11.454-7.503
								c5.115,0,8.948,2.499,11.499,7.503c2.563,4.997,3.845,12.492,3.845,22.477c0,10.034-1.282,17.545-3.845,22.534
								C104.356,66.449,100.523,68.956,95.408,68.956 M95.408,76.769c8.175,0,14.42-3.239,18.734-9.709
								c4.313-6.453,6.47-15.836,6.47-28.141c0-12.264-2.156-21.639-6.47-28.109c-4.313-6.453-10.559-9.684-18.734-9.684
								c-8.167,0-14.408,3.231-18.722,9.684c-4.309,6.47-6.466,15.845-6.466,28.109c0,12.305,2.156,21.688,6.466,28.141
								C81,73.529,87.242,76.769,95.408,76.769"/>
						</g>
						<g transform="translate(127.24609375 55.046875)scale(0.7)">
							<path id="BitstreamVeraSans-Roman-33" d="M155.654,82.563c3.304-0.708,5.88-2.181,7.731-4.419
								c1.86-2.229,2.791-4.98,2.791-8.268c0-5.029-1.733-8.927-5.196-11.686s-8.386-4.134-14.766-4.134
								c-2.136,0-4.338,0.211-6.604,0.635c-2.271,0.415-4.61,1.05-7.023,1.896v6.665c1.912-1.115,4.004-1.961,6.279-2.531
								c2.283-0.562,4.667-0.846,7.153-0.846c4.325,0,7.621,0.846,9.888,2.555c2.266,1.709,3.402,4.191,3.402,7.446
								c0,3.011-1.054,5.363-3.162,7.056c-2.108,1.701-5.037,2.547-8.793,2.547H141.4v5.68h6.226c3.389,0,5.986,0.675,7.788,2.035
								c1.799,1.351,2.702,3.312,2.702,5.859c0,2.62-0.932,4.63-2.792,6.03c-1.851,1.408-4.508,2.107-7.971,2.107
								c-1.896,0-3.927-0.203-6.091-0.618c-2.169-0.415-4.549-1.05-7.145-1.904v6.144c2.625,0.732,5.082,1.278,7.373,1.644
								c2.291,0.358,4.447,0.545,6.474,0.545c5.245,0,9.387-1.196,12.439-3.581c3.052-2.376,4.582-5.591,4.582-9.644
								c0-2.832-0.81-5.216-2.429-7.162C160.936,84.662,158.637,83.319,155.654,82.563"/>
						</g>
					</g>
				</g>
			</g>
			<g id="ytick_5">
				<g id="line2d_24">
					<g>
						<g>
							<path id="mc8fcea1516_4_" stroke="#000000" stroke-width="0.5" stroke-linejoin="round" d="M216,436.05h4"/>
						</g>
					</g>
				</g>
				<g id="line2d_25">
					<g>
						<g>
							<path id="m0d5b0a6425_4_" stroke="#000000" stroke-width="0.5" stroke-linejoin="round" d="M1555.201,436.05h-4"/>
						</g>
					</g>
				</g>
				<g id="text_10">
					<g transform="translate(188.84 442.41)scale(0.12 -0.12)">
						<g transform="translate(0.0 2.465625)">
							<path id="BitstreamVeraSans-Roman-31_7_" d="M12.409,10.765h16.109v55.624l-17.529-3.516v8.984l17.436,3.516h9.859V10.765
								h16.109V2.464H12.409V10.765z"/>
						</g>
						<g transform="translate(63.623046875 2.465625)">
							<path id="BitstreamVeraSans-Roman-30_10_" d="M95.408,68.871c-5.074,0-8.891-2.499-11.454-7.495
								c-2.551-4.997-3.829-12.5-3.829-22.534c0-9.994,1.278-17.489,3.829-22.485c2.563-4.997,6.38-7.503,11.454-7.503
								c5.115,0,8.948,2.507,11.499,7.503c2.563,4.997,3.845,12.492,3.845,22.485c0,10.034-1.282,17.538-3.845,22.534
								C104.356,66.372,100.523,68.871,95.408,68.871 M95.408,76.683c8.175,0,14.42-3.231,18.734-9.701
								c4.313-6.461,6.47-15.836,6.47-28.141c0-12.272-2.156-21.639-6.47-28.109c-4.313-6.461-10.559-9.692-18.734-9.692
								c-8.167,0-14.408,3.231-18.722,9.692c-4.309,6.47-6.466,15.837-6.466,28.109c0,12.305,2.156,21.68,6.466,28.141
								C81,73.452,87.242,76.683,95.408,76.683"/>
						</g>
						<g transform="translate(127.24609375 54.965625)scale(0.7)">
							<path id="BitstreamVeraSans-Roman-34" d="M153.705,99.982l-17.432-27.246h17.432V99.982z M151.89,105.996h8.687v-33.26h7.283
								v-5.737h-7.283V54.963h-6.873v12.036h-23.031v6.657L151.89,105.996z"/>
						</g>
					</g>
				</g>
			</g>
			<g id="ytick_6">
				<g id="line2d_26">
					<g>
						<g>
							<path id="mc8fcea1516_5_" stroke="#000000" stroke-width="0.5" stroke-linejoin="round" d="M216,348.84h4"/>
						</g>
					</g>
				</g>
				<g id="line2d_27">
					<g>
						<g>
							<path id="m0d5b0a6425_5_" stroke="#000000" stroke-width="0.5" stroke-linejoin="round" d="M1555.201,348.84h-4"/>
						</g>
					</g>
				</g>
				<g id="text_11">
					<g transform="translate(188.84 355.2)scale(0.12 -0.12)">
						<g transform="translate(0.0 2.465625)">
							<path id="BitstreamVeraSans-Roman-31_8_" d="M12.409,10.765h16.109v55.624l-17.529-3.516v8.984l17.436,3.516h9.859V10.765
								h16.109V2.464H12.409V10.765z"/>
						</g>
						<g transform="translate(63.623046875 2.465625)">
							<path id="BitstreamVeraSans-Roman-30_11_" d="M95.408,68.87c-5.074,0-8.891-2.498-11.454-7.495
								c-2.551-4.997-3.829-12.5-3.829-22.534c0-9.993,1.278-17.488,3.829-22.485c2.563-4.997,6.38-7.503,11.454-7.503
								c5.115,0,8.948,2.506,11.499,7.503c2.563,4.997,3.845,12.492,3.845,22.485c0,10.034-1.282,17.538-3.845,22.534
								C104.356,66.372,100.523,68.87,95.408,68.87 M95.408,76.683c8.175,0,14.42-3.23,18.734-9.7
								c4.313-6.462,6.47-15.837,6.47-28.142c0-12.272-2.156-21.639-6.47-28.108c-4.313-6.462-10.559-9.692-18.734-9.692
								c-8.167,0-14.408,3.23-18.722,9.692c-4.309,6.47-6.466,15.836-6.466,28.108c0,12.305,2.156,21.68,6.466,28.142
								C81,73.452,87.242,76.683,95.408,76.683"/>
						</g>
						<g transform="translate(127.24609375 54.965625)scale(0.7)">
							<path id="BitstreamVeraSans-Roman-35_2_" d="M134.809,105.996h27.1v-5.811h-20.781V87.677
								c1.001,0.342,1.998,0.602,2.999,0.765c1.005,0.171,2.01,0.252,3.019,0.252c5.693,0,10.205-1.563,13.53-4.679
								c3.333-3.117,4.997-7.349,4.997-12.679c0-5.485-1.709-9.757-5.131-12.801c-3.418-3.044-8.236-4.565-14.457-4.565
								c-2.144,0-4.329,0.187-6.551,0.545c-2.218,0.366-4.512,0.912-6.881,1.644v6.942c2.051-1.115,4.167-1.945,6.356-2.49
								c2.189-0.545,4.5-0.822,6.934-0.822c3.947,0,7.064,1.034,9.363,3.109c2.303,2.067,3.455,4.883,3.455,8.439
								c0,3.557-1.152,6.364-3.455,8.439c-2.299,2.075-5.416,3.117-9.363,3.117c-1.843,0-3.687-0.204-5.522-0.619
								c-1.831-0.407-3.703-1.042-5.611-1.912V105.996z"/>
						</g>
					</g>
				</g>
			</g>
			<g id="ytick_7">
				<g id="line2d_28">
					<g>
						<g>
							<path id="mc8fcea1516_6_" stroke="#000000" stroke-width="0.5" stroke-linejoin="round" d="M216,261.63h4"/>
						</g>
					</g>
				</g>
				<g id="line2d_29">
					<g>
						<g>
							<path id="m0d5b0a6425_6_" stroke="#000000" stroke-width="0.5" stroke-linejoin="round" d="M1555.201,261.63h-4"/>
						</g>
					</g>
				</g>
				<g id="text_12">
					<g transform="translate(188.84 268.05)scale(0.12 -0.12)">
						<g transform="translate(0.0 2.546875)">
							<path id="BitstreamVeraSans-Roman-31_9_" d="M12.409,10.841h16.109v55.627l-17.529-3.516v8.984l17.436,3.516h9.859V10.841
								h16.109V2.548H12.409V10.841z"/>
						</g>
						<g transform="translate(63.623046875 2.546875)">
							<path id="BitstreamVeraSans-Roman-30_12_" d="M95.408,68.955c-5.074,0-8.891-2.502-11.454-7.503
								c-2.551-4.989-3.829-12.5-3.829-22.53c0-9.989,1.278-17.484,3.829-22.485c2.563-5.001,6.38-7.499,11.454-7.499
								c5.115,0,8.948,2.498,11.499,7.499c2.563,5.001,3.845,12.496,3.845,22.485c0,10.03-1.282,17.542-3.845,22.53
								C104.356,66.452,100.523,68.955,95.408,68.955 M95.408,76.767c8.175,0,14.42-3.235,18.734-9.705
								c4.313-6.458,6.47-15.84,6.47-28.141c0-12.272-2.156-21.639-6.47-28.109c-4.313-6.458-10.559-9.688-18.734-9.688
								c-8.167,0-14.408,3.23-18.722,9.688c-4.309,6.47-6.466,15.837-6.466,28.109c0,12.301,2.156,21.684,6.466,28.141
								C81,73.532,87.242,76.767,95.408,76.767"/>
						</g>
						<g transform="translate(127.24609375 55.046875)scale(0.7)">
							<path id="BitstreamVeraSans-Roman-36" d="M150.36,83.31c-3.101,0-5.558-1.062-7.373-3.182
								c-1.807-2.116-2.71-5.017-2.71-8.708c0-3.67,0.903-6.571,2.71-8.708c1.815-2.128,4.272-3.194,7.373-3.194
								s5.554,1.066,7.361,3.194c1.807,2.136,2.714,5.038,2.714,8.708c0,3.691-0.907,6.592-2.714,8.708
								C155.915,82.248,153.461,83.31,150.36,83.31 M164.065,104.953v-6.287c-1.733,0.814-3.483,1.44-5.249,1.868
								c-1.766,0.439-3.516,0.659-5.249,0.659c-4.557,0-8.04-1.542-10.449-4.618c-2.396-3.076-3.768-7.723-4.11-13.944
								c1.343,1.981,3.027,3.503,5.054,4.561c2.034,1.058,4.268,1.587,6.706,1.587c5.123,0,9.176-1.558,12.15-4.671
								c2.975-3.105,4.46-7.336,4.46-12.688c0-5.241-1.546-9.448-4.647-12.622c-3.101-3.166-7.223-4.749-12.37-4.749
								c-5.908,0-10.421,2.263-13.542,6.783c-3.121,4.529-4.679,11.088-4.679,19.678c0,8.065,1.912,14.494,5.741,19.291
								c3.829,4.797,8.964,7.198,15.409,7.198c1.738,0,3.487-0.171,5.253-0.513C160.305,106.146,162.148,105.633,164.065,104.953"/>
						</g>
					</g>
				</g>
			</g>
			<g id="ytick_8">
				<g id="line2d_30">
					<g>
						<g>
							<path id="mc8fcea1516_7_" stroke="#000000" stroke-width="0.5" stroke-linejoin="round" d="M216,174.42h4"/>
						</g>
					</g>
				</g>
				<g id="line2d_31">
					<g>
						<g>
							<path id="m0d5b0a6425_7_" stroke="#000000" stroke-width="0.5" stroke-linejoin="round" d="M1555.201,174.42h-4"/>
						</g>
					</g>
				</g>
				<g id="text_13">
					<g transform="translate(188.84 180.78)scale(0.12 -0.12)">
						<g transform="translate(0.0 2.465625)">
							<path id="BitstreamVeraSans-Roman-31_10_" d="M12.409,10.764h16.109v55.623l-17.529-3.516v8.984l17.436,3.516h9.859V10.764
								h16.109V2.463H12.409V10.764z"/>
						</g>
						<g transform="translate(63.623046875 2.465625)">
							<path id="BitstreamVeraSans-Roman-30_13_" d="M95.408,68.87c-5.074,0-8.891-2.499-11.454-7.5
								c-2.551-4.988-3.829-12.5-3.829-22.53c0-9.99,1.278-17.485,3.829-22.485c2.563-4.997,6.38-7.5,11.454-7.5
								c5.115,0,8.948,2.502,11.499,7.5c2.563,5,3.845,12.496,3.845,22.485c0,10.03-1.282,17.542-3.845,22.53
								C104.356,66.371,100.523,68.87,95.408,68.87 M95.408,76.682c8.175,0,14.42-3.231,18.734-9.701
								c4.313-6.458,6.47-15.841,6.47-28.141c0-12.272-2.156-21.639-6.47-28.109c-4.313-6.458-10.559-9.688-18.734-9.688
								c-8.167,0-14.408,3.231-18.722,9.688c-4.309,6.47-6.466,15.836-6.466,28.109c0,12.3,2.156,21.684,6.466,28.141
								C81,73.451,87.242,76.682,95.408,76.682"/>
						</g>
						<g transform="translate(127.24609375 54.965625)scale(0.7)">
							<path id="BitstreamVeraSans-Roman-37" d="M132.994,105.999h32.813v-2.942l-18.53-48.091h-7.206l17.432,45.215h-24.508
								V105.999z"/>
						</g>
					</g>
				</g>
			</g>
			<g id="ytick_9">
				<g id="line2d_32">
					<g>
						<g>
							<path id="mc8fcea1516_8_" stroke="#000000" stroke-width="0.5" stroke-linejoin="round" d="M216,87.21h4"/>
						</g>
					</g>
				</g>
				<g id="line2d_33">
					<g>
						<g>
							<path id="m0d5b0a6425_8_" stroke="#000000" stroke-width="0.5" stroke-linejoin="round" d="M1555.201,87.21h-4"/>
						</g>
					</g>
				</g>
				<g id="text_14">
					<g transform="translate(188.84 93.63)scale(0.12 -0.12)">
						<g transform="translate(0.0 2.546875)">
							<path id="BitstreamVeraSans-Roman-31_11_" d="M12.409,10.845h16.109v55.623l-17.529-3.516v8.984l17.436,3.516h9.859V10.845
								h16.109V2.548H12.409V10.845z"/>
						</g>
						<g transform="translate(63.623046875 2.546875)">
							<path id="BitstreamVeraSans-Roman-30_14_" d="M95.408,68.954c-5.074,0-8.891-2.502-11.454-7.503
								c-2.551-4.988-3.829-12.5-3.829-22.53c0-9.99,1.278-17.485,3.829-22.485c2.563-4.997,6.38-7.5,11.454-7.5
								c5.115,0,8.948,2.502,11.499,7.5c2.563,5,3.845,12.496,3.845,22.485c0,10.03-1.282,17.542-3.845,22.53
								C104.356,66.452,100.523,68.954,95.408,68.954 M95.408,76.767c8.175,0,14.42-3.235,18.734-9.705
								c4.313-6.458,6.47-15.841,6.47-28.141c0-12.268-2.156-21.639-6.47-28.109c-4.313-6.458-10.559-9.688-18.734-9.688
								c-8.167,0-14.408,3.231-18.722,9.688c-4.309,6.47-6.466,15.841-6.466,28.109c0,12.3,2.156,21.684,6.466,28.141
								C81,73.532,87.242,76.767,95.408,76.767"/>
						</g>
						<g transform="translate(127.24609375 55.046875)scale(0.7)">
							<path id="BitstreamVeraSans-Roman-38" d="M149.498,79.285c-3.284,0-5.864-0.879-7.748-2.637
								c-1.872-1.758-2.808-4.17-2.808-7.239c0-3.08,0.936-5.497,2.808-7.255c1.884-1.754,4.464-2.633,7.748-2.633
								c3.28,0,5.863,0.879,7.755,2.645c1.892,1.774,2.84,4.187,2.84,7.243c0,3.068-0.94,5.481-2.82,7.239
								C155.398,78.406,152.806,79.285,149.498,79.285 M142.597,82.215c-2.962,0.729-5.269,2.108-6.926,4.134
								c-1.648,2.035-2.474,4.513-2.474,7.426c0,4.077,1.453,7.3,4.354,9.668c2.909,2.373,6.893,3.557,11.947,3.557
								c5.082,0,9.07-1.184,11.963-3.557c2.897-2.368,4.346-5.591,4.346-9.668c0-2.913-0.83-5.391-2.486-7.426
								c-1.648-2.026-3.939-3.406-6.881-4.134c3.328-0.773,5.916-2.291,7.768-4.549c1.859-2.254,2.787-5.005,2.787-8.256
								c0-4.952-1.505-8.752-4.525-11.397c-3.019-2.641-7.344-3.959-12.972-3.959c-5.624,0-9.949,1.318-12.972,3.959
								c-3.019,2.645-4.529,6.445-4.529,11.397c0,3.251,0.932,6.002,2.8,8.256C136.672,79.924,139.268,81.442,142.597,82.215
								 M140.07,93.12c0-2.641,0.822-4.7,2.47-6.181c1.656-1.481,3.975-2.217,6.958-2.217c2.966,0,5.286,0.736,6.954,2.217
								c1.677,1.481,2.519,3.54,2.519,6.181c0,2.649-0.842,4.712-2.519,6.189c-1.668,1.481-3.988,2.222-6.954,2.222
								c-2.983,0-5.302-0.741-6.958-2.222C140.892,97.832,140.07,95.769,140.07,93.12"/>
						</g>
					</g>
				</g>
			</g>
			<g id="ytick_10">
				<g id="line2d_34">
					<g>
						<g>
							<path id="m57a2c8792a" stroke="#000000" stroke-width="0.5" stroke-linejoin="round" d="M216,758.637h2"/>
						</g>
					</g>
				</g>
				<g id="line2d_35">
					<g>
						<g>
							<path id="m46a939d668" stroke="#000000" stroke-width="0.5" stroke-linejoin="round" d="M1555.201,758.637h-2"/>
						</g>
					</g>
				</g>
			</g>
			<g id="ytick_11">
				<g id="line2d_36">
					<g>
						<g>
							<path id="m57a2c8792a_1_" stroke="#000000" stroke-width="0.5" stroke-linejoin="round" d="M216,732.385h2"/>
						</g>
					</g>
				</g>
				<g id="line2d_37">
					<g>
						<g>
							<path id="m46a939d668_1_" stroke="#000000" stroke-width="0.5" stroke-linejoin="round" d="M1555.201,732.385h-2"/>
						</g>
					</g>
				</g>
			</g>
			<g id="ytick_12">
				<g id="line2d_38">
					<g>
						<g>
							<path id="m57a2c8792a_2_" stroke="#000000" stroke-width="0.5" stroke-linejoin="round" d="M216,717.027h2"/>
						</g>
					</g>
				</g>
				<g id="line2d_39">
					<g>
						<g>
							<path id="m46a939d668_2_" stroke="#000000" stroke-width="0.5" stroke-linejoin="round" d="M1555.201,717.027h-2"/>
						</g>
					</g>
				</g>
			</g>
			<g id="ytick_13">
				<g id="line2d_40">
					<g>
						<g>
							<path id="m57a2c8792a_3_" stroke="#000000" stroke-width="0.5" stroke-linejoin="round" d="M216,706.132h2"/>
						</g>
					</g>
				</g>
				<g id="line2d_41">
					<g>
						<g>
							<path id="m46a939d668_3_" stroke="#000000" stroke-width="0.5" stroke-linejoin="round" d="M1555.201,706.132h-2"/>
						</g>
					</g>
				</g>
			</g>
			<g id="ytick_14">
				<g id="line2d_42">
					<g>
						<g>
							<path id="m57a2c8792a_4_" stroke="#000000" stroke-width="0.5" stroke-linejoin="round" d="M216,671.427h2"/>
						</g>
					</g>
				</g>
				<g id="line2d_43">
					<g>
						<g>
							<path id="m46a939d668_4_" stroke="#000000" stroke-width="0.5" stroke-linejoin="round" d="M1555.201,671.427h-2"/>
						</g>
					</g>
				</g>
			</g>
			<g id="ytick_15">
				<g id="line2d_44">
					<g>
						<g>
							<path id="m57a2c8792a_5_" stroke="#000000" stroke-width="0.5" stroke-linejoin="round" d="M216,645.175h2"/>
						</g>
					</g>
				</g>
				<g id="line2d_45">
					<g>
						<g>
							<path id="m46a939d668_5_" stroke="#000000" stroke-width="0.5" stroke-linejoin="round" d="M1555.201,645.175h-2"/>
						</g>
					</g>
				</g>
			</g>
			<g id="ytick_16">
				<g id="line2d_46">
					<g>
						<g>
							<path id="m57a2c8792a_6_" stroke="#000000" stroke-width="0.5" stroke-linejoin="round" d="M216,629.817h2"/>
						</g>
					</g>
				</g>
				<g id="line2d_47">
					<g>
						<g>
							<path id="m46a939d668_6_" stroke="#000000" stroke-width="0.5" stroke-linejoin="round" d="M1555.201,629.817h-2"/>
						</g>
					</g>
				</g>
			</g>
			<g id="ytick_17">
				<g id="line2d_48">
					<g>
						<g>
							<path id="m57a2c8792a_7_" stroke="#000000" stroke-width="0.5" stroke-linejoin="round" d="M216,618.922h2"/>
						</g>
					</g>
				</g>
				<g id="line2d_49">
					<g>
						<g>
							<path id="m46a939d668_7_" stroke="#000000" stroke-width="0.5" stroke-linejoin="round" d="M1555.201,618.922h-2"/>
						</g>
					</g>
				</g>
			</g>
			<g id="ytick_18">
				<g id="line2d_50">
					<g>
						<g>
							<path id="m57a2c8792a_8_" stroke="#000000" stroke-width="0.5" stroke-linejoin="round" d="M216,584.217h2"/>
						</g>
					</g>
				</g>
				<g id="line2d_51">
					<g>
						<g>
							<path id="m46a939d668_8_" stroke="#000000" stroke-width="0.5" stroke-linejoin="round" d="M1555.201,584.217h-2"/>
						</g>
					</g>
				</g>
			</g>
			<g id="ytick_19">
				<g id="line2d_52">
					<g>
						<g>
							<path id="m57a2c8792a_9_" stroke="#000000" stroke-width="0.5" stroke-linejoin="round" d="M216,557.965h2"/>
						</g>
					</g>
				</g>
				<g id="line2d_53">
					<g>
						<g>
							<path id="m46a939d668_9_" stroke="#000000" stroke-width="0.5" stroke-linejoin="round" d="M1555.201,557.965h-2"/>
						</g>
					</g>
				</g>
			</g>
			<g id="ytick_20">
				<g id="line2d_54">
					<g>
						<g>
							<path id="m57a2c8792a_10_" stroke="#000000" stroke-width="0.5" stroke-linejoin="round" d="M216,542.607h2"/>
						</g>
					</g>
				</g>
				<g id="line2d_55">
					<g>
						<g>
							<path id="m46a939d668_10_" stroke="#000000" stroke-width="0.5" stroke-linejoin="round" d="M1555.201,542.607h-2"/>
						</g>
					</g>
				</g>
			</g>
			<g id="ytick_21">
				<g id="line2d_56">
					<g>
						<g>
							<path id="m57a2c8792a_11_" stroke="#000000" stroke-width="0.5" stroke-linejoin="round" d="M216,531.712h2"/>
						</g>
					</g>
				</g>
				<g id="line2d_57">
					<g>
						<g>
							<path id="m46a939d668_11_" stroke="#000000" stroke-width="0.5" stroke-linejoin="round" d="M1555.201,531.712h-2"/>
						</g>
					</g>
				</g>
			</g>
			<g id="ytick_22">
				<g id="line2d_58">
					<g>
						<g>
							<path id="m57a2c8792a_12_" stroke="#000000" stroke-width="0.5" stroke-linejoin="round" d="M216,497.007h2"/>
						</g>
					</g>
				</g>
				<g id="line2d_59">
					<g>
						<g>
							<path id="m46a939d668_12_" stroke="#000000" stroke-width="0.5" stroke-linejoin="round" d="M1555.201,497.007h-2"/>
						</g>
					</g>
				</g>
			</g>
			<g id="ytick_23">
				<g id="line2d_60">
					<g>
						<g>
							<path id="m57a2c8792a_13_" stroke="#000000" stroke-width="0.5" stroke-linejoin="round" d="M216,470.754h2"/>
						</g>
					</g>
				</g>
				<g id="line2d_61">
					<g>
						<g>
							<path id="m46a939d668_13_" stroke="#000000" stroke-width="0.5" stroke-linejoin="round" d="M1555.201,470.754h-2"/>
						</g>
					</g>
				</g>
			</g>
			<g id="ytick_24">
				<g id="line2d_62">
					<g>
						<g>
							<path id="m57a2c8792a_14_" stroke="#000000" stroke-width="0.5" stroke-linejoin="round" d="M216,455.397h2"/>
						</g>
					</g>
				</g>
				<g id="line2d_63">
					<g>
						<g>
							<path id="m46a939d668_14_" stroke="#000000" stroke-width="0.5" stroke-linejoin="round" d="M1555.201,455.397h-2"/>
						</g>
					</g>
				</g>
			</g>
			<g id="ytick_25">
				<g id="line2d_64">
					<g>
						<g>
							<path id="m57a2c8792a_15_" stroke="#000000" stroke-width="0.5" stroke-linejoin="round" d="M216,444.502h2"/>
						</g>
					</g>
				</g>
				<g id="line2d_65">
					<g>
						<g>
							<path id="m46a939d668_15_" stroke="#000000" stroke-width="0.5" stroke-linejoin="round" d="M1555.201,444.502h-2"/>
						</g>
					</g>
				</g>
			</g>
			<g id="ytick_26">
				<g id="line2d_66">
					<g>
						<g>
							<path id="m57a2c8792a_16_" stroke="#000000" stroke-width="0.5" stroke-linejoin="round" d="M216,409.797h2"/>
						</g>
					</g>
				</g>
				<g id="line2d_67">
					<g>
						<g>
							<path id="m46a939d668_16_" stroke="#000000" stroke-width="0.5" stroke-linejoin="round" d="M1555.201,409.797h-2"/>
						</g>
					</g>
				</g>
			</g>
			<g id="ytick_27">
				<g id="line2d_68">
					<g>
						<g>
							<path id="m57a2c8792a_17_" stroke="#000000" stroke-width="0.5" stroke-linejoin="round" d="M216,383.544h2"/>
						</g>
					</g>
				</g>
				<g id="line2d_69">
					<g>
						<g>
							<path id="m46a939d668_17_" stroke="#000000" stroke-width="0.5" stroke-linejoin="round" d="M1555.201,383.544h-2"/>
						</g>
					</g>
				</g>
			</g>
			<g id="ytick_28">
				<g id="line2d_70">
					<g>
						<g>
							<path id="m57a2c8792a_18_" stroke="#000000" stroke-width="0.5" stroke-linejoin="round" d="M216,368.188h2"/>
						</g>
					</g>
				</g>
				<g id="line2d_71">
					<g>
						<g>
							<path id="m46a939d668_18_" stroke="#000000" stroke-width="0.5" stroke-linejoin="round" d="M1555.201,368.188h-2"/>
						</g>
					</g>
				</g>
			</g>
			<g id="ytick_29">
				<g id="line2d_72">
					<g>
						<g>
							<path id="m57a2c8792a_19_" stroke="#000000" stroke-width="0.5" stroke-linejoin="round" d="M216,357.291h2"/>
						</g>
					</g>
				</g>
				<g id="line2d_73">
					<g>
						<g>
							<path id="m46a939d668_19_" stroke="#000000" stroke-width="0.5" stroke-linejoin="round" d="M1555.201,357.291h-2"/>
						</g>
					</g>
				</g>
			</g>
			<g id="ytick_30">
				<g id="line2d_74">
					<g>
						<g>
							<path id="m57a2c8792a_20_" stroke="#000000" stroke-width="0.5" stroke-linejoin="round" d="M216,322.587h2"/>
						</g>
					</g>
				</g>
				<g id="line2d_75">
					<g>
						<g>
							<path id="m46a939d668_20_" stroke="#000000" stroke-width="0.5" stroke-linejoin="round" d="M1555.201,322.587h-2"/>
						</g>
					</g>
				</g>
			</g>
			<g id="ytick_31">
				<g id="line2d_76">
					<g>
						<g>
							<path id="m57a2c8792a_21_" stroke="#000000" stroke-width="0.5" stroke-linejoin="round" d="M216,296.334h2"/>
						</g>
					</g>
				</g>
				<g id="line2d_77">
					<g>
						<g>
							<path id="m46a939d668_21_" stroke="#000000" stroke-width="0.5" stroke-linejoin="round" d="M1555.201,296.334h-2"/>
						</g>
					</g>
				</g>
			</g>
			<g id="ytick_32">
				<g id="line2d_78">
					<g>
						<g>
							<path id="m57a2c8792a_22_" stroke="#000000" stroke-width="0.5" stroke-linejoin="round" d="M216,280.978h2"/>
						</g>
					</g>
				</g>
				<g id="line2d_79">
					<g>
						<g>
							<path id="m46a939d668_22_" stroke="#000000" stroke-width="0.5" stroke-linejoin="round" d="M1555.201,280.978h-2"/>
						</g>
					</g>
				</g>
			</g>
			<g id="ytick_33">
				<g id="line2d_80">
					<g>
						<g>
							<path id="m57a2c8792a_23_" stroke="#000000" stroke-width="0.5" stroke-linejoin="round" d="M216,270.082h2"/>
						</g>
					</g>
				</g>
				<g id="line2d_81">
					<g>
						<g>
							<path id="m46a939d668_23_" stroke="#000000" stroke-width="0.5" stroke-linejoin="round" d="M1555.201,270.082h-2"/>
						</g>
					</g>
				</g>
			</g>
			<g id="ytick_34">
				<g id="line2d_82">
					<g>
						<g>
							<path id="m57a2c8792a_24_" stroke="#000000" stroke-width="0.5" stroke-linejoin="round" d="M216,235.377h2"/>
						</g>
					</g>
				</g>
				<g id="line2d_83">
					<g>
						<g>
							<path id="m46a939d668_24_" stroke="#000000" stroke-width="0.5" stroke-linejoin="round" d="M1555.201,235.377h-2"/>
						</g>
					</g>
				</g>
			</g>
			<g id="ytick_35">
				<g id="line2d_84">
					<g>
						<g>
							<path id="m57a2c8792a_25_" stroke="#000000" stroke-width="0.5" stroke-linejoin="round" d="M216,209.125h2"/>
						</g>
					</g>
				</g>
				<g id="line2d_85">
					<g>
						<g>
							<path id="m46a939d668_25_" stroke="#000000" stroke-width="0.5" stroke-linejoin="round" d="M1555.201,209.125h-2"/>
						</g>
					</g>
				</g>
			</g>
			<g id="ytick_36">
				<g id="line2d_86">
					<g>
						<g>
							<path id="m57a2c8792a_26_" stroke="#000000" stroke-width="0.5" stroke-linejoin="round" d="M216,193.768h2"/>
						</g>
					</g>
				</g>
				<g id="line2d_87">
					<g>
						<g>
							<path id="m46a939d668_26_" stroke="#000000" stroke-width="0.5" stroke-linejoin="round" d="M1555.201,193.768h-2"/>
						</g>
					</g>
				</g>
			</g>
			<g id="ytick_37">
				<g id="line2d_88">
					<g>
						<g>
							<path id="m57a2c8792a_27_" stroke="#000000" stroke-width="0.5" stroke-linejoin="round" d="M216,182.872h2"/>
						</g>
					</g>
				</g>
				<g id="line2d_89">
					<g>
						<g>
							<path id="m46a939d668_27_" stroke="#000000" stroke-width="0.5" stroke-linejoin="round" d="M1555.201,182.872h-2"/>
						</g>
					</g>
				</g>
			</g>
			<g id="ytick_38">
				<g id="line2d_90">
					<g>
						<g>
							<path id="m57a2c8792a_28_" stroke="#000000" stroke-width="0.5" stroke-linejoin="round" d="M216,148.167h2"/>
						</g>
					</g>
				</g>
				<g id="line2d_91">
					<g>
						<g>
							<path id="m46a939d668_28_" stroke="#000000" stroke-width="0.5" stroke-linejoin="round" d="M1555.201,148.167h-2"/>
						</g>
					</g>
				</g>
			</g>
			<g id="ytick_39">
				<g id="line2d_92">
					<g>
						<g>
							<path id="m57a2c8792a_29_" stroke="#000000" stroke-width="0.5" stroke-linejoin="round" d="M216,121.915h2"/>
						</g>
					</g>
				</g>
				<g id="line2d_93">
					<g>
						<g>
							<path id="m46a939d668_29_" stroke="#000000" stroke-width="0.5" stroke-linejoin="round" d="M1555.201,121.915h-2"/>
						</g>
					</g>
				</g>
			</g>
			<g id="ytick_40">
				<g id="line2d_94">
					<g>
						<g>
							<path id="m57a2c8792a_30_" stroke="#000000" stroke-width="0.5" stroke-linejoin="round" d="M216,106.558h2"/>
						</g>
					</g>
				</g>
				<g id="line2d_95">
					<g>
						<g>
							<path id="m46a939d668_30_" stroke="#000000" stroke-width="0.5" stroke-linejoin="round" d="M1555.201,106.558h-2"/>
						</g>
					</g>
				</g>
			</g>
			<g id="ytick_41">
				<g id="line2d_96">
					<g>
						<g>
							<path id="m57a2c8792a_31_" stroke="#000000" stroke-width="0.5" stroke-linejoin="round" d="M216,95.662h2"/>
						</g>
					</g>
				</g>
				<g id="line2d_97">
					<g>
						<g>
							<path id="m46a939d668_31_" stroke="#000000" stroke-width="0.5" stroke-linejoin="round" d="M1555.201,95.662h-2"/>
						</g>
					</g>
				</g>
			</g>
		</g>
		<g id="patch_3">
			<path fill="none" stroke="#000000" stroke-linecap="square" stroke-linejoin="round" d="M216,87.21h1339.2"/>
		</g>
		<g id="patch_4">
			<path fill="none" stroke="#000000" stroke-linecap="square" stroke-linejoin="round" d="M1555.201,784.89V87.21"/>
		</g>
		<g id="patch_5">
			<path fill="none" stroke="#000000" stroke-linecap="square" stroke-linejoin="round" d="M216,784.89h1339.2"/>
		</g>
		<g id="patch_6">
			<path fill="none" stroke="#000000" stroke-linecap="square" stroke-linejoin="round" d="M216,784.89V87.21"/>
		</g>
	</g>
</g>
<text transform="matrix(1 0 0 1 592.5004 234.5)" fill="#BE3B26" font-family="'AGaramondPro-Regular'" font-size="24">Maximum estimate</text>
<text transform="matrix(1 0 0 1 468.5004 499.5)" fill="#4BB749" font-family="'AGaramondPro-Regular'" font-size="24">Parsimonious-upper estimate</text>
<text transform="matrix(1 0 0 1 275.5004 669.5)" fill="#4BB749" font-family="'AGaramondPro-Regular'" font-size="24">Parsimonious-lower estimate</text>
<text transform="matrix(1 0 0 1 225.5004 628.5)" fill="#BE3B26" font-family="'AGaramondPro-Regular'" font-size="24">Minimum estimate</text>
<text transform="matrix(1 0 0 1 331.5004 704.5)" fill="#0A1018" font-family="'AGaramondPro-Regular'" font-size="24">Diversity of the community</text>
<g>
	<line x1="290.5" y1="677.5" x2="275.5" y2="743.5"/>
	<g>
		<line fill="none" stroke="#08A94B" stroke-width="2" stroke-miterlimit="10" x1="290.5" y1="677.5" x2="278.63" y2="729.73"/>
		<g>
			<polygon fill="#08A94B" points="275.5,743.5 271.982,722.294 278.864,728.7 287.837,725.897 			"/>
		</g>
	</g>
</g>
<g>
	<line x1="547.5" y1="510.5" x2="532.5" y2="576.5"/>
	<g>
		<line fill="none" stroke="#08A94B" stroke-width="2" stroke-miterlimit="10" x1="547.5" y1="510.5" x2="535.63" y2="562.73"/>
		<g>
			<polygon fill="#08A94B" points="532.5,576.5 528.982,555.294 535.864,561.7 544.837,558.897 			"/>
		</g>
	</g>
</g>
<g>
	<line fill="#08A94B" x1="686.5" y1="245.5" x2="671.5" y2="311.5"/>
	<g>
		<line fill="none" stroke="#FF3300" stroke-width="2" stroke-miterlimit="10" x1="686.5" y1="245.5" x2="674.63" y2="297.73"/>
		<g>
			<polygon fill="#FF3300" points="671.5,311.5 667.982,290.294 674.864,296.701 683.837,293.898 			"/>
		</g>
	</g>
</g>
<g>
	<line fill="#08A94B" x1="255.438" y1="638.5" x2="238.563" y2="741.5"/>
	<g>
		
			<line fill="none" stroke="#FF3300" stroke-width="2.65" stroke-miterlimit="10" x1="255.438" y1="638.5" x2="241.588" y2="723.035"/>
		<g>
			<polygon fill="#FF3300" points="238.563,741.5 232.194,713.739 241.814,721.655 253.455,717.223 			"/>
		</g>
	</g>
</g>
<g>
	<line fill="#08A94B" x1="468.5" y1="710.5" x2="502.625" y2="741.5"/>
	<g>
		
			<line fill="none" stroke="#000000" stroke-width="2.0674" stroke-miterlimit="10" x1="468.5" y1="710.5" x2="491.821" y2="731.685"/>
		<g>
			<polygon points="502.625,741.5 481.749,733.891 491.013,730.951 493.051,721.449 			"/>
		</g>
	</g>
</g>
</svg>
