<?xml version="1.0" encoding="utf-8"?>
<!-- Generator: Adobe Illustrator 16.0.0, SVG Export Plug-In . SVG Version: 6.00 Build 0)  -->
<!DOCTYPE svg PUBLIC "-//W3C//DTD SVG 1.1//EN" "http://www.w3.org/Graphics/SVG/1.1/DTD/svg11.dtd">
<svg version="1.1" xmlns="http://www.w3.org/2000/svg" xmlns:xlink="http://www.w3.org/1999/xlink" x="0px" y="0px" width="1366px"
	 height="611px" viewBox="0 0 1366 611" enable-background="new 0 0 1366 611" xml:space="preserve">
<g id="Layer_1">
	<g>
		<path fill="none" stroke="#00FFFF" stroke-width="2" stroke-linecap="square" stroke-miterlimit="10" stroke-dasharray="11,5" d="
			M170.75,534.625h1024.5"/>
		<path fill="none" stroke="#00FFFF" stroke-width="2" stroke-linecap="square" stroke-miterlimit="10" stroke-dasharray="11,5" d="
			M170.75,534.625V76.375"/>
		<path fill="none" stroke="#00FFFF" stroke-width="2" stroke-linecap="square" stroke-miterlimit="10" stroke-dasharray="11,5" d="
			M170.75,534.625L170.75,534.625"/>
		<path fill="none" stroke="#000000" stroke-width="2" stroke-linecap="square" stroke-miterlimit="10" d="M170.75,534.625V76.375"
			/>
		<path fill="none" stroke="#000000" stroke-width="2" stroke-linecap="square" stroke-miterlimit="10" d="M170.75,76.375
			L170.75,76.375"/>
		<path fill="none" stroke="#000000" stroke-width="2" stroke-linecap="square" stroke-miterlimit="10" d="M170.75,76.375h1024.5"/>
		<path fill="none" stroke="#000000" stroke-width="2" stroke-linecap="square" stroke-miterlimit="10" d="M1195.25,76.375v458.25"
			/>
		<path fill="none" stroke="#000000" stroke-width="2" stroke-linecap="square" stroke-miterlimit="10" d="M1195.25,534.625
			L1195.25,534.625"/>
		<path fill="none" stroke="#000000" stroke-width="2" stroke-linecap="square" stroke-miterlimit="10" d="M1195.25,534.625H170.75"
			/>
		<path fill="none" stroke="#000000" stroke-width="2" stroke-linecap="square" stroke-miterlimit="10" d="M1195.25,76.375H170.75"
			/>
		<path fill="none" stroke="#000000" stroke-width="2" stroke-linecap="square" stroke-miterlimit="10" d="M1195.25,76.375v458.25"
			/>
		<path fill="none" stroke="#000000" stroke-width="2" stroke-linecap="square" stroke-miterlimit="10" d="M1195.25,76.375
			L1195.25,76.375"/>
		<path d="M1195.375,550.813h-0.875v-5.594c-0.208,0.198-0.484,0.398-0.828,0.602s-0.651,0.352-0.922,0.445v-0.844
			c0.489-0.229,0.919-0.508,1.289-0.836s0.628-0.648,0.773-0.961h0.563V550.813z"/>
	</g>
	<g transform="translate(601.8214,543.625)">
		<path d="M0,3.656c0-0.844,0.086-1.523,0.258-2.039s0.43-0.914,0.773-1.195S1.807,0,2.328,0C2.714,0,3.05,0.078,3.336,0.234
			s0.526,0.38,0.719,0.672S4.395,1.552,4.5,1.969s0.156,0.979,0.156,1.688c0,0.844-0.086,1.523-0.258,2.039s-0.43,0.914-0.773,1.195
			S2.849,7.313,2.328,7.313c-0.688,0-1.229-0.25-1.625-0.75C0.234,5.969,0,5,0,3.656z M0.891,3.656c0,1.177,0.138,1.961,0.414,2.352
			s0.617,0.586,1.023,0.586s0.747-0.195,1.023-0.586s0.414-1.175,0.414-2.352S3.628,1.698,3.351,1.313S2.729,0.734,2.312,0.734
			c-0.396,0-0.719,0.167-0.969,0.5C1.042,1.672,0.891,2.479,0.891,3.656z M6.484,7.188v-1h1v1H6.484z M10.344,3.313
			C9.979,3.177,9.708,2.984,9.531,2.734S9.266,2.188,9.266,1.844c0-0.521,0.188-0.958,0.563-1.313S10.703,0,11.328,0
			s1.128,0.183,1.508,0.547s0.57,0.808,0.57,1.328c0,0.333-0.086,0.622-0.258,0.867s-0.435,0.435-0.789,0.57
			c0.438,0.136,0.771,0.364,1,0.688s0.344,0.703,0.344,1.141c0,0.614-0.216,1.13-0.648,1.547s-1.003,0.625-1.711,0.625
			S10.065,7.102,9.633,6.68s-0.648-0.945-0.648-1.57c0-0.458,0.117-0.847,0.352-1.164S9.906,3.417,10.344,3.313z M10.172,1.813
			c0,0.344,0.109,0.622,0.328,0.836s0.5,0.32,0.844,0.32s0.622-0.106,0.836-0.32s0.32-0.477,0.32-0.789
			c0-0.323-0.112-0.594-0.336-0.813s-0.497-0.328-0.82-0.328c-0.344,0-0.625,0.106-0.844,0.32S10.172,1.511,10.172,1.813z
			 M9.891,5.125c0,0.25,0.06,0.492,0.18,0.727s0.297,0.417,0.531,0.547s0.487,0.195,0.758,0.195c0.417,0,0.761-0.136,1.031-0.406
			s0.406-0.614,0.406-1.031c0-0.427-0.141-0.778-0.422-1.055s-0.63-0.414-1.047-0.414s-0.761,0.136-1.031,0.406
			S9.891,4.708,9.891,5.125z"/>
	</g>
	<g transform="translate(309.1071,543.625)">
		<path d="M0,3.656c0-0.844,0.086-1.523,0.258-2.039s0.43-0.914,0.773-1.195S1.807,0,2.328,0C2.714,0,3.05,0.078,3.336,0.234
			c0.287,0.156,0.526,0.38,0.719,0.672C4.247,1.198,4.396,1.552,4.5,1.969c0.104,0.417,0.156,0.979,0.156,1.688
			c0,0.844-0.086,1.523-0.258,2.039s-0.43,0.914-0.773,1.195S2.849,7.313,2.328,7.313c-0.688,0-1.229-0.25-1.625-0.75
			C0.234,5.969,0,5,0,3.656z M0.89,3.656c0,1.177,0.138,1.961,0.414,2.352c0.276,0.391,0.617,0.586,1.023,0.586
			s0.748-0.195,1.023-0.586c0.276-0.391,0.414-1.175,0.414-2.352S3.628,1.698,3.351,1.313C3.076,0.927,2.729,0.734,2.312,0.734
			c-0.396,0-0.719,0.167-0.969,0.5C1.042,1.672,0.89,2.479,0.89,3.656z M6.484,7.188v-1h1v1H6.484z M9.047,0.969V0.125h4.641v0.688
			c-0.458,0.479-0.911,1.12-1.359,1.922c-0.448,0.802-0.792,1.63-1.031,2.484c-0.177,0.604-0.292,1.261-0.344,1.969h-0.906
			c0.011-0.563,0.123-1.242,0.336-2.039c0.214-0.797,0.519-1.565,0.914-2.305c0.396-0.739,0.818-1.364,1.266-1.875H9.047z"/>
	</g>
	<g transform="translate(894.5357,543.625)">
		<path d="M0,3.656c0-0.844,0.086-1.523,0.258-2.039s0.429-0.914,0.772-1.195C1.375,0.141,1.807,0,2.329,0
			c0.385,0,0.721,0.078,1.007,0.234c0.287,0.156,0.526,0.38,0.72,0.672C4.247,1.198,4.396,1.552,4.5,1.969
			c0.104,0.417,0.155,0.979,0.155,1.688c0,0.844-0.086,1.523-0.258,2.039C4.227,6.211,3.969,6.609,3.625,6.891
			S2.849,7.313,2.329,7.313c-0.688,0-1.229-0.25-1.625-0.75C0.235,5.969,0,5,0,3.656z M0.891,3.656c0,1.177,0.138,1.961,0.414,2.352
			c0.275,0.391,0.617,0.586,1.023,0.586s0.747-0.195,1.023-0.586c0.275-0.391,0.414-1.175,0.414-2.352S3.627,1.698,3.352,1.313
			C3.076,0.927,2.729,0.734,2.313,0.734c-0.396,0-0.719,0.167-0.969,0.5C1.041,1.672,0.891,2.479,0.891,3.656z M6.485,7.188v-1h1v1
			H6.485z M9.125,5.531l0.844-0.078c0.072,0.396,0.211,0.685,0.414,0.867s0.461,0.273,0.772,0.273c0.271,0,0.509-0.063,0.712-0.188
			s0.369-0.292,0.5-0.5c0.13-0.208,0.239-0.487,0.328-0.836c0.088-0.349,0.133-0.706,0.133-1.07c0-0.042,0-0.104,0-0.188
			c-0.178,0.281-0.42,0.511-0.727,0.688c-0.308,0.177-0.639,0.266-0.992,0.266c-0.594,0-1.094-0.216-1.5-0.648S9,3.12,9,2.422
			c0-0.729,0.213-1.315,0.641-1.758C10.068,0.222,10.604,0,11.25,0c0.458,0,0.88,0.125,1.266,0.375
			c0.385,0.25,0.68,0.606,0.882,1.07c0.204,0.464,0.306,1.138,0.306,2.023c0,0.906-0.1,1.63-0.298,2.172
			c-0.197,0.542-0.494,0.956-0.89,1.242c-0.396,0.286-0.854,0.43-1.375,0.43c-0.563,0-1.021-0.156-1.375-0.469
			C9.412,6.531,9.198,6.094,9.125,5.531z M12.719,2.375c0-0.511-0.133-0.911-0.398-1.203s-0.586-0.438-0.961-0.438
			c-0.396,0-0.74,0.159-1.031,0.477c-0.292,0.317-0.438,0.731-0.438,1.242c0,0.448,0.138,0.815,0.414,1.102
			c0.275,0.286,0.617,0.43,1.023,0.43s0.739-0.144,1-0.43C12.588,3.269,12.719,2.875,12.719,2.375z"/>
	</g>
	<g transform="translate(189.0214,543.625)">
		<path d="M0,3.656c0-0.844,0.086-1.523,0.258-2.039s0.43-0.914,0.773-1.195S1.807,0,2.328,0c0.385,0,0.721,0.078,1.008,0.234
			c0.286,0.156,0.526,0.38,0.719,0.672S4.396,1.552,4.5,1.969s0.156,0.979,0.156,1.688c0,0.844-0.086,1.523-0.258,2.039
			s-0.43,0.914-0.773,1.195S2.849,7.313,2.328,7.313c-0.688,0-1.229-0.25-1.625-0.75C0.234,5.969,0,5,0,3.656z M0.891,3.656
			c0,1.177,0.138,1.961,0.414,2.352c0.276,0.391,0.617,0.586,1.023,0.586s0.747-0.195,1.023-0.586
			c0.276-0.391,0.414-1.175,0.414-2.352S3.628,1.698,3.352,1.313C3.075,0.927,2.729,0.734,2.313,0.734
			c-0.396,0-0.719,0.167-0.969,0.5C1.042,1.672,0.891,2.479,0.891,3.656z M6.484,7.188v-1h1v1H6.484z M13.547,1.781l-0.859,0.063
			c-0.083-0.344-0.198-0.594-0.344-0.75c-0.24-0.25-0.531-0.375-0.875-0.375c-0.281,0-0.526,0.078-0.734,0.234
			c-0.281,0.208-0.5,0.505-0.656,0.891S9.838,2.781,9.828,3.5c0.208-0.323,0.466-0.563,0.773-0.719
			c0.307-0.156,0.627-0.234,0.961-0.234c0.594,0,1.096,0.216,1.508,0.648c0.411,0.433,0.617,0.987,0.617,1.664
			c0,0.448-0.099,0.864-0.297,1.25S12.924,6.792,12.586,7c-0.339,0.208-0.722,0.313-1.148,0.313c-0.729,0-1.326-0.271-1.789-0.813
			C9.185,5.958,8.953,5.073,8.953,3.844c0-1.386,0.255-2.396,0.766-3.031C10.167,0.271,10.766,0,11.516,0
			c0.573,0,1.039,0.159,1.398,0.477S13.484,1.229,13.547,1.781z M9.969,4.875c0,0.302,0.063,0.591,0.188,0.867
			s0.305,0.487,0.539,0.633s0.477,0.219,0.727,0.219c0.375,0,0.695-0.151,0.961-0.453s0.398-0.708,0.398-1.219
			c0-0.5-0.133-0.894-0.398-1.18s-0.597-0.43-0.992-0.43c-0.396,0-0.732,0.144-1.008,0.43S9.969,4.406,9.969,4.875z M19.547,1.781
			l-0.859,0.063c-0.083-0.344-0.198-0.594-0.344-0.75c-0.24-0.25-0.531-0.375-0.875-0.375c-0.281,0-0.526,0.078-0.734,0.234
			c-0.281,0.208-0.5,0.505-0.656,0.891s-0.24,0.938-0.25,1.656c0.208-0.323,0.466-0.563,0.773-0.719
			c0.307-0.156,0.627-0.234,0.961-0.234c0.594,0,1.096,0.216,1.508,0.648c0.411,0.433,0.617,0.987,0.617,1.664
			c0,0.448-0.099,0.864-0.297,1.25S18.924,6.792,18.586,7c-0.339,0.208-0.722,0.313-1.148,0.313c-0.729,0-1.326-0.271-1.789-0.813
			c-0.464-0.542-0.695-1.427-0.695-2.656c0-1.386,0.255-2.396,0.766-3.031C16.167,0.271,16.766,0,17.516,0
			c0.573,0,1.039,0.159,1.398,0.477S19.484,1.229,19.547,1.781z M15.969,4.875c0,0.302,0.063,0.591,0.188,0.867
			s0.305,0.487,0.539,0.633s0.477,0.219,0.727,0.219c0.375,0,0.695-0.151,0.961-0.453s0.398-0.708,0.398-1.219
			c0-0.5-0.133-0.894-0.398-1.18s-0.597-0.43-0.992-0.43c-0.396,0-0.732,0.144-1.008,0.43S15.969,4.406,15.969,4.875z"/>
	</g>
	<g transform="translate(247.5643,543.625)">
		<path d="M0,3.656c0-0.844,0.086-1.523,0.258-2.039s0.43-0.914,0.773-1.195S1.807,0,2.328,0c0.385,0,0.721,0.078,1.008,0.234
			c0.286,0.156,0.526,0.38,0.719,0.672C4.247,1.198,4.396,1.552,4.5,1.969c0.104,0.417,0.156,0.979,0.156,1.688
			c0,0.844-0.086,1.523-0.258,2.039s-0.43,0.914-0.773,1.195S2.849,7.313,2.328,7.313c-0.688,0-1.229-0.25-1.625-0.75
			C0.235,5.969,0,5,0,3.656z M0.891,3.656c0,1.177,0.138,1.961,0.414,2.352c0.276,0.391,0.617,0.586,1.023,0.586
			s0.747-0.195,1.023-0.586c0.276-0.391,0.414-1.175,0.414-2.352S3.628,1.698,3.352,1.313C3.075,0.927,2.729,0.734,2.313,0.734
			c-0.396,0-0.719,0.167-0.969,0.5C1.042,1.672,0.891,2.479,0.891,3.656z M6.485,7.188v-1h1v1H6.485z M13.547,1.781l-0.859,0.063
			c-0.083-0.344-0.198-0.594-0.344-0.75c-0.24-0.25-0.531-0.375-0.875-0.375c-0.281,0-0.526,0.078-0.734,0.234
			c-0.281,0.208-0.5,0.505-0.656,0.891S9.839,2.781,9.828,3.5c0.208-0.323,0.466-0.563,0.773-0.719
			c0.307-0.156,0.627-0.234,0.961-0.234c0.594,0,1.096,0.216,1.508,0.648c0.411,0.433,0.617,0.987,0.617,1.664
			c0,0.448-0.099,0.864-0.297,1.25C13.193,6.495,12.924,6.792,12.586,7c-0.339,0.208-0.722,0.313-1.148,0.313
			c-0.729,0-1.326-0.271-1.789-0.813C9.185,5.958,8.953,5.073,8.953,3.844c0-1.386,0.255-2.396,0.766-3.031
			C10.167,0.271,10.766,0,11.516,0c0.573,0,1.039,0.159,1.398,0.477S13.485,1.229,13.547,1.781z M9.969,4.875
			c0,0.302,0.063,0.591,0.188,0.867s0.305,0.487,0.539,0.633s0.477,0.219,0.727,0.219c0.375,0,0.695-0.151,0.961-0.453
			s0.398-0.708,0.398-1.219c0-0.5-0.133-0.894-0.398-1.18s-0.597-0.43-0.992-0.43c-0.396,0-0.732,0.144-1.008,0.43
			C10.107,4.028,9.969,4.406,9.969,4.875z M16.344,3.313c-0.365-0.136-0.636-0.328-0.813-0.578c-0.177-0.25-0.266-0.547-0.266-0.891
			c0-0.521,0.188-0.958,0.563-1.313S16.703,0,17.328,0s1.127,0.183,1.508,0.547c0.38,0.364,0.57,0.808,0.57,1.328
			c0,0.333-0.086,0.622-0.258,0.867s-0.435,0.435-0.789,0.57c0.438,0.136,0.771,0.364,1,0.688c0.229,0.323,0.344,0.703,0.344,1.141
			c0,0.614-0.216,1.13-0.648,1.547c-0.433,0.417-1.003,0.625-1.711,0.625c-0.708,0-1.279-0.211-1.711-0.633
			c-0.433-0.422-0.648-0.945-0.648-1.57c0-0.458,0.117-0.847,0.352-1.164S15.906,3.417,16.344,3.313z M16.172,1.813
			c0,0.344,0.109,0.622,0.328,0.836s0.5,0.32,0.844,0.32s0.622-0.106,0.836-0.32c0.213-0.214,0.32-0.477,0.32-0.789
			c0-0.323-0.112-0.594-0.336-0.813c-0.224-0.219-0.498-0.328-0.82-0.328c-0.344,0-0.625,0.106-0.844,0.32
			S16.172,1.511,16.172,1.813z M15.891,5.125c0,0.25,0.06,0.492,0.18,0.727c0.12,0.234,0.297,0.417,0.531,0.547
			s0.487,0.195,0.758,0.195c0.417,0,0.76-0.136,1.031-0.406c0.271-0.271,0.406-0.614,0.406-1.031c0-0.427-0.141-0.778-0.422-1.055
			s-0.63-0.414-1.047-0.414c-0.417,0-0.761,0.136-1.031,0.406C16.026,4.364,15.891,4.708,15.891,5.125z"/>
	</g>
	<g transform="translate(364.65,543.625)">
		<path d="M0,3.656c0-0.844,0.086-1.523,0.258-2.039s0.43-0.914,0.773-1.195S1.808,0,2.328,0c0.385,0,0.721,0.078,1.008,0.234
			s0.526,0.38,0.719,0.672S4.396,1.552,4.5,1.969s0.156,0.979,0.156,1.688c0,0.844-0.086,1.523-0.258,2.039s-0.43,0.914-0.773,1.195
			S2.849,7.313,2.328,7.313c-0.688,0-1.229-0.25-1.625-0.75C0.234,5.969,0,5,0,3.656z M0.891,3.656c0,1.177,0.138,1.961,0.414,2.352
			c0.276,0.391,0.617,0.586,1.023,0.586s0.748-0.195,1.023-0.586s0.414-1.175,0.414-2.352S3.627,1.698,3.351,1.313
			S2.729,0.734,2.312,0.734c-0.396,0-0.719,0.167-0.969,0.5C1.041,1.672,0.891,2.479,0.891,3.656z M6.484,7.188v-1h1v1H6.484z
			 M9.047,0.969V0.125h4.641v0.688c-0.458,0.479-0.912,1.12-1.359,1.922s-0.792,1.63-1.031,2.484
			c-0.177,0.604-0.292,1.261-0.344,1.969h-0.906c0.011-0.563,0.123-1.242,0.336-2.039s0.518-1.565,0.914-2.305
			s0.818-1.364,1.266-1.875H9.047z M19.609,6.344v0.844h-4.734c0-0.208,0.037-0.411,0.109-0.609
			c0.125-0.323,0.318-0.641,0.578-0.953s0.646-0.672,1.156-1.078c0.771-0.646,1.294-1.153,1.57-1.523s0.414-0.722,0.414-1.055
			c0-0.354-0.125-0.648-0.375-0.883s-0.573-0.352-0.969-0.352c-0.427,0-0.768,0.125-1.023,0.375s-0.383,0.599-0.383,1.047
			l-0.906-0.094c0.063-0.667,0.294-1.177,0.695-1.531C16.143,0.177,16.687,0,17.375,0s1.232,0.19,1.633,0.57
			c0.401,0.38,0.602,0.852,0.602,1.414c0,0.292-0.06,0.575-0.18,0.852c-0.12,0.276-0.315,0.567-0.586,0.875
			c-0.271,0.308-0.724,0.727-1.359,1.258c-0.521,0.438-0.857,0.737-1.008,0.898s-0.273,0.32-0.367,0.477H19.609z"/>
	</g>
	<g transform="translate(423.1929,543.625)">
		<path d="M0,3.656c0-0.844,0.086-1.523,0.258-2.039s0.43-0.914,0.772-1.195C1.375,0.141,1.807,0,2.329,0
			c0.385,0,0.721,0.078,1.008,0.234c0.286,0.156,0.525,0.38,0.719,0.672C4.248,1.198,4.396,1.552,4.5,1.969
			c0.104,0.417,0.155,0.979,0.155,1.688c0,0.844-0.085,1.523-0.257,2.039s-0.43,0.914-0.773,1.195S2.849,7.313,2.329,7.313
			c-0.688,0-1.229-0.25-1.625-0.75C0.235,5.969,0,5,0,3.656z M0.891,3.656c0,1.177,0.138,1.961,0.414,2.352
			c0.275,0.391,0.617,0.586,1.023,0.586s0.747-0.195,1.023-0.586c0.275-0.391,0.414-1.175,0.414-2.352S3.627,1.698,3.352,1.313
			C3.076,0.927,2.729,0.734,2.313,0.734c-0.396,0-0.719,0.167-0.969,0.5C1.041,1.672,0.891,2.479,0.891,3.656z M6.485,7.188v-1h1v1
			H6.485z M9.047,0.969V0.125h4.641v0.688c-0.459,0.479-0.912,1.12-1.359,1.922c-0.448,0.802-0.792,1.63-1.031,2.484
			c-0.178,0.604-0.292,1.261-0.344,1.969h-0.906c0.01-0.563,0.122-1.242,0.336-2.039c0.213-0.797,0.518-1.565,0.914-2.305
			c0.396-0.739,0.817-1.364,1.266-1.875H9.047z M17.813,7.188V5.469h-3.109V4.672l3.266-4.641h0.719v4.641h0.968v0.797h-0.968v1.719
			H17.813z M17.813,4.672V1.438l-2.25,3.234H17.813z"/>
	</g>
	<g transform="translate(481.7357,543.625)">
		<path d="M0,3.656c0-0.844,0.086-1.523,0.258-2.039s0.43-0.914,0.773-1.195S1.807,0,2.328,0c0.386,0,0.722,0.078,1.008,0.234
			c0.287,0.156,0.526,0.38,0.719,0.672C4.248,1.198,4.396,1.552,4.5,1.969c0.104,0.417,0.156,0.979,0.156,1.688
			c0,0.844-0.086,1.523-0.258,2.039s-0.43,0.914-0.773,1.195S2.849,7.313,2.328,7.313c-0.688,0-1.229-0.25-1.625-0.75
			C0.234,5.969,0,5,0,3.656z M0.89,3.656c0,1.177,0.139,1.961,0.414,2.352c0.276,0.391,0.617,0.586,1.023,0.586
			s0.748-0.195,1.023-0.586c0.276-0.391,0.414-1.175,0.414-2.352S3.628,1.698,3.351,1.313C3.076,0.927,2.729,0.734,2.312,0.734
			c-0.396,0-0.719,0.167-0.969,0.5C1.042,1.672,0.89,2.479,0.89,3.656z M6.484,7.188v-1h1v1H6.484z M9.047,0.969V0.125h4.641v0.688
			c-0.458,0.479-0.911,1.12-1.359,1.922c-0.447,0.802-0.791,1.63-1.031,2.484c-0.177,0.604-0.291,1.261-0.344,1.969h-0.906
			c0.011-0.563,0.123-1.242,0.336-2.039c0.214-0.797,0.519-1.565,0.914-2.305c0.396-0.739,0.818-1.364,1.266-1.875H9.047z
			 M19.547,1.781l-0.859,0.063C18.604,1.5,18.49,1.25,18.343,1.094c-0.239-0.25-0.531-0.375-0.875-0.375
			c-0.281,0-0.525,0.078-0.734,0.234c-0.281,0.208-0.5,0.505-0.656,0.891s-0.239,0.938-0.25,1.656
			c0.209-0.323,0.467-0.563,0.773-0.719c0.308-0.156,0.628-0.234,0.961-0.234c0.594,0,1.097,0.216,1.508,0.648
			c0.412,0.433,0.617,0.987,0.617,1.664c0,0.448-0.099,0.864-0.297,1.25C19.193,6.495,18.924,6.792,18.586,7
			c-0.338,0.208-0.721,0.313-1.148,0.313c-0.729,0-1.325-0.271-1.789-0.813c-0.463-0.542-0.695-1.427-0.695-2.656
			c0-1.386,0.256-2.396,0.766-3.031C16.167,0.271,16.765,0,17.515,0c0.573,0,1.039,0.159,1.398,0.477S19.484,1.229,19.547,1.781z
			 M15.968,4.875c0,0.302,0.063,0.591,0.188,0.867s0.305,0.487,0.539,0.633s0.477,0.219,0.727,0.219
			c0.375,0,0.695-0.151,0.961-0.453s0.398-0.708,0.398-1.219c0-0.5-0.133-0.894-0.398-1.18s-0.596-0.43-0.992-0.43
			c-0.396,0-0.731,0.144-1.008,0.43C16.107,4.028,15.968,4.406,15.968,4.875z"/>
	</g>
	<g transform="translate(540.2786,543.625)">
		<path d="M0,3.656c0-0.844,0.086-1.523,0.258-2.039s0.43-0.914,0.773-1.195S1.807,0,2.328,0c0.386,0,0.722,0.078,1.008,0.234
			c0.287,0.156,0.526,0.38,0.719,0.672C4.248,1.198,4.396,1.552,4.5,1.969c0.104,0.417,0.156,0.979,0.156,1.688
			c0,0.844-0.086,1.523-0.258,2.039s-0.43,0.914-0.773,1.195S2.849,7.313,2.328,7.313c-0.688,0-1.229-0.25-1.625-0.75
			C0.234,5.969,0,5,0,3.656z M0.89,3.656c0,1.177,0.139,1.961,0.414,2.352c0.276,0.391,0.617,0.586,1.023,0.586
			s0.748-0.195,1.023-0.586c0.276-0.391,0.414-1.175,0.414-2.352S3.628,1.698,3.351,1.313C3.076,0.927,2.729,0.734,2.312,0.734
			c-0.396,0-0.719,0.167-0.969,0.5C1.042,1.672,0.89,2.479,0.89,3.656z M6.484,7.188v-1h1v1H6.484z M9.047,0.969V0.125h4.641v0.688
			c-0.458,0.479-0.911,1.12-1.359,1.922c-0.447,0.802-0.791,1.63-1.031,2.484c-0.177,0.604-0.291,1.261-0.344,1.969h-0.906
			c0.011-0.563,0.123-1.242,0.336-2.039c0.214-0.797,0.519-1.565,0.914-2.305c0.396-0.739,0.818-1.364,1.266-1.875H9.047z
			 M16.343,3.313c-0.364-0.136-0.635-0.328-0.813-0.578c-0.177-0.25-0.266-0.547-0.266-0.891c0-0.521,0.188-0.958,0.563-1.313
			S16.703,0,17.328,0s1.128,0.183,1.508,0.547c0.381,0.364,0.57,0.808,0.57,1.328c0,0.333-0.086,0.622-0.258,0.867
			s-0.435,0.435-0.789,0.57c0.438,0.136,0.771,0.364,1,0.688c0.229,0.323,0.344,0.703,0.344,1.141c0,0.614-0.216,1.13-0.648,1.547
			c-0.432,0.417-1.002,0.625-1.711,0.625c-0.708,0-1.278-0.211-1.711-0.633c-0.432-0.422-0.648-0.945-0.648-1.57
			c0-0.458,0.117-0.847,0.352-1.164S15.906,3.417,16.343,3.313z M16.172,1.813c0,0.344,0.109,0.622,0.328,0.836s0.5,0.32,0.844,0.32
			s0.623-0.106,0.836-0.32c0.214-0.214,0.32-0.477,0.32-0.789c0-0.323-0.111-0.594-0.336-0.813c-0.224-0.219-0.497-0.328-0.82-0.328
			c-0.344,0-0.625,0.106-0.844,0.32S16.172,1.511,16.172,1.813z M15.89,5.125c0,0.25,0.061,0.492,0.18,0.727
			c0.12,0.234,0.297,0.417,0.531,0.547s0.487,0.195,0.758,0.195c0.417,0,0.761-0.136,1.031-0.406
			c0.271-0.271,0.406-0.614,0.406-1.031c0-0.427-0.141-0.778-0.422-1.055s-0.63-0.414-1.047-0.414c-0.416,0-0.76,0.136-1.031,0.406
			C16.026,4.364,15.89,4.708,15.89,5.125z"/>
	</g>
	<g transform="translate(657.3643,543.625)">
		<path d="M0,3.656c0-0.844,0.086-1.523,0.258-2.039s0.43-0.914,0.773-1.195S1.808,0,2.328,0C2.714,0,3.05,0.078,3.336,0.234
			s0.526,0.38,0.719,0.672S4.395,1.552,4.5,1.969s0.156,0.979,0.156,1.688c0,0.844-0.086,1.523-0.258,2.039s-0.43,0.914-0.773,1.195
			S2.849,7.313,2.328,7.313c-0.688,0-1.229-0.25-1.625-0.75C0.234,5.969,0,5,0,3.656z M0.891,3.656c0,1.177,0.138,1.961,0.414,2.352
			s0.617,0.586,1.023,0.586s0.747-0.195,1.023-0.586s0.414-1.175,0.414-2.352S3.628,1.698,3.352,1.313S2.729,0.734,2.312,0.734
			c-0.396,0-0.719,0.167-0.969,0.5C1.042,1.672,0.891,2.479,0.891,3.656z M6.484,7.188v-1h1v1H6.484z M10.344,3.313
			C9.979,3.177,9.708,2.984,9.531,2.734S9.266,2.188,9.266,1.844c0-0.521,0.188-0.958,0.563-1.313S10.703,0,11.328,0
			s1.128,0.183,1.508,0.547s0.57,0.808,0.57,1.328c0,0.333-0.086,0.622-0.258,0.867s-0.435,0.435-0.789,0.57
			c0.438,0.136,0.771,0.364,1,0.688s0.344,0.703,0.344,1.141c0,0.614-0.216,1.13-0.648,1.547s-1.003,0.625-1.711,0.625
			S10.065,7.102,9.633,6.68s-0.648-0.945-0.648-1.57c0-0.458,0.117-0.847,0.352-1.164S9.906,3.417,10.344,3.313z M10.172,1.813
			c0,0.344,0.109,0.622,0.328,0.836s0.5,0.32,0.844,0.32s0.622-0.106,0.836-0.32s0.32-0.477,0.32-0.789
			c0-0.323-0.112-0.594-0.336-0.813s-0.497-0.328-0.82-0.328c-0.344,0-0.625,0.106-0.844,0.32S10.172,1.511,10.172,1.813z
			 M9.891,5.125c0,0.25,0.06,0.492,0.18,0.727s0.297,0.417,0.531,0.547s0.487,0.195,0.758,0.195c0.417,0,0.761-0.136,1.031-0.406
			s0.406-0.614,0.406-1.031c0-0.427-0.141-0.778-0.422-1.055s-0.63-0.414-1.047-0.414s-0.761,0.136-1.031,0.406
			S9.891,4.708,9.891,5.125z M19.609,6.344v0.844h-4.734c0-0.208,0.036-0.411,0.109-0.609c0.125-0.323,0.317-0.641,0.578-0.953
			s0.646-0.672,1.156-1.078c0.771-0.646,1.294-1.153,1.57-1.523s0.414-0.722,0.414-1.055c0-0.354-0.125-0.648-0.375-0.883
			s-0.573-0.352-0.969-0.352c-0.427,0-0.769,0.125-1.023,0.375s-0.383,0.599-0.383,1.047l-0.906-0.094
			c0.063-0.667,0.294-1.177,0.695-1.531S16.687,0,17.375,0s1.231,0.19,1.633,0.57s0.602,0.852,0.602,1.414
			c0,0.292-0.06,0.575-0.18,0.852s-0.315,0.567-0.586,0.875s-0.724,0.727-1.359,1.258c-0.521,0.438-0.856,0.737-1.008,0.898
			s-0.273,0.32-0.367,0.477H19.609z"/>
	</g>
	<g transform="translate(715.9071,543.625)">
		<path d="M0,3.656c0-0.844,0.086-1.523,0.258-2.039s0.43-0.914,0.773-1.195S1.808,0,2.328,0C2.714,0,3.05,0.078,3.336,0.234
			s0.526,0.38,0.719,0.672S4.396,1.552,4.5,1.969s0.156,0.979,0.156,1.688c0,0.844-0.086,1.523-0.258,2.039s-0.43,0.914-0.773,1.195
			S2.849,7.313,2.328,7.313c-0.688,0-1.229-0.25-1.625-0.75C0.234,5.969,0,5,0,3.656z M0.891,3.656c0,1.177,0.138,1.961,0.414,2.352
			s0.617,0.586,1.023,0.586s0.747-0.195,1.023-0.586s0.414-1.175,0.414-2.352S3.628,1.698,3.352,1.313S2.73,0.734,2.313,0.734
			c-0.396,0-0.719,0.167-0.969,0.5C1.042,1.672,0.891,2.479,0.891,3.656z M6.484,7.188v-1h1v1H6.484z M10.344,3.313
			C9.98,3.177,9.708,2.984,9.531,2.734S9.266,2.188,9.266,1.844c0-0.521,0.188-0.958,0.563-1.313S10.703,0,11.328,0
			s1.128,0.183,1.508,0.547s0.57,0.808,0.57,1.328c0,0.333-0.086,0.622-0.258,0.867s-0.435,0.435-0.789,0.57
			c0.438,0.136,0.771,0.364,1,0.688s0.344,0.703,0.344,1.141c0,0.614-0.216,1.13-0.648,1.547s-1.003,0.625-1.711,0.625
			S10.066,7.102,9.633,6.68s-0.648-0.945-0.648-1.57c0-0.458,0.117-0.847,0.352-1.164S9.906,3.417,10.344,3.313z M10.172,1.813
			c0,0.344,0.109,0.622,0.328,0.836s0.5,0.32,0.844,0.32s0.622-0.106,0.836-0.32s0.32-0.477,0.32-0.789
			c0-0.323-0.112-0.594-0.336-0.813s-0.497-0.328-0.82-0.328c-0.344,0-0.625,0.106-0.844,0.32S10.172,1.511,10.172,1.813z
			 M9.891,5.125c0,0.25,0.06,0.492,0.18,0.727s0.297,0.417,0.531,0.547s0.487,0.195,0.758,0.195c0.417,0,0.761-0.136,1.031-0.406
			s0.406-0.614,0.406-1.031c0-0.427-0.141-0.778-0.422-1.055s-0.63-0.414-1.047-0.414s-0.761,0.136-1.031,0.406
			S9.891,4.708,9.891,5.125z M17.813,7.188V5.469h-3.109V4.672l3.266-4.641h0.719v4.641h0.969v0.797h-0.969v1.719H17.813z
			 M17.813,4.672V1.438l-2.25,3.234H17.813z"/>
	</g>
	<g transform="translate(774.45,543.625)">
		<path d="M0,3.656c0-0.844,0.086-1.523,0.258-2.039s0.43-0.914,0.773-1.195S1.808,0,2.328,0c0.385,0,0.721,0.078,1.008,0.234
			c0.286,0.156,0.525,0.38,0.719,0.672C4.247,1.198,4.396,1.552,4.5,1.969c0.104,0.417,0.156,0.979,0.156,1.688
			c0,0.844-0.086,1.523-0.258,2.039s-0.43,0.914-0.773,1.195S2.849,7.313,2.328,7.313c-0.688,0-1.229-0.25-1.625-0.75
			C0.235,5.969,0,5,0,3.656z M0.891,3.656c0,1.177,0.138,1.961,0.414,2.352s0.617,0.586,1.023,0.586s0.747-0.195,1.023-0.586
			s0.414-1.175,0.414-2.352S3.628,1.698,3.352,1.313S2.73,0.734,2.313,0.734c-0.396,0-0.719,0.167-0.969,0.5
			C1.042,1.672,0.891,2.479,0.891,3.656z M6.485,7.188v-1h1v1H6.485z M10.344,3.313C9.98,3.177,9.708,2.984,9.531,2.734
			c-0.178-0.25-0.266-0.547-0.266-0.891c0-0.521,0.188-0.958,0.563-1.313S10.703,0,11.328,0s1.127,0.183,1.508,0.547
			c0.38,0.364,0.57,0.808,0.57,1.328c0,0.333-0.086,0.622-0.258,0.867s-0.435,0.435-0.789,0.57c0.438,0.136,0.771,0.364,1,0.688
			s0.344,0.703,0.344,1.141c0,0.614-0.217,1.13-0.648,1.547c-0.433,0.417-1.003,0.625-1.711,0.625c-0.709,0-1.279-0.211-1.711-0.633
			C9.2,6.258,8.985,5.734,8.985,5.109c0-0.458,0.117-0.847,0.352-1.164S9.906,3.417,10.344,3.313z M10.172,1.813
			c0,0.344,0.109,0.622,0.328,0.836s0.5,0.32,0.844,0.32s0.622-0.106,0.836-0.32s0.32-0.477,0.32-0.789
			c0-0.323-0.112-0.594-0.336-0.813s-0.497-0.328-0.82-0.328c-0.344,0-0.625,0.106-0.844,0.32S10.172,1.511,10.172,1.813z
			 M9.891,5.125c0,0.25,0.06,0.492,0.18,0.727s0.297,0.417,0.531,0.547s0.487,0.195,0.758,0.195c0.417,0,0.761-0.136,1.031-0.406
			s0.406-0.614,0.406-1.031c0-0.427-0.141-0.778-0.422-1.055s-0.631-0.414-1.047-0.414c-0.417,0-0.761,0.136-1.031,0.406
			S9.891,4.708,9.891,5.125z M19.547,1.781l-0.859,0.063c-0.083-0.344-0.198-0.594-0.344-0.75c-0.239-0.25-0.531-0.375-0.875-0.375
			c-0.281,0-0.526,0.078-0.734,0.234c-0.281,0.208-0.5,0.505-0.656,0.891s-0.239,0.938-0.25,1.656
			c0.208-0.323,0.466-0.563,0.773-0.719s0.628-0.234,0.961-0.234c0.594,0,1.096,0.216,1.508,0.648
			c0.411,0.433,0.617,0.987,0.617,1.664c0,0.448-0.099,0.864-0.297,1.25S18.925,6.792,18.586,7s-0.722,0.313-1.148,0.313
			c-0.729,0-1.325-0.271-1.789-0.813s-0.695-1.427-0.695-2.656c0-1.386,0.255-2.396,0.766-3.031C16.167,0.271,16.766,0,17.516,0
			c0.573,0,1.039,0.159,1.398,0.477S19.485,1.229,19.547,1.781z M15.969,4.875c0,0.302,0.063,0.591,0.188,0.867
			s0.305,0.487,0.539,0.633s0.477,0.219,0.727,0.219c0.375,0,0.695-0.151,0.961-0.453s0.398-0.708,0.398-1.219
			c0-0.5-0.133-0.894-0.398-1.18s-0.597-0.43-0.992-0.43s-0.731,0.144-1.008,0.43S15.969,4.406,15.969,4.875z"/>
	</g>
	<g transform="translate(832.9929,543.625)">
		<path d="M0,3.656c0-0.844,0.086-1.523,0.258-2.039s0.43-0.914,0.773-1.195S1.807,0,2.328,0c0.385,0,0.721,0.078,1.008,0.234
			c0.286,0.156,0.525,0.38,0.719,0.672C4.247,1.198,4.396,1.552,4.5,1.969c0.104,0.417,0.156,0.979,0.156,1.688
			c0,0.844-0.086,1.523-0.258,2.039s-0.43,0.914-0.773,1.195S2.849,7.313,2.328,7.313c-0.688,0-1.229-0.25-1.625-0.75
			C0.235,5.969,0,5,0,3.656z M0.891,3.656c0,1.177,0.138,1.961,0.414,2.352C1.58,6.398,1.922,6.594,2.328,6.594
			s0.747-0.195,1.023-0.586c0.275-0.391,0.414-1.175,0.414-2.352S3.627,1.698,3.352,1.313C3.075,0.927,2.729,0.734,2.313,0.734
			c-0.396,0-0.719,0.167-0.969,0.5C1.041,1.672,0.891,2.479,0.891,3.656z M6.485,7.188v-1h1v1H6.485z M10.344,3.313
			C9.979,3.177,9.708,2.984,9.531,2.734c-0.178-0.25-0.266-0.547-0.266-0.891c0-0.521,0.188-0.958,0.563-1.313S10.703,0,11.328,0
			s1.127,0.183,1.508,0.547c0.38,0.364,0.57,0.808,0.57,1.328c0,0.333-0.086,0.622-0.258,0.867s-0.436,0.435-0.789,0.57
			c0.438,0.136,0.771,0.364,1,0.688c0.229,0.323,0.344,0.703,0.344,1.141c0,0.614-0.217,1.13-0.648,1.547
			c-0.433,0.417-1.003,0.625-1.711,0.625c-0.709,0-1.279-0.211-1.711-0.633C9.2,6.258,8.985,5.734,8.985,5.109
			c0-0.458,0.117-0.847,0.352-1.164S9.906,3.417,10.344,3.313z M10.172,1.813c0,0.344,0.109,0.622,0.328,0.836s0.5,0.32,0.844,0.32
			s0.622-0.106,0.836-0.32c0.213-0.214,0.32-0.477,0.32-0.789c0-0.323-0.112-0.594-0.336-0.813c-0.225-0.219-0.498-0.328-0.82-0.328
			c-0.344,0-0.625,0.106-0.844,0.32S10.172,1.511,10.172,1.813z M9.891,5.125c0,0.25,0.06,0.492,0.18,0.727
			c0.119,0.234,0.297,0.417,0.531,0.547s0.486,0.195,0.758,0.195c0.416,0,0.76-0.136,1.031-0.406
			c0.271-0.271,0.406-0.614,0.406-1.031c0-0.427-0.141-0.778-0.422-1.055s-0.631-0.414-1.047-0.414
			c-0.417,0-0.761,0.136-1.031,0.406C10.026,4.364,9.891,4.708,9.891,5.125z M16.344,3.313c-0.365-0.136-0.636-0.328-0.813-0.578
			c-0.178-0.25-0.266-0.547-0.266-0.891c0-0.521,0.188-0.958,0.563-1.313S16.703,0,17.328,0s1.127,0.183,1.508,0.547
			c0.38,0.364,0.57,0.808,0.57,1.328c0,0.333-0.086,0.622-0.258,0.867s-0.436,0.435-0.789,0.57c0.438,0.136,0.771,0.364,1,0.688
			c0.229,0.323,0.344,0.703,0.344,1.141c0,0.614-0.217,1.13-0.648,1.547c-0.433,0.417-1.003,0.625-1.711,0.625
			c-0.709,0-1.279-0.211-1.711-0.633c-0.433-0.422-0.648-0.945-0.648-1.57c0-0.458,0.117-0.847,0.352-1.164
			S15.906,3.417,16.344,3.313z M16.172,1.813c0,0.344,0.109,0.622,0.328,0.836s0.5,0.32,0.844,0.32s0.622-0.106,0.836-0.32
			c0.213-0.214,0.32-0.477,0.32-0.789c0-0.323-0.112-0.594-0.336-0.813c-0.225-0.219-0.498-0.328-0.82-0.328
			c-0.344,0-0.625,0.106-0.844,0.32S16.172,1.511,16.172,1.813z M15.891,5.125c0,0.25,0.06,0.492,0.18,0.727
			c0.119,0.234,0.297,0.417,0.531,0.547s0.486,0.195,0.758,0.195c0.416,0,0.76-0.136,1.031-0.406
			c0.271-0.271,0.406-0.614,0.406-1.031c0-0.427-0.141-0.778-0.422-1.055s-0.631-0.414-1.047-0.414
			c-0.417,0-0.761,0.136-1.031,0.406C16.026,4.364,15.891,4.708,15.891,5.125z"/>
	</g>
	<g transform="translate(950.0786,543.625)">
		<path d="M0,3.656c0-0.844,0.086-1.523,0.258-2.039s0.43-0.914,0.773-1.195S1.807,0,2.328,0c0.386,0,0.722,0.078,1.008,0.234
			c0.287,0.156,0.526,0.38,0.719,0.672C4.248,1.198,4.396,1.552,4.5,1.969c0.104,0.417,0.156,0.979,0.156,1.688
			c0,0.844-0.086,1.523-0.258,2.039s-0.43,0.914-0.773,1.195S2.849,7.313,2.328,7.313c-0.688,0-1.229-0.25-1.625-0.75
			C0.234,5.969,0,5,0,3.656z M0.89,3.656c0,1.177,0.139,1.961,0.414,2.352c0.276,0.391,0.617,0.586,1.023,0.586
			s0.748-0.195,1.024-0.586c0.275-0.391,0.413-1.175,0.413-2.352S3.627,1.698,3.352,1.313c-0.276-0.386-0.623-0.578-1.04-0.578
			c-0.396,0-0.718,0.167-0.968,0.5C1.042,1.672,0.89,2.479,0.89,3.656z M6.484,7.188v-1h1v1H6.484z M9.125,5.531l0.845-0.078
			c0.072,0.396,0.21,0.685,0.413,0.867s0.461,0.273,0.773,0.273c0.271,0,0.508-0.063,0.711-0.188s0.37-0.292,0.5-0.5
			c0.131-0.208,0.24-0.487,0.328-0.836c0.089-0.349,0.133-0.706,0.133-1.07c0-0.042,0-0.104,0-0.188
			c-0.177,0.281-0.419,0.511-0.726,0.688c-0.308,0.177-0.639,0.266-0.993,0.266c-0.593,0-1.093-0.216-1.5-0.648
			C9.203,3.685,9,3.12,9,2.422C9,1.692,9.213,1.106,9.64,0.664C10.068,0.222,10.604,0,11.25,0c0.459,0,0.881,0.125,1.266,0.375
			c0.386,0.25,0.68,0.606,0.883,1.07s0.305,1.138,0.305,2.023c0,0.906-0.099,1.63-0.297,2.172c-0.197,0.542-0.494,0.956-0.891,1.242
			c-0.396,0.286-0.854,0.43-1.375,0.43c-0.563,0-1.021-0.156-1.375-0.469C9.412,6.531,9.198,6.094,9.125,5.531z M12.719,2.375
			c0-0.511-0.134-0.911-0.399-1.203s-0.586-0.438-0.961-0.438c-0.396,0-0.739,0.159-1.031,0.477C10.037,1.528,9.89,1.942,9.89,2.453
			c0,0.448,0.139,0.815,0.414,1.102c0.276,0.286,0.617,0.43,1.023,0.43s0.74-0.144,1-0.43C12.588,3.269,12.719,2.875,12.719,2.375z
			 M19.609,6.344v0.844h-4.734c0-0.208,0.037-0.411,0.109-0.609c0.125-0.323,0.318-0.641,0.578-0.953
			c0.261-0.313,0.646-0.672,1.157-1.078c0.771-0.646,1.294-1.153,1.57-1.523c0.275-0.37,0.413-0.722,0.413-1.055
			c0-0.354-0.125-0.648-0.375-0.883s-0.572-0.352-0.969-0.352c-0.427,0-0.768,0.125-1.023,0.375
			c-0.255,0.25-0.383,0.599-0.383,1.047l-0.906-0.094c0.063-0.667,0.295-1.177,0.695-1.531C16.143,0.177,16.688,0,17.375,0
			c0.688,0,1.232,0.19,1.633,0.57c0.401,0.38,0.602,0.852,0.602,1.414c0,0.292-0.06,0.575-0.18,0.852
			c-0.119,0.276-0.314,0.567-0.585,0.875c-0.271,0.308-0.725,0.727-1.36,1.258c-0.521,0.438-0.856,0.737-1.007,0.898
			c-0.151,0.161-0.274,0.32-0.368,0.477H19.609z"/>
	</g>
	<g transform="translate(1008.6214,543.625)">
		<path d="M0,3.656c0-0.844,0.086-1.523,0.258-2.039s0.43-0.914,0.773-1.195S1.807,0,2.328,0c0.386,0,0.722,0.078,1.008,0.234
			c0.287,0.156,0.526,0.38,0.719,0.672C4.248,1.198,4.396,1.552,4.5,1.969c0.104,0.417,0.156,0.979,0.156,1.688
			c0,0.844-0.086,1.523-0.258,2.039s-0.43,0.914-0.773,1.195S2.849,7.313,2.328,7.313c-0.688,0-1.229-0.25-1.625-0.75
			C0.234,5.969,0,5,0,3.656z M0.89,3.656c0,1.177,0.139,1.961,0.414,2.352c0.276,0.391,0.617,0.586,1.023,0.586
			s0.748-0.195,1.023-0.586c0.276-0.391,0.414-1.175,0.414-2.352S3.628,1.698,3.351,1.313C3.076,0.927,2.729,0.734,2.312,0.734
			c-0.396,0-0.719,0.167-0.969,0.5C1.042,1.672,0.89,2.479,0.89,3.656z M6.484,7.188v-1h1v1H6.484z M9.125,5.531l0.844-0.078
			c0.073,0.396,0.211,0.685,0.414,0.867s0.461,0.273,0.773,0.273c0.271,0,0.508-0.063,0.711-0.188s0.37-0.292,0.5-0.5
			c0.131-0.208,0.24-0.487,0.328-0.836c0.089-0.349,0.133-0.706,0.133-1.07c0-0.042,0-0.104,0-0.188
			c-0.177,0.281-0.419,0.511-0.727,0.688c-0.307,0.177-0.638,0.266-0.992,0.266c-0.594,0-1.094-0.216-1.5-0.648S9,3.12,9,2.422
			C9,1.692,9.214,1.106,9.64,0.664C10.068,0.222,10.604,0,11.25,0c0.459,0,0.881,0.125,1.266,0.375
			c0.386,0.25,0.68,0.606,0.883,1.07s0.305,1.138,0.305,2.023c0,0.906-0.099,1.63-0.297,2.172c-0.197,0.542-0.494,0.956-0.891,1.242
			c-0.396,0.286-0.854,0.43-1.375,0.43c-0.563,0-1.021-0.156-1.375-0.469C9.412,6.531,9.198,6.094,9.125,5.531z M12.718,2.375
			c0-0.511-0.133-0.911-0.398-1.203s-0.586-0.438-0.961-0.438c-0.396,0-0.739,0.159-1.031,0.477C10.037,1.528,9.89,1.942,9.89,2.453
			c0,0.448,0.139,0.815,0.414,1.102c0.276,0.286,0.617,0.43,1.023,0.43s0.74-0.144,1-0.43C12.589,3.269,12.718,2.875,12.718,2.375z
			 M17.812,7.188V5.469h-3.109V4.672l3.266-4.641h0.719v4.641h0.969v0.797h-0.969v1.719H17.812z M17.812,4.672V1.438l-2.25,3.234
			H17.812z"/>
	</g>
	<g transform="translate(1067.1643,543.625)">
		<path d="M0,3.656c0-0.844,0.086-1.523,0.258-2.039s0.43-0.914,0.773-1.195S1.807,0,2.328,0C2.714,0,3.05,0.078,3.336,0.234
			c0.287,0.156,0.526,0.38,0.719,0.672C4.248,1.198,4.396,1.552,4.5,1.969c0.104,0.417,0.156,0.979,0.156,1.688
			c0,0.844-0.086,1.523-0.258,2.039s-0.43,0.914-0.773,1.195S2.849,7.313,2.328,7.313c-0.688,0-1.229-0.25-1.625-0.75
			C0.234,5.969,0,5,0,3.656z M0.89,3.656c0,1.177,0.139,1.961,0.414,2.352c0.276,0.391,0.617,0.586,1.023,0.586
			s0.748-0.195,1.023-0.586c0.276-0.391,0.414-1.175,0.414-2.352S3.628,1.698,3.351,1.313C3.076,0.927,2.729,0.734,2.312,0.734
			c-0.396,0-0.719,0.167-0.969,0.5C1.042,1.672,0.89,2.479,0.89,3.656z M6.484,7.188v-1h1v1H6.484z M9.125,5.531l0.844-0.078
			c0.073,0.396,0.211,0.685,0.414,0.867s0.461,0.273,0.773,0.273c0.271,0,0.508-0.063,0.711-0.188s0.37-0.292,0.5-0.5
			c0.131-0.208,0.24-0.487,0.328-0.836c0.089-0.349,0.133-0.706,0.133-1.07c0-0.042,0-0.104,0-0.188
			c-0.177,0.281-0.419,0.511-0.727,0.688c-0.307,0.177-0.638,0.266-0.992,0.266c-0.594,0-1.094-0.216-1.5-0.648S9,3.12,9,2.422
			C9,1.692,9.214,1.106,9.64,0.664C10.068,0.222,10.604,0,11.25,0c0.459,0,0.881,0.125,1.266,0.375
			c0.386,0.25,0.68,0.606,0.883,1.07s0.305,1.138,0.305,2.023c0,0.906-0.099,1.63-0.297,2.172c-0.197,0.542-0.494,0.956-0.891,1.242
			c-0.396,0.286-0.854,0.43-1.375,0.43c-0.563,0-1.021-0.156-1.375-0.469C9.412,6.531,9.198,6.094,9.125,5.531z M12.719,2.375
			c0-0.511-0.133-0.911-0.398-1.203s-0.586-0.438-0.961-0.438c-0.396,0-0.739,0.159-1.031,0.477C10.037,1.528,9.89,1.942,9.89,2.453
			c0,0.448,0.139,0.815,0.414,1.102c0.276,0.286,0.617,0.43,1.023,0.43s0.74-0.144,1-0.43C12.589,3.269,12.719,2.875,12.719,2.375z
			 M19.547,1.781l-0.859,0.063C18.604,1.5,18.49,1.25,18.344,1.094c-0.239-0.25-0.531-0.375-0.875-0.375
			c-0.281,0-0.525,0.078-0.734,0.234c-0.281,0.208-0.5,0.505-0.656,0.891s-0.239,0.938-0.25,1.656
			c0.209-0.323,0.467-0.563,0.773-0.719c0.308-0.156,0.628-0.234,0.961-0.234c0.594,0,1.097,0.216,1.508,0.648
			c0.412,0.433,0.617,0.987,0.617,1.664c0,0.448-0.099,0.864-0.297,1.25C19.193,6.495,18.925,6.792,18.586,7
			c-0.338,0.208-0.721,0.313-1.148,0.313c-0.729,0-1.325-0.271-1.789-0.813c-0.463-0.542-0.695-1.427-0.695-2.656
			c0-1.386,0.256-2.396,0.766-3.031C16.167,0.271,16.765,0,17.515,0c0.573,0,1.039,0.159,1.398,0.477S19.484,1.229,19.547,1.781z
			 M15.969,4.875c0,0.302,0.063,0.591,0.188,0.867s0.305,0.487,0.539,0.633s0.477,0.219,0.727,0.219
			c0.375,0,0.695-0.151,0.961-0.453s0.398-0.708,0.398-1.219c0-0.5-0.133-0.894-0.398-1.18s-0.596-0.43-0.992-0.43
			c-0.396,0-0.731,0.144-1.008,0.43C16.107,4.028,15.969,4.406,15.969,4.875z"/>
	</g>
	<g transform="translate(1125.7071,543.625)">
		<path d="M0,3.656c0-0.844,0.086-1.523,0.258-2.039s0.43-0.914,0.773-1.195S1.807,0,2.328,0C2.714,0,3.05,0.078,3.336,0.234
			s0.526,0.38,0.719,0.672C4.248,1.198,4.396,1.552,4.5,1.969c0.104,0.417,0.156,0.979,0.156,1.688c0,0.844-0.086,1.523-0.258,2.039
			s-0.43,0.914-0.773,1.195S2.849,7.313,2.328,7.313c-0.688,0-1.229-0.25-1.625-0.75C0.234,5.969,0,5,0,3.656z M0.891,3.656
			c0,1.177,0.139,1.961,0.414,2.352c0.276,0.391,0.617,0.586,1.023,0.586s0.748-0.195,1.023-0.586
			c0.276-0.391,0.414-1.175,0.414-2.352S3.628,1.698,3.351,1.313C3.076,0.927,2.729,0.734,2.312,0.734
			c-0.396,0-0.719,0.167-0.969,0.5C1.042,1.672,0.891,2.479,0.891,3.656z M6.484,7.188v-1h1v1H6.484z M9.125,5.531l0.844-0.078
			c0.073,0.396,0.211,0.685,0.414,0.867s0.461,0.273,0.773,0.273c0.271,0,0.508-0.063,0.711-0.188s0.37-0.292,0.5-0.5
			c0.131-0.208,0.24-0.487,0.328-0.836c0.089-0.349,0.133-0.706,0.133-1.07c0-0.042,0-0.104,0-0.188
			c-0.177,0.281-0.419,0.511-0.727,0.688c-0.307,0.177-0.638,0.266-0.992,0.266c-0.594,0-1.094-0.216-1.5-0.648S9,3.12,9,2.422
			c0-0.729,0.214-1.315,0.641-1.758S10.604,0,11.25,0c0.459,0,0.881,0.125,1.266,0.375c0.386,0.25,0.68,0.606,0.883,1.07
			s0.305,1.138,0.305,2.023c0,0.906-0.099,1.63-0.297,2.172c-0.197,0.542-0.494,0.956-0.891,1.242
			c-0.396,0.286-0.854,0.43-1.375,0.43c-0.563,0-1.021-0.156-1.375-0.469C9.412,6.531,9.198,6.094,9.125,5.531z M12.719,2.375
			c0-0.511-0.133-0.911-0.398-1.203s-0.586-0.438-0.961-0.438c-0.396,0-0.739,0.159-1.031,0.477S9.891,1.942,9.891,2.453
			c0,0.448,0.139,0.815,0.414,1.102c0.276,0.286,0.617,0.43,1.023,0.43s0.74-0.144,1-0.43C12.589,3.269,12.719,2.875,12.719,2.375z
			 M16.344,3.313c-0.364-0.136-0.635-0.328-0.813-0.578c-0.177-0.25-0.266-0.547-0.266-0.891c0-0.521,0.188-0.958,0.563-1.313
			S16.703,0,17.328,0s1.128,0.183,1.508,0.547s0.57,0.808,0.57,1.328c0,0.333-0.086,0.622-0.258,0.867s-0.435,0.435-0.789,0.57
			c0.438,0.136,0.771,0.364,1,0.688c0.229,0.323,0.344,0.703,0.344,1.141c0,0.614-0.216,1.13-0.648,1.547s-1.002,0.625-1.711,0.625
			c-0.708,0-1.278-0.211-1.711-0.633c-0.432-0.422-0.648-0.945-0.648-1.57c0-0.458,0.117-0.847,0.352-1.164
			S15.906,3.417,16.344,3.313z M16.172,1.813c0,0.344,0.109,0.622,0.328,0.836s0.5,0.32,0.844,0.32s0.623-0.106,0.836-0.32
			c0.214-0.214,0.32-0.477,0.32-0.789c0-0.323-0.111-0.594-0.336-0.813c-0.224-0.219-0.497-0.328-0.82-0.328
			c-0.344,0-0.625,0.106-0.844,0.32S16.172,1.511,16.172,1.813z M15.891,5.125c0,0.25,0.061,0.492,0.18,0.727
			c0.12,0.234,0.297,0.417,0.531,0.547s0.487,0.195,0.758,0.195c0.417,0,0.761-0.136,1.031-0.406
			c0.271-0.271,0.406-0.614,0.406-1.031c0-0.427-0.141-0.778-0.422-1.055s-0.63-0.414-1.047-0.414s-0.76,0.136-1.031,0.406
			C16.026,4.364,15.891,4.708,15.891,5.125z"/>
	</g>
	<g>
		<path fill="none" stroke="#000000" stroke-width="2" stroke-linecap="square" stroke-miterlimit="10" d="M200.021,534.625v6"/>
		<path fill="none" stroke="#000000" stroke-width="2" stroke-linecap="square" stroke-miterlimit="10" d="M258.564,534.625v6"/>
		<path fill="none" stroke="#000000" stroke-width="2" stroke-linecap="square" stroke-miterlimit="10" d="M317.107,534.625v6"/>
		<path fill="none" stroke="#000000" stroke-width="2" stroke-linecap="square" stroke-miterlimit="10" d="M375.65,534.625v6"/>
		<path fill="none" stroke="#000000" stroke-width="2" stroke-linecap="square" stroke-miterlimit="10" d="M434.193,534.625v6"/>
		<path fill="none" stroke="#000000" stroke-width="2" stroke-linecap="square" stroke-miterlimit="10" d="M492.735,534.625v6"/>
		<path fill="none" stroke="#000000" stroke-width="2" stroke-linecap="square" stroke-miterlimit="10" d="M551.278,534.625v6"/>
		<path fill="none" stroke="#000000" stroke-width="2" stroke-linecap="square" stroke-miterlimit="10" d="M609.821,534.625v6"/>
		<path fill="none" stroke="#000000" stroke-width="2" stroke-linecap="square" stroke-miterlimit="10" d="M668.364,534.625v6"/>
		<path fill="none" stroke="#000000" stroke-width="2" stroke-linecap="square" stroke-miterlimit="10" d="M726.907,534.625v6"/>
		<path fill="none" stroke="#000000" stroke-width="2" stroke-linecap="square" stroke-miterlimit="10" d="M785.45,534.625v6"/>
		<path fill="none" stroke="#000000" stroke-width="2" stroke-linecap="square" stroke-miterlimit="10" d="M843.993,534.625v6"/>
		<path fill="none" stroke="#000000" stroke-width="2" stroke-linecap="square" stroke-miterlimit="10" d="M902.536,534.625v6"/>
		<path fill="none" stroke="#000000" stroke-width="2" stroke-linecap="square" stroke-miterlimit="10" d="M961.078,534.625v6"/>
		<path fill="none" stroke="#000000" stroke-width="2" stroke-linecap="square" stroke-miterlimit="10" d="M1019.621,534.625v6"/>
		<path fill="none" stroke="#000000" stroke-width="2" stroke-linecap="square" stroke-miterlimit="10" d="M1078.164,534.625v6"/>
		<path fill="none" stroke="#000000" stroke-width="2" stroke-linecap="square" stroke-miterlimit="10" d="M1136.707,534.625v6"/>
		<path fill="none" stroke="#000000" stroke-width="2" stroke-linecap="square" stroke-miterlimit="10" d="M170.75,534.625v3"/>
		<path fill="none" stroke="#000000" stroke-width="2" stroke-linecap="square" stroke-miterlimit="10" d="M200.021,534.625v3"/>
		<path fill="none" stroke="#000000" stroke-width="2" stroke-linecap="square" stroke-miterlimit="10" d="M229.293,534.625v3"/>
		<path fill="none" stroke="#000000" stroke-width="2" stroke-linecap="square" stroke-miterlimit="10" d="M258.564,534.625v3"/>
		<path fill="none" stroke="#000000" stroke-width="2" stroke-linecap="square" stroke-miterlimit="10" d="M287.836,534.625v3"/>
		<path fill="none" stroke="#000000" stroke-width="2" stroke-linecap="square" stroke-miterlimit="10" d="M317.107,534.625v3"/>
		<path fill="none" stroke="#000000" stroke-width="2" stroke-linecap="square" stroke-miterlimit="10" d="M346.378,534.625v3"/>
		<path fill="none" stroke="#000000" stroke-width="2" stroke-linecap="square" stroke-miterlimit="10" d="M375.65,534.625v3"/>
		<path fill="none" stroke="#000000" stroke-width="2" stroke-linecap="square" stroke-miterlimit="10" d="M404.922,534.625v3"/>
		<path fill="none" stroke="#000000" stroke-width="2" stroke-linecap="square" stroke-miterlimit="10" d="M434.193,534.625v3"/>
		<path fill="none" stroke="#000000" stroke-width="2" stroke-linecap="square" stroke-miterlimit="10" d="M463.464,534.625v3"/>
		<path fill="none" stroke="#000000" stroke-width="2" stroke-linecap="square" stroke-miterlimit="10" d="M492.735,534.625v3"/>
		<path fill="none" stroke="#000000" stroke-width="2" stroke-linecap="square" stroke-miterlimit="10" d="M522.007,534.625v3"/>
		<path fill="none" stroke="#000000" stroke-width="2" stroke-linecap="square" stroke-miterlimit="10" d="M551.278,534.625v3"/>
		<path fill="none" stroke="#000000" stroke-width="2" stroke-linecap="square" stroke-miterlimit="10" d="M580.55,534.625v3"/>
		<path fill="none" stroke="#000000" stroke-width="2" stroke-linecap="square" stroke-miterlimit="10" d="M609.821,534.625v3"/>
		<path fill="none" stroke="#000000" stroke-width="2" stroke-linecap="square" stroke-miterlimit="10" d="M639.093,534.625v3"/>
		<path fill="none" stroke="#000000" stroke-width="2" stroke-linecap="square" stroke-miterlimit="10" d="M668.364,534.625v3"/>
		<path fill="none" stroke="#000000" stroke-width="2" stroke-linecap="square" stroke-miterlimit="10" d="M697.636,534.625v3"/>
		<path fill="none" stroke="#000000" stroke-width="2" stroke-linecap="square" stroke-miterlimit="10" d="M726.907,534.625v3"/>
		<path fill="none" stroke="#000000" stroke-width="2" stroke-linecap="square" stroke-miterlimit="10" d="M756.179,534.625v3"/>
		<path fill="none" stroke="#000000" stroke-width="2" stroke-linecap="square" stroke-miterlimit="10" d="M785.45,534.625v3"/>
		<path fill="none" stroke="#000000" stroke-width="2" stroke-linecap="square" stroke-miterlimit="10" d="M814.722,534.625v3"/>
		<path fill="none" stroke="#000000" stroke-width="2" stroke-linecap="square" stroke-miterlimit="10" d="M843.993,534.625v3"/>
		<path fill="none" stroke="#000000" stroke-width="2" stroke-linecap="square" stroke-miterlimit="10" d="M873.265,534.625v3"/>
		<path fill="none" stroke="#000000" stroke-width="2" stroke-linecap="square" stroke-miterlimit="10" d="M902.536,534.625v3"/>
		<path fill="none" stroke="#000000" stroke-width="2" stroke-linecap="square" stroke-miterlimit="10" d="M931.807,534.625v3"/>
		<path fill="none" stroke="#000000" stroke-width="2" stroke-linecap="square" stroke-miterlimit="10" d="M961.078,534.625v3"/>
		<path fill="none" stroke="#000000" stroke-width="2" stroke-linecap="square" stroke-miterlimit="10" d="M990.35,534.625v3"/>
		<path fill="none" stroke="#000000" stroke-width="2" stroke-linecap="square" stroke-miterlimit="10" d="M1019.621,534.625v3"/>
		<path fill="none" stroke="#000000" stroke-width="2" stroke-linecap="square" stroke-miterlimit="10" d="M1048.893,534.625v3"/>
		<path fill="none" stroke="#000000" stroke-width="2" stroke-linecap="square" stroke-miterlimit="10" d="M1078.164,534.625v3"/>
		<path fill="none" stroke="#000000" stroke-width="2" stroke-linecap="square" stroke-miterlimit="10" d="M1107.436,534.625v3"/>
		<path fill="none" stroke="#000000" stroke-width="2" stroke-linecap="square" stroke-miterlimit="10" d="M1136.707,534.625v3"/>
		<path fill="none" stroke="#000000" stroke-width="2" stroke-linecap="square" stroke-miterlimit="10" d="M1165.979,534.625v3"/>
		<path fill="none" stroke="#000000" stroke-width="2" stroke-linecap="square" stroke-miterlimit="10" d="M1195.25,534.625H170.75"
			/>
		<path d="M154.75,533.781c0-0.844,0.086-1.523,0.258-2.039s0.43-0.914,0.773-1.195s0.776-0.422,1.297-0.422
			c0.385,0,0.721,0.078,1.008,0.234s0.526,0.38,0.719,0.672s0.341,0.646,0.445,1.063s0.156,0.979,0.156,1.688
			c0,0.844-0.086,1.523-0.258,2.039s-0.43,0.914-0.773,1.195s-0.776,0.422-1.297,0.422c-0.688,0-1.229-0.25-1.625-0.75
			C154.984,536.094,154.75,535.125,154.75,533.781z M155.641,533.781c0,1.177,0.138,1.961,0.414,2.352s0.617,0.586,1.023,0.586
			s0.748-0.195,1.023-0.586s0.414-1.175,0.414-2.352s-0.138-1.958-0.414-2.344s-0.623-0.578-1.039-0.578
			c-0.396,0-0.719,0.167-0.969,0.5C155.792,531.797,155.641,532.604,155.641,533.781z"/>
	</g>
	<g transform="translate(156.75,71.875)">
		<path d="M2.625,7.188H1.75V1.594C1.542,1.792,1.266,1.992,0.922,2.195S0.271,2.547,0,2.641V1.797
			c0.49-0.229,0.919-0.508,1.289-0.836S1.917,0.313,2.063,0h0.563V7.188z"/>
	</g>
	<g transform="translate(145.75,438.475)">
		<path d="M0,3.656c0-0.844,0.086-1.523,0.258-2.039s0.43-0.914,0.773-1.195S1.807,0,2.328,0c0.385,0,0.721,0.078,1.008,0.234
			s0.526,0.381,0.719,0.672C4.248,1.198,4.396,1.552,4.5,1.968c0.104,0.417,0.156,0.979,0.156,1.688
			c0,0.844-0.086,1.523-0.258,2.039S3.969,6.609,3.625,6.89S2.849,7.312,2.328,7.312c-0.688,0-1.229-0.25-1.625-0.75
			C0.234,5.968,0,5,0,3.656z M0.891,3.656c0,1.178,0.138,1.961,0.414,2.352s0.617,0.586,1.023,0.586s0.748-0.195,1.023-0.586
			s0.414-1.174,0.414-2.352c0-1.177-0.138-1.958-0.414-2.344C3.076,0.927,2.729,0.734,2.313,0.734c-0.396,0-0.719,0.167-0.969,0.5
			C1.042,1.671,0.891,2.479,0.891,3.656z M6.484,7.187v-1h1v1H6.484z M13.609,6.343v0.844H8.875c0-0.208,0.037-0.411,0.109-0.609
			c0.125-0.322,0.318-0.641,0.578-0.953s0.646-0.672,1.156-1.078c0.771-0.646,1.294-1.153,1.57-1.523
			c0.276-0.369,0.414-0.721,0.414-1.055c0-0.354-0.125-0.648-0.375-0.883s-0.573-0.352-0.969-0.352
			c-0.427,0-0.768,0.125-1.023,0.375s-0.383,0.6-0.383,1.047L9.047,2.062c0.063-0.666,0.294-1.177,0.695-1.531
			C10.143,0.177,10.688,0,11.375,0s1.232,0.19,1.633,0.57c0.401,0.381,0.602,0.852,0.602,1.414c0,0.292-0.06,0.576-0.18,0.852
			c-0.12,0.276-0.315,0.568-0.586,0.875c-0.271,0.308-0.724,0.727-1.359,1.258c-0.521,0.438-0.857,0.737-1.008,0.898
			c-0.151,0.162-0.273,0.32-0.367,0.477H13.609z"/>
	</g>
	<g transform="translate(145.75,346.825)">
		<path d="M0,3.656c0-0.844,0.086-1.523,0.258-2.039s0.43-0.914,0.773-1.195S1.807,0,2.328,0c0.385,0,0.721,0.078,1.008,0.234
			s0.526,0.38,0.719,0.672S4.396,1.552,4.5,1.969s0.156,0.979,0.156,1.688c0,0.844-0.086,1.523-0.258,2.039S3.969,6.61,3.625,6.891
			S2.849,7.313,2.328,7.313c-0.688,0-1.229-0.25-1.625-0.75C0.234,5.969,0,5,0,3.656z M0.891,3.656c0,1.177,0.138,1.961,0.414,2.352
			s0.617,0.586,1.023,0.586s0.748-0.195,1.023-0.586s0.414-1.175,0.414-2.352c0-1.178-0.138-1.959-0.414-2.344
			C3.076,0.927,2.729,0.735,2.313,0.735c-0.396,0-0.719,0.167-0.969,0.5C1.042,1.672,0.891,2.479,0.891,3.656z M6.484,7.188v-1h1v1
			H6.484z M11.813,7.188V5.469H8.703V4.672l3.266-4.641h0.719v4.641h0.969v0.797h-0.969v1.719H11.813z M11.813,4.672V1.438
			l-2.25,3.234H11.813z"/>
	</g>
	<g transform="translate(145.75,255.175)">
		<path d="M0,3.656c0-0.844,0.086-1.523,0.258-2.039s0.43-0.914,0.773-1.195S1.807,0,2.328,0c0.385,0,0.721,0.078,1.008,0.234
			s0.526,0.38,0.719,0.672C4.248,1.198,4.396,1.552,4.5,1.969c0.104,0.417,0.156,0.979,0.156,1.688c0,0.844-0.086,1.523-0.258,2.039
			S3.969,6.609,3.625,6.89S2.849,7.312,2.328,7.312c-0.688,0-1.229-0.25-1.625-0.75C0.234,5.969,0,5,0,3.656z M0.891,3.656
			c0,1.177,0.138,1.961,0.414,2.352s0.617,0.586,1.023,0.586s0.748-0.195,1.023-0.586s0.414-1.174,0.414-2.352
			c0-1.177-0.138-1.958-0.414-2.344C3.076,0.927,2.729,0.734,2.313,0.734c-0.396,0-0.719,0.167-0.969,0.5
			C1.042,1.672,0.891,2.479,0.891,3.656z M6.484,7.187v-1h1v1H6.484z M13.547,1.781l-0.859,0.063
			C12.604,1.5,12.49,1.25,12.344,1.094c-0.24-0.25-0.531-0.375-0.875-0.375c-0.281,0-0.526,0.078-0.734,0.234
			c-0.281,0.208-0.5,0.505-0.656,0.891C9.922,2.229,9.838,2.781,9.828,3.5c0.208-0.323,0.466-0.563,0.773-0.719
			s0.627-0.234,0.961-0.234c0.594,0,1.096,0.216,1.508,0.648c0.412,0.433,0.617,0.987,0.617,1.664c0,0.448-0.099,0.865-0.297,1.25
			C13.193,6.495,12.924,6.792,12.586,7c-0.338,0.208-0.721,0.313-1.148,0.313c-0.729,0-1.326-0.271-1.789-0.813
			C9.185,5.958,8.953,5.073,8.953,3.844c0-1.385,0.255-2.396,0.766-3.031C10.167,0.271,10.766,0,11.516,0
			c0.573,0,1.039,0.159,1.398,0.477C13.273,0.794,13.484,1.229,13.547,1.781z M9.969,4.875c0,0.302,0.063,0.591,0.188,0.867
			c0.125,0.276,0.305,0.487,0.539,0.633c0.234,0.146,0.477,0.219,0.727,0.219c0.375,0,0.695-0.151,0.961-0.453
			c0.266-0.302,0.398-0.708,0.398-1.219c0-0.5-0.133-0.893-0.398-1.18c-0.266-0.286-0.596-0.43-0.992-0.43s-0.732,0.144-1.008,0.43
			C10.107,4.029,9.969,4.406,9.969,4.875z"/>
	</g>
	<g transform="translate(145.75,163.525)">
		<path d="M0,3.656c0-0.844,0.086-1.523,0.258-2.039s0.43-0.914,0.773-1.195S1.807,0,2.328,0c0.385,0,0.721,0.078,1.008,0.234
			s0.526,0.38,0.719,0.672C4.248,1.198,4.396,1.552,4.5,1.969c0.104,0.417,0.156,0.979,0.156,1.688c0,0.844-0.086,1.523-0.258,2.039
			s-0.43,0.914-0.773,1.195S2.849,7.312,2.328,7.312c-0.688,0-1.229-0.25-1.625-0.75C0.234,5.969,0,5,0,3.656z M0.891,3.656
			c0,1.177,0.138,1.961,0.414,2.352s0.617,0.586,1.023,0.586s0.748-0.195,1.023-0.586s0.414-1.174,0.414-2.352
			S3.627,1.698,3.352,1.312S2.729,0.734,2.313,0.734c-0.396,0-0.719,0.167-0.969,0.5C1.042,1.672,0.891,2.479,0.891,3.656z
			 M6.484,7.187v-1h1v1H6.484z M10.344,3.312C9.979,3.177,9.708,2.984,9.531,2.734S9.266,2.187,9.266,1.844
			c0-0.521,0.188-0.958,0.563-1.313S10.703,0,11.328,0s1.127,0.183,1.508,0.547c0.38,0.365,0.57,0.808,0.57,1.328
			c0,0.333-0.086,0.623-0.258,0.867c-0.172,0.245-0.435,0.435-0.789,0.57c0.438,0.135,0.771,0.365,1,0.688
			c0.229,0.323,0.344,0.703,0.344,1.141c0,0.615-0.216,1.13-0.648,1.547s-1.002,0.625-1.711,0.625S10.065,7.101,9.633,6.68
			s-0.648-0.945-0.648-1.57c0-0.458,0.117-0.846,0.352-1.164C9.57,3.628,9.906,3.417,10.344,3.312z M10.172,1.812
			c0,0.344,0.109,0.623,0.328,0.836c0.219,0.214,0.5,0.32,0.844,0.32s0.623-0.106,0.836-0.32c0.213-0.213,0.32-0.477,0.32-0.789
			c0-0.323-0.112-0.594-0.336-0.813s-0.498-0.328-0.82-0.328c-0.344,0-0.625,0.107-0.844,0.32
			C10.281,1.253,10.172,1.511,10.172,1.812z M9.891,5.125c0,0.25,0.06,0.492,0.18,0.727s0.297,0.417,0.531,0.547
			s0.487,0.195,0.758,0.195c0.417,0,0.76-0.135,1.031-0.406s0.406-0.615,0.406-1.031c0-0.427-0.141-0.779-0.422-1.055
			s-0.63-0.414-1.047-0.414s-0.76,0.136-1.031,0.406C10.026,4.365,9.891,4.708,9.891,5.125z"/>
	</g>
	<g transform="translate(146.75,484.3)">
		<path d="M0,3.656c0-0.844,0.086-1.523,0.258-2.039s0.43-0.914,0.773-1.195S1.807,0,2.328,0c0.385,0,0.721,0.078,1.008,0.234
			s0.526,0.381,0.719,0.672C4.248,1.198,4.396,1.553,4.5,1.969c0.104,0.417,0.156,0.979,0.156,1.688
			c0,0.844-0.086,1.523-0.258,2.039S3.969,6.609,3.625,6.89S2.849,7.312,2.328,7.312c-0.688,0-1.229-0.25-1.625-0.75
			C0.234,5.969,0,5,0,3.656z M0.891,3.656c0,1.178,0.138,1.961,0.414,2.352s0.617,0.586,1.023,0.586s0.748-0.195,1.023-0.586
			s0.414-1.174,0.414-2.352c0-1.177-0.138-1.958-0.414-2.344C3.076,0.928,2.729,0.734,2.313,0.734c-0.396,0-0.719,0.167-0.969,0.5
			C1.042,1.672,0.891,2.479,0.891,3.656z M6.484,7.187v-1h1v1H6.484z M12.297,7.187h-0.875V1.594
			c-0.208,0.198-0.484,0.398-0.828,0.602S9.943,2.547,9.672,2.64V1.797c0.49-0.229,0.919-0.508,1.289-0.836S11.588,0.312,11.734,0
			h0.563V7.187z"/>
	</g>
	<g transform="translate(145.75,392.65)">
		<path d="M0,3.657c0-0.844,0.086-1.523,0.258-2.039s0.43-0.914,0.773-1.195S1.807,0,2.328,0c0.385,0,0.721,0.078,1.008,0.234
			s0.526,0.38,0.719,0.672C4.248,1.198,4.396,1.552,4.5,1.969c0.104,0.416,0.156,0.979,0.156,1.688c0,0.844-0.086,1.523-0.258,2.039
			S3.969,6.61,3.625,6.891S2.849,7.313,2.328,7.313c-0.688,0-1.229-0.25-1.625-0.75C0.234,5.969,0,5,0,3.657z M0.891,3.657
			c0,1.177,0.138,1.961,0.414,2.352s0.617,0.586,1.023,0.586s0.748-0.195,1.023-0.586s0.414-1.175,0.414-2.352
			c0-1.178-0.138-1.959-0.414-2.344C3.076,0.927,2.729,0.735,2.313,0.735c-0.396,0-0.719,0.166-0.969,0.5
			C1.042,1.672,0.891,2.479,0.891,3.657z M6.484,7.188v-1h1v1H6.484z M9,5.297l0.875-0.109c0.104,0.489,0.276,0.846,0.516,1.07
			c0.24,0.224,0.537,0.336,0.891,0.336c0.417,0,0.766-0.144,1.047-0.43c0.281-0.287,0.422-0.644,0.422-1.07
			c0-0.406-0.13-0.74-0.391-1c-0.26-0.261-0.594-0.391-1-0.391c-0.167,0-0.375,0.031-0.625,0.094l0.094-0.766
			c0.063,0,0.109,0,0.141,0c0.375,0,0.713-0.097,1.016-0.289c0.302-0.193,0.453-0.492,0.453-0.898c0-0.323-0.109-0.592-0.328-0.805
			c-0.219-0.214-0.5-0.32-0.844-0.32s-0.63,0.106-0.859,0.32c-0.229,0.213-0.375,0.539-0.438,0.977L9.094,1.86
			C9.198,1.266,9.44,0.807,9.82,0.485C10.201,0.162,10.672,0,11.234,0c0.396,0,0.758,0.083,1.086,0.25
			c0.328,0.166,0.578,0.396,0.75,0.688c0.172,0.291,0.258,0.599,0.258,0.922c0,0.313-0.081,0.594-0.242,0.844
			s-0.409,0.453-0.742,0.609c0.427,0.094,0.758,0.294,0.992,0.602c0.234,0.307,0.352,0.695,0.352,1.164
			c0,0.625-0.229,1.153-0.688,1.586c-0.458,0.432-1.031,0.648-1.719,0.648c-0.635,0-1.159-0.188-1.57-0.563S9.063,5.891,9,5.297z"/>
	</g>
	<g transform="translate(145.75,301)">
		<path d="M0,3.656c0-0.844,0.086-1.523,0.258-2.039s0.43-0.914,0.773-1.195S1.807,0,2.328,0c0.385,0,0.721,0.078,1.008,0.234
			s0.526,0.38,0.719,0.672S4.396,1.552,4.5,1.969s0.156,0.979,0.156,1.688c0,0.844-0.086,1.523-0.258,2.039s-0.43,0.914-0.773,1.195
			S2.849,7.313,2.328,7.313c-0.688,0-1.229-0.25-1.625-0.75C0.234,5.969,0,5,0,3.656z M0.891,3.656c0,1.177,0.138,1.961,0.414,2.352
			s0.617,0.586,1.023,0.586s0.748-0.195,1.023-0.586s0.414-1.174,0.414-2.352S3.627,1.698,3.352,1.313S2.729,0.734,2.313,0.734
			c-0.396,0-0.719,0.167-0.969,0.5C1.042,1.672,0.891,2.479,0.891,3.656z M6.484,7.188v-1h1v1H6.484z M9,5.313l0.922-0.078
			c0.063,0.448,0.219,0.786,0.469,1.016s0.552,0.344,0.906,0.344c0.417,0,0.773-0.161,1.07-0.484s0.445-0.745,0.445-1.266
			c0-0.5-0.141-0.896-0.422-1.188s-0.651-0.438-1.109-0.438c-0.281,0-0.537,0.065-0.766,0.195s-0.412,0.294-0.547,0.492L9.156,3.797
			l0.688-3.672h3.563v0.844h-2.859l-0.391,1.922c0.438-0.302,0.891-0.453,1.359-0.453c0.625,0,1.151,0.216,1.578,0.648
			s0.641,0.992,0.641,1.68c0,0.646-0.188,1.203-0.563,1.672c-0.458,0.583-1.083,0.875-1.875,0.875c-0.656,0-1.19-0.183-1.602-0.547
			S9.052,5.917,9,5.313z"/>
	</g>
	<g transform="translate(145.75,209.35)">
		<path d="M0,3.656c0-0.844,0.086-1.523,0.258-2.039s0.43-0.914,0.773-1.195S1.807,0,2.328,0c0.385,0,0.721,0.078,1.008,0.234
			s0.526,0.38,0.719,0.672S4.396,1.552,4.5,1.969s0.156,0.979,0.156,1.688c0,0.844-0.086,1.523-0.258,2.039s-0.43,0.914-0.773,1.195
			S2.849,7.313,2.328,7.313c-0.688,0-1.229-0.25-1.625-0.75C0.234,5.969,0,5,0,3.656z M0.891,3.656c0,1.177,0.138,1.961,0.414,2.352
			s0.617,0.586,1.023,0.586s0.748-0.195,1.023-0.586s0.414-1.174,0.414-2.352S3.627,1.698,3.352,1.313S2.729,0.734,2.313,0.734
			c-0.396,0-0.719,0.167-0.969,0.5C1.042,1.672,0.891,2.479,0.891,3.656z M6.484,7.188v-1h1v1H6.484z M9.047,0.969V0.125h4.641
			v0.688c-0.458,0.479-0.912,1.12-1.359,1.922s-0.792,1.63-1.031,2.484c-0.177,0.604-0.292,1.26-0.344,1.969h-0.906
			c0.01-0.563,0.123-1.242,0.336-2.039s0.518-1.565,0.914-2.305s0.818-1.365,1.266-1.875H9.047z"/>
	</g>
	<g transform="translate(145.75,117.7)">
		<path d="M0,3.656c0-0.844,0.086-1.523,0.258-2.039s0.43-0.914,0.773-1.195S1.807,0,2.328,0c0.385,0,0.721,0.078,1.008,0.234
			s0.526,0.38,0.719,0.672C4.248,1.198,4.396,1.552,4.5,1.969c0.104,0.417,0.156,0.979,0.156,1.688c0,0.844-0.086,1.523-0.258,2.039
			S3.969,6.61,3.625,6.891S2.849,7.313,2.328,7.313c-0.688,0-1.229-0.25-1.625-0.75C0.234,5.969,0,5,0,3.656z M0.891,3.656
			c0,1.177,0.138,1.961,0.414,2.352s0.617,0.586,1.023,0.586s0.748-0.195,1.023-0.586s0.414-1.175,0.414-2.352
			c0-1.177-0.138-1.958-0.414-2.344C3.076,0.927,2.729,0.735,2.313,0.735c-0.396,0-0.719,0.167-0.969,0.5
			C1.042,1.672,0.891,2.479,0.891,3.656z M6.484,7.188v-1h1v1H6.484z M9.125,5.531l0.844-0.078c0.073,0.396,0.211,0.685,0.414,0.867
			c0.203,0.182,0.461,0.273,0.773,0.273c0.271,0,0.508-0.063,0.711-0.188s0.37-0.292,0.5-0.5c0.13-0.208,0.24-0.487,0.328-0.836
			c0.088-0.349,0.133-0.706,0.133-1.07c0-0.042,0-0.104,0-0.188c-0.177,0.281-0.419,0.51-0.727,0.688
			c-0.307,0.177-0.638,0.266-0.992,0.266c-0.594,0-1.094-0.216-1.5-0.648C9.203,3.685,9,3.12,9,2.422
			c0-0.729,0.213-1.315,0.641-1.758C10.068,0.221,10.604,0,11.25,0c0.458,0,0.88,0.125,1.266,0.375s0.68,0.606,0.883,1.07
			c0.203,0.463,0.305,1.138,0.305,2.023c0,0.906-0.099,1.63-0.297,2.172c-0.198,0.542-0.495,0.956-0.891,1.242
			c-0.396,0.286-0.854,0.43-1.375,0.43c-0.563,0-1.021-0.156-1.375-0.469S9.198,6.094,9.125,5.531z M12.719,2.375
			c0-0.511-0.133-0.912-0.398-1.203c-0.266-0.292-0.586-0.438-0.961-0.438c-0.396,0-0.74,0.159-1.031,0.477
			c-0.292,0.317-0.438,0.731-0.438,1.242c0,0.448,0.138,0.815,0.414,1.102c0.276,0.286,0.617,0.43,1.023,0.43s0.74-0.144,1-0.43
			C12.588,3.268,12.719,2.875,12.719,2.375z"/>
	</g>
	<g transform="translate(139.75,507.2125)">
		<path d="M0,3.657c0-0.844,0.086-1.523,0.258-2.039s0.43-0.914,0.773-1.195S1.807,0,2.328,0c0.385,0,0.721,0.078,1.008,0.234
			s0.526,0.38,0.719,0.672C4.248,1.198,4.396,1.552,4.5,1.969c0.104,0.416,0.156,0.979,0.156,1.688c0,0.844-0.086,1.523-0.258,2.039
			S3.969,6.61,3.625,6.891S2.849,7.313,2.328,7.313c-0.688,0-1.229-0.25-1.625-0.75C0.234,5.969,0,5,0,3.657z M0.891,3.657
			c0,1.177,0.138,1.961,0.414,2.352s0.617,0.586,1.023,0.586s0.748-0.195,1.023-0.586s0.414-1.175,0.414-2.352
			c0-1.178-0.138-1.959-0.414-2.344C3.076,0.927,2.729,0.735,2.313,0.735c-0.396,0-0.719,0.166-0.969,0.5
			C1.042,1.672,0.891,2.479,0.891,3.657z M6.484,7.188v-1h1v1H6.484z M9,3.657c0-0.844,0.086-1.523,0.258-2.039
			s0.43-0.914,0.773-1.195S10.807,0,11.328,0c0.385,0,0.721,0.078,1.008,0.234s0.526,0.38,0.719,0.672
			c0.193,0.291,0.341,0.646,0.445,1.063c0.104,0.416,0.156,0.979,0.156,1.688c0,0.844-0.086,1.523-0.258,2.039
			s-0.43,0.914-0.773,1.195s-0.776,0.422-1.297,0.422c-0.688,0-1.229-0.25-1.625-0.75C9.234,5.969,9,5,9,3.657z M9.891,3.657
			c0,1.177,0.138,1.961,0.414,2.352s0.617,0.586,1.023,0.586s0.748-0.195,1.023-0.586s0.414-1.175,0.414-2.352
			c0-1.178-0.138-1.959-0.414-2.344c-0.276-0.386-0.623-0.578-1.039-0.578c-0.396,0-0.719,0.166-0.969,0.5
			C10.042,1.672,9.891,2.479,9.891,3.657z M15,5.313l0.922-0.078c0.063,0.447,0.219,0.786,0.469,1.016
			c0.25,0.229,0.552,0.344,0.906,0.344c0.417,0,0.773-0.162,1.07-0.484c0.297-0.323,0.445-0.745,0.445-1.266
			c0-0.5-0.141-0.896-0.422-1.188c-0.281-0.292-0.651-0.438-1.109-0.438c-0.281,0-0.537,0.064-0.766,0.195
			c-0.229,0.13-0.412,0.294-0.547,0.492l-0.813-0.109l0.688-3.672h3.563v0.844h-2.859l-0.391,1.922
			c0.438-0.303,0.891-0.453,1.359-0.453c0.625,0,1.151,0.216,1.578,0.648c0.427,0.432,0.641,0.992,0.641,1.68
			c0,0.646-0.188,1.203-0.563,1.672c-0.458,0.583-1.083,0.875-1.875,0.875c-0.656,0-1.19-0.183-1.602-0.547
			C15.284,6.401,15.052,5.916,15,5.313z"/>
	</g>
	<g transform="translate(139.75,461.3875)">
		<path d="M0,3.656c0-0.844,0.086-1.523,0.258-2.039s0.43-0.914,0.773-1.195S1.807,0,2.328,0c0.385,0,0.721,0.078,1.008,0.234
			s0.526,0.38,0.719,0.672S4.396,1.552,4.5,1.969s0.156,0.979,0.156,1.688c0,0.844-0.086,1.523-0.258,2.039S3.969,6.61,3.625,6.891
			S2.849,7.313,2.328,7.313c-0.688,0-1.229-0.25-1.625-0.75C0.234,5.969,0,5,0,3.656z M0.891,3.656c0,1.177,0.138,1.961,0.414,2.352
			s0.617,0.586,1.023,0.586s0.748-0.195,1.023-0.586s0.414-1.175,0.414-2.352c0-1.178-0.138-1.959-0.414-2.344
			C3.076,0.927,2.729,0.735,2.313,0.735c-0.396,0-0.719,0.167-0.969,0.5C1.042,1.672,0.891,2.479,0.891,3.656z M6.484,7.188v-1h1v1
			H6.484z M12.297,7.188h-0.875V1.594c-0.208,0.197-0.484,0.398-0.828,0.602S9.943,2.547,9.672,2.641V1.797
			c0.49-0.229,0.919-0.508,1.289-0.836S11.588,0.313,11.734,0h0.563V7.188z M15,5.313l0.922-0.078
			c0.063,0.447,0.219,0.786,0.469,1.016s0.552,0.344,0.906,0.344c0.417,0,0.773-0.161,1.07-0.484s0.445-0.745,0.445-1.266
			c0-0.5-0.141-0.896-0.422-1.188s-0.651-0.438-1.109-0.438c-0.281,0-0.537,0.065-0.766,0.195s-0.412,0.294-0.547,0.492
			l-0.813-0.109l0.688-3.672h3.563v0.844h-2.859l-0.391,1.922c0.438-0.303,0.891-0.453,1.359-0.453c0.625,0,1.151,0.216,1.578,0.648
			c0.427,0.432,0.641,0.992,0.641,1.68c0,0.646-0.188,1.203-0.563,1.672c-0.458,0.583-1.083,0.875-1.875,0.875
			c-0.656,0-1.19-0.183-1.602-0.547S15.052,5.917,15,5.313z"/>
	</g>
	<g transform="translate(139.75,415.5625)">
		<path d="M0,3.656c0-0.844,0.086-1.523,0.258-2.039s0.43-0.914,0.773-1.195S1.807,0,2.328,0c0.385,0,0.721,0.078,1.008,0.234
			s0.526,0.38,0.719,0.672S4.396,1.552,4.5,1.969s0.156,0.979,0.156,1.688c0,0.844-0.086,1.523-0.258,2.039s-0.43,0.914-0.773,1.195
			S2.849,7.313,2.328,7.313c-0.688,0-1.229-0.25-1.625-0.75C0.234,5.969,0,5,0,3.656z M0.891,3.656c0,1.177,0.138,1.961,0.414,2.352
			s0.617,0.586,1.023,0.586s0.748-0.195,1.023-0.586s0.414-1.175,0.414-2.352S3.627,1.698,3.352,1.313S2.729,0.734,2.313,0.734
			c-0.396,0-0.719,0.167-0.969,0.5C1.042,1.672,0.891,2.479,0.891,3.656z M6.484,7.188v-1h1v1H6.484z M13.609,6.344v0.844H8.875
			c0-0.208,0.037-0.411,0.109-0.609c0.125-0.323,0.318-0.641,0.578-0.953s0.646-0.672,1.156-1.078
			c0.771-0.646,1.294-1.153,1.57-1.523s0.414-0.722,0.414-1.055c0-0.354-0.125-0.648-0.375-0.883s-0.573-0.352-0.969-0.352
			c-0.427,0-0.768,0.125-1.023,0.375S9.953,1.708,9.953,2.156L9.047,2.063c0.063-0.667,0.294-1.177,0.695-1.531S10.688,0,11.375,0
			s1.232,0.19,1.633,0.57s0.602,0.852,0.602,1.414c0,0.292-0.06,0.575-0.18,0.852s-0.315,0.567-0.586,0.875
			s-0.724,0.727-1.359,1.258c-0.521,0.438-0.857,0.737-1.008,0.898s-0.273,0.32-0.367,0.477H13.609z M15,5.313l0.922-0.078
			c0.063,0.448,0.219,0.786,0.469,1.016s0.552,0.344,0.906,0.344c0.417,0,0.773-0.161,1.07-0.484s0.445-0.745,0.445-1.266
			c0-0.5-0.141-0.896-0.422-1.188s-0.651-0.438-1.109-0.438c-0.281,0-0.537,0.065-0.766,0.195s-0.412,0.294-0.547,0.492
			l-0.813-0.109l0.688-3.672h3.563v0.844h-2.859l-0.391,1.922c0.438-0.302,0.891-0.453,1.359-0.453c0.625,0,1.151,0.216,1.578,0.648
			s0.641,0.992,0.641,1.68c0,0.646-0.188,1.203-0.563,1.672c-0.458,0.583-1.083,0.875-1.875,0.875c-0.656,0-1.19-0.183-1.602-0.547
			S15.052,5.917,15,5.313z"/>
	</g>
	<g transform="translate(139.75,369.7375)">
		<path d="M0,3.656c0-0.844,0.086-1.523,0.258-2.039s0.43-0.914,0.773-1.195S1.807,0,2.328,0c0.385,0,0.721,0.078,1.008,0.234
			s0.526,0.381,0.719,0.672C4.248,1.198,4.396,1.553,4.5,1.969c0.104,0.417,0.156,0.979,0.156,1.688
			c0,0.844-0.086,1.523-0.258,2.039S3.969,6.609,3.625,6.89S2.849,7.312,2.328,7.312c-0.688,0-1.229-0.25-1.625-0.75
			C0.234,5.969,0,5,0,3.656z M0.891,3.656c0,1.178,0.138,1.961,0.414,2.352s0.617,0.586,1.023,0.586s0.748-0.195,1.023-0.586
			s0.414-1.174,0.414-2.352c0-1.177-0.138-1.958-0.414-2.344C3.076,0.928,2.729,0.734,2.313,0.734c-0.396,0-0.719,0.167-0.969,0.5
			C1.042,1.672,0.891,2.479,0.891,3.656z M6.484,7.187v-1h1v1H6.484z M9,5.297l0.875-0.109c0.104,0.49,0.276,0.847,0.516,1.07
			c0.24,0.225,0.537,0.336,0.891,0.336c0.417,0,0.766-0.143,1.047-0.43c0.281-0.286,0.422-0.643,0.422-1.07
			c0-0.406-0.13-0.739-0.391-1c-0.26-0.26-0.594-0.391-1-0.391c-0.167,0-0.375,0.031-0.625,0.094l0.094-0.766
			c0.063,0,0.109,0,0.141,0c0.375,0,0.713-0.097,1.016-0.289s0.453-0.492,0.453-0.898c0-0.322-0.109-0.591-0.328-0.805
			c-0.219-0.213-0.5-0.32-0.844-0.32s-0.63,0.107-0.859,0.32c-0.229,0.214-0.375,0.539-0.438,0.977L9.094,1.859
			C9.198,1.265,9.44,0.807,9.82,0.484C10.201,0.162,10.672,0,11.234,0c0.396,0,0.758,0.084,1.086,0.25
			c0.328,0.167,0.578,0.396,0.75,0.688c0.172,0.292,0.258,0.6,0.258,0.922c0,0.313-0.081,0.594-0.242,0.844
			s-0.409,0.453-0.742,0.609c0.427,0.094,0.758,0.295,0.992,0.602c0.234,0.308,0.352,0.695,0.352,1.164
			c0,0.625-0.229,1.154-0.688,1.586c-0.458,0.433-1.031,0.648-1.719,0.648c-0.635,0-1.159-0.188-1.57-0.563S9.063,5.89,9,5.297z
			 M15,5.312l0.922-0.078c0.063,0.448,0.219,0.786,0.469,1.016s0.552,0.344,0.906,0.344c0.417,0,0.773-0.161,1.07-0.484
			c0.297-0.322,0.445-0.744,0.445-1.266c0-0.5-0.141-0.896-0.422-1.188c-0.281-0.291-0.651-0.438-1.109-0.438
			c-0.281,0-0.537,0.065-0.766,0.195c-0.229,0.131-0.412,0.295-0.547,0.492l-0.813-0.109l0.688-3.672h3.563v0.844h-2.859
			L16.156,2.89c0.438-0.302,0.891-0.453,1.359-0.453c0.625,0,1.151,0.217,1.578,0.648c0.427,0.433,0.641,0.992,0.641,1.68
			c0,0.646-0.188,1.203-0.563,1.672c-0.458,0.584-1.083,0.875-1.875,0.875c-0.656,0-1.19-0.182-1.602-0.547
			C15.284,6.401,15.052,5.917,15,5.312z"/>
	</g>
	<g transform="translate(139.75,323.9125)">
		<path d="M0,3.656c0-0.844,0.086-1.523,0.258-2.039s0.43-0.914,0.773-1.195S1.807,0,2.328,0c0.385,0,0.721,0.078,1.008,0.234
			s0.526,0.381,0.719,0.672C4.248,1.198,4.396,1.552,4.5,1.968c0.104,0.417,0.156,0.979,0.156,1.688
			c0,0.844-0.086,1.523-0.258,2.039S3.969,6.609,3.625,6.89S2.849,7.312,2.328,7.312c-0.688,0-1.229-0.25-1.625-0.75
			C0.234,5.968,0,5,0,3.656z M0.891,3.656c0,1.178,0.138,1.961,0.414,2.352s0.617,0.586,1.023,0.586s0.748-0.195,1.023-0.586
			s0.414-1.174,0.414-2.352c0-1.177-0.138-1.958-0.414-2.344C3.076,0.927,2.729,0.734,2.313,0.734c-0.396,0-0.719,0.167-0.969,0.5
			C1.042,1.671,0.891,2.479,0.891,3.656z M6.484,7.187v-1h1v1H6.484z M11.813,7.187V5.468H8.703V4.671l3.266-4.641h0.719v4.641
			h0.969v0.797h-0.969v1.719H11.813z M11.813,4.671V1.437l-2.25,3.234H11.813z M15,5.312l0.922-0.078
			c0.063,0.448,0.219,0.787,0.469,1.016c0.25,0.229,0.552,0.344,0.906,0.344c0.417,0,0.773-0.161,1.07-0.484
			c0.297-0.322,0.445-0.744,0.445-1.266c0-0.5-0.141-0.896-0.422-1.188c-0.281-0.291-0.651-0.438-1.109-0.438
			c-0.281,0-0.537,0.065-0.766,0.195c-0.229,0.131-0.412,0.295-0.547,0.492l-0.813-0.109l0.688-3.672h3.563v0.844h-2.859
			L16.156,2.89c0.438-0.302,0.891-0.453,1.359-0.453c0.625,0,1.151,0.217,1.578,0.648c0.427,0.433,0.641,0.992,0.641,1.68
			c0,0.646-0.188,1.203-0.563,1.672c-0.458,0.584-1.083,0.875-1.875,0.875c-0.656,0-1.19-0.182-1.602-0.547
			C15.284,6.401,15.052,5.917,15,5.312z"/>
	</g>
	<g transform="translate(139.75,278.0875)">
		<path d="M0,3.656c0-0.844,0.086-1.523,0.258-2.039s0.43-0.914,0.773-1.195S1.807,0,2.328,0c0.385,0,0.721,0.078,1.008,0.234
			s0.526,0.38,0.719,0.672C4.248,1.198,4.396,1.552,4.5,1.969c0.104,0.417,0.156,0.979,0.156,1.688c0,0.844-0.086,1.523-0.258,2.039
			s-0.43,0.914-0.773,1.195S2.849,7.312,2.328,7.312c-0.688,0-1.229-0.25-1.625-0.75C0.234,5.969,0,5,0,3.656z M0.891,3.656
			c0,1.177,0.138,1.961,0.414,2.352s0.617,0.586,1.023,0.586s0.748-0.195,1.023-0.586s0.414-1.174,0.414-2.352
			S3.627,1.698,3.352,1.312S2.729,0.734,2.313,0.734c-0.396,0-0.719,0.167-0.969,0.5C1.042,1.672,0.891,2.479,0.891,3.656z
			 M6.484,7.187v-1h1v1H6.484z M9,5.312l0.922-0.078c0.063,0.448,0.219,0.787,0.469,1.016c0.25,0.229,0.552,0.344,0.906,0.344
			c0.417,0,0.773-0.161,1.07-0.484c0.297-0.323,0.445-0.745,0.445-1.266c0-0.5-0.141-0.896-0.422-1.188
			c-0.281-0.292-0.651-0.438-1.109-0.438c-0.281,0-0.537,0.065-0.766,0.195c-0.229,0.13-0.412,0.294-0.547,0.492L9.156,3.797
			l0.688-3.672h3.563v0.844h-2.859l-0.391,1.922c0.438-0.302,0.891-0.453,1.359-0.453c0.625,0,1.151,0.216,1.578,0.648
			s0.641,0.992,0.641,1.68c0,0.646-0.188,1.203-0.563,1.672c-0.458,0.583-1.083,0.875-1.875,0.875c-0.656,0-1.19-0.182-1.602-0.547
			C9.284,6.401,9.052,5.917,9,5.312z M15,5.312l0.922-0.078c0.063,0.448,0.219,0.787,0.469,1.016
			c0.25,0.229,0.552,0.344,0.906,0.344c0.417,0,0.773-0.161,1.07-0.484c0.297-0.323,0.445-0.745,0.445-1.266
			c0-0.5-0.141-0.896-0.422-1.188c-0.281-0.292-0.651-0.438-1.109-0.438c-0.281,0-0.537,0.065-0.766,0.195
			c-0.229,0.13-0.412,0.294-0.547,0.492l-0.813-0.109l0.688-3.672h3.563v0.844h-2.859l-0.391,1.922
			c0.438-0.302,0.891-0.453,1.359-0.453c0.625,0,1.151,0.216,1.578,0.648s0.641,0.992,0.641,1.68c0,0.646-0.188,1.203-0.563,1.672
			c-0.458,0.583-1.083,0.875-1.875,0.875c-0.656,0-1.19-0.182-1.602-0.547C15.284,6.401,15.052,5.917,15,5.312z"/>
	</g>
	<g transform="translate(139.75,232.2625)">
		<path d="M0,3.656c0-0.844,0.086-1.523,0.258-2.039s0.43-0.914,0.773-1.195S1.807,0,2.328,0c0.385,0,0.721,0.078,1.008,0.234
			s0.526,0.38,0.719,0.672C4.248,1.198,4.396,1.552,4.5,1.969c0.104,0.417,0.156,0.979,0.156,1.688c0,0.844-0.086,1.523-0.258,2.039
			S3.969,6.61,3.625,6.891S2.849,7.313,2.328,7.313c-0.688,0-1.229-0.25-1.625-0.75C0.234,5.969,0,5,0,3.656z M0.891,3.656
			c0,1.177,0.138,1.961,0.414,2.352s0.617,0.586,1.023,0.586s0.748-0.195,1.023-0.586s0.414-1.175,0.414-2.352
			c0-1.177-0.138-1.958-0.414-2.344C3.076,0.927,2.729,0.735,2.313,0.735c-0.396,0-0.719,0.167-0.969,0.5
			C1.042,1.672,0.891,2.479,0.891,3.656z M6.484,7.188v-1h1v1H6.484z M13.547,1.781l-0.859,0.063
			C12.604,1.5,12.49,1.25,12.344,1.094c-0.24-0.25-0.531-0.375-0.875-0.375c-0.281,0-0.526,0.078-0.734,0.234
			c-0.281,0.208-0.5,0.505-0.656,0.891C9.922,2.229,9.838,2.781,9.828,3.5c0.208-0.323,0.466-0.563,0.773-0.719
			s0.627-0.234,0.961-0.234c0.594,0,1.096,0.216,1.508,0.648c0.412,0.432,0.617,0.987,0.617,1.664c0,0.448-0.099,0.864-0.297,1.25
			C13.193,6.495,12.924,6.792,12.586,7c-0.338,0.208-0.721,0.313-1.148,0.313c-0.729,0-1.326-0.271-1.789-0.813
			C9.185,5.958,8.953,5.073,8.953,3.844c0-1.386,0.255-2.396,0.766-3.031C10.167,0.271,10.766,0,11.516,0
			c0.573,0,1.039,0.159,1.398,0.477C13.273,0.794,13.484,1.229,13.547,1.781z M9.969,4.875c0,0.302,0.063,0.591,0.188,0.867
			c0.125,0.276,0.305,0.487,0.539,0.633c0.234,0.146,0.477,0.219,0.727,0.219c0.375,0,0.695-0.151,0.961-0.453
			c0.266-0.302,0.398-0.708,0.398-1.219c0-0.5-0.133-0.894-0.398-1.18c-0.266-0.287-0.596-0.43-0.992-0.43s-0.732,0.143-1.008,0.43
			C10.107,4.029,9.969,4.406,9.969,4.875z M15,5.313l0.922-0.078c0.063,0.448,0.219,0.786,0.469,1.016
			c0.25,0.229,0.552,0.344,0.906,0.344c0.417,0,0.773-0.162,1.07-0.484c0.297-0.323,0.445-0.745,0.445-1.266
			c0-0.5-0.141-0.896-0.422-1.188c-0.281-0.292-0.651-0.438-1.109-0.438c-0.281,0-0.537,0.065-0.766,0.195
			c-0.229,0.13-0.412,0.294-0.547,0.492l-0.813-0.109l0.688-3.672h3.563v0.844h-2.859l-0.391,1.922
			c0.438-0.302,0.891-0.453,1.359-0.453c0.625,0,1.151,0.216,1.578,0.648c0.427,0.432,0.641,0.992,0.641,1.68
			c0,0.646-0.188,1.203-0.563,1.672c-0.458,0.583-1.083,0.875-1.875,0.875c-0.656,0-1.19-0.183-1.602-0.547
			C15.284,6.401,15.052,5.917,15,5.313z"/>
	</g>
	<g transform="translate(139.75,186.4375)">
		<path d="M0,3.656c0-0.844,0.086-1.523,0.258-2.039s0.43-0.914,0.773-1.195S1.807,0,2.328,0c0.385,0,0.721,0.078,1.008,0.234
			s0.526,0.38,0.719,0.672S4.396,1.552,4.5,1.969s0.156,0.979,0.156,1.688c0,0.844-0.086,1.523-0.258,2.039s-0.43,0.914-0.773,1.195
			S2.849,7.313,2.328,7.313c-0.688,0-1.229-0.25-1.625-0.75C0.234,5.969,0,5,0,3.656z M0.891,3.656c0,1.177,0.138,1.961,0.414,2.352
			s0.617,0.586,1.023,0.586s0.748-0.195,1.023-0.586s0.414-1.174,0.414-2.352S3.627,1.698,3.352,1.313S2.729,0.734,2.313,0.734
			c-0.396,0-0.719,0.167-0.969,0.5C1.042,1.672,0.891,2.479,0.891,3.656z M6.484,7.188v-1h1v1H6.484z M9.047,0.969V0.125h4.641
			v0.688c-0.458,0.479-0.912,1.12-1.359,1.922s-0.792,1.63-1.031,2.484c-0.177,0.604-0.292,1.26-0.344,1.969h-0.906
			c0.01-0.563,0.123-1.242,0.336-2.039s0.518-1.565,0.914-2.305s0.818-1.365,1.266-1.875H9.047z M15,5.313l0.922-0.078
			c0.063,0.448,0.219,0.787,0.469,1.016s0.552,0.344,0.906,0.344c0.417,0,0.773-0.162,1.07-0.484s0.445-0.745,0.445-1.266
			c0-0.5-0.141-0.896-0.422-1.188s-0.651-0.438-1.109-0.438c-0.281,0-0.537,0.065-0.766,0.195s-0.412,0.294-0.547,0.492
			l-0.813-0.109l0.688-3.672h3.563v0.844h-2.859l-0.391,1.922c0.438-0.302,0.891-0.453,1.359-0.453c0.625,0,1.151,0.216,1.578,0.648
			s0.641,0.992,0.641,1.68c0,0.646-0.188,1.203-0.563,1.672c-0.458,0.583-1.083,0.875-1.875,0.875c-0.656,0-1.19-0.182-1.602-0.547
			S15.052,5.917,15,5.313z"/>
	</g>
	<g transform="translate(139.75,140.6125)">
		<path d="M0,3.656c0-0.844,0.086-1.523,0.258-2.039s0.43-0.914,0.773-1.195S1.807,0,2.328,0c0.385,0,0.721,0.078,1.008,0.234
			s0.526,0.38,0.719,0.672C4.248,1.198,4.396,1.552,4.5,1.969c0.104,0.417,0.156,0.979,0.156,1.688c0,0.844-0.086,1.523-0.258,2.039
			S3.969,6.609,3.625,6.89S2.849,7.312,2.328,7.312c-0.688,0-1.229-0.25-1.625-0.75C0.234,5.969,0,5,0,3.656z M0.891,3.656
			c0,1.177,0.138,1.961,0.414,2.352s0.617,0.586,1.023,0.586s0.748-0.195,1.023-0.586s0.414-1.174,0.414-2.352
			c0-1.177-0.138-1.958-0.414-2.344C3.076,0.927,2.729,0.734,2.313,0.734c-0.396,0-0.719,0.167-0.969,0.5
			C1.042,1.672,0.891,2.479,0.891,3.656z M6.484,7.187v-1h1v1H6.484z M10.344,3.312C9.979,3.177,9.708,2.984,9.531,2.734
			S9.266,2.187,9.266,1.844c0-0.521,0.188-0.958,0.563-1.313C10.203,0.177,10.703,0,11.328,0s1.127,0.183,1.508,0.547
			c0.38,0.365,0.57,0.808,0.57,1.328c0,0.333-0.086,0.623-0.258,0.867c-0.172,0.245-0.435,0.435-0.789,0.57
			c0.438,0.136,0.771,0.365,1,0.688c0.229,0.323,0.344,0.703,0.344,1.141c0,0.615-0.216,1.13-0.648,1.547
			c-0.432,0.417-1.002,0.625-1.711,0.625S10.065,7.101,9.633,6.68s-0.648-0.945-0.648-1.57c0-0.458,0.117-0.846,0.352-1.164
			C9.57,3.628,9.906,3.417,10.344,3.312z M10.172,1.812c0,0.344,0.109,0.623,0.328,0.836c0.219,0.214,0.5,0.32,0.844,0.32
			s0.623-0.106,0.836-0.32c0.213-0.213,0.32-0.477,0.32-0.789c0-0.323-0.112-0.594-0.336-0.813s-0.498-0.328-0.82-0.328
			c-0.344,0-0.625,0.107-0.844,0.32C10.281,1.253,10.172,1.511,10.172,1.812z M9.891,5.125c0,0.25,0.06,0.492,0.18,0.727
			s0.297,0.417,0.531,0.547c0.234,0.13,0.487,0.195,0.758,0.195c0.417,0,0.76-0.135,1.031-0.406
			c0.271-0.271,0.406-0.614,0.406-1.031c0-0.427-0.141-0.778-0.422-1.055c-0.281-0.276-0.63-0.414-1.047-0.414
			s-0.76,0.136-1.031,0.406C10.026,4.365,9.891,4.708,9.891,5.125z M15,5.312l0.922-0.078c0.063,0.448,0.219,0.787,0.469,1.016
			c0.25,0.229,0.552,0.344,0.906,0.344c0.417,0,0.773-0.161,1.07-0.484c0.297-0.323,0.445-0.745,0.445-1.266
			c0-0.5-0.141-0.896-0.422-1.188c-0.281-0.292-0.651-0.438-1.109-0.438c-0.281,0-0.537,0.065-0.766,0.195
			c-0.229,0.13-0.412,0.294-0.547,0.492l-0.813-0.109l0.688-3.672h3.563v0.844h-2.859L16.156,2.89
			c0.438-0.302,0.891-0.453,1.359-0.453c0.625,0,1.151,0.216,1.578,0.648c0.427,0.433,0.641,0.992,0.641,1.68
			c0,0.646-0.188,1.203-0.563,1.672c-0.458,0.583-1.083,0.875-1.875,0.875c-0.656,0-1.19-0.182-1.602-0.547
			C15.284,6.401,15.052,5.917,15,5.312z"/>
	</g>
	<g transform="translate(139.75,94.7875)">
		<path d="M0,3.656c0-0.844,0.086-1.523,0.258-2.039s0.43-0.914,0.773-1.195S1.807,0,2.328,0c0.385,0,0.721,0.078,1.008,0.234
			s0.526,0.38,0.719,0.672S4.396,1.552,4.5,1.969s0.156,0.979,0.156,1.688c0,0.844-0.086,1.523-0.258,2.039s-0.43,0.914-0.773,1.195
			S2.849,7.313,2.328,7.313c-0.688,0-1.229-0.25-1.625-0.75C0.234,5.969,0,5,0,3.656z M0.891,3.656c0,1.177,0.138,1.961,0.414,2.352
			s0.617,0.586,1.023,0.586s0.748-0.195,1.023-0.586s0.414-1.175,0.414-2.352c0-1.177-0.138-1.958-0.414-2.344
			S2.729,0.734,2.313,0.734c-0.396,0-0.719,0.167-0.969,0.5C1.042,1.672,0.891,2.479,0.891,3.656z M6.484,7.188v-1h1v1H6.484z
			 M9.125,5.531l0.844-0.078c0.073,0.396,0.211,0.685,0.414,0.867c0.203,0.182,0.461,0.273,0.773,0.273
			c0.271,0,0.508-0.063,0.711-0.188s0.37-0.292,0.5-0.5c0.13-0.208,0.24-0.487,0.328-0.836S12.828,4.365,12.828,4
			c0-0.042,0-0.104,0-0.188c-0.177,0.281-0.419,0.51-0.727,0.688c-0.307,0.177-0.638,0.266-0.992,0.266
			c-0.594,0-1.094-0.216-1.5-0.648S9,3.12,9,2.422c0-0.729,0.213-1.315,0.641-1.758C10.068,0.221,10.604,0,11.25,0
			c0.458,0,0.88,0.125,1.266,0.375s0.68,0.606,0.883,1.07c0.203,0.463,0.305,1.138,0.305,2.023c0,0.906-0.099,1.63-0.297,2.172
			c-0.198,0.542-0.495,0.956-0.891,1.242c-0.396,0.286-0.854,0.43-1.375,0.43c-0.563,0-1.021-0.156-1.375-0.469
			S9.198,6.094,9.125,5.531z M12.719,2.375c0-0.51-0.133-0.912-0.398-1.203s-0.586-0.438-0.961-0.438
			c-0.396,0-0.74,0.159-1.031,0.477c-0.292,0.317-0.438,0.731-0.438,1.242c0,0.448,0.138,0.815,0.414,1.102s0.617,0.43,1.023,0.43
			s0.74-0.143,1-0.43S12.719,2.875,12.719,2.375z M15,5.313l0.922-0.078c0.063,0.448,0.219,0.786,0.469,1.016
			c0.25,0.229,0.552,0.344,0.906,0.344c0.417,0,0.773-0.162,1.07-0.484c0.297-0.323,0.445-0.745,0.445-1.266
			c0-0.5-0.141-0.896-0.422-1.188s-0.651-0.438-1.109-0.438c-0.281,0-0.537,0.065-0.766,0.195s-0.412,0.294-0.547,0.492
			l-0.813-0.109l0.688-3.672h3.563v0.844h-2.859l-0.391,1.922c0.438-0.302,0.891-0.453,1.359-0.453c0.625,0,1.151,0.216,1.578,0.648
			c0.427,0.432,0.641,0.992,0.641,1.68c0,0.646-0.188,1.203-0.563,1.672c-0.458,0.583-1.083,0.875-1.875,0.875
			c-0.656,0-1.19-0.183-1.602-0.547C15.284,6.401,15.052,5.917,15,5.313z"/>
	</g>
	<g>
		<path fill="none" stroke="#000000" stroke-width="2" stroke-linecap="square" stroke-miterlimit="10" d="M170.75,534.625h-6"/>
		<path fill="none" stroke="#000000" stroke-width="2" stroke-linecap="square" stroke-miterlimit="10" d="M170.75,511.713h-6"/>
		<path fill="none" stroke="#000000" stroke-width="2" stroke-linecap="square" stroke-miterlimit="10" d="M170.75,488.8h-6"/>
		<path fill="none" stroke="#000000" stroke-width="2" stroke-linecap="square" stroke-miterlimit="10" d="M170.75,465.888h-6"/>
		<path fill="none" stroke="#000000" stroke-width="2" stroke-linecap="square" stroke-miterlimit="10" d="M170.75,442.975h-6"/>
		<path fill="none" stroke="#000000" stroke-width="2" stroke-linecap="square" stroke-miterlimit="10" d="M170.75,420.063h-6"/>
		<path fill="none" stroke="#000000" stroke-width="2" stroke-linecap="square" stroke-miterlimit="10" d="M170.75,397.15h-6"/>
		<path fill="none" stroke="#000000" stroke-width="2" stroke-linecap="square" stroke-miterlimit="10" d="M170.75,374.237h-6"/>
		<path fill="none" stroke="#000000" stroke-width="2" stroke-linecap="square" stroke-miterlimit="10" d="M170.75,351.325h-6"/>
		<path fill="none" stroke="#000000" stroke-width="2" stroke-linecap="square" stroke-miterlimit="10" d="M170.75,328.412h-6"/>
		<path fill="none" stroke="#000000" stroke-width="2" stroke-linecap="square" stroke-miterlimit="10" d="M170.75,305.5h-6"/>
		<path fill="none" stroke="#000000" stroke-width="2" stroke-linecap="square" stroke-miterlimit="10" d="M170.75,282.587h-6"/>
		<path fill="none" stroke="#000000" stroke-width="2" stroke-linecap="square" stroke-miterlimit="10" d="M170.75,259.675h-6"/>
		<path fill="none" stroke="#000000" stroke-width="2" stroke-linecap="square" stroke-miterlimit="10" d="M170.75,236.763h-6"/>
		<path fill="none" stroke="#000000" stroke-width="2" stroke-linecap="square" stroke-miterlimit="10" d="M170.75,213.85h-6"/>
		<path fill="none" stroke="#000000" stroke-width="2" stroke-linecap="square" stroke-miterlimit="10" d="M170.75,190.938h-6"/>
		<path fill="none" stroke="#000000" stroke-width="2" stroke-linecap="square" stroke-miterlimit="10" d="M170.75,168.025h-6"/>
		<path fill="none" stroke="#000000" stroke-width="2" stroke-linecap="square" stroke-miterlimit="10" d="M170.75,145.112h-6"/>
		<path fill="none" stroke="#000000" stroke-width="2" stroke-linecap="square" stroke-miterlimit="10" d="M170.75,122.2h-6"/>
		<path fill="none" stroke="#000000" stroke-width="2" stroke-linecap="square" stroke-miterlimit="10" d="M170.75,99.288h-6"/>
		<path fill="none" stroke="#000000" stroke-width="2" stroke-linecap="square" stroke-miterlimit="10" d="M170.75,76.375v458.25"/>
	</g>
	<g>
		<path fill="none" stroke="#FF0000" stroke-width="4" stroke-linecap="square" stroke-miterlimit="10" d="M229.293,529.646
			l33.309-20.459"/>
		<path fill="none" stroke="#FF0000" stroke-width="4" stroke-linecap="square" stroke-miterlimit="10" d="M262.602,509.187
			l33.309-20.899"/>
		<path fill="none" stroke="#FF0000" stroke-width="4" stroke-linecap="square" stroke-miterlimit="10" d="M295.911,488.287
			l33.309-20.119"/>
		<path fill="none" stroke="#FF0000" stroke-width="4" stroke-linecap="square" stroke-miterlimit="10" d="M329.219,468.168
			l33.309-19.989"/>
		<path fill="none" stroke="#FF0000" stroke-width="4" stroke-linecap="square" stroke-miterlimit="10" d="M362.528,448.179
			l33.309-18.618"/>
		<path fill="none" stroke="#FF0000" stroke-width="4" stroke-linecap="square" stroke-miterlimit="10" d="M395.837,429.561
			l33.31-21.057"/>
		<path fill="none" stroke="#FF0000" stroke-width="4" stroke-linecap="square" stroke-miterlimit="10" d="M429.146,408.504
			l33.309-19.143"/>
		<path fill="none" stroke="#FF0000" stroke-width="4" stroke-linecap="square" stroke-miterlimit="10" d="M462.455,389.361
			l33.309-16.445"/>
		<path fill="none" stroke="#FF0000" stroke-width="4" stroke-linecap="square" stroke-miterlimit="10" d="M495.764,372.916
			l33.309-18.548"/>
		<path fill="none" stroke="#FF0000" stroke-width="4" stroke-linecap="square" stroke-miterlimit="10" d="M529.072,354.368
			l33.31-14.66"/>
		<path fill="none" stroke="#FF0000" stroke-width="4" stroke-linecap="square" stroke-miterlimit="10" d="M562.382,339.708
			l33.309-19.398"/>
		<path fill="none" stroke="#FF0000" stroke-width="4" stroke-linecap="square" stroke-miterlimit="10" d="M595.69,320.31
			l33.309-16.146"/>
		<path fill="none" stroke="#FF0000" stroke-width="4" stroke-linecap="square" stroke-miterlimit="10" d="M628.999,304.163
			l33.31-15.75"/>
		<path fill="none" stroke="#FF0000" stroke-width="4" stroke-linecap="square" stroke-miterlimit="10" d="M662.309,288.413
			l33.309-17.09"/>
		<path fill="none" stroke="#FF0000" stroke-width="4" stroke-linecap="square" stroke-miterlimit="10" d="M695.617,271.323
			l33.309-11.593"/>
		<path fill="none" stroke="#FF0000" stroke-width="4" stroke-linecap="square" stroke-miterlimit="10" d="M728.926,259.73
			l33.309-16.464"/>
		<path fill="none" stroke="#FF0000" stroke-width="4" stroke-linecap="square" stroke-miterlimit="10" d="M762.234,243.266
			l33.31-14.222"/>
		<path fill="none" stroke="#FF0000" stroke-width="4" stroke-linecap="square" stroke-miterlimit="10" d="M795.544,229.043
			l33.309-13.356"/>
		<path fill="none" stroke="#FF0000" stroke-width="4" stroke-linecap="square" stroke-miterlimit="10" d="M828.853,215.687
			l33.309-13.561"/>
		<path fill="none" stroke="#FF0000" stroke-width="4" stroke-linecap="square" stroke-miterlimit="10" d="M862.161,202.126
			l33.31-13.82"/>
		<path fill="none" stroke="#FF0000" stroke-width="4" stroke-linecap="square" stroke-miterlimit="10" d="M895.471,188.306
			l33.309-13.318"/>
		<path fill="none" stroke="#FF0000" stroke-width="4" stroke-linecap="square" stroke-miterlimit="10" d="M928.779,174.988
			l33.309-12.621"/>
		<path fill="none" stroke="#FF0000" stroke-width="4" stroke-linecap="square" stroke-miterlimit="10" d="M962.088,162.367
			l33.309-12.891"/>
		<path fill="none" stroke="#FF0000" stroke-width="4" stroke-linecap="square" stroke-miterlimit="10" d="M995.396,149.476
			l33.309-12.983"/>
		<path fill="none" stroke="#FF0000" stroke-width="4" stroke-linecap="square" stroke-miterlimit="10" d="M1028.705,136.493
			l33.31-11.605"/>
		<path fill="none" stroke="#FF0000" stroke-width="4" stroke-linecap="square" stroke-miterlimit="10" d="M1062.015,124.888
			l33.309-12.069"/>
		<path fill="none" stroke="#FF0000" stroke-width="4" stroke-linecap="square" stroke-miterlimit="10" d="M1095.323,112.819
			l33.31-11.486"/>
		<path fill="none" stroke="#FF0000" stroke-width="4" stroke-linecap="square" stroke-miterlimit="10" d="M1128.633,101.333
			l33.309-12.389"/>
		<path fill="none" stroke="#FF0000" stroke-width="4" stroke-linecap="square" stroke-miterlimit="10" d="M1161.941,88.943
			l33.309-12.568"/>
		<path fill="none" stroke="#00FF00" stroke-width="4" stroke-linecap="square" stroke-miterlimit="10" d="M229.293,523.42
			l33.309-24.106"/>
		<path fill="none" stroke="#00FF00" stroke-width="4" stroke-linecap="square" stroke-miterlimit="10" d="M262.602,499.313
			l33.309-24.271"/>
		<path fill="none" stroke="#00FF00" stroke-width="4" stroke-linecap="square" stroke-miterlimit="10" d="M295.911,475.042
			l33.309-23.347"/>
		<path fill="none" stroke="#00FF00" stroke-width="4" stroke-linecap="square" stroke-miterlimit="10" d="M329.219,451.695
			l33.309-20.382"/>
		<path fill="none" stroke="#00FF00" stroke-width="4" stroke-linecap="square" stroke-miterlimit="10" d="M362.528,431.313
			l33.309-21.287"/>
		<path fill="none" stroke="#00FF00" stroke-width="4" stroke-linecap="square" stroke-miterlimit="10" d="M395.837,410.026
			l33.31-19.333"/>
		<path fill="none" stroke="#00FF00" stroke-width="4" stroke-linecap="square" stroke-miterlimit="10" d="M429.146,390.693
			l33.309-17.072"/>
		<path fill="none" stroke="#00FF00" stroke-width="4" stroke-linecap="square" stroke-miterlimit="10" d="M462.455,373.621
			l33.309-19.666"/>
		<path fill="none" stroke="#00FF00" stroke-width="4" stroke-linecap="square" stroke-miterlimit="10" d="M495.764,353.955
			l33.309-19.579"/>
		<path fill="none" stroke="#00FF00" stroke-width="4" stroke-linecap="square" stroke-miterlimit="10" d="M529.072,334.376
			l33.31-12.673"/>
		<path fill="none" stroke="#00FF00" stroke-width="4" stroke-linecap="square" stroke-miterlimit="10" d="M562.382,321.703
			l33.309-22.102"/>
		<path fill="none" stroke="#00FF00" stroke-width="4" stroke-linecap="square" stroke-miterlimit="10" d="M595.69,299.601
			l33.309-11.692"/>
		<path fill="none" stroke="#00FF00" stroke-width="4" stroke-linecap="square" stroke-miterlimit="10" d="M628.999,287.909
			l33.31-18.26"/>
		<path fill="none" stroke="#00FF00" stroke-width="4" stroke-linecap="square" stroke-miterlimit="10" d="M662.309,269.649
			l33.309-13.055"/>
		<path fill="none" stroke="#00FF00" stroke-width="4" stroke-linecap="square" stroke-miterlimit="10" d="M695.617,256.594
			l33.309-16.626"/>
		<path fill="none" stroke="#00FF00" stroke-width="4" stroke-linecap="square" stroke-miterlimit="10" d="M728.926,239.968
			l33.309-12.729"/>
		<path fill="none" stroke="#00FF00" stroke-width="4" stroke-linecap="square" stroke-miterlimit="10" d="M762.234,227.24
			l33.31-16.055"/>
		<path fill="none" stroke="#00FF00" stroke-width="4" stroke-linecap="square" stroke-miterlimit="10" d="M795.544,211.185
			l33.309-11.587"/>
		<path fill="none" stroke="#00FF00" stroke-width="4" stroke-linecap="square" stroke-miterlimit="10" d="M828.853,199.598
			l33.309-13.134"/>
		<path fill="none" stroke="#00FF00" stroke-width="4" stroke-linecap="square" stroke-miterlimit="10" d="M862.161,186.463
			l33.31-14.321"/>
		<path fill="none" stroke="#00FF00" stroke-width="4" stroke-linecap="square" stroke-miterlimit="10" d="M895.471,172.143
			l33.309-10.625"/>
		<path fill="none" stroke="#00FF00" stroke-width="4" stroke-linecap="square" stroke-miterlimit="10" d="M928.779,161.518
			l33.309-10.559"/>
		<path fill="none" stroke="#00FF00" stroke-width="4" stroke-linecap="square" stroke-miterlimit="10" d="M962.088,150.959
			l33.309-13.983"/>
		<path fill="none" stroke="#00FF00" stroke-width="4" stroke-linecap="square" stroke-miterlimit="10" d="M995.396,136.977
			l33.309-10.047"/>
		<path fill="none" stroke="#00FF00" stroke-width="4" stroke-linecap="square" stroke-miterlimit="10" d="M1028.705,126.929
			l33.31-12.024"/>
		<path fill="none" stroke="#00FF00" stroke-width="4" stroke-linecap="square" stroke-miterlimit="10" d="M1062.015,114.905
			l33.309-10.4"/>
		<path fill="none" stroke="#00FF00" stroke-width="4" stroke-linecap="square" stroke-miterlimit="10" d="M1095.323,104.505
			l33.31-9.913"/>
		<path fill="none" stroke="#00FF00" stroke-width="4" stroke-linecap="square" stroke-miterlimit="10" d="M1128.633,94.592
			l33.309-10.292"/>
		<path fill="none" stroke="#00FF00" stroke-width="4" stroke-linecap="square" stroke-miterlimit="10" d="M1161.941,84.301
			l33.309-7.926"/>
		<path fill="none" stroke="#0000FF" stroke-width="4" stroke-linecap="square" stroke-miterlimit="10" d="M229.293,527.21
			l33.309-22.488"/>
		<path fill="none" stroke="#0000FF" stroke-width="4" stroke-linecap="square" stroke-miterlimit="10" d="M262.602,504.722
			l33.309-22.126"/>
		<path fill="none" stroke="#0000FF" stroke-width="4" stroke-linecap="square" stroke-miterlimit="10" d="M295.911,482.596
			l33.309-21.76"/>
		<path fill="none" stroke="#0000FF" stroke-width="4" stroke-linecap="square" stroke-miterlimit="10" d="M329.219,460.836
			l33.309-20.819"/>
		<path fill="none" stroke="#0000FF" stroke-width="4" stroke-linecap="square" stroke-miterlimit="10" d="M362.528,440.017
			l33.309-20.296"/>
		<path fill="none" stroke="#0000FF" stroke-width="4" stroke-linecap="square" stroke-miterlimit="10" d="M395.837,419.721
			l33.31-19.296"/>
		<path fill="none" stroke="#0000FF" stroke-width="4" stroke-linecap="square" stroke-miterlimit="10" d="M429.146,400.425
			l33.309-18.5"/>
		<path fill="none" stroke="#0000FF" stroke-width="4" stroke-linecap="square" stroke-miterlimit="10" d="M462.455,381.925
			l33.309-17.473"/>
		<path fill="none" stroke="#0000FF" stroke-width="4" stroke-linecap="square" stroke-miterlimit="10" d="M495.764,364.452
			l33.309-18.688"/>
		<path fill="none" stroke="#0000FF" stroke-width="4" stroke-linecap="square" stroke-miterlimit="10" d="M529.072,345.765
			l33.31-15.651"/>
		<path fill="none" stroke="#0000FF" stroke-width="4" stroke-linecap="square" stroke-miterlimit="10" d="M562.382,330.113
			l33.309-18.992"/>
		<path fill="none" stroke="#0000FF" stroke-width="4" stroke-linecap="square" stroke-miterlimit="10" d="M595.69,311.121
			l33.309-15.251"/>
		<path fill="none" stroke="#0000FF" stroke-width="4" stroke-linecap="square" stroke-miterlimit="10" d="M628.999,295.87
			l33.31-15.295"/>
		<path fill="none" stroke="#0000FF" stroke-width="4" stroke-linecap="square" stroke-miterlimit="10" d="M662.309,280.575
			l33.309-16.188"/>
		<path fill="none" stroke="#0000FF" stroke-width="4" stroke-linecap="square" stroke-miterlimit="10" d="M695.617,264.386
			l33.309-13.988"/>
		<path fill="none" stroke="#0000FF" stroke-width="4" stroke-linecap="square" stroke-miterlimit="10" d="M728.926,250.398
			l33.309-14.699"/>
		<path fill="none" stroke="#0000FF" stroke-width="4" stroke-linecap="square" stroke-miterlimit="10" d="M762.234,235.699
			l33.31-15.306"/>
		<path fill="none" stroke="#0000FF" stroke-width="4" stroke-linecap="square" stroke-miterlimit="10" d="M795.544,220.394
			l33.309-12.25"/>
		<path fill="none" stroke="#0000FF" stroke-width="4" stroke-linecap="square" stroke-miterlimit="10" d="M828.853,208.143
			l33.309-13.817"/>
		<path fill="none" stroke="#0000FF" stroke-width="4" stroke-linecap="square" stroke-miterlimit="10" d="M862.161,194.326
			l33.31-13.738"/>
		<path fill="none" stroke="#0000FF" stroke-width="4" stroke-linecap="square" stroke-miterlimit="10" d="M895.471,180.588
			l33.309-12.236"/>
		<path fill="none" stroke="#0000FF" stroke-width="4" stroke-linecap="square" stroke-miterlimit="10" d="M928.779,168.353
			l33.309-11.73"/>
		<path fill="none" stroke="#0000FF" stroke-width="4" stroke-linecap="square" stroke-miterlimit="10" d="M962.088,156.623
			l33.309-13.318"/>
		<path fill="none" stroke="#0000FF" stroke-width="4" stroke-linecap="square" stroke-miterlimit="10" d="M995.396,143.304
			l33.309-11.695"/>
		<path fill="none" stroke="#0000FF" stroke-width="4" stroke-linecap="square" stroke-miterlimit="10" d="M1028.705,131.609
			l33.31-11.272"/>
		<path fill="none" stroke="#0000FF" stroke-width="4" stroke-linecap="square" stroke-miterlimit="10" d="M1062.015,120.336
			l33.309-11.427"/>
		<path fill="none" stroke="#0000FF" stroke-width="4" stroke-linecap="square" stroke-miterlimit="10" d="M1095.323,108.91
			l33.31-10.73"/>
		<path fill="none" stroke="#0000FF" stroke-width="4" stroke-linecap="square" stroke-miterlimit="10" d="M1128.633,98.18
			l33.309-11.484"/>
		<path fill="none" stroke="#0000FF" stroke-width="4" stroke-linecap="square" stroke-miterlimit="10" d="M1161.941,86.695
			l33.309-10.32"/>
	</g>
	<text transform="matrix(1 0 0 1 1230.1289 541.3301)" font-family="'AGaramondPro-Regular'" font-size="60">p</text>
</g>
<g id="Layer_2">
	<text transform="matrix(1 0 0 1 139.75 42.0376)" font-family="'SymbolMT'" font-size="60">p</text>
	<text transform="matrix(0.583 0 0 0.583 172.6797 62.0176)" font-family="'SymbolMT'" font-size="60">0</text>
	<text transform="matrix(0.583 0 0 0.583 257.416 153.4771)" font-family="'AGaramondPro-Regular'" font-size="48">Higher bound for 95% confidance interval</text>
	<text transform="matrix(0.583 0 0 0.583 684.3438 381.4502)" font-family="'AGaramondPro-Regular'" font-size="48">Lower bound for 95% confidance interval</text>
	<text transform="matrix(0.583 0 0 0.583 288.1445 349.1074)" font-family="'AGaramondPro-Regular'" font-size="48">Estimate</text>
	<line fill="none" stroke="#000000" stroke-width="2" stroke-miterlimit="10" x1="219.394" y1="533.781" x2="219.394" y2="76.375"/>
	<g>
		<line fill="#FF0000" x1="695.617" y1="271.323" x2="778.889" y2="363.643"/>
		<g>
			
				<line fill="none" stroke="#FF0000" stroke-width="3" stroke-linecap="square" stroke-miterlimit="10" x1="704.613" y1="281.297" x2="778.889" y2="363.643"/>
			<g>
				<polygon fill="#FF0000" points="702.659,291.57 706.476,283.361 715.033,280.409 695.617,271.323 				"/>
			</g>
		</g>
	</g>
	<g>
		<g>
			
				<line fill="none" stroke="#00FF00" stroke-width="4" stroke-linecap="square" stroke-miterlimit="10" x1="632.57" y1="263.205" x2="591.581" y2="164.999"/>
			<g>
				<polygon fill="#00FF00" points="639.577,251.15 631.143,259.785 619.073,259.708 639.469,279.732 				"/>
			</g>
		</g>
	</g>
	<g>
		<g>
			
				<line fill="none" stroke="#0000FF" stroke-width="4" stroke-linecap="square" stroke-miterlimit="10" x1="395.837" y1="345.765" x2="460.659" y2="368.474"/>
			<g>
				<polygon fill="#0000FF" points="449.344,375.968 457.254,367.281 456.494,355.558 477.11,374.237 				"/>
			</g>
		</g>
	</g>
	<text transform="matrix(0.583 0 0 0.583 198.8652 578.3887)" font-family="'AGaramondPro-Regular'" font-size="48">2/3</text>
</g>
</svg>
