<?xml version="1.0" encoding="utf-8"?>
<!-- Generator: Adobe Illustrator 14.0.0, SVG Export Plug-In . SVG Version: 6.00 Build 43363)  -->
<!DOCTYPE svg PUBLIC "-//W3C//DTD SVG 1.1//EN" "http://www.w3.org/Graphics/SVG/1.1/DTD/svg11.dtd">
<svg version="1.1" xmlns="http://www.w3.org/2000/svg" xmlns:xlink="http://www.w3.org/1999/xlink" x="0px" y="0px"
	 width="841.89px" height="595.28px" viewBox="0 0 841.89 595.28" enable-background="new 0 0 841.89 595.28" xml:space="preserve">
<g id="Calque_1">
	<path fill="#13235B" d="M374.872,229.406c2.657,0,5.084,0.927,7.29,2.777c2.195,1.85,3.298,4.187,3.298,7.014v73.649
		c0,1.271-0.282,2.481-0.842,3.651c-0.566,1.17-1.358,2.216-2.382,3.145c-1.016,0.927-2.172,1.655-3.449,2.192
		c-1.286,0.537-2.585,0.803-3.915,0.803c-2.456,0-4.707-0.952-6.756-2.851c-2.04-1.9-3.065-4.214-3.065-6.94V288.88h-33.445v23.966
		c0,2.727-0.995,5.04-2.993,6.94c-1.999,1.898-4.425,2.851-7.285,2.851c-3.177,0-5.754-0.924-7.759-2.777
		c-1.988-1.847-3.036-4.188-3.138-7.014v-73.649c0-3.021,1.097-5.406,3.3-7.16c2.194-1.753,4.728-2.631,7.597-2.631
		c2.86,0,5.286,0.975,7.285,2.923c1.998,1.949,2.993,4.236,2.993,6.868v29.811h33.445v-29.811c0-2.632,1.025-4.919,3.065-6.868
		C370.165,230.381,372.416,229.406,374.872,229.406z"/>
	<path fill="#13235B" d="M470.816,309.338c0.976,2.535,0.927,5.043-0.138,7.526c-1.08,2.484-2.879,4.266-5.412,5.333
		c-2.53,0.973-7.432,0.9-9.917-0.218c-2.489-1.12-4.218-2.995-5.186-5.626l-1.316-3.215h-36.385l-1.172,3.215
		c-0.971,2.631-2.699,4.506-5.192,5.626c-2.475,1.118-7.384,1.19-9.917,0.218c-2.532-1.067-4.356-2.849-5.477-5.333
		c-1.122-2.483-1.191-4.991-0.216-7.526l28.646-73.502c0.774-1.754,2.041-3.261,3.793-4.531c1.756-1.262,5.945-1.898,7.796-1.898
		c1.954,0,6.171,0.583,7.871,1.753c1.702,1.17,2.948,2.729,3.729,4.676L470.816,309.338z M418.601,297.359h24.106l-11.983-30.979
		L418.601,297.359z"/>
	<path fill="#13235B" d="M533.857,302.764c2.76,0,5.135,0.952,7.133,2.851c1.999,1.897,2.994,4.212,2.994,6.94
		c0,2.827-0.995,5.19-2.994,7.088c-1.998,1.898-4.373,2.849-7.133,2.849h-47.26c-2.965,0-5.421-0.95-7.366-2.849
		c-1.946-1.897-3.022-4.261-3.226-7.088v-73.503c0-2.728,1.026-5.043,3.075-6.941c2.038-1.899,4.552-2.851,7.517-2.851
		c2.657,0,5.039,0.951,7.132,2.851c2.098,1.898,3.15,4.213,3.15,6.941v63.712H533.857z"/>
	<polygon fill="#E7511E" points="442.658,297.287 460.459,280.961 430.746,266.224 	"/>
	<g>
		<path fill="#3E3D40" d="M319.811,349.559c0,1.731,0.727,2.938,2.303,3.987l-1.576,1.365c-0.545-0.288-1.425-1.207-1.94-1.968
			c-0.727,1.207-2.455,2.071-4.092,2.071c-2.515,0-4.425-1.546-4.425-3.935c0-2.598,2.062-3.934,5.334-3.934h2.273
			c0-1.653-0.97-2.938-2.879-2.938c-0.727,0-1.243,0.235-1.758,0.63l-1.273-1.417c0.939-0.682,1.789-0.998,3.031-0.998
			c3.152,0,5.001,2.126,5.001,4.592V349.559z M317.688,349.559v-0.76h-2.273c-2.273,0-3.152,0.892-3.152,2.281
			c0,1.207,1.121,2.152,2.242,2.152c2.183,0,3.334-2.178,3.334-2.178S317.688,350.136,317.688,349.559z"/>
		<path fill="#3E3D40" d="M331.906,342.423v2.23c-2.758,0-3.789,2.859-3.789,2.859v7.241h-2.122v-6.874
			c0-1.731-0.727-2.938-2.304-3.987l1.577-1.364c1.09,0.787,1.637,1.47,2.151,2.387C327.419,344.915,329.42,342.423,331.906,342.423
			z"/>
		<path fill="#3E3D40" d="M339.667,342.423c2.092,0,3.577,0.657,4.789,2.099l-1.606,1.233c-0.728-0.997-1.789-1.495-3.183-1.495
			c-2.455,0-3.607,2.335-3.607,4.459c0,2.126,1.152,4.461,3.607,4.461c1.394,0,2.455-0.499,3.183-1.495l1.606,1.231
			c-1.212,1.443-2.697,2.099-4.789,2.099c-3.607,0-5.789-2.938-5.789-6.296C333.877,345.361,336.06,342.423,339.667,342.423z"/>
		<path fill="#3E3D40" d="M347.367,336.652h2.122v7.738c0,0,1.485-2.02,4.577-2.02c2.394,0,3.607,1.364,3.607,3.594v8.789h-2.122
			v-8.395c0-1.076-0.667-2.1-2.122-2.1c-2.577,0-3.94,2.571-3.94,2.571v7.923h-2.122V336.652z"/>
		<path fill="#3E3D40" d="M364.889,339.224c0,0.681-0.637,1.232-1.425,1.232c-0.788,0-1.424-0.552-1.424-1.232
			c0-0.682,0.636-1.234,1.424-1.234C364.252,337.989,364.889,338.542,364.889,339.224z M364.556,354.754h-2.183v-12.068h2.183
			V354.754z"/>
		<path fill="#3E3D40" d="M378.226,342.555l2.122,0.708l-5.607,11.491h-1.455l-5.608-11.491l2.122-0.708l4.213,9.103
			L378.226,342.555z"/>
		<path fill="#3E3D40" d="M384.502,349.979c0,0,0.545,3.254,3.334,3.254c2,0,3.152-1.47,3.152-1.47l1.637,1.153
			c0,0-1.517,2.099-4.789,2.099c-3.85,0-5.638-2.964-5.638-6.296c0-3.33,2.062-6.296,5.638-6.296c3.031,0,4.485,1.47,5.123,3.621
			c-1.334,2.388-3.819,3.935-7.184,3.935C384.927,349.979,384.502,349.979,384.502,349.979z M385.775,348.326
			c1.91,0,3.546-0.604,4.911-2.282c-0.485-1.103-1.365-1.836-2.849-1.836c-3.213,0-3.456,4.118-3.456,4.118
			S385.079,348.326,385.775,348.326z"/>
		<path fill="#3E3D40" d="M398.205,349.191c-2.031-0.709-3.031-1.653-3.031-3.357c0-1.836,1.97-3.411,4.243-3.411
			c1.879,0,3.183,0.657,3.789,1.313l-1.363,1.443c-0.91-0.788-1.455-0.971-2.425-0.971c-0.97,0-2.122,0.576-2.122,1.626
			c0,1.049,1.061,1.416,2.122,1.784l1.212,0.445c1.364,0.499,2.88,1.313,2.88,3.28c0,2.045-2.213,3.671-4.546,3.671
			c-1.819,0-3.183-0.655-4.244-1.704l1.424-1.495c0.849,0.97,1.819,1.417,2.819,1.417c1.303,0,2.424-0.708,2.424-1.758
			c0-1.049-0.818-1.443-1.91-1.838L398.205,349.191z"/>
		<path fill="#3E3D40" d="M415.179,347.146h-8.184v-2.099h8.184V347.146z"/>
		<path fill="#3E3D40" d="M424.82,342.423c3.666,0,5.94,2.912,5.94,6.296c0,3.385-2.274,6.296-5.94,6.296
			c-3.668,0-5.941-2.911-5.941-6.296C418.879,345.335,421.152,342.423,424.82,342.423z M421.061,348.719
			c0,2.152,1.274,4.461,3.759,4.461c2.486,0,3.759-2.309,3.759-4.461c0-2.15-1.272-4.459-3.759-4.459
			C422.335,344.26,421.061,346.568,421.061,348.719z"/>
		<path fill="#3E3D40" d="M437.978,355.068c-2.151,0-3.819-1.522-3.819-3.698v-8.685h2.122v8.421c0,1.05,0.879,1.968,2.183,1.968
			c2.212,0,3.576-2.57,3.576-2.57v-7.818h2.122v7.136c0,1.732,0.727,2.938,2.304,3.988l-1.577,1.363
			c-1.061-0.76-1.666-1.495-2.212-2.467C442.676,352.706,440.856,355.068,437.978,355.068z"/>
		<path fill="#3E3D40" d="M458.348,342.555l2.121,0.708l-5.606,11.491h-1.455l-5.607-11.491l2.122-0.708l4.213,9.103
			L458.348,342.555z"/>
		<path fill="#3E3D40" d="M464.624,349.979c0,0,0.545,3.254,3.333,3.254c2.001,0,3.153-1.47,3.153-1.47l1.637,1.153
			c0,0-1.516,2.099-4.79,2.099c-3.849,0-5.637-2.964-5.637-6.296c0-3.33,2.061-6.296,5.637-6.296c3.031,0,4.487,1.47,5.123,3.62
			c-1.333,2.389-3.819,3.936-7.183,3.936C465.048,349.979,464.624,349.979,464.624,349.979z M465.897,348.326
			c1.909,0,3.545-0.604,4.91-2.283c-0.485-1.102-1.365-1.835-2.851-1.835c-3.212,0-3.455,4.118-3.455,4.118
			S465.199,348.326,465.897,348.326z"/>
		<path fill="#3E3D40" d="M483.085,342.423v2.23c-2.759,0-3.79,2.859-3.79,2.859v7.241h-2.122v-6.874
			c0-1.731-0.727-2.938-2.302-3.987l1.575-1.364c1.091,0.787,1.637,1.47,2.152,2.387
			C478.599,344.915,480.599,342.423,483.085,342.423z"/>
		<path fill="#3E3D40" d="M489.392,349.717c0,1.73,0.727,2.938,2.303,3.987l-1.576,1.364c-1.97-1.469-2.849-3.069-2.849-5.352
			v-5.195h-2.426v-1.836h2.426v-3.672h2.122v3.672h2.575v1.836h-2.575V349.717z"/>
		<path fill="#3E3D40" d="M496.757,349.979c0,0,0.546,3.254,3.334,3.254c2.001,0,3.153-1.47,3.153-1.47l1.637,1.153
			c0,0-1.516,2.099-4.79,2.099c-3.849,0-5.638-2.964-5.638-6.296c0-3.331,2.061-6.296,5.638-6.296c3.031,0,4.486,1.47,5.123,3.62
			c-1.334,2.389-3.819,3.936-7.183,3.936C497.182,349.979,496.757,349.979,496.757,349.979z M498.031,348.326
			c1.908,0,3.545-0.604,4.909-2.283c-0.484-1.102-1.364-1.835-2.85-1.835c-3.213,0-3.456,4.118-3.456,4.118
			S497.332,348.326,498.031,348.326z"/>
		<path fill="#3E3D40" d="M510.46,349.191c-2.031-0.709-3.031-1.653-3.031-3.357c0-1.836,1.971-3.411,4.244-3.411
			c1.878,0,3.182,0.657,3.788,1.313l-1.363,1.443c-0.91-0.788-1.455-0.971-2.425-0.971s-2.122,0.576-2.122,1.626
			c0,1.049,1.061,1.416,2.122,1.784l1.212,0.445c1.363,0.499,2.881,1.313,2.881,3.28c0,2.045-2.215,3.671-4.547,3.671
			c-1.819,0-3.184-0.655-4.244-1.704l1.425-1.495c0.848,0.97,1.818,1.417,2.819,1.417c1.303,0,2.425-0.708,2.425-1.758
			s-0.818-1.443-1.911-1.838L510.46,349.191z"/>
		<path fill="#C6C7C8" d="M522.403,353.573c0,0.786-0.728,1.416-1.637,1.416c-0.91,0-1.637-0.63-1.637-1.416
			c0-0.788,0.727-1.417,1.637-1.417C521.676,352.156,522.403,352.785,522.403,353.573z"/>
		<path fill="#C6C7C8" d="M531.072,355.173c0,2.282-0.878,3.883-2.848,5.352l-1.578-1.363c1.578-1.05,2.305-2.257,2.305-3.988
			v-10.651h-2.273v-1.836h2.273v-1.363c0-2.493,1.939-4.46,4.759-4.933l0.636,1.6c-1.938,0.289-3.273,1.627-3.273,3.333v1.363h2.576
			v1.836h-2.576V355.173z"/>
		<path fill="#C6C7C8" d="M543.714,342.423v2.23c-2.758,0-3.788,2.859-3.788,2.859v7.241h-2.122v-6.874
			c0-1.731-0.728-2.938-2.304-3.987l1.576-1.364c1.092,0.787,1.637,1.47,2.151,2.387
			C539.228,344.915,541.229,342.423,543.714,342.423z"/>
	</g>
</g>
<g id="Calque_2">
	<g>
		<rect x="384.373" y="377.166" fill="#13235B" width="245.977" height="150.142"/>
		<path fill="#F6F6F6" d="M456.871,385.406c2.658,0,5.084,0.927,7.291,2.777c2.195,1.85,3.298,4.187,3.298,7.014v73.649
			c0,1.271-0.282,2.481-0.843,3.651c-0.565,1.17-1.357,2.216-2.382,3.145c-1.017,0.927-2.172,1.655-3.449,2.192
			c-1.286,0.537-2.585,0.803-3.915,0.803c-2.455,0-4.706-0.952-6.756-2.851c-2.039-1.9-3.064-4.214-3.064-6.94v-23.966h-33.445
			v23.966c0,2.727-0.995,5.04-2.993,6.94c-1.999,1.898-4.425,2.851-7.285,2.851c-3.177,0-5.754-0.924-7.759-2.777
			c-1.988-1.847-3.036-4.188-3.138-7.014v-73.649c0-3.021,1.097-5.406,3.3-7.16c2.194-1.754,4.728-2.631,7.597-2.631
			c2.86,0,5.286,0.975,7.285,2.923c1.998,1.949,2.993,4.235,2.993,6.868v29.811h33.445v-29.811c0-2.633,1.025-4.919,3.064-6.868
			C452.165,386.381,454.416,385.406,456.871,385.406z"/>
		<path fill="#F6F6F6" d="M552.816,465.338c0.976,2.535,0.927,5.043-0.138,7.526c-1.08,2.484-2.879,4.266-5.412,5.333
			c-2.53,0.973-7.432,0.9-9.917-0.218c-2.489-1.12-4.218-2.995-5.186-5.626l-1.316-3.215h-36.385l-1.172,3.215
			c-0.972,2.631-2.699,4.506-5.192,5.626c-2.475,1.118-7.384,1.19-9.917,0.218c-2.531-1.067-4.355-2.849-5.477-5.333
			c-1.121-2.483-1.191-4.991-0.216-7.526l28.646-73.502c0.774-1.755,2.041-3.262,3.793-4.531c1.756-1.262,5.945-1.898,7.796-1.898
			c1.954,0,6.171,0.584,7.871,1.753c1.702,1.17,2.948,2.729,3.729,4.677L552.816,465.338z M500.601,453.359h24.106l-11.983-30.98
			L500.601,453.359z"/>
		<path fill="#F6F6F6" d="M615.857,458.764c2.76,0,5.135,0.952,7.133,2.851c1.999,1.897,2.994,4.212,2.994,6.94
			c0,2.827-0.995,5.19-2.994,7.088c-1.998,1.898-4.373,2.849-7.133,2.849h-47.26c-2.965,0-5.421-0.95-7.366-2.849
			c-1.946-1.897-3.022-4.261-3.226-7.088v-73.503c0-2.728,1.026-5.043,3.075-6.94c2.038-1.9,4.552-2.852,7.517-2.852
			c2.657,0,5.039,0.951,7.132,2.852c2.098,1.897,3.15,4.213,3.15,6.94v63.712H615.857z"/>
		<polygon fill="#E7511E" points="524.658,453.287 542.459,436.961 512.746,422.225 		"/>
		<g>
			<path fill="#D9DADB" d="M401.811,505.559c0,1.731,0.727,2.938,2.303,3.987l-1.576,1.365c-0.545-0.288-1.425-1.207-1.94-1.968
				c-0.727,1.207-2.455,2.071-4.092,2.071c-2.515,0-4.425-1.546-4.425-3.935c0-2.598,2.062-3.934,5.334-3.934h2.273
				c0-1.653-0.97-2.938-2.879-2.938c-0.727,0-1.243,0.235-1.758,0.63l-1.273-1.417c0.939-0.682,1.789-0.998,3.031-0.998
				c3.152,0,5.001,2.126,5.001,4.592V505.559z M399.688,505.559v-0.76h-2.273c-2.273,0-3.152,0.892-3.152,2.281
				c0,1.207,1.121,2.152,2.242,2.152c2.183,0,3.334-2.178,3.334-2.178S399.688,506.136,399.688,505.559z"/>
			<path fill="#D9DADB" d="M413.906,498.423v2.23c-2.758,0-3.789,2.859-3.789,2.859v7.241h-2.122v-6.874
				c0-1.731-0.727-2.938-2.304-3.987l1.577-1.364c1.09,0.787,1.637,1.47,2.151,2.387
				C409.419,500.915,411.42,498.423,413.906,498.423z"/>
			<path fill="#D9DADB" d="M421.667,498.423c2.091,0,3.577,0.657,4.789,2.099l-1.605,1.233c-0.729-0.997-1.789-1.495-3.183-1.495
				c-2.455,0-3.607,2.335-3.607,4.459c0,2.126,1.152,4.461,3.607,4.461c1.394,0,2.455-0.499,3.183-1.495l1.605,1.231
				c-1.212,1.443-2.697,2.099-4.789,2.099c-3.607,0-5.789-2.938-5.789-6.296C415.877,501.361,418.06,498.423,421.667,498.423z"/>
			<path fill="#D9DADB" d="M429.367,492.652h2.122v7.738c0,0,1.485-2.02,4.577-2.02c2.394,0,3.606,1.364,3.606,3.594v8.789h-2.122
				v-8.395c0-1.076-0.666-2.1-2.121-2.1c-2.576,0-3.94,2.571-3.94,2.571v7.923h-2.122V492.652z"/>
			<path fill="#D9DADB" d="M446.889,495.224c0,0.681-0.637,1.232-1.425,1.232s-1.424-0.552-1.424-1.232
				c0-0.682,0.636-1.234,1.424-1.234S446.889,494.542,446.889,495.224z M446.556,510.754h-2.183v-12.068h2.183V510.754z"/>
			<path fill="#D9DADB" d="M460.227,498.555l2.121,0.708l-5.607,11.491h-1.455l-5.607-11.491l2.122-0.708l4.213,9.103
				L460.227,498.555z"/>
			<path fill="#D9DADB" d="M466.502,505.979c0,0,0.546,3.254,3.335,3.254c2,0,3.152-1.47,3.152-1.47l1.637,1.153
				c0,0-1.517,2.099-4.789,2.099c-3.85,0-5.638-2.964-5.638-6.296c0-3.33,2.061-6.296,5.638-6.296c3.03,0,4.485,1.47,5.122,3.621
				c-1.334,2.388-3.818,3.935-7.184,3.935C466.927,505.979,466.502,505.979,466.502,505.979z M467.775,504.326
				c1.91,0,3.546-0.604,4.91-2.282c-0.484-1.103-1.364-1.836-2.849-1.836c-3.214,0-3.456,4.118-3.456,4.118
				S467.078,504.326,467.775,504.326z"/>
			<path fill="#D9DADB" d="M480.205,505.191c-2.031-0.709-3.031-1.653-3.031-3.357c0-1.836,1.97-3.411,4.242-3.411
				c1.88,0,3.184,0.657,3.789,1.313l-1.363,1.443c-0.91-0.788-1.455-0.971-2.426-0.971c-0.969,0-2.121,0.576-2.121,1.626
				c0,1.049,1.061,1.416,2.121,1.784l1.213,0.445c1.364,0.499,2.88,1.313,2.88,3.28c0,2.045-2.213,3.671-4.546,3.671
				c-1.819,0-3.184-0.655-4.244-1.704l1.424-1.495c0.85,0.97,1.819,1.417,2.82,1.417c1.303,0,2.424-0.708,2.424-1.758
				c0-1.049-0.818-1.443-1.91-1.838L480.205,505.191z"/>
			<path fill="#D9DADB" d="M497.18,503.146h-8.184v-2.099h8.184V503.146z"/>
			<path fill="#D9DADB" d="M506.82,498.423c3.666,0,5.94,2.912,5.94,6.296c0,3.385-2.274,6.296-5.94,6.296
				c-3.668,0-5.941-2.911-5.941-6.296C500.879,501.335,503.152,498.423,506.82,498.423z M503.061,504.719
				c0,2.152,1.274,4.461,3.76,4.461c2.486,0,3.759-2.309,3.759-4.461c0-2.15-1.272-4.459-3.759-4.459
				C504.335,500.26,503.061,502.568,503.061,504.719z"/>
			<path fill="#D9DADB" d="M519.978,511.068c-2.151,0-3.819-1.522-3.819-3.698v-8.685h2.122v8.421c0,1.05,0.879,1.968,2.183,1.968
				c2.212,0,3.576-2.57,3.576-2.57v-7.818h2.122v7.136c0,1.732,0.727,2.938,2.304,3.988l-1.577,1.363
				c-1.061-0.76-1.666-1.495-2.212-2.467C524.676,508.706,522.856,511.068,519.978,511.068z"/>
			<path fill="#D9DADB" d="M540.348,498.555l2.121,0.708l-5.606,11.491h-1.455l-5.607-11.491l2.122-0.708l4.213,9.103
				L540.348,498.555z"/>
			<path fill="#D9DADB" d="M546.624,505.979c0,0,0.545,3.254,3.333,3.254c2.001,0,3.153-1.47,3.153-1.47l1.637,1.153
				c0,0-1.516,2.099-4.79,2.099c-3.849,0-5.637-2.964-5.637-6.296c0-3.33,2.061-6.296,5.637-6.296c3.031,0,4.487,1.47,5.123,3.62
				c-1.333,2.389-3.819,3.936-7.183,3.936C547.048,505.979,546.624,505.979,546.624,505.979z M547.897,504.326
				c1.909,0,3.545-0.604,4.91-2.283c-0.485-1.102-1.365-1.835-2.851-1.835c-3.212,0-3.455,4.118-3.455,4.118
				S547.199,504.326,547.897,504.326z"/>
			<path fill="#D9DADB" d="M565.085,498.423v2.23c-2.759,0-3.79,2.859-3.79,2.859v7.241h-2.122v-6.874
				c0-1.731-0.727-2.938-2.302-3.987l1.575-1.364c1.091,0.787,1.637,1.47,2.152,2.387
				C560.599,500.915,562.599,498.423,565.085,498.423z"/>
			<path fill="#D9DADB" d="M571.392,505.717c0,1.73,0.727,2.938,2.303,3.987l-1.576,1.364c-1.97-1.469-2.849-3.069-2.849-5.352
				v-5.195h-2.426v-1.836h2.426v-3.672h2.122v3.672h2.575v1.836h-2.575V505.717z"/>
			<path fill="#D9DADB" d="M578.757,505.979c0,0,0.546,3.254,3.334,3.254c2.001,0,3.153-1.47,3.153-1.47l1.637,1.153
				c0,0-1.516,2.099-4.79,2.099c-3.849,0-5.638-2.964-5.638-6.296c0-3.331,2.061-6.296,5.638-6.296c3.031,0,4.486,1.47,5.123,3.62
				c-1.334,2.389-3.819,3.936-7.183,3.936C579.182,505.979,578.757,505.979,578.757,505.979z M580.031,504.326
				c1.908,0,3.545-0.604,4.909-2.283c-0.484-1.102-1.364-1.835-2.85-1.835c-3.213,0-3.456,4.118-3.456,4.118
				S579.332,504.326,580.031,504.326z"/>
			<path fill="#D9DADB" d="M592.46,505.191c-2.031-0.709-3.031-1.653-3.031-3.357c0-1.836,1.971-3.411,4.244-3.411
				c1.878,0,3.182,0.657,3.788,1.313l-1.363,1.443c-0.91-0.788-1.455-0.971-2.425-0.971s-2.122,0.576-2.122,1.626
				c0,1.049,1.061,1.416,2.122,1.784l1.212,0.445c1.363,0.499,2.881,1.313,2.881,3.28c0,2.045-2.215,3.671-4.547,3.671
				c-1.819,0-3.184-0.655-4.244-1.704l1.425-1.495c0.848,0.97,1.818,1.417,2.819,1.417c1.303,0,2.425-0.708,2.425-1.758
				s-0.818-1.443-1.911-1.838L592.46,505.191z"/>
			<path fill="#D9DADB" d="M604.403,509.573c0,0.786-0.728,1.416-1.637,1.416c-0.91,0-1.637-0.63-1.637-1.416
				c0-0.788,0.727-1.417,1.637-1.417C603.676,508.156,604.403,508.785,604.403,509.573z"/>
			<path fill="#D9DADB" d="M613.072,511.173c0,2.282-0.878,3.883-2.848,5.352l-1.578-1.363c1.578-1.05,2.305-2.257,2.305-3.988
				v-10.651h-2.273v-1.836h2.273v-1.363c0-2.493,1.939-4.46,4.759-4.933l0.636,1.6c-1.938,0.289-3.273,1.627-3.273,3.333v1.363
				h2.576v1.836h-2.576V511.173z"/>
			<path fill="#D9DADB" d="M625.714,498.423v2.23c-2.758,0-3.788,2.859-3.788,2.859v7.241h-2.122v-6.874
				c0-1.731-0.728-2.938-2.304-3.987l1.576-1.364c1.092,0.787,1.637,1.47,2.151,2.387
				C621.228,500.915,623.229,498.423,625.714,498.423z"/>
		</g>
	</g>
</g>
</svg>
