<svg xmlns="http://www.w3.org/2000/svg" xmlns:xlink="http://www.w3.org/1999/xlink" version="1.1" x="0px" y="0px" viewBox="0 0 100 125" enable-background="new 0 0 100 100" xml:space="preserve"><g><rect x="15.6" y="61.9" width="0.9" height="0.5"/><g><path d="M20.5,49.9c0.6,0,1.1-0.5,1.1-1.1v-1.3c0-0.6-0.5-1.1-1.1-1.1s-1.1,0.5-1.1,1.1v1.3C19.4,49.4,19.9,49.9,20.5,49.9z"/><path d="M28.1,49.9c0.6,0,1.1-0.5,1.1-1.1v-1.3c0-0.6-0.5-1.1-1.1-1.1c-0.6,0-1.1,0.5-1.1,1.1v1.3C27,49.4,27.5,49.9,28.1,49.9z"/><path d="M21.6,53.5c0,0,1.1,0.5,2.6,0.5c1.7,0,2.7-0.5,2.8-0.5c0.3-0.2,0.5-0.6,0.3-0.9c-0.2-0.3-0.6-0.5-0.9-0.3    c0,0-0.8,0.4-2.1,0.4c-1.2,0-2-0.4-2-0.4c-0.3-0.2-0.8,0-0.9,0.3C21.1,52.9,21.2,53.3,21.6,53.5z"/><path d="M19.8,63.3c0-0.3-0.2-0.5-0.5-0.5c-0.3,0-0.5,0.2-0.5,0.5V65h-0.8v-1.7h-0.9V65h-0.6v-2.3h-0.9V65h-0.5v1.4h6.1V65h-1.4    V63.3z"/><rect x="17.2" y="62.8" width="0.9" height="0.3"/><path d="M70.4,47.2v1.8c0,0.8,0.7,1.5,1.5,1.5c0.8,0,1.5-0.7,1.5-1.5v-1.8c0-0.8-0.7-1.5-1.5-1.5C71.1,45.7,70.4,46.4,70.4,47.2z"/><path d="M79.6,50.6c0.8,0,1.5-0.7,1.5-1.5v-1.8c0-0.8-0.7-1.5-1.5-1.5c-0.8,0-1.5,0.7-1.5,1.5v1.8C78.1,49.9,78.8,50.6,79.6,50.6z    "/><path d="M72.8,52.6c-0.1,0.3,0,0.8,0.3,0.9c0.1,0,1.1,0.6,2.7,0.6c1.7,0,2.7-0.5,2.7-0.6c0.3-0.2,0.5-0.6,0.3-0.9    c-0.2-0.4-0.5-0.5-0.8-0.4c0,0-0.8,0.4-2.1,0.4c-1.2,0-2-0.4-2-0.4C73.4,52.1,73,52.2,72.8,52.6z"/><path d="M87,54c2.1-1.8,3.7-4.1,4.8-6.8c0.1-0.1,0.1-0.3,0.2-0.4c1.5-3.4,2.8-11.2,0.6-16.2c-2.7-6.2-10.6-9.3-13.3-9.7    c-0.3-0.1-0.8-0.2-0.8-0.2l0.2-1.8l-1.2,1.5l-2.4-1.5l0.9,1.7c0,0-2.4,0-5.4,0.9c-4.1-6.8-13-10.2-16.2-10.7c-0.4-0.1-1-0.3-1-0.3    L53.7,8l-1.5,1.9L49.1,8l1.1,2.1c0,0-14.9,0.3-20.8,11.1c-0.7-0.2-1.3-0.4-1.8-0.5c-0.3-0.1-0.8-0.2-0.8-0.2l0.2-1.8L26,20.3    l-2.4-1.5l0.9,1.7c0,0-11.6,0.2-16.2,8.7c-3.3,6-1.8,15.2,0.2,18.5c1.1,2.6,2.8,5,5,6.7c-1.1,0.9-2,1.9-2.8,3.2    C8.5,61,7.4,65.8,7.4,72.7c0,1.1,1.1,1.4,2.6,1.8c0.3,0.1,0.7,0.2,1,0.3c0.6,6.4,6.2,6.4,11.2,6.4l2.2,0c3.2,0,6.3,0,8.7-0.7    c1,7.7,8,7.8,14.3,7.8l2.9,0c8.5,0,16,0,17.2-7.5c1.9,0.5,4.1,0.5,6.2,0.5H76c6.9,0,12.8,0,13.5-6.4c0.3-0.1,0.7-0.2,1-0.3    c1.5-0.4,2.5-0.7,2.5-1.8C93,65.1,92.1,57.9,87,54z M86.1,43.1L84,41.6c0,0,4.8,1.5,5.5,1.5c0.4,0,0.8-0.1,1.1-0.1    c-1,7.4-7.2,13-14.8,13c-3.9,0-7.4-1.5-10.1-4c2.1-2.1,3.8-4.7,4.9-7.5c0.1-0.2,0.2-0.4,0.3-0.6c0.3-0.6,0.6-1.4,0.8-2.3    c1.1,0.5,2.1,0.8,3.2,1C81.2,43.7,86.1,43.1,86.1,43.1z M81.3,60.5l0.8,1.3l-3.9,5c0.6-1.8,1.2-3.6,1.4-4.5c0.3-2,0.6-3.9,0.7-4.8    c0.3-0.1,0.6-0.2,0.9-0.3l0.4-0.1l1.2,1.3l-1.3,1C81.2,59.8,81.1,60.2,81.3,60.5z M78.5,59.6c-0.1,0.8-0.3,1.6-0.4,2.5    c0,0.6-0.2,1.3-0.5,2.1L77,61.6c-0.3-1.2-0.3-0.8,0.3-2l0.3-0.7v-0.1L78.5,59.6z M77.7,58c0.3-0.1,0.8-0.1,1.1-0.1    c0,0.3-0.1,0.6-0.1,1L77.7,58z M70.1,59.6l-1.3-1l1.2-1.3l0.6,0.1c0.2,0.1,0.4,0.1,0.7,0.2c0.1,0.9,0.3,2.9,0.7,4.8    c0.2,0.9,0.8,2.7,1.4,4.5l-2.7-3.5c-0.2-0.8-0.5-1.6-0.8-2.3l0.3-0.6C70.4,60.1,70.4,59.8,70.1,59.6z M74.2,59.7    c0.6,1.1,0.6,0.8,0.3,2l-0.6,2.5c-0.2-0.9-0.4-1.6-0.5-2.1c-0.1-0.8-0.3-1.7-0.4-2.5l0.9-0.7V59L74.2,59.7z M72.9,58.9    c-0.1-0.3-0.1-0.7-0.1-1c0.4,0.1,0.8,0.1,1.1,0.1L72.9,58.9z M68,57.2c-0.4-0.6-0.8-1.1-1.2-1.6c0.6,0.4,1.2,0.7,1.8,1L68,57.2z     M71.4,66.7l3.5,4.5v2.9h-2.8C72,71.6,71.8,69.1,71.4,66.7z M33.5,35.2c0.7-1,1.4-2.8,1.8-4c3.2,2.8,8.4,6.9,13.5,7.7    c8.1,1.3,14.4,0.6,14.4,0.6l-2.7-1.9c0,0,6.1,1.9,7.1,2c0.5,0,1-0.1,1.5-0.2C67.8,48.7,59.8,56,50,56C40,56,31.7,48.2,30.9,38.3    C31.8,37.4,32.9,36.1,33.5,35.2z M50,64.7c-2.6,0-4.9-3.5-5.3-6.6c1.7,0.4,3.5,0.7,5.3,0.7c1.8,0,3.5-0.2,5.2-0.6c0,0,0,0,0,0    C54.8,61.2,52.5,64.7,50,64.7z M51.6,75.1c0,0.9-0.7,1.6-1.6,1.6c-0.9,0-1.6-0.7-1.6-1.6c0-0.8,0.6-1.5,1.4-1.6h0.4    C51,73.6,51.6,74.2,51.6,75.1z M30.2,46.1c0.7,1.5,1.7,3,2.7,4.3c-0.1,0-0.2,0.1-0.3,0.1h-5.8c-0.5,0-0.9-0.4-0.9-0.9v-3.3    c0-0.1,0-0.1,0-0.2H30.2z M36.1,53.7c-0.2,0.1-0.3,0.3-0.5,0.5c-0.1,0-0.1-0.1-0.1-0.1c0.2-0.1,0.3-0.3,0.5-0.5    C36,53.6,36,53.6,36.1,53.7z M9.3,42.4c0.7-0.7,1.6-1.7,2.1-2.4c0.5-0.8,1.1-2.2,1.4-3.1c2.5,2.2,6.5,5.3,10.5,6    c2,0.3,3.9,0.5,5.6,0.6c0.1,0.3,0.2,0.5,0.3,0.7H9.6C9.5,43.5,9.4,42.9,9.3,42.4z M23.7,46.1h1c0,0.1,0,0.1,0,0.2v0.8h-1v-0.8    C23.7,46.2,23.7,46.2,23.7,46.1z M22.5,46.3v3.3c0,0.5-0.4,0.9-0.9,0.9h-5.7c-0.5,0-0.9-0.4-0.9-0.9v-3.3c0-0.1,0-0.1,0-0.2h7.5    C22.5,46.2,22.5,46.2,22.5,46.3z M10.2,46.1h3.6c0,0.1,0,0.1,0,0.2v3.3c0,1.2,0.9,2.1,2.1,2.1h5.7c1.2,0,2.1-1,2.1-2.1v-1.1h1v1.1    c0,1.2,1,2.1,2.1,2.1h5.8c0.4,0,0.8-0.1,1.1-0.3c0.2,0.2,0.4,0.5,0.7,0.7c-2.7,2.5-6.2,4-10.1,4C17.8,56.1,12.2,51.9,10.2,46.1z     M30.2,56.7l-1.5,3l-2.7-2.1L30.2,56.7z M25.2,58.7c-0.3,0-0.7,0-1.1,0c-0.3,0-0.6,0-0.8,0l0.7-0.6c0.1,0,0.2,0,0.3,0    c0.1,0,0.1,0,0.2,0L25.2,58.7z M22.4,57.7l-2.7,2.1l-1.5-3L22.4,57.7z M11.6,72.8c-0.3-0.1-0.7-0.2-1.1-0.3    c-0.3-0.1-0.7-0.2-1-0.3c0-2.7,0.2-5.1,0.6-7.2l2.7,0.9L11.6,72.8z M23.8,79.1l-1.5,0c-6.2,0-8.9-0.5-9.1-5c0-0.1,0-0.2,0-0.2l0,0    c0,0,0-0.1,0-0.3H16c-0.1,0.3-0.3,0.6-0.6,0.9c-0.5,0.5-1.2,0.7-1.2,0.7l0.2,0.7l0.1,0.7c0.1,0,1.1-0.3,1.9-1.1    c0.7-0.7,1-1.6,1.1-1.8h6.2V79.1z M13,72.2c0-0.7,0-1.7,0.1-2.7c0.1-2.4,0.3-6.2,0.3-6.2l-0.2,1.1l-2.7-0.9c0.9-3.7,2.4-6.3,4.7-8    c0.4,0.3,0.8,0.5,1.3,0.7l2.7,5.6l2.6-2c0.7,0.2,1.5,0.2,2.3,0.2c0.9,0,1.8-0.1,2.6-0.3l2.6,2.1l2.7-5.6c0.6-0.3,1.2-0.6,1.7-1    c0.1,0.1,0.3,0.2,0.4,0.3c-0.6,0.6-1.1,1.3-1.6,2.1c-2.2,3.6-3.5,8.3-4,14.5H13z M25.2,73.6h3.3c-0.1,1.2-0.1,2.4-0.1,3.7    c0,0.8,0.5,1.3,1.3,1.6c-1.3,0.1-2.8,0.1-4.5,0.1V73.6z M65.1,76.7l0,1.8c0,0.3,0,0.4,0,0.4l0,0c0,0.1-0.1,0.2-0.1,0.3    c-0.4,5.9-4.8,6.3-13.8,6.4l-1.8,0l-2,0c-7.9,0-11.5-0.6-11.7-6.4c0-0.1,0-0.2-0.1-0.3l0,0c0,0,0-0.2,0-0.4l0-1.8    c0-0.9,0-2.1,0.1-3.4c0.2-3.1,0.3-7.9,0.3-7.9l-2.2,12.1c-0.4-0.1-0.9-0.3-1.4-0.4c-0.4-0.1-0.9-0.3-1.3-0.4    c0.1-10.7,2.4-17.6,7.3-21.3c1.1,0.7,2.3,1.3,3.5,1.8l0.1,0c0,4.2,2.8,9,6.6,10v3.7c-1.8,0.6-3,2.2-3,4.2c0,2.4,2,4.4,4.4,4.4    c2.4,0,4.4-2,4.4-4.4c0-1.9-1.3-3.6-3-4.2v-3.7c3.8-1,6.6-5.8,6.6-10c1.5-0.6,2.9-1.3,4.2-2.2c5.7,3.9,7.2,11.5,7.3,21.6    c-0.4,0.1-0.9,0.3-1.3,0.4c-0.4,0.1-0.9,0.3-1.2,0.4c0-0.1,0-0.2-0.1-0.2l-2.1-11.8c0,0,0.2,4.8,0.3,7.9    C65.1,74.5,65.1,75.7,65.1,76.7z M76,79.1h-2.2c-1.1,0-2.1,0-3-0.1c0.9-0.4,1.4-0.8,1.4-1.7c0-0.5,0-1,0-1.5h15    C86.1,78.9,82.5,79.1,76,79.1z M89.9,72.4c-0.3,0.1-0.7,0.2-1,0.3l-1.7-9.4c0,0,0.1,3.8,0.3,6.2s0,4.4,0,4.4    c0,0.1-0.1,0.1-0.1,0.2H76.6v-2.9l6.9-8.9c0.1-0.2,0.2-0.6,0.1-0.8l-0.7-1.3l1.4-1.1c0.1-0.1,0.3-0.3,0.3-0.5    c0-0.2-0.1-0.3-0.2-0.6l-1.4-1.5c0.8-0.3,1.6-0.8,2.3-1.3c4.4,3.1,5.6,9,5.6,16.8C90.6,72.2,90.2,72.4,89.9,72.4z"/><path d="M45.1,48.9c1.1,0,2-0.9,2-2v-2.3c0-1.1-0.9-2-2-2s-2,0.9-2,2V47C43.2,48.1,44,48.9,45.1,48.9z"/><path d="M54.9,48.9c1.1,0,2-0.9,2-2v-2.3c0-1.1-0.9-2-2-2c-1.1,0-2,0.9-2,2V47C52.9,48.1,53.8,48.9,54.9,48.9z"/><path d="M46.1,51.4c-0.2,0.4,0,1,0.4,1.2c0.1,0,1.4,0.7,3.4,0.7c2.2,0,3.5-0.7,3.6-0.7c0.4-0.2,0.6-0.8,0.4-1.2    c-0.2-0.4-0.8-0.6-1.2-0.4c0,0-1,0.5-2.7,0.5c-1.5,0-2.5-0.5-2.6-0.5C46.9,50.8,46.4,51,46.1,51.4z"/></g></g><text x="0" y="115" fill="#000000" font-size="5px" font-weight="bold" font-family="'Helvetica Neue', Helvetica, Arial-Unicode, Arial, Sans-serif">Created by Javier Cabezas</text><text x="0" y="120" fill="#000000" font-size="5px" font-weight="bold" font-family="'Helvetica Neue', Helvetica, Arial-Unicode, Arial, Sans-serif">from the Noun Project</text></svg>