<svg xmlns="http://www.w3.org/2000/svg" data-name="Layer 1" viewBox="0 0 512 640" x="0px" y="0px"><defs><style>.cls-1{fill:none;}</style></defs><title>d5</title><rect class="cls-1" x="205" y="29" width="102" height="23" rx="9.33" ry="9.33"/><path class="cls-1" d="M189.45,430.47c-1.68-20.62-3.25-41.26-5-61.87-2.27-26.07-4.77-52.12-7.09-78.18-2.12-23.83-4-47.69-6.24-71.51-0.83-8.78-8.31-14.36-16.82-13.34-7.4.88-13.52,8.26-12.89,15.9q3.51,42.1,7.21,84.19c3.86,43.19,7.89,86.37,11.77,129.56,0.93,10.38,7.11,17,15.64,16.33,8.72-.7,13.78-7.17,13.54-17.33,0-1.25-.11-2.5-0.17-3.74h0.09Z"/><path class="cls-1" d="M270.43,220.43c-0.09-10.59-7.63-16.73-17.7-14.94-7.08,1.26-11.37,7.15-11.38,16.11q-0.08,53.23,0,106.46,0,20.62,0,41.24c0,21.49-.05,43,0,64.48,0,11.24,5.58,18.15,14.4,18.22,9.18,0.06,14.73-6.95,14.77-18.63,0-.5,0-1,0-1.5q0-73.48,0-147C270.52,263.42,270.62,241.93,270.43,220.43Z"/><path class="cls-1" d="M357.37,205.56c-8.27-.87-15.74,4.53-16.57,12.74-1.79,17.86-3.18,35.77-4.69,53.66-1.66,19.63-3.17,39.28-4.91,58.91-2.93,33-6,66-9,99.06l0.32,0c-0.11,2-.29,4-0.31,6-0.06,8.73,5.51,15,13.78,15.64,7.7,0.57,14.62-5.82,15.39-14.25,3-32.52,6-65,8.89-97.58,3.44-39.25,6.69-78.52,10-117.77C371,213.79,365.23,206.38,357.37,205.56Z"/><path d="M443,144.34H256v0q-94.5,0-189-.07c-6.17,0-8.86.83-7.58,8.44,3.74,22.11,6.52,44.39,9.61,66.6Q75.53,265.56,82,311.85c4.17,29.61,8.52,59.21,12.66,88.82,4.7,33.58,9.24,67.17,13.89,100.75,1,7.25,4.7,10.59,12.61,10.57q134.72-.31,269.43-0.14c8.8,0,11.62-2.39,12.86-11.07q4.65-32.57,9.12-65.16c6.12-44.45,12.11-88.91,18.31-133.35q10.34-74.05,20.84-148.07C453.1,144.34,452.89,144.34,443,144.34ZM176,451.54c-8.53.69-14.71-6-15.64-16.33-3.88-43.19-7.91-86.37-11.77-129.56q-3.76-42.08-7.21-84.19c-0.64-7.64,5.48-15,12.89-15.9,8.5-1,16,4.56,16.82,13.34,2.26,23.82,4.12,47.67,6.24,71.51,2.31,26.06,4.81,52.11,7.09,78.18,1.8,20.61,3.37,41.25,5,61.87h-0.09c0.06,1.25.14,2.5,0.17,3.74C189.78,444.37,184.71,450.84,176,451.54Zm94.53-18.18c0,11.68-5.6,18.69-14.77,18.63-8.82-.06-14.37-7-14.4-18.22-0.05-21.49,0-43,0-64.48q0-20.62,0-41.24,0-53.23,0-106.46c0-9,4.31-14.85,11.38-16.11,10.07-1.79,17.61,4.35,17.7,14.94,0.18,21.49.08,43,.09,64.48q0,73.48,0,147C270.52,432.36,270.52,432.86,270.52,433.36ZM370.34,222c-3.35,39.26-6.6,78.52-10,117.77-2.85,32.54-5.91,65.05-8.89,97.58-0.77,8.43-7.69,14.81-15.39,14.25-8.27-.61-13.84-6.91-13.78-15.64,0-2,.2-4,0.31-6l-0.32,0c3-33,6.05-66,9-99.06,1.74-19.63,3.25-39.27,4.91-58.91,1.51-17.89,2.9-35.79,4.69-53.66,0.82-8.22,8.29-13.61,16.57-12.74C365.23,206.38,371,213.79,370.34,222Z"/><path d="M471.24,88.17c-0.15-12.21-5.22-22.38-16-27.78a57.92,57.92,0,0,0-23.56-5.66c-23.75-.72-47.53-0.39-71.3-0.18-5.62,0-7.84-1.34-7.9-7.55C352.22,21,330.81.13,304.83,0.07q-49.17-.13-98.34,0c-25.07.07-46.78,21.06-47.11,46-0.09,6.61-2,8.59-8.59,8.51-24.52-.3-49-0.2-73.56,0-23,.2-36.64,14.27-36.61,37.21,0,7.51,0,15,0,22.52,0,10.09,0,10.11,10.32,10.12H255v0c69,0,138.71-.06,208,0.11,6,0,8.71-1.3,8.37-7.85C470.89,107.21,471.36,97.68,471.24,88.17ZM307,42.67A9.33,9.33,0,0,1,297.67,52H214.33A9.33,9.33,0,0,1,205,42.67V38.33A9.33,9.33,0,0,1,214.33,29h83.33A9.33,9.33,0,0,1,307,38.33v4.33Z"/><text x="0" y="527" fill="#000000" font-size="5px" font-weight="bold" font-family="'Helvetica Neue', Helvetica, Arial-Unicode, Arial, Sans-serif">Created by i cons</text><text x="0" y="532" fill="#000000" font-size="5px" font-weight="bold" font-family="'Helvetica Neue', Helvetica, Arial-Unicode, Arial, Sans-serif">from the Noun Project</text></svg>