<svg xmlns:dc="http://purl.org/dc/elements/1.1/" xmlns:cc="http://creativecommons.org/ns#" xmlns:rdf="http://www.w3.org/1999/02/22-rdf-syntax-ns#" xmlns:svg="http://www.w3.org/2000/svg" xmlns="http://www.w3.org/2000/svg" xmlns:sodipodi="http://sodipodi.sourceforge.net/DTD/sodipodi-0.dtd" xmlns:inkscape="http://www.inkscape.org/namespaces/inkscape" version="1.1" x="0px" y="0px" viewBox="0 0 100 125"><title>Slacklining</title><g transform="translate(0,-952.36218)"><path style="" d="m 70.320339,1042.851 -22.77966,-4.4734 -21.261016,-9.4738 c -20.7917046,-9.2646 -21.5411401,-9.3626 -20.9057424,-10.9732 0.3590158,-0.9099 9.2686164,3.6272 21.7636514,9.1886 l 21.162429,9.4193 22.935195,4.465 c 12.614362,2.4558 23.101453,4.6313 23.304652,4.8345 0.538978,0.539 0.0243,1.5655 -0.763529,1.5229 -0.371976,-0.02 -10.927167,-2.0496 -23.45598,-4.5099 z" fill="#000000" fill-opacity="1" stroke="none"/><path style="" d="m 46.404122,1024.658 c -0.492269,-4.9035 -1.32109,-11.5867 -1.841824,-14.8515 -0.520733,-3.2648 -1.129605,-9.0966 -1.353047,-12.95969 -0.382841,-6.61886 -1.537694,-14.06448 -2.613557,-16.85022 -0.405562,-1.05013 -0.495098,-1.08408 -2.216309,-0.84047 -4.933924,0.69832 -9.118774,0.71316 -11.966941,0.0424 -4.684857,-1.10326 -6.808346,-2.70533 -5.567527,-4.20042 0.655527,-0.78986 1.974953,-0.69145 6.000699,0.44756 l 3.548038,1.00385 3.74328,-0.62167 c 4.993859,-0.82936 7.699439,-0.78601 10.526381,0.16866 2.063731,0.69693 2.644491,0.74292 4.914397,0.38922 4.914834,-0.76586 6.585611,-1.46026 8.648678,-3.59453 3.706824,-3.83475 4.052478,-4.60012 4.263365,-9.44012 0.196261,-4.50435 0.682938,-5.98892 1.963307,-5.98892 0.387243,0 0.88715,0.22058 1.110899,0.49018 0.609625,0.73456 1.158608,7.2052 0.782231,9.21985 -0.546959,2.92771 -2.579387,6.15551 -6.425809,10.20514 -3.773405,3.97275 -6.060095,6.96618 -6.060095,7.93308 0,0.83363 2.116261,6.68357 3.578957,9.89323 3.797192,8.29257 20.788149,25.94817 18.377717,28.07917 -2.938257,2.3938 -4.464947,-3.0685 -11.204932,-9.7875 -5.567505,-5.5501 -10.796628,-10.0943 -11.043927,-10.0943 -1.682217,0 -2.287653,4.0594 -2.746315,18.4135 -0.610942,8.3798 1.258882,12.4704 -1.918966,12.7187 -3.177848,0.2483 -2.490598,-3.4655 -2.4987,-9.7752 z" fill="#000000" fill-opacity="1" stroke="none"/><path style="" d="m 66.670067,42.421307 a 7.8286824,7.5761442 0 1 1 -1.01e-4,-0.03847" transform="matrix(0.67894618,0,0,0.70157588,7.7590984,939.78612)" fill="#000000" fill-opacity="1" stroke="none"/></g><text x="0" y="115" fill="#000000" font-size="5px" font-weight="bold" font-family="'Helvetica Neue', Helvetica, Arial-Unicode, Arial, Sans-serif">Created by Alec Dhuse</text><text x="0" y="120" fill="#000000" font-size="5px" font-weight="bold" font-family="'Helvetica Neue', Helvetica, Arial-Unicode, Arial, Sans-serif">from the Noun Project</text></svg>