<svg id="Layer_1" data-name="Layer 1" xmlns="http://www.w3.org/2000/svg" viewBox="0 0 350 350"><defs><style>.cls-1{fill:none;stroke:#e6e6e6;stroke-miterlimit:10;stroke-width:23px;}</style></defs><title>Polymath Strategic Services</title><polygon class="cls-1" points="192 110.3 237 178.5 189.4 238.8 115.1 208 116.7 128.5 192 110.3"/><path d="M91.9,168.3a27.1,27.1,0,0,1-4.6-.5v15.6c0,0.8.1,0.9,0.9,0.9h4.4c0.2,0,.3.1,0.3,0.5s-0.1.5-.3,0.5H79.8c-0.2,0-.3-0.1-0.3-0.5s0.1-.5.3-0.5H83c0.8,0,.9-0.1.9-0.9V148.3c0-.8-0.1-0.9-0.9-0.9H80c-0.2,0-.3-0.1-0.3-0.5s0.1-.5.3-0.5H92.6c7.1,0,12,4.5,12,10.7S98.5,168.3,91.9,168.3Zm0.7-20.9H88.2c-0.8,0-.9.1-0.9,0.9v18.6a20.8,20.8,0,0,0,4.6.5,9.4,9.4,0,0,0,6.6-2.3c1.6-1.6,2.3-3.5,2.3-7.9C100.8,149.9,97.4,147.4,92.6,147.4Z"/><path d="M116.9,185.9c-6,0-10.2-5.3-10.2-12.2s4.4-11.8,10.2-11.8,10.2,4.9,10.2,11.8S122.8,185.9,116.9,185.9Zm-4.4-2.6a6.7,6.7,0,0,0,8.8,0c1.5-1.5,2.8-3.9,2.8-9.6s-1.4-7.7-2.8-9.2a6.7,6.7,0,0,0-8.8,0c-1.5,1.5-2.8,3.4-2.8,9.2S111,181.8,112.5,183.3Z"/><path d="M131.9,184.3H134c0.8,0,.9-0.1.9-0.9v-36c0-.8-0.1-0.9-0.9-0.9h-1.6c-0.2,0-.3-0.1-0.3-0.5s0.1-.5.3-0.5h4.3c0.8,0,.9.1,0.9,0.9v37c0,0.8.1,0.9,0.9,0.9h2.4c0.2,0,.3.1,0.3,0.5s-0.1.5-.3,0.5h-9c-0.2,0-.3-0.1-0.3-0.5S131.6,184.3,131.9,184.3Z"/><path d="M142.3,162.6h9.2c0.2,0,.3.1,0.3,0.5s-0.1.5-.4,0.5h-3c-0.8,0-.8.1-0.5,0.9l5.4,13.9c0.5,1.3,1.1,2.8,1.4,4.1H155l4.5-12.8c2.1-5.9,1.8-6-2.3-6.1q-0.3,0-.3-0.5c0-.4.1-0.5,0.3-0.5h8.3c0.2,0,.3.1,0.3,0.5s-0.1.5-.3,0.5c-2.6.1-2.8,0.3-5,6.4l-8.4,23.7c-1.6,4.4-3.1,5.9-5.3,5.9a3.8,3.8,0,0,1-3.9-3.4,2.9,2.9,0,0,1,2.5-3,1.4,1.4,0,0,1,1.5,1.4c0,1.2-1.4,1.9-1.4,2.9s0.5,1.2,1.5,1.2,2.6-1.1,4.2-5.3l2.8-7.8h-0.1a0.5,0.5,0,0,1-.5-0.4l-7.9-20.6a1,1,0,0,0-1.2-.9h-2c-0.2,0-.3-0.1-0.3-0.5S142.1,162.6,142.3,162.6Z"/><path d="M168.2,184.3h2.2c0.8,0,.9-0.1.9-0.9v-19c0-.8-0.1-0.9-0.9-0.9h-1.8c-0.2,0-.3-0.1-0.3-0.5s0.1-.5.3-0.5h4.4c0.8,0,.9.1,0.9,0.9s-0.2,2.5-.2,3h0.2a7.1,7.1,0,0,1,6.6-4.6,7.4,7.4,0,0,1,7,4.5A7.1,7.1,0,0,1,194,162c4.7,0,7.6,2.6,7.6,7.9v13.6c0,0.8.1,0.9,0.9,0.9h2.1c0.2,0,.3.1,0.3,0.5s-0.1.5-.3,0.5h-9c-0.2,0-.3-0.1-0.3-0.5s0.1-.5.3-0.5h2.5c0.8,0,.9-0.1.9-0.9v-14c0-4.3-2.2-6.3-5.8-6.3a5.4,5.4,0,0,0-5.4,5.7v14.6c0,0.8.1,0.9,0.9,0.9h2.1c0.2,0,.3.1,0.3,0.5s-0.1.5-.3,0.5h-9.1c-0.2,0-.3-0.1-0.3-0.5s0.1-.5.3-0.5h2.5c0.8,0,.9-0.1.9-0.9V169.5c0-4.2-2.2-6.4-5.5-6.4s-5.1,2.2-5.8,5.3v15c0,0.8.1,0.9,0.9,0.9h2.1c0.2,0,.3.1,0.3,0.5s-0.1.5-.3,0.5h-8.7c-0.2,0-.3-0.1-0.3-0.5S168,184.3,168.2,184.3Z"/><path d="M217,172.6a10.5,10.5,0,0,1,4.8,1v-5.9c0-3.1-2.1-4.8-5.1-4.8s-4.5,1.1-4.5,2.2,0.8,1.4.8,2.8a1.6,1.6,0,0,1-1.6,1.6,2,2,0,0,1-1.7-2.2c0-2.6,2.7-5.4,7.1-5.4s7.6,2.3,7.6,7.4v12.9c0,1.7.5,2.3,1.6,2.3a3.2,3.2,0,0,0,2.1-.8c0.2-.2.8,0.5,0.6,0.7a4.4,4.4,0,0,1-3.2,1.3c-2.1,0-3.1-1.2-3.3-4.1H222a5.9,5.9,0,0,1-6,4.3c-4.5,0-7.3-2.9-7.3-6.5S212.7,172.6,217,172.6ZM216.6,185c2.6,0,4.7-2.1,5.2-5.6v-4.7a8.6,8.6,0,0,0-4.4-1.1c-3.6,0-5.7,1.4-5.7,5.8S213.5,185,216.6,185Z"/><path d="M230.8,162.6H234a18.1,18.1,0,0,0,1.7-8.2h0.4c0.4,0,.5.2,0.5,0.6v7.6h6.9c0.2,0,.3.1,0.3,0.5s-0.1.5-.3,0.5h-6.9v17.8c0,2.2.9,3.2,2.7,3.2s3.2-1.2,4.2-3.1c0.2-.3,1,0.1.8,0.4a6.9,6.9,0,0,1-5.9,4.1c-2.9,0-4.5-2.2-4.5-5.5V163.5h-3.2c-0.2,0-.3-0.1-0.3-0.5S230.5,162.6,230.8,162.6Z"/><path d="M247.9,184.3h2.2c0.8,0,.9-0.1.9-0.9v-36c0-.8-0.1-0.9-0.9-0.9h-1.6c-0.2,0-.3-0.1-0.3-0.5s0.1-.5.3-0.5h4.3c0.8,0,.9.1,0.9,0.9V162c0,1.1-.2,3.5-0.3,4.7h0.2a7.7,7.7,0,0,1,7.2-4.9c4.4,0,7.3,2.6,7.3,7.9v13.6c0,0.8.1,0.9,0.9,0.9h2.2c0.2,0,.3.1,0.3,0.5s-0.1.5-.3,0.5h-9c-0.2,0-.3-0.1-0.3-0.5s0.1-.5.3-0.5h2.4c0.8,0,.9-0.1.9-0.9v-14c0-4.3-2.2-6.3-5.4-6.3s-5.7,2.4-6.3,6v14.3c0,0.8.1,0.9,0.9,0.9H257c0.2,0,.3.1,0.3,0.5s-0.1.5-.3,0.5h-9c-0.2,0-.3-0.1-0.3-0.5S247.7,184.3,247.9,184.3Z"/></svg>