<?xml version="1.0" encoding="utf-8"?>
<!-- Generator: Adobe Illustrator 19.1.1, SVG Export Plug-In . SVG Version: 6.00 Build 0)  -->
<svg version="1.1"
	 id="svg2" xmlns:sodipodi="http://sodipodi.sourceforge.net/DTD/sodipodi-0.dtd" xmlns:inkscape="http://www.inkscape.org/namespaces/inkscape" xmlns:svg="http://www.w3.org/2000/svg" xmlns:rdf="http://www.w3.org/1999/02/22-rdf-syntax-ns#" xmlns:cc="http://creativecommons.org/ns#" xmlns:dc="http://purl.org/dc/elements/1.1/" sodipodi:docname="paper.svg" inkscape:version="0.47 r22583"
	 xmlns="http://www.w3.org/2000/svg" xmlns:xlink="http://www.w3.org/1999/xlink" x="0px" y="0px" viewBox="-172 236.9 266.1 320.1"
	 style="enable-background:new -172 236.9 266.1 320.1;" xml:space="preserve">
<style type="text/css">
	.st0{fill:#F6F6F0;stroke:#868686;stroke-width:0.4;}
	.st1{fill:none;stroke:#A7A7A7;stroke-width:0.4;}
	.st2{fill:#7B7B7B;}
	.st3{fill:none;stroke:#C0C0C0;stroke-width:0.4;}
	.st4{fill:none;stroke:#838383;stroke-width:0.5;}
	.st5{fill:none;stroke:#838383;stroke-width:0.5;stroke-linecap:round;stroke-linejoin:round;}
	.st6{fill:none;stroke:#7F7F7F;stroke-width:0.4;}
	.st7{fill:none;stroke:#5E5E5E;stroke-width:0.3;}
	.st8{fill:none;stroke:#5E5E5E;stroke-width:0.3;stroke-linecap:round;stroke-linejoin:round;}
	.st9{fill:#C4C4C4;stroke:#5E5E5E;stroke-width:0.3;stroke-linecap:round;stroke-linejoin:round;}
	.st10{fill:#E2E2E2;stroke:#5E5E5E;stroke-width:0.3;stroke-linecap:round;stroke-linejoin:round;}
	.st11{fill:none;stroke:#808080;stroke-width:0.3;}
	.st12{fill:#E2E2E2;stroke:#808080;stroke-width:0.3;stroke-linecap:round;stroke-linejoin:round;}
</style>
<defs>
	
	
		<inkscape:perspective  id="perspective10" inkscape:vp_z="744.09448 : 526.18109 : 1" inkscape:vp_x="0 : 526.18109 : 1" inkscape:vp_y="0 : 1000 : 0" sodipodi:type="inkscape:persp3d" inkscape:persp3d-origin="372.04724 : 350.78739 : 1">
		</inkscape:perspective>
	
		<inkscape:perspective  id="perspective3604" inkscape:vp_z="1 : 0.5 : 1" inkscape:vp_x="0 : 0.5 : 1" inkscape:vp_y="0 : 1000 : 0" sodipodi:type="inkscape:persp3d" inkscape:persp3d-origin="0.5 : 0.33333333 : 1">
		</inkscape:perspective>
	
		<inkscape:perspective  id="perspective3650" inkscape:vp_z="1 : 0.5 : 1" inkscape:vp_x="0 : 0.5 : 1" inkscape:vp_y="0 : 1000 : 0" sodipodi:type="inkscape:persp3d" inkscape:persp3d-origin="0.5 : 0.33333333 : 1">
		</inkscape:perspective>
	
		<inkscape:perspective  id="perspective3672" inkscape:vp_z="1 : 0.5 : 1" inkscape:vp_x="0 : 0.5 : 1" inkscape:vp_y="0 : 1000 : 0" sodipodi:type="inkscape:persp3d" inkscape:persp3d-origin="0.5 : 0.33333333 : 1">
		</inkscape:perspective>
	
		<inkscape:perspective  id="perspective3802" inkscape:vp_z="1 : 0.5 : 1" inkscape:vp_x="0 : 0.5 : 1" inkscape:vp_y="0 : 1000 : 0" sodipodi:type="inkscape:persp3d" inkscape:persp3d-origin="0.5 : 0.33333333 : 1">
		</inkscape:perspective>
	
		<inkscape:perspective  id="perspective3824" inkscape:vp_z="1 : 0.5 : 1" inkscape:vp_x="0 : 0.5 : 1" inkscape:vp_y="0 : 1000 : 0" sodipodi:type="inkscape:persp3d" inkscape:persp3d-origin="0.5 : 0.33333333 : 1">
		</inkscape:perspective>
	
		<inkscape:perspective  id="perspective3849" inkscape:vp_z="1 : 0.5 : 1" inkscape:vp_x="0 : 0.5 : 1" inkscape:vp_y="0 : 1000 : 0" sodipodi:type="inkscape:persp3d" inkscape:persp3d-origin="0.5 : 0.33333333 : 1">
		</inkscape:perspective>
	
		<inkscape:perspective  id="perspective3849-6" inkscape:vp_z="1 : 0.5 : 1" inkscape:vp_x="0 : 0.5 : 1" inkscape:vp_y="0 : 1000 : 0" sodipodi:type="inkscape:persp3d" inkscape:persp3d-origin="0.5 : 0.33333333 : 1">
		</inkscape:perspective>
	
		<inkscape:perspective  id="perspective3895" inkscape:vp_z="1 : 0.5 : 1" inkscape:vp_x="0 : 0.5 : 1" inkscape:vp_y="0 : 1000 : 0" sodipodi:type="inkscape:persp3d" inkscape:persp3d-origin="0.5 : 0.33333333 : 1">
		</inkscape:perspective>
	
		<inkscape:perspective  id="perspective3948" inkscape:vp_z="1 : 0.5 : 1" inkscape:vp_x="0 : 0.5 : 1" inkscape:vp_y="0 : 1000 : 0" sodipodi:type="inkscape:persp3d" inkscape:persp3d-origin="0.5 : 0.33333333 : 1">
		</inkscape:perspective>
	
		<inkscape:perspective  id="perspective3970" inkscape:vp_z="1 : 0.5 : 1" inkscape:vp_x="0 : 0.5 : 1" inkscape:vp_y="0 : 1000 : 0" sodipodi:type="inkscape:persp3d" inkscape:persp3d-origin="0.5 : 0.33333333 : 1">
		</inkscape:perspective>
	
		<inkscape:perspective  id="perspective3995" inkscape:vp_z="1 : 0.5 : 1" inkscape:vp_x="0 : 0.5 : 1" inkscape:vp_y="0 : 1000 : 0" sodipodi:type="inkscape:persp3d" inkscape:persp3d-origin="0.5 : 0.33333333 : 1">
		</inkscape:perspective>
	
		<inkscape:perspective  id="perspective4026" inkscape:vp_z="1 : 0.5 : 1" inkscape:vp_x="0 : 0.5 : 1" inkscape:vp_y="0 : 1000 : 0" sodipodi:type="inkscape:persp3d" inkscape:persp3d-origin="0.5 : 0.33333333 : 1">
		</inkscape:perspective>
	
		<inkscape:perspective  id="perspective4069" inkscape:vp_z="1 : 0.5 : 1" inkscape:vp_x="0 : 0.5 : 1" inkscape:vp_y="0 : 1000 : 0" sodipodi:type="inkscape:persp3d" inkscape:persp3d-origin="0.5 : 0.33333333 : 1">
		</inkscape:perspective>
	
		<inkscape:perspective  id="perspective4136" inkscape:vp_z="1 : 0.5 : 1" inkscape:vp_x="0 : 0.5 : 1" inkscape:vp_y="0 : 1000 : 0" sodipodi:type="inkscape:persp3d" inkscape:persp3d-origin="0.5 : 0.33333333 : 1">
		</inkscape:perspective>
	
		<inkscape:perspective  id="perspective4194" inkscape:vp_z="1 : 0.5 : 1" inkscape:vp_x="0 : 0.5 : 1" inkscape:vp_y="0 : 1000 : 0" sodipodi:type="inkscape:persp3d" inkscape:persp3d-origin="0.5 : 0.33333333 : 1">
		</inkscape:perspective>
	
		<inkscape:perspective  id="perspective4216" inkscape:vp_z="1 : 0.5 : 1" inkscape:vp_x="0 : 0.5 : 1" inkscape:vp_y="0 : 1000 : 0" sodipodi:type="inkscape:persp3d" inkscape:persp3d-origin="0.5 : 0.33333333 : 1">
		</inkscape:perspective>
	
		<inkscape:perspective  id="perspective4238" inkscape:vp_z="1 : 0.5 : 1" inkscape:vp_x="0 : 0.5 : 1" inkscape:vp_y="0 : 1000 : 0" sodipodi:type="inkscape:persp3d" inkscape:persp3d-origin="0.5 : 0.33333333 : 1">
		</inkscape:perspective>
	
		<inkscape:perspective  id="perspective4262" inkscape:vp_z="1 : 0.5 : 1" inkscape:vp_x="0 : 0.5 : 1" inkscape:vp_y="0 : 1000 : 0" sodipodi:type="inkscape:persp3d" inkscape:persp3d-origin="0.5 : 0.33333333 : 1">
		</inkscape:perspective>
	
		<inkscape:perspective  id="perspective4284" inkscape:vp_z="1 : 0.5 : 1" inkscape:vp_x="0 : 0.5 : 1" inkscape:vp_y="0 : 1000 : 0" sodipodi:type="inkscape:persp3d" inkscape:persp3d-origin="0.5 : 0.33333333 : 1">
		</inkscape:perspective>
	
		<inkscape:perspective  id="perspective4308" inkscape:vp_z="1 : 0.5 : 1" inkscape:vp_x="0 : 0.5 : 1" inkscape:vp_y="0 : 1000 : 0" sodipodi:type="inkscape:persp3d" inkscape:persp3d-origin="0.5 : 0.33333333 : 1">
		</inkscape:perspective>
	
		<inkscape:perspective  id="perspective4308-1" inkscape:vp_z="1 : 0.5 : 1" inkscape:vp_x="0 : 0.5 : 1" inkscape:vp_y="0 : 1000 : 0" sodipodi:type="inkscape:persp3d" inkscape:persp3d-origin="0.5 : 0.33333333 : 1">
		</inkscape:perspective>
	
		<inkscape:perspective  id="perspective4345" inkscape:vp_z="1 : 0.5 : 1" inkscape:vp_x="0 : 0.5 : 1" inkscape:vp_y="0 : 1000 : 0" sodipodi:type="inkscape:persp3d" inkscape:persp3d-origin="0.5 : 0.33333333 : 1">
		</inkscape:perspective>
	
		<inkscape:perspective  id="perspective4367" inkscape:vp_z="1 : 0.5 : 1" inkscape:vp_x="0 : 0.5 : 1" inkscape:vp_y="0 : 1000 : 0" sodipodi:type="inkscape:persp3d" inkscape:persp3d-origin="0.5 : 0.33333333 : 1">
		</inkscape:perspective>
	
		<inkscape:perspective  id="perspective4389" inkscape:vp_z="1 : 0.5 : 1" inkscape:vp_x="0 : 0.5 : 1" inkscape:vp_y="0 : 1000 : 0" sodipodi:type="inkscape:persp3d" inkscape:persp3d-origin="0.5 : 0.33333333 : 1">
		</inkscape:perspective>
	
		<inkscape:perspective  id="perspective4411" inkscape:vp_z="1 : 0.5 : 1" inkscape:vp_x="0 : 0.5 : 1" inkscape:vp_y="0 : 1000 : 0" sodipodi:type="inkscape:persp3d" inkscape:persp3d-origin="0.5 : 0.33333333 : 1">
		</inkscape:perspective>
	
		<inkscape:perspective  id="perspective4435" inkscape:vp_z="1 : 0.5 : 1" inkscape:vp_x="0 : 0.5 : 1" inkscape:vp_y="0 : 1000 : 0" sodipodi:type="inkscape:persp3d" inkscape:persp3d-origin="0.5 : 0.33333333 : 1">
		</inkscape:perspective>
	
		<inkscape:perspective  id="perspective4435-4" inkscape:vp_z="1 : 0.5 : 1" inkscape:vp_x="0 : 0.5 : 1" inkscape:vp_y="0 : 1000 : 0" sodipodi:type="inkscape:persp3d" inkscape:persp3d-origin="0.5 : 0.33333333 : 1">
		</inkscape:perspective>
	
		<inkscape:perspective  id="perspective4550" inkscape:vp_z="1 : 0.5 : 1" inkscape:vp_x="0 : 0.5 : 1" inkscape:vp_y="0 : 1000 : 0" sodipodi:type="inkscape:persp3d" inkscape:persp3d-origin="0.5 : 0.33333333 : 1">
		</inkscape:perspective>
</defs>
<sodipodi:namedview  id="base" inkscape:cy="162.53001" showguides="true" pagecolor="#ffffff" inkscape:cx="256.50271" borderopacity="1.0" inkscape:zoom="1.5266843" bordercolor="#666666" showgrid="false" inkscape:guide-bbox="true" inkscape:window-maximized="1" inkscape:window-y="-3" inkscape:window-x="-4" inkscape:window-height="852" inkscape:window-width="1440" inkscape:current-layer="layer1" inkscape:document-units="px" inkscape:pageshadow="2" inkscape:pageopacity="0.0">
	</sodipodi:namedview>
<g id="layer1" transform="translate(-127.79381,-58.911562)" inkscape:label="Layer 1" inkscape:groupmode="layer">
	<g id="g4564">
		
			<rect id="rect2816-1-4" x="4.7" y="317.5" transform="matrix(-0.9965 8.346779e-002 -8.346779e-002 -0.9965 247.8412 901.7458)" class="st0" width="200.8" height="277.2"/>
		
			<rect id="rect2816-1" x="-3" y="317.6" transform="matrix(-0.9835 0.1807 -0.1807 -0.9835 275.7193 887.2003)" class="st0" width="200.8" height="277.2"/>
		<g id="g4458" transform="matrix(0.96592583,-0.25881905,0.25881905,0.96592583,-47.787024,74.975036)">
			<rect id="rect2816" x="-67" y="264.7" class="st0" width="200.8" height="277.2"/>
			<path id="path3590" class="st1" d="M-54.7,279.6l177.2,0"/>
			<g id="text3592-2" transform="matrix(0.85519311,0,0,0.85519311,50.82744,49.507523)">
				<path id="path3786" class="st2" d="M75.7,563l1-0.5h0.1v3.4c0,0.2,0,0.4,0,0.4c0,0.1,0.1,0.1,0.1,0.1s0.2,0,0.4,0v0.1h-1.5v-0.1
					c0.2,0,0.3,0,0.4,0c0.1,0,0.1-0.1,0.1-0.1c0,0,0-0.2,0-0.4v-2.1c0-0.3,0-0.5,0-0.6c0-0.1,0-0.1-0.1-0.1c0,0-0.1,0-0.1,0
					C75.9,563,75.8,563.1,75.7,563L75.7,563"/>
				<path id="path3788" class="st2" d="M78.3,563.4c0.1-0.3,0.3-0.5,0.4-0.6c0.2-0.1,0.4-0.2,0.6-0.2c0.3,0,0.6,0.1,0.7,0.3
					c0.1,0.2,0.2,0.3,0.2,0.5c0,0.3-0.2,0.6-0.5,0.9c0.2,0.1,0.4,0.2,0.6,0.4s0.2,0.4,0.2,0.6c0,0.3-0.1,0.6-0.3,0.9
					c-0.3,0.3-0.7,0.5-1.2,0.5c-0.3,0-0.5,0-0.5-0.1c-0.1-0.1-0.1-0.1-0.1-0.2c0-0.1,0-0.1,0.1-0.1c0,0,0.1-0.1,0.2-0.1
					c0,0,0.1,0,0.1,0c0,0,0.1,0,0.2,0.1c0.1,0.1,0.2,0.1,0.2,0.1c0.1,0,0.1,0,0.2,0c0.2,0,0.4-0.1,0.5-0.2c0.1-0.2,0.2-0.3,0.2-0.5
					c0-0.2,0-0.3-0.1-0.5c-0.1-0.1-0.1-0.2-0.2-0.2c-0.1-0.1-0.2-0.1-0.3-0.2c-0.1-0.1-0.3-0.1-0.4-0.1h-0.1v-0.1
					c0.2,0,0.3-0.1,0.5-0.2c0.2-0.1,0.3-0.2,0.3-0.3s0.1-0.3,0.1-0.4c0-0.2-0.1-0.4-0.2-0.5c-0.1-0.1-0.3-0.2-0.5-0.2
					C78.8,563,78.6,563.1,78.3,563.4L78.3,563.4"/>
				<path id="path3790" class="st2" d="M81.6,562.7h2.1v0.1l-1.3,3.9h-0.3l1.2-3.6h-1.1c-0.2,0-0.4,0-0.5,0.1
					c-0.2,0.1-0.3,0.2-0.4,0.4l-0.1,0L81.6,562.7"/>
			</g>
			<path id="path3590-2" class="st1" d="M-54.7,529.6l177.2,0"/>
			<path id="path3792" class="st3" d="M-31.7,331.6l130.3,0"/>
			<path id="path3792-2" class="st3" d="M-31.7,335.6l130.3,0"/>
			<path id="path3792-1" class="st3" d="M-31.7,339.6l130.3,0"/>
			<path id="path3792-2-1" class="st3" d="M-31.7,343.6l130.3,0"/>
			<path id="path3792-0" class="st3" d="M-31.7,347.6l130.3,0"/>
			<path id="path3792-2-4" class="st3" d="M-31.7,351.6l130.3,0"/>
			<path id="path3792-1-0" class="st3" d="M-31.7,355.6l130.3,0"/>
			<path id="path3792-2-1-8" class="st3" d="M-31.7,359.6l130.3,0"/>
			<path id="path3792-21" class="st3" d="M-31.7,363.6l130.3,0"/>
			<path id="path3792-2-9" class="st3" d="M-31.7,367.6l130.3,0"/>
			<path id="path3792-1-6" class="st3" d="M-31.7,371.6l130.3,0"/>
			<path id="path3792-2-1-4" class="st3" d="M-31.7,375.6l130.3,0"/>
			<path id="path3938" class="st4" d="M-45.6,391.5h70.7"/>
			<path id="path3938-7" class="st4" d="M-51,395.5h76"/>
			<path id="path3938-9" class="st4" d="M-51,399.5h76"/>
			<path id="path3938-7-8" class="st4" d="M-51,403.5h76"/>
			<path id="path3938-1" class="st4" d="M-51,407.5h76"/>
			<path id="path3938-7-3" class="st4" d="M-51,411.5h76"/>
			<path id="path3938-9-3" class="st4" d="M-51,415.5h76"/>
			<path id="path3938-7-8-3" class="st4" d="M-51,419.5h76"/>
			<path id="path3938-79" class="st4" d="M-51,423.5h76"/>
			<path id="path3938-7-86" class="st4" d="M-51,427.5h76"/>
			<path id="path3938-9-7" class="st4" d="M-51,431.5h76"/>
			<path id="path3938-7-8-0" class="st4" d="M-51,435.5h76"/>
			<path id="path3938-1-4" class="st4" d="M-51,439.5h76"/>
			<path id="path3938-7-3-8" class="st4" d="M-51,443.5h76"/>
			<path id="path3938-9-3-4" class="st4" d="M-51,447.5h76"/>
			<path id="path3938-7-8-3-8" class="st4" d="M-51,451.5h76"/>
			<path id="path3938-16" class="st4" d="M-46.3,463.5l71.4,0"/>
			<path id="path3938-7-85" class="st4" d="M-51,467.5l76,0"/>
			<path id="path3938-9-2" class="st4" d="M-51,471.5l76,0"/>
			<path id="path3938-7-8-1" class="st4" d="M-51,475.5l76,0"/>
			<path id="path3938-1-9" class="st4" d="M-51,479.5l76,0"/>
			<path id="path3938-7-3-9" class="st4" d="M-51,483.5l76,0"/>
			<path id="path3938-9-3-6" class="st4" d="M-51,487.5l76,0"/>
			<path id="path3938-7-8-3-0" class="st4" d="M-51,491.5l76,0"/>
			<path id="path3938-79-6" class="st4" d="M-51,495.5h76"/>
			<path id="path3938-7-86-4" class="st4" d="M-51,499.5h76"/>
			<path id="path3938-9-7-9" class="st4" d="M-51,503.5h76"/>
			<path id="path3938-7-8-0-9" class="st4" d="M-51,507.5h76"/>
			<path id="path3938-1-4-0" class="st4" d="M-51,511.5h76"/>
			<path id="path3938-7-3-8-8" class="st4" d="M-51,515.5h76"/>
			<path id="path3938-9-3-4-9" class="st4" d="M-51,519.5h76"/>
			<path id="path3938-7-8-3-8-3" class="st4" d="M-51,523.5h76"/>
			<path id="path3938-14" class="st4" d="M41,391.5h76"/>
			<path id="path3938-7-89" class="st4" d="M41,395.5h76"/>
			<path id="path3938-9-6" class="st4" d="M41,399.5h76"/>
			<path id="path3938-7-8-7" class="st4" d="M41,403.5l76,0"/>
			<path id="path3938-1-7" class="st4" d="M41,407.5l76,0"/>
			<path id="path3938-7-3-3" class="st4" d="M41,411.5l76,0"/>
			<path id="path3938-9-3-7" class="st4" d="M41,415.5l76,0"/>
			<path id="path3938-7-8-3-1" class="st4" d="M41,419.5l76,0"/>
			<path id="path3938-79-2" class="st4" d="M41,423.5l76,0"/>
			<path id="path3938-7-86-2" class="st4" d="M41,427.5l76,0"/>
			<path id="path3938-9-7-1" class="st4" d="M41,431.5l76,0"/>
			<rect id="rect4180" x="41.6" y="443.1" class="st5" width="74.8" height="81.4"/>
			<path id="path4182" class="st6" d="M47.7,452.5l0,65.4h63"/>
			<path id="path4184" class="st7" d="M47.7,477.7h-2.4"/>
			<path id="path4184-7" class="st7" d="M47.7,489.7h-2.4"/>
			<path id="path4184-7-7" class="st7" d="M47.7,503.7h-2.4"/>
			<path id="path4184-0" class="st7" d="M47.7,465.7h-2.4"/>
			<rect id="rect4252" x="57.9" y="470.1" class="st8" width="9" height="47.8"/>
			<rect id="rect4252-9" x="75.9" y="479.2" class="st9" width="9" height="38.7"/>
			<rect id="rect4252-9-2" x="93.9" y="456.9" class="st10" width="9" height="61"/>
			<path id="path4298" class="st11" d="M62.4,465.4v9.4"/>
			<path id="path4298-9" class="st11" d="M80.4,472.3V485"/>
			<path id="path4298-0" class="st11" d="M98.4,454.3v6.4"/>
			<rect id="rect4335" x="-46.5" y="286.1" class="st12" width="162" height="6.5"/>
			<rect id="rect4335-4" x="-46.5" y="295.7" class="st12" width="162" height="6.5"/>
			<rect id="rect4335-4-9" x="-46.5" y="305.2" class="st12" width="162" height="6.5"/>
			<rect id="rect4335-4-9-6" x="-46.5" y="316.5" class="st12" width="162" height="2.4"/>
			<rect id="rect4335-4-9-6-0" x="-46.5" y="321.4" class="st12" width="133.6" height="2.4"/>
			<rect id="rect4425" x="-50.5" y="384" class="st12" width="34.3" height="3.7"/>
			<rect id="rect4425-6" x="78.7" y="274.2" class="st12" width="43.5" height="3.7"/>
			<rect id="rect4425-0" x="-54.2" y="531.2" class="st12" width="49.6" height="1.9"/>
		</g>
	</g>
</g>
</svg>
