<?xml version="1.0" encoding="utf-8"?>
<!-- Generator: Adobe Illustrator 16.0.0, SVG Export Plug-In . SVG Version: 6.00 Build 0)  -->
<!DOCTYPE svg PUBLIC "-//W3C//DTD SVG 1.1//EN" "http://www.w3.org/Graphics/SVG/1.1/DTD/svg11.dtd">
<svg version="1.1" id="Layer_1" xmlns="http://www.w3.org/2000/svg" xmlns:xlink="http://www.w3.org/1999/xlink" x="0px" y="0px"
	 width="1036.656px" height="590.343px" viewBox="0 0 1036.656 590.343" enable-background="new 0 0 1036.656 590.343"
	 xml:space="preserve">
<rect x="66.73" y="117.787" fill="#C2EDFF" stroke="#6C6C6C" stroke-width="0.5" width="665.571" height="413.585"/>
<polyline fill="#F8BB93" stroke="#6C6C6C" stroke-width="0.5" points="732.301,531.373 332.952,531.341 333.14,527.857 
	333.361,526.052 333.586,524.699 333.808,523.566 334.03,522.576 334.253,521.683 334.475,520.865 334.921,519.388 335.143,518.712 
	335.367,518.072 335.812,516.871 336.702,514.722 336.925,514.228 337.146,513.744 337.592,512.816 338.483,511.089 
	338.702,510.683 338.919,510.291 339.357,509.521 340.231,508.058 341.979,505.375 342.198,505.058 342.417,504.744 342.854,504.13 
	343.728,502.941 345.476,500.697 345.695,500.427 345.913,500.162 346.352,499.636 347.225,498.607 348.973,496.638 352.47,493.003 
	352.674,492.804 352.878,492.603 353.286,492.205 354.101,491.421 355.732,489.898 358.994,487.005 365.519,481.724 
	365.741,481.554 365.96,481.386 366.404,481.05 367.288,480.384 369.056,479.082 372.595,476.564 379.667,471.849 392.877,463.917 
	405.828,456.953 419.874,450.068 432.985,444.13 447.194,438.119 461.143,432.572 474.154,427.664 488.267,422.589 501.438,418.058 
	514.348,413.785 528.358,409.316 541.432,405.291 555.602,401.066 568.837,397.24 581.81,393.593 595.882,389.742 609.014,386.24 
	623.246,382.539 637.221,378.99 650.255,375.755 664.387,372.318 677.583,369.179 690.52,366.158 704.553,362.941 717.649,359.994 
	717.878,359.943 718.104,359.89 718.563,359.791 719.476,359.585 721.303,359.179 724.959,358.369 725.186,358.32 725.414,358.267 
	725.871,358.166 726.785,357.966 728.612,357.564 728.841,357.513 729.069,357.462 729.526,357.363 730.44,357.162 730.669,357.113 
	730.896,357.062 731.354,356.962 731.583,356.912 731.81,356.861 732.04,356.812 732.267,356.761 "/>
<rect x="745.219" y="197.191" fill="#C2EDFF" stroke="#6C6C6C" stroke-width="2" width="52.447" height="52.447"/>
<rect x="745.219" y="295.729" fill="#F8BB93" stroke="#6C6C6C" stroke-width="2" width="52.447" height="52.446"/>
<g opacity="0.5">
	<defs>
		<polyline id="XMLID_1_" opacity="0.5" points="732.267,163.042 732.04,163.081 731.81,163.12 731.583,163.158 731.354,163.197 
			730.896,163.274 730.669,163.313 730.44,163.352 729.526,163.507 729.069,163.585 728.841,163.624 728.612,163.662 
			726.785,163.974 725.871,164.13 725.414,164.208 725.186,164.247 724.959,164.286 721.303,164.91 719.476,165.223 
			718.563,165.379 718.104,165.458 717.878,165.497 717.649,165.536 704.553,167.794 690.52,170.239 677.583,172.519 
			664.387,174.868 650.255,177.413 637.221,179.788 623.246,182.364 609.014,185.021 595.882,187.505 581.81,190.201 
			568.837,192.718 555.602,195.321 541.432,198.146 528.358,200.791 514.348,203.667 501.438,206.357 488.267,209.144 
			474.154,212.177 461.143,215.021 447.194,218.123 432.985,221.342 419.874,224.368 405.828,227.672 392.877,230.779 
			379.667,234.015 365.519,237.556 352.47,240.896 338.483,244.564 324.235,248.397 311.088,252.03 297,256.033 284.013,259.833 
			270.086,264.037 255.902,268.469 242.816,272.709 228.79,277.429 215.864,281.967 202.675,286.802 188.553,292.249 
			175.526,297.56 161.563,303.623 147.34,310.271 134.216,316.955 120.152,324.886 107.187,333.187 100.575,337.941 97.27,340.492 
			95.615,341.82 94.79,342.498 94.377,342.841 94.169,343.013 93.963,343.185 90.422,346.259 88.653,347.88 87.767,348.718 
			87.326,349.142 87.103,349.355 86.882,349.572 83.342,353.193 81.571,355.144 80.686,356.167 80.244,356.691 80.022,356.955 
			79.801,357.222 76.535,361.458 74.901,363.847 74.085,365.13 73.678,365.798 73.474,366.142 73.27,366.488 71.637,369.486 
			70.82,371.173 70.412,372.082 70.208,372.554 70.003,373.041 69.187,375.162 68.779,376.353 68.574,376.996 68.371,377.671 
			67.962,379.171 67.758,380.017 67.554,380.951 67.35,382.009 67.146,383.265 66.941,384.904 66.737,388.828 66.737,388.892 
			66.941,392.814 67.146,394.453 67.35,395.708 67.554,396.769 67.758,397.703 67.962,398.546 68.371,400.044 68.574,400.724 
			68.779,401.365 69.187,402.558 70.003,404.679 70.208,405.166 70.412,405.636 70.82,406.544 71.637,408.232 73.27,411.23 
			73.474,411.576 73.678,411.917 74.085,412.587 74.901,413.871 76.535,416.257 79.801,420.496 80.022,420.763 80.244,421.027 
			80.686,421.55 81.571,422.572 83.342,424.527 86.882,428.148 87.103,428.361 87.326,428.574 87.767,429 88.653,429.837 
			90.422,431.458 93.963,434.533 94.169,434.705 94.377,434.878 94.79,435.22 95.615,435.898 97.27,437.226 100.575,439.777 
			107.187,444.531 120.152,452.832 134.216,460.763 147.34,467.445 161.563,474.097 175.526,480.16 188.553,485.468 
			202.675,490.917 215.864,495.751 228.79,500.289 242.816,505.011 255.902,509.25 270.086,513.681 284.013,517.886 297,521.685 
			311.088,525.689 324.235,529.322 332.995,531.679 331.984,531.207 338.483,529.459 352.47,525.792 365.519,522.452 
			379.667,518.911 392.877,515.674 405.828,512.568 419.874,509.263 432.985,506.238 447.194,503.019 461.143,499.917 
			474.154,497.072 488.267,494.04 501.438,491.252 514.348,488.562 528.358,485.687 541.432,483.042 555.602,480.216 
			568.837,477.613 581.81,475.097 595.882,472.4 609.014,469.917 623.246,467.259 637.221,464.683 650.255,462.308 664.387,459.763 
			677.583,457.415 690.52,455.134 704.553,452.689 717.649,450.431 717.878,450.392 718.104,450.353 718.563,450.275 
			719.476,450.119 721.303,449.806 724.959,449.181 725.186,449.142 725.414,449.103 725.871,449.025 726.785,448.87 
			728.612,448.558 728.841,448.519 729.069,448.48 729.526,448.402 730.44,448.248 730.669,448.208 730.896,448.169 
			731.354,448.093 731.583,448.054 731.81,448.015 732.04,447.976 732.267,447.937 		"/>
	</defs>
	<clipPath id="XMLID_4_">
		<use xlink:href="#XMLID_1_"  overflow="visible" opacity="0.5" enable-background="new    "/>
	</clipPath>
	<g clip-path="url(#XMLID_4_)">
		
			<line fill="#FFFFFF" stroke="#000000" stroke-width="4" stroke-miterlimit="10" x1="127.765" y1="137.27" x2="42.264" y2="558.749"/>
		
			<line fill="#FFFFFF" stroke="#000000" stroke-width="4" stroke-miterlimit="10" x1="153.148" y1="137.27" x2="67.647" y2="558.749"/>
		
			<line fill="#FFFFFF" stroke="#000000" stroke-width="4" stroke-miterlimit="10" x1="178.532" y1="137.27" x2="93.03" y2="558.749"/>
		
			<line fill="#FFFFFF" stroke="#000000" stroke-width="4" stroke-miterlimit="10" x1="203.915" y1="137.269" x2="118.414" y2="558.749"/>
		
			<line fill="#FFFFFF" stroke="#000000" stroke-width="4" stroke-miterlimit="10" x1="229.298" y1="137.27" x2="143.797" y2="558.749"/>
		
			<line fill="#FFFFFF" stroke="#000000" stroke-width="4" stroke-miterlimit="10" x1="254.682" y1="137.27" x2="169.181" y2="558.749"/>
		
			<line fill="#FFFFFF" stroke="#000000" stroke-width="4" stroke-miterlimit="10" x1="280.065" y1="137.27" x2="194.564" y2="558.749"/>
		
			<line fill="#FFFFFF" stroke="#000000" stroke-width="4" stroke-miterlimit="10" x1="305.448" y1="137.269" x2="219.947" y2="558.748"/>
		
			<line fill="#FFFFFF" stroke="#000000" stroke-width="4" stroke-miterlimit="10" x1="330.832" y1="137.269" x2="245.331" y2="558.749"/>
		
			<line fill="#FFFFFF" stroke="#000000" stroke-width="4" stroke-miterlimit="10" x1="356.216" y1="137.27" x2="270.714" y2="558.75"/>
		
			<line fill="#FFFFFF" stroke="#000000" stroke-width="4" stroke-miterlimit="10" x1="381.599" y1="137.27" x2="296.098" y2="558.749"/>
		
			<line fill="#FFFFFF" stroke="#000000" stroke-width="4" stroke-miterlimit="10" x1="406.981" y1="137.269" x2="321.48" y2="558.749"/>
		
			<line fill="#FFFFFF" stroke="#000000" stroke-width="4" stroke-miterlimit="10" x1="432.365" y1="137.27" x2="346.864" y2="558.749"/>
		
			<line fill="#FFFFFF" stroke="#000000" stroke-width="4" stroke-miterlimit="10" x1="457.749" y1="137.27" x2="372.248" y2="558.749"/>
		
			<line fill="#FFFFFF" stroke="#000000" stroke-width="4" stroke-miterlimit="10" x1="483.132" y1="137.269" x2="397.631" y2="558.749"/>
		
			<line fill="#FFFFFF" stroke="#000000" stroke-width="4" stroke-miterlimit="10" x1="508.516" y1="137.27" x2="423.015" y2="558.749"/>
		
			<line fill="#FFFFFF" stroke="#000000" stroke-width="4" stroke-miterlimit="10" x1="533.898" y1="137.27" x2="448.397" y2="558.749"/>
		
			<line fill="#FFFFFF" stroke="#000000" stroke-width="4" stroke-miterlimit="10" x1="559.282" y1="137.27" x2="473.781" y2="558.749"/>
		
			<line fill="#FFFFFF" stroke="#000000" stroke-width="4" stroke-miterlimit="10" x1="584.665" y1="137.27" x2="499.164" y2="558.749"/>
		
			<line fill="#FFFFFF" stroke="#000000" stroke-width="4" stroke-miterlimit="10" x1="610.049" y1="137.269" x2="524.548" y2="558.749"/>
		
			<line fill="#FFFFFF" stroke="#000000" stroke-width="4" stroke-miterlimit="10" x1="635.433" y1="137.27" x2="549.932" y2="558.749"/>
		
			<line fill="#FFFFFF" stroke="#000000" stroke-width="4" stroke-miterlimit="10" x1="660.815" y1="137.27" x2="575.314" y2="558.749"/>
		
			<line fill="#FFFFFF" stroke="#000000" stroke-width="4" stroke-miterlimit="10" x1="686.199" y1="137.27" x2="600.698" y2="558.749"/>
		
			<line fill="#FFFFFF" stroke="#000000" stroke-width="4" stroke-miterlimit="10" x1="711.582" y1="137.27" x2="626.081" y2="558.749"/>
		
			<line fill="#FFFFFF" stroke="#000000" stroke-width="4" stroke-miterlimit="10" x1="736.966" y1="137.27" x2="651.465" y2="558.749"/>
		
			<line fill="#FFFFFF" stroke="#000000" stroke-width="4" stroke-miterlimit="10" x1="762.349" y1="137.27" x2="676.848" y2="558.749"/>
		
			<line fill="#FFFFFF" stroke="#000000" stroke-width="4" stroke-miterlimit="10" x1="787.732" y1="137.27" x2="702.231" y2="558.749"/>
	</g>
</g>
<g>
	<defs>
		<rect id="XMLID_3_" x="745.219" y="391.729" width="52.447" height="52.446"/>
	</defs>
	<clipPath id="XMLID_5_">
		<use xlink:href="#XMLID_3_"  overflow="visible"/>
	</clipPath>
	<g clip-path="url(#XMLID_5_)">
		<defs>
			<polyline id="SVGID_1_" points="864.267,361.042 864.18,361.057 864.091,361.072 864.004,361.086 863.916,361.102 
				863.74,361.131 863.652,361.147 863.564,361.162 863.214,361.221 863.038,361.251 862.95,361.266 862.862,361.281 
				862.16,361.401 861.81,361.46 861.634,361.491 861.546,361.505 861.459,361.52 860.054,361.76 859.353,361.88 859.001,361.94 
				858.825,361.97 858.738,361.985 858.65,362 853.618,362.868 848.227,363.807 843.256,364.683 838.187,365.586 832.756,366.564 
				827.748,367.477 822.379,368.466 816.91,369.487 811.865,370.441 806.458,371.477 801.474,372.444 796.389,373.444 
				790.944,374.53 785.921,375.545 780.538,376.651 775.578,377.685 770.518,378.755 765.095,379.92 760.096,381.013 
				754.736,382.206 749.277,383.442 744.24,384.605 738.843,385.875 733.867,387.068 728.791,388.311 723.355,389.672 
				718.343,390.956 712.968,392.365 707.493,393.837 702.442,395.233 697.029,396.771 692.04,398.231 686.688,399.846 
				681.238,401.548 676.211,403.178 670.822,404.992 665.855,406.735 660.788,408.593 655.362,410.686 650.356,412.726 
				644.992,415.055 639.527,417.61 634.485,420.178 629.081,423.226 624.1,426.415 621.56,428.242 620.289,429.221 619.654,429.732 
				619.337,429.993 619.178,430.125 619.098,430.191 619.019,430.256 617.658,431.438 616.979,432.061 616.639,432.382 
				616.469,432.545 616.383,432.626 616.298,432.71 614.938,434.102 614.258,434.851 613.918,435.245 613.748,435.446 
				613.663,435.547 613.578,435.65 612.323,437.277 611.695,438.196 611.381,438.688 611.226,438.945 611.146,439.077 
				611.068,439.209 610.441,440.362 610.127,441.01 609.971,441.359 609.893,441.541 609.813,441.727 609.5,442.542 609.343,443 
				609.264,443.248 609.187,443.506 609.028,444.083 608.95,444.408 608.872,444.766 608.794,445.173 608.716,445.656 
				608.637,446.286 608.559,447.792 608.559,447.818 608.637,449.325 608.716,449.955 608.794,450.437 608.872,450.844 
				608.95,451.204 609.028,451.528 609.187,452.103 609.264,452.364 609.343,452.61 609.5,453.069 609.813,453.884 609.893,454.071 
				609.971,454.251 610.127,454.6 610.441,455.249 611.068,456.401 611.146,456.533 611.226,456.665 611.381,456.921 
				611.695,457.416 612.323,458.333 613.578,459.96 613.663,460.063 613.748,460.165 613.918,460.366 614.258,460.758 
				614.938,461.509 616.298,462.901 616.383,462.983 616.469,463.064 616.639,463.228 616.979,463.549 617.658,464.172 
				619.019,465.354 619.098,465.42 619.178,465.487 619.337,465.618 619.654,465.878 620.289,466.388 621.56,467.369 624.1,469.195 
				629.081,472.384 634.485,475.432 639.527,478 644.992,480.555 650.356,482.884 655.362,484.924 660.788,487.018 665.855,488.875 
				670.822,490.619 676.211,492.433 681.238,494.061 686.688,495.764 692.04,497.379 697.029,498.839 702.442,500.377 
				707.493,501.774 710.859,502.679 710.843,502.549 710.915,501.21 711,500.517 711.087,499.997 711.172,499.562 711.257,499.181 
				711.343,498.838 711.428,498.524 711.6,497.957 711.685,497.697 711.771,497.452 711.941,496.99 712.284,496.164 
				712.369,495.974 712.454,495.788 712.625,495.431 712.968,494.768 713.052,494.612 713.135,494.461 713.304,494.166 
				713.64,493.603 714.311,492.573 714.396,492.451 714.479,492.33 714.646,492.094 714.983,491.637 715.654,490.775 
				715.739,490.671 715.823,490.57 715.991,490.368 716.326,489.972 716.998,489.215 718.343,487.819 718.42,487.743 
				718.498,487.666 718.655,487.512 718.969,487.211 719.596,486.626 720.849,485.515 723.355,483.486 723.44,483.42 
				723.525,483.356 723.695,483.227 724.035,482.97 724.715,482.47 726.074,481.502 728.791,479.692 733.867,476.644 
				738.843,473.968 744.24,471.323 749.277,469.042 754.736,466.732 760.096,464.6 765.095,462.714 770.518,460.765 
				775.578,459.024 780.538,457.382 785.921,455.665 790.944,454.119 796.389,452.496 801.474,451.025 806.458,449.625 
				811.865,448.144 816.91,446.798 822.379,445.376 827.748,444.013 832.756,442.771 838.187,441.45 843.256,440.244 
				848.227,439.083 853.618,437.847 858.65,436.714 858.738,436.695 858.825,436.675 859.001,436.636 859.353,436.558 
				860.054,436.402 861.459,436.09 861.546,436.072 861.634,436.051 861.81,436.012 862.16,435.936 862.862,435.781 862.95,435.762 
				863.038,435.742 863.214,435.704 863.564,435.626 863.652,435.608 863.74,435.588 863.916,435.55 864.004,435.53 
				864.091,435.511 864.18,435.493 864.267,435.472 			"/>
		</defs>
		<use xlink:href="#SVGID_1_"  overflow="visible" fill="#FFFFFF"/>
		<clipPath id="SVGID_2_">
			<use xlink:href="#SVGID_1_"  overflow="visible"/>
		</clipPath>
		<g opacity="0.3" clip-path="url(#SVGID_2_)">
			
				<line fill="#FFFFFF" stroke="#000000" stroke-width="3" stroke-miterlimit="10" x1="600.809" y1="516.709" x2="638.32" y2="325.842"/>
			
				<line fill="#FFFFFF" stroke="#000000" stroke-width="3" stroke-miterlimit="10" x1="610.165" y1="516.709" x2="647.677" y2="325.842"/>
			
				<line fill="#FFFFFF" stroke="#000000" stroke-width="3" stroke-miterlimit="10" x1="619.521" y1="516.709" x2="657.033" y2="325.842"/>
			
				<line fill="#FFFFFF" stroke="#000000" stroke-width="3" stroke-miterlimit="10" x1="628.879" y1="516.709" x2="666.39" y2="325.842"/>
			
				<line fill="#FFFFFF" stroke="#000000" stroke-width="3" stroke-miterlimit="10" x1="638.235" y1="516.709" x2="675.746" y2="325.842"/>
			
				<line fill="#FFFFFF" stroke="#000000" stroke-width="3" stroke-miterlimit="10" x1="647.592" y1="516.709" x2="685.104" y2="325.842"/>
			
				<line fill="#FFFFFF" stroke="#000000" stroke-width="3" stroke-miterlimit="10" x1="656.948" y1="516.709" x2="694.46" y2="325.842"/>
			
				<line fill="#FFFFFF" stroke="#000000" stroke-width="3" stroke-miterlimit="10" x1="666.306" y1="516.709" x2="703.816" y2="325.842"/>
			
				<line fill="#FFFFFF" stroke="#000000" stroke-width="3" stroke-miterlimit="10" x1="675.662" y1="516.709" x2="713.174" y2="325.842"/>
			
				<line fill="#FFFFFF" stroke="#000000" stroke-width="3" stroke-miterlimit="10" x1="685.019" y1="516.709" x2="722.53" y2="325.842"/>
			
				<line fill="#FFFFFF" stroke="#000000" stroke-width="3" stroke-miterlimit="10" x1="694.375" y1="516.709" x2="731.888" y2="325.842"/>
			
				<line fill="#FFFFFF" stroke="#000000" stroke-width="3" stroke-miterlimit="10" x1="703.731" y1="516.709" x2="741.243" y2="325.842"/>
			
				<line fill="#FFFFFF" stroke="#000000" stroke-width="3" stroke-miterlimit="10" x1="713.089" y1="516.709" x2="750.601" y2="325.842"/>
			
				<line fill="#FFFFFF" stroke="#000000" stroke-width="3" stroke-miterlimit="10" x1="722.445" y1="516.709" x2="759.957" y2="325.842"/>
			
				<line fill="#FFFFFF" stroke="#000000" stroke-width="3" stroke-miterlimit="10" x1="731.802" y1="516.709" x2="769.313" y2="325.842"/>
			
				<line fill="#FFFFFF" stroke="#000000" stroke-width="3" stroke-miterlimit="10" x1="741.158" y1="516.709" x2="778.67" y2="325.842"/>
			
				<line fill="#FFFFFF" stroke="#000000" stroke-width="3" stroke-miterlimit="10" x1="750.516" y1="516.709" x2="788.027" y2="325.842"/>
			
				<line fill="#FFFFFF" stroke="#000000" stroke-width="3" stroke-miterlimit="10" x1="759.872" y1="516.709" x2="797.384" y2="325.842"/>
			
				<line fill="#FFFFFF" stroke="#000000" stroke-width="3" stroke-miterlimit="10" x1="769.229" y1="516.709" x2="806.74" y2="325.842"/>
			
				<line fill="#FFFFFF" stroke="#000000" stroke-width="3" stroke-miterlimit="10" x1="778.585" y1="516.709" x2="816.097" y2="325.842"/>
			
				<line fill="#FFFFFF" stroke="#000000" stroke-width="3" stroke-miterlimit="10" x1="787.942" y1="516.709" x2="825.453" y2="325.842"/>
			
				<line fill="#FFFFFF" stroke="#000000" stroke-width="3" stroke-miterlimit="10" x1="797.299" y1="516.709" x2="834.811" y2="325.842"/>
			
				<line fill="#FFFFFF" stroke="#000000" stroke-width="3" stroke-miterlimit="10" x1="806.655" y1="516.709" x2="844.167" y2="325.842"/>
			
				<line fill="#FFFFFF" stroke="#000000" stroke-width="3" stroke-miterlimit="10" x1="816.012" y1="516.709" x2="853.523" y2="325.842"/>
			
				<line fill="#FFFFFF" stroke="#000000" stroke-width="3" stroke-miterlimit="10" x1="825.369" y1="516.709" x2="862.88" y2="325.842"/>
			
				<line fill="#FFFFFF" stroke="#000000" stroke-width="3" stroke-miterlimit="10" x1="834.726" y1="516.709" x2="872.237" y2="325.842"/>
			
				<line fill="#FFFFFF" stroke="#000000" stroke-width="3" stroke-miterlimit="10" x1="844.082" y1="516.709" x2="881.594" y2="325.842"/>
		</g>
		<use xlink:href="#SVGID_1_"  overflow="visible" fill="none" stroke="#000000" stroke-width="3" stroke-miterlimit="10"/>
	</g>
	<use xlink:href="#XMLID_3_"  overflow="visible" fill="none" stroke="#6C6C6C" stroke-width="2"/>
</g>
<g transform="translate(-74.000000, -13.000000)">
	<g>
		<g>
			<defs>
				<path id="SVGID_3_" d="M-37.582,78.576L-37.582,78.576L-37.582,78.576z"/>
			</defs>
			<clipPath id="SVGID_4_">
				<use xlink:href="#SVGID_3_"  overflow="visible"/>
			</clipPath>
			<g transform="matrix(1.000000, 0.000000, 0.000000, 1.000000, 0.000000, 0.000000)" clip-path="url(#SVGID_4_)">
				<rect x="109.036" y="104.333" fill="#FFFFFF" width="713.274" height="471.553"/>
			</g>
		</g>
	</g>
	<g>
		<g>
			<defs>
				<rect id="SVGID_5_" x="126.868" y="116.221" width="693.462" height="429.944"/>
			</defs>
			<clipPath id="SVGID_6_">
				<use xlink:href="#SVGID_5_"  overflow="visible"/>
			</clipPath>
			<g transform="matrix(1.000000, 0.000000, 0.000000, 1.000000, 0.000000, 0.000000)" clip-path="url(#SVGID_6_)">
				<polyline fill="none" stroke="#3F3D99" stroke-width="2" points="140.737,401.828 140.941,397.904 141.146,396.265 
					141.35,395.009 141.554,393.951 141.758,393.017 141.962,392.171 142.371,390.671 142.574,389.996 142.779,389.353 
					143.187,388.162 144.003,386.041 144.208,385.554 144.412,385.082 144.82,384.173 145.637,382.486 147.27,379.488 
					147.474,379.142 147.678,378.798 148.085,378.13 148.901,376.847 150.535,374.458 153.801,370.222 154.022,369.955 
					154.244,369.691 154.686,369.167 155.571,368.144 157.342,366.193 160.882,362.572 161.103,362.355 161.326,362.142 
					161.767,361.718 162.653,360.88 164.422,359.259 167.963,356.185 168.169,356.013 168.377,355.841 168.79,355.498 
					169.615,354.82 171.27,353.492 174.575,350.941 181.187,346.187 194.152,337.886 208.216,329.955 221.34,323.271 
					235.563,316.623 249.526,310.56 262.553,305.249 276.675,299.802 289.864,294.967 302.79,290.429 316.816,285.709 
					329.902,281.469 344.086,277.037 358.013,272.833 371,269.033 385.088,265.03 398.235,261.397 412.483,257.564 426.47,253.896 
					439.519,250.556 453.667,247.015 466.877,243.779 479.828,240.672 493.874,237.368 506.985,234.342 521.194,231.123 
					535.143,228.021 548.154,225.177 562.267,222.144 575.438,219.357 588.348,216.667 602.358,213.791 615.432,211.146 
					629.602,208.321 642.837,205.718 655.81,203.201 669.882,200.505 683.014,198.021 697.246,195.364 711.221,192.788 
					724.255,190.413 738.387,187.868 751.583,185.519 764.52,183.239 778.553,180.794 791.649,178.536 791.878,178.497 
					792.104,178.458 792.563,178.379 793.476,178.223 795.303,177.91 798.959,177.286 799.186,177.247 799.414,177.208 
					799.871,177.13 800.785,176.974 802.612,176.662 802.841,176.624 803.069,176.585 803.526,176.507 804.44,176.352 
					804.669,176.313 804.896,176.274 805.354,176.197 805.583,176.158 805.81,176.12 806.04,176.081 806.267,176.042 				"/>
				<polyline fill="none" stroke="#993D71" stroke-width="2" points="406.952,544.341 407.14,540.857 407.361,539.052 
					407.586,537.699 407.808,536.566 408.03,535.576 408.253,534.683 408.475,533.865 408.921,532.388 409.143,531.712 
					409.367,531.072 409.812,529.871 410.702,527.722 410.925,527.228 411.146,526.744 411.592,525.816 412.483,524.089 
					412.702,523.683 412.919,523.291 413.357,522.521 414.231,521.058 415.979,518.375 416.198,518.058 416.417,517.744 
					416.854,517.13 417.728,515.941 419.476,513.697 419.695,513.427 419.913,513.162 420.352,512.636 421.225,511.607 
					422.973,509.638 426.47,506.003 426.674,505.804 426.878,505.603 427.286,505.205 428.101,504.421 429.732,502.898 
					432.994,500.005 439.519,494.724 439.741,494.554 439.96,494.386 440.404,494.05 441.288,493.384 443.056,492.082 
					446.595,489.564 453.667,484.849 466.877,476.917 479.828,469.953 493.874,463.068 506.985,457.13 521.194,451.119 
					535.143,445.572 548.154,440.664 562.267,435.589 575.438,431.058 588.348,426.785 602.358,422.316 615.432,418.291 
					629.602,414.066 642.837,410.24 655.81,406.593 669.882,402.742 683.014,399.24 697.246,395.539 711.221,391.99 
					724.255,388.755 738.387,385.318 751.583,382.179 764.52,379.158 778.553,375.941 791.649,372.994 791.878,372.943 
					792.104,372.89 792.563,372.791 793.476,372.585 795.303,372.179 798.959,371.369 799.186,371.32 799.414,371.267 
					799.871,371.166 800.785,370.966 802.612,370.564 802.841,370.513 803.069,370.462 803.526,370.363 804.44,370.162 
					804.669,370.113 804.896,370.062 805.354,369.962 805.583,369.912 805.81,369.861 806.04,369.812 806.267,369.761 				"/>
				<polyline fill="none" stroke="#998B3D" stroke-width="2" points="140.737,401.892 140.941,405.814 141.146,407.453 
					141.35,408.708 141.554,409.769 141.758,410.703 141.962,411.546 142.371,413.044 142.574,413.724 142.779,414.365 
					143.187,415.558 144.003,417.679 144.208,418.166 144.412,418.636 144.82,419.544 145.637,421.232 147.27,424.23 
					147.474,424.576 147.678,424.917 148.085,425.587 148.901,426.871 150.535,429.257 153.801,433.496 154.022,433.763 
					154.244,434.027 154.686,434.55 155.571,435.572 157.342,437.527 160.882,441.148 161.103,441.361 161.326,441.574 161.767,442 
					162.653,442.837 164.422,444.458 167.963,447.533 168.169,447.705 168.377,447.878 168.79,448.22 169.615,448.898 
					171.27,450.226 174.575,452.777 181.187,457.531 194.152,465.832 208.216,473.763 221.34,480.445 235.563,487.097 
					249.526,493.16 262.553,498.468 276.675,503.917 289.864,508.751 302.79,513.289 316.816,518.011 329.902,522.25 
					344.086,526.681 358.013,530.886 371,534.685 385.088,538.689 398.235,542.322 406.995,544.679 				"/>
			</g>
		</g>
	</g>
	<g>
		<g>
			<defs>
				<rect id="SVGID_7_" x="109.036" y="104.333" width="713.274" height="471.553"/>
			</defs>
			<clipPath id="SVGID_8_">
				<use xlink:href="#SVGID_7_"  overflow="visible"/>
			</clipPath>
			<g transform="matrix(1.000000, 0.000000, 0.000000, 1.000000, 0.000000, 0.000000)" clip-path="url(#SVGID_8_)">
				<line fill="none" stroke="#000000" stroke-width="2" x1="140.737" y1="544.679" x2="140.737" y2="536.753"/>
			</g>
		</g>
	</g>
	<g>
		<g>
			<defs>
				<rect id="SVGID_9_" x="208.387" y="786.396" width="31.701" height="27.738"/>
			</defs>
			<clipPath id="SVGID_10_">
				<use xlink:href="#SVGID_9_"  overflow="visible"/>
			</clipPath>
			<g transform="matrix(1.000000, 0.000000, 0.000000, 1.000000, 83.500000, 238.248831)" clip-path="url(#SVGID_10_)">
				<text transform="matrix(1 0 0 1 44.3584 332.1882)" font-family="'TimesNewRomanPSMT'" font-size="19.8132">0.0</text>
			</g>
		</g>
	</g>
	<g>
		<g>
			<defs>
				<rect id="SVGID_11_" x="109.036" y="104.333" width="713.274" height="471.553"/>
			</defs>
			<clipPath id="SVGID_12_">
				<use xlink:href="#SVGID_11_"  overflow="visible"/>
			</clipPath>
			<g transform="matrix(1.000000, 0.000000, 0.000000, 1.000000, 0.000000, 0.000000)" clip-path="url(#SVGID_12_)">
				<line fill="none" stroke="#000000" stroke-width="2" x1="167.359" y1="544.679" x2="167.359" y2="539.923"/>
			</g>
		</g>
	</g>
	<g>
		<g>
			<defs>
				<rect id="SVGID_13_" x="109.036" y="104.333" width="713.274" height="471.553"/>
			</defs>
			<clipPath id="SVGID_14_">
				<use xlink:href="#SVGID_13_"  overflow="visible"/>
			</clipPath>
			<g transform="matrix(1.000000, 0.000000, 0.000000, 1.000000, 0.000000, 0.000000)" clip-path="url(#SVGID_14_)">
				<line fill="none" stroke="#000000" stroke-width="2" x1="193.979" y1="544.679" x2="193.979" y2="539.923"/>
			</g>
		</g>
	</g>
	<g>
		<g>
			<defs>
				<rect id="SVGID_15_" x="109.036" y="104.333" width="713.274" height="471.553"/>
			</defs>
			<clipPath id="SVGID_16_">
				<use xlink:href="#SVGID_15_"  overflow="visible"/>
			</clipPath>
			<g transform="matrix(1.000000, 0.000000, 0.000000, 1.000000, 0.000000, 0.000000)" clip-path="url(#SVGID_16_)">
				<line fill="none" stroke="#000000" stroke-width="2" x1="220.601" y1="544.679" x2="220.601" y2="539.923"/>
			</g>
		</g>
	</g>
	<g>
		<g>
			<defs>
				<rect id="SVGID_17_" x="109.036" y="104.333" width="713.274" height="471.553"/>
			</defs>
			<clipPath id="SVGID_18_">
				<use xlink:href="#SVGID_17_"  overflow="visible"/>
			</clipPath>
			<g transform="matrix(1.000000, 0.000000, 0.000000, 1.000000, 0.000000, 0.000000)" clip-path="url(#SVGID_18_)">
				<line fill="none" stroke="#000000" stroke-width="2" x1="247.222" y1="544.679" x2="247.222" y2="539.923"/>
			</g>
		</g>
	</g>
	<g>
		<g>
			<defs>
				<rect id="SVGID_19_" x="109.036" y="104.333" width="713.274" height="471.553"/>
			</defs>
			<clipPath id="SVGID_20_">
				<use xlink:href="#SVGID_19_"  overflow="visible"/>
			</clipPath>
			<g transform="matrix(1.000000, 0.000000, 0.000000, 1.000000, 0.000000, 0.000000)" clip-path="url(#SVGID_20_)">
				<line fill="none" stroke="#000000" stroke-width="2" x1="273.843" y1="544.679" x2="273.843" y2="536.753"/>
			</g>
		</g>
	</g>
	<g>
		<g>
			<defs>
				<rect id="SVGID_21_" x="408.315" y="786.396" width="31.702" height="27.738"/>
			</defs>
			<clipPath id="SVGID_22_">
				<use xlink:href="#SVGID_21_"  overflow="visible"/>
			</clipPath>
			<g transform="matrix(1.000000, 0.000000, 0.000000, 1.000000, 150.680408, 238.248831)" clip-path="url(#SVGID_22_)">
				<text transform="matrix(1 0 0 1 110.2835 332.1882)" font-family="'TimesNewRomanPSMT'" font-size="19.8132">0.5</text>
			</g>
		</g>
	</g>
	<g>
		<g>
			<defs>
				<rect id="SVGID_23_" x="109.036" y="104.333" width="713.274" height="471.553"/>
			</defs>
			<clipPath id="SVGID_24_">
				<use xlink:href="#SVGID_23_"  overflow="visible"/>
			</clipPath>
			<g transform="matrix(1.000000, 0.000000, 0.000000, 1.000000, 0.000000, 0.000000)" clip-path="url(#SVGID_24_)">
				<line fill="none" stroke="#000000" stroke-width="2" x1="300.464" y1="544.679" x2="300.464" y2="539.923"/>
			</g>
		</g>
	</g>
	<g>
		<g>
			<defs>
				<rect id="SVGID_25_" x="109.036" y="104.333" width="713.274" height="471.553"/>
			</defs>
			<clipPath id="SVGID_26_">
				<use xlink:href="#SVGID_25_"  overflow="visible"/>
			</clipPath>
			<g transform="matrix(1.000000, 0.000000, 0.000000, 1.000000, 0.000000, 0.000000)" clip-path="url(#SVGID_26_)">
				<line fill="none" stroke="#000000" stroke-width="2" x1="327.087" y1="544.679" x2="327.087" y2="539.923"/>
			</g>
		</g>
	</g>
	<g>
		<g>
			<defs>
				<rect id="SVGID_27_" x="109.036" y="104.333" width="713.274" height="471.553"/>
			</defs>
			<clipPath id="SVGID_28_">
				<use xlink:href="#SVGID_27_"  overflow="visible"/>
			</clipPath>
			<g transform="matrix(1.000000, 0.000000, 0.000000, 1.000000, 0.000000, 0.000000)" clip-path="url(#SVGID_28_)">
				<line fill="none" stroke="#000000" stroke-width="2" x1="353.708" y1="544.679" x2="353.708" y2="539.923"/>
			</g>
		</g>
	</g>
	<g>
		<g>
			<defs>
				<rect id="SVGID_29_" x="109.036" y="104.333" width="713.274" height="471.553"/>
			</defs>
			<clipPath id="SVGID_30_">
				<use xlink:href="#SVGID_29_"  overflow="visible"/>
			</clipPath>
			<g transform="matrix(1.000000, 0.000000, 0.000000, 1.000000, 0.000000, 0.000000)" clip-path="url(#SVGID_30_)">
				<line fill="none" stroke="#000000" stroke-width="2" x1="380.328" y1="544.679" x2="380.328" y2="539.923"/>
			</g>
		</g>
	</g>
	<g>
		<g>
			<defs>
				<rect id="SVGID_31_" x="109.036" y="104.333" width="713.274" height="471.553"/>
			</defs>
			<clipPath id="SVGID_32_">
				<use xlink:href="#SVGID_31_"  overflow="visible"/>
			</clipPath>
			<g transform="matrix(1.000000, 0.000000, 0.000000, 1.000000, 0.000000, 0.000000)" clip-path="url(#SVGID_32_)">
				<line fill="none" stroke="#000000" stroke-width="2" x1="406.949" y1="544.679" x2="406.949" y2="536.753"/>
			</g>
		</g>
	</g>
	<g>
		<g>
			<defs>
				<rect id="SVGID_33_" x="608.245" y="786.396" width="31.7" height="27.738"/>
			</defs>
			<clipPath id="SVGID_34_">
				<use xlink:href="#SVGID_33_"  overflow="visible"/>
			</clipPath>
			<g transform="matrix(1.000000, 0.000000, 0.000000, 1.000000, 217.860816, 238.248831)" clip-path="url(#SVGID_34_)">
				<text transform="matrix(1 0 0 1 176.2095 332.1882)" font-family="'TimesNewRomanPSMT'" font-size="19.8132">1.0</text>
			</g>
		</g>
	</g>
	<g>
		<g>
			<defs>
				<rect id="SVGID_35_" x="109.036" y="104.333" width="713.274" height="471.553"/>
			</defs>
			<clipPath id="SVGID_36_">
				<use xlink:href="#SVGID_35_"  overflow="visible"/>
			</clipPath>
			<g transform="matrix(1.000000, 0.000000, 0.000000, 1.000000, 0.000000, 0.000000)" clip-path="url(#SVGID_36_)">
				<line fill="none" stroke="#000000" stroke-width="2" x1="433.57" y1="544.679" x2="433.57" y2="539.923"/>
			</g>
		</g>
	</g>
	<g>
		<g>
			<defs>
				<rect id="SVGID_37_" x="109.036" y="104.333" width="713.274" height="471.553"/>
			</defs>
			<clipPath id="SVGID_38_">
				<use xlink:href="#SVGID_37_"  overflow="visible"/>
			</clipPath>
			<g transform="matrix(1.000000, 0.000000, 0.000000, 1.000000, 0.000000, 0.000000)" clip-path="url(#SVGID_38_)">
				<line fill="none" stroke="#000000" stroke-width="2" x1="460.191" y1="544.679" x2="460.191" y2="539.923"/>
			</g>
		</g>
	</g>
	<g>
		<g>
			<defs>
				<rect id="SVGID_39_" x="109.036" y="104.333" width="713.274" height="471.553"/>
			</defs>
			<clipPath id="SVGID_40_">
				<use xlink:href="#SVGID_39_"  overflow="visible"/>
			</clipPath>
			<g transform="matrix(1.000000, 0.000000, 0.000000, 1.000000, 0.000000, 0.000000)" clip-path="url(#SVGID_40_)">
				<line fill="none" stroke="#000000" stroke-width="2" x1="486.813" y1="544.679" x2="486.813" y2="539.923"/>
			</g>
		</g>
	</g>
	<g>
		<g>
			<defs>
				<rect id="SVGID_41_" x="109.036" y="104.333" width="713.274" height="471.553"/>
			</defs>
			<clipPath id="SVGID_42_">
				<use xlink:href="#SVGID_41_"  overflow="visible"/>
			</clipPath>
			<g transform="matrix(1.000000, 0.000000, 0.000000, 1.000000, 0.000000, 0.000000)" clip-path="url(#SVGID_42_)">
				<line fill="none" stroke="#000000" stroke-width="2" x1="513.435" y1="544.679" x2="513.435" y2="539.923"/>
			</g>
		</g>
	</g>
	<g>
		<g>
			<defs>
				<rect id="SVGID_43_" x="109.036" y="104.333" width="713.274" height="471.553"/>
			</defs>
			<clipPath id="SVGID_44_">
				<use xlink:href="#SVGID_43_"  overflow="visible"/>
			</clipPath>
			<g transform="matrix(1.000000, 0.000000, 0.000000, 1.000000, 0.000000, 0.000000)" clip-path="url(#SVGID_44_)">
				<line fill="none" stroke="#000000" stroke-width="2" x1="540.055" y1="544.679" x2="540.055" y2="536.753"/>
			</g>
		</g>
	</g>
	<g>
		<g>
			<defs>
				<rect id="SVGID_45_" x="810.154" y="786.396" width="31.701" height="27.738"/>
			</defs>
			<clipPath id="SVGID_46_">
				<use xlink:href="#SVGID_45_"  overflow="visible"/>
			</clipPath>
			<g transform="matrix(1.000000, 0.000000, 0.000000, 1.000000, 285.041224, 238.248831)" clip-path="url(#SVGID_46_)">
				<text transform="matrix(1 0 0 1 242.1355 332.1882)" font-family="'TimesNewRomanPSMT'" font-size="19.8132">1.5</text>
			</g>
		</g>
	</g>
	<g>
		<g>
			<defs>
				<rect id="SVGID_47_" x="109.036" y="104.333" width="713.274" height="471.553"/>
			</defs>
			<clipPath id="SVGID_48_">
				<use xlink:href="#SVGID_47_"  overflow="visible"/>
			</clipPath>
			<g transform="matrix(1.000000, 0.000000, 0.000000, 1.000000, 0.000000, 0.000000)" clip-path="url(#SVGID_48_)">
				<line fill="none" stroke="#000000" stroke-width="2" x1="566.676" y1="544.679" x2="566.676" y2="539.923"/>
			</g>
		</g>
	</g>
	<g>
		<g>
			<defs>
				<rect id="SVGID_49_" x="109.036" y="104.333" width="713.274" height="471.553"/>
			</defs>
			<clipPath id="SVGID_50_">
				<use xlink:href="#SVGID_49_"  overflow="visible"/>
			</clipPath>
			<g transform="matrix(1.000000, 0.000000, 0.000000, 1.000000, 0.000000, 0.000000)" clip-path="url(#SVGID_50_)">
				<line fill="none" stroke="#000000" stroke-width="2" x1="593.298" y1="544.679" x2="593.298" y2="539.923"/>
			</g>
		</g>
	</g>
	<g>
		<g>
			<defs>
				<rect id="SVGID_51_" x="109.036" y="104.333" width="713.274" height="471.553"/>
			</defs>
			<clipPath id="SVGID_52_">
				<use xlink:href="#SVGID_51_"  overflow="visible"/>
			</clipPath>
			<g transform="matrix(1.000000, 0.000000, 0.000000, 1.000000, 0.000000, 0.000000)" clip-path="url(#SVGID_52_)">
				<line fill="none" stroke="#000000" stroke-width="2" x1="619.918" y1="544.679" x2="619.918" y2="539.923"/>
			</g>
		</g>
	</g>
	<g>
		<g>
			<defs>
				<rect id="SVGID_53_" x="109.036" y="104.333" width="713.274" height="471.553"/>
			</defs>
			<clipPath id="SVGID_54_">
				<use xlink:href="#SVGID_53_"  overflow="visible"/>
			</clipPath>
			<g transform="matrix(1.000000, 0.000000, 0.000000, 1.000000, 0.000000, 0.000000)" clip-path="url(#SVGID_54_)">
				<line fill="none" stroke="#000000" stroke-width="2" x1="646.542" y1="544.679" x2="646.542" y2="539.923"/>
			</g>
		</g>
	</g>
	<g>
		<g>
			<defs>
				<rect id="SVGID_55_" x="109.036" y="104.333" width="713.274" height="471.553"/>
			</defs>
			<clipPath id="SVGID_56_">
				<use xlink:href="#SVGID_55_"  overflow="visible"/>
			</clipPath>
			<g transform="matrix(1.000000, 0.000000, 0.000000, 1.000000, 0.000000, 0.000000)" clip-path="url(#SVGID_56_)">
				<line fill="none" stroke="#000000" stroke-width="2" x1="673.161" y1="544.679" x2="673.161" y2="536.753"/>
			</g>
		</g>
	</g>
	<g>
		<g>
			<defs>
				<rect id="SVGID_57_" x="1010.083" y="786.396" width="31.702" height="27.738"/>
			</defs>
			<clipPath id="SVGID_58_">
				<use xlink:href="#SVGID_57_"  overflow="visible"/>
			</clipPath>
			<g transform="matrix(1.000000, 0.000000, 0.000000, 1.000000, 352.221633, 238.248831)" clip-path="url(#SVGID_58_)">
				<text transform="matrix(1 0 0 1 308.0606 332.1882)" font-family="'TimesNewRomanPSMT'" font-size="19.8132">2.0</text>
			</g>
		</g>
	</g>
	<g>
		<g>
			<defs>
				<rect id="SVGID_59_" x="109.036" y="104.333" width="713.274" height="471.553"/>
			</defs>
			<clipPath id="SVGID_60_">
				<use xlink:href="#SVGID_59_"  overflow="visible"/>
			</clipPath>
			<g transform="matrix(1.000000, 0.000000, 0.000000, 1.000000, 0.000000, 0.000000)" clip-path="url(#SVGID_60_)">
				<line fill="none" stroke="#000000" stroke-width="2" x1="699.783" y1="544.679" x2="699.783" y2="539.923"/>
			</g>
		</g>
	</g>
	<g>
		<g>
			<defs>
				<rect id="SVGID_61_" x="109.036" y="104.333" width="713.274" height="471.553"/>
			</defs>
			<clipPath id="SVGID_62_">
				<use xlink:href="#SVGID_61_"  overflow="visible"/>
			</clipPath>
			<g transform="matrix(1.000000, 0.000000, 0.000000, 1.000000, 0.000000, 0.000000)" clip-path="url(#SVGID_62_)">
				<line fill="none" stroke="#000000" stroke-width="2" x1="726.403" y1="544.679" x2="726.403" y2="539.923"/>
			</g>
		</g>
	</g>
	<g>
		<g>
			<defs>
				<rect id="SVGID_63_" x="109.036" y="104.333" width="713.274" height="471.553"/>
			</defs>
			<clipPath id="SVGID_64_">
				<use xlink:href="#SVGID_63_"  overflow="visible"/>
			</clipPath>
			<g transform="matrix(1.000000, 0.000000, 0.000000, 1.000000, 0.000000, 0.000000)" clip-path="url(#SVGID_64_)">
				<line fill="none" stroke="#000000" stroke-width="2" x1="753.024" y1="544.679" x2="753.024" y2="539.923"/>
			</g>
		</g>
	</g>
	<g>
		<g>
			<defs>
				<rect id="SVGID_65_" x="109.036" y="104.333" width="713.274" height="471.553"/>
			</defs>
			<clipPath id="SVGID_66_">
				<use xlink:href="#SVGID_65_"  overflow="visible"/>
			</clipPath>
			<g transform="matrix(1.000000, 0.000000, 0.000000, 1.000000, 0.000000, 0.000000)" clip-path="url(#SVGID_66_)">
				<line fill="none" stroke="#000000" stroke-width="2" x1="779.646" y1="544.679" x2="779.646" y2="539.923"/>
			</g>
		</g>
	</g>
	<g>
		<g>
			<defs>
				<rect id="SVGID_67_" x="109.036" y="104.333" width="713.274" height="471.553"/>
			</defs>
			<clipPath id="SVGID_68_">
				<use xlink:href="#SVGID_67_"  overflow="visible"/>
			</clipPath>
			<g transform="matrix(1.000000, 0.000000, 0.000000, 1.000000, 0.000000, 0.000000)" clip-path="url(#SVGID_68_)">
				<line fill="none" stroke="#000000" stroke-width="2" x1="806.267" y1="544.679" x2="806.267" y2="536.753"/>
			</g>
		</g>
	</g>
	<g>
		<g>
			<defs>
				<rect id="SVGID_69_" x="1210.013" y="786.396" width="31.7" height="27.738"/>
			</defs>
			<clipPath id="SVGID_70_">
				<use xlink:href="#SVGID_69_"  overflow="visible"/>
			</clipPath>
			<g transform="matrix(1.000000, 0.000000, 0.000000, 1.000000, 419.402041, 238.248831)" clip-path="url(#SVGID_70_)">
				<text transform="matrix(1 0 0 1 373.9857 332.1882)" font-family="'TimesNewRomanPSMT'" font-size="19.8132">2.5</text>
			</g>
		</g>
	</g>
	<g>
		<g>
			<defs>
				<rect id="SVGID_71_" x="109.036" y="104.333" width="713.274" height="471.553"/>
			</defs>
			<clipPath id="SVGID_72_">
				<use xlink:href="#SVGID_71_"  overflow="visible"/>
			</clipPath>
			<g transform="matrix(1.000000, 0.000000, 0.000000, 1.000000, 0.000000, 0.000000)" clip-path="url(#SVGID_72_)">
				<line fill="none" stroke="#000000" stroke-width="2" x1="126.872" y1="544.679" x2="820.131" y2="544.679"/>
			</g>
		</g>
	</g>
	<g>
		<g>
			<defs>
				<rect id="SVGID_73_" x="109.036" y="104.333" width="713.274" height="471.553"/>
			</defs>
			<clipPath id="SVGID_74_">
				<use xlink:href="#SVGID_73_"  overflow="visible"/>
			</clipPath>
			<g transform="matrix(1.000000, 0.000000, 0.000000, 1.000000, 0.000000, 0.000000)" clip-path="url(#SVGID_74_)">
				<line fill="none" stroke="#000000" stroke-width="2" x1="140.737" y1="544.679" x2="148.663" y2="544.679"/>
			</g>
		</g>
	</g>
	<g>
		<g>
			<defs>
				<rect id="SVGID_75_" x="109.036" y="104.333" width="713.274" height="471.553"/>
			</defs>
			<clipPath id="SVGID_76_">
				<use xlink:href="#SVGID_75_"  overflow="visible"/>
			</clipPath>
			<g transform="matrix(1.000000, 0.000000, 0.000000, 1.000000, 0.000000, 0.000000)" clip-path="url(#SVGID_76_)">
				<line fill="none" stroke="#000000" stroke-width="2" x1="140.737" y1="530.398" x2="145.492" y2="530.398"/>
			</g>
		</g>
	</g>
	<g>
		<g>
			<defs>
				<rect id="SVGID_77_" x="109.036" y="104.333" width="713.274" height="471.553"/>
			</defs>
			<clipPath id="SVGID_78_">
				<use xlink:href="#SVGID_77_"  overflow="visible"/>
			</clipPath>
			<g transform="matrix(1.000000, 0.000000, 0.000000, 1.000000, 0.000000, 0.000000)" clip-path="url(#SVGID_78_)">
				<line fill="none" stroke="#000000" stroke-width="2" x1="140.737" y1="516.115" x2="145.492" y2="516.115"/>
			</g>
		</g>
	</g>
	<g>
		<g>
			<defs>
				<rect id="SVGID_79_" x="109.036" y="104.333" width="713.274" height="471.553"/>
			</defs>
			<clipPath id="SVGID_80_">
				<use xlink:href="#SVGID_79_"  overflow="visible"/>
			</clipPath>
			<g transform="matrix(1.000000, 0.000000, 0.000000, 1.000000, 0.000000, 0.000000)" clip-path="url(#SVGID_80_)">
				<line fill="none" stroke="#000000" stroke-width="2" x1="140.737" y1="501.833" x2="145.492" y2="501.833"/>
			</g>
		</g>
	</g>
	<g>
		<g>
			<defs>
				<rect id="SVGID_81_" x="109.036" y="104.333" width="713.274" height="471.553"/>
			</defs>
			<clipPath id="SVGID_82_">
				<use xlink:href="#SVGID_81_"  overflow="visible"/>
			</clipPath>
			<g transform="matrix(1.000000, 0.000000, 0.000000, 1.000000, 0.000000, 0.000000)" clip-path="url(#SVGID_82_)">
				<line fill="none" stroke="#000000" stroke-width="2" x1="140.737" y1="487.55" x2="145.492" y2="487.55"/>
			</g>
		</g>
	</g>
	<g>
		<g>
			<defs>
				<rect id="SVGID_83_" x="109.036" y="104.333" width="713.274" height="471.553"/>
			</defs>
			<clipPath id="SVGID_84_">
				<use xlink:href="#SVGID_83_"  overflow="visible"/>
			</clipPath>
			<g transform="matrix(1.000000, 0.000000, 0.000000, 1.000000, 0.000000, 0.000000)" clip-path="url(#SVGID_84_)">
				<line fill="none" stroke="#000000" stroke-width="2" x1="140.737" y1="473.269" x2="148.663" y2="473.269"/>
			</g>
		</g>
	</g>
	<g>
		<g>
			<defs>
				<rect id="SVGID_85_" x="183.036" y="652.195" width="27.739" height="29.721"/>
			</defs>
			<clipPath id="SVGID_86_">
				<use xlink:href="#SVGID_85_"  overflow="visible"/>
			</clipPath>
			<g transform="matrix(1.000000, 0.000000, 0.000000, 1.000000, 74.000000, 193.207359)" clip-path="url(#SVGID_86_)">
				<text transform="matrix(1 0 0 1 35.0356 287.9875)" font-family="'TimesNewRomanPSMT'" font-size="19.8132">0.5</text>
			</g>
		</g>
	</g>
	<g>
		<g>
			<defs>
				<rect id="SVGID_87_" x="109.036" y="104.333" width="713.274" height="471.553"/>
			</defs>
			<clipPath id="SVGID_88_">
				<use xlink:href="#SVGID_87_"  overflow="visible"/>
			</clipPath>
			<g transform="matrix(1.000000, 0.000000, 0.000000, 1.000000, 0.000000, 0.000000)" clip-path="url(#SVGID_88_)">
				<line fill="none" stroke="#000000" stroke-width="2" x1="140.737" y1="458.988" x2="145.492" y2="458.988"/>
			</g>
		</g>
	</g>
	<g>
		<g>
			<defs>
				<rect id="SVGID_89_" x="109.036" y="104.333" width="713.274" height="471.553"/>
			</defs>
			<clipPath id="SVGID_90_">
				<use xlink:href="#SVGID_89_"  overflow="visible"/>
			</clipPath>
			<g transform="matrix(1.000000, 0.000000, 0.000000, 1.000000, 0.000000, 0.000000)" clip-path="url(#SVGID_90_)">
				<line fill="none" stroke="#000000" stroke-width="2" x1="140.737" y1="444.707" x2="145.492" y2="444.707"/>
			</g>
		</g>
	</g>
	<g>
		<g>
			<defs>
				<rect id="SVGID_91_" x="109.036" y="104.333" width="713.274" height="471.553"/>
			</defs>
			<clipPath id="SVGID_92_">
				<use xlink:href="#SVGID_91_"  overflow="visible"/>
			</clipPath>
			<g transform="matrix(1.000000, 0.000000, 0.000000, 1.000000, 0.000000, 0.000000)" clip-path="url(#SVGID_92_)">
				<line fill="none" stroke="#000000" stroke-width="2" x1="140.737" y1="430.421" x2="145.492" y2="430.421"/>
			</g>
		</g>
	</g>
	<g>
		<g>
			<defs>
				<rect id="SVGID_93_" x="109.036" y="104.333" width="713.274" height="471.553"/>
			</defs>
			<clipPath id="SVGID_94_">
				<use xlink:href="#SVGID_93_"  overflow="visible"/>
			</clipPath>
			<g transform="matrix(1.000000, 0.000000, 0.000000, 1.000000, 0.000000, 0.000000)" clip-path="url(#SVGID_94_)">
				<line fill="none" stroke="#000000" stroke-width="2" x1="140.737" y1="416.14" x2="145.492" y2="416.14"/>
			</g>
		</g>
	</g>
	<g>
		<g>
			<defs>
				<rect id="SVGID_95_" x="109.036" y="104.333" width="713.274" height="471.553"/>
			</defs>
			<clipPath id="SVGID_96_">
				<use xlink:href="#SVGID_95_"  overflow="visible"/>
			</clipPath>
			<g transform="matrix(1.000000, 0.000000, 0.000000, 1.000000, 0.000000, 0.000000)" clip-path="url(#SVGID_96_)">
				<line fill="none" stroke="#000000" stroke-width="2" x1="140.737" y1="401.859" x2="148.663" y2="401.859"/>
			</g>
		</g>
	</g>
	<g>
		<g>
			<defs>
				<rect id="SVGID_97_" x="183.036" y="544.828" width="27.739" height="29.721"/>
			</defs>
			<clipPath id="SVGID_98_">
				<use xlink:href="#SVGID_97_"  overflow="visible"/>
			</clipPath>
			<g transform="matrix(1.000000, 0.000000, 0.000000, 1.000000, 74.000000, 157.165888)" clip-path="url(#SVGID_98_)">
				<text transform="matrix(1 0 0 1 35.0356 252.6188)" font-family="'TimesNewRomanPSMT'" font-size="19.8132">1.0</text>
			</g>
		</g>
	</g>
	<g>
		<g>
			<defs>
				<rect id="SVGID_99_" x="109.036" y="104.333" width="713.274" height="471.553"/>
			</defs>
			<clipPath id="SVGID_100_">
				<use xlink:href="#SVGID_99_"  overflow="visible"/>
			</clipPath>
			<g transform="matrix(1.000000, 0.000000, 0.000000, 1.000000, 0.000000, 0.000000)" clip-path="url(#SVGID_100_)">
				<line fill="none" stroke="#000000" stroke-width="2" x1="140.737" y1="387.578" x2="145.492" y2="387.578"/>
			</g>
		</g>
	</g>
	<g>
		<g>
			<defs>
				<rect id="SVGID_101_" x="109.036" y="104.333" width="713.274" height="471.553"/>
			</defs>
			<clipPath id="SVGID_102_">
				<use xlink:href="#SVGID_101_"  overflow="visible"/>
			</clipPath>
			<g transform="matrix(1.000000, 0.000000, 0.000000, 1.000000, 0.000000, 0.000000)" clip-path="url(#SVGID_102_)">
				<line fill="none" stroke="#000000" stroke-width="2" x1="140.737" y1="373.294" x2="145.492" y2="373.294"/>
			</g>
		</g>
	</g>
	<g>
		<g>
			<defs>
				<rect id="SVGID_103_" x="109.036" y="104.333" width="713.274" height="471.553"/>
			</defs>
			<clipPath id="SVGID_104_">
				<use xlink:href="#SVGID_103_"  overflow="visible"/>
			</clipPath>
			<g transform="matrix(1.000000, 0.000000, 0.000000, 1.000000, 0.000000, 0.000000)" clip-path="url(#SVGID_104_)">
				<line fill="none" stroke="#000000" stroke-width="2" x1="140.737" y1="359.013" x2="145.492" y2="359.013"/>
			</g>
		</g>
	</g>
	<g>
		<g>
			<defs>
				<rect id="SVGID_105_" x="109.036" y="104.333" width="713.274" height="471.553"/>
			</defs>
			<clipPath id="SVGID_106_">
				<use xlink:href="#SVGID_105_"  overflow="visible"/>
			</clipPath>
			<g transform="matrix(1.000000, 0.000000, 0.000000, 1.000000, 0.000000, 0.000000)" clip-path="url(#SVGID_106_)">
				<line fill="none" stroke="#000000" stroke-width="2" x1="140.737" y1="344.732" x2="145.492" y2="344.732"/>
			</g>
		</g>
	</g>
	<g>
		<g>
			<defs>
				<rect id="SVGID_107_" x="109.036" y="104.333" width="713.274" height="471.553"/>
			</defs>
			<clipPath id="SVGID_108_">
				<use xlink:href="#SVGID_107_"  overflow="visible"/>
			</clipPath>
			<g transform="matrix(1.000000, 0.000000, 0.000000, 1.000000, 0.000000, 0.000000)" clip-path="url(#SVGID_108_)">
				<line fill="none" stroke="#000000" stroke-width="2" x1="140.737" y1="330.449" x2="148.663" y2="330.449"/>
			</g>
		</g>
	</g>
	<g>
		<g>
			<defs>
				<rect id="SVGID_109_" x="183.036" y="437.457" width="27.739" height="29.721"/>
			</defs>
			<clipPath id="SVGID_110_">
				<use xlink:href="#SVGID_109_"  overflow="visible"/>
			</clipPath>
			<g transform="matrix(1.000000, 0.000000, 0.000000, 1.000000, 74.000000, 121.124416)" clip-path="url(#SVGID_110_)">
				<text transform="matrix(1 0 0 1 35.0356 217.2501)" font-family="'TimesNewRomanPSMT'" font-size="19.8132">1.5</text>
			</g>
		</g>
	</g>
	<g>
		<g>
			<defs>
				<rect id="SVGID_111_" x="109.036" y="104.333" width="713.274" height="471.553"/>
			</defs>
			<clipPath id="SVGID_112_">
				<use xlink:href="#SVGID_111_"  overflow="visible"/>
			</clipPath>
			<g transform="matrix(1.000000, 0.000000, 0.000000, 1.000000, 0.000000, 0.000000)" clip-path="url(#SVGID_112_)">
				<line fill="none" stroke="#000000" stroke-width="2" x1="140.737" y1="316.167" x2="145.492" y2="316.167"/>
			</g>
		</g>
	</g>
	<g>
		<g>
			<defs>
				<rect id="SVGID_113_" x="109.036" y="104.333" width="713.274" height="471.553"/>
			</defs>
			<clipPath id="SVGID_114_">
				<use xlink:href="#SVGID_113_"  overflow="visible"/>
			</clipPath>
			<g transform="matrix(1.000000, 0.000000, 0.000000, 1.000000, 0.000000, 0.000000)" clip-path="url(#SVGID_114_)">
				<line fill="none" stroke="#000000" stroke-width="2" x1="140.737" y1="301.886" x2="145.492" y2="301.886"/>
			</g>
		</g>
	</g>
	<g>
		<g>
			<defs>
				<rect id="SVGID_115_" x="109.036" y="104.333" width="713.274" height="471.553"/>
			</defs>
			<clipPath id="SVGID_116_">
				<use xlink:href="#SVGID_115_"  overflow="visible"/>
			</clipPath>
			<g transform="matrix(1.000000, 0.000000, 0.000000, 1.000000, 0.000000, 0.000000)" clip-path="url(#SVGID_116_)">
				<line fill="none" stroke="#000000" stroke-width="2" x1="140.737" y1="287.605" x2="145.492" y2="287.605"/>
			</g>
		</g>
	</g>
	<g>
		<g>
			<defs>
				<rect id="SVGID_117_" x="109.036" y="104.333" width="713.274" height="471.553"/>
			</defs>
			<clipPath id="SVGID_118_">
				<use xlink:href="#SVGID_117_"  overflow="visible"/>
			</clipPath>
			<g transform="matrix(1.000000, 0.000000, 0.000000, 1.000000, 0.000000, 0.000000)" clip-path="url(#SVGID_118_)">
				<line fill="none" stroke="#000000" stroke-width="2" x1="140.737" y1="273.321" x2="145.492" y2="273.321"/>
			</g>
		</g>
	</g>
	<g>
		<g>
			<defs>
				<rect id="SVGID_119_" x="109.036" y="104.333" width="713.274" height="471.553"/>
			</defs>
			<clipPath id="SVGID_120_">
				<use xlink:href="#SVGID_119_"  overflow="visible"/>
			</clipPath>
			<g transform="matrix(1.000000, 0.000000, 0.000000, 1.000000, 0.000000, 0.000000)" clip-path="url(#SVGID_120_)">
				<line fill="none" stroke="#000000" stroke-width="2" x1="140.737" y1="259.04" x2="148.663" y2="259.04"/>
			</g>
		</g>
	</g>
	<g>
		<g>
			<defs>
				<rect id="SVGID_121_" x="183.036" y="330.089" width="27.739" height="29.719"/>
			</defs>
			<clipPath id="SVGID_122_">
				<use xlink:href="#SVGID_121_"  overflow="visible"/>
			</clipPath>
			<g transform="matrix(1.000000, 0.000000, 0.000000, 1.000000, 74.000000, 85.082944)" clip-path="url(#SVGID_122_)">
				<text transform="matrix(1 0 0 1 35.0356 181.8834)" font-family="'TimesNewRomanPSMT'" font-size="19.8132">2.0</text>
			</g>
		</g>
	</g>
	<g>
		<g>
			<defs>
				<rect id="SVGID_123_" x="109.036" y="104.333" width="713.274" height="471.553"/>
			</defs>
			<clipPath id="SVGID_124_">
				<use xlink:href="#SVGID_123_"  overflow="visible"/>
			</clipPath>
			<g transform="matrix(1.000000, 0.000000, 0.000000, 1.000000, 0.000000, 0.000000)" clip-path="url(#SVGID_124_)">
				<line fill="none" stroke="#000000" stroke-width="2" x1="140.737" y1="244.758" x2="145.492" y2="244.758"/>
			</g>
		</g>
	</g>
	<g>
		<g>
			<defs>
				<rect id="SVGID_125_" x="109.036" y="104.333" width="713.274" height="471.553"/>
			</defs>
			<clipPath id="SVGID_126_">
				<use xlink:href="#SVGID_125_"  overflow="visible"/>
			</clipPath>
			<g transform="matrix(1.000000, 0.000000, 0.000000, 1.000000, 0.000000, 0.000000)" clip-path="url(#SVGID_126_)">
				<line fill="none" stroke="#000000" stroke-width="2" x1="140.737" y1="230.477" x2="145.492" y2="230.477"/>
			</g>
		</g>
	</g>
	<g>
		<g>
			<defs>
				<rect id="SVGID_127_" x="109.036" y="104.333" width="713.274" height="471.553"/>
			</defs>
			<clipPath id="SVGID_128_">
				<use xlink:href="#SVGID_127_"  overflow="visible"/>
			</clipPath>
			<g transform="matrix(1.000000, 0.000000, 0.000000, 1.000000, 0.000000, 0.000000)" clip-path="url(#SVGID_128_)">
				<line fill="none" stroke="#000000" stroke-width="2" x1="140.737" y1="216.194" x2="145.492" y2="216.194"/>
			</g>
		</g>
	</g>
	<g>
		<g>
			<defs>
				<rect id="SVGID_129_" x="109.036" y="104.333" width="713.274" height="471.553"/>
			</defs>
			<clipPath id="SVGID_130_">
				<use xlink:href="#SVGID_129_"  overflow="visible"/>
			</clipPath>
			<g transform="matrix(1.000000, 0.000000, 0.000000, 1.000000, 0.000000, 0.000000)" clip-path="url(#SVGID_130_)">
				<line fill="none" stroke="#000000" stroke-width="2" x1="140.737" y1="201.913" x2="145.492" y2="201.913"/>
			</g>
		</g>
	</g>
	<g>
		<g>
			<defs>
				<rect id="SVGID_131_" x="109.036" y="104.333" width="713.274" height="471.553"/>
			</defs>
			<clipPath id="SVGID_132_">
				<use xlink:href="#SVGID_131_"  overflow="visible"/>
			</clipPath>
			<g transform="matrix(1.000000, 0.000000, 0.000000, 1.000000, 0.000000, 0.000000)" clip-path="url(#SVGID_132_)">
				<line fill="none" stroke="#000000" stroke-width="2" x1="140.737" y1="187.63" x2="148.663" y2="187.63"/>
			</g>
		</g>
	</g>
	<g>
		<g>
			<defs>
				<rect id="SVGID_133_" x="183.036" y="222.721" width="27.739" height="29.72"/>
			</defs>
			<clipPath id="SVGID_134_">
				<use xlink:href="#SVGID_133_"  overflow="visible"/>
			</clipPath>
			<g transform="matrix(1.000000, 0.000000, 0.000000, 1.000000, 74.000000, 49.041472)" clip-path="url(#SVGID_134_)">
				<text transform="matrix(1 0 0 1 35.0356 146.5137)" font-family="'TimesNewRomanPSMT'" font-size="19.8132">2.5</text>
			</g>
		</g>
	</g>
	<g>
		<g>
			<defs>
				<rect id="SVGID_135_" x="109.036" y="104.333" width="713.274" height="471.553"/>
			</defs>
			<clipPath id="SVGID_136_">
				<use xlink:href="#SVGID_135_"  overflow="visible"/>
			</clipPath>
			<g transform="matrix(1.000000, 0.000000, 0.000000, 1.000000, 0.000000, 0.000000)" clip-path="url(#SVGID_136_)">
				<line fill="none" stroke="#000000" stroke-width="2" x1="140.737" y1="173.348" x2="145.492" y2="173.348"/>
			</g>
		</g>
	</g>
	<g>
		<g>
			<defs>
				<rect id="SVGID_137_" x="109.036" y="104.333" width="713.274" height="471.553"/>
			</defs>
			<clipPath id="SVGID_138_">
				<use xlink:href="#SVGID_137_"  overflow="visible"/>
			</clipPath>
			<g transform="matrix(1.000000, 0.000000, 0.000000, 1.000000, 0.000000, 0.000000)" clip-path="url(#SVGID_138_)">
				<line fill="none" stroke="#000000" stroke-width="2" x1="140.737" y1="159.067" x2="145.492" y2="159.067"/>
			</g>
		</g>
	</g>
	<g>
		<g>
			<defs>
				<rect id="SVGID_139_" x="109.036" y="104.333" width="713.274" height="471.553"/>
			</defs>
			<clipPath id="SVGID_140_">
				<use xlink:href="#SVGID_139_"  overflow="visible"/>
			</clipPath>
			<g transform="matrix(1.000000, 0.000000, 0.000000, 1.000000, 0.000000, 0.000000)" clip-path="url(#SVGID_140_)">
				<line fill="none" stroke="#000000" stroke-width="2" x1="140.737" y1="144.784" x2="145.492" y2="144.784"/>
			</g>
		</g>
	</g>
	<g>
		<g>
			<defs>
				<rect id="SVGID_141_" x="109.036" y="104.333" width="713.274" height="471.553"/>
			</defs>
			<clipPath id="SVGID_142_">
				<use xlink:href="#SVGID_141_"  overflow="visible"/>
			</clipPath>
			<g transform="matrix(1.000000, 0.000000, 0.000000, 1.000000, 0.000000, 0.000000)" clip-path="url(#SVGID_142_)">
				<line fill="none" stroke="#000000" stroke-width="2" x1="140.737" y1="130.502" x2="145.492" y2="130.502"/>
			</g>
		</g>
	</g>
	<g>
		<g>
			<defs>
				<rect id="SVGID_143_" x="109.036" y="104.333" width="713.274" height="471.553"/>
			</defs>
			<clipPath id="SVGID_144_">
				<use xlink:href="#SVGID_143_"  overflow="visible"/>
			</clipPath>
			<g transform="matrix(1.000000, 0.000000, 0.000000, 1.000000, 0.000000, 0.000000)" clip-path="url(#SVGID_144_)">
				<line fill="none" stroke="#000000" stroke-width="2" x1="140.737" y1="116.221" x2="148.663" y2="116.221"/>
			</g>
		</g>
	</g>
	<g>
		<g>
			<defs>
				<rect id="SVGID_145_" x="183.036" y="117.333" width="27.739" height="25.757"/>
			</defs>
			<clipPath id="SVGID_146_">
				<use xlink:href="#SVGID_145_"  overflow="visible"/>
			</clipPath>
			<g transform="matrix(1.000000, 0.000000, 0.000000, 1.000000, 74.000000, 13.000000)" clip-path="url(#SVGID_146_)">
				<text transform="matrix(1 0 0 1 35.0356 111.147)" font-family="'TimesNewRomanPSMT'" font-size="19.8132">3.0</text>
			</g>
		</g>
	</g>
	<g>
		<g>
			<defs>
				<rect id="SVGID_147_" x="109.036" y="104.333" width="713.274" height="471.553"/>
			</defs>
			<clipPath id="SVGID_148_">
				<use xlink:href="#SVGID_147_"  overflow="visible"/>
			</clipPath>
			<g transform="matrix(1.000000, 0.000000, 0.000000, 1.000000, 0.000000, 0.000000)" clip-path="url(#SVGID_148_)">
				<line fill="none" stroke="#000000" stroke-width="2" x1="140.737" y1="544.679" x2="140.737" y2="116.221"/>
			</g>
		</g>
	</g>
</g>
<polyline opacity="0.5" fill="none" stroke="#3F3D99" stroke-width="4" enable-background="new    " points="66.737,388.828 
	66.941,384.904 67.146,383.265 67.35,382.009 67.554,380.951 67.758,380.017 67.962,379.171 68.371,377.671 68.574,376.996 
	68.779,376.353 69.187,375.162 70.003,373.041 70.208,372.554 70.412,372.082 70.82,371.173 71.637,369.486 73.27,366.488 
	73.474,366.142 73.678,365.798 74.085,365.13 74.901,363.847 76.535,361.458 79.801,357.222 80.022,356.955 80.244,356.691 
	80.686,356.167 81.571,355.144 83.342,353.193 86.882,349.572 87.103,349.355 87.326,349.142 87.767,348.718 88.653,347.88 
	90.422,346.259 93.963,343.185 94.169,343.013 94.377,342.841 94.79,342.498 95.615,341.82 97.27,340.492 100.575,337.941 
	107.187,333.187 120.152,324.886 134.216,316.955 147.34,310.271 161.563,303.623 175.526,297.56 188.553,292.249 202.675,286.802 
	215.864,281.967 228.79,277.429 242.816,272.709 255.902,268.469 270.086,264.037 284.013,259.833 297,256.033 311.088,252.03 
	324.235,248.397 338.483,244.564 352.47,240.896 365.519,237.556 379.667,234.015 392.877,230.779 405.828,227.672 419.874,224.368 
	432.985,221.342 447.194,218.123 461.143,215.021 474.154,212.177 488.267,209.144 501.438,206.357 514.348,203.667 
	528.358,200.791 541.432,198.146 555.602,195.321 568.837,192.718 581.81,190.201 595.882,187.505 609.014,185.021 623.246,182.364 
	637.221,179.788 650.255,177.413 664.387,174.868 677.583,172.519 690.52,170.239 704.553,167.794 717.649,165.536 717.878,165.497 
	718.104,165.458 718.563,165.379 719.476,165.223 721.303,164.91 724.959,164.286 725.186,164.247 725.414,164.208 725.871,164.13 
	726.785,163.974 728.612,163.662 728.841,163.624 729.069,163.585 729.526,163.507 730.44,163.352 730.669,163.313 730.896,163.274 
	731.354,163.197 731.583,163.158 731.81,163.12 732.04,163.081 732.267,163.042 "/>
<polyline opacity="0.7" fill="none" stroke="#266700" stroke-width="4" enable-background="new    " points="331.984,531.207 
	338.483,529.459 352.47,525.792 365.519,522.452 379.667,518.911 392.877,515.674 405.828,512.568 419.874,509.263 432.985,506.238 
	447.194,503.019 461.143,499.917 474.154,497.072 488.267,494.04 501.438,491.252 514.348,488.562 528.358,485.687 541.432,483.042 
	555.602,480.216 568.837,477.613 581.81,475.097 595.882,472.4 609.014,469.917 623.246,467.259 637.221,464.683 650.255,462.308 
	664.387,459.763 677.583,457.415 690.52,455.134 704.553,452.689 717.649,450.431 717.878,450.392 718.104,450.353 718.563,450.275 
	719.476,450.119 721.303,449.806 724.959,449.181 725.186,449.142 725.414,449.103 725.871,449.025 726.785,448.87 728.612,448.558 
	728.841,448.519 729.069,448.48 729.526,448.402 730.44,448.248 730.669,448.208 730.896,448.169 731.354,448.093 731.583,448.054 
	731.81,448.015 732.04,447.976 732.267,447.937 "/>
<polyline opacity="0.5" fill="none" stroke="#993D71" stroke-width="4" enable-background="new    " points="332.952,531.341 
	333.14,527.857 333.361,526.052 333.586,524.699 333.808,523.566 334.03,522.576 334.253,521.683 334.475,520.865 334.921,519.388 
	335.143,518.712 335.367,518.072 335.812,516.871 336.702,514.722 336.925,514.228 337.146,513.744 337.592,512.816 
	338.483,511.089 338.702,510.683 338.919,510.291 339.357,509.521 340.231,508.058 341.979,505.375 342.198,505.058 
	342.417,504.744 342.854,504.13 343.728,502.941 345.476,500.697 345.695,500.427 345.913,500.162 346.352,499.636 347.225,498.607 
	348.973,496.638 352.47,493.003 352.674,492.804 352.878,492.603 353.286,492.205 354.101,491.421 355.732,489.898 358.994,487.005 
	365.519,481.724 365.741,481.554 365.96,481.386 366.404,481.05 367.288,480.384 369.056,479.082 372.595,476.564 379.667,471.849 
	392.877,463.917 405.828,456.953 419.874,450.068 432.985,444.13 447.194,438.119 461.143,432.572 474.154,427.664 488.267,422.589 
	501.438,418.058 514.348,413.785 528.358,409.316 541.432,405.291 555.602,401.066 568.837,397.24 581.81,393.593 595.882,389.742 
	609.014,386.24 623.246,382.539 637.221,378.99 650.255,375.755 664.387,372.318 677.583,369.179 690.52,366.158 704.553,362.941 
	717.649,359.994 717.878,359.943 718.104,359.89 718.563,359.791 719.476,359.585 721.303,359.179 724.959,358.369 725.186,358.32 
	725.414,358.267 725.871,358.166 726.785,357.966 728.612,357.564 728.841,357.513 729.069,357.462 729.526,357.363 730.44,357.162 
	730.669,357.113 730.896,357.062 731.354,356.962 731.583,356.912 731.81,356.861 732.04,356.812 732.267,356.761 "/>
<polyline opacity="0.5" fill="none" stroke="#77120C" stroke-width="4" enable-background="new    " points="66.737,388.892 
	66.941,392.814 67.146,394.453 67.35,395.708 67.554,396.769 67.758,397.703 67.962,398.546 68.371,400.044 68.574,400.724 
	68.779,401.365 69.187,402.558 70.003,404.679 70.208,405.166 70.412,405.636 70.82,406.544 71.637,408.232 73.27,411.23 
	73.474,411.576 73.678,411.917 74.085,412.587 74.901,413.871 76.535,416.257 79.801,420.496 80.022,420.763 80.244,421.027 
	80.686,421.55 81.571,422.572 83.342,424.527 86.882,428.148 87.103,428.361 87.326,428.574 87.767,429 88.653,429.837 
	90.422,431.458 93.963,434.533 94.169,434.705 94.377,434.878 94.79,435.22 95.615,435.898 97.27,437.226 100.575,439.777 
	107.187,444.531 120.152,452.832 134.216,460.763 147.34,467.445 161.563,474.097 175.526,480.16 188.553,485.468 202.675,490.917 
	215.864,495.751 228.79,500.289 242.816,505.011 255.902,509.25 270.086,513.681 284.013,517.886 297,521.685 311.088,525.689 
	324.235,529.322 332.995,531.679 "/>
<g>
	<line fill="none" stroke="#3F3D99" stroke-width="3" x1="252.075" y1="211.262" x2="281.032" y2="211.262"/>
	<text transform="matrix(1 0 0 1 180.5093 254.8931)" fill="#3F3D99" font-family="'AGaramondPro-Regular'" font-size="48.1961">1+b</text>
	
		<text transform="matrix(1 0 0 1 180.5093 254.8931)" fill="none" stroke="#3F3D99" stroke-width="2" font-family="'AGaramondPro-Regular'" font-size="48.1961">1+b</text>
</g>
<g>
	
		<line fill="none" stroke="#77120C" stroke-width="3" stroke-miterlimit="10" x1="210.697" y1="418.087" x2="237.585" y2="418.087"/>
	<text transform="matrix(1 0 0 1 152.3896 458.2593)" fill="#77120C" font-family="'AGaramondPro-Regular'" font-size="44.753">1-b</text>
	
		<text transform="matrix(1 0 0 1 152.3896 458.2593)" fill="none" stroke="#77120C" stroke-width="2" stroke-miterlimit="10" font-family="'AGaramondPro-Regular'" font-size="44.753">1-b</text>
</g>
<g>
	
		<line fill="none" stroke="#993D71" stroke-width="3" stroke-miterlimit="10" x1="504.675" y1="337.886" x2="567.257" y2="337.886"/>
	<text transform="matrix(1 0 0 1 480.4287 382.5132)" fill="#993D71" font-family="'AGaramondPro-Regular'" font-size="49.2939">b-1</text>
	
		<text transform="matrix(1 0 0 1 480.4287 382.5132)" fill="none" stroke="#993D71" stroke-width="2" stroke-miterlimit="10" font-family="'AGaramondPro-Regular'" font-size="49.2939">b-1</text>
</g>
<text transform="matrix(1 0 0 1 327.6563 557.6714)" font-family="'AGaramondPro-Regular'" font-size="24">1</text>
<text transform="matrix(1 0 0 1 65.6914 557.6714)" font-family="'AGaramondPro-Regular'" font-size="24">0</text>
<text transform="matrix(1 0 0 1 592.6563 557.6714)" font-family="'AGaramondPro-Regular'" font-size="24">2</text>
<text transform="matrix(1 0 0 1 37.6729 392.6714)" font-family="'AGaramondPro-Regular'" font-size="24">1</text>
<text transform="matrix(1 0 0 1 37.6729 253.6714)" font-family="'AGaramondPro-Regular'" font-size="24">2</text>
<text transform="matrix(1 0 0 1 802.6563 232.6714)" font-family="'AGaramondPro-Bold'" font-size="24">Steady state stable </text>
<text transform="matrix(1 0 0 1 806.6563 324.6714)" font-family="'AGaramondPro-Bold'" font-size="24">Steady state unstable </text>
<text transform="matrix(1 0 0 1 810.6563 420.6714)" font-family="'AGaramondPro-Bold'" font-size="24">Complex eigenvalues</text>
<text transform="matrix(1 0 0 1 771.5293 536.9175)" font-family="'AGaramondPro-Bold'" font-size="48">b</text>
<text transform="matrix(1 0 0 1 56.1646 78.4795)" font-family="'AGaramondPro-Bold'" font-size="48">a</text>
<text transform="matrix(1 0 0 1 37.6729 539.7671)" font-family="'AGaramondPro-Regular'" font-size="24">0</text>
<g>
	<line fill="#266700" stroke="#266700" stroke-width="3" x1="651.074" y1="474.264" x2="680.031" y2="474.264"/>
	
		<text transform="matrix(1 0 0 1 627.5059 517.896)" fill="#266700" stroke="#266700" stroke-width="2" font-family="'AGaramondPro-Regular'" font-size="48.1961">b-1</text>
</g>
</svg>
